%FSLAX25Y25*%
%MOIN*%
G70*
G01*
G75*
G04 Layer_Physical_Order=2*
G04 Layer_Color=16711680*
%ADD10R,0.03150X0.03543*%
%ADD11R,0.03543X0.03150*%
%ADD12O,0.02400X0.08000*%
%ADD13R,0.05709X0.01772*%
%ADD14O,0.05709X0.01772*%
%ADD15O,0.07480X0.01575*%
%ADD16R,0.08500X0.04200*%
%ADD17R,0.20000X0.32500*%
%ADD18R,0.07500X0.42500*%
%ADD19R,0.05906X0.05906*%
%ADD20O,0.01969X0.10630*%
%ADD21R,0.01969X0.10630*%
%ADD22R,0.00787X0.04724*%
%ADD23O,0.00787X0.04724*%
%ADD24R,0.07480X0.11024*%
%ADD25R,0.04724X0.05512*%
%ADD26C,0.03000*%
%ADD27C,0.00800*%
%ADD28C,0.05000*%
%ADD29C,0.00780*%
%ADD30C,0.08000*%
%ADD31C,0.02500*%
%ADD32R,0.50000X0.10000*%
%ADD33R,0.08268X0.11024*%
%ADD34R,0.09449X0.09449*%
%ADD35R,0.40000X0.40000*%
%ADD36R,0.10000X0.50000*%
%ADD37R,1.60000X0.40000*%
%ADD38R,0.14000X0.15000*%
%ADD39C,0.05315*%
%ADD40R,0.05315X0.05315*%
%ADD41C,0.10000*%
%ADD42C,0.05512*%
%ADD43C,0.06000*%
%ADD44C,0.12000*%
%ADD45R,0.06000X0.06000*%
%ADD46C,0.05906*%
%ADD47C,0.07000*%
%ADD48R,0.08000X0.08000*%
%ADD49C,0.08000*%
%ADD50C,0.07874*%
%ADD51C,0.17716*%
%ADD52C,0.05118*%
%ADD53R,0.05000X0.05000*%
%ADD54C,0.05000*%
%ADD55R,0.05906X0.05906*%
%ADD56C,0.14000*%
%ADD57C,0.05500*%
%ADD58C,0.11000*%
%ADD59C,0.03000*%
%ADD60O,0.10000X0.01181*%
%ADD61O,0.01181X0.10000*%
%ADD62O,0.07480X0.01181*%
%ADD63R,0.06299X0.01181*%
%ADD64O,0.06299X0.01181*%
%ADD65R,0.09449X0.24410*%
%ADD66R,0.00984X0.03150*%
%ADD67R,0.03150X0.00984*%
%ADD68O,0.03150X0.00984*%
%ADD69O,0.01181X0.07480*%
%ADD70O,0.01969X0.07874*%
%ADD71R,0.01181X0.03937*%
%ADD72O,0.01181X0.03937*%
%ADD73R,0.04724X0.05512*%
%ADD74R,0.03937X0.01969*%
%ADD75O,0.03937X0.01969*%
%ADD76R,2.00000X0.06000*%
%ADD77O,0.01969X0.03937*%
%ADD78R,0.01969X0.03937*%
G36*
X1978308Y947991D02*
Y914552D01*
X1975906D01*
X1966369Y924089D01*
X1966500Y924334D01*
Y926500D01*
X1964334D01*
X1964089Y926369D01*
X1961607Y928851D01*
X1961216Y929111D01*
X1961140Y929127D01*
X1960756Y929203D01*
X1921241D01*
X1920984Y929632D01*
X1921072Y929797D01*
X1952000D01*
X1952384Y929873D01*
X1952460Y929889D01*
X1952851Y930149D01*
X1970480Y947779D01*
X1971000Y947675D01*
X1971890Y947852D01*
X1972644Y948356D01*
X1973148Y949110D01*
X1973325Y950000D01*
X1973148Y950890D01*
X1972644Y951644D01*
X1971890Y952148D01*
X1971000Y952325D01*
X1970110Y952148D01*
X1969356Y951644D01*
X1968852Y950890D01*
X1968675Y950000D01*
X1968779Y949480D01*
X1956882Y937584D01*
X1956404Y937729D01*
X1956355Y937975D01*
X1955802Y938802D01*
X1954975Y939355D01*
X1954500Y939450D01*
Y937000D01*
X1954000D01*
Y936500D01*
X1951550D01*
X1951645Y936025D01*
X1952198Y935198D01*
X1953025Y934645D01*
X1953271Y934596D01*
X1953416Y934118D01*
X1951502Y932203D01*
X1950331D01*
Y932203D01*
Y932228D01*
X1950331Y932557D01*
X1950331Y932557D01*
X1950331D01*
Y934500D01*
X1945181D01*
Y932557D01*
X1945181Y932557D01*
X1945181D01*
X1945181Y932228D01*
X1945156Y932203D01*
X1944599D01*
Y932448D01*
X1944599D01*
Y937552D01*
X1944569D01*
Y939756D01*
X1944392Y940646D01*
X1943888Y941400D01*
X1932081Y953207D01*
Y960793D01*
X1946644Y975356D01*
X1947148Y976110D01*
X1947325Y977000D01*
X1947148Y977890D01*
X1946836Y978356D01*
X1947024Y978707D01*
X1947518Y978780D01*
X1978308Y947991D01*
D02*
G37*
G36*
X2045000Y725000D02*
X1700000D01*
Y781675D01*
X1825907D01*
X1834459Y773123D01*
X1835213Y772619D01*
X1836103Y772443D01*
X1841037D01*
X1854123Y759356D01*
X1854878Y758852D01*
X1855767Y758675D01*
X1918000D01*
X1918890Y758852D01*
X1919644Y759356D01*
X1957644Y797356D01*
X1958148Y798110D01*
X1958325Y799000D01*
Y828675D01*
X1971730D01*
X1974811Y825595D01*
Y824370D01*
X1978339D01*
Y825655D01*
X1978723Y826228D01*
X1978900Y827118D01*
X1978723Y828008D01*
X1978339Y828582D01*
Y829867D01*
X1977114D01*
X1974337Y832644D01*
X1973582Y833148D01*
X1972693Y833325D01*
X1956963D01*
X1945877Y844411D01*
X1946112Y844852D01*
X1947000Y844675D01*
X1947890Y844852D01*
X1948644Y845356D01*
X1964500Y861212D01*
X1982124Y843588D01*
Y827118D01*
X1982301Y826228D01*
X1982771Y825525D01*
X1982787Y825445D01*
X1983177Y824862D01*
X1983760Y824472D01*
X1984449Y824335D01*
X1985137Y824472D01*
X1985721Y824862D01*
X1986111Y825445D01*
X1986127Y825525D01*
X1986596Y826228D01*
X1986773Y827118D01*
Y844551D01*
X1986596Y845441D01*
X1986093Y846195D01*
X1967788Y864500D01*
X2003644Y900356D01*
X2004148Y901110D01*
X2004325Y902000D01*
Y973000D01*
X2004148Y973890D01*
X2003644Y974644D01*
X1991644Y986644D01*
X1990890Y987148D01*
X1990000Y987325D01*
X1900000D01*
X1899110Y987148D01*
X1898356Y986644D01*
X1890203Y978491D01*
X1889699Y977737D01*
X1889522Y976847D01*
X1889699Y975957D01*
X1890203Y975203D01*
X1890957Y974699D01*
X1891819Y974528D01*
X1891933Y974041D01*
X1891872Y973994D01*
X1891116Y973009D01*
X1890641Y971861D01*
X1890479Y970630D01*
X1890641Y969399D01*
X1891116Y968251D01*
X1891872Y967266D01*
X1892857Y966510D01*
X1894005Y966034D01*
X1895236Y965872D01*
X1896468Y966034D01*
X1897615Y966510D01*
X1898600Y967266D01*
X1899356Y968251D01*
X1899832Y969399D01*
X1899994Y970630D01*
X1899832Y971861D01*
X1899356Y973009D01*
X1898600Y973994D01*
X1897615Y974750D01*
X1896468Y975226D01*
X1895236Y975388D01*
X1894210Y975253D01*
X1893989Y975701D01*
X1900963Y982675D01*
X1989037D01*
X1996011Y975701D01*
X1995790Y975253D01*
X1994764Y975388D01*
X1993532Y975226D01*
X1992385Y974750D01*
X1991400Y973994D01*
X1990644Y973009D01*
X1990168Y971861D01*
X1990006Y970630D01*
X1990168Y969399D01*
X1990644Y968251D01*
X1991400Y967266D01*
X1992385Y966510D01*
X1993532Y966034D01*
X1994764Y965872D01*
X1995995Y966034D01*
X1997143Y966510D01*
X1998128Y967266D01*
X1998884Y968251D01*
X1999185Y968977D01*
X1999675Y968880D01*
Y902963D01*
X1964500Y867788D01*
X1955644Y876644D01*
X1954890Y877148D01*
X1954000Y877325D01*
X1950111D01*
Y877552D01*
X1950020D01*
X1949904Y878133D01*
X1949400Y878888D01*
X1944644Y883644D01*
X1943890Y884148D01*
X1943000Y884325D01*
X1942110Y884148D01*
X1941356Y883644D01*
X1940852Y882890D01*
X1940675Y882000D01*
X1940852Y881110D01*
X1941356Y880356D01*
X1943479Y878234D01*
X1943287Y877772D01*
X1942744D01*
Y875500D01*
X1944819D01*
Y876240D01*
X1944986Y876309D01*
X1945401Y876031D01*
Y872448D01*
X1950111D01*
Y872675D01*
X1953037D01*
X1961212Y864500D01*
X1950793Y854080D01*
X1950331Y854272D01*
Y854500D01*
X1948256D01*
Y852228D01*
X1948288D01*
X1948479Y851766D01*
X1945356Y848644D01*
X1945047Y848181D01*
X1944569Y848326D01*
Y852448D01*
X1944599D01*
Y857552D01*
X1939889D01*
Y857325D01*
X1933457D01*
X1932567Y857148D01*
X1931813Y856644D01*
X1927813Y852644D01*
X1905036Y829867D01*
X1903811D01*
Y828582D01*
X1903427Y828008D01*
X1903250Y827118D01*
X1903427Y826229D01*
X1903811Y825655D01*
Y824370D01*
X1907339D01*
Y825595D01*
X1931100Y849356D01*
X1934420Y852675D01*
X1939889D01*
Y852448D01*
X1939919D01*
Y844756D01*
X1940096Y843866D01*
X1940600Y843112D01*
X1941123Y842589D01*
X1940888Y842148D01*
X1940000Y842325D01*
X1933000D01*
X1932110Y842148D01*
X1931356Y841644D01*
X1919155Y829443D01*
X1914618D01*
X1914137Y829764D01*
X1913449Y829901D01*
X1912761Y829764D01*
X1912177Y829374D01*
X1911787Y828791D01*
X1911771Y828711D01*
X1911301Y828008D01*
X1911124Y827118D01*
X1911301Y826229D01*
X1911771Y825525D01*
X1911787Y825445D01*
X1912177Y824862D01*
X1912761Y824472D01*
X1913449Y824335D01*
X1914137Y824472D01*
X1914618Y824793D01*
X1920118D01*
X1921008Y824970D01*
X1921762Y825474D01*
X1933963Y837675D01*
X1937675D01*
Y830000D01*
X1937852Y829110D01*
X1938356Y828356D01*
X1942675Y824037D01*
Y794963D01*
X1914817Y767105D01*
X1913858D01*
X1913637Y767553D01*
X1914063Y768109D01*
X1914441Y769021D01*
X1914504Y769500D01*
X1907071D01*
X1907134Y769021D01*
X1907512Y768109D01*
X1907938Y767553D01*
X1907717Y767105D01*
X1903580D01*
X1903359Y767553D01*
X1903871Y768220D01*
X1904226Y769078D01*
X1904348Y770000D01*
X1904226Y770922D01*
X1903871Y771780D01*
X1903305Y772518D01*
X1903112Y772666D01*
Y781457D01*
X1902935Y782346D01*
X1902552Y782920D01*
Y784599D01*
X1897448D01*
Y779889D01*
X1898463D01*
Y772666D01*
X1898270Y772518D01*
X1897704Y771780D01*
X1897348Y770922D01*
X1897227Y770000D01*
X1897348Y769078D01*
X1897704Y768220D01*
X1898215Y767553D01*
X1897994Y767105D01*
X1867183D01*
X1861644Y772644D01*
X1860890Y773148D01*
X1860000Y773325D01*
X1859110Y773148D01*
X1858356Y772644D01*
X1857852Y771890D01*
X1857675Y771000D01*
X1857852Y770110D01*
X1858356Y769356D01*
X1863926Y763787D01*
X1863734Y763325D01*
X1856730D01*
X1846236Y773819D01*
X1846877Y774459D01*
X1846877Y774459D01*
X1846877Y774459D01*
X1847380Y775213D01*
X1847557Y776103D01*
Y783897D01*
X1847557Y783897D01*
X1847557Y783897D01*
Y783897D01*
X1847557D01*
X1847557Y783897D01*
X1847380Y784787D01*
X1846877Y785541D01*
X1843565Y788853D01*
X1843637Y789026D01*
X1843765Y790000D01*
X1843637Y790974D01*
X1843261Y791883D01*
X1842662Y792662D01*
X1841883Y793260D01*
X1840974Y793637D01*
X1840000Y793765D01*
X1839026Y793637D01*
X1838117Y793260D01*
X1837338Y792662D01*
X1836739Y791883D01*
X1836363Y790974D01*
X1836235Y790000D01*
X1836363Y789026D01*
X1836739Y788118D01*
X1837338Y787338D01*
X1838117Y786739D01*
X1839026Y786363D01*
X1839548Y786295D01*
X1841648Y784195D01*
X1841456Y783733D01*
X1839555D01*
X1833644Y789644D01*
X1832890Y790148D01*
X1832000Y790325D01*
X1700000D01*
Y810000D01*
X1820000D01*
Y830855D01*
X1820425D01*
Y830855D01*
X1822500D01*
Y832347D01*
X1823000D01*
Y832847D01*
X1825575D01*
Y833112D01*
X1834315D01*
X1834699Y833188D01*
X1834775Y833204D01*
X1835166Y833464D01*
X1838346Y836645D01*
X1839026Y836363D01*
X1840000Y836235D01*
X1840974Y836363D01*
X1841883Y836740D01*
X1842481Y837199D01*
X1842930Y836978D01*
Y834631D01*
X1841654Y833355D01*
X1840974Y833637D01*
X1840000Y833765D01*
X1839026Y833637D01*
X1838117Y833261D01*
X1837338Y832662D01*
X1836739Y831882D01*
X1836363Y830974D01*
X1836235Y830000D01*
X1836363Y829026D01*
X1836739Y828117D01*
X1837338Y827338D01*
X1838117Y826740D01*
X1839026Y826363D01*
X1840000Y826235D01*
X1840974Y826363D01*
X1841883Y826740D01*
X1842662Y827338D01*
X1843261Y828117D01*
X1843637Y829026D01*
X1843765Y830000D01*
X1843637Y830974D01*
X1843355Y831654D01*
X1844048Y832346D01*
X1844510Y832155D01*
Y826211D01*
X1841654Y823355D01*
X1840974Y823637D01*
X1840000Y823765D01*
X1839026Y823637D01*
X1838117Y823260D01*
X1837338Y822662D01*
X1836739Y821883D01*
X1836363Y820974D01*
X1836235Y820000D01*
X1836363Y819026D01*
X1836739Y818118D01*
X1837338Y817338D01*
X1838117Y816739D01*
X1839026Y816363D01*
X1840000Y816235D01*
X1840974Y816363D01*
X1841883Y816739D01*
X1842662Y817338D01*
X1843261Y818118D01*
X1843637Y819026D01*
X1843765Y820000D01*
X1843637Y820974D01*
X1843355Y821654D01*
X1846564Y824862D01*
X1846738Y825123D01*
X1846824Y825252D01*
X1846916Y825713D01*
Y852366D01*
X1846824Y852827D01*
X1846738Y852956D01*
X1846564Y853217D01*
X1843217Y856563D01*
X1842827Y856824D01*
X1842750Y856839D01*
X1842366Y856916D01*
X1837634D01*
X1837173Y856824D01*
X1836783Y856563D01*
X1833454Y853235D01*
X1825846D01*
X1825628Y853500D01*
X1823000D01*
Y854000D01*
X1822500D01*
Y855521D01*
X1821917D01*
X1821835Y855505D01*
X1821448Y855822D01*
Y856713D01*
X1821458Y856727D01*
X1821550Y857188D01*
Y860306D01*
X1822028Y860451D01*
X1822198Y860198D01*
X1823025Y859645D01*
X1823500Y859550D01*
Y862000D01*
Y864450D01*
X1823025Y864355D01*
X1822198Y863802D01*
X1822028Y863549D01*
X1821550Y863694D01*
Y884000D01*
X1865926D01*
X1866356Y883356D01*
X1867110Y882852D01*
X1868000Y882675D01*
X1868890Y882852D01*
X1869644Y883356D01*
X1870074Y884000D01*
X1871926D01*
X1872356Y883356D01*
X1873110Y882852D01*
X1874000Y882675D01*
X1874890Y882852D01*
X1875644Y883356D01*
X1876074Y884000D01*
X1877000D01*
X1881000Y888000D01*
X1884335Y891335D01*
X1884797Y891144D01*
Y889938D01*
X1884356Y889644D01*
X1883852Y888890D01*
X1883675Y888000D01*
X1883852Y887110D01*
X1884356Y886356D01*
X1885110Y885852D01*
X1886000Y885675D01*
X1886890Y885852D01*
X1887644Y886356D01*
X1888148Y887110D01*
X1888325Y888000D01*
X1888148Y888890D01*
X1887644Y889644D01*
X1887203Y889938D01*
Y891823D01*
X1887701Y891872D01*
X1887852Y891110D01*
X1888356Y890356D01*
X1889110Y889852D01*
X1890000Y889675D01*
X1890890Y889852D01*
X1891644Y890356D01*
X1892148Y891110D01*
X1892325Y892000D01*
X1892148Y892890D01*
X1891644Y893644D01*
X1891203Y893938D01*
Y895823D01*
X1891701Y895872D01*
X1891852Y895110D01*
X1892356Y894356D01*
X1893110Y893852D01*
X1894000Y893675D01*
X1894890Y893852D01*
X1895644Y894356D01*
X1896148Y895110D01*
X1896325Y896000D01*
X1896148Y896890D01*
X1895644Y897644D01*
X1895203Y897938D01*
Y904502D01*
X1900791Y910090D01*
X1901177Y909772D01*
X1901177Y909772D01*
X1900645Y908975D01*
X1900550Y908500D01*
X1902500D01*
Y910450D01*
X1902025Y910355D01*
X1901228Y909822D01*
X1900910Y910209D01*
X1907380Y916679D01*
X1930121D01*
X1930357Y916238D01*
X1930103Y915858D01*
X1929996Y915323D01*
X1930103Y914788D01*
X1930199Y914644D01*
X1929963Y914203D01*
X1922111D01*
Y915552D01*
X1917401D01*
Y910448D01*
X1922111D01*
Y911797D01*
X1923928D01*
X1924164Y911356D01*
X1923852Y910890D01*
X1923675Y910000D01*
X1923852Y909110D01*
X1924356Y908356D01*
X1925110Y907852D01*
X1926000Y907675D01*
X1926520Y907779D01*
X1927504Y906795D01*
X1927508Y906792D01*
X1927626Y906198D01*
X1927236Y905937D01*
X1926520Y905221D01*
X1926000Y905325D01*
X1925110Y905148D01*
X1924356Y904644D01*
X1923852Y903890D01*
X1923675Y903000D01*
X1923749Y902629D01*
X1923308Y902393D01*
X1922111Y903591D01*
Y906422D01*
X1917401D01*
Y901318D01*
X1920961D01*
X1921239Y900903D01*
X1921094Y900552D01*
X1917401D01*
Y895448D01*
X1922111D01*
Y896797D01*
X1922928D01*
X1923164Y896356D01*
X1922852Y895890D01*
X1922675Y895000D01*
X1922852Y894110D01*
X1923356Y893356D01*
X1922755Y892456D01*
X1922520Y892221D01*
X1922000Y892325D01*
X1921110Y892148D01*
X1920356Y891644D01*
X1919852Y890890D01*
X1919675Y890000D01*
X1919852Y889110D01*
X1920356Y888356D01*
X1921110Y887852D01*
X1922000Y887675D01*
X1922890Y887852D01*
X1923644Y888356D01*
X1924148Y889110D01*
X1924325Y890000D01*
X1924221Y890520D01*
X1924790Y891088D01*
X1930121D01*
X1930357Y890647D01*
X1930103Y890267D01*
X1929996Y889732D01*
X1930103Y889198D01*
X1930406Y888744D01*
X1930592Y888620D01*
X1930641Y888122D01*
X1928530Y886011D01*
X1926938D01*
X1926644Y886452D01*
X1925890Y886956D01*
X1925000Y887133D01*
X1924110Y886956D01*
X1923356Y886452D01*
X1922852Y885698D01*
X1922675Y884808D01*
X1922852Y883918D01*
X1923356Y883164D01*
X1924110Y882660D01*
X1925000Y882483D01*
X1925890Y882660D01*
X1926644Y883164D01*
X1926938Y883605D01*
X1929029D01*
X1929413Y883681D01*
X1929489Y883696D01*
X1929879Y883957D01*
X1934257Y888335D01*
X1936512D01*
X1937047Y888441D01*
X1937500Y888744D01*
X1937803Y889198D01*
X1937909Y889732D01*
X1937803Y890267D01*
X1937500Y890720D01*
X1937438Y890762D01*
Y891262D01*
X1937500Y891303D01*
X1937803Y891757D01*
X1937909Y892291D01*
X1937803Y892826D01*
X1937500Y893279D01*
X1937438Y893321D01*
Y893821D01*
X1937500Y893862D01*
X1937803Y894316D01*
X1937909Y894850D01*
X1937803Y895385D01*
X1937500Y895839D01*
X1937438Y895880D01*
Y896380D01*
X1937500Y896421D01*
X1937803Y896875D01*
X1937847Y897099D01*
X1938790Y898041D01*
X1939252Y897850D01*
Y893260D01*
X1944476D01*
Y906465D01*
Y919669D01*
X1939252D01*
Y914882D01*
X1938790Y914691D01*
X1937847Y915634D01*
X1937803Y915858D01*
X1937500Y916311D01*
X1937438Y916352D01*
Y916852D01*
X1937500Y916894D01*
X1937803Y917347D01*
X1937909Y917882D01*
X1937803Y918417D01*
X1937500Y918870D01*
X1937438Y918911D01*
Y919411D01*
X1937500Y919453D01*
X1937803Y919906D01*
X1937909Y920441D01*
X1937803Y920976D01*
X1937500Y921429D01*
X1937438Y921471D01*
Y921970D01*
X1937500Y922012D01*
X1937803Y922465D01*
X1937909Y923000D01*
X1937803Y923535D01*
X1937500Y923988D01*
X1937047Y924291D01*
X1936512Y924397D01*
X1931394D01*
X1930859Y924291D01*
X1930727Y924203D01*
X1907064D01*
X1906873Y924665D01*
X1912005Y929797D01*
X1916928D01*
X1917164Y929356D01*
X1916852Y928890D01*
X1916675Y928000D01*
X1916852Y927110D01*
X1917356Y926356D01*
X1918110Y925852D01*
X1919000Y925675D01*
X1919890Y925852D01*
X1920644Y926356D01*
X1920938Y926797D01*
X1960258D01*
X1972041Y915014D01*
X1971850Y914552D01*
X1968889D01*
Y913203D01*
X1967523D01*
X1966615Y914111D01*
X1966225Y914371D01*
X1966149Y914387D01*
X1965764Y914463D01*
X1960180D01*
X1959862Y914850D01*
X1959957Y915323D01*
X1959850Y915858D01*
X1959547Y916311D01*
X1959536Y916318D01*
X1959681Y916797D01*
X1962062D01*
X1962356Y916356D01*
X1963110Y915852D01*
X1964000Y915675D01*
X1964890Y915852D01*
X1965644Y916356D01*
X1966148Y917110D01*
X1966325Y918000D01*
X1966148Y918890D01*
X1965644Y919644D01*
X1964890Y920148D01*
X1964000Y920325D01*
X1963110Y920148D01*
X1962356Y919644D01*
X1962062Y919203D01*
X1960175D01*
X1959940Y919644D01*
X1960057Y919820D01*
X1960081Y919941D01*
X1951919D01*
X1951943Y919820D01*
X1952294Y919294D01*
X1952306Y919286D01*
X1952403Y918796D01*
X1952150Y918417D01*
X1952044Y917882D01*
X1952150Y917347D01*
X1952453Y916894D01*
X1952515Y916852D01*
Y916352D01*
X1952453Y916311D01*
X1952150Y915858D01*
X1952044Y915323D01*
X1952150Y914788D01*
X1952453Y914335D01*
X1952515Y914293D01*
Y913793D01*
X1952453Y913752D01*
X1952150Y913299D01*
X1952044Y912764D01*
X1952150Y912229D01*
X1952453Y911776D01*
X1952515Y911734D01*
Y911234D01*
X1952453Y911193D01*
X1952150Y910740D01*
X1952044Y910205D01*
X1952150Y909670D01*
X1952453Y909217D01*
X1952515Y909175D01*
Y908675D01*
X1952453Y908634D01*
X1952150Y908180D01*
X1952044Y907646D01*
X1952150Y907111D01*
X1952453Y906658D01*
X1952515Y906616D01*
Y906116D01*
X1952453Y906075D01*
X1952150Y905621D01*
X1952044Y905087D01*
X1952150Y904552D01*
X1952453Y904099D01*
X1952515Y904057D01*
Y903557D01*
X1952453Y903516D01*
X1952150Y903062D01*
X1952044Y902528D01*
X1952150Y901993D01*
X1952453Y901539D01*
X1952515Y901498D01*
Y900998D01*
X1952453Y900957D01*
X1952150Y900503D01*
X1952044Y899969D01*
X1952150Y899434D01*
X1952453Y898980D01*
X1952515Y898939D01*
Y898439D01*
X1952453Y898398D01*
X1952150Y897944D01*
X1952044Y897409D01*
X1952150Y896875D01*
X1952453Y896421D01*
X1952515Y896380D01*
Y895880D01*
X1952453Y895839D01*
X1952150Y895385D01*
X1952044Y894850D01*
X1952150Y894316D01*
X1952403Y893936D01*
X1952306Y893446D01*
X1952294Y893438D01*
X1951943Y892912D01*
X1951919Y892791D01*
X1960081D01*
X1960057Y892912D01*
X1959861Y893206D01*
X1960096Y893647D01*
X1963651D01*
X1967779Y889520D01*
X1967675Y889000D01*
X1967852Y888110D01*
X1968356Y887356D01*
X1969110Y886852D01*
X1970000Y886675D01*
X1970890Y886852D01*
X1971644Y887356D01*
X1972148Y888110D01*
X1972325Y889000D01*
X1972148Y889890D01*
X1971644Y890644D01*
X1970890Y891148D01*
X1970000Y891325D01*
X1969480Y891221D01*
X1965367Y895335D01*
X1965558Y895797D01*
X1968889D01*
Y894448D01*
X1973599D01*
Y899117D01*
X1974401D01*
Y894448D01*
X1975424D01*
X1975569Y893970D01*
X1974954Y893558D01*
X1974401Y892731D01*
X1974306Y892256D01*
X1979206D01*
X1979111Y892731D01*
X1978558Y893558D01*
X1977943Y893970D01*
X1978088Y894448D01*
X1979111D01*
Y895797D01*
X1981062D01*
X1981356Y895356D01*
X1982110Y894852D01*
X1983000Y894675D01*
X1983890Y894852D01*
X1984644Y895356D01*
X1985148Y896110D01*
X1985325Y897000D01*
X1985148Y897890D01*
X1984644Y898644D01*
X1983890Y899148D01*
X1983000Y899325D01*
X1982110Y899148D01*
X1981356Y898644D01*
X1981062Y898203D01*
X1979111D01*
Y899117D01*
X1979320D01*
X1979704Y899193D01*
X1979780Y899209D01*
X1980171Y899469D01*
X1985851Y905149D01*
X1986025Y905410D01*
X1986111Y905540D01*
X1986203Y906000D01*
Y947825D01*
X1986682Y947970D01*
X1987198Y947198D01*
X1988025Y946645D01*
X1988500Y946550D01*
Y949000D01*
Y951449D01*
X1988025Y951355D01*
X1987198Y950802D01*
X1986682Y950030D01*
X1986203Y950175D01*
Y956062D01*
X1986644Y956356D01*
X1987148Y957110D01*
X1987325Y958000D01*
X1987148Y958890D01*
X1986644Y959644D01*
X1985890Y960148D01*
X1985000Y960325D01*
X1984110Y960148D01*
X1983356Y959644D01*
X1982852Y958890D01*
X1982675Y958000D01*
X1982852Y957110D01*
X1983356Y956356D01*
X1983797Y956062D01*
Y906498D01*
X1978822Y901523D01*
X1966286D01*
X1966050Y901964D01*
X1966148Y902110D01*
X1966325Y903000D01*
X1966148Y903890D01*
X1965644Y904644D01*
X1964890Y905148D01*
X1964000Y905325D01*
X1963480Y905221D01*
X1962764Y905937D01*
X1962697Y905982D01*
X1962795Y906472D01*
X1963030Y906519D01*
X1963106Y906534D01*
X1963474Y906780D01*
X1964000Y906675D01*
X1964890Y906852D01*
X1965644Y907356D01*
X1966148Y908110D01*
X1966182Y908283D01*
X1966660Y908428D01*
X1966891Y908198D01*
X1967281Y907937D01*
X1967358Y907922D01*
X1967742Y907845D01*
X1978820D01*
X1979204Y907922D01*
X1979280Y907937D01*
X1979670Y908198D01*
X1980362Y908889D01*
X1980622Y909279D01*
X1980714Y909740D01*
Y948489D01*
X1980622Y948950D01*
X1980536Y949079D01*
X1980362Y949340D01*
X1964166Y965536D01*
X1964387Y965984D01*
X1965236Y965872D01*
X1966468Y966034D01*
X1967615Y966510D01*
X1968600Y967266D01*
X1969357Y968251D01*
X1969832Y969399D01*
X1969994Y970630D01*
X1969832Y971861D01*
X1969357Y973009D01*
X1968600Y973994D01*
X1967615Y974750D01*
X1966468Y975226D01*
X1965236Y975388D01*
X1964005Y975226D01*
X1962857Y974750D01*
X1961872Y973994D01*
X1961116Y973009D01*
X1960641Y971861D01*
X1960479Y970630D01*
X1960590Y969781D01*
X1960142Y969560D01*
X1948851Y980851D01*
X1948460Y981112D01*
X1948384Y981127D01*
X1948000Y981203D01*
X1919370D01*
X1918986Y981127D01*
X1918910Y981112D01*
X1918519Y980851D01*
X1912402Y974733D01*
X1912379Y974750D01*
X1911231Y975226D01*
X1910000Y975388D01*
X1908769Y975226D01*
X1907621Y974750D01*
X1906636Y973994D01*
X1905880Y973009D01*
X1905404Y971861D01*
X1905242Y970630D01*
X1905404Y969399D01*
X1905880Y968251D01*
X1906636Y967266D01*
X1907621Y966510D01*
X1908769Y966034D01*
X1910000Y965872D01*
X1911231Y966034D01*
X1912379Y966510D01*
X1913364Y967266D01*
X1914120Y968251D01*
X1914596Y969399D01*
X1914758Y970630D01*
X1914596Y971861D01*
X1914120Y973009D01*
X1914103Y973032D01*
X1919868Y978797D01*
X1942856D01*
X1943047Y978335D01*
X1928112Y963400D01*
X1927608Y962646D01*
X1927431Y961756D01*
Y952244D01*
X1927608Y951355D01*
X1928112Y950600D01*
X1939919Y938793D01*
Y937552D01*
X1939889D01*
Y937325D01*
X1936000D01*
X1935110Y937148D01*
X1934356Y936644D01*
X1933852Y935890D01*
X1933675Y935000D01*
X1933852Y934110D01*
X1934356Y933356D01*
X1935110Y932852D01*
X1935872Y932701D01*
X1935823Y932203D01*
X1911506D01*
X1911046Y932111D01*
X1910917Y932025D01*
X1910656Y931851D01*
X1895846Y917041D01*
X1895405Y917277D01*
X1895449Y917500D01*
X1893500D01*
Y915551D01*
X1893723Y915595D01*
X1893959Y915154D01*
X1890462Y911657D01*
X1890000Y911848D01*
Y915000D01*
X1878504Y926496D01*
Y964724D01*
Y1007539D01*
X1878999Y1007613D01*
X1879399Y1006294D01*
X1880294Y1004619D01*
X1881498Y1003152D01*
X1882966Y1001947D01*
X1884640Y1001052D01*
X1886457Y1000501D01*
X1888346Y1000315D01*
X1890236Y1000501D01*
X1892053Y1001052D01*
X1893727Y1001947D01*
X1895195Y1003152D01*
X1896399Y1004619D01*
X1897294Y1006294D01*
X1897845Y1008111D01*
X1898031Y1010000D01*
X1897845Y1011889D01*
X1897294Y1013706D01*
X1896832Y1014571D01*
X1897089Y1015000D01*
X1922911D01*
X1923168Y1014571D01*
X1922706Y1013706D01*
X1922155Y1011889D01*
X1921969Y1010000D01*
X1922155Y1008111D01*
X1922706Y1006294D01*
X1923601Y1004619D01*
X1924805Y1003152D01*
X1926273Y1001947D01*
X1927947Y1001052D01*
X1929764Y1000501D01*
X1931654Y1000315D01*
X1933543Y1000501D01*
X1935360Y1001052D01*
X1937034Y1001947D01*
X1938502Y1003152D01*
X1939706Y1004619D01*
X1940601Y1006294D01*
X1941152Y1008111D01*
X1941339Y1010000D01*
X1941152Y1011889D01*
X1940601Y1013706D01*
X1940139Y1014571D01*
X1940396Y1015000D01*
X1949604D01*
X1949861Y1014571D01*
X1949399Y1013706D01*
X1948848Y1011889D01*
X1948661Y1010000D01*
X1948848Y1008111D01*
X1949399Y1006294D01*
X1950294Y1004619D01*
X1951498Y1003152D01*
X1952966Y1001947D01*
X1954640Y1001052D01*
X1956457Y1000501D01*
X1958346Y1000315D01*
X1960236Y1000501D01*
X1962053Y1001052D01*
X1963727Y1001947D01*
X1965195Y1003152D01*
X1966399Y1004619D01*
X1967294Y1006294D01*
X1967845Y1008111D01*
X1968031Y1010000D01*
X1967845Y1011889D01*
X1967294Y1013706D01*
X1966832Y1014571D01*
X1967089Y1015000D01*
X1992911D01*
X1993168Y1014571D01*
X1992706Y1013706D01*
X1992155Y1011889D01*
X1991969Y1010000D01*
X1992155Y1008111D01*
X1992706Y1006294D01*
X1993601Y1004619D01*
X1994805Y1003152D01*
X1996273Y1001947D01*
X1997947Y1001052D01*
X1999764Y1000501D01*
X2001654Y1000315D01*
X2003543Y1000501D01*
X2005360Y1001052D01*
X2007034Y1001947D01*
X2008502Y1003152D01*
X2009706Y1004619D01*
X2010601Y1006294D01*
X2011152Y1008111D01*
X2011338Y1010000D01*
X2011152Y1011889D01*
X2010601Y1013706D01*
X2010139Y1014571D01*
X2010396Y1015000D01*
X2045000D01*
Y725000D01*
D02*
G37*
%LPC*%
G36*
X1881500Y829500D02*
X1879551D01*
X1879645Y829025D01*
X1880198Y828198D01*
X1881025Y827645D01*
X1881500Y827551D01*
Y829500D01*
D02*
G37*
G36*
X1968189Y827368D02*
X1967317Y827253D01*
X1966505Y826917D01*
X1965808Y826381D01*
X1965272Y825684D01*
X1964936Y824872D01*
X1964821Y824000D01*
X1964936Y823128D01*
X1965169Y822566D01*
X1965028Y822354D01*
X1964862Y822153D01*
X1964000Y822325D01*
X1963110Y822148D01*
X1962356Y821644D01*
X1961852Y820890D01*
X1961675Y820000D01*
X1961852Y819110D01*
X1962356Y818356D01*
X1963110Y817852D01*
X1964000Y817675D01*
X1964520Y817779D01*
X1966267Y816031D01*
X1966528Y815857D01*
X1966658Y815770D01*
X1967118Y815679D01*
X1978757D01*
X1978850Y815209D01*
X1979240Y814626D01*
X1979309Y814580D01*
Y795244D01*
X1979385Y794860D01*
X1979400Y794784D01*
X1979661Y794393D01*
X1985448Y788606D01*
Y785401D01*
X1990552D01*
Y786797D01*
X1994889D01*
Y785448D01*
X1999599D01*
Y790552D01*
X1994889D01*
Y789203D01*
X1990552D01*
Y790111D01*
X1987347D01*
X1981715Y795743D01*
Y814580D01*
X1981784Y814626D01*
X1982174Y815209D01*
X1982311Y815898D01*
Y817866D01*
X1982174Y818554D01*
X1981784Y819138D01*
X1981200Y819528D01*
X1980512Y819665D01*
X1979823Y819528D01*
X1979240Y819138D01*
X1978850Y818554D01*
X1978757Y818085D01*
X1967616D01*
X1966221Y819480D01*
X1966325Y820000D01*
X1966191Y820674D01*
X1966355Y820888D01*
X1966564Y821059D01*
X1967317Y820747D01*
X1968189Y820632D01*
X1969061Y820747D01*
X1969873Y821083D01*
X1970570Y821619D01*
X1971106Y822316D01*
X1971442Y823128D01*
X1971557Y824000D01*
X1971442Y824872D01*
X1971106Y825684D01*
X1970570Y826381D01*
X1969873Y826917D01*
X1969061Y827253D01*
X1968189Y827368D01*
D02*
G37*
G36*
X1860000Y833765D02*
X1859026Y833637D01*
X1858117Y833261D01*
X1857338Y832662D01*
X1856739Y831882D01*
X1856363Y830974D01*
X1856235Y830000D01*
X1856363Y829026D01*
X1856739Y828117D01*
X1857338Y827338D01*
X1858117Y826740D01*
X1859026Y826363D01*
X1860000Y826235D01*
X1860974Y826363D01*
X1861883Y826740D01*
X1862662Y827338D01*
X1863261Y828117D01*
X1863637Y829026D01*
X1863765Y830000D01*
X1863637Y830974D01*
X1863261Y831882D01*
X1862662Y832662D01*
X1861883Y833261D01*
X1860974Y833637D01*
X1860000Y833765D01*
D02*
G37*
G36*
X1882500Y832450D02*
Y830500D01*
X1884450D01*
X1884355Y830975D01*
X1883802Y831802D01*
X1882975Y832355D01*
X1882500Y832450D01*
D02*
G37*
G36*
X1881500D02*
X1881025Y832355D01*
X1880198Y831802D01*
X1879645Y830975D01*
X1879551Y830500D01*
X1881500D01*
Y832450D01*
D02*
G37*
G36*
X1884450Y829500D02*
X1882500D01*
Y827551D01*
X1882975Y827645D01*
X1883802Y828198D01*
X1884355Y829025D01*
X1884450Y829500D01*
D02*
G37*
G36*
X1898189Y827368D02*
X1897317Y827253D01*
X1896505Y826917D01*
X1895807Y826381D01*
X1895272Y825684D01*
X1894936Y824872D01*
X1894821Y824000D01*
X1894936Y823128D01*
X1895169Y822566D01*
X1895028Y822354D01*
X1894863Y822153D01*
X1894000Y822325D01*
X1893110Y822148D01*
X1892356Y821644D01*
X1891852Y820890D01*
X1891675Y820000D01*
X1891852Y819110D01*
X1892356Y818356D01*
X1893110Y817852D01*
X1894000Y817675D01*
X1894520Y817779D01*
X1896267Y816031D01*
X1896528Y815857D01*
X1896658Y815770D01*
X1897118Y815679D01*
X1907756D01*
X1907850Y815209D01*
X1908240Y814626D01*
X1908309Y814580D01*
Y790766D01*
X1908094Y790552D01*
X1904889D01*
Y788959D01*
X1902552D01*
Y790111D01*
X1897448D01*
Y785401D01*
X1902552D01*
Y786553D01*
X1904889D01*
Y785448D01*
X1909599D01*
Y788653D01*
X1909939Y788994D01*
X1910401Y788802D01*
Y785448D01*
X1915111D01*
Y788653D01*
X1937851Y811393D01*
X1938111Y811784D01*
X1938127Y811860D01*
X1938203Y812244D01*
Y822062D01*
X1938644Y822356D01*
X1939148Y823110D01*
X1939325Y824000D01*
X1939148Y824890D01*
X1938644Y825644D01*
X1937890Y826148D01*
X1937000Y826325D01*
X1936110Y826148D01*
X1935356Y825644D01*
X1934852Y824890D01*
X1934675Y824000D01*
X1934852Y823110D01*
X1935356Y822356D01*
X1935797Y822062D01*
Y812742D01*
X1913606Y790552D01*
X1910715D01*
Y814580D01*
X1910784Y814626D01*
X1911174Y815209D01*
X1911311Y815898D01*
Y817866D01*
X1911174Y818554D01*
X1910784Y819138D01*
X1910200Y819528D01*
X1909512Y819665D01*
X1908823Y819528D01*
X1908240Y819138D01*
X1907850Y818554D01*
X1907756Y818085D01*
X1897617D01*
X1896221Y819480D01*
X1896325Y820000D01*
X1896191Y820674D01*
X1896355Y820888D01*
X1896564Y821059D01*
X1897317Y820747D01*
X1898189Y820632D01*
X1899061Y820747D01*
X1899873Y821083D01*
X1900570Y821619D01*
X1901106Y822316D01*
X1901442Y823128D01*
X1901557Y824000D01*
X1901442Y824872D01*
X1901106Y825684D01*
X1900570Y826381D01*
X1899873Y826917D01*
X1899061Y827253D01*
X1898189Y827368D01*
D02*
G37*
G36*
X1840000Y813765D02*
X1839026Y813637D01*
X1838117Y813260D01*
X1837338Y812662D01*
X1836739Y811882D01*
X1836363Y810974D01*
X1836235Y810000D01*
X1836363Y809026D01*
X1836739Y808117D01*
X1837338Y807338D01*
X1838117Y806740D01*
X1839026Y806363D01*
X1840000Y806235D01*
X1840974Y806363D01*
X1841883Y806740D01*
X1842662Y807338D01*
X1843261Y808117D01*
X1843637Y809026D01*
X1843765Y810000D01*
X1843637Y810974D01*
X1843261Y811882D01*
X1842662Y812662D01*
X1841883Y813260D01*
X1840974Y813637D01*
X1840000Y813765D01*
D02*
G37*
G36*
X1840500Y803921D02*
Y800500D01*
X1843921D01*
X1843851Y801032D01*
X1843453Y801993D01*
X1842819Y802819D01*
X1841993Y803453D01*
X1841032Y803851D01*
X1840500Y803921D01*
D02*
G37*
G36*
X1839500D02*
X1838968Y803851D01*
X1838007Y803453D01*
X1837181Y802819D01*
X1836547Y801993D01*
X1836149Y801032D01*
X1836079Y800500D01*
X1839500D01*
Y803921D01*
D02*
G37*
G36*
X1860000Y813765D02*
X1859026Y813637D01*
X1858117Y813260D01*
X1857338Y812662D01*
X1856739Y811882D01*
X1856363Y810974D01*
X1856235Y810000D01*
X1856363Y809026D01*
X1856739Y808117D01*
X1857338Y807338D01*
X1858117Y806740D01*
X1859026Y806363D01*
X1860000Y806235D01*
X1860974Y806363D01*
X1861883Y806740D01*
X1862662Y807338D01*
X1863261Y808117D01*
X1863637Y809026D01*
X1863765Y810000D01*
X1863637Y810974D01*
X1863261Y811882D01*
X1862662Y812662D01*
X1861883Y813260D01*
X1860974Y813637D01*
X1860000Y813765D01*
D02*
G37*
G36*
X2007000Y826325D02*
X2006110Y826148D01*
X2005356Y825644D01*
X2004852Y824890D01*
X2004675Y824000D01*
X2004779Y823480D01*
X2001905Y820607D01*
X2001645Y820216D01*
X2001629Y820140D01*
X2001553Y819756D01*
Y790552D01*
X2000401D01*
Y785448D01*
X2005111D01*
Y790552D01*
X2003959D01*
Y819258D01*
X2006480Y821779D01*
X2007000Y821675D01*
X2007890Y821852D01*
X2008644Y822356D01*
X2009148Y823110D01*
X2009325Y824000D01*
X2009148Y824890D01*
X2008644Y825644D01*
X2007890Y826148D01*
X2007000Y826325D01*
D02*
G37*
G36*
X1999685Y827368D02*
X1998813Y827253D01*
X1998001Y826917D01*
X1997304Y826381D01*
X1996768Y825684D01*
X1996432Y824872D01*
X1996317Y824000D01*
X1996432Y823128D01*
X1996768Y822316D01*
X1997304Y821619D01*
X1998001Y821083D01*
X1998813Y820747D01*
X1999685Y820632D01*
X2000557Y820747D01*
X2001369Y821083D01*
X2002066Y821619D01*
X2002602Y822316D01*
X2002938Y823128D01*
X2003053Y824000D01*
X2002938Y824872D01*
X2002602Y825684D01*
X2002066Y826381D01*
X2001369Y826917D01*
X2000557Y827253D01*
X1999685Y827368D01*
D02*
G37*
G36*
X1929685D02*
X1928813Y827253D01*
X1928001Y826917D01*
X1927304Y826381D01*
X1926768Y825684D01*
X1926432Y824872D01*
X1926317Y824000D01*
X1926432Y823128D01*
X1926768Y822316D01*
X1927304Y821619D01*
X1928001Y821083D01*
X1928813Y820747D01*
X1929685Y820632D01*
X1930557Y820747D01*
X1931369Y821083D01*
X1932067Y821619D01*
X1932602Y822316D01*
X1932938Y823128D01*
X1933053Y824000D01*
X1932938Y824872D01*
X1932602Y825684D01*
X1932067Y826381D01*
X1931369Y826917D01*
X1930557Y827253D01*
X1929685Y827368D01*
D02*
G37*
G36*
X1826450Y861500D02*
X1824500D01*
Y859550D01*
X1824975Y859645D01*
X1825802Y860198D01*
X1826355Y861025D01*
X1826450Y861500D01*
D02*
G37*
G36*
X1950331Y857772D02*
X1948256D01*
Y855500D01*
X1950331D01*
Y857772D01*
D02*
G37*
G36*
X1947256D02*
X1945181D01*
Y855500D01*
X1947256D01*
Y857772D01*
D02*
G37*
G36*
X1869512Y868665D02*
X1868823Y868528D01*
X1868240Y868138D01*
X1867850Y867554D01*
X1867713Y866866D01*
Y864898D01*
X1867850Y864209D01*
X1868240Y863626D01*
X1868309Y863580D01*
Y862000D01*
Y850010D01*
X1861654Y843355D01*
X1860974Y843637D01*
X1860000Y843765D01*
X1859026Y843637D01*
X1858117Y843260D01*
X1857338Y842662D01*
X1856739Y841883D01*
X1856363Y840974D01*
X1856235Y840000D01*
X1856363Y839026D01*
X1856739Y838118D01*
X1857338Y837338D01*
X1858117Y836740D01*
X1859026Y836363D01*
X1860000Y836235D01*
X1860974Y836363D01*
X1861883Y836740D01*
X1862662Y837338D01*
X1863261Y838118D01*
X1863637Y839026D01*
X1863765Y840000D01*
X1863637Y840974D01*
X1863355Y841654D01*
X1870362Y848661D01*
X1870537Y848922D01*
X1870623Y849051D01*
X1870715Y849512D01*
Y860455D01*
X1871193Y860600D01*
X1871356Y860356D01*
X1872110Y859852D01*
X1873000Y859675D01*
X1873890Y859852D01*
X1874644Y860356D01*
X1875148Y861110D01*
X1875325Y862000D01*
X1875148Y862890D01*
X1874644Y863644D01*
X1873890Y864148D01*
X1873000Y864325D01*
X1872110Y864148D01*
X1871409Y863679D01*
X1871056Y864033D01*
X1871174Y864209D01*
X1871311Y864898D01*
Y866866D01*
X1871174Y867554D01*
X1870784Y868138D01*
X1870200Y868528D01*
X1869512Y868665D01*
D02*
G37*
G36*
X1941744Y874500D02*
X1939669D01*
Y872228D01*
X1941744D01*
Y874500D01*
D02*
G37*
G36*
X1854512Y868665D02*
X1853823Y868528D01*
X1853240Y868138D01*
X1852850Y867554D01*
X1852713Y866866D01*
Y864898D01*
X1852850Y864209D01*
X1852987Y864004D01*
X1852633Y863651D01*
X1851890Y864148D01*
X1851000Y864325D01*
X1850110Y864148D01*
X1849356Y863644D01*
X1848852Y862890D01*
X1848675Y862000D01*
X1848852Y861110D01*
X1849356Y860356D01*
X1850110Y859852D01*
X1851000Y859675D01*
X1851890Y859852D01*
X1852644Y860356D01*
X1852830Y860635D01*
X1853309Y860490D01*
Y825488D01*
X1853385Y825104D01*
X1853400Y825028D01*
X1853661Y824638D01*
X1856645Y821654D01*
X1856363Y820974D01*
X1856235Y820000D01*
X1856363Y819026D01*
X1856739Y818118D01*
X1857338Y817338D01*
X1858117Y816739D01*
X1859026Y816363D01*
X1860000Y816235D01*
X1860974Y816363D01*
X1861883Y816739D01*
X1862662Y817338D01*
X1863261Y818118D01*
X1863637Y819026D01*
X1863765Y820000D01*
X1863637Y820974D01*
X1863261Y821883D01*
X1862662Y822662D01*
X1861883Y823260D01*
X1860974Y823637D01*
X1860000Y823765D01*
X1859026Y823637D01*
X1858346Y823355D01*
X1855715Y825986D01*
Y862000D01*
Y863580D01*
X1855784Y863626D01*
X1856174Y864209D01*
X1856311Y864898D01*
Y866866D01*
X1856174Y867554D01*
X1855784Y868138D01*
X1855200Y868528D01*
X1854512Y868665D01*
D02*
G37*
G36*
X1824500Y864450D02*
Y862500D01*
X1826450D01*
X1826355Y862975D01*
X1825802Y863802D01*
X1824975Y864355D01*
X1824500Y864450D01*
D02*
G37*
G36*
X1884450Y849500D02*
X1882500D01*
Y847550D01*
X1882975Y847645D01*
X1883802Y848198D01*
X1884355Y849024D01*
X1884450Y849500D01*
D02*
G37*
G36*
X1881500D02*
X1879551D01*
X1879645Y849024D01*
X1880198Y848198D01*
X1881025Y847645D01*
X1881500Y847550D01*
Y849500D01*
D02*
G37*
G36*
X1825575Y831847D02*
X1823500D01*
Y830855D01*
X1825575D01*
Y831847D01*
D02*
G37*
G36*
X1881500Y852450D02*
X1881025Y852355D01*
X1880198Y851802D01*
X1879645Y850975D01*
X1879551Y850500D01*
X1881500D01*
Y852450D01*
D02*
G37*
G36*
X1824083Y855521D02*
X1823500D01*
Y854500D01*
X1825505D01*
X1825488Y854582D01*
X1825158Y855076D01*
X1824665Y855406D01*
X1824083Y855521D01*
D02*
G37*
G36*
X1947256Y854500D02*
X1945181D01*
Y852228D01*
X1947256D01*
Y854500D01*
D02*
G37*
G36*
X1882500Y852450D02*
Y850500D01*
X1884450D01*
X1884355Y850975D01*
X1883802Y851802D01*
X1882975Y852355D01*
X1882500Y852450D01*
D02*
G37*
G36*
X1998500Y773716D02*
X1998021Y773654D01*
X1997109Y773276D01*
X1996325Y772675D01*
X1995724Y771891D01*
X1995346Y770979D01*
X1995284Y770500D01*
X1998500D01*
Y773716D01*
D02*
G37*
G36*
X1911287D02*
Y770500D01*
X1914504D01*
X1914441Y770979D01*
X1914063Y771891D01*
X1913462Y772675D01*
X1912679Y773276D01*
X1911766Y773654D01*
X1911287Y773716D01*
D02*
G37*
G36*
X1910287D02*
X1909809Y773654D01*
X1908896Y773276D01*
X1908113Y772675D01*
X1907512Y771891D01*
X1907134Y770979D01*
X1907071Y770500D01*
X1910287D01*
Y773716D01*
D02*
G37*
G36*
X1999500D02*
Y770500D01*
X2002716D01*
X2002654Y770979D01*
X2002276Y771891D01*
X2001674Y772675D01*
X2000891Y773276D01*
X1999979Y773654D01*
X1999500Y773716D01*
D02*
G37*
G36*
X1804500Y776500D02*
X1802551D01*
X1802645Y776024D01*
X1803198Y775198D01*
X1804025Y774645D01*
X1804500Y774550D01*
Y776500D01*
D02*
G37*
G36*
X1797449D02*
X1795500D01*
Y774550D01*
X1795975Y774645D01*
X1796802Y775198D01*
X1797355Y776024D01*
X1797449Y776500D01*
D02*
G37*
G36*
X1794500D02*
X1792550D01*
X1792645Y776024D01*
X1793198Y775198D01*
X1794025Y774645D01*
X1794500Y774550D01*
Y776500D01*
D02*
G37*
G36*
X1969000Y756310D02*
X1967769Y756189D01*
X1966585Y755830D01*
X1965494Y755247D01*
X1964538Y754462D01*
X1963753Y753506D01*
X1963170Y752415D01*
X1962811Y751231D01*
X1962690Y750000D01*
X1962811Y748769D01*
X1963170Y747585D01*
X1963753Y746494D01*
X1964538Y745538D01*
X1965494Y744753D01*
X1966585Y744170D01*
X1967769Y743811D01*
X1969000Y743690D01*
X1970231Y743811D01*
X1971415Y744170D01*
X1972506Y744753D01*
X1973462Y745538D01*
X1974247Y746494D01*
X1974830Y747585D01*
X1975189Y748769D01*
X1975310Y750000D01*
X1975189Y751231D01*
X1974830Y752415D01*
X1974247Y753506D01*
X1973462Y754462D01*
X1972506Y755247D01*
X1971415Y755830D01*
X1970231Y756189D01*
X1969000Y756310D01*
D02*
G37*
G36*
X1920787D02*
X1919556Y756189D01*
X1918373Y755830D01*
X1917282Y755247D01*
X1916325Y754462D01*
X1915541Y753506D01*
X1914957Y752415D01*
X1914598Y751231D01*
X1914477Y750000D01*
X1914598Y748769D01*
X1914957Y747585D01*
X1915541Y746494D01*
X1916325Y745538D01*
X1917282Y744753D01*
X1918373Y744170D01*
X1919556Y743811D01*
X1920787Y743690D01*
X1922018Y743811D01*
X1923202Y744170D01*
X1924293Y744753D01*
X1925249Y745538D01*
X1926034Y746494D01*
X1926617Y747585D01*
X1926977Y748769D01*
X1927098Y750000D01*
X1926977Y751231D01*
X1926617Y752415D01*
X1926034Y753506D01*
X1925249Y754462D01*
X1924293Y755247D01*
X1923202Y755830D01*
X1922018Y756189D01*
X1920787Y756310D01*
D02*
G37*
G36*
X1880787D02*
X1879556Y756189D01*
X1878373Y755830D01*
X1877282Y755247D01*
X1876325Y754462D01*
X1875541Y753506D01*
X1874957Y752415D01*
X1874598Y751231D01*
X1874477Y750000D01*
X1874598Y748769D01*
X1874957Y747585D01*
X1875541Y746494D01*
X1876325Y745538D01*
X1877282Y744753D01*
X1878373Y744170D01*
X1879556Y743811D01*
X1880787Y743690D01*
X1882018Y743811D01*
X1883202Y744170D01*
X1884293Y744753D01*
X1885250Y745538D01*
X1886034Y746494D01*
X1886617Y747585D01*
X1886976Y748769D01*
X1887098Y750000D01*
X1886976Y751231D01*
X1886617Y752415D01*
X1886034Y753506D01*
X1885250Y754462D01*
X1884293Y755247D01*
X1883202Y755830D01*
X1882018Y756189D01*
X1880787Y756310D01*
D02*
G37*
G36*
X2009000D02*
X2007769Y756189D01*
X2006585Y755830D01*
X2005494Y755247D01*
X2004538Y754462D01*
X2003753Y753506D01*
X2003170Y752415D01*
X2002811Y751231D01*
X2002690Y750000D01*
X2002811Y748769D01*
X2003170Y747585D01*
X2003753Y746494D01*
X2004538Y745538D01*
X2005494Y744753D01*
X2006585Y744170D01*
X2007769Y743811D01*
X2009000Y743690D01*
X2010231Y743811D01*
X2011415Y744170D01*
X2012506Y744753D01*
X2013462Y745538D01*
X2014247Y746494D01*
X2014830Y747585D01*
X2015189Y748769D01*
X2015310Y750000D01*
X2015189Y751231D01*
X2014830Y752415D01*
X2014247Y753506D01*
X2013462Y754462D01*
X2012506Y755247D01*
X2011415Y755830D01*
X2010231Y756189D01*
X2009000Y756310D01*
D02*
G37*
G36*
X1990552Y784599D02*
X1985448D01*
Y779889D01*
X1986675D01*
Y772666D01*
X1986482Y772518D01*
X1985917Y771780D01*
X1985561Y770922D01*
X1985439Y770000D01*
X1985561Y769078D01*
X1985917Y768220D01*
X1986482Y767482D01*
X1987220Y766917D01*
X1988078Y766561D01*
X1989000Y766439D01*
X1989922Y766561D01*
X1990780Y766917D01*
X1991518Y767482D01*
X1992084Y768220D01*
X1992439Y769078D01*
X1992561Y770000D01*
X1992439Y770922D01*
X1992084Y771780D01*
X1991518Y772518D01*
X1991325Y772666D01*
Y781244D01*
X1991148Y782134D01*
X1990644Y782888D01*
X1990552Y782949D01*
Y784599D01*
D02*
G37*
G36*
X2002716Y769500D02*
X1999500D01*
Y766284D01*
X1999979Y766347D01*
X2000891Y766724D01*
X2001674Y767325D01*
X2002276Y768109D01*
X2002654Y769021D01*
X2002716Y769500D01*
D02*
G37*
G36*
X1998500D02*
X1995284D01*
X1995346Y769021D01*
X1995724Y768109D01*
X1996325Y767325D01*
X1997109Y766724D01*
X1998021Y766347D01*
X1998500Y766284D01*
Y769500D01*
D02*
G37*
G36*
X1815500Y779450D02*
Y777500D01*
X1817450D01*
X1817355Y777976D01*
X1816802Y778802D01*
X1815975Y779355D01*
X1815500Y779450D01*
D02*
G37*
G36*
X1814500D02*
X1814025Y779355D01*
X1813198Y778802D01*
X1812645Y777976D01*
X1812551Y777500D01*
X1814500D01*
Y779450D01*
D02*
G37*
G36*
X1805500D02*
Y777500D01*
X1807450D01*
X1807355Y777976D01*
X1806802Y778802D01*
X1805975Y779355D01*
X1805500Y779450D01*
D02*
G37*
G36*
X1860000Y793765D02*
X1859026Y793637D01*
X1858117Y793260D01*
X1857338Y792662D01*
X1856739Y791883D01*
X1856363Y790974D01*
X1856235Y790000D01*
X1856363Y789026D01*
X1856739Y788118D01*
X1857338Y787338D01*
X1858117Y786739D01*
X1859026Y786363D01*
X1860000Y786235D01*
X1860974Y786363D01*
X1861883Y786739D01*
X1862662Y787338D01*
X1863261Y788118D01*
X1863637Y789026D01*
X1863765Y790000D01*
X1863637Y790974D01*
X1863261Y791883D01*
X1862662Y792662D01*
X1861883Y793260D01*
X1860974Y793637D01*
X1860000Y793765D01*
D02*
G37*
G36*
Y803765D02*
X1859026Y803637D01*
X1858117Y803261D01*
X1857338Y802662D01*
X1856739Y801882D01*
X1856363Y800974D01*
X1856235Y800000D01*
X1856363Y799026D01*
X1856739Y798117D01*
X1857338Y797338D01*
X1858117Y796739D01*
X1859026Y796363D01*
X1860000Y796235D01*
X1860974Y796363D01*
X1861883Y796739D01*
X1862662Y797338D01*
X1863261Y798117D01*
X1863637Y799026D01*
X1863765Y800000D01*
X1863637Y800974D01*
X1863261Y801882D01*
X1862662Y802662D01*
X1861883Y803261D01*
X1860974Y803637D01*
X1860000Y803765D01*
D02*
G37*
G36*
X1843921Y799500D02*
X1840500D01*
Y796079D01*
X1841032Y796149D01*
X1841993Y796547D01*
X1842819Y797181D01*
X1843453Y798007D01*
X1843851Y798968D01*
X1843921Y799500D01*
D02*
G37*
G36*
X1839500D02*
X1836079D01*
X1836149Y798968D01*
X1836547Y798007D01*
X1837181Y797181D01*
X1838007Y796547D01*
X1838968Y796149D01*
X1839500Y796079D01*
Y799500D01*
D02*
G37*
G36*
X1817450Y776500D02*
X1815500D01*
Y774550D01*
X1815975Y774645D01*
X1816802Y775198D01*
X1817355Y776024D01*
X1817450Y776500D01*
D02*
G37*
G36*
X1814500D02*
X1812551D01*
X1812645Y776024D01*
X1813198Y775198D01*
X1814025Y774645D01*
X1814500Y774550D01*
Y776500D01*
D02*
G37*
G36*
X1807450D02*
X1805500D01*
Y774550D01*
X1805975Y774645D01*
X1806802Y775198D01*
X1807355Y776024D01*
X1807450Y776500D01*
D02*
G37*
G36*
X1863733Y783733D02*
X1856267D01*
Y776267D01*
X1863733D01*
Y783733D01*
D02*
G37*
G36*
X1804500Y779450D02*
X1804025Y779355D01*
X1803198Y778802D01*
X1802645Y777976D01*
X1802551Y777500D01*
X1804500D01*
Y779450D01*
D02*
G37*
G36*
X1795500D02*
Y777500D01*
X1797449D01*
X1797355Y777976D01*
X1796802Y778802D01*
X1795975Y779355D01*
X1795500Y779450D01*
D02*
G37*
G36*
X1794500D02*
X1794025Y779355D01*
X1793198Y778802D01*
X1792645Y777976D01*
X1792550Y777500D01*
X1794500D01*
Y779450D01*
D02*
G37*
G36*
X1944819Y874500D02*
X1942744D01*
Y872228D01*
X1944819D01*
Y874500D01*
D02*
G37*
G36*
X1933450Y937500D02*
X1931500D01*
Y935550D01*
X1931975Y935645D01*
X1932802Y936198D01*
X1933355Y937025D01*
X1933450Y937500D01*
D02*
G37*
G36*
X1930500D02*
X1928551D01*
X1928645Y937025D01*
X1929198Y936198D01*
X1930025Y935645D01*
X1930500Y935550D01*
Y937500D01*
D02*
G37*
G36*
X1950331Y937772D02*
X1948256D01*
Y935500D01*
X1950331D01*
Y937772D01*
D02*
G37*
G36*
X1964500Y938449D02*
X1964025Y938355D01*
X1963198Y937802D01*
X1962645Y936975D01*
X1962551Y936500D01*
X1964500D01*
Y938449D01*
D02*
G37*
G36*
X1930500Y940450D02*
X1930025Y940355D01*
X1929198Y939802D01*
X1928645Y938975D01*
X1928551Y938500D01*
X1930500D01*
Y940450D01*
D02*
G37*
G36*
X1953500Y939450D02*
X1953025Y939355D01*
X1952198Y938802D01*
X1951645Y937975D01*
X1951550Y937500D01*
X1953500D01*
Y939450D01*
D02*
G37*
G36*
X1965500Y938449D02*
Y936500D01*
X1967450D01*
X1967355Y936975D01*
X1966802Y937802D01*
X1965975Y938355D01*
X1965500Y938449D01*
D02*
G37*
G36*
X1966500Y929449D02*
X1966025Y929355D01*
X1965198Y928802D01*
X1964645Y927975D01*
X1964551Y927500D01*
X1966500D01*
Y929449D01*
D02*
G37*
G36*
X1969449Y926500D02*
X1967500D01*
Y924551D01*
X1967975Y924645D01*
X1968802Y925198D01*
X1969355Y926025D01*
X1969449Y926500D01*
D02*
G37*
G36*
X1960150Y924591D02*
X1956500D01*
Y923500D01*
X1960150D01*
Y924591D01*
D02*
G37*
G36*
X1967500Y929449D02*
Y927500D01*
X1969449D01*
X1969355Y927975D01*
X1968802Y928802D01*
X1967975Y929355D01*
X1967500Y929449D01*
D02*
G37*
G36*
X1947256Y937772D02*
X1945181D01*
Y935500D01*
X1947256D01*
Y937772D01*
D02*
G37*
G36*
X1967450Y935500D02*
X1965500D01*
Y933550D01*
X1965975Y933645D01*
X1966802Y934198D01*
X1967355Y935025D01*
X1967450Y935500D01*
D02*
G37*
G36*
X1964500D02*
X1962551D01*
X1962645Y935025D01*
X1963198Y934198D01*
X1964025Y933645D01*
X1964500Y933550D01*
Y935500D01*
D02*
G37*
G36*
X1917256Y954694D02*
Y952744D01*
X1919205D01*
X1919111Y953219D01*
X1918558Y954046D01*
X1917731Y954599D01*
X1917256Y954694D01*
D02*
G37*
G36*
X1916256D02*
X1915780Y954599D01*
X1914954Y954046D01*
X1914401Y953219D01*
X1914306Y952744D01*
X1916256D01*
Y954694D01*
D02*
G37*
G36*
X1944819Y954500D02*
X1942744D01*
Y952228D01*
X1944819D01*
Y954500D01*
D02*
G37*
G36*
X1941744Y957772D02*
X1939669D01*
Y955500D01*
X1941744D01*
Y957772D01*
D02*
G37*
G36*
X1980000Y975388D02*
X1978769Y975226D01*
X1977621Y974750D01*
X1976636Y973994D01*
X1975880Y973009D01*
X1975404Y971861D01*
X1975242Y970630D01*
X1975404Y969399D01*
X1975880Y968251D01*
X1976636Y967266D01*
X1977621Y966510D01*
X1978769Y966034D01*
X1980000Y965872D01*
X1981231Y966034D01*
X1982379Y966510D01*
X1983364Y967266D01*
X1984120Y968251D01*
X1984596Y969399D01*
X1984758Y970630D01*
X1984596Y971861D01*
X1984120Y973009D01*
X1983364Y973994D01*
X1982379Y974750D01*
X1981231Y975226D01*
X1980000Y975388D01*
D02*
G37*
G36*
X1924764D02*
X1923532Y975226D01*
X1922385Y974750D01*
X1921400Y973994D01*
X1920643Y973009D01*
X1920168Y971861D01*
X1920006Y970630D01*
X1920168Y969399D01*
X1920643Y968251D01*
X1921400Y967266D01*
X1922385Y966510D01*
X1923532Y966034D01*
X1924764Y965872D01*
X1925995Y966034D01*
X1927143Y966510D01*
X1928128Y967266D01*
X1928884Y968251D01*
X1929359Y969399D01*
X1929522Y970630D01*
X1929359Y971861D01*
X1928884Y973009D01*
X1928128Y973994D01*
X1927143Y974750D01*
X1925995Y975226D01*
X1924764Y975388D01*
D02*
G37*
G36*
X1944819Y957772D02*
X1942744D01*
Y955500D01*
X1944819D01*
Y957772D01*
D02*
G37*
G36*
X1989500Y951449D02*
Y949500D01*
X1991450D01*
X1991355Y949975D01*
X1990802Y950802D01*
X1989975Y951355D01*
X1989500Y951449D01*
D02*
G37*
G36*
X1991450Y948500D02*
X1989500D01*
Y946550D01*
X1989975Y946645D01*
X1990802Y947198D01*
X1991355Y948025D01*
X1991450Y948500D01*
D02*
G37*
G36*
X1931500Y940450D02*
Y938500D01*
X1933450D01*
X1933355Y938975D01*
X1932802Y939802D01*
X1931975Y940355D01*
X1931500Y940450D01*
D02*
G37*
G36*
X1916256Y951744D02*
X1914306D01*
X1914401Y951268D01*
X1914954Y950442D01*
X1915780Y949889D01*
X1916256Y949794D01*
Y951744D01*
D02*
G37*
G36*
X1941744Y954500D02*
X1939669D01*
Y952228D01*
X1941744D01*
Y954500D01*
D02*
G37*
G36*
X1950111Y957552D02*
X1945401D01*
Y952448D01*
X1950111D01*
Y952675D01*
X1956037D01*
X1958112Y950600D01*
X1958866Y950097D01*
X1959756Y949920D01*
X1960645Y950097D01*
X1961400Y950600D01*
X1961904Y951355D01*
X1962081Y952244D01*
X1961904Y953134D01*
X1961400Y953888D01*
X1958644Y956644D01*
X1957890Y957148D01*
X1957000Y957325D01*
X1950111D01*
Y957552D01*
D02*
G37*
G36*
X1919205Y951744D02*
X1917256D01*
Y949794D01*
X1917731Y949889D01*
X1918558Y950442D01*
X1919111Y951268D01*
X1919205Y951744D01*
D02*
G37*
G36*
X1913744Y893694D02*
X1913268Y893599D01*
X1912442Y893046D01*
X1911889Y892219D01*
X1911794Y891744D01*
X1913744D01*
Y893694D01*
D02*
G37*
G36*
X1960081Y891791D02*
X1951919D01*
X1951943Y891671D01*
X1952294Y891145D01*
Y890879D01*
X1951943Y890353D01*
X1951919Y890232D01*
X1960081D01*
X1960057Y890353D01*
X1959706Y890879D01*
Y891145D01*
X1960057Y891671D01*
X1960081Y891791D01*
D02*
G37*
G36*
X1979206Y891256D02*
X1977256D01*
Y889307D01*
X1977732Y889401D01*
X1978558Y889954D01*
X1979111Y890781D01*
X1979206Y891256D01*
D02*
G37*
G36*
X1914744Y893694D02*
Y891744D01*
X1916693D01*
X1916599Y892219D01*
X1916046Y893046D01*
X1915219Y893599D01*
X1914744Y893694D01*
D02*
G37*
G36*
X1916599Y906422D02*
X1911889D01*
Y905203D01*
X1909938D01*
X1909644Y905644D01*
X1908890Y906148D01*
X1908000Y906325D01*
X1907110Y906148D01*
X1906356Y905644D01*
X1905852Y904890D01*
X1905675Y904000D01*
X1905852Y903110D01*
X1906356Y902356D01*
X1907110Y901852D01*
X1908000Y901675D01*
X1908890Y901852D01*
X1909644Y902356D01*
X1909938Y902797D01*
X1911889D01*
Y901318D01*
X1916599D01*
Y906422D01*
D02*
G37*
G36*
Y900552D02*
X1911889D01*
Y899203D01*
X1909938D01*
X1909644Y899644D01*
X1908890Y900148D01*
X1908000Y900325D01*
X1907110Y900148D01*
X1906356Y899644D01*
X1905852Y898890D01*
X1905675Y898000D01*
X1905852Y897110D01*
X1906356Y896356D01*
X1907110Y895852D01*
X1908000Y895675D01*
X1908890Y895852D01*
X1909644Y896356D01*
X1909938Y896797D01*
X1911889D01*
Y895448D01*
X1916599D01*
Y900552D01*
D02*
G37*
G36*
X1950701Y905965D02*
X1945476D01*
Y893260D01*
X1950701D01*
Y905965D01*
D02*
G37*
G36*
X1955500Y889232D02*
X1951919D01*
X1951943Y889112D01*
X1952294Y888585D01*
X1952820Y888234D01*
X1953441Y888111D01*
X1955500D01*
Y889232D01*
D02*
G37*
G36*
X1858449Y878901D02*
X1857760Y878764D01*
X1857177Y878374D01*
X1856787Y877791D01*
X1856693Y877321D01*
X1852339D01*
Y878867D01*
X1848811D01*
Y873370D01*
X1852339D01*
Y874915D01*
X1856693D01*
X1856787Y874446D01*
X1857177Y873862D01*
X1857760Y873472D01*
X1858449Y873335D01*
X1858797Y873050D01*
Y853542D01*
X1858117Y853261D01*
X1857338Y852662D01*
X1856739Y851882D01*
X1856363Y850974D01*
X1856235Y850000D01*
X1856363Y849026D01*
X1856739Y848118D01*
X1857338Y847338D01*
X1858117Y846739D01*
X1859026Y846363D01*
X1860000Y846235D01*
X1860974Y846363D01*
X1861883Y846739D01*
X1862662Y847338D01*
X1863261Y848118D01*
X1863637Y849026D01*
X1863765Y850000D01*
X1863637Y850974D01*
X1863261Y851882D01*
X1862662Y852662D01*
X1861883Y853261D01*
X1861203Y853542D01*
Y872946D01*
X1863606D01*
X1863990Y873023D01*
X1864067Y873038D01*
X1864457Y873299D01*
X1864528Y873370D01*
X1867339D01*
Y874915D01*
X1871693D01*
X1871787Y874445D01*
X1872177Y873862D01*
X1872761Y873472D01*
X1873449Y873335D01*
X1874137Y873472D01*
X1874721Y873862D01*
X1875111Y874445D01*
X1875248Y875134D01*
Y877102D01*
X1875111Y877791D01*
X1874721Y878374D01*
X1874137Y878764D01*
X1873449Y878901D01*
X1872761Y878764D01*
X1872177Y878374D01*
X1871787Y877791D01*
X1871693Y877321D01*
X1867339D01*
Y878866D01*
X1863811D01*
Y876055D01*
X1863108Y875353D01*
X1860894D01*
X1860851Y875418D01*
X1860248Y876021D01*
Y877102D01*
X1860111Y877791D01*
X1859721Y878374D01*
X1859137Y878764D01*
X1858449Y878901D01*
D02*
G37*
G36*
X1941744Y877772D02*
X1939669D01*
Y875500D01*
X1941744D01*
Y877772D01*
D02*
G37*
G36*
X1960081Y889232D02*
X1956500D01*
Y888111D01*
X1958559D01*
X1959180Y888234D01*
X1959706Y888585D01*
X1960057Y889112D01*
X1960081Y889232D01*
D02*
G37*
G36*
X1976256Y891256D02*
X1974306D01*
X1974401Y890781D01*
X1974954Y889954D01*
X1975780Y889401D01*
X1976256Y889307D01*
Y891256D01*
D02*
G37*
G36*
X1916693Y890744D02*
X1914744D01*
Y888795D01*
X1915219Y888889D01*
X1916046Y889442D01*
X1916599Y890269D01*
X1916693Y890744D01*
D02*
G37*
G36*
X1913744D02*
X1911794D01*
X1911889Y890269D01*
X1912442Y889442D01*
X1913268Y888889D01*
X1913744Y888795D01*
Y890744D01*
D02*
G37*
G36*
X1947449Y922500D02*
X1945500D01*
Y920551D01*
X1945975Y920645D01*
X1946802Y921198D01*
X1947355Y922025D01*
X1947449Y922500D01*
D02*
G37*
G36*
X1944500D02*
X1942550D01*
X1942645Y922025D01*
X1943198Y921198D01*
X1944025Y920645D01*
X1944500Y920551D01*
Y922500D01*
D02*
G37*
G36*
X1893500Y920450D02*
Y918500D01*
X1895449D01*
X1895355Y918975D01*
X1894802Y919802D01*
X1893975Y920355D01*
X1893500Y920450D01*
D02*
G37*
G36*
X1960150Y922500D02*
X1951850D01*
Y921410D01*
X1951850Y921409D01*
X1951850D01*
X1951995Y921139D01*
X1951943Y921062D01*
X1951919Y920941D01*
X1960081D01*
X1960057Y921062D01*
X1960005Y921139D01*
X1960150Y921409D01*
X1960150D01*
X1960150Y921410D01*
Y922500D01*
D02*
G37*
G36*
X1955500Y924591D02*
X1951850D01*
Y923500D01*
X1955500D01*
Y924591D01*
D02*
G37*
G36*
X1945500Y925449D02*
Y923500D01*
X1947449D01*
X1947355Y923975D01*
X1946802Y924802D01*
X1945975Y925355D01*
X1945500Y925449D01*
D02*
G37*
G36*
X1944500D02*
X1944025Y925355D01*
X1943198Y924802D01*
X1942645Y923975D01*
X1942550Y923500D01*
X1944500D01*
Y925449D01*
D02*
G37*
G36*
X1950701Y919669D02*
X1945476D01*
Y906965D01*
X1950701D01*
Y919669D01*
D02*
G37*
G36*
X1905449Y907500D02*
X1903500D01*
Y905550D01*
X1903975Y905645D01*
X1904802Y906198D01*
X1905355Y907025D01*
X1905449Y907500D01*
D02*
G37*
G36*
X1902500D02*
X1900550D01*
X1900645Y907025D01*
X1901198Y906198D01*
X1902025Y905645D01*
X1902500Y905550D01*
Y907500D01*
D02*
G37*
G36*
X1903500Y910450D02*
Y908500D01*
X1905449D01*
X1905355Y908975D01*
X1904802Y909802D01*
X1903975Y910355D01*
X1903500Y910450D01*
D02*
G37*
G36*
X1892500Y920450D02*
X1892025Y920355D01*
X1891198Y919802D01*
X1890645Y918975D01*
X1890550Y918500D01*
X1892500D01*
Y920450D01*
D02*
G37*
G36*
Y917500D02*
X1890550D01*
X1890645Y917025D01*
X1891198Y916198D01*
X1892025Y915645D01*
X1892500Y915551D01*
Y917500D01*
D02*
G37*
G36*
X1916599Y915552D02*
X1911889D01*
Y914203D01*
X1909938D01*
X1909644Y914644D01*
X1908890Y915148D01*
X1908000Y915325D01*
X1907110Y915148D01*
X1906356Y914644D01*
X1905852Y913890D01*
X1905675Y913000D01*
X1905852Y912110D01*
X1906356Y911356D01*
X1907110Y910852D01*
X1908000Y910675D01*
X1908890Y910852D01*
X1909644Y911356D01*
X1909938Y911797D01*
X1911889D01*
Y910448D01*
X1916599D01*
Y915552D01*
D02*
G37*
%LPD*%
D10*
X1782756Y1120000D02*
D03*
X1777244D02*
D03*
X1797244Y1099000D02*
D03*
X1802756D02*
D03*
X1825756D02*
D03*
X1820244D02*
D03*
X1797244Y1043000D02*
D03*
X1802756D02*
D03*
X1825756D02*
D03*
X1820244D02*
D03*
X1797244Y1027000D02*
D03*
X1802756D02*
D03*
X1825756D02*
D03*
X1820244D02*
D03*
X1797244Y969000D02*
D03*
X1802756D02*
D03*
X1825756D02*
D03*
X1820244D02*
D03*
X1797244Y962000D02*
D03*
X1802756D02*
D03*
X1797244Y955000D02*
D03*
X1802756D02*
D03*
X1802646Y948000D02*
D03*
X1797134D02*
D03*
X1942244Y955000D02*
D03*
X1947756D02*
D03*
X1942244Y935000D02*
D03*
X1947756D02*
D03*
X1919756Y898000D02*
D03*
X1914244D02*
D03*
X1919756Y903870D02*
D03*
X1914244D02*
D03*
X1919756Y913000D02*
D03*
X1914244D02*
D03*
X1971244Y912000D02*
D03*
X1976756D02*
D03*
X1971244Y897000D02*
D03*
X1976756D02*
D03*
X1859244Y917000D02*
D03*
X1864756D02*
D03*
X1942244Y875000D02*
D03*
X1947756D02*
D03*
X1947756Y855000D02*
D03*
X1942244D02*
D03*
X1997244Y788000D02*
D03*
X2002756D02*
D03*
X1907244Y788000D02*
D03*
X1912756D02*
D03*
X1584244Y982000D02*
D03*
X1589756D02*
D03*
X1612756Y1039000D02*
D03*
X1607244D02*
D03*
X1584244D02*
D03*
X1589756D02*
D03*
X1582244Y1057000D02*
D03*
X1587756D02*
D03*
X1612756Y1057000D02*
D03*
X1607244D02*
D03*
X1625244Y1060000D02*
D03*
X1630756D02*
D03*
X1611756Y1113000D02*
D03*
X1606244D02*
D03*
X1584244Y1113000D02*
D03*
X1589756D02*
D03*
X1589756Y1136000D02*
D03*
X1584244D02*
D03*
X1607244Y1136000D02*
D03*
X1612756D02*
D03*
X1393756Y1103000D02*
D03*
X1388244D02*
D03*
X1365244D02*
D03*
X1370756D02*
D03*
X1393756Y1161000D02*
D03*
X1388244D02*
D03*
X1365244D02*
D03*
X1370756D02*
D03*
X1817244Y1172000D02*
D03*
X1822756D02*
D03*
X1822756Y1148000D02*
D03*
X1817244D02*
D03*
X1907244Y1159165D02*
D03*
X1912756D02*
D03*
X1612756Y982000D02*
D03*
X1607244D02*
D03*
D11*
X1676000Y1154756D02*
D03*
Y1149244D02*
D03*
Y1132756D02*
D03*
Y1127244D02*
D03*
X1733000Y1153756D02*
D03*
Y1148244D02*
D03*
X1733000Y1126244D02*
D03*
Y1131756D02*
D03*
X1740000Y1131756D02*
D03*
Y1126244D02*
D03*
X1747000Y1131756D02*
D03*
Y1126244D02*
D03*
X1764000D02*
D03*
Y1131756D02*
D03*
X1771000Y1131756D02*
D03*
Y1126244D02*
D03*
X1900000Y782244D02*
D03*
Y787756D02*
D03*
X1988000Y782244D02*
D03*
Y787756D02*
D03*
X1773000Y917244D02*
D03*
Y922756D02*
D03*
Y945756D02*
D03*
Y940244D02*
D03*
X1699000Y945756D02*
D03*
Y940244D02*
D03*
X1714000Y945756D02*
D03*
Y940244D02*
D03*
Y917244D02*
D03*
Y922756D02*
D03*
X1699000Y917244D02*
D03*
Y922756D02*
D03*
X1640000Y945756D02*
D03*
Y940244D02*
D03*
Y917244D02*
D03*
Y922756D02*
D03*
X1624000Y1180584D02*
D03*
Y1186096D02*
D03*
X1572000Y1180584D02*
D03*
Y1186096D02*
D03*
X1292000Y1197244D02*
D03*
Y1202756D02*
D03*
Y1173756D02*
D03*
Y1168244D02*
D03*
Y1157244D02*
D03*
Y1162756D02*
D03*
X1417000Y1009244D02*
D03*
Y1014756D02*
D03*
X1424000Y1009244D02*
D03*
Y1014756D02*
D03*
X1502000Y995756D02*
D03*
Y990244D02*
D03*
X1526000Y833756D02*
D03*
Y828244D02*
D03*
X1446000Y816244D02*
D03*
Y821756D02*
D03*
X2060000Y1112756D02*
D03*
Y1107244D02*
D03*
X2040000Y1112756D02*
D03*
Y1107244D02*
D03*
X1990000Y1112756D02*
D03*
Y1107244D02*
D03*
X1970000Y1112756D02*
D03*
Y1107244D02*
D03*
X1900000Y1112756D02*
D03*
Y1107244D02*
D03*
X1920000Y1112756D02*
D03*
Y1107244D02*
D03*
X1970000Y1192756D02*
D03*
Y1187244D02*
D03*
X1990000Y1192756D02*
D03*
Y1187244D02*
D03*
X2040000Y1192756D02*
D03*
Y1187244D02*
D03*
X2060000Y1192756D02*
D03*
Y1187244D02*
D03*
X1875000Y1157756D02*
D03*
Y1152244D02*
D03*
Y1142756D02*
D03*
Y1137244D02*
D03*
D19*
X1835000Y1190000D02*
D03*
D26*
X1320000Y979921D02*
X1339921D01*
X1320000Y830000D02*
X1414000Y736000D01*
X1365500Y785500D02*
X1385000Y805000D01*
X1345000Y765000D02*
X1380000Y730000D01*
X1320000Y790000D02*
X1345000Y765000D01*
X1355000Y775000D01*
X1836103Y774767D02*
X1842000D01*
X1832000Y788000D02*
X1840000Y780000D01*
X1826870Y784000D02*
X1836103Y774767D01*
X1608000Y784000D02*
X1826870D01*
X1840000Y789130D02*
X1845233Y783897D01*
X1840000Y789130D02*
Y790000D01*
X1605000Y788000D02*
X1832000D01*
X1553000Y736000D02*
X1605000Y788000D01*
X1554000Y730000D02*
X1608000Y784000D01*
X1414000Y736000D02*
X1553000D01*
X1842000Y774767D02*
X1843897D01*
X1842000D02*
X1855767Y761000D01*
X1918000D01*
X1915780Y764780D02*
X1945000Y794000D01*
X1866220Y764780D02*
X1915780D01*
X1860000Y771000D02*
X1866220Y764780D01*
X1918000Y761000D02*
X1956000Y799000D01*
X1945000Y794000D02*
Y825000D01*
X1956000Y799000D02*
Y831000D01*
X1940000Y830000D02*
X1945000Y825000D01*
X1940000Y830000D02*
Y840000D01*
X1900000Y985000D02*
X1990000D01*
X2002000Y973000D01*
Y902000D02*
Y973000D01*
X1964500Y864500D02*
X1984449Y844551D01*
X1954000Y875000D02*
X1964500Y864500D01*
X2002000Y902000D01*
X1947000Y847000D02*
X1964500Y864500D01*
X1891847Y976847D02*
X1900000Y985000D01*
X1929457Y851000D02*
X1933457Y855000D01*
X1905575Y827118D02*
X1929457Y851000D01*
X1800694Y848806D02*
X1806000Y843500D01*
Y844000D02*
X1813157Y851157D01*
X1805673Y843173D02*
X1806000Y843500D01*
Y843000D02*
X1813157Y835843D01*
X1800041Y837541D02*
X1805673Y843173D01*
X1799000Y837541D02*
X1800041D01*
X1799000Y843173D02*
X1805673D01*
X1799000Y848806D02*
X1800694D01*
X1929756Y952244D02*
X1942244Y939756D01*
Y935000D02*
Y939756D01*
X1936000Y935000D02*
X1942244D01*
X1943000Y882000D02*
X1947756Y877244D01*
Y875000D02*
Y877244D01*
X1850244Y926000D02*
X1859244Y917000D01*
X1805000Y926000D02*
X1850244D01*
X1854000Y936000D02*
X1865000Y925000D01*
X1816000Y936000D02*
X1854000D01*
X1799165Y943000D02*
X1809000D01*
X1929756Y961756D02*
X1945000Y977000D01*
X1929756Y952244D02*
Y961756D01*
X1942244Y844756D02*
X1956000Y831000D01*
X1942244Y844756D02*
Y855000D01*
X1933000Y840000D02*
X1940000D01*
X1920118Y827118D02*
X1933000Y840000D01*
X1913449Y827118D02*
X1920118D01*
X1933457Y855000D02*
X1937000D01*
X1984449Y827118D02*
Y844551D01*
X1972693Y831000D02*
X1976575Y827118D01*
X1956000Y831000D02*
X1972693D01*
X1937000Y855000D02*
X1942244D01*
X1947756Y875000D02*
X1954000D01*
X1947756Y955000D02*
X1957000D01*
X1959756Y952244D01*
X1859244Y902418D02*
Y917000D01*
Y902418D02*
X1861831Y899831D01*
X1865000Y917244D02*
Y921000D01*
Y925000D01*
Y921000D02*
X1873000D01*
X1989000Y770000D02*
Y781244D01*
X1900787Y770000D02*
Y781457D01*
X1380000Y730000D02*
X1554000D01*
X1845233Y776103D02*
Y783897D01*
X1843897Y774767D02*
X1845233Y776103D01*
X1696234Y1053000D02*
X1707000D01*
X1675000Y1074234D02*
X1696234Y1053000D01*
X1675000Y1074234D02*
X1682039Y1081274D01*
X1715000Y1047000D02*
X1725567Y1057567D01*
X1727000Y1024000D02*
X1728320Y1022680D01*
X1715000Y1024000D02*
X1727000D01*
X1712000Y1019000D02*
X1717473Y1013527D01*
X1679000Y1053000D02*
X1696234D01*
X1600000Y902756D02*
X1605756Y908512D01*
Y924756D01*
X1625000Y1037654D02*
Y1038000D01*
Y1037654D02*
X1629654Y1033000D01*
X1630000D01*
X1595000Y931000D02*
X1640000D01*
X1475000Y787000D02*
Y799000D01*
Y865000D02*
Y875000D01*
X1503780Y957228D02*
Y961566D01*
Y957228D02*
X1504000Y957008D01*
X1392559Y996441D02*
X1396976D01*
X1526000Y815000D02*
Y828244D01*
X1504000Y793000D02*
X1526000Y815000D01*
X1360000Y1270000D02*
X1380000D01*
X1595000Y1031000D02*
Y1043000D01*
Y1055000D01*
X1599000Y1027370D02*
Y1039000D01*
X1505130Y1096130D02*
Y1114870D01*
X1490260Y1081260D02*
X1505130Y1096130D01*
X1472740Y1081260D02*
X1490260D01*
X1379000Y1115528D02*
Y1127339D01*
X1386000Y1105244D02*
X1388244Y1103000D01*
X1386000Y1105244D02*
Y1111000D01*
X1320000Y883000D02*
X1386000Y949000D01*
X1316220Y885220D02*
X1380000Y949000D01*
X1316220Y842661D02*
Y885220D01*
X1313720Y834839D02*
X1316280Y837399D01*
X1313720Y827399D02*
Y834839D01*
X1320060Y830060D02*
Y844167D01*
X1320000Y830000D02*
X1320060Y830060D01*
X1320000Y844227D02*
Y883000D01*
Y844227D02*
X1320060Y844167D01*
X1316220Y842661D02*
X1316280Y842601D01*
Y837399D02*
Y842601D01*
X1313720Y827399D02*
X1320000Y821119D01*
Y790000D02*
Y821119D01*
X1915055Y1161465D02*
Y1166165D01*
X1912756Y1159165D02*
X1915055Y1161465D01*
X1930000Y1070000D02*
X1960000D01*
X1904819Y1170102D02*
X1909000D01*
Y1169199D02*
Y1170102D01*
Y1169199D02*
X1909067Y1169132D01*
X1258780Y1163820D02*
Y1176180D01*
X1270000Y1187400D01*
X1258780Y1163820D02*
X1267832Y1154767D01*
X1262560Y1170000D02*
X1270000D01*
X1272167Y1154767D02*
X1277400Y1160000D01*
X1267832Y1154767D02*
X1272167D01*
X1270000Y1187400D02*
Y1190000D01*
X1296052Y1169901D02*
Y1206397D01*
X1293870Y1167720D02*
X1296052Y1169901D01*
X1280000Y1179185D02*
X1290941Y1168244D01*
X1280000Y1179185D02*
Y1180000D01*
X1410000Y1200000D02*
X1420000D01*
X1359654Y1270000D02*
X1360000D01*
X1292000Y1162756D02*
Y1167720D01*
X1400000Y1290000D02*
X1410000Y1280000D01*
X1380000Y1270000D02*
X1400000D01*
X1360000Y1290000D02*
X1380000D01*
X1400000D01*
X1412638Y870000D02*
X1427000D01*
X1415000Y903000D02*
X1426000D01*
X1426244Y902756D01*
X1595000Y971000D02*
X1599000Y975000D01*
X1595000Y895000D02*
Y931000D01*
Y971000D01*
X1676000Y1141000D02*
Y1149244D01*
Y1132756D02*
Y1141000D01*
X1733000D02*
Y1148244D01*
X1802756Y1099000D02*
X1811000D01*
X1820244D01*
X1811000D02*
Y1100000D01*
X1802756Y1027000D02*
X1811000D01*
X1820244D01*
X1802756Y955000D02*
Y962000D01*
X1811000Y969000D02*
X1820244D01*
X1811000Y951000D02*
Y969000D01*
X1773000Y922756D02*
Y931000D01*
Y940244D01*
Y931000D02*
X1780000D01*
X1714000Y922756D02*
Y931000D01*
Y940244D01*
X1699000Y931000D02*
Y940244D01*
Y931000D02*
X1714000D01*
X1599000Y982000D02*
X1607244D01*
X1599000Y975000D02*
Y982000D01*
X1603244Y1061000D02*
X1607244Y1057000D01*
X1599000Y1061000D02*
X1603244D01*
X1920000Y1112756D02*
X1925546D01*
X1930570Y1117780D01*
X1959430D01*
X1964454Y1112756D01*
X2034454D02*
X2040000D01*
X2060000D01*
X2075500Y1128256D01*
Y1176290D01*
X1964454Y1112756D02*
X1970000D01*
X1990000D01*
X1970000Y1192756D02*
X1990000D01*
X1995546D01*
X2000570Y1197780D01*
X2029430D01*
X2034454Y1192756D01*
X2060000D02*
X2061059D01*
X2065720Y1188095D01*
Y1186070D02*
Y1188095D01*
Y1186070D02*
X2075500Y1176290D01*
X2034454Y1192756D02*
X2040000D01*
X2060000D01*
X2015000Y1150000D02*
Y1190000D01*
X2005000Y1150000D02*
X2015000D01*
X2025000D01*
X2060000Y1199000D02*
X2078658Y1217658D01*
X2060000Y1192756D02*
Y1199000D01*
X1900000Y1112756D02*
X1920000D01*
X2029430Y1117780D02*
X2034454Y1112756D01*
X1990000D02*
X1995546D01*
X2000570Y1117780D01*
X2029430D01*
X1599000Y1105000D02*
Y1112244D01*
X1391000Y1200000D02*
X1410000D01*
X1379000Y1188000D02*
X1391000Y1200000D01*
X1370756Y1103000D02*
X1379000D01*
X1370756Y1161000D02*
X1379000D01*
X1362725Y1165052D02*
X1367763D01*
X1370756Y1162059D01*
X1280000Y1160000D02*
X1282673D01*
X1289284Y1153389D01*
X1351062D01*
X1362725Y1165052D01*
X1370756Y1161000D02*
Y1162059D01*
X1320000Y979921D02*
Y1145000D01*
X1296052Y1206397D02*
X1359654Y1270000D01*
X1379000Y1148992D02*
Y1161000D01*
Y1137181D02*
Y1148992D01*
Y1127339D02*
Y1137181D01*
X1599000Y1101370D02*
Y1105000D01*
Y1061000D02*
Y1067906D01*
Y1079717D01*
X1379000Y1103000D02*
Y1110000D01*
Y1115528D01*
X1599000Y1079717D02*
Y1089559D01*
Y1101370D01*
Y1015559D02*
Y1027370D01*
Y1005716D02*
Y1015559D01*
Y993905D02*
Y1005716D01*
X1665441Y931000D02*
X1675284D01*
X1687095D01*
X1699000D01*
X1727630D02*
X1739441D01*
X1749284D01*
X1761095D02*
X1773000D01*
X1811000Y981630D02*
Y993441D01*
Y1003283D01*
Y1015094D02*
Y1027000D01*
Y1062000D02*
Y1066441D01*
Y1076283D02*
Y1088094D01*
X1709559Y1141000D02*
X1721370D01*
X1699716D02*
X1709559D01*
X1676000D02*
X1687905D01*
X1653630Y931000D02*
X1665441D01*
X1749284D02*
X1761095D01*
X1811000Y1003283D02*
Y1015094D01*
X1818906D01*
X1811000Y1066441D02*
Y1076283D01*
X1687905Y1141000D02*
X1699716D01*
X1599000Y982000D02*
Y988000D01*
Y993905D01*
X1648000Y931000D02*
X1653630D01*
X1714000D02*
X1722000D01*
X1727630D01*
X1811000Y969000D02*
Y976000D01*
Y981630D01*
Y1088094D02*
Y1094000D01*
Y1099000D01*
X1721370Y1141000D02*
X1727000D01*
X1733000D01*
X1599000Y1039000D02*
X1607244D01*
X1599000D02*
Y1055000D01*
X1640000Y931000D02*
Y940244D01*
Y931000D02*
X1648000D01*
X1802756Y1043000D02*
X1811000D01*
X1820244D01*
X1811000D02*
Y1054630D01*
Y1062000D01*
X1786000Y1025000D02*
X1791000Y1030000D01*
X1424000Y1014756D02*
X1425059D01*
X1428052Y1011763D01*
X1417000Y1014756D02*
X1424000D01*
X1428052Y1006725D02*
Y1011763D01*
X1425709Y1004382D02*
X1428052Y1006725D01*
X1475000Y965000D02*
X1500346D01*
X1503780Y961566D01*
X1595000Y971000D02*
X1645000D01*
X1725022Y1034978D02*
X1755000D01*
X1725000Y1035000D02*
X1725022Y1034978D01*
X1262000Y1030000D02*
X1310000D01*
Y1070000D01*
X1262000Y970000D02*
X1310000D01*
Y840000D02*
Y970000D01*
Y1030000D01*
X1410000Y1200000D02*
Y1280000D01*
X1802756Y948110D02*
Y955000D01*
X1587756Y1057000D02*
X1593000D01*
X1595000Y1055000D01*
X1599000Y1136000D02*
Y1147906D01*
Y1159717D01*
Y1181370D01*
X1599000Y1136000D02*
X1607244D01*
X1802756Y969000D02*
X1811000D01*
X1794890Y943000D02*
X1799165D01*
X1802646Y946480D01*
X1922937Y1170102D02*
X1923000Y1170165D01*
X1909000Y1170102D02*
X1922937D01*
X1912756Y1113000D02*
Y1153000D01*
Y1159165D01*
X1909067Y1164237D02*
Y1169132D01*
X1907244Y1159165D02*
Y1162414D01*
X1909067Y1164237D01*
X1621000Y1035346D02*
X1627000Y1029346D01*
Y1028000D02*
Y1029346D01*
X1621000Y1028654D02*
Y1030000D01*
Y1028654D02*
X1626654Y1023000D01*
X1627000D01*
X1529000Y1024000D02*
X1540000Y1035000D01*
X1526000Y1028000D02*
X1537000Y1039000D01*
X1523000Y1032000D02*
X1534000Y1043000D01*
X1407000Y1108000D02*
X1423000D01*
X1397000Y1098000D02*
X1407000Y1108000D01*
X1388244Y1099756D02*
X1390000Y1098000D01*
X1397000D01*
X1388244Y1099756D02*
Y1103000D01*
X1386000Y1154000D02*
X1388244Y1156244D01*
Y1161000D01*
Y1162059D01*
X1392185Y1166000D01*
X1485000D01*
X1392000Y1006000D02*
X1400756Y1014756D01*
X1417000D01*
X1392000Y996441D02*
Y1006000D01*
X1410000Y1092000D02*
Y1103000D01*
X1386000Y1005000D02*
Y1068000D01*
X1410000Y1092000D01*
X1380000Y1005000D02*
Y1069000D01*
X1399000Y1088000D01*
X1398000Y956000D02*
X1430000D01*
X1682680Y1006680D02*
X1685000Y1009000D01*
Y1023000D01*
X1659840Y981840D02*
X1682680Y1004680D01*
Y1006680D01*
X1716000Y1061000D02*
X1740905Y1085905D01*
X1713000Y1051000D02*
X1716000Y1054000D01*
Y1061000D01*
X1733000Y1141000D02*
X1747000D01*
X1770000D01*
X1771000Y1140000D02*
X1791000Y1120000D01*
X1811000Y1100000D01*
X1824216Y1172000D02*
X1828185Y1168031D01*
Y1160312D02*
Y1168031D01*
X1823543Y1155669D02*
X1828185Y1160312D01*
X1823543Y1148787D02*
Y1155669D01*
X1822756Y1148000D02*
X1823543Y1148787D01*
X1822756Y1123756D02*
Y1148000D01*
X1821000Y1122000D02*
X1822756Y1123756D01*
X1822756Y1172000D02*
X1824216D01*
X1834000Y1190000D02*
X1835000D01*
X1816457Y1164331D02*
Y1171212D01*
X1817244Y1172000D01*
Y1173244D01*
X1834000Y1190000D01*
X1254500Y719000D02*
Y740000D01*
X2087500Y719000D02*
Y740000D01*
X1254500Y1281000D02*
Y1302000D01*
Y719000D02*
X1275500D01*
X2066500D02*
X2087500D01*
X1254500Y1302000D02*
X1275500D01*
D27*
X1945000Y923000D02*
X1956000D01*
X1825756Y1043000D02*
Y1048480D01*
X1884000Y903493D02*
X1911506Y931000D01*
X1886000Y903000D02*
X1906000Y923000D01*
X1886000Y888000D02*
Y903000D01*
X1906000Y923000D02*
X1933953D01*
X1884000Y895000D02*
Y903493D01*
X1911506Y931000D02*
X1952000D01*
X1894000Y905000D02*
X1906882Y917882D01*
X1890000Y904000D02*
X1906441Y920441D01*
X1890000Y892000D02*
Y904000D01*
X1906441Y920441D02*
X1933953D01*
X1894000Y896000D02*
Y905000D01*
X1906882Y917882D02*
X1933953D01*
X1952000Y931000D02*
X1971000Y950000D01*
X1785420Y836580D02*
X1789239D01*
X1979511Y909740D02*
Y948489D01*
X1985000Y906000D02*
Y958000D01*
X1979320Y900320D02*
X1985000Y906000D01*
X1978820Y909048D02*
X1979511Y909740D01*
X1967742Y909048D02*
X1978820D01*
X1960756Y928000D02*
X1976756Y912000D01*
X1919000Y928000D02*
X1960756D01*
X1908000Y904000D02*
X1914114D01*
X1813157Y826441D02*
Y835052D01*
X1809000Y833000D02*
X1811189Y830811D01*
Y826441D02*
Y830811D01*
X1813157Y835052D02*
X1817094Y831116D01*
X1784000Y842000D02*
X1787748Y838252D01*
X1785000Y837000D02*
X1785420Y836580D01*
X1787748Y838252D02*
X1789535D01*
X1784000Y847000D02*
X1785095Y848095D01*
X1789535D01*
X1786449Y850063D02*
X1789535D01*
X1783756Y852756D02*
X1786449Y850063D01*
X1783756Y847244D02*
X1784000Y847000D01*
X1820653Y832347D02*
X1823000D01*
X1817000Y836000D02*
X1820653Y832347D01*
X1818767Y857842D02*
Y897233D01*
X1820346Y857188D02*
Y902347D01*
X1823000Y861000D02*
X1824000Y862000D01*
X1823000Y854000D02*
Y861000D01*
X1818665Y857741D02*
X1818767Y857842D01*
X1820245Y857086D02*
X1820346Y857188D01*
X1820245Y853776D02*
Y857086D01*
X1818665Y854431D02*
Y857741D01*
X1818665Y854431D02*
X1818665Y854431D01*
X1818665Y840554D02*
Y854431D01*
Y840554D02*
X1820670Y838548D01*
X1820245Y853776D02*
X1820245Y853776D01*
X1820245Y841208D02*
Y853776D01*
X1813157Y835052D02*
Y835843D01*
X1817094Y826441D02*
Y831116D01*
X1793692Y836284D02*
X1795975Y834000D01*
X1796000D01*
X1794669Y837541D02*
X1799000D01*
X1789535Y836284D02*
X1793692D01*
X1793958Y838252D02*
X1794669Y837541D01*
X1789535Y838252D02*
X1793958D01*
X1813157Y851157D02*
X1817085Y855085D01*
Y859896D01*
X1817094Y859906D01*
X1813157Y851157D02*
Y859906D01*
X1789535Y843173D02*
X1799000D01*
X1789535D02*
Y844158D01*
Y842189D02*
Y843173D01*
X1794764Y848806D02*
X1799000D01*
X1793786Y850063D02*
X1795724Y852000D01*
X1796000D01*
X1789535Y850063D02*
X1793786D01*
X1794053Y848095D02*
X1794764Y848806D01*
X1789535Y848095D02*
X1794053D01*
X1820245Y841208D02*
X1820936Y840517D01*
X1820346Y902347D02*
X1837000Y919000D01*
X1816000Y900000D02*
X1818767Y897233D01*
X1832680Y842680D02*
X1840000Y850000D01*
X1832680Y839890D02*
Y842680D01*
X1827905Y848095D02*
X1830000Y846000D01*
X1823000Y848095D02*
X1827905D01*
X1823000Y850063D02*
X1834218D01*
X1823000Y852032D02*
X1833953D01*
X1809000Y854000D02*
X1811189Y856189D01*
Y859906D01*
X1789535Y840221D02*
X1795779D01*
X1789535Y846126D02*
X1795874D01*
X1908000Y898000D02*
X1914244D01*
X1930591Y897409D02*
X1933953D01*
X1930000Y898000D02*
X1930591Y897409D01*
X1919756Y898000D02*
X1930000D01*
X1936047Y897000D02*
X1938282Y899235D01*
X1934741Y897000D02*
X1936047D01*
X1936780Y915000D02*
X1938282Y913497D01*
X1934276Y915000D02*
X1936780D01*
X1933953Y915323D02*
X1934276Y915000D01*
X1925000Y895000D02*
X1933803D01*
X1938282Y899235D02*
Y913497D01*
X1882420Y899420D02*
Y909420D01*
X1883000Y910000D01*
X1868000Y885000D02*
X1882420Y899420D01*
X1874000Y885000D02*
X1884000Y895000D01*
X1795000Y925000D02*
X1855000Y985000D01*
X1860000D01*
X1929029Y884808D02*
X1933953Y889732D01*
X1925000Y884808D02*
X1929029D01*
X1924291Y892291D02*
X1933953D01*
X1922000Y890000D02*
X1924291Y892291D01*
X1956000Y907646D02*
X1962646D01*
X1964000Y909000D01*
X1965110Y911680D02*
X1967742Y909048D01*
X1956496Y913260D02*
X1965764D01*
X1956000Y912764D02*
X1956496Y913260D01*
X1967024Y912000D02*
X1971244D01*
X1965764Y913260D02*
X1967024Y912000D01*
X1962890Y911680D02*
X1965110D01*
X1961415Y910205D02*
X1962890Y911680D01*
X1956000Y910205D02*
X1961415D01*
X1960682Y902528D02*
X1962890Y900320D01*
X1956000Y902528D02*
X1960682D01*
X1962890Y900320D02*
X1979320D01*
X1961913Y905087D02*
X1964000Y903000D01*
X1956000Y905087D02*
X1961913D01*
X1926000Y910000D02*
X1928354Y907646D01*
X1933953D01*
Y910205D01*
X1926000Y903000D02*
X1928087Y905087D01*
X1933953D01*
Y902528D02*
Y905087D01*
X1933921Y900000D02*
X1933953Y899969D01*
X1924000Y900000D02*
X1933921D01*
X1920130Y903870D02*
X1924000Y900000D01*
X1919756Y903870D02*
X1920130D01*
X1976756Y897000D02*
X1983000D01*
X1908000Y913000D02*
X1914244D01*
X1910000Y970630D02*
X1919370Y980000D01*
X1948000D01*
X1979511Y948489D01*
X1956000Y917882D02*
X1956118Y918000D01*
X1964000D01*
X1919756Y913000D02*
X1933717D01*
X1956000Y912764D02*
Y915323D01*
Y897409D02*
Y899969D01*
Y897409D02*
X1956409Y897000D01*
X1971244D01*
X1956000Y894850D02*
X1964150D01*
X1970000Y889000D01*
X1897118Y816882D02*
X1909512D01*
X1894000Y820000D02*
X1897118Y816882D01*
X1820670Y838548D02*
X1822704D01*
X1820936Y840517D02*
X1822704D01*
X1822704Y838548D02*
X1823000Y838252D01*
X1822704Y840517D02*
X1823000Y840221D01*
X1826842Y844158D02*
X1830000Y841000D01*
X1823000Y844158D02*
X1826842D01*
X1854512Y862000D02*
Y865882D01*
Y825488D02*
Y862000D01*
X1851000D02*
X1854512D01*
X1869512D02*
Y865882D01*
Y849512D02*
Y862000D01*
X1873000D01*
X1860000Y850000D02*
Y874150D01*
X1860417D02*
X1863606D01*
X1865575Y876118D01*
X1873449D01*
X1850575Y876118D02*
X1858449D01*
X1860000Y874567D01*
X1854512Y825488D02*
X1860000Y820000D01*
Y840000D02*
X1869512Y849512D01*
X1829074Y836284D02*
X1832680Y839890D01*
X1823000Y836284D02*
X1829074D01*
X1823000Y844158D02*
Y846126D01*
Y842189D02*
Y844158D01*
X1834315Y834315D02*
X1840000Y840000D01*
X1823000Y834315D02*
X1834315D01*
X1840000Y820000D02*
X1845713Y825713D01*
X1840000Y830000D02*
X1844133Y834133D01*
Y851712D01*
X1845713Y825713D02*
Y852366D01*
X1838288Y854133D02*
X1841712D01*
X1842366Y855713D02*
X1845713Y852366D01*
X1841712Y854133D02*
X1844133Y851712D01*
X1834218Y850063D02*
X1838288Y854133D01*
X1833953Y852032D02*
X1837634Y855713D01*
X1842366D01*
X1937000Y812244D02*
Y824000D01*
X1912756Y788000D02*
X1937000Y812244D01*
X2002756Y819756D02*
X2007000Y824000D01*
X2002756Y788000D02*
Y819756D01*
X1964000Y820000D02*
X1967118Y816882D01*
X1980512D01*
Y795244D02*
Y816882D01*
Y795244D02*
X1988000Y787756D01*
X1988244Y788000D01*
X1997244D01*
X1907244Y788000D02*
X1909512Y790268D01*
X1907000Y787756D02*
X1907244Y788000D01*
X1909512Y790268D02*
Y816882D01*
X1900000Y787756D02*
X1907000D01*
X1701725Y1092275D02*
X1703000Y1091000D01*
X1701725Y1092275D02*
Y1100283D01*
X1698499Y1084501D02*
Y1092291D01*
X1697787Y1093003D02*
X1698499Y1092291D01*
X1697787Y1093003D02*
Y1100283D01*
X1695819Y1091181D02*
Y1100283D01*
X1651937Y1089063D02*
X1680000Y1061000D01*
X1682039Y1081274D02*
X1693850Y1093085D01*
Y1100283D01*
X1684008Y1092992D02*
X1686000Y1091000D01*
X1684008Y1092992D02*
Y1100283D01*
X1660234Y1089000D02*
X1675000Y1074234D01*
X1682039Y1081274D02*
Y1100283D01*
X1672197Y1091803D02*
X1673000Y1091000D01*
X1672197Y1091803D02*
Y1100283D01*
X1670228Y1083772D02*
X1671000Y1083000D01*
X1670228Y1083772D02*
Y1100283D01*
X1668260Y1092260D02*
Y1100283D01*
X1666093Y1094859D02*
Y1100086D01*
X1660234Y1089000D02*
X1666093Y1094859D01*
X1667000Y1091000D02*
X1668260Y1092260D01*
X1656234Y1093000D02*
X1660234Y1089000D01*
X1666093Y1100086D02*
X1666291Y1100283D01*
X1710000Y1084000D02*
X1711567Y1085567D01*
Y1100283D01*
X1741828Y1106463D02*
X1743063Y1105228D01*
X1740361Y1106463D02*
X1741828D01*
X1739324Y1105426D02*
X1740361Y1106463D01*
X1739324Y1100482D02*
Y1105426D01*
X1739126Y1100283D02*
X1739324Y1100482D01*
X1741095Y1093885D02*
Y1100283D01*
X1740383Y1093173D02*
X1741095Y1093885D01*
X1740383Y1084617D02*
Y1093173D01*
X1735189Y1089189D02*
Y1100283D01*
X1730000Y1084000D02*
X1735189Y1089189D01*
X1715504Y1091496D02*
Y1100283D01*
X1710000Y1056000D02*
Y1079000D01*
X1725347Y1094347D01*
Y1100283D01*
X1727000Y1092000D02*
X1729284Y1094284D01*
Y1100283D01*
X1743063Y1092063D02*
Y1100283D01*
X1753000Y1088000D02*
X1755000Y1086000D01*
X1763314D01*
X1745420Y1084420D02*
X1763969D01*
X1734000Y1073000D02*
X1745420Y1084420D01*
X1765820Y1086271D02*
Y1087828D01*
X1763969Y1084420D02*
X1765820Y1086271D01*
X1771802Y1088865D02*
X1772000Y1089063D01*
X1766857Y1088865D02*
X1771802D01*
X1763314Y1086000D02*
X1764240Y1086926D01*
Y1088482D01*
X1766591Y1090833D01*
X1771802D01*
X1765820Y1087828D02*
X1766857Y1088865D01*
X1771802Y1090833D02*
X1772000Y1091032D01*
X1754601Y1081189D02*
X1772000D01*
X1753220Y1079220D02*
X1772000D01*
X1743283Y1075283D02*
X1772000D01*
X1756315Y1073315D02*
X1772000D01*
X1754110Y1081680D02*
X1754601Y1081189D01*
X1745000Y1079000D02*
X1747680Y1081680D01*
X1754110D01*
X1753000Y1079000D02*
X1753220Y1079220D01*
X1725567Y1057567D02*
X1743283Y1075283D01*
X1753000Y1070000D02*
X1756315Y1073315D01*
X1745000Y1066000D02*
X1765000D01*
X1765559Y1065441D01*
X1772000D01*
X1763606Y1064184D02*
X1764318Y1063472D01*
X1756184Y1064184D02*
X1763606D01*
X1753000Y1061000D02*
X1756184Y1064184D01*
X1764318Y1063472D02*
X1772000D01*
X1725567Y1057567D02*
X1772000D01*
X1753000Y1049000D02*
X1759598Y1055598D01*
X1772000D01*
X1745000Y1030000D02*
X1754000D01*
X1757929Y1026071D01*
X1772000D01*
X1753000Y1027000D02*
X1755898Y1024102D01*
X1772000D01*
X1754110Y1022680D02*
X1760562Y1016228D01*
X1728320Y1022680D02*
X1754110D01*
X1728320D02*
X1735320Y1015680D01*
X1760562Y1016228D02*
X1772000D01*
X1753000Y1020000D02*
X1760709Y1012291D01*
X1772000D01*
X1740110Y1015680D02*
X1765152Y990638D01*
X1735320Y1015680D02*
X1740110D01*
X1712000Y1019000D02*
X1721000D01*
X1745165D02*
X1761717Y1002449D01*
X1772000D01*
X1753000Y1007000D02*
X1759520Y1000480D01*
X1772000D01*
X1765152Y990638D02*
X1772000D01*
X1753000Y999000D02*
X1763331Y988669D01*
X1735000Y1013000D02*
X1765820Y982180D01*
X1753000Y991000D02*
X1765173Y978827D01*
X1763331Y988669D02*
X1772000D01*
X1765820Y982030D02*
Y982180D01*
Y982030D02*
X1766857Y980993D01*
X1771802D01*
X1772000Y980795D01*
X1765173Y978827D02*
X1772000D01*
X1763142Y976858D02*
X1764717Y975283D01*
X1763142Y976858D02*
X1772000D01*
X1753000Y983000D02*
X1754268D01*
X1764717Y969575D02*
Y975283D01*
X1717473Y1013527D02*
X1742680Y988320D01*
Y977890D02*
Y988320D01*
X1739126Y974520D02*
X1740361Y975755D01*
X1740545D02*
X1742680Y977890D01*
X1740361Y975755D02*
X1740545D01*
X1739126Y969575D02*
Y974520D01*
X1740000Y978000D02*
Y979000D01*
X1737158Y975158D02*
X1740000Y978000D01*
X1737158Y969575D02*
Y975158D01*
X1730000Y986000D02*
X1733221Y982779D01*
Y969575D02*
Y982779D01*
X1729284Y969575D02*
Y976716D01*
X1717473Y969575D02*
Y1013527D01*
X1714000Y977000D02*
X1715138Y975862D01*
X1715504D01*
Y969575D02*
Y975862D01*
X1696680Y975890D02*
Y985680D01*
X1695819Y975029D02*
X1696680Y975890D01*
X1695819Y969575D02*
Y975029D01*
X1693850Y969575D02*
Y976850D01*
X1694000Y977000D01*
X1685976Y1004976D02*
X1698000Y1017000D01*
X1685976Y978814D02*
Y1004976D01*
Y978814D02*
X1686688Y978102D01*
Y975882D02*
Y978102D01*
X1685976Y975170D02*
X1686688Y975882D01*
X1685976Y969575D02*
Y975170D01*
X1684008Y969575D02*
Y976992D01*
X1680071Y969575D02*
Y979929D01*
X1674000Y986000D02*
X1680071Y979929D01*
X1677000Y977000D02*
X1678102Y975898D01*
Y969575D02*
Y975898D01*
X1658417Y974520D02*
X1659680Y975782D01*
X1658417Y969575D02*
Y974520D01*
X1656449Y969575D02*
Y976449D01*
X1657000Y977000D01*
X1655740Y1012740D02*
X1666000Y1023000D01*
X1652320Y1014320D02*
X1656000Y1018000D01*
X1649890Y1014320D02*
X1652320D01*
X1649236Y1012740D02*
X1655740D01*
X1647981Y1016228D02*
X1649890Y1014320D01*
X1650677Y1010323D02*
X1651000Y1010000D01*
X1647716Y1014260D02*
X1649236Y1012740D01*
X1641291Y1014260D02*
X1647716D01*
X1661110Y1011680D02*
X1662680Y1010110D01*
X1658890Y1011680D02*
X1661110D01*
X1653596Y1006386D02*
X1658890Y1011680D01*
X1641291Y1016228D02*
X1647981D01*
X1641291Y1010323D02*
X1650677D01*
X1663772Y1009000D02*
X1670000D01*
X1662680Y1010092D02*
X1663772Y1009000D01*
X1662680Y1010092D02*
Y1010110D01*
X1641291Y1006386D02*
X1653596D01*
X1650420Y997210D02*
X1658890Y1005680D01*
X1658260Y1007260D02*
X1660000Y1009000D01*
X1650420Y993420D02*
Y997210D01*
X1647471Y996496D02*
X1658236Y1007260D01*
X1647471Y995810D02*
Y996496D01*
X1658236Y1007260D02*
X1658260D01*
X1646434Y994773D02*
X1647471Y995810D01*
X1641489Y994773D02*
X1646434D01*
X1641291Y994575D02*
X1641489Y994773D01*
X1652000Y995942D02*
X1659058Y1003000D01*
X1653580Y995288D02*
X1658236Y999943D01*
X1655160Y994633D02*
X1658890Y998363D01*
X1658236Y999943D02*
X1669943D01*
X1649606Y992606D02*
X1650420Y993420D01*
X1641291Y992606D02*
X1649606D01*
X1659058Y1003000D02*
X1660000D01*
X1669943Y999943D02*
X1670000Y1000000D01*
X1641489Y979025D02*
X1652728D01*
X1641291Y980795D02*
X1641489Y980993D01*
X1641291Y982764D02*
X1641489Y982962D01*
X1641291Y976858D02*
X1641489Y977056D01*
X1641291Y978827D02*
X1641489Y979025D01*
X1625000Y1038000D02*
X1628819Y1041819D01*
X1641291D01*
X1659320Y1047680D02*
X1660000Y1047000D01*
X1647966Y1045756D02*
X1649890Y1047680D01*
X1641291Y1045756D02*
X1647966D01*
X1649890Y1047680D02*
X1659320D01*
X1649130Y1073315D02*
X1670000Y1052445D01*
X1650811Y1081189D02*
X1679000Y1053000D01*
X1670000Y1050000D02*
Y1052445D01*
X1641291Y1073315D02*
X1649130D01*
X1649748Y1077252D02*
X1660000Y1067000D01*
X1641291Y1077252D02*
X1649748D01*
X1641291Y1081189D02*
X1650811D01*
X1641291Y1089063D02*
X1651937D01*
X1652843Y1083157D02*
X1660000Y1076000D01*
X1641291Y1093000D02*
X1656234D01*
X1641291Y1083157D02*
X1652843D01*
X1660000Y1085000D02*
Y1087000D01*
X1655969Y1091031D02*
X1660000Y1087000D01*
X1641291Y1091031D02*
X1655969D01*
X1607244Y1057000D02*
X1610196Y1054048D01*
X1614850D01*
X1620802Y1060000D01*
X1625244D01*
X1504252Y827252D02*
Y833591D01*
X1506221Y758000D02*
Y765779D01*
X1424252Y813000D02*
Y821937D01*
Y794748D02*
Y813000D01*
X1442756D02*
X1446000Y816244D01*
X1424252Y813000D02*
X1442756D01*
X1424252Y794748D02*
X1426000Y793000D01*
X1426220Y771476D02*
X1428000Y773256D01*
X1426220Y768000D02*
Y771476D01*
X1584000Y1027370D02*
X1599000D01*
X1583802Y1021662D02*
X1584000Y1021464D01*
X1580117Y1021662D02*
X1583802D01*
X1589259Y1039000D02*
X1589756D01*
X1365094Y1148992D02*
X1378992D01*
X1379000D02*
X1394228D01*
X1379181Y1137181D02*
X1394228D01*
X1365094D02*
X1379000D01*
X1365094Y1127339D02*
X1379000D01*
X1394228D01*
X1365094Y1115528D02*
X1379000D01*
X1394228D01*
X1584000Y1101370D02*
X1599000D01*
X1584000Y1079717D02*
X1599000D01*
X1613134D01*
X1584000Y1067906D02*
X1599000D01*
X1613134D01*
X1365094Y1143087D02*
X1371913D01*
X1365094Y1121433D02*
X1371567D01*
X1387433D02*
X1394228D01*
X1584000Y1095465D02*
X1590535D01*
X1584000Y1089559D02*
X1599000D01*
Y1101370D02*
X1613134D01*
X1599000Y1089559D02*
X1613134D01*
X1605000Y1095465D02*
X1613134D01*
X1584000Y1073811D02*
X1592000D01*
X1606000D02*
X1613134D01*
X1599000Y1027370D02*
X1613134D01*
X1584000Y1015559D02*
X1599000D01*
X1613134D01*
X1584000Y1005716D02*
X1599000D01*
X1613134D01*
X1599000Y993905D02*
X1613134D01*
X1584000Y1021464D02*
X1591536D01*
X1605536D02*
X1613134D01*
X1584000Y999811D02*
X1591811D01*
X1605811D02*
X1613134D01*
X1386000Y1143087D02*
X1394228D01*
X1653630Y917000D02*
Y931000D01*
Y946134D01*
X1665441Y931000D02*
Y946134D01*
X1675284Y917000D02*
Y931000D01*
Y946134D01*
X1687095Y917000D02*
Y931000D01*
Y946134D01*
X1727630Y917000D02*
Y931000D01*
Y946134D01*
X1739441Y917000D02*
Y931000D01*
Y946134D01*
X1749284Y917000D02*
Y931000D01*
Y946134D01*
X1761095Y917000D02*
Y931000D01*
Y946134D01*
X1796866Y981630D02*
X1811000D01*
X1826000D01*
X1796866Y993441D02*
X1811000D01*
X1796866Y1003283D02*
X1811000D01*
X1826000D01*
X1796866Y1015094D02*
X1811000D01*
Y1076283D02*
X1826000D01*
X1796866Y1088094D02*
X1811000D01*
X1826000D01*
X1721370Y1125866D02*
Y1141000D01*
Y1155000D01*
X1709559Y1125866D02*
Y1141000D01*
Y1155000D01*
X1687905Y1125866D02*
Y1141000D01*
Y1155000D01*
X1659536Y938464D02*
Y946134D01*
Y917000D02*
Y925536D01*
X1665441Y917000D02*
Y931000D01*
X1681189Y917000D02*
Y925811D01*
Y937811D02*
Y946134D01*
X1733536Y937464D02*
Y946134D01*
Y917000D02*
Y925536D01*
X1755189Y917000D02*
Y925811D01*
Y937811D02*
Y946134D01*
X1796866Y987535D02*
X1805535D01*
X1817465D02*
X1826000D01*
X1811000Y993441D02*
X1826000D01*
X1817189Y1009189D02*
X1826000D01*
X1796866D02*
X1804811D01*
X1818906Y1015094D02*
X1826000D01*
X1796866Y1076283D02*
X1811000D01*
X1796866Y1060535D02*
X1797064Y1060734D01*
X1800749D01*
X1803366Y1067035D02*
X1805331Y1069000D01*
X1800749Y1060734D02*
X1803366Y1063351D01*
Y1067035D01*
X1801786Y1069246D02*
X1804221Y1071680D01*
X1811000Y1066441D02*
Y1067121D01*
X1804221Y1071680D02*
X1806441D01*
X1811000Y1067121D01*
X1796866Y1066441D02*
X1800551D01*
X1801786Y1067676D01*
Y1069246D01*
X1821465Y1060535D02*
X1826000D01*
X1819000Y1063000D02*
X1821465Y1060535D01*
X1819000Y1063000D02*
Y1068000D01*
X1818000Y1069000D02*
X1819000Y1068000D01*
X1811000Y1066441D02*
X1811651D01*
X1816890Y1071680D02*
X1819110D01*
X1821080Y1069710D01*
X1822315Y1066441D02*
X1826000D01*
X1811651D02*
X1816890Y1071680D01*
X1821080Y1067676D02*
X1822315Y1066441D01*
X1821080Y1067676D02*
Y1069710D01*
X1796866Y1082189D02*
X1804811D01*
X1817189D02*
X1826000D01*
X1715464Y1125866D02*
Y1134536D01*
Y1146536D02*
Y1155000D01*
X1693811Y1146189D02*
Y1155000D01*
X1699716Y1141000D02*
Y1155000D01*
X1693811Y1125866D02*
Y1134189D01*
X1699716Y1125866D02*
Y1141000D01*
X1584000Y993905D02*
X1599000D01*
X1589756Y986756D02*
X1591811Y988811D01*
X1589756Y982000D02*
Y986756D01*
X1645756Y922756D02*
X1648536Y925536D01*
X1640000Y922756D02*
X1645756D01*
X1695756Y926000D02*
X1699000Y922756D01*
X1692000Y926000D02*
X1695756D01*
X1796866Y1054630D02*
X1811000D01*
X1826000D01*
X1726464Y1134536D02*
X1730220D01*
X1733000Y1131756D01*
X1589756Y1108244D02*
Y1113000D01*
Y1108244D02*
X1593000Y1105000D01*
X1658890Y1005680D02*
X1670470D01*
X1681000Y1019790D02*
Y1023000D01*
X1677320Y1016110D02*
X1681000Y1019790D01*
X1670470Y1005680D02*
X1677320Y1012530D01*
Y1016110D01*
X1613134Y1187276D02*
X1622820D01*
X1624000Y1186096D01*
X1613134Y1175465D02*
X1618880D01*
X1624000Y1180584D01*
X1577120Y1175465D02*
X1584000D01*
X1572000Y1180584D02*
X1577120Y1175465D01*
X1573180Y1187276D02*
X1584000D01*
X1572000Y1186096D02*
X1573180Y1187276D01*
X1599000Y1181370D02*
X1613134D01*
X1584000Y1159717D02*
X1599000D01*
X1613134D01*
Y1161685D01*
Y1163653D01*
X1584000Y1147906D02*
X1599000D01*
X1584000Y1181370D02*
X1599000D01*
X1584000Y1175465D02*
X1584198Y1175266D01*
X1587883D01*
X1584000Y1169559D02*
X1587685D01*
X1588920Y1168324D01*
X1587883Y1175266D02*
X1593000Y1170150D01*
X1588920Y1166845D02*
Y1168324D01*
X1593000Y1167000D02*
Y1170150D01*
X1612936Y1175266D02*
X1613134Y1175465D01*
X1609251Y1175266D02*
X1612936D01*
X1608214Y1168324D02*
X1609449Y1169559D01*
X1613134D01*
X1604000Y1170016D02*
X1609251Y1175266D01*
X1604000Y1167000D02*
Y1170016D01*
X1602890Y1164320D02*
X1605110D01*
X1599000Y1168210D02*
X1602890Y1164320D01*
X1605110D02*
X1608214Y1167424D01*
Y1168324D01*
X1588920Y1166845D02*
X1591446Y1164320D01*
X1594554D01*
X1599000Y1168766D01*
X1584000Y1153811D02*
X1592811D01*
X1604811D02*
X1613134D01*
X1592811Y1139055D02*
Y1142189D01*
X1589756Y1136000D02*
X1592811Y1139055D01*
X1584000Y1136244D02*
Y1142000D01*
Y1136244D02*
X1584244Y1136000D01*
X1613134Y1136378D02*
Y1142000D01*
X1612756Y1136000D02*
X1613134Y1136378D01*
X1747000Y1100283D02*
Y1119094D01*
X1746094Y1120000D02*
X1747000Y1119094D01*
X1745032Y1100283D02*
Y1117273D01*
X1742314Y1119990D02*
Y1120000D01*
Y1119990D02*
X1745032Y1117273D01*
X1748969Y1100283D02*
Y1119094D01*
X1749874Y1120000D01*
X1750937Y1100283D02*
Y1117273D01*
X1753654Y1119990D02*
Y1120000D01*
X1750937Y1117273D02*
X1753654Y1119990D01*
X1624339Y1151842D02*
X1628248Y1155752D01*
X1613134Y1151842D02*
X1624339D01*
X1627717Y1149874D02*
X1630921Y1153079D01*
X1613134Y1149874D02*
X1627717D01*
X1622931Y1155779D02*
X1625576Y1158424D01*
X1613134Y1155779D02*
X1622931D01*
X1619554Y1157748D02*
X1622903Y1161097D01*
X1613134Y1157748D02*
X1619554D01*
X1599000Y1147906D02*
X1613134D01*
X1747000Y969575D02*
X1747198Y969377D01*
X1721000Y1019000D02*
X1763142Y976858D01*
X1746000Y986000D02*
X1754874Y977126D01*
Y969575D02*
Y977126D01*
X1749000Y979000D02*
X1752906Y975094D01*
Y969575D02*
Y975094D01*
X1754268Y983000D02*
X1762748Y974520D01*
Y969575D02*
Y974520D01*
X1751135Y964432D02*
Y969377D01*
X1749166Y964166D02*
Y969377D01*
X1747198Y963900D02*
Y969377D01*
X1763063Y946134D02*
Y952504D01*
X1759126Y946134D02*
Y954207D01*
X1757158Y946134D02*
Y953940D01*
X1747198Y963900D02*
X1757158Y953940D01*
X1749166Y964166D02*
X1759126Y954207D01*
X1751135Y964432D02*
X1763063Y952504D01*
X1757041Y961725D02*
Y969377D01*
X1765032Y946134D02*
Y953734D01*
X1757041Y961725D02*
X1765032Y953734D01*
X1758811Y962189D02*
Y969575D01*
Y962189D02*
X1771580Y949420D01*
X1792000Y951000D02*
X1795000Y948000D01*
X1797134D01*
X1875000Y1142756D02*
Y1152244D01*
X1896409Y1157756D02*
X1904819Y1166165D01*
X1875000Y1157756D02*
X1896409D01*
X1871000Y1156244D02*
X1875000Y1152244D01*
X1871000Y1156244D02*
Y1160000D01*
X1875000Y1164000D01*
X1649890Y1062680D02*
X1652110D01*
X1653680Y1061110D01*
X1641291Y1063472D02*
X1648448D01*
X1649236Y1064260D01*
X1653740D01*
X1660000Y1058000D01*
X1641291Y1059535D02*
X1646745D01*
X1653680Y1060530D02*
Y1061110D01*
Y1060530D02*
X1667210Y1047000D01*
X1700000D01*
X1646745Y1059535D02*
X1649890Y1062680D01*
X1662956Y1114044D02*
Y1138043D01*
X1657031Y1143968D02*
X1662956Y1138043D01*
X1665629Y1111371D02*
X1665636Y1111378D01*
Y1138192D01*
X1657891Y1145937D02*
X1665636Y1138192D01*
X1613134Y1143968D02*
X1657031D01*
X1613134Y1145937D02*
X1657891D01*
X1641291Y1053630D02*
X1647630D01*
X1650000Y1056000D01*
X1651000D01*
X1641291Y1055598D02*
X1646598D01*
X1651000Y1060000D01*
X1628110Y1020320D02*
X1629680Y1021890D01*
X1628765Y1018740D02*
X1631260Y1021235D01*
X1629419Y1017160D02*
X1632840Y1020581D01*
X1636346Y1026071D02*
X1641291D01*
X1632840Y1022564D02*
X1636346Y1026071D01*
X1632840Y1020581D02*
Y1022564D01*
X1631260Y1021235D02*
Y1023219D01*
X1636081Y1028039D01*
X1641291D01*
X1629680Y1021890D02*
Y1023873D01*
X1635814Y1030008D01*
X1641291D01*
X1616819Y1029338D02*
X1618054Y1028103D01*
Y1027810D02*
Y1028103D01*
X1613134Y1025401D02*
X1618228D01*
X1613134Y1023433D02*
X1617962D01*
X1618054Y1027810D02*
X1625544Y1020320D01*
X1628110D01*
X1618228Y1025401D02*
X1624890Y1018740D01*
X1628765D01*
X1617962Y1023433D02*
X1622698Y1018698D01*
X1622698D01*
X1624235Y1017160D01*
X1629419D01*
X1491261Y1157748D02*
X1584000D01*
X1393786Y1031000D02*
Y1060273D01*
X1491261Y1157748D01*
X1410906Y929000D02*
Y937905D01*
X1406811Y942000D02*
X1410906Y937905D01*
X1406811Y942000D02*
Y947000D01*
X1407126Y929000D02*
Y938535D01*
X1403661Y942000D02*
X1407126Y938535D01*
X1403661Y942000D02*
Y947000D01*
X1403189Y929000D02*
Y939323D01*
X1400512Y942000D02*
X1403189Y939323D01*
X1400512Y942000D02*
Y947000D01*
X1414843Y929000D02*
Y937118D01*
X1409961Y942000D02*
X1414843Y937118D01*
X1409961Y942000D02*
Y947000D01*
X1413110Y941085D02*
Y947000D01*
X1418623Y929000D02*
Y935572D01*
X1413110Y941085D02*
X1418623Y935572D01*
X1405283Y1031000D02*
Y1063752D01*
X1491405Y1149874D01*
X1584000D01*
X1401503Y1031000D02*
Y1062206D01*
X1491139Y1151842D01*
X1584000D01*
X1397566Y1031000D02*
Y1061269D01*
X1492076Y1155779D01*
X1584000D01*
X1409220Y1031000D02*
Y1065454D01*
X1489703Y1145937D01*
X1584000D01*
X1413000Y1031000D02*
Y1067000D01*
X1489968Y1143968D01*
X1584000D01*
X1399000Y1007000D02*
X1400512Y1005488D01*
Y996606D02*
Y1005488D01*
X1589756Y1039000D02*
X1591000D01*
X1595000Y1043000D01*
X1392000Y944000D02*
X1395000Y947000D01*
X1397362D01*
X1441457Y939543D02*
Y947000D01*
X1495000D02*
X1502000D01*
X1488701D02*
Y953701D01*
X1472953Y947000D02*
Y955047D01*
X1463000Y965000D02*
X1472953Y955047D01*
X1457205Y947000D02*
Y953291D01*
X1455000Y955495D02*
X1457205Y953291D01*
X1472953Y996606D02*
Y1003181D01*
X1472567Y1003567D02*
X1472953Y1003181D01*
X1441457Y996606D02*
Y1003543D01*
X1441070Y1003930D02*
X1441457Y1003543D01*
X1425709Y996606D02*
Y1004382D01*
X1502000Y995756D02*
Y1000000D01*
X1493890Y1005680D02*
X1496110D01*
X1492320Y1004110D02*
X1493890Y1005680D01*
X1501790Y1000000D02*
X1502000D01*
X1496110Y1005680D02*
X1501790Y1000000D01*
X1492320Y997076D02*
Y1004110D01*
X1491850Y996606D02*
X1492320Y997076D01*
X1488315Y996220D02*
X1488701Y996606D01*
X1488315Y988315D02*
Y996220D01*
Y988315D02*
X1500071D01*
X1502000Y990244D01*
X1457205Y991205D02*
Y996606D01*
X1454000Y988000D02*
X1457205Y991205D01*
X1425709Y947000D02*
Y955791D01*
X1554320Y1065320D02*
X1559000Y1070000D01*
X1554320Y895680D02*
Y1065320D01*
Y895680D02*
X1591000Y859000D01*
X1596000D01*
X1875000Y1137244D02*
X1894000Y1118244D01*
Y1076000D02*
Y1118244D01*
Y1076000D02*
X1925000Y1045000D01*
X1781000Y897000D02*
X1784260Y900260D01*
X1760780Y963220D02*
Y969575D01*
X1925000Y1045000D02*
X1945000D01*
X1946000D01*
X1760780Y963220D02*
X1773000Y951000D01*
X1783000D01*
Y950000D02*
Y951000D01*
Y950000D02*
X1784260Y948740D01*
Y900260D02*
Y948740D01*
X1780000Y925000D02*
X1782680Y927680D01*
X1771580Y949420D02*
X1779580D01*
X1782680Y946320D01*
Y927680D02*
Y946320D01*
X1658890Y998363D02*
X1667847D01*
X1668890Y997320D01*
X1671110D01*
X1680000Y1006210D01*
Y1015000D01*
X1659680Y975782D02*
Y982000D01*
X1740905Y1084095D02*
Y1085905D01*
X1740000Y1085000D02*
X1740383Y1084617D01*
X1740000Y1085000D02*
X1748000Y1093000D01*
X1772000D01*
X1660000Y992857D02*
Y995683D01*
X1656740Y989596D02*
X1660000Y992857D01*
X1652728Y979025D02*
X1656740Y983037D01*
X1641489Y980993D02*
X1652462D01*
X1655160Y983691D01*
X1641489Y982962D02*
X1652196D01*
X1653580Y984346D01*
X1641291Y984732D02*
X1651732D01*
X1652000Y985000D01*
Y995942D01*
X1653580Y984346D02*
Y995288D01*
X1655160Y983691D02*
Y994633D01*
X1656740Y983037D02*
Y989596D01*
X1641489Y977056D02*
X1654320D01*
Y978110D01*
X1655890Y979680D01*
X1657680D01*
X1661031Y983031D01*
X1733000Y1131756D02*
X1740000D01*
X1747000D02*
Y1141000D01*
X1740000Y1131756D02*
X1741985D01*
X1744740Y1129001D01*
X1761245D01*
X1764000Y1131756D01*
X1771000Y1131756D02*
Y1140000D01*
X1770000Y1141000D02*
X1771000Y1140000D01*
X1782756Y1120000D02*
X1791000D01*
X1283089Y1197244D02*
X1292000D01*
X1281712Y1195867D02*
X1283089Y1197244D01*
X1275867Y1195867D02*
X1281712D01*
X1270000Y1190000D02*
X1275867Y1195867D01*
X1816457Y1148787D02*
Y1155669D01*
Y1148787D02*
X1817244Y1148000D01*
D29*
X1346170Y985307D02*
X1371877Y959600D01*
X1346170Y985307D02*
Y1042556D01*
X1347730Y985954D02*
Y1043202D01*
Y985954D02*
X1372524Y961160D01*
X1349290Y986600D02*
X1373170Y962720D01*
X1349290Y986600D02*
Y1043848D01*
X1350850Y987246D02*
Y1044494D01*
Y987246D02*
X1373816Y964280D01*
X1352410Y987892D02*
X1374462Y965840D01*
X1352410Y987892D02*
Y1045140D01*
X1353970Y988538D02*
Y1045787D01*
Y988538D02*
X1375108Y967400D01*
X1375754Y968960D02*
X1462816D01*
X1355530Y989184D02*
X1375754Y968960D01*
X1355530Y989184D02*
Y1046433D01*
X1376401Y970520D02*
X1465704D01*
X1357090Y989831D02*
X1376401Y970520D01*
X1357090Y989831D02*
Y1047079D01*
X1347520Y1056649D02*
X1357090Y1047079D01*
X1345960Y1056003D02*
X1355530Y1046433D01*
X1349080Y1057295D02*
X1358650Y1047725D01*
Y990477D02*
Y1047725D01*
Y990477D02*
X1377047Y972080D01*
X1465631D01*
X1377693Y973640D02*
X1460892D01*
X1360210Y991123D02*
X1377693Y973640D01*
X1360210Y991123D02*
Y1048371D01*
X1350640Y1057941D02*
X1360210Y1048371D01*
X1352200Y1058587D02*
X1361770Y1049017D01*
Y991769D02*
Y1049017D01*
Y991769D02*
X1378339Y975200D01*
X1453003D01*
X1378985Y976760D02*
X1448264D01*
X1363330Y992415D02*
X1378985Y976760D01*
X1363330Y992415D02*
Y1049664D01*
X1353760Y1059234D02*
X1363330Y1049664D01*
X1355320Y1059880D02*
X1364890Y1050310D01*
Y993061D02*
Y1050310D01*
Y993061D02*
X1379631Y978320D01*
X1439320D01*
X1380278Y979880D02*
X1435636D01*
X1366450Y993708D02*
X1380278Y979880D01*
X1366450Y993708D02*
Y1050956D01*
X1380924Y981440D02*
X1427747D01*
X1368010Y994354D02*
X1380924Y981440D01*
X1368010Y994354D02*
Y1051602D01*
X1358440Y1061172D02*
X1368010Y1051602D01*
X1356880Y1060526D02*
X1366450Y1050956D01*
X1949756Y1218756D02*
Y1246244D01*
X1913000Y1182000D02*
X1949756Y1218756D01*
X1884000Y1182000D02*
X1913000D01*
X1914000Y1180000D02*
X1977670Y1243670D01*
X2017182D01*
X1885000Y1180000D02*
X1914000D01*
X1865000Y1160000D02*
X1885000Y1180000D01*
X1915055Y1174039D02*
X1920000Y1178984D01*
Y1180000D01*
X1618000Y844000D02*
X1631000Y857000D01*
X1632560Y853214D02*
Y892661D01*
X1620673Y841327D02*
X1632560Y853214D01*
X1634120Y849429D02*
Y890521D01*
X1623346Y838654D02*
X1634120Y849429D01*
X1635680Y845643D02*
Y889875D01*
X1626019Y835981D02*
X1635680Y845643D01*
Y889875D02*
X1657567Y911762D01*
X1634120Y890521D02*
X1655599Y912000D01*
X1632560Y892661D02*
X1651662Y911762D01*
X1631000Y857000D02*
Y893307D01*
X1360000Y1061818D02*
X1369570Y1052248D01*
Y995000D02*
Y1052248D01*
Y995000D02*
X1381570Y983000D01*
X1423008D01*
X1792000Y884785D02*
X1814820Y861965D01*
X1815000Y862146D02*
Y867000D01*
Y821000D02*
Y826315D01*
X1815126Y826441D01*
X1743378Y874782D02*
X1787000Y831160D01*
X1741410Y874384D02*
X1792098Y823696D01*
X1737473Y876115D02*
X1791451Y822136D01*
X1797064D01*
X1737473Y876115D02*
Y917000D01*
X1792098Y823696D02*
X1796418D01*
X1741410Y874384D02*
Y917000D01*
X1790159Y819016D02*
X1798356D01*
X1731567Y877608D02*
X1790159Y819016D01*
X1789513Y817456D02*
X1799002D01*
X1729599Y877371D02*
X1789513Y817456D01*
X1788867Y815896D02*
X1799649D01*
X1725662Y879101D02*
X1788867Y815896D01*
X1788221Y814336D02*
X1800295D01*
X1723693Y878864D02*
X1788221Y814336D01*
X1799072Y824144D02*
Y826135D01*
X1797064Y822136D02*
X1799072Y824144D01*
X1797409Y824688D02*
Y826441D01*
X1796418Y823696D02*
X1797409Y824688D01*
X1799649Y815896D02*
X1806946Y823193D01*
X1800295Y814336D02*
X1809220Y823262D01*
X1791559Y826441D02*
X1795441D01*
X1787000Y831000D02*
X1791559Y826441D01*
X1787000Y831000D02*
Y831160D01*
X1743378Y874782D02*
Y917000D01*
X1795000Y920350D02*
X1854650Y980000D01*
X1795000Y915000D02*
Y920350D01*
X1854650Y980000D02*
X1858776D01*
X1862670Y983894D01*
Y1025572D01*
X1551462Y739400D02*
X1560600Y748538D01*
X1502363Y739400D02*
X1551462D01*
X1490473Y751290D02*
X1502363Y739400D01*
X1550815Y740960D02*
X1559040Y749185D01*
X1503009Y740960D02*
X1550815D01*
X1492441Y751528D02*
X1503009Y740960D01*
X1550169Y742520D02*
X1557480Y749831D01*
X1503655Y742520D02*
X1550169D01*
X1494410Y751766D02*
X1503655Y742520D01*
X1549523Y744080D02*
X1555920Y750477D01*
X1504301Y744080D02*
X1549523D01*
X1496378Y752003D02*
X1504301Y744080D01*
X1548877Y745640D02*
X1554360Y751123D01*
X1504948Y745640D02*
X1548877D01*
X1498347Y752241D02*
X1504948Y745640D01*
X1548231Y747200D02*
X1552800Y751769D01*
X1505594Y747200D02*
X1548231D01*
X1500315Y752479D02*
X1505594Y747200D01*
X1547585Y748760D02*
X1551240Y752415D01*
X1511240Y748760D02*
X1547585D01*
X1508000Y752000D02*
X1511240Y748760D01*
X1546939Y750320D02*
X1549680Y753061D01*
X1519054Y750320D02*
X1546939D01*
X1514095Y755279D02*
X1519054Y750320D01*
X1546292Y751880D02*
X1548120Y753708D01*
X1519700Y751880D02*
X1546292D01*
X1516063Y755517D02*
X1519700Y751880D01*
X1545646Y753440D02*
X1546560Y754354D01*
X1520346Y753440D02*
X1545646D01*
X1518232Y755554D02*
X1520346Y753440D01*
X1545000Y755000D02*
Y815062D01*
X1523000Y755000D02*
X1545000D01*
X1520000Y758000D02*
X1523000Y755000D01*
X1546560Y754354D02*
Y814415D01*
X1548120Y753708D02*
Y813769D01*
X1549680Y753061D02*
Y813123D01*
X1551240Y752415D02*
Y812477D01*
X1680071Y1100283D02*
Y1109452D01*
X1678102Y1100283D02*
Y1109690D01*
X1676134Y1100283D02*
Y1109928D01*
X1674165Y1100283D02*
Y1110165D01*
X1682000Y1118000D01*
X1676134Y1109928D02*
X1683968Y1117762D01*
X1678102Y1109690D02*
X1685937Y1117525D01*
X1680071Y1109452D02*
X1689874Y1119255D01*
X1647461Y1020539D02*
X1651000Y1017000D01*
X1647461Y1020539D02*
Y1020895D01*
X1646430Y1021926D02*
X1647461Y1020895D01*
Y1041461D02*
X1651000Y1045000D01*
X1647461Y1041090D02*
Y1041461D01*
X1646430Y1040059D02*
X1647461Y1041090D01*
X1641500Y1040059D02*
X1646430D01*
X1641291Y1039850D02*
X1641500Y1040059D01*
X1491464Y951464D02*
X1500000Y960000D01*
X1491464Y947622D02*
Y951464D01*
X1567770Y995770D02*
X1583644D01*
X1564000Y992000D02*
X1567770Y995770D01*
X1560330Y997330D02*
X1579817D01*
X1558000Y995000D02*
X1560330Y997330D01*
X1557000Y994000D02*
X1558000D01*
X1563000Y1000000D02*
X1564000Y1001000D01*
X1566330Y1003330D02*
X1578106D01*
X1564000Y1001000D02*
X1566330Y1003330D01*
X1570770Y1001770D02*
X1583991D01*
X1569000Y1000000D02*
X1570770Y1001770D01*
X1568000Y1000000D02*
X1569000D01*
X1580329Y997842D02*
X1584000D01*
X1579817Y997330D02*
X1580329Y997842D01*
X1583644Y995770D02*
X1583874Y996000D01*
X1415000Y898000D02*
X1435000D01*
X1444000Y907000D01*
X1439440Y920440D02*
X1440000Y921000D01*
X1633339Y1118339D02*
X1635000Y1120000D01*
X1633339Y1113661D02*
Y1118339D01*
X1631106Y1107330D02*
X1641149Y1117373D01*
X1631752Y1105770D02*
X1641796Y1115813D01*
X1632398Y1104210D02*
X1642442Y1114253D01*
X1633044Y1102650D02*
X1643088Y1112693D01*
X1633691Y1101090D02*
X1643734Y1111133D01*
X1634337Y1099530D02*
X1644380Y1109573D01*
X1634983Y1097970D02*
X1645026Y1108013D01*
X1645672Y1106453D02*
X1649304D01*
X1635629Y1096410D02*
X1645672Y1106453D01*
X1641709Y1100283D02*
X1648575D01*
X1636275Y1094850D02*
X1641709Y1100283D01*
X1636242Y1094850D02*
X1636275D01*
X1635596Y1096410D02*
X1635629D01*
X1634950Y1097970D02*
X1634983D01*
X1634304Y1099530D02*
X1634337D01*
X1633658Y1101090D02*
X1633691D01*
X1633011Y1102650D02*
X1633044D01*
X1642442Y1114253D02*
X1652535D01*
X1632365Y1104210D02*
X1632398D01*
X1641796Y1115813D02*
X1653187D01*
X1631719Y1105770D02*
X1631752D01*
X1641149Y1117373D02*
X1654627D01*
X1628894Y1107330D02*
X1631106D01*
X1641291Y1051661D02*
X1651339D01*
X1630000Y1110000D02*
Y1120000D01*
X1618851Y1117373D02*
X1628894Y1107330D01*
X1630001Y1097433D02*
X1633658Y1101090D01*
X1613134Y1097433D02*
X1630001D01*
X1628270Y1093496D02*
X1634304Y1099530D01*
X1613134Y1093496D02*
X1628270D01*
X1628507Y1091528D02*
X1634950Y1097970D01*
X1613134Y1091528D02*
X1628507D01*
X1626777Y1087591D02*
X1635596Y1096410D01*
X1613134Y1087591D02*
X1626777D01*
X1627014Y1085622D02*
X1636242Y1094850D01*
X1613134Y1085622D02*
X1627014D01*
X1629763Y1099402D02*
X1633011Y1102650D01*
X1631494Y1103339D02*
X1632365Y1104210D01*
X1631256Y1105307D02*
X1631719Y1105770D01*
X1660386Y1100283D02*
Y1106402D01*
X1649304Y1106453D02*
X1650543Y1105214D01*
X1613134Y1105307D02*
X1631256D01*
X1613134Y1103339D02*
X1631494D01*
X1613134Y1099402D02*
X1629763D01*
X1584000Y1107276D02*
Y1107757D01*
X1640000Y956000D02*
Y964000D01*
X1641499Y1021926D02*
X1646430D01*
X1641291Y1022134D02*
X1641499Y1021926D01*
X1641291Y1022134D02*
Y1024102D01*
X1605298Y1052478D02*
X1620478D01*
X1600106Y1057670D02*
X1605298Y1052478D01*
X1620478D02*
X1624000Y1056000D01*
X1636153Y1061296D02*
X1641083D01*
X1634857Y1060000D02*
X1636153Y1061296D01*
X1630756Y1060000D02*
X1634857D01*
X1636153Y1057359D02*
X1641083D01*
X1634794Y1056000D02*
X1636153Y1057359D01*
X1624000Y1056000D02*
X1634794D01*
X1519271Y826271D02*
Y830452D01*
X1506292Y813292D02*
X1519271Y826271D01*
X1430944Y839116D02*
X1453497D01*
X1454143Y840676D02*
X1465927Y828892D01*
X1430298Y840676D02*
X1454143D01*
X1429652Y842236D02*
X1454789D01*
X1412649Y825232D02*
X1429652Y842236D01*
X1429006Y843796D02*
X1455435D01*
X1410472Y825262D02*
X1429006Y843796D01*
X1465927Y828892D02*
X1491848D01*
X1416586Y824757D02*
X1430944Y839116D01*
X1416586Y822145D02*
Y824757D01*
X1459465Y813292D02*
X1506292D01*
X1496378Y833591D02*
Y836475D01*
X1483513Y849340D02*
X1496378Y836475D01*
X1496170Y831008D02*
Y833383D01*
X1492494Y827332D02*
X1496170Y831008D01*
X1494202Y831246D02*
Y833383D01*
X1491848Y828892D02*
X1494202Y831246D01*
X1492233Y831483D02*
Y833383D01*
X1491202Y830452D02*
X1492233Y831483D01*
X1466573Y830452D02*
X1491202D01*
X1521266Y830989D02*
X1551011D01*
X1520729Y830452D02*
X1521266Y830989D01*
X1551011D02*
X1555000Y827000D01*
X1723338Y1155000D02*
Y1191338D01*
X1814820Y860212D02*
Y861965D01*
X1792000Y884785D02*
Y918000D01*
X1809220Y859906D02*
Y863085D01*
X1765032Y907274D02*
X1809220Y863085D01*
X1806946Y860212D02*
Y863153D01*
X1763063Y907036D02*
X1806946Y863153D01*
X1763063Y907036D02*
Y917000D01*
X1765032Y907274D02*
Y917000D01*
X1801040Y860212D02*
Y862440D01*
X1753221Y910260D02*
X1801040Y862440D01*
X1577330Y989176D02*
X1579883Y991729D01*
X1577330Y915550D02*
Y989176D01*
Y915550D02*
X1577440Y915440D01*
X1579000Y920000D02*
X1580000Y919000D01*
X1857000Y1030000D02*
X1858242D01*
X1840513Y1050693D02*
X1865374Y1025832D01*
X1826000Y1050693D02*
X1840513D01*
X1865374Y1025832D02*
X2048725D01*
X1858242Y1030000D02*
X1862670Y1025572D01*
X2048725Y1025832D02*
X2056517Y1018040D01*
X1854474Y995501D02*
X1860000Y989975D01*
X1854565Y1019031D02*
X1860000Y1024466D01*
X1826000Y1019031D02*
X1854565D01*
X1856377Y1017063D02*
X1860000Y1020686D01*
X1826000Y1017063D02*
X1856377D01*
X1853019Y1021981D02*
Y1031600D01*
X1866392Y1027392D02*
X2049371D01*
X1869344Y1030008D02*
X2048961D01*
X1870568Y1031568D02*
X2049608D01*
X2059637Y834532D02*
Y1019332D01*
X2048961Y1030008D02*
X2059637Y1019332D01*
X1874744Y1035744D02*
X2049844D01*
X2050295Y1037498D02*
X2065877Y1021917D01*
Y868292D02*
Y1021917D01*
X1873520Y1034184D02*
X2049198D01*
X1874539Y1037498D02*
X2050295D01*
X2050942Y1039058D02*
X2070000Y1020000D01*
X1875185Y1039058D02*
X2050942D01*
X1843628Y1068409D02*
X1874539Y1037498D01*
X1843865Y1070378D02*
X1875185Y1039058D01*
X1579883Y991729D02*
X1583792D01*
X1584000Y991937D01*
X1580121Y989760D02*
X1583792D01*
X1579000Y988639D02*
X1580121Y989760D01*
X1579000Y920000D02*
Y988639D01*
X1583792Y989760D02*
X1584000Y989968D01*
X1630000Y1038000D02*
X1641000D01*
X1584000Y1033275D02*
Y1038756D01*
X1762087Y1035913D02*
X1772000D01*
X1762496Y1061504D02*
X1772000D01*
X1707630Y969575D02*
X1709599D01*
X1707575D02*
X1707630D01*
X1705662D02*
X1707575D01*
X1703693D02*
X1705662D01*
X1707000Y969000D02*
X1707575Y969575D01*
X1772000Y1028039D02*
Y1030008D01*
Y1028039D02*
X1772039Y1028000D01*
X1782000D01*
X1641291Y1035291D02*
Y1035913D01*
Y1033945D02*
Y1035291D01*
Y1031976D02*
Y1033945D01*
Y1035913D02*
Y1037882D01*
X1641000Y1035000D02*
X1641291Y1035291D01*
X1707630Y1100283D02*
X1709599D01*
X1705662D02*
X1707630D01*
X1703693D02*
X1705662D01*
X1685976Y1113152D02*
X1691842Y1119018D01*
X1685976Y1100283D02*
Y1113152D01*
X1703693Y1100283D02*
Y1109693D01*
X1705622Y1114615D02*
Y1125866D01*
Y1114615D02*
X1713536Y1106701D01*
X1707590Y1115096D02*
Y1125866D01*
Y1115096D02*
X1717473Y1105214D01*
X1699756Y1100283D02*
Y1118060D01*
X1703653Y1121958D01*
X1691882Y1112392D02*
X1701685Y1122195D01*
X1691882Y1100283D02*
Y1112392D01*
X1689913Y1112676D02*
X1697748Y1120511D01*
X1689913Y1100283D02*
Y1112676D01*
X1695779Y1120749D02*
Y1125866D01*
X1687945Y1112914D02*
X1695779Y1120749D01*
X1687945Y1100283D02*
Y1112914D01*
X1691842Y1119018D02*
Y1125866D01*
X1689874Y1119255D02*
Y1125866D01*
X1685937Y1117525D02*
Y1125866D01*
X1683968Y1117762D02*
Y1125866D01*
X1682000Y1118000D02*
Y1125866D01*
X1701685Y1122195D02*
Y1125866D01*
X1703653Y1121958D02*
Y1125866D01*
X1697748Y1120511D02*
Y1125866D01*
X1664323Y1100283D02*
Y1107677D01*
X1662354Y1100283D02*
Y1106646D01*
X1535008Y1105307D02*
X1584000D01*
X1495000Y996827D02*
Y1003000D01*
X1571545Y1017527D02*
X1584000D01*
X1566330Y1012312D02*
X1571545Y1017527D01*
X1566330Y1006330D02*
Y1012312D01*
X1570894Y1014670D02*
X1573106D01*
X1569330Y1013106D02*
X1570894Y1014670D01*
X1569330Y1009330D02*
Y1013106D01*
X1573106Y1014670D02*
X1574185Y1013590D01*
X1430803Y1110000D02*
X1431402Y1110598D01*
X1840000Y1082346D02*
X1841654D01*
X1772000Y1033945D02*
X1780849D01*
X1780897Y1033897D01*
X1783646Y1067560D02*
X1792639Y1058567D01*
X1780794Y1064224D02*
X1783000D01*
X1778732Y1077044D02*
X1783670Y1072106D01*
X1778170Y1079812D02*
X1785230Y1072752D01*
X1779730Y1081033D02*
X1792146Y1068617D01*
X1781290Y1081679D02*
X1792383Y1070586D01*
X1782850Y1082325D02*
X1792829Y1072346D01*
X1784410Y1082971D02*
X1793066Y1074315D01*
X1784410Y1082971D02*
Y1084503D01*
X1791336Y1078252D02*
X1796866D01*
X1785970Y1083618D02*
X1791336Y1078252D01*
X1785970Y1083618D02*
Y1085149D01*
X1787530Y1084264D02*
Y1085795D01*
Y1084264D02*
X1791573Y1080220D01*
X1796866D01*
X1789843Y1084157D02*
X1796866D01*
X1789090Y1084910D02*
X1789843Y1084157D01*
X1789090Y1084910D02*
Y1086441D01*
X1784410Y1091121D02*
X1789090Y1086441D01*
X1556000Y831000D02*
X1593713D01*
X1607670Y844957D01*
X1572378Y1011622D02*
X1584000D01*
X1574185Y1013590D02*
X1584000D01*
X1500315Y752479D02*
Y758000D01*
X1498347Y752241D02*
Y758000D01*
X1496378Y752003D02*
Y758000D01*
X1494410Y751766D02*
Y758000D01*
X1492441Y751528D02*
Y758000D01*
X1490473Y751290D02*
Y758000D01*
X1514095Y755279D02*
Y758000D01*
X1516063Y755517D02*
Y758000D01*
X1518232Y755554D02*
Y757799D01*
X1512126Y752874D02*
X1513000Y752000D01*
X1512126Y752874D02*
Y758000D01*
X1423241Y752381D02*
X1484654D01*
X1423887Y753941D02*
X1482546D01*
X1424533Y755501D02*
X1481900D01*
X1425180Y757061D02*
X1481254D01*
X1425826Y758621D02*
X1480608D01*
X1436986Y760181D02*
X1479962D01*
X1432126Y765042D02*
X1436986Y760181D01*
X1489097Y762699D02*
X1491848D01*
X1488451Y764259D02*
X1492494D01*
X1487805Y765819D02*
X1493140D01*
X1487159Y767379D02*
X1493787D01*
X1486513Y768939D02*
X1510153D01*
X1479315Y761741D02*
X1486513Y768939D01*
X1412649Y765180D02*
X1423887Y753941D01*
X1412649Y765180D02*
Y767792D01*
X1414617Y765417D02*
X1424533Y755501D01*
X1414617Y765417D02*
Y767792D01*
X1438925Y764861D02*
X1478023D01*
X1438239Y765547D02*
X1438925Y764861D01*
X1438239Y765547D02*
Y767792D01*
X1498139Y758208D02*
Y760820D01*
X1493140Y765819D02*
X1498139Y760820D01*
X1437632Y761741D02*
X1479315D01*
X1485220Y772059D02*
X1511445D01*
X1484574Y773619D02*
X1512091D01*
X1418554Y765893D02*
X1425826Y758621D01*
X1416586Y765655D02*
X1425180Y757061D01*
X1432126Y765042D02*
Y766101D01*
X1428189Y764189D02*
Y768000D01*
X1516271Y833799D02*
Y835698D01*
X1517831Y831491D02*
Y833390D01*
X1518032Y833591D01*
X1516271Y835698D02*
X1520000Y839427D01*
Y910000D01*
X1583991Y1001770D02*
X1584000Y1001779D01*
X1578524Y1003748D02*
X1584000D01*
X1578106Y1003330D02*
X1578524Y1003748D01*
X1577000Y1006000D02*
X1578685Y1007685D01*
X1584000D01*
X1465280Y827332D02*
X1492494D01*
X1494202Y833383D02*
X1494410Y833591D01*
X1465640D02*
X1490473D01*
X1486063Y838000D02*
X1490473Y833591D01*
X1483000Y838000D02*
X1486063D01*
X1485087Y845560D02*
X1494410Y836238D01*
X1483000Y845560D02*
X1485087D01*
X1436000Y816000D02*
Y821874D01*
X1465000Y865000D02*
Y910000D01*
X1573000Y1008000D02*
X1574653Y1009653D01*
X1584000D01*
X1566000Y1006000D02*
X1566330Y1006330D01*
X1826000Y1078252D02*
X1836381D01*
X1826000Y1074315D02*
X1826136Y1074179D01*
X1836381Y1078252D02*
X1838894Y1075739D01*
X2017182Y1243670D02*
X2019756Y1246244D01*
X1826000Y1070378D02*
X1843865D01*
X1826000Y1068409D02*
X1843628D01*
X1845358Y1064472D02*
X1873892Y1035938D01*
X1826000Y1064472D02*
X1845358D01*
X1845121Y1062504D02*
X1873246Y1034378D01*
X1826000Y1062504D02*
X1845121D01*
X1894874Y1174039D02*
X1904819D01*
X1555000Y827000D02*
X1630000D01*
X1554538Y824600D02*
X1632168D01*
X1555184Y823040D02*
X1634388D01*
X1555831Y821480D02*
X1636608D01*
X1556477Y819920D02*
X1638828D01*
X1557123Y818360D02*
X1641048D01*
X1557769Y816800D02*
X1642732D01*
X1558415Y815240D02*
X1640512D01*
X1559062Y813680D02*
X1637660D01*
X1559708Y812120D02*
X1635440D01*
X1560354Y810560D02*
X1633220D01*
X1561000Y809000D02*
X1631000D01*
X1560600Y808600D02*
X1561000Y809000D01*
X1631000D02*
X1643000Y797000D01*
X1560600Y748538D02*
Y808600D01*
X1559040Y809246D02*
X1560354Y810560D01*
X1633220D02*
X1643000Y800780D01*
X1559040Y749185D02*
Y809246D01*
X1557480Y809892D02*
X1559708Y812120D01*
X1635440D02*
X1643000Y804560D01*
X1557480Y749831D02*
Y809892D01*
X1555920Y810538D02*
X1559062Y813680D01*
X1637660D02*
X1643000Y808340D01*
X1555920Y750477D02*
Y810538D01*
X1554360Y811185D02*
X1558415Y815240D01*
X1640512D02*
X1643000Y812752D01*
X1554360Y751123D02*
Y811185D01*
X1552800Y811831D02*
X1557769Y816800D01*
X1642732D02*
X1643000Y816532D01*
X1552800Y751769D02*
Y811831D01*
X1551240Y812477D02*
X1557123Y818360D01*
X1549680Y813123D02*
X1556477Y819920D01*
X1548120Y813769D02*
X1555831Y821480D01*
X1546560Y814415D02*
X1555184Y823040D01*
X1545000Y815062D02*
X1554538Y824600D01*
X1641048Y818360D02*
X1643000Y820312D01*
X1638828Y819920D02*
X1643000Y824092D01*
X1636608Y821480D02*
X1643000Y827872D01*
X1634388Y823040D02*
X1643000Y831652D01*
X1632168Y824600D02*
X1643000Y835432D01*
X1630000Y827000D02*
X1643000Y840000D01*
X1772000Y1047724D02*
X1777724D01*
X1772208Y1049485D02*
X1778170D01*
X1777547Y1051045D02*
X1778816D01*
X1777139Y1051453D02*
X1777547Y1051045D01*
X1778816D02*
X1779085Y1050776D01*
X1778170Y1049485D02*
X1779549Y1048106D01*
X1772208Y1051453D02*
X1777139D01*
X1772208Y1051454D02*
X1772208Y1051453D01*
X1779549Y1048106D02*
X1781894D01*
X1796783Y1050776D02*
X1796866Y1050693D01*
X1777376Y1053422D02*
X1778137Y1052661D01*
X1772208Y1053422D02*
X1777376D01*
X1772000Y1067409D02*
X1777608D01*
X1780794Y1064224D01*
X1779664Y1067560D02*
X1783646D01*
X1778054Y1069170D02*
X1779664Y1067560D01*
X1772208Y1069170D02*
X1778054D01*
X1792639Y1058567D02*
X1796866D01*
X1783670Y1071792D02*
X1792750Y1062712D01*
X1783670Y1071792D02*
Y1072106D01*
X1785230Y1072438D02*
X1792987Y1064680D01*
X1785230Y1072438D02*
Y1072752D01*
X1785702Y1087623D02*
X1787530Y1085795D01*
X1791612Y1086126D02*
X1796866D01*
X1785970Y1091768D02*
X1791612Y1086126D01*
X1789881Y1090063D02*
X1796866D01*
X1787530Y1092414D02*
X1789881Y1090063D01*
X1772000Y1071346D02*
X1780654D01*
X1781000Y1071000D01*
X1772208Y1077044D02*
X1778732D01*
X1778170Y1079812D02*
Y1081918D01*
X1792146Y1068617D02*
X1796658D01*
X1779730Y1081033D02*
Y1082564D01*
X1792383Y1070586D02*
X1796658D01*
X1781290Y1081679D02*
Y1083211D01*
X1792829Y1072346D02*
X1793195D01*
X1782850Y1082325D02*
Y1083857D01*
X1793066Y1074315D02*
X1796866D01*
X1792750Y1062712D02*
X1796658D01*
X1792987Y1064680D02*
X1796658D01*
X1785056Y1086063D02*
X1785970Y1085149D01*
X1785056Y1086063D02*
X1785056D01*
X1781290Y1089829D02*
X1785056Y1086063D01*
X1781290Y1089829D02*
Y1095022D01*
X1784410Y1084503D02*
X1784410Y1084503D01*
X1784410Y1084503D02*
X1784410D01*
X1782850Y1090475D02*
Y1095668D01*
Y1090475D02*
X1785702Y1087623D01*
X1785702D01*
X1779730Y1089183D02*
Y1094375D01*
Y1089183D02*
X1784410Y1084503D01*
X1270000Y1160000D02*
X1274123Y1164123D01*
X1278292Y1184123D02*
X1289123D01*
X1275877Y1178292D02*
X1280000Y1174170D01*
Y1170000D02*
Y1174170D01*
X1275877Y1181708D02*
X1278292Y1184123D01*
X1275877Y1178292D02*
Y1181708D01*
X1290000Y1185000D02*
X1292000Y1183000D01*
Y1173756D02*
Y1183000D01*
X1844560Y1040058D02*
X1853019Y1031600D01*
X1850346Y1024654D02*
Y1032067D01*
X1843914Y1038498D02*
X1850346Y1032067D01*
X1847673Y1027327D02*
Y1032533D01*
X1843268Y1036938D02*
X1847673Y1032533D01*
X1845000Y1030000D02*
X1846000Y1031000D01*
Y1032000D01*
X1842622Y1035378D02*
X1846000Y1032000D01*
X1793246Y1035378D02*
X1842622D01*
X1796866Y1043378D02*
Y1048724D01*
X1625000Y1048440D02*
X1625716Y1047724D01*
X1627527Y1049693D02*
X1641291D01*
X1625000Y1052220D02*
X1627527Y1049693D01*
X1635000Y1043787D02*
X1641291D01*
X1634127Y1044660D02*
X1635000Y1043787D01*
X1625000Y1044660D02*
X1634127D01*
X1625716Y1047724D02*
X1641291D01*
X1644330Y1254808D02*
X1703653Y1195485D01*
X1644330Y1254808D02*
Y1265670D01*
X1703653Y1155000D02*
Y1195485D01*
X1727275Y1155000D02*
X1731756D01*
X1676244D02*
X1682000D01*
X1456000Y897000D02*
Y905000D01*
X1454000Y907000D02*
X1456000Y905000D01*
X1838188Y1092031D02*
X1840000Y1093843D01*
X1536000Y897000D02*
Y905000D01*
X1534000Y907000D02*
X1536000Y905000D01*
X1614000Y907000D02*
X1615000Y906000D01*
Y897000D02*
Y906000D01*
X1838189Y1084157D02*
X1840000Y1082346D01*
X1826000Y1080220D02*
X1838189D01*
X1840000Y1078409D01*
X1686000Y809000D02*
Y830032D01*
X1693749Y812251D02*
Y830000D01*
X1826000Y1058567D02*
X1843569D01*
X1826000Y1056598D02*
X1842753D01*
X1826000Y1052661D02*
X1841122D01*
X1834744Y995501D02*
X1854474D01*
X1826000Y995409D02*
X1834652D01*
X1834744Y995501D01*
X1826000Y997378D02*
X1856377D01*
X1860000Y993755D01*
X1826000Y999346D02*
X1858189D01*
X1860000Y997535D01*
X1826000Y1001315D02*
X1860000D01*
X1944000Y1097000D02*
X1973000D01*
X1957000Y1093000D02*
X1970000Y1080000D01*
X1944000Y1093000D02*
X1957000D01*
X1973000Y1097000D02*
X1990000Y1080000D01*
X1924944Y1084944D02*
X1943944D01*
X1826000Y1005252D02*
X1860000D01*
X1856377Y1013126D02*
X1860000Y1016749D01*
X1826000Y1013126D02*
X1856377D01*
X1858188Y1011157D02*
X1860000Y1012969D01*
X1826000Y1011157D02*
X1858188D01*
Y1007220D02*
X1860000Y1009032D01*
X1826000Y1007220D02*
X1858188D01*
X1842753Y1056598D02*
X1869344Y1030008D01*
X1843569Y1058567D02*
X1870568Y1031568D01*
X1873325Y1034378D02*
X1873520Y1034184D01*
X1873246Y1034378D02*
X1873325D01*
X2049371Y1027392D02*
X2058077Y1018686D01*
X1613134Y982378D02*
Y988000D01*
X1584000Y982244D02*
Y988000D01*
X1569000Y1009000D02*
X1569330Y1009330D01*
X1572000Y1012000D02*
X1572378Y1011622D01*
X1725307Y1186307D02*
X1727000Y1188000D01*
X1725307Y1155000D02*
Y1186307D01*
X1719401Y1155000D02*
Y1195944D01*
X1717270Y1155163D02*
Y1204821D01*
X1720363Y1205589D02*
Y1249637D01*
X1718830Y1204056D02*
X1720363Y1205589D01*
X1718830Y1196515D02*
Y1204056D01*
Y1196515D02*
X1719401Y1195944D01*
X1718803Y1206354D02*
Y1241197D01*
X1717270Y1204821D02*
X1718803Y1206354D01*
X1717243Y1207000D02*
Y1232757D01*
X1713496Y1203253D02*
X1717243Y1207000D01*
X1715683Y1207646D02*
Y1224317D01*
X1711527Y1203491D02*
X1715683Y1207646D01*
X1714123Y1208292D02*
Y1215877D01*
X1707590Y1201760D02*
X1714123Y1208292D01*
X1711527Y1155000D02*
Y1203491D01*
X1710000Y1220000D02*
X1714123Y1215877D01*
X1707590Y1155000D02*
Y1201760D01*
X1710000Y1230000D02*
X1715683Y1224317D01*
X1710000Y1240000D02*
X1717243Y1232757D01*
X1710000Y1250000D02*
X1718803Y1241197D01*
X1710000Y1260000D02*
X1720363Y1249637D01*
X1518032Y831691D02*
X1519271Y830452D01*
X1520729D01*
X1520000Y833591D02*
X1525835D01*
X1682095Y827095D02*
Y830000D01*
X1679221Y832874D02*
X1682095Y830000D01*
X1679221Y832874D02*
Y917000D01*
X1478955Y768000D02*
X1484574Y773619D01*
X1512091D02*
X1519792Y765917D01*
X1440000Y768000D02*
X1478955D01*
X1519792Y758208D02*
Y765917D01*
Y758208D02*
X1520000Y758000D01*
X1673315Y912000D02*
X1674378Y910937D01*
Y824378D02*
Y910937D01*
X1673315Y912000D02*
Y917000D01*
X1511445Y772059D02*
X1517824Y765680D01*
X1478023Y764861D02*
X1485220Y772059D01*
X1518032Y758000D02*
X1518232Y757799D01*
X1517824Y758208D02*
X1518032Y758000D01*
X1517824Y758208D02*
Y765680D01*
X1671347Y830749D02*
Y917000D01*
X1670598Y821598D02*
Y830000D01*
X1671347Y830749D01*
X1515855Y758208D02*
Y765442D01*
X1485866Y770499D02*
X1510799D01*
X1515855Y765442D01*
X1478669Y763301D02*
X1485866Y770499D01*
X1515855Y758208D02*
X1516063Y758000D01*
X1436271Y765309D02*
X1438279Y763301D01*
X1436271Y765309D02*
Y767792D01*
X1438279Y763301D02*
X1478669D01*
X1685126Y834686D02*
Y917000D01*
X1690000Y818000D02*
Y829812D01*
X1685126Y834686D02*
X1690000Y829812D01*
X1510153Y768939D02*
X1513887Y765205D01*
X1434302Y765072D02*
Y767792D01*
Y765072D02*
X1437632Y761741D01*
X1513887Y758208D02*
X1514095Y758000D01*
X1513887Y758208D02*
Y765205D01*
X1691032Y836497D02*
X1697529Y830000D01*
Y815471D02*
Y830000D01*
X1691032Y836497D02*
Y917000D01*
X1508189Y753189D02*
Y758000D01*
X1420315Y768000D02*
Y770685D01*
X1416000Y775000D02*
X1420315Y770685D01*
X1416000Y775000D02*
Y776000D01*
X1508000Y753000D02*
X1508189Y753189D01*
X1689063Y834686D02*
Y917000D01*
Y834686D02*
X1693749Y830000D01*
X1493787Y767379D02*
X1500107Y761058D01*
Y758208D02*
X1500315Y758000D01*
X1500107Y758208D02*
Y761058D01*
X1479962Y760181D02*
X1487159Y767379D01*
X1683158Y832874D02*
Y917000D01*
Y832874D02*
X1686000Y830032D01*
X1418346Y768000D02*
X1418554Y767792D01*
Y765893D02*
Y767792D01*
X1498139Y758208D02*
X1498347Y758000D01*
X1480608Y758621D02*
X1487805Y765819D01*
X1669378Y832560D02*
Y917000D01*
X1666818Y806182D02*
Y830000D01*
X1669378Y832560D01*
X1496170Y758208D02*
Y760583D01*
X1416378Y768000D02*
X1416586Y767792D01*
X1492494Y764259D02*
X1496170Y760583D01*
Y758208D02*
X1496378Y758000D01*
X1416586Y765655D02*
Y767792D01*
X1481254Y757061D02*
X1488451Y764259D01*
X1667410Y834372D02*
Y917000D01*
X1663038Y803038D02*
Y830000D01*
X1667410Y834372D01*
X1494202Y758208D02*
Y760345D01*
X1414409Y768000D02*
X1414617Y767792D01*
X1491848Y762699D02*
X1494202Y760345D01*
Y758208D02*
X1494410Y758000D01*
X1481900Y755501D02*
X1489097Y762699D01*
X1663473Y834372D02*
Y917000D01*
X1659101Y800101D02*
Y830000D01*
X1663473Y834372D01*
X1492233Y758208D02*
Y760107D01*
X1412441Y768000D02*
X1412649Y767792D01*
X1491202Y761139D02*
X1492233Y760107D01*
X1489743Y761139D02*
X1491202D01*
X1492233Y758208D02*
X1492441Y758000D01*
X1482546Y753941D02*
X1489743Y761139D01*
X1661504Y836183D02*
Y917000D01*
X1655321Y830000D02*
X1661504Y836183D01*
X1655321Y797321D02*
Y830000D01*
X1490272Y758000D02*
X1490473D01*
X1484654Y752381D02*
X1490272Y758000D01*
X1410680Y764942D02*
X1423241Y752381D01*
X1410680Y764942D02*
Y767792D01*
X1677252Y831063D02*
Y917000D01*
Y831063D02*
X1678315Y830000D01*
X1439271Y825076D02*
X1447681D01*
X1438031Y823836D02*
X1439271Y825076D01*
X1447681D02*
X1459465Y813292D01*
X1631000Y893307D02*
X1649693Y912000D01*
X1657567Y911762D02*
Y917000D01*
X1483000Y849340D02*
X1483513D01*
X1496170Y833383D02*
X1496378Y833591D01*
X1453497Y839116D02*
X1465280Y827332D01*
X1416378Y821937D02*
X1416586Y822145D01*
X1494410Y833591D02*
Y836238D01*
X1414617Y822145D02*
Y824995D01*
X1430298Y840676D01*
X1414409Y821937D02*
X1414617Y822145D01*
X1483000Y841780D02*
X1486661D01*
X1492441Y836000D01*
Y833591D02*
Y836000D01*
X1492233Y833383D02*
X1492441Y833591D01*
X1454789Y842236D02*
X1466573Y830452D01*
X1412649Y822145D02*
Y825232D01*
X1412441Y821937D02*
X1412649Y822145D01*
X1455435Y843796D02*
X1465640Y833591D01*
X1410472Y821937D02*
Y825262D01*
X1649693Y912000D02*
Y917000D01*
X1651662Y911762D02*
Y917000D01*
X1655599Y912000D02*
Y917000D01*
X1510158Y758000D02*
Y762842D01*
X1433000Y773256D02*
Y773773D01*
X1430365Y768208D02*
Y771138D01*
X1430157Y768000D02*
X1430365Y768208D01*
X1502284Y758000D02*
Y762716D01*
X1635648Y996543D02*
X1641291D01*
X1634837Y999560D02*
X1635885Y998512D01*
X1641291D01*
X1634349Y997842D02*
X1635648Y996543D01*
X1613134Y997842D02*
X1634349D01*
X1623299Y986701D02*
X1641291D01*
X1620032Y989968D02*
X1623299Y986701D01*
X1613134Y989968D02*
X1620032D01*
X1635441Y1065441D02*
X1641291D01*
X1633969Y1063969D02*
X1635441Y1065441D01*
X1631937Y1065937D02*
X1633409Y1067409D01*
X1641291D01*
X1635865Y1069874D02*
X1636361Y1069378D01*
X1635865Y1071843D02*
X1636153Y1071554D01*
X1641083D01*
X1635865Y1075780D02*
X1636361Y1075283D01*
X1613134Y1077748D02*
X1616805D01*
X1613134Y1075780D02*
X1635865D01*
X1618277Y1079220D02*
X1641291D01*
X1616805Y1077748D02*
X1618277Y1079220D01*
X1613134Y1083654D02*
X1631654D01*
X1635332Y1085126D02*
X1641291D01*
X1613134Y1081685D02*
X1631891D01*
X1635332Y1085126D01*
X1631654Y1083654D02*
X1635094Y1087094D01*
X1641291D01*
X1711527Y1113365D02*
Y1125866D01*
X1713496Y1113603D02*
Y1125866D01*
X1713536Y1100283D02*
Y1106701D01*
X1717473Y1100283D02*
Y1105214D01*
X1711527Y1113365D02*
X1719441Y1105452D01*
Y1100283D02*
Y1105452D01*
X1713496Y1113603D02*
X1721410Y1105689D01*
Y1100283D02*
Y1105689D01*
X1717433Y1112567D02*
Y1125866D01*
Y1112567D02*
X1723378Y1106622D01*
Y1100283D02*
Y1106622D01*
X1727275Y1116725D02*
Y1125866D01*
X1725307Y1114693D02*
Y1125866D01*
X1727315Y1100283D02*
Y1105432D01*
X1727275Y1116725D02*
X1737158Y1106842D01*
X1733221Y1100284D02*
Y1106779D01*
X1725307Y1114693D02*
X1733221Y1106779D01*
X1723338Y1113128D02*
Y1125866D01*
Y1113128D02*
X1731252Y1105214D01*
Y1100283D02*
Y1105214D01*
X1719401Y1113346D02*
Y1125866D01*
Y1113346D02*
X1727315Y1105432D01*
X1737158Y1100283D02*
Y1106842D01*
X1612756Y1057000D02*
Y1061622D01*
X1613134Y1062000D01*
Y1107276D02*
Y1111622D01*
Y1033275D02*
Y1038622D01*
Y991937D02*
X1620269D01*
X1623537Y988669D01*
X1613134Y995874D02*
X1618538D01*
X1623775Y990638D01*
X1641291D01*
X1623537Y988669D02*
X1641291D01*
X1651662Y946134D02*
Y953714D01*
X1655599Y946134D02*
Y955444D01*
X1657567Y946134D02*
Y955207D01*
X1661504Y946134D02*
Y956937D01*
X1663473Y946134D02*
Y956700D01*
X1667410Y946134D02*
Y958431D01*
X1669378Y946134D02*
Y958193D01*
X1671347Y946134D02*
Y957955D01*
X1667410Y958431D02*
X1672197Y963218D01*
Y969575D01*
X1670228Y963456D02*
Y969575D01*
X1663473Y956700D02*
X1670228Y963456D01*
X1661504Y956937D02*
X1668260Y963693D01*
Y969575D01*
X1666291Y963931D02*
Y969575D01*
X1657567Y955207D02*
X1666291Y963931D01*
X1655599Y955444D02*
X1664323Y964169D01*
Y969575D01*
X1662354Y964406D02*
Y969575D01*
X1651662Y953714D02*
X1662354Y964406D01*
X1660386Y964644D02*
Y969575D01*
X1649693Y946134D02*
Y953951D01*
X1660386Y964644D01*
X1673315Y946134D02*
Y955920D01*
X1671347Y957955D02*
X1676134Y962743D01*
Y969575D01*
X1669378Y958193D02*
X1674165Y962980D01*
Y969575D01*
X1673315Y955920D02*
X1682039Y964644D01*
X1679221Y946134D02*
Y953714D01*
X1683158Y946134D02*
Y955444D01*
X1691032Y946134D02*
Y953476D01*
X1701724Y964169D01*
X1689063Y946134D02*
Y953713D01*
X1699756Y964406D02*
Y969575D01*
X1689063Y953713D02*
X1699756Y964406D01*
X1697787Y964644D02*
Y969575D01*
X1685126Y946134D02*
Y951983D01*
X1697787Y964644D01*
X1683158Y955444D02*
X1691882Y964169D01*
Y969575D01*
X1689913Y964406D02*
Y969575D01*
X1679221Y953714D02*
X1689913Y964406D01*
X1687945Y964644D02*
Y969575D01*
X1677252Y946134D02*
Y953951D01*
X1687945Y964644D01*
X1701724Y964169D02*
Y969575D01*
X1693000Y946134D02*
X1698622D01*
X1699000Y945756D01*
X1640378Y946134D02*
X1647725D01*
X1640000Y945756D02*
X1640378Y946134D01*
X1693000Y917000D02*
X1698756D01*
X1640244D02*
X1647725D01*
X1723693Y946134D02*
Y950939D01*
X1711567Y963065D02*
X1723693Y950939D01*
X1711567Y963065D02*
Y964644D01*
X1713536Y963302D02*
Y969575D01*
X1719441Y959962D02*
Y969575D01*
X1721410Y963931D02*
Y964644D01*
X1723378Y964169D02*
Y969575D01*
X1725347Y964406D02*
Y964644D01*
X1737473Y946134D02*
Y952280D01*
X1725347Y964406D02*
X1737473Y952280D01*
X1735504Y946134D02*
Y952043D01*
X1723378Y964169D02*
X1735504Y952043D01*
X1741410Y946134D02*
Y950550D01*
X1727315Y964644D02*
X1741410Y950550D01*
X1743378Y946134D02*
Y952518D01*
X1745347Y946134D02*
Y954487D01*
X1735189Y964644D02*
X1745347Y954487D01*
X1767000Y946134D02*
X1772622D01*
X1714378D02*
X1721725D01*
X1714244Y917000D02*
X1721725D01*
X1767000D02*
X1772756D01*
X1796866Y969378D02*
Y975724D01*
X1826000Y969244D02*
Y975724D01*
X1796866Y1021000D02*
Y1026622D01*
X1826000Y1021000D02*
Y1026756D01*
X1778065Y1017063D02*
X1796866D01*
X1779228Y1019031D02*
X1796866D01*
X1776931Y1020165D02*
X1778094D01*
X1779228Y1019031D01*
X1776931Y1018197D02*
X1778065Y1017063D01*
X1772000Y1014260D02*
X1776931D01*
X1778065Y1013126D01*
X1796866D01*
X1777765Y1011157D02*
X1796866D01*
X1776931Y1010323D02*
X1777765Y1011157D01*
X1772000Y1010323D02*
X1776931D01*
X1772208Y1004209D02*
X1778170D01*
X1779334Y1005252D02*
X1796866D01*
X1779571Y1007220D02*
X1796866D01*
X1781064Y1001315D02*
X1796866D01*
X1778170Y1004209D02*
X1781064Y1001315D01*
X1772000Y1008354D02*
X1778437D01*
X1779571Y1007220D01*
X1772208Y1006178D02*
X1778408D01*
X1779334Y1005252D01*
X1777765Y999346D02*
X1796866D01*
X1778003Y997378D02*
X1796866D01*
X1772208Y998720D02*
X1777139D01*
X1777765Y999346D01*
X1777594Y996969D02*
X1778003Y997378D01*
X1777139Y996751D02*
X1777357Y996969D01*
X1777594D01*
X1772208Y996751D02*
X1777139D01*
X1778003Y995409D02*
X1796866D01*
X1777376Y994783D02*
X1778003Y995409D01*
X1772208Y994783D02*
X1777376D01*
X1826000Y1094000D02*
Y1098756D01*
X1772208Y1059328D02*
X1777139D01*
X1796658Y1070586D02*
X1796866Y1070378D01*
X1772000Y1087094D02*
X1772208Y1086887D01*
X1772000Y1085126D02*
X1772208Y1084918D01*
X1772000Y1083157D02*
X1772208Y1082950D01*
X1762748Y1100283D02*
X1762956Y1100491D01*
X1760780Y1100283D02*
X1760988Y1100491D01*
X1796866Y1094000D02*
Y1098622D01*
X1758811Y1100283D02*
X1759019Y1100491D01*
X1756843Y1100283D02*
X1757051Y1100491D01*
X1754874Y1100283D02*
X1755082Y1100491D01*
X1764717Y1100283D02*
X1770239Y1094761D01*
X1760988Y1100491D02*
Y1105660D01*
X1763341Y1108013D01*
X1752906Y1100283D02*
X1753114Y1100491D01*
X1762956Y1105422D02*
X1763987Y1106453D01*
X1760757Y1114253D02*
X1770883D01*
X1787530Y1097606D01*
X1762956Y1100491D02*
Y1105422D01*
X1753114Y1100491D02*
Y1106611D01*
X1760757Y1114253D01*
X1755082Y1100491D02*
Y1106373D01*
X1761403Y1112693D01*
X1757051Y1100491D02*
Y1106135D01*
X1762049Y1111133D01*
X1759019Y1100491D02*
Y1105897D01*
X1762695Y1109573D01*
X1777139Y1094761D02*
X1778170Y1093729D01*
X1784410Y1091121D02*
Y1096314D01*
X1785970Y1091768D02*
Y1096960D01*
X1787530Y1092414D02*
Y1097606D01*
X1770239Y1094761D02*
X1777139D01*
X1761403Y1112693D02*
X1770237D01*
X1785970Y1096960D01*
X1762049Y1111133D02*
X1769591D01*
X1784410Y1096314D01*
X1762695Y1109573D02*
X1768944D01*
X1782850Y1095668D01*
X1763341Y1108013D02*
X1768298D01*
X1781290Y1095022D01*
X1763987Y1106453D02*
X1767652D01*
X1779730Y1094375D01*
X1778170Y1088537D02*
Y1093729D01*
X1772208Y1086887D02*
X1777614D01*
X1772208Y1084918D02*
X1777376D01*
X1772208Y1082950D02*
X1777139D01*
X1778170Y1081918D01*
X1777376Y1084918D02*
X1779730Y1082564D01*
X1777614Y1086887D02*
X1781290Y1083211D01*
X1778170Y1088537D02*
X1782850Y1083857D01*
X1801040Y860212D02*
X1801346Y859906D01*
X1797103Y860212D02*
Y861965D01*
X1799072Y860212D02*
Y862203D01*
X1803009Y860212D02*
Y862678D01*
X1804977Y860212D02*
Y862916D01*
X1759126Y908767D02*
Y917000D01*
Y908767D02*
X1804977Y862916D01*
X1757158Y908529D02*
Y917000D01*
Y908529D02*
X1803009Y862678D01*
X1753221Y910260D02*
Y917000D01*
X1751252Y910022D02*
Y917000D01*
Y910022D02*
X1799072Y862203D01*
X1747315Y911753D02*
Y917000D01*
Y911753D02*
X1797103Y861965D01*
X1745347Y911401D02*
Y917000D01*
Y911401D02*
X1795441Y861306D01*
Y859906D02*
Y861306D01*
X1801040Y826135D02*
X1801346Y826441D01*
X1803009Y826135D02*
X1803315Y826441D01*
X1799072Y826135D02*
X1799378Y826441D01*
X1801040Y823906D02*
Y826135D01*
X1803009Y823668D02*
Y826135D01*
X1735504Y875877D02*
Y917000D01*
Y875877D02*
X1790805Y820576D01*
X1797710D01*
X1801040Y823906D01*
X1798356Y819016D02*
X1803009Y823668D01*
X1731567Y877608D02*
Y917000D01*
X1723693Y878864D02*
Y917000D01*
X1806946Y823193D02*
Y826135D01*
X1725662Y879101D02*
Y917000D01*
X1729599Y877371D02*
Y917000D01*
X1799002Y817456D02*
X1804977Y823431D01*
Y826135D01*
X1805283Y826441D01*
X1809220Y823262D02*
Y826441D01*
X1440000Y821937D02*
X1445819D01*
X1630000Y1280000D02*
X1644330Y1265670D01*
X1642770Y1254162D02*
Y1257230D01*
X1630000Y1270000D02*
X1642770Y1257230D01*
X1695779Y1155000D02*
Y1184221D01*
X1697748Y1155000D02*
Y1192252D01*
X1630000Y1260000D02*
X1697748Y1192252D01*
X1630000Y1250000D02*
X1695779Y1184221D01*
X1691842Y1155000D02*
Y1178158D01*
X1630000Y1240000D02*
X1691842Y1178158D01*
X1689874Y1155000D02*
Y1170126D01*
X1630000Y1230000D02*
X1689874Y1170126D01*
X1685937Y1155000D02*
Y1164063D01*
X1630000Y1220000D02*
X1685937Y1164063D01*
X1683761Y1155208D02*
X1683968Y1155000D01*
X1683761Y1155208D02*
Y1158879D01*
X1682729Y1159910D02*
X1683761Y1158879D01*
X1680090Y1159910D02*
X1682729D01*
X1630000Y1210000D02*
X1680090Y1159910D01*
X1642770Y1254162D02*
X1701685Y1195247D01*
Y1155000D02*
Y1195247D01*
X1705622Y1155000D02*
Y1205622D01*
X1710000Y1210000D01*
X1713496Y1155000D02*
Y1203253D01*
X1717270Y1155163D02*
X1717433Y1155000D01*
X2056517Y817652D02*
X2070000Y804170D01*
Y800000D02*
Y804170D01*
X2058077Y826092D02*
X2070000Y814170D01*
Y810000D02*
Y814170D01*
X1841122Y1052661D02*
X1866392Y1027392D01*
X2059637Y834532D02*
X2070000Y824170D01*
Y820000D02*
Y824170D01*
X2061197Y842972D02*
X2070000Y834170D01*
Y830000D02*
Y834170D01*
X2062757Y851412D02*
X2070000Y844170D01*
Y840000D02*
Y844170D01*
X2065877Y868292D02*
X2070000Y864170D01*
Y860000D02*
Y864170D01*
X2064317Y859852D02*
X2070000Y854170D01*
Y850000D02*
Y854170D01*
Y870000D02*
Y1020000D01*
X1873892Y1035938D02*
X1874549D01*
X1874744Y1035744D01*
X2049844D02*
X2064317Y1021270D01*
Y859852D02*
Y1021270D01*
X2049198Y1034184D02*
X2062757Y1020624D01*
X2049608Y1031568D02*
X2061197Y1019978D01*
X2062757Y851412D02*
Y1020624D01*
X2061197Y842972D02*
Y1019978D01*
X2058077Y826092D02*
Y1018686D01*
X2056517Y817652D02*
Y1018040D01*
X1772000Y1077252D02*
X1772208Y1077044D01*
X1365094Y1103150D02*
Y1109622D01*
X1394228Y1103472D02*
Y1109622D01*
X1365094Y1154898D02*
Y1160850D01*
X1394228Y1154898D02*
Y1160528D01*
Y1113559D02*
X1394288Y1113499D01*
X1428499D02*
X1428559Y1113559D01*
X1431834Y1120166D02*
X1432000Y1120000D01*
X1431928Y1126072D02*
X1432000Y1126000D01*
X1430894Y1134670D02*
X1434670D01*
X1394228Y1150961D02*
X1430961D01*
X1432000Y1152000D01*
X1434670Y1134670D02*
X1435000Y1135000D01*
X1430365Y771138D02*
X1433000Y773773D01*
X1786000Y1048000D02*
X1787000Y1047000D01*
X1422283Y768000D02*
Y773000D01*
Y773717D01*
X1826000Y1090063D02*
X1841937D01*
X1826000Y1092031D02*
X1838188D01*
X1900000Y1089000D02*
Y1107244D01*
Y1080000D02*
Y1089000D01*
X1920000Y1095000D02*
Y1107244D01*
Y1080000D02*
X1924944Y1084944D01*
X2060000Y1160000D02*
Y1187244D01*
X2040000Y1160000D02*
Y1187244D01*
X2035830Y1158273D02*
X2038273Y1155830D01*
X2041727D01*
X2044170Y1158273D01*
X2055830Y1164170D02*
X2060000Y1160000D01*
X2044170Y1158273D02*
Y1160067D01*
X2048273Y1164170D01*
X2055830D01*
X2031000Y1164880D02*
X2035830Y1160050D01*
Y1158273D02*
Y1160050D01*
X1990000Y1160000D02*
Y1187244D01*
X1985830Y1156515D02*
X1986515Y1155830D01*
X1993485D01*
X1994170Y1156515D01*
X1970000Y1160000D02*
X1974170Y1164170D01*
X1994170Y1156515D02*
Y1160170D01*
X1999000Y1165000D01*
X1974170Y1164170D02*
X1981727D01*
X1985830Y1160067D01*
Y1156515D02*
Y1160067D01*
X1970000Y1160000D02*
Y1187244D01*
Y1107244D02*
X1975756D01*
X1984244D02*
X1990000D01*
X1944000Y1105000D02*
X1950360D01*
X1953030Y1102330D01*
X1944000Y1101000D02*
X1944230Y1100770D01*
X2040000Y1095000D02*
Y1107244D01*
X2038894Y1092330D02*
X2059670D01*
X2028894Y1102330D02*
X2038894Y1092330D01*
X2060000Y1080000D02*
Y1107244D01*
X1953030Y1102330D02*
X2028894D01*
X1944230Y1100770D02*
X2019230D01*
X2040000Y1080000D01*
X1310000Y1172000D02*
X1462000D01*
X1310000Y1179560D02*
X1462000D01*
X1310000Y1183340D02*
X1462000D01*
X1292000Y1157244D02*
X1294942Y1160186D01*
Y1160718D01*
X1310224Y1176000D01*
X1462000D01*
X1274123Y1164123D02*
X1285121D01*
X1292000Y1157244D01*
X1394228Y1117496D02*
X1428504D01*
X1431670Y1139670D02*
X1432000Y1140000D01*
X1427894Y1139670D02*
X1431670D01*
X1427374Y1139150D02*
X1427894Y1139670D01*
X1431670Y1145670D02*
X1432000Y1146000D01*
X1431977Y1131977D02*
X1432000Y1132000D01*
X1434670Y1148670D02*
X1435000Y1149000D01*
X1394228Y1147024D02*
X1394434Y1147230D01*
X1430894Y1148670D02*
X1434670D01*
X1429454Y1147230D02*
X1430894Y1148670D01*
X1427894Y1145670D02*
X1431670D01*
X1427279Y1145055D02*
X1427894Y1145670D01*
X1394228Y1141118D02*
X1394339Y1141230D01*
X1427230D02*
X1429000Y1143000D01*
X1427213Y1135213D02*
X1429000Y1137000D01*
X1394434Y1147230D02*
X1429454D01*
X1394228Y1145055D02*
X1427279D01*
X1394339Y1141230D02*
X1427230D01*
X1394228Y1139150D02*
X1427374D01*
X1394228Y1135213D02*
X1427213D01*
X1394228Y1129307D02*
X1428693D01*
X1394228Y1123402D02*
X1428598D01*
X1613134Y1063969D02*
X1633969D01*
X1613134Y1065937D02*
X1631937D01*
X1613134Y1069874D02*
X1635865D01*
X1613134Y1071843D02*
X1635865D01*
X1622852Y1008354D02*
X1641291D01*
X1624583Y1004417D02*
X1641291D01*
X1613134Y1009653D02*
X1619347D01*
X1624583Y1004417D01*
X1613134Y1011622D02*
X1619584D01*
X1622852Y1008354D01*
X1636361Y1002449D02*
X1641291D01*
X1613134Y1007685D02*
X1618315D01*
X1636123Y1000480D02*
X1641291D01*
X1635483Y1001120D02*
X1636123Y1000480D01*
X1636130Y1002680D02*
X1636361Y1002449D01*
X1618315Y1007685D02*
X1623320Y1002680D01*
X1636130D01*
X1613134Y1003748D02*
X1618458D01*
X1621086Y1001120D01*
X1635483D01*
X1613134Y1001779D02*
X1618221D01*
X1620440Y999560D01*
X1634837D01*
X1713536Y963302D02*
X1725662Y951176D01*
Y946134D02*
Y951176D01*
X1731252Y964644D02*
X1743378Y952518D01*
X1731567Y946134D02*
Y953774D01*
X1721410Y963931D02*
X1731567Y953774D01*
X1719441Y959962D02*
X1729599Y949805D01*
Y946134D02*
Y949805D01*
X1826000Y1086126D02*
X1840000D01*
X1826000Y1084157D02*
X1838189D01*
X1772000Y984732D02*
X1778238D01*
X1772000Y982764D02*
X1778000D01*
X1788784Y955000D02*
X1797244D01*
X1778000Y982764D02*
X1786000Y974764D01*
X1778238Y984732D02*
X1788784Y974186D01*
Y955000D02*
Y974186D01*
X1792000Y962000D02*
X1797244D01*
X1783000D02*
X1786000D01*
Y974764D01*
X1416260Y996606D02*
Y1002260D01*
X1418000Y1004000D01*
X1415874Y996441D02*
Y999874D01*
X1583991Y1087600D02*
X1584000Y1087591D01*
X1576564Y1087600D02*
X1583991D01*
X1576037Y1088127D02*
X1576564Y1087600D01*
X1576336Y1085622D02*
X1584000D01*
X1575391Y1086567D02*
X1576336Y1085622D01*
X1482015Y996441D02*
Y1036871D01*
X1531712Y1086567D02*
X1575391D01*
X1475716Y996441D02*
Y1032778D01*
X1531065Y1088127D02*
X1576037D01*
X1532260Y1091528D02*
X1584000D01*
X1532022Y1093496D02*
X1584000D01*
X1450519Y996441D02*
Y1014199D01*
X1533753Y1097433D02*
X1584000D01*
X1533515Y1099402D02*
X1584000D01*
X1434771Y996992D02*
Y1002864D01*
X1535246Y1103339D02*
X1584000D01*
X1424000Y1007457D02*
Y1009244D01*
X1428472Y996441D02*
Y998771D01*
X1432402Y1003000D02*
X1432701D01*
X1459968Y996441D02*
Y1021442D01*
X1417000Y1007244D02*
Y1009244D01*
X1422173Y996441D02*
Y1005630D01*
X1424000Y1007457D01*
X1412724Y996441D02*
Y1002968D01*
X1417000Y1007244D01*
X1360000Y1116003D02*
Y1117496D01*
X1365094D01*
X1359762Y1119465D02*
X1365094D01*
X1360000Y1121909D02*
Y1123402D01*
X1365094D01*
X1359762Y1125370D02*
X1365094D01*
X1360000Y1129307D02*
X1365094D01*
X1360000Y1127814D02*
Y1129307D01*
X1359762Y1131276D02*
X1365094D01*
X1473894Y962330D02*
X1475221D01*
X1360000Y1143562D02*
Y1145055D01*
X1365094D01*
X1359762Y1147024D02*
X1365094D01*
X1360000Y1149468D02*
Y1150961D01*
X1365094D01*
X1359762Y1152929D02*
X1365094D01*
X1359762Y1141118D02*
X1365094D01*
X1359525Y1133244D02*
X1365094D01*
X1475221Y962330D02*
X1485551Y952000D01*
Y947000D02*
Y952000D01*
X1762244Y1045756D02*
X1772000D01*
X1777139Y1059328D02*
X1779868Y1056598D01*
X1796866D01*
X1777724Y1047724D02*
X1780013Y1045436D01*
X1783436D01*
X1786000Y1048000D01*
X1778137Y1052661D02*
X1796866D01*
X1779085Y1050776D02*
X1796783D01*
X1791455Y1043787D02*
X1795185Y1040058D01*
X1844560D01*
X1791218Y1041819D02*
X1794538Y1038498D01*
X1843914D01*
X1790980Y1039850D02*
X1793892Y1036938D01*
X1843268D01*
X1790743Y1037882D02*
X1793246Y1035378D01*
X1772000Y1043787D02*
X1791455D01*
X1772000Y1041819D02*
X1791218D01*
X1772000Y1039850D02*
X1790980D01*
X1772000Y1031976D02*
X1779041D01*
X1779791Y1031227D01*
X1782227D01*
X1785000Y1034000D01*
X1772000Y1037882D02*
X1790743D01*
X1707000Y960000D02*
Y969000D01*
X1584000Y1058756D02*
Y1062000D01*
X1582244Y1057000D02*
X1584000Y1058756D01*
X1597330Y1057670D02*
X1600106D01*
X1593000Y1062000D02*
X1597330Y1057670D01*
X1584000Y1062000D02*
X1593000D01*
X1727275Y1125866D02*
X1732622D01*
X1733000Y1126244D01*
X1677134Y1121000D02*
X1682000Y1125866D01*
X1676000Y1121000D02*
X1677134D01*
X1588618Y1117373D02*
X1618851D01*
X1584244Y1113000D02*
X1588618Y1117373D01*
X1584244Y1107520D02*
Y1113000D01*
X1584000Y1107276D02*
X1584244Y1107520D01*
X1745032Y963846D02*
Y964644D01*
X1743063Y963609D02*
Y969575D01*
X1741095Y963371D02*
Y964644D01*
Y963371D02*
X1747315Y957150D01*
Y946134D02*
Y957150D01*
X1743063Y963609D02*
X1751252Y955420D01*
Y946134D02*
Y955420D01*
X1745032Y963846D02*
X1753221Y955657D01*
Y946134D02*
Y955657D01*
X1788784Y893216D02*
Y955000D01*
X1826136Y1074179D02*
X1860179D01*
X1838894Y1075739D02*
X1858739D01*
X1860179Y1074179D02*
X1865000Y1079000D01*
X1863000Y1161000D02*
X1884000Y1182000D01*
X1858739Y1075739D02*
X1863000Y1080000D01*
Y1161000D01*
X1865000Y1079000D02*
Y1160000D01*
X1670307Y1121551D02*
X1676000Y1127244D01*
X1670307Y1109693D02*
Y1121551D01*
X1645026Y1108013D02*
X1649950D01*
X1652512Y1105452D01*
Y1100283D02*
Y1105452D01*
X1644380Y1109573D02*
X1650596D01*
X1654480Y1105689D01*
Y1100283D02*
Y1105689D01*
X1643734Y1111133D02*
X1651243D01*
X1656449Y1105927D01*
Y1100283D02*
Y1105927D01*
X1643088Y1112693D02*
X1651889D01*
X1658417Y1106165D01*
Y1100283D02*
Y1106165D01*
X1652535Y1114253D02*
X1660386Y1106402D01*
X1653187Y1115813D02*
X1662354Y1106646D01*
X1654627Y1117373D02*
X1664323Y1107677D01*
X1621121Y1012291D02*
X1641291D01*
X1613134Y1013590D02*
X1619777D01*
X1620057Y1013310D01*
X1620102D01*
X1621121Y1012291D01*
X1622939Y1014030D02*
X1630716D01*
X1634882Y1018197D01*
X1641291D01*
X1634645Y1020165D02*
X1641291D01*
X1630069Y1015590D02*
X1634645Y1020165D01*
X1613134Y1019496D02*
X1619679D01*
X1623585Y1015590D01*
X1630069D01*
X1619441Y1017527D02*
X1622939Y1014030D01*
X1613134Y1017527D02*
X1619441D01*
X1432701Y1003000D02*
X1535008Y1105307D01*
X1434771Y1002864D02*
X1535246Y1103339D01*
X1450519Y1014199D02*
X1533753Y1097433D01*
X1459968Y1021442D02*
X1532022Y1093496D01*
X1475716Y1032778D02*
X1531065Y1088127D01*
X1482015Y1036871D02*
X1531712Y1086567D01*
X1394228Y1133244D02*
X1426647D01*
X1426940Y1133537D01*
X1429761D01*
X1430894Y1134670D01*
X1394228Y1131276D02*
X1426885D01*
X1427587Y1131977D01*
X1431977D01*
X1394228Y1125370D02*
X1426791D01*
X1427492Y1126072D01*
X1431928D01*
X1394288Y1113499D02*
X1428499D01*
X1394228Y1119465D02*
X1426696D01*
X1427398Y1120166D01*
X1431834D01*
X1394228Y1111591D02*
X1425409D01*
X1427000Y1110000D01*
X1430803D01*
X1406425Y946614D02*
X1406811Y947000D01*
X1403275Y946614D02*
X1403661Y947000D01*
X1400125Y946614D02*
X1400512Y947000D01*
X1409574Y946614D02*
X1409961Y947000D01*
X1482401Y942000D02*
Y947000D01*
X1484552Y942000D02*
X1484659Y941893D01*
X1482401Y942000D02*
X1484552D01*
X1508893Y941893D02*
X1513000Y946000D01*
X1484659Y941893D02*
X1508893D01*
X1476102Y941898D02*
Y947000D01*
X1466654Y942000D02*
Y947000D01*
X1460354Y942000D02*
Y947000D01*
Y942000D02*
X1465141Y937213D01*
X1466654Y942000D02*
X1469880Y938773D01*
X1457597Y935309D02*
X1523691D01*
X1450906Y942000D02*
X1457597Y935309D01*
X1450906Y942000D02*
Y947000D01*
X1453971Y932636D02*
X1526364D01*
X1444606Y942000D02*
X1453971Y932636D01*
X1444606Y942000D02*
Y947000D01*
X1443568Y927290D02*
X1531710D01*
X1428858Y942000D02*
X1443568Y927290D01*
X1428858Y942000D02*
Y947000D01*
X1418554Y824520D02*
X1431590Y837556D01*
X1418554Y822145D02*
Y824520D01*
X1464634Y825772D02*
X1493140D01*
X1498139Y830770D01*
X1452851Y837556D02*
X1464634Y825772D01*
X1431590Y837556D02*
X1452851D01*
X1498000Y836956D02*
Y920875D01*
X1498125Y921000D01*
X1498000Y836956D02*
X1498347Y836610D01*
X1498139Y830770D02*
Y833383D01*
X1498347Y833591D01*
Y836610D01*
X1513000Y946000D02*
X1526278Y959278D01*
X1507080Y978477D02*
X1526278Y959278D01*
X1507080Y1059729D02*
X1532358Y1085007D01*
X1507080Y978477D02*
Y1059729D01*
X1576098Y1083654D02*
X1584000D01*
X1532358Y1085007D02*
X1574744D01*
X1576098Y1083654D01*
X1420523Y824282D02*
X1432237Y835996D01*
X1420523Y822145D02*
Y824282D01*
X1463988Y824212D02*
X1493787D01*
X1500107Y830533D01*
X1452205Y835996D02*
X1463988Y824212D01*
X1500107Y830533D02*
Y833383D01*
X1432237Y835996D02*
X1452205D01*
X1500107Y833383D02*
X1500315Y833591D01*
X1499560Y837602D02*
Y908797D01*
Y837602D02*
X1500315Y836847D01*
X1499560Y908797D02*
X1501905Y911142D01*
X1500315Y833591D02*
Y836847D01*
X1501905Y911142D02*
Y921000D01*
X1515673Y943327D02*
X1527838Y955493D01*
X1508640Y979123D02*
X1527838Y959925D01*
Y955493D02*
Y959925D01*
X1508640Y1059083D02*
X1533004Y1083447D01*
X1508640Y979123D02*
Y1059083D01*
X1575860Y1081685D02*
X1584000D01*
X1533004Y1083447D02*
X1574098D01*
X1575860Y1081685D01*
X1422491Y824044D02*
X1432883Y834436D01*
X1422491Y822145D02*
Y824044D01*
X1463342Y822652D02*
X1494433D01*
X1502076Y830295D01*
X1451558Y834436D02*
X1463342Y822652D01*
X1502076Y830295D02*
Y833383D01*
X1432883Y834436D02*
X1451558D01*
X1502076Y833383D02*
X1502284Y833591D01*
X1501120Y838249D02*
Y908151D01*
Y838249D02*
X1502284Y837085D01*
X1501120Y908151D02*
X1505685Y912716D01*
X1502284Y833591D02*
Y837085D01*
X1505685Y912716D02*
Y921000D01*
X1518346Y940654D02*
X1529398Y951707D01*
X1510200Y979769D02*
X1529398Y960571D01*
Y951707D02*
Y960571D01*
X1510200Y1058437D02*
X1533650Y1081887D01*
X1510200Y979769D02*
Y1058437D01*
X1577591Y1077748D02*
X1584000D01*
X1533650Y1081887D02*
X1573452D01*
X1577591Y1077748D01*
X1426428Y822145D02*
Y824995D01*
X1434309Y832876D01*
X1450912D02*
X1462696Y821092D01*
X1501868D01*
X1506922Y826146D01*
X1506221Y829059D02*
X1506922Y828358D01*
Y826146D02*
Y828358D01*
X1434309Y832876D02*
X1450912D01*
X1506221Y833591D02*
Y835490D01*
X1502680Y839030D02*
Y907505D01*
X1506221Y829059D02*
Y833591D01*
X1502680Y839030D02*
X1506221Y835490D01*
X1502680Y907505D02*
X1509465Y914290D01*
Y921000D01*
X1521019Y937981D02*
X1530958Y947921D01*
Y961217D01*
X1511760Y980415D02*
Y1057791D01*
Y980415D02*
X1530958Y961217D01*
X1577353Y1075780D02*
X1584000D01*
X1511760Y1057791D02*
X1534296Y1080327D01*
X1572806D02*
X1577353Y1075780D01*
X1534296Y1080327D02*
X1572806D01*
X1428189Y821937D02*
X1428397Y822145D01*
Y824757D02*
X1434955Y831316D01*
X1428397Y822145D02*
Y824757D01*
X1462049Y819532D02*
X1502514D01*
X1508482Y825500D01*
X1450266Y831316D02*
X1462049Y819532D01*
X1508189Y829297D02*
X1508482Y829004D01*
X1434955Y831316D02*
X1450266D01*
X1508189Y833591D02*
Y835728D01*
X1504240Y839677D02*
Y906859D01*
X1508189Y829297D02*
Y833591D01*
X1504240Y839677D02*
X1508189Y835728D01*
X1504240Y906859D02*
X1513245Y915864D01*
X1508482Y825500D02*
Y829004D01*
X1513245Y915864D02*
Y921000D01*
X1523691Y935309D02*
X1532518Y944135D01*
Y961863D01*
X1513320Y981061D02*
Y1057145D01*
Y981061D02*
X1532518Y961863D01*
X1579084Y1071843D02*
X1584000D01*
X1513320Y1057145D02*
X1534943Y1078767D01*
X1572160D02*
X1579084Y1071843D01*
X1534943Y1078767D02*
X1572160D01*
X1430365Y822145D02*
Y824520D01*
X1435601Y829756D01*
X1449620D01*
X1461403Y817972D02*
X1503160D01*
X1510042Y824854D01*
X1449620Y829756D02*
X1461403Y817972D01*
X1510042Y824854D02*
Y833475D01*
X1505800Y840323D02*
X1510158Y835965D01*
Y833591D02*
Y835965D01*
X1505800Y840323D02*
Y906212D01*
X1510042Y833475D02*
X1510158Y833591D01*
X1505800Y906212D02*
X1517025Y917437D01*
X1514880Y981708D02*
Y1056499D01*
X1517025Y917437D02*
Y921000D01*
X1526364Y932636D02*
X1534078Y940350D01*
X1514880Y981708D02*
X1534078Y962509D01*
Y940350D02*
Y962509D01*
X1578847Y1069874D02*
X1584000D01*
X1514880Y1056499D02*
X1535589Y1077207D01*
X1571513D02*
X1578847Y1069874D01*
X1535589Y1077207D02*
X1571513D01*
X1432334Y822145D02*
Y824282D01*
X1436248Y828196D01*
X1448974D01*
X1460757Y816412D02*
X1503806D01*
X1511602Y824207D01*
X1448974Y828196D02*
X1460757Y816412D01*
X1511602Y824207D02*
Y828602D01*
X1511918Y828918D01*
Y833383D01*
X1512126Y833591D02*
Y836203D01*
X1507360Y840969D02*
Y905566D01*
X1511918Y833383D02*
X1512126Y833591D01*
X1507360Y840969D02*
X1512126Y836203D01*
X1507360Y905566D02*
X1520805Y919011D01*
Y921000D01*
X1529037Y929963D02*
X1535638Y936564D01*
Y963155D01*
X1516440Y982354D02*
Y1055852D01*
Y982354D02*
X1535638Y963155D01*
X1516440Y1055852D02*
X1536235Y1075647D01*
X1570867D01*
X1580329Y1065937D02*
X1584000D01*
X1570867Y1075647D02*
X1572695Y1073820D01*
Y1073571D02*
X1580329Y1065937D01*
X1572695Y1073571D02*
Y1073820D01*
X1434302Y822145D02*
Y824044D01*
X1436894Y826636D01*
X1448328D01*
X1460111Y814852D02*
X1504852D01*
X1514095Y824095D01*
X1448328Y826636D02*
X1460111Y814852D01*
X1514095Y824095D02*
Y833591D01*
X1509000Y841535D02*
X1514095Y836440D01*
Y833591D02*
Y836440D01*
X1509000Y841535D02*
Y905000D01*
X1524585Y920585D01*
X1518000Y983000D02*
Y1055206D01*
X1524585Y920585D02*
Y921000D01*
X1531710Y927290D02*
X1537198Y932778D01*
X1518000Y983000D02*
X1537198Y963802D01*
Y932778D02*
Y963802D01*
X1518000Y1055206D02*
X1536881Y1074087D01*
X1570221D01*
X1580091Y1063969D02*
X1584000D01*
X1570221Y1074087D02*
X1571135Y1073173D01*
Y1072925D02*
X1580091Y1063969D01*
X1571135Y1072925D02*
Y1073173D01*
X1476102Y941898D02*
X1477667Y940333D01*
X1520981Y937981D02*
X1521019D01*
X1477667Y940333D02*
X1512679D01*
X1515673Y943327D01*
X1469880Y938773D02*
X1516464D01*
X1518346Y940654D01*
X1465141Y937213D02*
X1520250D01*
X1520232Y937232D02*
X1520981Y937981D01*
X1463504Y992000D02*
Y996606D01*
X1448264Y976760D02*
X1463504Y992000D01*
X1469803D02*
Y996606D01*
X1453003Y975200D02*
X1469803Y992000D01*
X1479252D02*
Y996606D01*
X1460892Y973640D02*
X1479252Y992000D01*
X1485551D02*
Y996606D01*
X1465631Y972080D02*
X1485551Y992000D01*
X1465704Y970520D02*
X1473894Y962330D01*
X1463504Y947000D02*
Y952000D01*
X1449664Y965840D02*
X1463504Y952000D01*
X1454055Y947000D02*
Y952000D01*
X1441775Y964280D02*
X1454055Y952000D01*
X1447756Y947000D02*
Y952000D01*
X1355320Y1115023D02*
X1359762Y1119465D01*
X1353760Y1115669D02*
X1360000Y1121909D01*
X1352200Y1117808D02*
X1359762Y1125370D01*
X1350640Y1118454D02*
X1360000Y1127814D01*
X1349080Y1120594D02*
X1359762Y1131276D01*
X1347520Y1121240D02*
X1359525Y1133244D01*
X1342840Y1124196D02*
X1359762Y1141118D01*
X1341280Y1124842D02*
X1360000Y1143562D01*
X1339720Y1126982D02*
X1359762Y1147024D01*
X1360000Y1139150D02*
X1365094D01*
X1360000Y1138132D02*
Y1139150D01*
X1338160Y1127628D02*
X1360000Y1149468D01*
X1336600Y1129767D02*
X1359762Y1152929D01*
X1359287Y1135213D02*
X1365094D01*
X1345960Y1121886D02*
X1359287Y1135213D01*
X1344400Y1122532D02*
X1360000Y1138132D01*
X1336600Y1052126D02*
Y1129767D01*
X1356880Y1112883D02*
X1360000Y1116003D01*
X1359762Y1113559D02*
X1365094D01*
X1358440Y1112237D02*
X1359762Y1113559D01*
X1360000Y1111591D02*
X1365094D01*
X1356880Y1060526D02*
Y1112883D01*
X1355320Y1059880D02*
Y1115023D01*
X1353760Y1059234D02*
Y1115669D01*
X1352200Y1058587D02*
Y1117808D01*
X1345960Y1056003D02*
Y1121886D01*
X1344400Y1055357D02*
Y1122532D01*
X1342840Y1054710D02*
Y1124196D01*
X1341280Y1054064D02*
Y1124842D01*
X1339720Y1053418D02*
Y1126982D01*
X1338160Y1052772D02*
Y1127628D01*
X1360000Y1061818D02*
Y1111591D01*
X1358440Y1061172D02*
Y1112237D01*
X1350640Y1057941D02*
Y1118454D01*
X1349080Y1057295D02*
Y1120594D01*
X1347520Y1056649D02*
Y1121240D01*
X1336600Y1052126D02*
X1346170Y1042556D01*
X1338160Y1052772D02*
X1347730Y1043202D01*
X1339720Y1053418D02*
X1349290Y1043848D01*
X1341280Y1054064D02*
X1350850Y1044494D01*
X1342840Y1054710D02*
X1352410Y1045140D01*
X1344400Y1055357D02*
X1353970Y1045787D01*
X1379854Y989939D02*
X1403807D01*
X1374440Y995354D02*
Y1075220D01*
Y995354D02*
X1379854Y989939D01*
X1403807D02*
X1405868Y992000D01*
X1406811D01*
Y996606D01*
X1374440Y1075220D02*
X1377220Y1078000D01*
X1420000Y1060220D02*
X1441673Y1038547D01*
X1530000Y1014220D02*
X1533566D01*
X1545673Y1026327D01*
X1441673Y1027673D02*
Y1038547D01*
X1379208Y988379D02*
X1405396D01*
X1372880Y994708D02*
Y1077440D01*
Y994708D02*
X1379208Y988379D01*
X1405396D02*
X1409017Y992000D01*
X1409961D01*
Y996606D01*
X1372880Y1077440D02*
X1373440Y1078000D01*
X1420000Y1056440D02*
X1439000Y1037440D01*
X1530000Y1010440D02*
X1535131D01*
X1548346Y1023654D01*
X1439000Y1025000D02*
Y1037440D01*
X1380501Y991499D02*
X1401404D01*
X1376000Y996000D02*
Y1073000D01*
Y996000D02*
X1380501Y991499D01*
X1401404D02*
X1401905Y992000D01*
X1403661D01*
Y996606D01*
X1376000Y1073000D02*
X1381000Y1078000D01*
X1420000Y1064000D02*
X1444346Y1039654D01*
X1530000Y1018000D02*
X1532000D01*
X1543000Y1029000D01*
X1444346Y1030346D02*
Y1039654D01*
X1563000Y1023433D02*
X1584000D01*
X1563000Y1029338D02*
X1584000D01*
X1560000Y1026780D02*
X1578220D01*
X1579599Y1025401D01*
X1584000D01*
X1422559Y943441D02*
X1440000Y926000D01*
X1422559Y943441D02*
Y947000D01*
X1419409D02*
X1422559D01*
X1439410Y921000D02*
X1440000D01*
X1416260Y944150D02*
X1439410Y921000D01*
X1447195Y929963D02*
X1529037D01*
X1435157Y942000D02*
Y947000D01*
Y942000D02*
X1447195Y929963D01*
X1462816Y968960D02*
X1479252Y952524D01*
Y947000D02*
Y952524D01*
X1469803Y947000D02*
Y952000D01*
X1454403Y967400D02*
X1469803Y952000D01*
X1466267Y1025535D02*
X1532260Y1091528D01*
X1466267Y996441D02*
Y1025535D01*
X1444220Y1010106D02*
X1533515Y1099402D01*
X1444220Y996441D02*
Y1010106D01*
X1447756Y992000D02*
Y996606D01*
X1435636Y979880D02*
X1447756Y992000D01*
X1427747Y981440D02*
X1438307Y992000D01*
Y996606D01*
X1423008Y983000D02*
X1432008Y992000D01*
Y996606D01*
X1428858Y999456D02*
X1432402Y1003000D01*
X1439320Y978320D02*
X1454055Y993055D01*
X1437036Y962720D02*
X1447756Y952000D01*
X1438307Y947000D02*
Y953675D01*
X1432008Y947000D02*
X1432670Y947662D01*
X1371877Y959600D02*
X1430176D01*
X1375108Y967400D02*
X1454403D01*
X1374462Y965840D02*
X1449664D01*
X1373816Y964280D02*
X1441775D01*
X1373170Y962720D02*
X1437036D01*
X1372524Y961160D02*
X1430822D01*
X1438307Y953675D01*
X1430176Y959600D02*
X1432670Y957106D01*
Y947662D02*
Y957106D01*
X1549496Y1069504D02*
Y1070000D01*
Y1069504D02*
X1551016Y1067984D01*
X1570496Y1019496D02*
X1584000D01*
X1557000Y1000000D02*
Y1006000D01*
X1570496Y1019496D01*
X1552750Y1069317D02*
X1553433Y1070000D01*
X1593780Y854000D02*
X1596000D01*
X1552750Y895030D02*
Y1069317D01*
X1551016Y894558D02*
Y1067984D01*
Y894558D02*
X1596287Y849287D01*
X1552750Y895030D02*
X1593780Y854000D01*
X1564000Y906000D02*
Y992000D01*
Y906000D02*
X1607670Y862330D01*
Y844957D02*
Y862330D01*
X1900000Y1089000D02*
X1944000D01*
X1786000Y896000D02*
Y962000D01*
X1767000Y1120000D02*
Y1126000D01*
X1764244D02*
X1767000D01*
X1764000Y1126244D02*
X1764244Y1126000D01*
X1764000Y1126244D02*
X1771000D01*
X1772000Y1120000D02*
X1777244D01*
X1740244Y1126000D02*
X1756000D01*
X1762000Y1120000D01*
X1283074Y1202756D02*
X1292000D01*
X1281708Y1204123D02*
X1283074Y1202756D01*
X1274123Y1204123D02*
X1281708D01*
X1270000Y1200000D02*
X1274123Y1204123D01*
X1811000Y1148000D02*
Y1160000D01*
X1819213D01*
X1823543Y1164331D01*
X1820831Y1190000D02*
X1825000D01*
X1816708Y1194123D02*
X1820831Y1190000D01*
X1812877Y1194123D02*
X1816708D01*
X1811000Y1160000D02*
Y1186000D01*
X1815000Y1190000D01*
X1809000Y1190246D02*
X1812877Y1194123D01*
X1809000Y1150000D02*
Y1190246D01*
X1794000Y1131000D02*
X1811000Y1148000D01*
X1791330Y1132330D02*
X1809000Y1150000D01*
X1791330Y1129894D02*
Y1132330D01*
Y1129894D02*
X1794224Y1127000D01*
X1798000D01*
D31*
X1532000Y1119000D02*
X1542000Y1109000D01*
X1480000Y1102756D02*
X1496244Y1119000D01*
X1599756Y1113000D02*
X1606244D01*
X1496244Y1119000D02*
X1532000D01*
D39*
X1330709Y985433D02*
D03*
Y925197D02*
D03*
Y1045276D02*
D03*
X1353000Y823158D02*
D03*
D40*
X1330709Y1005118D02*
D03*
Y944882D02*
D03*
Y1064961D02*
D03*
X1353000Y842842D02*
D03*
D41*
X1355000Y775000D02*
D03*
X1385000Y805000D02*
D03*
X1325000Y745000D02*
D03*
X1875000Y1185000D02*
D03*
X1340000Y920000D02*
D03*
Y980000D02*
D03*
Y1040000D02*
D03*
Y870000D02*
D03*
D42*
X1262000Y1030000D02*
D03*
X1332000D02*
D03*
X1262000Y970000D02*
D03*
X1332000D02*
D03*
D43*
X1970000Y1080000D02*
D03*
X1980000D02*
D03*
X1990000Y1139000D02*
D03*
X1970000D02*
D03*
X1900000Y1080000D02*
D03*
X1910000D02*
D03*
X1920000Y1139000D02*
D03*
X1900000D02*
D03*
X2040000Y1160000D02*
D03*
X2050000D02*
D03*
X2060000Y1219000D02*
D03*
X2040000D02*
D03*
X1970000Y1160000D02*
D03*
X1980000D02*
D03*
X1990000Y1219000D02*
D03*
X1970000D02*
D03*
X2040000Y1080000D02*
D03*
X2050000D02*
D03*
X2060000Y1139000D02*
D03*
X2040000D02*
D03*
D44*
X2004000Y1109500D02*
D03*
X1956000D02*
D03*
X1934000D02*
D03*
X1886000D02*
D03*
X2074000Y1189500D02*
D03*
X2026000D02*
D03*
X2004000D02*
D03*
X1956000D02*
D03*
X2074000Y1109500D02*
D03*
X2026000D02*
D03*
D45*
X1990000Y1080000D02*
D03*
X1920000D02*
D03*
X2060000Y1160000D02*
D03*
X1990000D02*
D03*
X2060000Y1080000D02*
D03*
D46*
X1825000Y1190000D02*
D03*
X1815000D02*
D03*
X2038189Y1227811D02*
D03*
X1968189D02*
D03*
X1698189Y856811D02*
D03*
X1400000Y1280000D02*
D03*
Y1290000D02*
D03*
X1380000Y1280000D02*
D03*
Y1290000D02*
D03*
X1360000Y1280000D02*
D03*
Y1290000D02*
D03*
X1898189Y1147976D02*
D03*
X1618189Y856811D02*
D03*
X1538189D02*
D03*
X1458189D02*
D03*
X1378189D02*
D03*
X1860000Y790000D02*
D03*
Y800000D02*
D03*
Y810000D02*
D03*
Y820000D02*
D03*
Y830000D02*
D03*
Y840000D02*
D03*
Y850000D02*
D03*
X2070000Y811000D02*
D03*
Y821000D02*
D03*
Y831000D02*
D03*
Y841000D02*
D03*
Y851000D02*
D03*
Y861000D02*
D03*
Y871000D02*
D03*
X1710000Y1270000D02*
D03*
Y1260000D02*
D03*
Y1250000D02*
D03*
Y1240000D02*
D03*
Y1230000D02*
D03*
Y1220000D02*
D03*
Y1210000D02*
D03*
X1630000Y1270000D02*
D03*
Y1260000D02*
D03*
Y1250000D02*
D03*
Y1240000D02*
D03*
Y1230000D02*
D03*
Y1220000D02*
D03*
Y1210000D02*
D03*
X1280000Y1160000D02*
D03*
Y1170000D02*
D03*
Y1180000D02*
D03*
Y1190000D02*
D03*
Y1200000D02*
D03*
X1270000Y1160000D02*
D03*
Y1170000D02*
D03*
Y1180000D02*
D03*
Y1190000D02*
D03*
X1840000Y850000D02*
D03*
Y840000D02*
D03*
Y830000D02*
D03*
Y820000D02*
D03*
Y810000D02*
D03*
Y800000D02*
D03*
Y790000D02*
D03*
D47*
X1270000D02*
D03*
Y830000D02*
D03*
D48*
X1310000Y780000D02*
D03*
D49*
X1320000Y790000D02*
D03*
X1310000Y810000D02*
D03*
X1320000Y830000D02*
D03*
X1310000Y840000D02*
D03*
D50*
X2061811Y1227811D02*
D03*
X1991811D02*
D03*
X1965236Y970630D02*
D03*
X1980000D02*
D03*
X1994764D02*
D03*
X1895236D02*
D03*
X1910000D02*
D03*
X1924764D02*
D03*
X1721811Y856811D02*
D03*
X1921811Y1147976D02*
D03*
X1641811Y856811D02*
D03*
X1561811D02*
D03*
X1481811D02*
D03*
X1401811D02*
D03*
D51*
X2001654Y1010000D02*
D03*
X1958346D02*
D03*
X1931654D02*
D03*
X1888346D02*
D03*
D52*
X1898189Y824000D02*
D03*
X1929685D02*
D03*
X1999685D02*
D03*
X1968189D02*
D03*
D53*
X1805000Y1290000D02*
D03*
X1785000D02*
D03*
X1765000D02*
D03*
X1745000D02*
D03*
X1725000D02*
D03*
X1825000D02*
D03*
X1845000D02*
D03*
X1865000D02*
D03*
X1885000D02*
D03*
X1905000D02*
D03*
X1600000D02*
D03*
X1580000D02*
D03*
X1560000D02*
D03*
X1540000D02*
D03*
X1520000D02*
D03*
X1420000D02*
D03*
X1440000D02*
D03*
X1460000D02*
D03*
X1480000D02*
D03*
X1500000D02*
D03*
D54*
X1805000Y1280000D02*
D03*
Y1270000D02*
D03*
Y1260000D02*
D03*
Y1250000D02*
D03*
Y1240000D02*
D03*
Y1230000D02*
D03*
Y1220000D02*
D03*
Y1210000D02*
D03*
Y1200000D02*
D03*
X1815000Y1290000D02*
D03*
Y1280000D02*
D03*
Y1270000D02*
D03*
Y1260000D02*
D03*
Y1250000D02*
D03*
Y1240000D02*
D03*
Y1230000D02*
D03*
Y1220000D02*
D03*
Y1210000D02*
D03*
Y1200000D02*
D03*
X1785000Y1280000D02*
D03*
Y1270000D02*
D03*
Y1260000D02*
D03*
Y1250000D02*
D03*
Y1240000D02*
D03*
Y1230000D02*
D03*
Y1220000D02*
D03*
Y1210000D02*
D03*
Y1200000D02*
D03*
X1795000Y1290000D02*
D03*
Y1280000D02*
D03*
Y1270000D02*
D03*
Y1260000D02*
D03*
Y1250000D02*
D03*
Y1240000D02*
D03*
Y1230000D02*
D03*
Y1220000D02*
D03*
Y1210000D02*
D03*
Y1200000D02*
D03*
X1765000Y1280000D02*
D03*
Y1270000D02*
D03*
Y1260000D02*
D03*
Y1250000D02*
D03*
Y1240000D02*
D03*
Y1230000D02*
D03*
Y1220000D02*
D03*
Y1210000D02*
D03*
Y1200000D02*
D03*
X1775000Y1290000D02*
D03*
Y1280000D02*
D03*
Y1270000D02*
D03*
Y1260000D02*
D03*
Y1250000D02*
D03*
Y1240000D02*
D03*
Y1230000D02*
D03*
Y1220000D02*
D03*
Y1210000D02*
D03*
Y1200000D02*
D03*
X1745000Y1280000D02*
D03*
Y1270000D02*
D03*
Y1260000D02*
D03*
Y1250000D02*
D03*
Y1240000D02*
D03*
Y1230000D02*
D03*
Y1220000D02*
D03*
Y1210000D02*
D03*
Y1200000D02*
D03*
X1755000Y1290000D02*
D03*
Y1280000D02*
D03*
Y1270000D02*
D03*
Y1260000D02*
D03*
Y1250000D02*
D03*
Y1240000D02*
D03*
Y1230000D02*
D03*
Y1220000D02*
D03*
Y1210000D02*
D03*
Y1200000D02*
D03*
X1735000D02*
D03*
Y1210000D02*
D03*
Y1220000D02*
D03*
Y1230000D02*
D03*
Y1240000D02*
D03*
Y1250000D02*
D03*
Y1260000D02*
D03*
Y1270000D02*
D03*
Y1280000D02*
D03*
Y1290000D02*
D03*
X1725000Y1200000D02*
D03*
Y1210000D02*
D03*
Y1220000D02*
D03*
Y1230000D02*
D03*
Y1240000D02*
D03*
Y1250000D02*
D03*
Y1260000D02*
D03*
Y1270000D02*
D03*
Y1280000D02*
D03*
X1825000D02*
D03*
Y1270000D02*
D03*
Y1260000D02*
D03*
Y1250000D02*
D03*
Y1240000D02*
D03*
Y1230000D02*
D03*
Y1220000D02*
D03*
Y1210000D02*
D03*
Y1200000D02*
D03*
X1835000Y1290000D02*
D03*
Y1280000D02*
D03*
Y1270000D02*
D03*
Y1260000D02*
D03*
Y1250000D02*
D03*
Y1240000D02*
D03*
Y1230000D02*
D03*
Y1220000D02*
D03*
Y1210000D02*
D03*
Y1200000D02*
D03*
X1855000D02*
D03*
Y1210000D02*
D03*
Y1220000D02*
D03*
Y1230000D02*
D03*
Y1240000D02*
D03*
Y1250000D02*
D03*
Y1260000D02*
D03*
Y1270000D02*
D03*
Y1280000D02*
D03*
Y1290000D02*
D03*
X1845000Y1200000D02*
D03*
Y1210000D02*
D03*
Y1220000D02*
D03*
Y1230000D02*
D03*
Y1240000D02*
D03*
Y1250000D02*
D03*
Y1260000D02*
D03*
Y1270000D02*
D03*
Y1280000D02*
D03*
X1875000Y1200000D02*
D03*
Y1210000D02*
D03*
Y1220000D02*
D03*
Y1230000D02*
D03*
Y1240000D02*
D03*
Y1250000D02*
D03*
Y1260000D02*
D03*
Y1270000D02*
D03*
Y1280000D02*
D03*
Y1290000D02*
D03*
X1865000Y1200000D02*
D03*
Y1210000D02*
D03*
Y1220000D02*
D03*
Y1230000D02*
D03*
Y1240000D02*
D03*
Y1250000D02*
D03*
Y1260000D02*
D03*
Y1270000D02*
D03*
Y1280000D02*
D03*
X1895000Y1200000D02*
D03*
Y1210000D02*
D03*
Y1220000D02*
D03*
Y1230000D02*
D03*
Y1240000D02*
D03*
Y1250000D02*
D03*
Y1260000D02*
D03*
Y1270000D02*
D03*
Y1280000D02*
D03*
Y1290000D02*
D03*
X1885000Y1200000D02*
D03*
Y1210000D02*
D03*
Y1220000D02*
D03*
Y1230000D02*
D03*
Y1240000D02*
D03*
Y1250000D02*
D03*
Y1260000D02*
D03*
Y1270000D02*
D03*
Y1280000D02*
D03*
X1915000Y1200000D02*
D03*
Y1210000D02*
D03*
Y1220000D02*
D03*
Y1230000D02*
D03*
Y1240000D02*
D03*
Y1250000D02*
D03*
Y1260000D02*
D03*
Y1270000D02*
D03*
Y1280000D02*
D03*
Y1290000D02*
D03*
X1905000Y1200000D02*
D03*
Y1210000D02*
D03*
Y1220000D02*
D03*
Y1230000D02*
D03*
Y1240000D02*
D03*
Y1250000D02*
D03*
Y1260000D02*
D03*
Y1270000D02*
D03*
Y1280000D02*
D03*
X1600000D02*
D03*
Y1270000D02*
D03*
Y1260000D02*
D03*
Y1250000D02*
D03*
Y1240000D02*
D03*
Y1230000D02*
D03*
Y1220000D02*
D03*
Y1210000D02*
D03*
Y1200000D02*
D03*
X1610000Y1290000D02*
D03*
Y1280000D02*
D03*
Y1270000D02*
D03*
Y1260000D02*
D03*
Y1250000D02*
D03*
Y1240000D02*
D03*
Y1230000D02*
D03*
Y1220000D02*
D03*
Y1210000D02*
D03*
Y1200000D02*
D03*
X1580000Y1280000D02*
D03*
Y1270000D02*
D03*
Y1260000D02*
D03*
Y1250000D02*
D03*
Y1240000D02*
D03*
Y1230000D02*
D03*
Y1220000D02*
D03*
Y1210000D02*
D03*
Y1200000D02*
D03*
X1590000Y1290000D02*
D03*
Y1280000D02*
D03*
Y1270000D02*
D03*
Y1260000D02*
D03*
Y1250000D02*
D03*
Y1240000D02*
D03*
Y1230000D02*
D03*
Y1220000D02*
D03*
Y1210000D02*
D03*
Y1200000D02*
D03*
X1560000Y1280000D02*
D03*
Y1270000D02*
D03*
Y1260000D02*
D03*
Y1250000D02*
D03*
Y1240000D02*
D03*
Y1230000D02*
D03*
Y1220000D02*
D03*
Y1210000D02*
D03*
Y1200000D02*
D03*
X1570000Y1290000D02*
D03*
Y1280000D02*
D03*
Y1270000D02*
D03*
Y1260000D02*
D03*
Y1250000D02*
D03*
Y1240000D02*
D03*
Y1230000D02*
D03*
Y1220000D02*
D03*
Y1210000D02*
D03*
Y1200000D02*
D03*
X1540000Y1280000D02*
D03*
Y1270000D02*
D03*
Y1260000D02*
D03*
Y1250000D02*
D03*
Y1240000D02*
D03*
Y1230000D02*
D03*
Y1220000D02*
D03*
Y1210000D02*
D03*
Y1200000D02*
D03*
X1550000Y1290000D02*
D03*
Y1280000D02*
D03*
Y1270000D02*
D03*
Y1260000D02*
D03*
Y1250000D02*
D03*
Y1240000D02*
D03*
Y1230000D02*
D03*
Y1220000D02*
D03*
Y1210000D02*
D03*
Y1200000D02*
D03*
X1530000D02*
D03*
Y1210000D02*
D03*
Y1220000D02*
D03*
Y1230000D02*
D03*
Y1240000D02*
D03*
Y1250000D02*
D03*
Y1260000D02*
D03*
Y1270000D02*
D03*
Y1280000D02*
D03*
Y1290000D02*
D03*
X1520000Y1200000D02*
D03*
Y1210000D02*
D03*
Y1220000D02*
D03*
Y1230000D02*
D03*
Y1240000D02*
D03*
Y1250000D02*
D03*
Y1260000D02*
D03*
Y1270000D02*
D03*
Y1280000D02*
D03*
X1420000D02*
D03*
Y1270000D02*
D03*
Y1260000D02*
D03*
Y1250000D02*
D03*
Y1240000D02*
D03*
Y1230000D02*
D03*
Y1220000D02*
D03*
Y1210000D02*
D03*
Y1200000D02*
D03*
X1430000Y1290000D02*
D03*
Y1280000D02*
D03*
Y1270000D02*
D03*
Y1260000D02*
D03*
Y1250000D02*
D03*
Y1240000D02*
D03*
Y1230000D02*
D03*
Y1220000D02*
D03*
Y1210000D02*
D03*
Y1200000D02*
D03*
X1450000D02*
D03*
Y1210000D02*
D03*
Y1220000D02*
D03*
Y1230000D02*
D03*
Y1240000D02*
D03*
Y1250000D02*
D03*
Y1260000D02*
D03*
Y1270000D02*
D03*
Y1280000D02*
D03*
Y1290000D02*
D03*
X1440000Y1200000D02*
D03*
Y1210000D02*
D03*
Y1220000D02*
D03*
Y1230000D02*
D03*
Y1240000D02*
D03*
Y1250000D02*
D03*
Y1260000D02*
D03*
Y1270000D02*
D03*
Y1280000D02*
D03*
X1470000Y1200000D02*
D03*
Y1210000D02*
D03*
Y1220000D02*
D03*
Y1230000D02*
D03*
Y1240000D02*
D03*
Y1250000D02*
D03*
Y1260000D02*
D03*
Y1270000D02*
D03*
Y1280000D02*
D03*
Y1290000D02*
D03*
X1460000Y1200000D02*
D03*
Y1210000D02*
D03*
Y1220000D02*
D03*
Y1230000D02*
D03*
Y1240000D02*
D03*
Y1250000D02*
D03*
Y1260000D02*
D03*
Y1270000D02*
D03*
Y1280000D02*
D03*
X1490000Y1200000D02*
D03*
Y1210000D02*
D03*
Y1220000D02*
D03*
Y1230000D02*
D03*
Y1240000D02*
D03*
Y1250000D02*
D03*
Y1260000D02*
D03*
Y1270000D02*
D03*
Y1280000D02*
D03*
Y1290000D02*
D03*
X1480000Y1200000D02*
D03*
Y1210000D02*
D03*
Y1220000D02*
D03*
Y1230000D02*
D03*
Y1240000D02*
D03*
Y1250000D02*
D03*
Y1260000D02*
D03*
Y1270000D02*
D03*
Y1280000D02*
D03*
X1510000Y1200000D02*
D03*
Y1210000D02*
D03*
Y1220000D02*
D03*
Y1230000D02*
D03*
Y1240000D02*
D03*
Y1250000D02*
D03*
Y1260000D02*
D03*
Y1270000D02*
D03*
Y1280000D02*
D03*
Y1290000D02*
D03*
X1500000Y1200000D02*
D03*
Y1210000D02*
D03*
Y1220000D02*
D03*
Y1230000D02*
D03*
Y1240000D02*
D03*
Y1250000D02*
D03*
Y1260000D02*
D03*
Y1270000D02*
D03*
Y1280000D02*
D03*
D55*
X1400000Y1270000D02*
D03*
X1380000D02*
D03*
X1360000D02*
D03*
X1860000Y780000D02*
D03*
X2070000Y801000D02*
D03*
X1710000Y1280000D02*
D03*
X1630000D02*
D03*
X1270000Y1200000D02*
D03*
X1840000Y780000D02*
D03*
D56*
X2064500Y1276000D02*
D03*
Y745000D02*
D03*
X1277500Y1276000D02*
D03*
Y745000D02*
D03*
D57*
X1900787Y770000D02*
D03*
X1910787D02*
D03*
X1989000D02*
D03*
X1999000D02*
D03*
D58*
X1880787Y750000D02*
D03*
X1920787D02*
D03*
X1969000D02*
D03*
X2009000D02*
D03*
D59*
X1795000Y777000D02*
D03*
X1805000D02*
D03*
X1815000D02*
D03*
X1967000Y927000D02*
D03*
X1945000Y923000D02*
D03*
X1893000Y918000D02*
D03*
X1903000Y908000D02*
D03*
X1954000Y937000D02*
D03*
X1860000Y771000D02*
D03*
X1891847Y976847D02*
D03*
X1929457Y851000D02*
D03*
X1919000Y928000D02*
D03*
X1908000Y904000D02*
D03*
X1936000Y935000D02*
D03*
X1931000Y938000D02*
D03*
X1815000Y867000D02*
D03*
Y821000D02*
D03*
X1809000Y833000D02*
D03*
X1784000Y842000D02*
D03*
X1785000Y837000D02*
D03*
X1783756Y847244D02*
D03*
X1783756Y852756D02*
D03*
X1817000Y836000D02*
D03*
X1806000Y843500D02*
D03*
X1824000Y862000D02*
D03*
X1830000Y846000D02*
D03*
X1809000Y854000D02*
D03*
X1796000Y834000D02*
D03*
X1795779Y840221D02*
D03*
X1795874Y846126D02*
D03*
X1796000Y852000D02*
D03*
X1965000Y936000D02*
D03*
X1908000Y898000D02*
D03*
X1882000Y850000D02*
D03*
X1882000Y830000D02*
D03*
X1925000Y895000D02*
D03*
X1989000Y949000D02*
D03*
X1916756Y952244D02*
D03*
X1943000Y882000D02*
D03*
X1971000Y950000D02*
D03*
X1874000Y885000D02*
D03*
X1883000Y910000D02*
D03*
X1868000Y885000D02*
D03*
X1865000Y925000D02*
D03*
X1805000Y926000D02*
D03*
X1816000Y936000D02*
D03*
X1809000Y943000D02*
D03*
X1886000Y888000D02*
D03*
X1890000Y892000D02*
D03*
X1894000Y896000D02*
D03*
X1925000Y884808D02*
D03*
X1914244Y891244D02*
D03*
X1922000Y890000D02*
D03*
X1816000Y900000D02*
D03*
X1976756Y891756D02*
D03*
X1964000Y909000D02*
D03*
Y903000D02*
D03*
X1926000Y910000D02*
D03*
Y903000D02*
D03*
X1983000Y897000D02*
D03*
X1908000Y913000D02*
D03*
X1985000Y958000D02*
D03*
X1964000Y918000D02*
D03*
X1970000Y889000D02*
D03*
X1940000Y840000D02*
D03*
X1947000Y847000D02*
D03*
X1937000Y855000D02*
D03*
X1954000Y875000D02*
D03*
X1945000Y977000D02*
D03*
X1929756Y952244D02*
D03*
X1959756Y952244D02*
D03*
X1861831Y899831D02*
D03*
X1894000Y820000D02*
D03*
X1873000Y921000D02*
D03*
X1837000Y919000D02*
D03*
X1851000Y862000D02*
D03*
X1873000D02*
D03*
X1830000Y841000D02*
D03*
X1937000Y824000D02*
D03*
X2007000D02*
D03*
X1964000Y820000D02*
D03*
X1703000Y1091000D02*
D03*
X1698499Y1084501D02*
D03*
X1695819Y1091181D02*
D03*
X1700000Y1047000D02*
D03*
X1680000Y1061000D02*
D03*
X1686000Y1091000D02*
D03*
X1673000D02*
D03*
X1671000Y1083000D02*
D03*
X1667000Y1091000D02*
D03*
X1710000Y1084000D02*
D03*
X1743063Y1092063D02*
D03*
X1715000Y1092000D02*
D03*
X1710000Y1056000D02*
D03*
X1727000Y1092000D02*
D03*
X1730000Y1084000D02*
D03*
X1713000Y1051000D02*
D03*
X1753000Y1088000D02*
D03*
X1734000Y1073000D02*
D03*
X1745000Y1079000D02*
D03*
X1753000D02*
D03*
Y1070000D02*
D03*
X1745000Y1066000D02*
D03*
X1753000Y1061000D02*
D03*
X1715000Y1047000D02*
D03*
X1753000Y1049000D02*
D03*
X1762087Y1035913D02*
D03*
X1745000Y1030000D02*
D03*
X1753000Y1027000D02*
D03*
Y1020000D02*
D03*
X1745165Y1019000D02*
D03*
X1753000Y1007000D02*
D03*
X1762244Y1045756D02*
D03*
X1725000Y1035000D02*
D03*
X1715000Y1024000D02*
D03*
X1735000Y1013000D02*
D03*
X1753000Y999000D02*
D03*
Y991000D02*
D03*
X1749000Y979000D02*
D03*
X1746000Y986000D02*
D03*
X1740000Y979000D02*
D03*
X1730000Y986000D02*
D03*
X1729284Y976716D02*
D03*
X1712000Y1019000D02*
D03*
X1714000Y977000D02*
D03*
X1696680Y985680D02*
D03*
X1694000Y977000D02*
D03*
X1698000Y1017000D02*
D03*
X1684008Y976992D02*
D03*
X1677000Y977000D02*
D03*
X1674000Y986000D02*
D03*
X1657000Y977000D02*
D03*
X1666000Y1023000D02*
D03*
X1651000Y1010000D02*
D03*
Y1017000D02*
D03*
X1656000Y1018000D02*
D03*
X1670000Y1009000D02*
D03*
X1660000D02*
D03*
X1681000Y1023000D02*
D03*
X1660000Y1003000D02*
D03*
Y995683D02*
D03*
X1670000Y1000000D02*
D03*
X1685000Y1023000D02*
D03*
X1660000Y1047000D02*
D03*
Y1058000D02*
D03*
X1670000Y1050000D02*
D03*
X1660000Y1067000D02*
D03*
Y1085000D02*
D03*
Y1076000D02*
D03*
X1707000Y1053000D02*
D03*
X1600000Y902756D02*
D03*
X1605756Y924756D02*
D03*
X1475000Y787000D02*
D03*
Y799000D02*
D03*
Y865000D02*
D03*
Y875000D02*
D03*
Y965000D02*
D03*
X1392000Y996441D02*
D03*
X1488315Y988315D02*
D03*
X1472567Y1003567D02*
D03*
X1441070Y1003930D02*
D03*
X1566000Y994000D02*
D03*
X1563000Y1000000D02*
D03*
X1569000D02*
D03*
X1557000Y994000D02*
D03*
X1635000Y1120000D02*
D03*
X1633339Y1113661D02*
D03*
X1651000Y1051661D02*
D03*
X1630000Y1120000D02*
D03*
Y1110000D02*
D03*
X1640000Y956000D02*
D03*
Y964000D02*
D03*
X1504252Y827252D02*
D03*
X1506221Y765779D02*
D03*
X1504000Y793000D02*
D03*
X1426000D02*
D03*
X1428000Y773256D02*
D03*
X1308000Y1218000D02*
D03*
X1723338Y1191338D02*
D03*
X1792000Y918000D02*
D03*
X1580000Y919000D02*
D03*
X1920000Y1180000D02*
D03*
X1857000Y1030000D02*
D03*
X1860000Y989975D02*
D03*
Y993755D02*
D03*
Y997535D02*
D03*
Y1001315D02*
D03*
Y1005252D02*
D03*
Y1009032D02*
D03*
Y1012969D02*
D03*
Y1016749D02*
D03*
Y1020686D02*
D03*
Y1024466D02*
D03*
X1853019Y1021981D02*
D03*
X1850346Y1024654D02*
D03*
X1847673Y1027327D02*
D03*
X1845000Y1030000D02*
D03*
X1795000Y915000D02*
D03*
X1577440Y915440D02*
D03*
X1595000Y1031000D02*
D03*
Y1055000D02*
D03*
Y1043000D02*
D03*
X1762496Y1061504D02*
D03*
X1670307Y1109693D02*
D03*
X1703693D02*
D03*
X1542000Y1109000D02*
D03*
X1495000Y1003000D02*
D03*
X1557000Y1000000D02*
D03*
X1505130Y1114870D02*
D03*
X1490260Y1081260D02*
D03*
X1472740D02*
D03*
X1386000Y1111000D02*
D03*
X1480000Y1102756D02*
D03*
X1386000Y1154000D02*
D03*
X1410000Y1103000D02*
D03*
X1386000Y1005000D02*
D03*
Y949000D02*
D03*
X1380000Y1005000D02*
D03*
Y949000D02*
D03*
X1794000Y1131000D02*
D03*
X1798000Y1127000D02*
D03*
X1783000Y1064224D02*
D03*
X1781000Y1071000D02*
D03*
X1556000Y831000D02*
D03*
X1566000Y1006000D02*
D03*
X1513000Y752000D02*
D03*
X1428189Y764189D02*
D03*
X1520000Y910000D02*
D03*
X1577000Y1006000D02*
D03*
X1483000Y849340D02*
D03*
Y845560D02*
D03*
Y841780D02*
D03*
Y838000D02*
D03*
X1436000Y816000D02*
D03*
X1465000Y865000D02*
D03*
Y910000D02*
D03*
X1573000Y1008000D02*
D03*
X1500000Y960000D02*
D03*
X1949756Y1246244D02*
D03*
X2019756D02*
D03*
X1786000Y896000D02*
D03*
X1789000Y892000D02*
D03*
X1554000Y1070000D02*
D03*
X1549000D02*
D03*
X1960000D02*
D03*
X1930000D02*
D03*
X2015000Y1241000D02*
D03*
X2025000Y1150000D02*
D03*
X2005000D02*
D03*
X1923000Y1170165D02*
D03*
X1894874Y1174039D02*
D03*
X1262560Y1170000D02*
D03*
X1290000Y1185000D02*
D03*
X1310000Y1183340D02*
D03*
Y1179560D02*
D03*
Y1172000D02*
D03*
X1462000Y1183340D02*
D03*
Y1179560D02*
D03*
Y1175780D02*
D03*
Y1172000D02*
D03*
X1727000Y1188000D02*
D03*
X1432000Y1152000D02*
D03*
Y1146000D02*
D03*
X1435000Y1149000D02*
D03*
X1432000Y1140000D02*
D03*
X1625000Y1052220D02*
D03*
Y1044660D02*
D03*
Y1048440D02*
D03*
X1415000Y898000D02*
D03*
X1444000Y907000D02*
D03*
X1427000Y870000D02*
D03*
X1412638D02*
D03*
X1415000Y903000D02*
D03*
X1426244Y902756D02*
D03*
X1456000Y897000D02*
D03*
X1454000Y907000D02*
D03*
X1842000Y1090000D02*
D03*
X1840000Y1093843D02*
D03*
X1534000Y907000D02*
D03*
X1536000Y897000D02*
D03*
X1840000Y1086126D02*
D03*
X1614000Y907000D02*
D03*
X1615000Y897000D02*
D03*
X1842000Y1082000D02*
D03*
X1840000Y1078409D02*
D03*
X1690000Y818000D02*
D03*
X1694000Y812000D02*
D03*
X1659000Y800000D02*
D03*
X1663000Y803000D02*
D03*
X1667000Y806000D02*
D03*
X1643000Y800780D02*
D03*
Y804560D02*
D03*
Y808340D02*
D03*
Y812752D02*
D03*
Y816532D02*
D03*
Y820312D02*
D03*
Y824092D02*
D03*
Y827872D02*
D03*
Y831652D02*
D03*
Y835432D02*
D03*
Y840000D02*
D03*
Y797000D02*
D03*
X1698000Y815000D02*
D03*
X1655000Y797000D02*
D03*
X1999000Y1165000D02*
D03*
X2031000Y1164880D02*
D03*
X1943944Y1084944D02*
D03*
X1944000Y1097000D02*
D03*
Y1089000D02*
D03*
Y1093000D02*
D03*
X1440000Y921000D02*
D03*
Y926000D02*
D03*
X1569000Y1009000D02*
D03*
X1572000Y1012000D02*
D03*
X1682000Y827000D02*
D03*
X1674000Y824000D02*
D03*
X1670000Y821000D02*
D03*
X1416000Y776000D02*
D03*
X1508000Y752000D02*
D03*
X1686000Y809000D02*
D03*
X1626019Y835981D02*
D03*
X1623346Y838654D02*
D03*
X1620673Y841327D02*
D03*
X1618000Y844000D02*
D03*
X1678315Y830000D02*
D03*
X1422283Y773000D02*
D03*
X1510000Y763000D02*
D03*
X1433000Y773256D02*
D03*
X1502284Y762716D02*
D03*
X1428504Y1117496D02*
D03*
X1432000Y1126000D02*
D03*
Y1120000D02*
D03*
X1429000Y1143000D02*
D03*
X1432000Y1132000D02*
D03*
X1435000Y1135000D02*
D03*
X1595000Y895000D02*
D03*
X1599000Y1055000D02*
D03*
Y1061000D02*
D03*
X1780000Y931000D02*
D03*
X1811000Y951000D02*
D03*
X1819000Y1015000D02*
D03*
X1920000Y1095000D02*
D03*
X1944000Y1105000D02*
D03*
X2015000Y1190000D02*
D03*
X2078658Y1217658D02*
D03*
X1975756Y1107244D02*
D03*
X1984244D02*
D03*
X2040000Y1095000D02*
D03*
X1944000Y1101000D02*
D03*
X1599000Y1105000D02*
D03*
X1379000Y1188000D02*
D03*
Y1161000D02*
D03*
X1310000Y1070000D02*
D03*
X1320000Y1145000D02*
D03*
X1537000Y1039000D02*
D03*
X1534000Y1043000D02*
D03*
X1540000Y1035000D02*
D03*
X1373000Y1143087D02*
D03*
Y1121433D02*
D03*
X1386000D02*
D03*
X1379000Y1110000D02*
D03*
X1592000Y1095465D02*
D03*
X1605000D02*
D03*
X1592000Y1073811D02*
D03*
X1606000D02*
D03*
X1591536Y1021464D02*
D03*
X1605536D02*
D03*
X1591811Y999811D02*
D03*
X1605811D02*
D03*
X1386000Y1143087D02*
D03*
X1659536Y938464D02*
D03*
Y925536D02*
D03*
X1681189Y925811D02*
D03*
Y937811D02*
D03*
X1733536Y937464D02*
D03*
Y925536D02*
D03*
X1755189Y925811D02*
D03*
Y937811D02*
D03*
X1805535Y987535D02*
D03*
X1817465D02*
D03*
X1817189Y1009189D02*
D03*
X1804811D02*
D03*
X1805331Y1069000D02*
D03*
X1811000Y1062000D02*
D03*
X1818000Y1069000D02*
D03*
X1804811Y1082189D02*
D03*
X1817189D02*
D03*
X1715464Y1134536D02*
D03*
Y1146536D02*
D03*
X1693811Y1146189D02*
D03*
Y1134189D02*
D03*
X1599000Y988000D02*
D03*
X1648000Y931000D02*
D03*
X1722000D02*
D03*
X1811000Y976000D02*
D03*
Y1094000D02*
D03*
X1727000Y1141000D02*
D03*
X1591811Y988811D02*
D03*
X1648536Y925536D02*
D03*
X1692000Y926000D02*
D03*
X1792000Y962000D02*
D03*
X1783000D02*
D03*
X1418000Y1004000D02*
D03*
X1454000Y988000D02*
D03*
X1645000Y971000D02*
D03*
X1781894Y1048106D02*
D03*
X1787000Y1048000D02*
D03*
X1791000Y1030000D02*
D03*
X1785000Y1034000D02*
D03*
X1786000Y1025000D02*
D03*
X1782000Y1028000D02*
D03*
X1780897Y1033897D02*
D03*
X1755000Y1034978D02*
D03*
X1707000Y960000D02*
D03*
X1630000Y1038000D02*
D03*
X1651000Y1045000D02*
D03*
X1727000Y1134536D02*
D03*
X1676000Y1121000D02*
D03*
X1592000Y1105000D02*
D03*
X1680000Y1015000D02*
D03*
X1599000Y1136000D02*
D03*
X1593000Y1167000D02*
D03*
X1604000D02*
D03*
X1592811Y1153811D02*
D03*
X1604811D02*
D03*
X1592811Y1142189D02*
D03*
X1746094Y1120000D02*
D03*
X1742314D02*
D03*
X1749874D02*
D03*
X1753654D02*
D03*
X1628248Y1155752D02*
D03*
X1630921Y1153079D02*
D03*
X1625576Y1158424D02*
D03*
X1622903Y1161097D02*
D03*
X1753000Y983000D02*
D03*
X1783000Y951000D02*
D03*
X1792000D02*
D03*
X1794890Y943000D02*
D03*
X1912756Y1153000D02*
D03*
X1875000Y1164000D02*
D03*
X1666000Y1110000D02*
D03*
X1662956Y1114044D02*
D03*
X1651000Y1056000D02*
D03*
Y1060000D02*
D03*
X1627000Y1028000D02*
D03*
X1630000Y1033000D02*
D03*
X1621000Y1030000D02*
D03*
Y1035346D02*
D03*
X1625000Y1038000D02*
D03*
X1627000Y1023000D02*
D03*
X1523000Y1032000D02*
D03*
X1526000Y1028000D02*
D03*
X1529000Y1024000D02*
D03*
X1485000Y1166000D02*
D03*
X1532000Y1119000D02*
D03*
X1429000Y1137000D02*
D03*
X1428693Y1129307D02*
D03*
X1428598Y1123402D02*
D03*
X1423000Y1108000D02*
D03*
X1428000Y1113000D02*
D03*
X1399000Y1088000D02*
D03*
X1431402Y1110000D02*
D03*
X1393786Y1031000D02*
D03*
X1407126Y929000D02*
D03*
X1403189D02*
D03*
X1410906D02*
D03*
X1414843D02*
D03*
X1418623D02*
D03*
X1405283Y1031000D02*
D03*
X1401503D02*
D03*
X1397566D02*
D03*
X1409220D02*
D03*
X1413000D02*
D03*
X1399000Y1007000D02*
D03*
X1513000Y946000D02*
D03*
X1515673Y943327D02*
D03*
X1518346Y940654D02*
D03*
X1521019Y937981D02*
D03*
X1523691Y935309D02*
D03*
X1526364Y932636D02*
D03*
X1529037Y929963D02*
D03*
X1531710Y927290D02*
D03*
X1498125Y921000D02*
D03*
X1501905D02*
D03*
X1505685D02*
D03*
X1509465D02*
D03*
X1513245D02*
D03*
X1517025D02*
D03*
X1520805D02*
D03*
X1524585D02*
D03*
X1377220Y1078000D02*
D03*
X1441673Y1027673D02*
D03*
X1420000Y1060220D02*
D03*
X1530000Y1014220D02*
D03*
X1545673Y1026327D02*
D03*
X1560000Y1026780D02*
D03*
X1373440Y1078000D02*
D03*
X1439000Y1025000D02*
D03*
X1420000Y1056440D02*
D03*
X1530000Y1010440D02*
D03*
X1548346Y1023654D02*
D03*
X1563000Y1023433D02*
D03*
X1381000Y1078000D02*
D03*
X1444346Y1030346D02*
D03*
X1420000Y1064000D02*
D03*
X1530000Y1018000D02*
D03*
X1543000Y1029000D02*
D03*
X1563000Y1030000D02*
D03*
X1392000Y944000D02*
D03*
X1398000Y956000D02*
D03*
X1441457Y939543D02*
D03*
X1504000Y957008D02*
D03*
X1502000Y947000D02*
D03*
X1488701Y953701D02*
D03*
X1463000Y965000D02*
D03*
X1455000Y955495D02*
D03*
X1430000Y956000D02*
D03*
X1559000Y1070000D02*
D03*
X1596287Y849287D02*
D03*
X1596000Y854000D02*
D03*
Y859000D02*
D03*
X1781000Y896000D02*
D03*
X1945000Y1045000D02*
D03*
X1860000Y985000D02*
D03*
X1795000Y925000D02*
D03*
X1780000D02*
D03*
X1762000Y1120000D02*
D03*
X1767000D02*
D03*
X1772000D02*
D03*
X1821000Y1122000D02*
D03*
D60*
X1772000Y1091032D02*
D03*
Y1089063D02*
D03*
Y1087094D02*
D03*
Y1085126D02*
D03*
Y1083157D02*
D03*
Y1081189D02*
D03*
Y1079220D02*
D03*
Y1077252D02*
D03*
Y1075283D02*
D03*
Y1073315D02*
D03*
Y1071346D02*
D03*
Y1069378D02*
D03*
Y1067409D02*
D03*
Y1065441D02*
D03*
Y1063472D02*
D03*
Y1061504D02*
D03*
Y1059535D02*
D03*
Y1057567D02*
D03*
Y1055598D02*
D03*
Y1053630D02*
D03*
Y1051661D02*
D03*
Y1049693D02*
D03*
Y1047724D02*
D03*
Y1045756D02*
D03*
Y1043787D02*
D03*
Y1041819D02*
D03*
Y1039850D02*
D03*
Y1037882D02*
D03*
Y1035913D02*
D03*
Y1033945D02*
D03*
Y1031976D02*
D03*
Y1030008D02*
D03*
Y1028039D02*
D03*
Y1026071D02*
D03*
Y1024102D02*
D03*
Y1022134D02*
D03*
Y1020165D02*
D03*
Y1018197D02*
D03*
Y1016228D02*
D03*
Y1014260D02*
D03*
Y1012291D02*
D03*
Y1010323D02*
D03*
Y1008354D02*
D03*
Y1006386D02*
D03*
Y1004417D02*
D03*
Y1002449D02*
D03*
Y1000480D02*
D03*
Y998512D02*
D03*
Y996543D02*
D03*
Y994575D02*
D03*
Y992606D02*
D03*
Y990638D02*
D03*
Y988669D02*
D03*
Y986701D02*
D03*
Y984732D02*
D03*
Y982764D02*
D03*
Y980795D02*
D03*
Y978827D02*
D03*
Y976858D02*
D03*
X1641291D02*
D03*
Y978827D02*
D03*
Y980795D02*
D03*
Y982764D02*
D03*
Y984732D02*
D03*
Y986701D02*
D03*
Y988669D02*
D03*
Y990638D02*
D03*
Y992606D02*
D03*
Y994575D02*
D03*
Y996543D02*
D03*
Y998512D02*
D03*
Y1000480D02*
D03*
Y1002449D02*
D03*
Y1004417D02*
D03*
Y1006386D02*
D03*
Y1008354D02*
D03*
Y1010323D02*
D03*
Y1012291D02*
D03*
Y1014260D02*
D03*
Y1016228D02*
D03*
Y1018197D02*
D03*
Y1020165D02*
D03*
Y1022134D02*
D03*
Y1024102D02*
D03*
Y1026071D02*
D03*
Y1028039D02*
D03*
Y1030008D02*
D03*
Y1031976D02*
D03*
Y1033945D02*
D03*
Y1035913D02*
D03*
Y1037882D02*
D03*
Y1039850D02*
D03*
Y1041819D02*
D03*
Y1043787D02*
D03*
Y1045756D02*
D03*
Y1047724D02*
D03*
Y1049693D02*
D03*
Y1051661D02*
D03*
Y1053630D02*
D03*
Y1055598D02*
D03*
Y1057567D02*
D03*
Y1059535D02*
D03*
Y1061504D02*
D03*
Y1063472D02*
D03*
Y1065441D02*
D03*
Y1067409D02*
D03*
Y1069378D02*
D03*
Y1071346D02*
D03*
Y1073315D02*
D03*
Y1075283D02*
D03*
Y1077252D02*
D03*
Y1079220D02*
D03*
Y1081189D02*
D03*
Y1083157D02*
D03*
Y1085126D02*
D03*
Y1087094D02*
D03*
Y1089063D02*
D03*
Y1091031D02*
D03*
Y1093000D02*
D03*
X1772000D02*
D03*
D61*
X1764717Y969575D02*
D03*
X1762748D02*
D03*
X1760780D02*
D03*
X1758811D02*
D03*
X1756843D02*
D03*
X1754874D02*
D03*
X1752906D02*
D03*
X1750937D02*
D03*
X1748969D02*
D03*
X1747000D02*
D03*
X1745032D02*
D03*
X1743063D02*
D03*
X1741095D02*
D03*
X1739126D02*
D03*
X1737158D02*
D03*
X1735189D02*
D03*
X1733221D02*
D03*
X1731252D02*
D03*
X1729284D02*
D03*
X1727315D02*
D03*
X1725347D02*
D03*
X1723378D02*
D03*
X1721410D02*
D03*
X1719441D02*
D03*
X1717473D02*
D03*
X1715504D02*
D03*
X1713536D02*
D03*
X1711567D02*
D03*
X1709599D02*
D03*
X1707630D02*
D03*
X1705662D02*
D03*
X1703693D02*
D03*
X1701724D02*
D03*
X1699756D02*
D03*
X1697787D02*
D03*
X1695819D02*
D03*
X1693850D02*
D03*
X1691882D02*
D03*
X1689913D02*
D03*
X1687945D02*
D03*
X1685976D02*
D03*
X1684008D02*
D03*
X1682039D02*
D03*
X1680071D02*
D03*
X1678102D02*
D03*
X1676134D02*
D03*
X1674165D02*
D03*
X1672197D02*
D03*
X1670228D02*
D03*
X1668260D02*
D03*
X1666291D02*
D03*
X1664323D02*
D03*
X1662354D02*
D03*
X1660386D02*
D03*
X1658417D02*
D03*
X1656449D02*
D03*
X1654480D02*
D03*
X1652512D02*
D03*
X1650543D02*
D03*
X1648575D02*
D03*
X1764717Y1100283D02*
D03*
X1762748D02*
D03*
X1760780D02*
D03*
X1758811D02*
D03*
X1756843D02*
D03*
X1754874D02*
D03*
X1752906D02*
D03*
X1750937D02*
D03*
X1748969D02*
D03*
X1747000D02*
D03*
X1745032D02*
D03*
X1743063D02*
D03*
X1741095D02*
D03*
X1739126D02*
D03*
X1737158D02*
D03*
X1735189D02*
D03*
X1733221Y1100284D02*
D03*
X1731252Y1100283D02*
D03*
X1729284D02*
D03*
X1727315D02*
D03*
X1725347D02*
D03*
X1723378D02*
D03*
X1721410D02*
D03*
X1719441D02*
D03*
X1717473D02*
D03*
X1715504D02*
D03*
X1713536D02*
D03*
X1711567D02*
D03*
X1709599D02*
D03*
X1707630D02*
D03*
X1705662D02*
D03*
X1703693D02*
D03*
X1701725D02*
D03*
X1699756D02*
D03*
X1697787D02*
D03*
X1695819D02*
D03*
X1693850D02*
D03*
X1691882D02*
D03*
X1689913D02*
D03*
X1687945D02*
D03*
X1685976D02*
D03*
X1684008D02*
D03*
X1682039D02*
D03*
X1680071D02*
D03*
X1678102D02*
D03*
X1676134D02*
D03*
X1674165D02*
D03*
X1672197D02*
D03*
X1670228D02*
D03*
X1668260D02*
D03*
X1666291D02*
D03*
X1664323D02*
D03*
X1662354D02*
D03*
X1660386D02*
D03*
X1658417D02*
D03*
X1656449D02*
D03*
X1654480D02*
D03*
X1652512D02*
D03*
X1650543D02*
D03*
X1648575D02*
D03*
D62*
X1826000Y1090063D02*
D03*
Y1088094D02*
D03*
Y1086126D02*
D03*
Y1084157D02*
D03*
Y1082189D02*
D03*
Y1080220D02*
D03*
Y1078252D02*
D03*
Y1076283D02*
D03*
Y1074315D02*
D03*
Y1072346D02*
D03*
Y1070378D02*
D03*
Y1068409D02*
D03*
Y1066441D02*
D03*
Y1064472D02*
D03*
Y1062504D02*
D03*
Y1060535D02*
D03*
Y1058567D02*
D03*
Y1056598D02*
D03*
Y1054630D02*
D03*
Y1052661D02*
D03*
Y1050693D02*
D03*
Y1094000D02*
D03*
Y1092031D02*
D03*
Y1048724D02*
D03*
X1796866D02*
D03*
Y1050693D02*
D03*
Y1052661D02*
D03*
Y1054630D02*
D03*
Y1056598D02*
D03*
Y1058567D02*
D03*
Y1060535D02*
D03*
Y1062504D02*
D03*
Y1064472D02*
D03*
Y1066441D02*
D03*
Y1068409D02*
D03*
Y1070378D02*
D03*
Y1072346D02*
D03*
Y1074315D02*
D03*
Y1076283D02*
D03*
Y1078252D02*
D03*
Y1080220D02*
D03*
Y1082189D02*
D03*
Y1084157D02*
D03*
Y1086126D02*
D03*
Y1088094D02*
D03*
Y1090063D02*
D03*
Y1092031D02*
D03*
Y1094000D02*
D03*
X1826000Y1017063D02*
D03*
Y1015094D02*
D03*
Y1013126D02*
D03*
Y1011157D02*
D03*
Y1009189D02*
D03*
Y1007220D02*
D03*
Y1005252D02*
D03*
Y1003283D02*
D03*
Y1001315D02*
D03*
Y999346D02*
D03*
Y997378D02*
D03*
Y995409D02*
D03*
Y993441D02*
D03*
Y991472D02*
D03*
Y989504D02*
D03*
Y987535D02*
D03*
Y985567D02*
D03*
Y983598D02*
D03*
Y981630D02*
D03*
Y979661D02*
D03*
Y977693D02*
D03*
Y1021000D02*
D03*
Y1019031D02*
D03*
Y975724D02*
D03*
X1796866D02*
D03*
Y977693D02*
D03*
Y979661D02*
D03*
Y981630D02*
D03*
Y983598D02*
D03*
Y985567D02*
D03*
Y987535D02*
D03*
Y989504D02*
D03*
Y991472D02*
D03*
Y993441D02*
D03*
Y995409D02*
D03*
Y997378D02*
D03*
Y999346D02*
D03*
Y1001315D02*
D03*
Y1003283D02*
D03*
Y1005252D02*
D03*
Y1007220D02*
D03*
Y1009189D02*
D03*
Y1011157D02*
D03*
Y1013126D02*
D03*
Y1015094D02*
D03*
Y1017063D02*
D03*
Y1019031D02*
D03*
Y1021000D02*
D03*
X1584000Y991937D02*
D03*
Y993905D02*
D03*
Y995874D02*
D03*
Y997842D02*
D03*
Y999811D02*
D03*
Y1001779D02*
D03*
Y1003748D02*
D03*
Y1005716D02*
D03*
Y1007685D02*
D03*
Y1009653D02*
D03*
Y1011622D02*
D03*
Y1013590D02*
D03*
Y1015559D02*
D03*
Y1017527D02*
D03*
Y1019496D02*
D03*
Y1021464D02*
D03*
Y1023433D02*
D03*
Y1025401D02*
D03*
Y1027370D02*
D03*
Y1029338D02*
D03*
Y1031307D02*
D03*
Y988000D02*
D03*
Y989968D02*
D03*
Y1033275D02*
D03*
X1613134D02*
D03*
Y1031307D02*
D03*
Y1029338D02*
D03*
Y1027370D02*
D03*
Y1025401D02*
D03*
Y1023433D02*
D03*
Y1021464D02*
D03*
Y1019496D02*
D03*
Y1017527D02*
D03*
Y1015559D02*
D03*
Y1013590D02*
D03*
Y1011622D02*
D03*
Y1009653D02*
D03*
Y1007685D02*
D03*
Y1005716D02*
D03*
Y1003748D02*
D03*
Y1001779D02*
D03*
Y999811D02*
D03*
Y997842D02*
D03*
Y995874D02*
D03*
Y993905D02*
D03*
Y991937D02*
D03*
Y989968D02*
D03*
Y988000D02*
D03*
X1584000Y1065937D02*
D03*
Y1067906D02*
D03*
Y1069874D02*
D03*
Y1071843D02*
D03*
Y1073811D02*
D03*
Y1075780D02*
D03*
Y1077748D02*
D03*
Y1079717D02*
D03*
Y1081685D02*
D03*
Y1083654D02*
D03*
Y1085622D02*
D03*
Y1087591D02*
D03*
Y1089559D02*
D03*
Y1091528D02*
D03*
Y1093496D02*
D03*
Y1095465D02*
D03*
Y1097433D02*
D03*
Y1099402D02*
D03*
Y1101370D02*
D03*
Y1103339D02*
D03*
Y1105307D02*
D03*
Y1062000D02*
D03*
Y1063969D02*
D03*
Y1107276D02*
D03*
X1613134D02*
D03*
Y1105307D02*
D03*
Y1103339D02*
D03*
Y1101370D02*
D03*
Y1099402D02*
D03*
Y1097433D02*
D03*
Y1095465D02*
D03*
Y1093496D02*
D03*
Y1091528D02*
D03*
Y1089559D02*
D03*
Y1087591D02*
D03*
Y1085622D02*
D03*
Y1083654D02*
D03*
Y1081685D02*
D03*
Y1079717D02*
D03*
Y1077748D02*
D03*
Y1075780D02*
D03*
Y1073811D02*
D03*
Y1071843D02*
D03*
Y1069874D02*
D03*
Y1067906D02*
D03*
Y1065937D02*
D03*
Y1063969D02*
D03*
Y1062000D02*
D03*
X1584000Y1145937D02*
D03*
Y1147906D02*
D03*
Y1149874D02*
D03*
Y1151842D02*
D03*
Y1153811D02*
D03*
Y1155779D02*
D03*
Y1157748D02*
D03*
Y1159717D02*
D03*
Y1161685D02*
D03*
Y1163653D02*
D03*
Y1165622D02*
D03*
Y1167591D02*
D03*
Y1169559D02*
D03*
Y1171527D02*
D03*
Y1173496D02*
D03*
Y1175465D02*
D03*
Y1177433D02*
D03*
Y1179401D02*
D03*
Y1181370D02*
D03*
Y1183339D02*
D03*
Y1185307D02*
D03*
Y1142000D02*
D03*
Y1143968D02*
D03*
Y1187276D02*
D03*
X1613134D02*
D03*
Y1185307D02*
D03*
Y1183339D02*
D03*
Y1181370D02*
D03*
Y1179401D02*
D03*
Y1177433D02*
D03*
Y1175465D02*
D03*
Y1173496D02*
D03*
Y1171527D02*
D03*
Y1169559D02*
D03*
Y1167591D02*
D03*
Y1165622D02*
D03*
Y1163653D02*
D03*
Y1161685D02*
D03*
Y1159717D02*
D03*
Y1157748D02*
D03*
Y1155779D02*
D03*
Y1153811D02*
D03*
Y1151842D02*
D03*
Y1149874D02*
D03*
Y1147906D02*
D03*
Y1145937D02*
D03*
Y1143968D02*
D03*
Y1142000D02*
D03*
X1365094Y1154898D02*
D03*
Y1152929D02*
D03*
Y1150961D02*
D03*
Y1148992D02*
D03*
Y1147024D02*
D03*
Y1145055D02*
D03*
Y1143087D02*
D03*
Y1141118D02*
D03*
Y1139150D02*
D03*
Y1137181D02*
D03*
Y1135213D02*
D03*
Y1133244D02*
D03*
Y1131276D02*
D03*
Y1129307D02*
D03*
Y1127339D02*
D03*
Y1125370D02*
D03*
Y1123402D02*
D03*
Y1121433D02*
D03*
Y1119465D02*
D03*
Y1117496D02*
D03*
Y1115528D02*
D03*
Y1113559D02*
D03*
Y1111591D02*
D03*
Y1109622D02*
D03*
X1394228D02*
D03*
Y1152929D02*
D03*
Y1154898D02*
D03*
Y1111591D02*
D03*
Y1113559D02*
D03*
Y1115528D02*
D03*
Y1117496D02*
D03*
Y1119465D02*
D03*
Y1121433D02*
D03*
Y1123402D02*
D03*
Y1125370D02*
D03*
Y1127339D02*
D03*
Y1129307D02*
D03*
Y1131276D02*
D03*
Y1133244D02*
D03*
Y1135213D02*
D03*
Y1137181D02*
D03*
Y1139150D02*
D03*
Y1141118D02*
D03*
Y1143087D02*
D03*
Y1145055D02*
D03*
Y1147024D02*
D03*
Y1148992D02*
D03*
Y1150961D02*
D03*
D63*
X1956000Y923000D02*
D03*
D64*
Y920441D02*
D03*
Y917882D02*
D03*
Y915323D02*
D03*
Y912764D02*
D03*
Y910205D02*
D03*
Y907646D02*
D03*
Y905087D02*
D03*
Y902528D02*
D03*
Y899969D02*
D03*
Y897409D02*
D03*
Y894850D02*
D03*
Y892291D02*
D03*
Y889732D02*
D03*
X1933953Y923000D02*
D03*
Y920441D02*
D03*
Y917882D02*
D03*
Y915323D02*
D03*
Y912764D02*
D03*
Y910205D02*
D03*
Y907646D02*
D03*
Y905087D02*
D03*
Y902528D02*
D03*
Y899969D02*
D03*
Y897409D02*
D03*
Y894850D02*
D03*
Y892291D02*
D03*
Y889732D02*
D03*
D65*
X1944976Y906465D02*
D03*
D66*
X1817094Y859906D02*
D03*
X1815126D02*
D03*
X1813157D02*
D03*
X1811189D02*
D03*
X1809220D02*
D03*
X1807252D02*
D03*
X1805283D02*
D03*
X1803315D02*
D03*
X1801346D02*
D03*
X1799378D02*
D03*
X1797409D02*
D03*
X1795441D02*
D03*
Y826441D02*
D03*
X1797409D02*
D03*
X1799378D02*
D03*
X1801346D02*
D03*
X1803315D02*
D03*
X1805283D02*
D03*
X1807252D02*
D03*
X1809220D02*
D03*
X1811189D02*
D03*
X1813157D02*
D03*
X1815126D02*
D03*
X1817094D02*
D03*
D67*
X1789535Y854000D02*
D03*
Y852032D02*
D03*
Y850063D02*
D03*
Y848095D02*
D03*
Y846126D02*
D03*
Y844158D02*
D03*
Y842189D02*
D03*
Y840221D02*
D03*
Y838252D02*
D03*
Y836284D02*
D03*
Y834315D02*
D03*
Y832347D02*
D03*
X1823000D02*
D03*
Y834315D02*
D03*
Y836284D02*
D03*
Y838252D02*
D03*
Y840221D02*
D03*
Y842189D02*
D03*
Y844158D02*
D03*
Y846126D02*
D03*
Y848095D02*
D03*
Y850063D02*
D03*
Y852032D02*
D03*
D68*
Y854000D02*
D03*
D69*
X1763063Y917000D02*
D03*
X1761095D02*
D03*
X1759126D02*
D03*
X1757158D02*
D03*
X1755189D02*
D03*
X1753221D02*
D03*
X1751252D02*
D03*
X1749284D02*
D03*
X1747315D02*
D03*
X1745347D02*
D03*
X1743378D02*
D03*
X1741410D02*
D03*
X1739441D02*
D03*
X1737473D02*
D03*
X1735504D02*
D03*
X1733536D02*
D03*
X1731567D02*
D03*
X1729599D02*
D03*
X1727630D02*
D03*
X1725662D02*
D03*
X1723693D02*
D03*
X1767000D02*
D03*
X1765032D02*
D03*
X1721725D02*
D03*
Y946134D02*
D03*
X1723693D02*
D03*
X1725662D02*
D03*
X1727630D02*
D03*
X1729599D02*
D03*
X1731567D02*
D03*
X1733536D02*
D03*
X1735504D02*
D03*
X1737473D02*
D03*
X1739441D02*
D03*
X1741410D02*
D03*
X1743378D02*
D03*
X1745347D02*
D03*
X1747315D02*
D03*
X1749284D02*
D03*
X1751252D02*
D03*
X1753221D02*
D03*
X1755189D02*
D03*
X1757158D02*
D03*
X1759126D02*
D03*
X1761095D02*
D03*
X1763063D02*
D03*
X1765032D02*
D03*
X1767000D02*
D03*
X1689063Y917000D02*
D03*
X1687095D02*
D03*
X1685126D02*
D03*
X1683158D02*
D03*
X1681189D02*
D03*
X1679221D02*
D03*
X1677252D02*
D03*
X1675284D02*
D03*
X1673315D02*
D03*
X1671347D02*
D03*
X1669378D02*
D03*
X1667410D02*
D03*
X1665441D02*
D03*
X1663473D02*
D03*
X1661504D02*
D03*
X1659536D02*
D03*
X1657567D02*
D03*
X1655599D02*
D03*
X1653630D02*
D03*
X1651662D02*
D03*
X1649693D02*
D03*
X1693000D02*
D03*
X1691032D02*
D03*
X1647725D02*
D03*
Y946134D02*
D03*
X1649693D02*
D03*
X1651662D02*
D03*
X1653630D02*
D03*
X1655599D02*
D03*
X1657567D02*
D03*
X1659536D02*
D03*
X1661504D02*
D03*
X1663473D02*
D03*
X1665441D02*
D03*
X1667410D02*
D03*
X1669378D02*
D03*
X1671347D02*
D03*
X1673315D02*
D03*
X1675284D02*
D03*
X1677252D02*
D03*
X1679221D02*
D03*
X1681189D02*
D03*
X1683158D02*
D03*
X1685126D02*
D03*
X1687095D02*
D03*
X1689063D02*
D03*
X1691032D02*
D03*
X1693000D02*
D03*
X1685937Y1155000D02*
D03*
X1687905D02*
D03*
X1689874D02*
D03*
X1691842D02*
D03*
X1693811D02*
D03*
X1695779D02*
D03*
X1697748D02*
D03*
X1699716D02*
D03*
X1701685D02*
D03*
X1703653D02*
D03*
X1705622D02*
D03*
X1707590D02*
D03*
X1709559D02*
D03*
X1711527D02*
D03*
X1713496D02*
D03*
X1715464D02*
D03*
X1717433D02*
D03*
X1719401D02*
D03*
X1721370D02*
D03*
X1723338D02*
D03*
X1725307D02*
D03*
X1682000D02*
D03*
X1683968D02*
D03*
X1727275D02*
D03*
Y1125866D02*
D03*
X1725307D02*
D03*
X1723338D02*
D03*
X1721370D02*
D03*
X1719401D02*
D03*
X1717433D02*
D03*
X1715464D02*
D03*
X1713496D02*
D03*
X1711527D02*
D03*
X1709559D02*
D03*
X1707590D02*
D03*
X1705622D02*
D03*
X1703653D02*
D03*
X1701685D02*
D03*
X1699716D02*
D03*
X1697748D02*
D03*
X1695779D02*
D03*
X1693811D02*
D03*
X1691842D02*
D03*
X1689874D02*
D03*
X1687905D02*
D03*
X1685937D02*
D03*
X1683968D02*
D03*
X1682000D02*
D03*
D70*
X1495000Y947000D02*
D03*
X1491850D02*
D03*
X1488701D02*
D03*
X1485551D02*
D03*
X1482401D02*
D03*
X1479252D02*
D03*
X1476102D02*
D03*
X1472953D02*
D03*
X1469803D02*
D03*
X1463504D02*
D03*
X1460354D02*
D03*
X1457205D02*
D03*
X1454055D02*
D03*
X1447756D02*
D03*
X1444606D02*
D03*
X1441457D02*
D03*
X1438307D02*
D03*
X1435157D02*
D03*
X1432008D02*
D03*
X1428858D02*
D03*
X1425709D02*
D03*
X1422559D02*
D03*
X1419409D02*
D03*
X1416260D02*
D03*
X1413110D02*
D03*
X1409961D02*
D03*
X1406811D02*
D03*
X1403661D02*
D03*
X1400512D02*
D03*
X1397362D02*
D03*
Y996606D02*
D03*
X1400512D02*
D03*
X1403661D02*
D03*
X1406811D02*
D03*
X1409961D02*
D03*
X1413110D02*
D03*
X1416260D02*
D03*
X1419409D02*
D03*
X1425709D02*
D03*
X1428858D02*
D03*
X1432008D02*
D03*
X1435157D02*
D03*
X1438307D02*
D03*
X1441457D02*
D03*
X1444606D02*
D03*
X1447756D02*
D03*
X1450906D02*
D03*
X1454055D02*
D03*
X1457205D02*
D03*
X1460354D02*
D03*
X1463504D02*
D03*
X1466654D02*
D03*
X1469803D02*
D03*
X1472953D02*
D03*
X1476102D02*
D03*
X1479252D02*
D03*
X1482401D02*
D03*
X1485551D02*
D03*
X1488701D02*
D03*
X1495000D02*
D03*
X1491850D02*
D03*
X1422559D02*
D03*
X1450906Y947000D02*
D03*
X1466654D02*
D03*
D71*
X1520000Y758000D02*
D03*
X1440000Y768000D02*
D03*
D72*
X1518032Y758000D02*
D03*
X1516063D02*
D03*
X1514095D02*
D03*
X1512126D02*
D03*
X1510158D02*
D03*
X1508189D02*
D03*
X1506221D02*
D03*
X1504252D02*
D03*
X1502284D02*
D03*
X1500315D02*
D03*
X1498347D02*
D03*
X1496378D02*
D03*
X1494410D02*
D03*
X1492441D02*
D03*
X1490473D02*
D03*
X1520000Y833591D02*
D03*
X1518032D02*
D03*
X1516063D02*
D03*
X1514095D02*
D03*
X1512126D02*
D03*
X1510158D02*
D03*
X1508189D02*
D03*
X1506221D02*
D03*
X1504252D02*
D03*
X1502284D02*
D03*
X1500315D02*
D03*
X1498347D02*
D03*
X1496378D02*
D03*
X1494410D02*
D03*
X1492441D02*
D03*
X1490473D02*
D03*
X1438031Y768000D02*
D03*
X1436063D02*
D03*
X1434094D02*
D03*
X1432126D02*
D03*
X1430157D02*
D03*
X1428189D02*
D03*
X1426220D02*
D03*
X1424252D02*
D03*
X1422283D02*
D03*
X1420315D02*
D03*
X1418346D02*
D03*
X1416378D02*
D03*
X1414409D02*
D03*
X1412441D02*
D03*
X1410472D02*
D03*
X1440000Y821937D02*
D03*
X1438031D02*
D03*
X1436063D02*
D03*
X1434094D02*
D03*
X1432126D02*
D03*
X1430157D02*
D03*
X1428189D02*
D03*
X1426220D02*
D03*
X1424252D02*
D03*
X1422283D02*
D03*
X1420315D02*
D03*
X1418346D02*
D03*
X1416378D02*
D03*
X1414409D02*
D03*
X1412441D02*
D03*
X1410472D02*
D03*
D73*
X1816457Y1155669D02*
D03*
Y1164331D02*
D03*
X1823543D02*
D03*
Y1155669D02*
D03*
D74*
X1904819Y1166165D02*
D03*
D75*
Y1170102D02*
D03*
X1915055Y1166165D02*
D03*
X1904819Y1174039D02*
D03*
X1915055D02*
D03*
D76*
X1820000Y1290000D02*
D03*
Y1200000D02*
D03*
X1515000D02*
D03*
Y1290000D02*
D03*
D77*
X1869512Y865882D02*
D03*
X1873449Y876118D02*
D03*
X1854512Y865882D02*
D03*
X1858449Y876118D02*
D03*
X1980512Y816882D02*
D03*
X1984449Y827118D02*
D03*
X1913449Y827118D02*
D03*
X1909512Y816882D02*
D03*
D78*
X1865575Y876118D02*
D03*
X1850575Y876118D02*
D03*
X1976575Y827118D02*
D03*
X1905575Y827118D02*
D03*
M02*
