M48
;Layer_Color=9474304
;FILE_FORMAT=2:5
INCH,LZ
;TYPE=PLATED
T1F00S00C0.01500
T2F00S00C0.02500
T3F00S00C0.03150
T4F00S00C0.03346
T5F00S00C0.03543
T6F00S00C0.03800
T7F00S00C0.04200
T8F00S00C0.04331
T9F00S00C0.05000
T10F00S00C0.05512
T11F00S00C0.06299
T12F00S00C0.06500
T13F00S00C0.08600
T14F00S00C0.10000
T15F00S00C0.12500
T16F00S00C0.15748
%
T01
X1513Y0752
X1508
X151Y0763
X1506221Y0765779
X1502284Y0762716
X1428189Y0764189
X1428Y0773256
X1433
X1422283Y0773
X1416Y0776
X1795Y0777
X1805
X1815
X186Y0771
X1882Y083
X1882Y085
X1894Y082
X1937Y0824
X194Y084
X1947Y0847
X1937Y0855
X1929457Y0851
X1925Y0884808
X1922Y089
X1925Y0895
X1926Y0903
Y091
X1908Y0913
Y0904
Y0898
X1914244Y0891244
X189Y0892
X1886Y0888
X1894Y0896
X1903Y0908
X1893Y0918
X1883Y091
X1919Y0928
X1936Y0935
X1954Y0937
X1965Y0936
X1967Y0927
X1964Y0918
Y0909
Y0903
X197Y0889
X1976756Y0891756
X1983Y0897
X1954Y0875
X1943Y0882
X1945Y0923
X1964Y082
X2007Y0824
X1873Y0862
X1851
X1824
X1815Y0867
X1809Y0854
X1806Y08435
X1795874Y0846126
X1795779Y0840221
X1796Y0834
X1809Y0833
X1817Y0836
X1815Y0821
X183Y0841
Y0846
X1796Y0852
X1783756Y0852756
X1783756Y0847244
X1784Y0842
X1785Y0837
X1789Y0892
X1786Y0896
X1781
X178Y0925
Y0931
X1795Y0925
X1792Y0918
X1795Y0915
X1805Y0926
X1816Y0936
Y09
X1837Y0919
X1865Y0925
X1873Y0921
X1861831Y0899831
X1868Y0885
X1874
X1755189Y0925811
X1733536Y0925536
Y0937464
X1722Y0931
X1692Y0926
X1681189Y0925811
X1659536Y0925536
X1648536
X1648Y0931
X1605756Y0924756
X1614Y0907
X1615Y0897
X16Y0902756
X1595Y0895
X1596Y0859
Y0854
X1596287Y0849287
X1618Y0844
X1620673Y0841327
X1623346Y0838654
X1626019Y0835981
X1643Y0835432
Y0831652
Y0827872
Y0824092
Y0820312
Y0816532
Y0812752
Y080834
Y080456
Y080078
Y0797
X1655
X1659Y08
X1663Y0803
X1667Y0806
X167Y0821
X1674Y0824
X1678315Y083
X1682Y0827
X169Y0818
X1694Y0812
X1698Y0815
X1686Y0809
X1643Y084
X157744Y091544
X158Y0919
X153171Y092729
X1529037Y0929963
X1526364Y0932636
X1523691Y0935309
X1524585Y0921
X1520805
X1517025
X1513245
X1509465
X1505685
X1501905
X1498125
X152Y091
X1534Y0907
X1536Y0897
X1456
X1454Y0907
X1444
X144Y0921
Y0926
X1418623Y0929
X1414843
X1410906
X1407126
X1415Y0903
Y0898
X1426244Y0902756
X1427Y087
X1412638
X1465Y0865
X1475
Y0875
X1483Y084934
Y084556
Y084178
Y0838
X1504252Y0827252
X1504Y0793
X1475Y0787
Y0799
X1426Y0793
X1436Y0816
X1465Y091
X1556Y0831
X1403189Y0929
X1392Y0944
X1386Y0949
X138
X1398Y0956
X1392Y0996441
X1386Y1005
X138
X1399Y1007
X1397566Y1031
X1393786
X1401503
X1405283
X1399Y1088
X1381Y1078
X137722
X137344
X131Y107
X142Y1064
Y106022
Y105644
X1413Y1031
X140922
X1418Y1004
X144107Y100393
X1439Y1025
X1441673Y1027673
X1444346Y1030346
X1454Y0988
X1463Y0965
X1475
X1488701Y0953701
X15Y096
X1504Y0957008
X1502Y0947
X1513Y0946
X1515673Y0943327
X1518346Y0940654
X1521019Y0937981
X1441457Y0939543
X143Y0956
X1455Y0955495
X1472567Y1003567
X1495Y1003
X1488315Y0988315
X153Y101044
Y101422
Y1018
X1529Y1024
X1526Y1028
X1523Y1032
X154Y1035
X1537Y1039
X1534Y1043
X1543Y1029
X1545673Y1026327
X1548346Y1023654
X156Y102678
X1557Y1
Y0994
X1559Y107
X1554
X1549
X149026Y108126
X147274
X1592Y1073811
X1606
X1599Y1061
Y1055
X1595
Y1043
Y1031
X1591536Y1021464
X1605536
X1605811Y0999811
X1591811
Y0988811
X1599Y0988
X1566Y0994
X1563Y1
X1569
X1566Y1006
X1569Y1009
X1573Y1008
X1572Y1012
X1577Y1006
X1563Y1023433
Y103
X1621
Y1035346
X1625Y1038
X163
Y1033
X1627Y1028
Y1023
X1625Y104466
Y104844
Y105222
X1651Y1051661
Y1056
Y106
X166Y1058
Y1067
Y1076
Y1085
X1671Y1083
X1673Y1091
X1667
X1686
X1695819Y1091181
X1703Y1091
X1698499Y1084501
X171Y1084
X1715Y1092
X171Y1056
X1707Y1053
X1713Y1051
X1715Y1047
X17
X1698Y1017
X1712Y1019
X1715Y1024
X1685Y1023
X1681
X168Y1015
X167Y1009
Y1
X166Y1003
Y1009
X1651Y101
Y1017
X1656Y1018
X1666Y1023
X166Y1047
X1651Y1045
X167Y105
X168Y1061
X1674Y0986
X1677Y0977
X1684008Y0976992
X1694Y0977
X169668Y098568
X1714Y0977
X1707Y096
X1681189Y0937811
X1659536Y0938464
X164Y0956
Y0964
X1645Y0971
X1657Y0977
X166Y0995683
X173Y0986
X1729284Y0976716
X174Y0979
X1749
X1753Y0983
Y0991
Y0999
Y1007
Y102
Y1027
X1755Y1034978
X1762087Y1035913
X1762244Y1045756
X1753Y1049
Y1061
Y107
Y1079
X1745
Y1066
X1734Y1073
X173Y1084
X1727Y1092
X1743063Y1092063
X1753Y1088
X1762496Y1061504
X1783Y1064224
X1781Y1071
X1781894Y1048106
X1787Y1048
X1785Y1034
X1780897Y1033897
X1782Y1028
X1786Y1025
X1791Y103
X1804811Y1009189
X1817189
X1819Y1015
X1817465Y0987535
X1805535
X1811Y0976
Y0951
X1809Y0943
X179489
X1792Y0951
X1783
Y0962
X1792
X1755189Y0937811
X1746Y0986
X1745165Y1019
X1745Y103
X1725Y1035
X1735Y1013
X1811Y1062
X1805331Y1069
X1818
X1817189Y1082189
X1804811
X1842Y1082
X184Y1078409
Y1086126
X1842Y109
X1845Y103
X1847673Y1027327
X1850346Y1024654
X1853019Y1021981
X186Y1020686
Y1024466
Y1016749
Y1012969
Y1009032
Y1005252
Y1001315
Y0997535
Y0993755
Y0989975
Y0985
X1857Y103
X1891847Y0976847
X1916756Y0952244
X1929756Y0952244
X1931Y0938
X1959756Y0952244
X1971Y095
X1989Y0949
X1985Y0958
X1945Y0977
Y1045
X196Y107
X193
X1943944Y1084944
X1944Y1089
Y1093
X204Y1095
X2078658Y1217658
X2015Y1241
X2019756Y1246244
X2015Y119
X1999Y1165
X2005Y115
X2025
X2031Y116488
X1984244Y1107244
X1975756
X1944Y1105
Y1101
Y1097
X192Y1095
X1912756Y1153
X1923Y1170165
X192Y118
X1894874Y1174039
X1875Y1164
X1949756Y1246244
X1821Y1122
X1798Y1127
X1794Y1131
X1772Y112
X1767
X1762
X1753654
X1749874
X1746094
X1742314
X1727Y1134536
Y1141
Y1188
X1723338Y1191338
X1811Y1094
X184Y1093843
X1703693Y1109693
X1670307
X1666Y111
X1662956Y1114044
X1676Y1121
X1693811Y1134189
Y1146189
X1715464Y1146536
Y1134536
X1635Y112
X163
X1633339Y1113661
X163Y111
X1599Y1105
X1592
Y1095465
X1605
X1599Y1136
X1592811Y1142189
Y1153811
X1604811
X1604Y1167
X1593
X1622903Y1161097
X1625576Y1158424
X1628248Y1155752
X1630921Y1153079
X1542Y1109
X1532Y1119
X150513Y111487
X148Y1102756
X1431402Y111
X1428Y1113
X1428504Y1117496
X1432Y112
Y1126
Y1132
X1435Y1135
X1432Y114
Y1146
Y1152
X1435Y1149
X1429Y1143
Y1137
X1428693Y1129307
X1428598Y1123402
X1423Y1108
X141Y1103
X1462Y1172
Y117578
Y117956
Y118334
X1485Y1166
X1386Y1154
Y1143087
X1373
Y1121433
X1386
Y1111
X1379Y111
Y1161
Y1188
X131Y118334
Y117956
Y1172
X129Y1185
X126256Y117
X132Y1145
X1308Y1218
T02
X1915Y12
Y121
Y122
Y123
Y124
X1905
X1895
Y123
Y122
Y121
Y12
X1885
X1875
Y121
Y122
Y123
Y124
X1885
Y123
Y122
Y121
X1905
Y12
Y122
Y123
X1865
X1855
Y122
Y121
Y12
X1845
X1835
X1825
X1815
X1805
Y121
Y122
Y123
Y124
X1815
Y123
Y122
Y121
X1825
Y122
Y123
Y124
X1835
Y123
Y122
Y121
X1845
Y122
Y123
Y124
X1855
X1865
Y122
Y121
Y12
X1795
X1785
Y121
Y122
Y123
Y124
X1795
Y123
Y122
Y121
X1775
X1765
Y122
Y123
Y124
X1775
Y123
Y122
Y12
X1765
X1755
X1745
Y121
Y122
Y123
Y124
X1755
Y123
Y122
Y121
X1735
Y12
X1725
Y121
Y122
X1735
Y123
Y124
X1725
Y123
X161
X16
Y124
X161
Y122
X16
Y121
Y12
X161
Y121
X159
X158
Y122
Y123
Y124
X159
Y123
Y122
Y12
X158
X157
Y121
Y122
Y123
Y124
X156
Y123
Y122
Y121
Y12
X155
X154
Y121
Y122
Y123
Y124
X155
Y123
Y122
Y121
X153
Y12
X152
Y121
Y122
X153
Y123
Y124
X152
Y123
X151
Y122
Y121
Y12
X15
X149
Y121
Y122
Y123
Y124
X148
X147
Y123
Y122
Y121
Y12
X146
X145
Y121
Y122
Y123
Y124
X144
X143
X142
Y123
Y122
Y121
Y12
X143
Y121
Y122
Y123
X144
Y122
Y121
Y12
X146Y121
Y122
Y123
Y124
X148Y123
Y122
Y121
Y12
X15Y121
Y122
Y123
Y124
X151
Y125
X152
X153
X154
Y126
Y127
Y128
Y129
X155
X156
Y128
Y127
Y126
Y125
X155
Y126
Y127
Y128
X153
Y127
Y126
X152
Y127
Y128
Y129
X153
X151
Y128
Y127
Y126
X15
X149
Y125
X148
X147
Y126
Y127
Y128
Y129
X146
X145
Y128
Y127
Y126
Y125
X144
X143
X142
Y126
Y127
Y128
Y129
X143
Y128
Y127
Y126
X144
Y127
Y128
Y129
X146Y128
Y127
Y126
Y125
X148Y126
Y127
X149
Y128
Y129
X148
Y128
X15
Y127
Y125
Y129
X157
X158
Y128
Y127
Y126
Y125
X159
X16
Y126
Y127
Y128
Y129
X161
Y128
Y127
Y126
Y125
X159Y126
Y127
Y128
Y129
X157Y128
Y127
Y126
Y125
X1725
X1735
X1745
Y126
Y127
Y128
Y129
X1755
X1765
Y128
Y127
Y126
Y125
X1775
X1785
Y126
Y127
Y128
Y129
X1795
X1805
Y128
Y127
Y126
Y125
X1815
Y126
Y127
Y128
Y129
X1825
Y128
Y127
Y126
Y125
X1835
Y126
Y127
Y128
Y129
X1845
X1855
Y128
Y127
Y126
Y125
X1845
Y126
Y127
Y128
X1865
Y127
Y126
Y125
Y129
X1795Y128
Y127
Y126
Y125
X1775Y126
Y127
Y128
Y129
X1755Y128
Y127
Y126
Y125
X1735Y126
Y127
Y128
Y129
X1725
Y128
Y127
Y126
X1875
Y125
X1885
X1895
Y126
Y127
Y128
Y129
X1885
X1875
Y128
Y127
X1885
Y126
Y128
X1905
X1915
Y127
Y126
Y125
X1905
Y126
Y127
Y129
X1915
T03
X1353Y0823158
X1353Y0842842
X1330709Y0925197
X1330709Y0944882
X1330709Y0985433
X1330709Y1005118
X1330709Y1045276
X1330709Y1064961
T04
X1262Y097
Y103
X1332
Y097
T05
X186Y078
X184
X207Y0801
Y0811
Y0821
Y0831
Y0841
Y0851
Y0861
Y0871
X1999685Y0824
X1968189
X1929685
X1898189
X186Y082
Y081
Y08
Y079
X184
Y08
Y081
Y082
Y083
Y084
Y085
X186
Y084
Y083
X1835Y119
X1825
X1815
X171Y121
Y122
Y123
Y124
X163
Y123
Y122
Y121
X128Y12
Y119
Y118
Y117
Y116
X127
Y117
Y118
Y119
Y12
X136Y127
Y128
Y129
X138
Y128
Y127
X14
Y128
Y129
X163Y128
Y127
Y126
Y125
X171
Y126
Y127
Y128
T06
X1999Y077
X1989
X1910787
X1900787
T07
X199Y108
X198
X197
X192
X191
X19
X204
X205
X206
Y1139
X204
Y116
X205
X206
Y1219
X204
X199
X197
Y116
X198
X199
Y1139
X197
X192
X19
T08
X1698189Y0856811
X1618189
X1538189
X1458189
X1378189
X2038189Y1227811
X1968189
X1898189Y1147976
T09
X131Y078
X132Y079
X131Y081
X132Y083
X131Y084
X127Y083
Y079
X134Y087
Y092
Y098
Y104
T10
X1994764Y097063
X198
X1965236
X1924764
X191
X1895236
T11
X1721811Y0856811
X1641811
X1561811
X1481811
X1401811
X2061811Y1227811
X1991811
X1921811Y1147976
T12
X1325Y0745
X1355Y0775
X1385Y0805
X1875Y1185
T13
X2009Y075
X1969
X1920787
X1880787
T14
X2074Y11095
Y11895
X2026
X2004
X1956
Y11095
X1934
X1886
X2004
X2026
T15
X12775Y0745
X20645
X12775Y1276
X20645
T16
X2001654Y101
X1958346
X1931654
X1888346
M30
