%FSLAX25Y25*%
%MOIN*%
G70*
G01*
G75*
G04 Layer_Physical_Order=1*
G04 Layer_Color=255*
%ADD10R,0.07480X0.11024*%
%ADD11R,0.04724X0.05512*%
%ADD12R,0.00787X0.04724*%
%ADD13O,0.00787X0.04724*%
%ADD14O,0.01969X0.10630*%
%ADD15R,0.01969X0.10630*%
%ADD16R,0.03150X0.03543*%
%ADD17R,0.03543X0.03150*%
%ADD18O,0.07480X0.01575*%
%ADD19R,0.05709X0.01772*%
%ADD20O,0.05709X0.01772*%
%ADD21O,0.02400X0.08000*%
%ADD22R,0.08500X0.04200*%
%ADD23R,0.20000X0.32500*%
%ADD24R,0.07500X0.42500*%
%ADD25R,0.05906X0.05906*%
%ADD26C,0.03000*%
%ADD27C,0.00800*%
%ADD28C,0.05000*%
%ADD29C,0.00780*%
%ADD30C,0.08000*%
%ADD31C,0.02500*%
%ADD32R,0.40000X0.40000*%
%ADD33R,0.10000X0.50000*%
%ADD34R,0.09449X0.09449*%
%ADD35R,0.08268X0.11024*%
%ADD36R,1.60000X0.40000*%
%ADD37R,0.50000X0.10000*%
%ADD38R,0.14000X0.15000*%
%ADD39C,0.07000*%
%ADD40R,0.08000X0.08000*%
%ADD41C,0.08000*%
%ADD42C,0.05906*%
%ADD43C,0.07874*%
%ADD44C,0.17716*%
%ADD45C,0.05118*%
%ADD46R,0.05000X0.05000*%
%ADD47C,0.05000*%
%ADD48R,0.05906X0.05906*%
%ADD49C,0.14000*%
%ADD50C,0.05500*%
%ADD51C,0.11000*%
%ADD52C,0.10000*%
%ADD53C,0.06000*%
%ADD54C,0.12000*%
%ADD55R,0.06000X0.06000*%
%ADD56C,0.05512*%
%ADD57R,0.05315X0.05315*%
%ADD58C,0.05315*%
%ADD59C,0.03000*%
D10*
X2072638Y1250842D02*
D03*
Y1231157D02*
D03*
X2027362Y1250842D02*
D03*
Y1231157D02*
D03*
X1957362D02*
D03*
Y1250842D02*
D03*
X2002638Y1231157D02*
D03*
Y1250842D02*
D03*
X1732638Y879842D02*
D03*
Y860157D02*
D03*
X1687362Y879842D02*
D03*
Y860157D02*
D03*
X1887362Y1151323D02*
D03*
Y1171008D02*
D03*
X1932638Y1151323D02*
D03*
Y1171008D02*
D03*
X1652638Y879842D02*
D03*
Y860157D02*
D03*
X1607362Y879842D02*
D03*
Y860157D02*
D03*
X1527362D02*
D03*
Y879842D02*
D03*
X1572638Y860157D02*
D03*
Y879842D02*
D03*
X1492638D02*
D03*
Y860157D02*
D03*
X1447362Y879842D02*
D03*
Y860157D02*
D03*
X1367362D02*
D03*
Y879842D02*
D03*
X1412638Y860157D02*
D03*
Y879842D02*
D03*
D11*
X1894252Y831874D02*
D03*
X1902126Y816126D02*
D03*
X1917874D02*
D03*
X1925748Y831874D02*
D03*
X1995748D02*
D03*
X1987874Y816126D02*
D03*
X1972126D02*
D03*
X1964252Y831874D02*
D03*
D12*
X1417622Y1088063D02*
D03*
X1435339D02*
D03*
X1455024D02*
D03*
X1474709D02*
D03*
X1494394D02*
D03*
D13*
X1419591D02*
D03*
X1421559D02*
D03*
X1423528D02*
D03*
X1425496D02*
D03*
X1427465D02*
D03*
X1429433D02*
D03*
X1431402D02*
D03*
X1433370D02*
D03*
X1437307D02*
D03*
X1439276D02*
D03*
X1441244D02*
D03*
X1443213D02*
D03*
X1445181D02*
D03*
X1447150D02*
D03*
X1449118D02*
D03*
X1451087D02*
D03*
X1453055D02*
D03*
X1456992D02*
D03*
X1458961D02*
D03*
X1460929D02*
D03*
X1462898D02*
D03*
X1464866D02*
D03*
X1466835D02*
D03*
X1468803D02*
D03*
X1470772D02*
D03*
X1472740D02*
D03*
X1476677D02*
D03*
X1478646D02*
D03*
X1480614D02*
D03*
X1482583D02*
D03*
X1484551D02*
D03*
X1486520D02*
D03*
X1488488D02*
D03*
X1490457D02*
D03*
X1492425D02*
D03*
D14*
X1561307Y1089063D02*
D03*
X1557370D02*
D03*
X1553433D02*
D03*
X1549496D02*
D03*
X1545559D02*
D03*
D15*
X1541622D02*
D03*
D16*
X1912756Y808000D02*
D03*
X1907244D02*
D03*
X1977244D02*
D03*
X1982756D02*
D03*
X1919756Y902000D02*
D03*
X1914244D02*
D03*
X1815756Y841000D02*
D03*
X1810244D02*
D03*
X1309244Y730000D02*
D03*
X1314756D02*
D03*
X1803244Y1016000D02*
D03*
X1808756D02*
D03*
X1836756Y906000D02*
D03*
X1831244D02*
D03*
X1836756Y913000D02*
D03*
X1831244D02*
D03*
X1875756Y850000D02*
D03*
X1870244D02*
D03*
X1662244Y1055000D02*
D03*
X1667756D02*
D03*
X1662244Y1015000D02*
D03*
X1667756D02*
D03*
X1752756D02*
D03*
X1747244D02*
D03*
X1752756Y1054000D02*
D03*
X1747244D02*
D03*
X1692244Y1051000D02*
D03*
X1697756D02*
D03*
X1722756D02*
D03*
X1717244D02*
D03*
X1692244Y1040000D02*
D03*
X1697756D02*
D03*
X1722756Y1019000D02*
D03*
X1717244D02*
D03*
X1722756Y1030000D02*
D03*
X1717244D02*
D03*
X1944244Y1251000D02*
D03*
X1949756D02*
D03*
X2014244D02*
D03*
X2019756D02*
D03*
X1875756Y830000D02*
D03*
X1870244D02*
D03*
X1687756Y1040000D02*
D03*
X1682244D02*
D03*
X1720756Y1141000D02*
D03*
X1715244D02*
D03*
X1722756Y1040000D02*
D03*
X1717244D02*
D03*
X1727244D02*
D03*
X1732756D02*
D03*
X1654244Y931000D02*
D03*
X1659756D02*
D03*
X1728244D02*
D03*
X1733756D02*
D03*
X1971244Y905000D02*
D03*
X1976756D02*
D03*
X1914244Y910000D02*
D03*
X1919756D02*
D03*
X1976756Y912000D02*
D03*
X1971244D02*
D03*
X1560378Y1101063D02*
D03*
X1554866D02*
D03*
X1541866D02*
D03*
X1547378D02*
D03*
X1892756Y1187000D02*
D03*
X1887244D02*
D03*
D17*
X1910000Y952244D02*
D03*
Y957756D02*
D03*
X1978000Y944756D02*
D03*
Y939244D02*
D03*
X1912000Y937244D02*
D03*
Y942756D02*
D03*
X1778000Y852756D02*
D03*
Y847244D02*
D03*
X1803000Y853756D02*
D03*
Y848244D02*
D03*
X1778000Y834244D02*
D03*
Y839756D02*
D03*
X1979000Y952244D02*
D03*
Y957756D02*
D03*
X1895000Y952244D02*
D03*
Y957756D02*
D03*
X1925000Y952244D02*
D03*
Y957756D02*
D03*
X1797000Y1032244D02*
D03*
Y1037756D02*
D03*
X1599000Y1148244D02*
D03*
Y1153756D02*
D03*
X1420000Y1097244D02*
D03*
Y1102756D02*
D03*
X1427000Y1102756D02*
D03*
Y1097244D02*
D03*
X1485000Y1102756D02*
D03*
Y1097244D02*
D03*
X1475000Y1102756D02*
D03*
Y1097244D02*
D03*
X1419000Y787756D02*
D03*
Y782244D02*
D03*
X1426000D02*
D03*
Y787756D02*
D03*
X1433000D02*
D03*
Y782244D02*
D03*
X1497000Y777756D02*
D03*
Y772244D02*
D03*
X1504000Y772244D02*
D03*
Y777756D02*
D03*
X1511000D02*
D03*
Y772244D02*
D03*
X1830000Y852244D02*
D03*
Y857756D02*
D03*
X1971000Y939244D02*
D03*
Y944756D02*
D03*
X1679000Y1091756D02*
D03*
Y1086244D02*
D03*
X1599000Y994244D02*
D03*
Y999756D02*
D03*
X1735000Y1091756D02*
D03*
Y1086244D02*
D03*
Y978244D02*
D03*
Y983756D02*
D03*
X1680000Y978244D02*
D03*
Y983756D02*
D03*
X1708000Y1008244D02*
D03*
Y1013756D02*
D03*
X1715000Y1008244D02*
D03*
Y1013756D02*
D03*
Y1061756D02*
D03*
Y1056244D02*
D03*
X1700000Y1061756D02*
D03*
Y1056244D02*
D03*
X1690000Y1017244D02*
D03*
Y1022756D02*
D03*
X1700000Y1008244D02*
D03*
Y1013756D02*
D03*
X1332000Y992244D02*
D03*
Y997756D02*
D03*
X1965000Y952244D02*
D03*
Y957756D02*
D03*
X1995000D02*
D03*
Y952244D02*
D03*
X1332000Y1052244D02*
D03*
Y1057756D02*
D03*
X1340000Y802756D02*
D03*
Y797244D02*
D03*
X1340000Y817244D02*
D03*
Y822756D02*
D03*
X1332000Y932244D02*
D03*
Y937756D02*
D03*
X1708000Y1003756D02*
D03*
Y998244D02*
D03*
X1803000Y838756D02*
D03*
Y833244D02*
D03*
X1815000Y848244D02*
D03*
Y853756D02*
D03*
X1855000Y867244D02*
D03*
Y872756D02*
D03*
X1871000Y867244D02*
D03*
Y872756D02*
D03*
X1920000Y942756D02*
D03*
Y937244D02*
D03*
X1640000Y940244D02*
D03*
Y945756D02*
D03*
X1629000Y1130756D02*
D03*
Y1125244D02*
D03*
X1636000Y1130756D02*
D03*
Y1125244D02*
D03*
X1610000Y902756D02*
D03*
Y897244D02*
D03*
X1450000Y902756D02*
D03*
Y897244D02*
D03*
X1690000Y902756D02*
D03*
Y897244D02*
D03*
X1530000Y902756D02*
D03*
Y897244D02*
D03*
X1370000Y902756D02*
D03*
Y897244D02*
D03*
X1708000Y1066244D02*
D03*
Y1071756D02*
D03*
X1495000Y945244D02*
D03*
Y950756D02*
D03*
X1473000Y945244D02*
D03*
Y950756D02*
D03*
X1442000Y945244D02*
D03*
Y950756D02*
D03*
X1473000Y997756D02*
D03*
Y992244D02*
D03*
X1441000Y997756D02*
D03*
Y992244D02*
D03*
X1398000Y945244D02*
D03*
Y950756D02*
D03*
X1392000Y973756D02*
D03*
Y968244D02*
D03*
X1379000Y1120756D02*
D03*
Y1115244D02*
D03*
X1811000Y982244D02*
D03*
Y987756D02*
D03*
Y1087756D02*
D03*
Y1082244D02*
D03*
X1599000Y1068244D02*
D03*
Y1073756D02*
D03*
X1676000Y1127244D02*
D03*
Y1132756D02*
D03*
D18*
X1873425Y916000D02*
D03*
Y913441D02*
D03*
Y910882D02*
D03*
Y908323D02*
D03*
Y905764D02*
D03*
Y903205D02*
D03*
Y900646D02*
D03*
Y898087D02*
D03*
X1850000D02*
D03*
Y900646D02*
D03*
Y903205D02*
D03*
Y905764D02*
D03*
Y908323D02*
D03*
Y910882D02*
D03*
Y913441D02*
D03*
Y916000D02*
D03*
D19*
X1937000Y868000D02*
D03*
Y949000D02*
D03*
D20*
Y865441D02*
D03*
Y862882D02*
D03*
Y860323D02*
D03*
X1954323Y868000D02*
D03*
Y865441D02*
D03*
Y862882D02*
D03*
Y860323D02*
D03*
X1937000Y946441D02*
D03*
Y943882D02*
D03*
Y941323D02*
D03*
X1954323Y949000D02*
D03*
Y946441D02*
D03*
Y943882D02*
D03*
Y941323D02*
D03*
D21*
X1804000Y1024000D02*
D03*
X1809000D02*
D03*
X1814000D02*
D03*
X1819000Y1046000D02*
D03*
X1814000D02*
D03*
X1809000D02*
D03*
X1804000D02*
D03*
X1819000Y1024000D02*
D03*
D22*
X1320000Y1010000D02*
D03*
Y990000D02*
D03*
Y1000000D02*
D03*
Y950000D02*
D03*
Y930000D02*
D03*
Y940000D02*
D03*
Y1070000D02*
D03*
Y1050000D02*
D03*
Y1060000D02*
D03*
D23*
X1282000Y1000000D02*
D03*
Y940000D02*
D03*
Y1060000D02*
D03*
D24*
X1268500Y1000000D02*
D03*
Y940000D02*
D03*
Y1060000D02*
D03*
D25*
X1903110Y1187000D02*
D03*
X1916890D02*
D03*
X1835000Y1190000D02*
D03*
D26*
X1932220Y930780D02*
X1968566D01*
X1932123Y930877D02*
X1932220Y930780D01*
X1931877Y930877D02*
X1932123D01*
X1970780Y912000D02*
X1971244D01*
X1970780D02*
Y928566D01*
X1963000Y923000D02*
X1967000Y927000D01*
X1968566Y930780D02*
X1970780Y928566D01*
X1945000Y923000D02*
X1963000D01*
X1893000Y918000D02*
X1903000Y908000D01*
X1931877Y930877D02*
X1936000Y935000D01*
X1926000Y925000D02*
X1931877Y930877D01*
X1954000Y937000D02*
X1955000Y936000D01*
X1965000D01*
X1817000Y848000D02*
X1826756Y857756D01*
X1830000D01*
X1828000Y788000D02*
X1840000Y800000D01*
X1612000Y788000D02*
X1828000D01*
X1840000Y780000D02*
X1849000Y771000D01*
X1860000D01*
X1929457Y851000D02*
Y868457D01*
X1933000Y872000D01*
X1939441D01*
X1948000Y880559D01*
Y888000D01*
X1926000Y910000D02*
X1948000Y888000D01*
X1926000Y910000D02*
Y925000D01*
X1816000Y854000D02*
X1824000Y862000D01*
X1830000Y857756D02*
Y880654D01*
X1812220Y898434D02*
X1830000Y880654D01*
X1812220Y901566D02*
X1816654Y906000D01*
X1831244D01*
X1812220Y898434D02*
Y901566D01*
X1873000Y917000D02*
Y921000D01*
X1982244Y949000D02*
X1989000D01*
X1979000Y952244D02*
X1982244Y949000D01*
X1910000Y952244D02*
X1916756D01*
X1926000Y899346D02*
Y903000D01*
Y899346D02*
X1943000Y882346D01*
Y882000D02*
Y882346D01*
X1964000Y885000D02*
Y903000D01*
X1954000Y875000D02*
X1964000Y885000D01*
X1800000Y931000D02*
X1805000Y926000D01*
X1791000Y931000D02*
X1800000D01*
X1809000Y943000D02*
X1816000Y936000D01*
X1791000Y931000D02*
X1811000Y951000D01*
X1780000Y931000D02*
X1791000D01*
X1914244Y891244D02*
Y902000D01*
X1831244Y918590D02*
X1837654Y925000D01*
X1831244Y913000D02*
Y918590D01*
X1837654Y925000D02*
X1865000D01*
X1976756Y891756D02*
Y905000D01*
Y912000D01*
X1914244Y902000D02*
Y910000D01*
X1940000Y840000D02*
X1947000Y847000D01*
X1945000Y977000D02*
X1998000D01*
X2000981Y974019D01*
Y957166D02*
Y974019D01*
X1997716Y953901D02*
X2000981Y957166D01*
X1996657Y953901D02*
X1997716D01*
X1995000Y952244D02*
X1996657Y953901D01*
X1935153Y976847D02*
X1959756Y952244D01*
X1891847Y976847D02*
X1935153D01*
X1889019Y974019D02*
X1891847Y976847D01*
X1889019Y957166D02*
Y974019D01*
Y957166D02*
X1892284Y953901D01*
X1893343D01*
X1895000Y952244D01*
X1925000D02*
X1929756D01*
X1959756Y952244D02*
X1965000D01*
X1831244Y906000D02*
Y913000D01*
X1554000Y730000D02*
X1612000Y788000D01*
X1314756Y730000D02*
X1554000D01*
X1310000Y730756D02*
Y780000D01*
X1412638Y802017D02*
X1421654Y793000D01*
X1698000Y1017000D02*
X1699000Y1016000D01*
X1692000Y1023000D02*
X1698000Y1017000D01*
X1666000Y1023000D02*
X1681000D01*
X1627000D02*
X1666000D01*
X1681000D02*
X1685000D01*
X1692000D01*
X1630000Y1033000D02*
X1663000D01*
X1670000Y1040000D01*
X1302000Y877000D02*
X1310000Y885000D01*
X1302000Y818000D02*
Y877000D01*
Y818000D02*
X1310000Y810000D01*
X1600000Y902756D02*
X1610000D01*
X1530000D02*
X1600000D01*
X1605756Y924756D02*
Y940244D01*
X1595000Y1043000D02*
X1620000D01*
X1625000Y1038000D01*
X1450000Y902756D02*
X1475000D01*
Y758936D02*
X1503849D01*
X1441974D02*
X1475000D01*
Y787000D01*
Y799000D02*
Y865000D01*
Y875000D02*
Y902756D01*
X1426000Y782244D02*
X1428000Y780244D01*
Y773256D02*
Y780244D01*
X1504000Y767686D02*
X1506064Y765622D01*
X1504000Y767686D02*
Y772244D01*
X1497000Y777756D02*
X1504000D01*
X1428000Y772910D02*
X1441974Y758936D01*
X1506064Y761151D02*
Y765622D01*
X1428000Y772910D02*
Y773256D01*
X1503849Y758936D02*
X1506064Y761151D01*
X1433000Y793000D02*
X1504000D01*
X1426000D02*
X1433000D01*
Y787756D02*
Y793000D01*
X1419000Y790346D02*
X1421654Y793000D01*
X1419000Y787756D02*
Y790346D01*
X1463000Y965000D02*
X1475000D01*
X1454000Y988000D02*
Y992315D01*
X1488315Y988315D02*
Y992315D01*
X1441000Y997756D02*
X1473000D01*
X1472567Y998189D02*
Y1003567D01*
X1441000Y997756D02*
Y1003859D01*
X1441070Y1003930D01*
X1426000Y985165D02*
X1438590Y997756D01*
X1441000D01*
X1392000Y944000D02*
Y968244D01*
X1811000Y1069000D02*
X1818000D01*
X1826260Y1060740D01*
Y1016914D02*
Y1060740D01*
X1821189Y1011843D02*
X1826260Y1016914D01*
X1821189Y1009189D02*
Y1011843D01*
X1811000Y1062000D02*
X1822480Y1050520D01*
Y1041759D02*
Y1050520D01*
X1819000Y1038278D02*
X1822480Y1041759D01*
X1819000Y1026721D02*
Y1038278D01*
X1817189Y1009189D02*
X1821189D01*
X1811000Y987535D02*
Y987756D01*
X1805535Y953646D02*
Y987535D01*
X1733536Y931000D02*
X1733756D01*
X1733536Y937464D02*
X1733756Y937244D01*
X1733189Y937811D02*
X1733536Y937464D01*
X1659536Y931000D02*
X1659756D01*
X1659536Y938464D02*
X1659756Y938244D01*
X1657756Y940244D02*
X1659536Y938464D01*
X1755189Y937811D02*
X1789701D01*
X1755189Y931000D02*
Y937811D01*
X1733756Y931000D02*
X1755189D01*
X1733756D02*
Y937244D01*
X1681189Y937811D02*
X1733189D01*
X1681189Y931000D02*
Y937811D01*
X1659756Y931000D02*
X1681189D01*
X1659756D02*
Y938244D01*
X1640000Y940244D02*
X1657756D01*
X1605756D02*
X1640000D01*
X1605756D02*
Y999756D01*
X1599000D02*
X1605756D01*
X1636000Y1135000D02*
X1693811D01*
X1605000D02*
X1636000D01*
Y1130756D02*
Y1135000D01*
X1629000Y1130756D02*
Y1133600D01*
X1715244Y1141000D02*
X1715464D01*
X1693811D02*
X1715244D01*
X1693811Y1135000D02*
Y1141000D01*
X1605000Y1095465D02*
Y1135000D01*
X1599000Y1095465D02*
X1605000D01*
X1504252Y793252D02*
Y827252D01*
X1504000Y777756D02*
Y793000D01*
X1426000Y787756D02*
Y793000D01*
X1421654D02*
X1426000D01*
X1412638Y802017D02*
Y860157D01*
X1407400Y1290000D02*
X1420000D01*
X1402168Y1295233D02*
X1407400Y1290000D01*
X1357833Y1295233D02*
X1402168D01*
X1354767Y1292167D02*
X1357833Y1295233D01*
X1354767Y1285233D02*
Y1292167D01*
X1274767Y1205233D02*
X1354767Y1285233D01*
X1308000Y1218000D02*
X1320000Y1206000D01*
Y1145000D02*
Y1206000D01*
X1610000Y1200000D02*
X1725000D01*
X1709000Y1290000D02*
X1725000D01*
X1698780Y1279780D02*
X1709000Y1290000D01*
X1698780Y1254348D02*
Y1279780D01*
X1697152Y1252720D02*
X1698780Y1254348D01*
X1644848Y1252720D02*
X1697152D01*
X1643220Y1254348D02*
X1644848Y1252720D01*
X1643220Y1254348D02*
Y1275910D01*
X1629130Y1290000D02*
X1643220Y1275910D01*
X1610000Y1290000D02*
X1629130D01*
X1932638Y1151323D02*
Y1171008D01*
Y1150000D02*
Y1151323D01*
X1610000Y902756D02*
X1690000D01*
X1617566Y1038780D02*
X1621000Y1035346D01*
X1616220Y1038780D02*
X1617566D01*
X1616000Y1039000D02*
X1616220Y1038780D01*
X1595000Y1021464D02*
X1599000D01*
X1591536D02*
X1595000D01*
X1599000D02*
X1605536D01*
X1595000D02*
Y1031000D01*
X1599000Y1073811D02*
X1606000D01*
X1597897D02*
X1599000D01*
X1597841Y1073756D02*
X1597897Y1073811D01*
X1594948Y1070863D02*
X1597841Y1073756D01*
X1592055D02*
X1597841D01*
X1594948Y1055052D02*
Y1070863D01*
Y1055052D02*
X1595000Y1055000D01*
X1379000Y1121433D02*
Y1143087D01*
X1379678Y1121433D02*
X1386000D01*
Y1111000D02*
Y1121433D01*
X1410000Y1103000D02*
X1419756D01*
X1386000Y949000D02*
Y1005000D01*
X1375000Y955000D02*
Y1008000D01*
X1399000Y1088000D02*
X1415000D01*
X1380000Y949000D02*
Y1005000D01*
X1340000Y980000D02*
X1373000Y1013000D01*
X1835000Y1190000D02*
Y1200000D01*
X1492638Y870000D02*
X1572638D01*
X1370244Y903000D02*
X1415000D01*
X1910000Y1070000D02*
X1930000D01*
X2015000Y1241000D02*
X2072638D01*
X2002638D02*
X2015000D01*
X2025000Y1150000D02*
X2050000D01*
X1980000D02*
X2005000D01*
X2075201Y1260756D02*
X2078658Y1257299D01*
X2014244Y1260756D02*
X2075201D01*
X2072638Y1241000D02*
Y1250843D01*
Y1231157D02*
Y1241000D01*
X2002638D02*
Y1250843D01*
Y1231157D02*
Y1241000D01*
X1944244Y1251000D02*
Y1261756D01*
X1945000Y1260756D02*
X2014244D01*
Y1251000D02*
Y1260756D01*
X1915000Y1290000D02*
X1944244Y1260756D01*
X1797075Y1032169D02*
X1813552D01*
X1797000Y1032244D02*
X1797075Y1032169D01*
X1797000Y1037756D02*
X1804000Y1044756D01*
X1923843Y1171008D02*
X1932638D01*
X1923000Y1170165D02*
X1923843Y1171008D01*
X1274767Y1205233D02*
X1280000Y1200000D01*
X1262560Y1201690D02*
X1266103Y1205233D01*
X1262560Y1170000D02*
Y1201690D01*
X1266103Y1205233D02*
X1274767D01*
X1340000Y920000D02*
Y930815D01*
X1334716Y936099D02*
X1340000Y930815D01*
Y1040000D02*
Y1050815D01*
X1334716Y1056099D02*
X1340000Y1050815D01*
X1333657Y1056099D02*
X1334716D01*
X1332000Y1057756D02*
X1333657Y1056099D01*
X1329756Y1060000D02*
X1332000Y1057756D01*
X1320000Y1060000D02*
X1329756D01*
X1329756Y1050000D02*
X1332000Y1052244D01*
X1320000Y1050000D02*
X1329756D01*
X1329756Y1000000D02*
X1332000Y997756D01*
X1320000Y1000000D02*
X1329756D01*
X1329756Y990000D02*
X1332000Y992244D01*
X1320000Y990000D02*
X1329756D01*
Y940000D02*
X1332000Y937756D01*
X1320000Y940000D02*
X1329756D01*
X1311000Y930000D02*
X1320000D01*
X1310000Y990000D02*
Y1040000D01*
Y990000D02*
X1320000D01*
X1327244Y797244D02*
X1340000D01*
X1320000Y790000D02*
X1327244Y797244D01*
X1312756Y842756D02*
X1340000D01*
X1310000Y840000D02*
X1312756Y842756D01*
X1310000Y780000D02*
Y810000D01*
X1317244Y817244D02*
X1340000D01*
X1310000Y810000D02*
X1317244Y817244D01*
X1310000Y1040000D02*
X1320000Y1050000D01*
X1732638Y870000D02*
Y879843D01*
Y860157D02*
Y870000D01*
X1652638D02*
X1732638D01*
X1652638D02*
Y879843D01*
Y860157D02*
Y870000D01*
X1572638D02*
Y879843D01*
Y860157D02*
Y870000D01*
X1492638D02*
Y879843D01*
Y860157D02*
Y870000D01*
X1412638D02*
Y879843D01*
Y860157D02*
Y870000D01*
X1427000D02*
X1492638D01*
X1426244Y902756D02*
X1450000D01*
X1340000Y814849D02*
Y817244D01*
Y802756D02*
Y814849D01*
X1340000Y817244D02*
X1340000Y817244D01*
X1320000Y830000D02*
X1327244Y822756D01*
X1340000D01*
X1595000Y870000D02*
Y895000D01*
X1599000Y1055000D02*
Y1061000D01*
X1572638Y870000D02*
X1595000D01*
X1652638D01*
X1813552Y1032169D02*
X1819000Y1026721D01*
Y1015000D02*
Y1024000D01*
Y1026721D01*
X1910000Y1070000D02*
Y1080000D01*
X1960000Y1070000D02*
X1980000D01*
X2050000D01*
Y1080000D01*
Y1150000D01*
Y1160000D01*
X1980000Y1150000D02*
Y1160000D01*
X1932638Y1150000D02*
X1980000D01*
X2015000Y1190000D02*
Y1241000D01*
X2078658Y1217658D02*
Y1257299D01*
X1980000Y1070000D02*
Y1080000D01*
X1332000Y997756D02*
X1333657Y996099D01*
X1340000Y980000D02*
Y990815D01*
X1334716Y996099D02*
X1340000Y990815D01*
X1333657Y996099D02*
X1334716D01*
X1332000Y937756D02*
X1333657Y936099D01*
X1334716D01*
X1320000Y930000D02*
X1329756D01*
X1332000Y932244D01*
X1310000Y885000D02*
Y990000D01*
X1340000Y920000D02*
X1375000Y955000D01*
X1599000Y1105000D02*
Y1114870D01*
X1420000Y1200000D02*
X1505130Y1114870D01*
X1379000Y1161000D02*
Y1188000D01*
X1551000Y1101185D02*
Y1114870D01*
X1599000D01*
X1547378Y1101063D02*
X1554866D01*
X1310000Y1070000D02*
X1320000D01*
X1379000Y1110000D02*
Y1115244D01*
X1599000Y1073811D02*
Y1095465D01*
Y999811D02*
Y1021464D01*
X1811000Y1069000D02*
Y1082189D01*
X1599000Y1061000D02*
Y1068244D01*
Y988000D02*
Y994244D01*
X1648000Y931000D02*
X1654244D01*
X1722000D02*
X1728244D01*
X1811000Y976000D02*
Y982244D01*
Y1087756D02*
Y1094000D01*
X1720756Y1141000D02*
X1727000D01*
X1329756Y1060000D02*
Y1078189D01*
X1373000Y1121433D01*
X1378322D01*
X1262560Y1145385D02*
Y1170000D01*
Y1145385D02*
X1329756Y1078189D01*
X1340000Y842756D02*
Y870000D01*
X1814000Y1012189D02*
Y1024000D01*
X1811000Y1009189D02*
X1814000Y1012189D01*
X1811000Y987756D02*
Y1009189D01*
X1795343Y1036099D02*
X1797000Y1037756D01*
X1794284Y1036099D02*
X1795343D01*
X1792948Y1034763D02*
X1794284Y1036099D01*
X1792948Y1032190D02*
Y1034763D01*
X1791000Y1030242D02*
X1792948Y1032190D01*
X1791000Y1030000D02*
Y1030242D01*
X1786000Y1025000D02*
X1801811Y1009189D01*
X1811000D02*
X1817189D01*
X1801811D02*
X1804811D01*
X1811000D01*
X1804000Y1046000D02*
X1809000D01*
X1645000Y971000D02*
X1650366Y976366D01*
X1627000Y1028000D02*
X1668000D01*
X1680000Y1040000D01*
X1320000Y1010000D02*
X1332000Y1022000D01*
Y1030000D01*
X1320000Y950000D02*
X1332000Y962000D01*
Y970000D01*
X1340000Y814849D02*
X1348308Y823158D01*
X1353000D01*
X1340000Y842756D02*
X1352913D01*
X1353000Y823158D02*
X1399842Y870000D01*
X1412638D01*
X1599000Y1114870D02*
Y1136000D01*
Y1153756D02*
Y1153811D01*
Y1167000D01*
Y1136000D02*
Y1148244D01*
X1605000Y1135000D02*
Y1153622D01*
X1604811Y1153811D02*
X1605000Y1153622D01*
X1592811Y1153811D02*
X1599000D01*
X1604811D01*
X1789701Y937811D02*
X1794890Y943000D01*
X1805535Y953646D01*
X1932638Y1171008D02*
Y1182362D01*
X1915000Y1200000D02*
X1932638Y1182362D01*
X1916890Y1187000D02*
X1920000D01*
Y1185346D02*
X1923780Y1181566D01*
Y1176780D02*
Y1181566D01*
X1919000Y1172000D02*
X1923780Y1176780D01*
X1919000Y1165409D02*
Y1172000D01*
X1912756Y1159165D02*
X1919000Y1165409D01*
X1912756Y1153000D02*
Y1159165D01*
X1920000Y1185346D02*
Y1187000D01*
X1616000Y1035000D02*
X1621000Y1030000D01*
X1373000Y1029000D02*
X1373309D01*
X1520309Y1024000D02*
X1529000D01*
X1521654Y1028000D02*
X1526000D01*
X1373000Y1013000D02*
Y1029000D01*
X1375000Y1008000D02*
X1377000Y1010000D01*
Y1027346D01*
X1379000Y1143087D02*
X1386000D01*
Y1154000D01*
X1505130Y1114870D02*
X1551000D01*
X1485000Y1166000D02*
X1532000Y1119000D01*
X1340000Y1040000D02*
X1378963D01*
X1392000Y973756D02*
X1393764D01*
X1398000Y969520D01*
X1392000Y973756D02*
Y996441D01*
X1475000Y902756D02*
X1530000D01*
X1505529Y1038780D02*
X1520309Y1024000D01*
X1377000Y1027346D02*
X1388434Y1038780D01*
X1507094Y1042560D02*
X1521654Y1028000D01*
X1373309Y1029000D02*
X1386869Y1042560D01*
X1508660Y1046340D02*
X1523000Y1032000D01*
X1378963Y1040000D02*
X1385303Y1046340D01*
X1508660D01*
X1386869Y1042560D02*
X1507094D01*
X1388434Y1038780D02*
X1505529D01*
X1534000Y1043000D02*
X1595000D01*
X1537000Y1039000D02*
X1616000D01*
X1540000Y1035000D02*
X1616000D01*
X1340000Y870000D02*
Y892000D01*
X1392000Y944000D01*
X1396756D01*
X1398000Y945244D01*
X1392000Y933000D02*
Y944000D01*
X1398000Y950756D02*
Y956000D01*
Y969520D01*
X1495000Y945244D02*
X1500244D01*
X1504000Y949000D02*
Y957008D01*
X1500244Y945244D02*
X1502000Y947000D01*
X1504000Y949000D01*
X1492071Y953685D02*
X1495000Y950756D01*
X1473000D02*
X1475929Y953685D01*
X1473000Y945244D02*
X1495000D01*
X1442000D02*
X1473000D01*
X1426000Y965000D02*
X1463000D01*
X1426000D02*
Y985165D01*
X1442000Y950756D02*
X1455000D01*
X1473000D01*
X1442000Y992315D02*
X1454000D01*
X1488315D01*
Y954072D02*
Y988315D01*
X1475929Y953685D02*
X1492071D01*
X1412638Y879843D02*
X1420000Y887205D01*
X1441457Y939543D02*
Y944701D01*
X1442000D01*
X1420000Y887205D02*
Y919686D01*
X1392000Y933000D02*
X1399780Y925220D01*
X1420189D01*
X1426000Y931031D02*
Y965000D01*
X1420000Y919686D02*
X1437000Y936686D01*
Y946815D01*
X1440941Y950756D01*
X1420189Y925220D02*
X1426000Y931031D01*
X1430000Y956000D02*
X1435697D01*
X1440941Y950756D01*
X1811000Y1082244D02*
X1817134D01*
Y1118134D01*
X1821000Y1122000D01*
D27*
X1913580Y916370D02*
X1934890Y937680D01*
X1913580Y914790D02*
Y916370D01*
X1938148Y869148D02*
X1940379D01*
X1937000Y868000D02*
X1938148Y869148D01*
X1940379D02*
X1958000Y886769D01*
Y912000D01*
X1912000Y921000D02*
Y937244D01*
Y921000D02*
X1919000Y928000D01*
X1912000Y917000D02*
Y921000D01*
X1908000Y904000D02*
Y909210D01*
X1913580Y914790D01*
X1908000Y913000D02*
X1912000Y917000D01*
Y937244D02*
X1920000D01*
X1941034Y943026D02*
Y950966D01*
X1939824Y941816D02*
X1941034Y943026D01*
X1938247Y937680D02*
X1944449Y943882D01*
X1954323D01*
X1934890Y937680D02*
X1938247D01*
X1937493Y941816D02*
X1939824D01*
X1933882Y943882D02*
X1937000D01*
X1931000Y941000D02*
X1933882Y943882D01*
X1932966Y945948D02*
X1936507D01*
X1924262Y937244D02*
X1932966Y945948D01*
X1920000Y937244D02*
X1924262D01*
X1931000Y938000D02*
Y941000D01*
X1936507Y945948D02*
X1937000Y946441D01*
X1778000Y839756D02*
X1781756D01*
X1784000Y842000D01*
X1782244Y834244D02*
X1785000Y837000D01*
X1778000Y834244D02*
X1782244D01*
X1778000Y847244D02*
X1783756D01*
X1778000Y852756D02*
X1783756D01*
X1830000Y846000D02*
Y852244D01*
X1816000Y900000D02*
X1830756D01*
X1836756Y906000D01*
X1959677Y941323D02*
X1965000Y936000D01*
X1954323Y941323D02*
X1959677D01*
X1898680Y907320D02*
X1908000Y898000D01*
X1881890Y907320D02*
X1898680D01*
X1873449Y905740D02*
X1895729D01*
X1873425Y903205D02*
X1896030D01*
X1912250Y886984D01*
X1895729Y905740D02*
X1912905Y888564D01*
X1873425Y905764D02*
X1873449Y905740D01*
X1880320Y908890D02*
Y912281D01*
X1877193Y915408D02*
X1880320Y912281D01*
Y908890D02*
X1881890Y907320D01*
X1874017Y915408D02*
X1877193D01*
X1873425Y916000D02*
X1874017Y915408D01*
X1873425Y900646D02*
X1896354D01*
X1911596Y885404D01*
X1873000Y921000D02*
X1873425Y920575D01*
X1875756Y850000D02*
X1882000D01*
X1875756Y830000D02*
X1882000D01*
X1912905Y888564D02*
X1916758D01*
X1912250Y886984D02*
X1918984D01*
X1911596Y885404D02*
X1924404D01*
X1925000Y884808D01*
X1918984Y886984D02*
X1922000Y890000D01*
X1966362Y943882D02*
X1971000Y939244D01*
X1954323Y943882D02*
X1966362D01*
X1971000Y939244D02*
X1978000D01*
X1969315Y946441D02*
Y948315D01*
X1971000Y950000D01*
X1871000Y882000D02*
X1874000Y885000D01*
X1871000Y872756D02*
Y882000D01*
X1883000Y913756D02*
X1912000Y942756D01*
X1883000Y910000D02*
Y913756D01*
X1855756Y872756D02*
X1868000Y885000D01*
X1855000Y872756D02*
X1855756D01*
X1852000Y888000D02*
X1886000D01*
X1843500Y896500D02*
X1852000Y888000D01*
X1845080Y897272D02*
X1850352Y892000D01*
X1890000D01*
X1843500Y896500D02*
Y899881D01*
X1846232Y902613D01*
Y900054D02*
X1849408D01*
X1845080Y898902D02*
X1846232Y900054D01*
X1845080Y897272D02*
Y898902D01*
X1846232Y902613D02*
X1849408D01*
X1850000Y903205D01*
X1850592Y898678D02*
X1853768D01*
X1850000Y898087D02*
X1850592Y898678D01*
X1849408Y900054D02*
X1850000Y900646D01*
X1875512Y896000D02*
X1894000D01*
X1873425Y898087D02*
X1875512Y896000D01*
X1916758Y888564D02*
X1923194Y895000D01*
X1925000D01*
X1873425Y916000D02*
Y920575D01*
X1837000Y913244D02*
Y919000D01*
X1983000Y897000D02*
Y912000D01*
X1978000Y917000D02*
X1983000Y912000D01*
X1964000Y909000D02*
X1967000Y912000D01*
X1971244D01*
X1969244Y903000D02*
X1971244Y905000D01*
X1964000Y903000D02*
X1969244D01*
X1958000Y912000D02*
X1964000Y918000D01*
X1919756Y910000D02*
X1926000D01*
X1919756Y902000D02*
X1925000D01*
X1926000Y903000D01*
X1978000Y917000D02*
Y939244D01*
X1979000Y957756D02*
X1984756D01*
X1985000Y958000D01*
X1937000Y865441D02*
Y868000D01*
X1970000Y878787D02*
Y889000D01*
X1957147Y865934D02*
X1970000Y878787D01*
X1954816Y865934D02*
X1957147D01*
X1954323Y865441D02*
X1954816Y865934D01*
X1954323Y862882D02*
Y865441D01*
X1932966Y855244D02*
Y861178D01*
Y855244D02*
X1937000Y851210D01*
Y838331D02*
Y851210D01*
X1934176Y862389D02*
X1936507D01*
X1932966Y861178D02*
X1934176Y862389D01*
X1934479Y835810D02*
X1937000Y838331D01*
X1922897Y835810D02*
X1934479D01*
X1917874Y830787D02*
X1922897Y835810D01*
X1917874Y816126D02*
Y830787D01*
X1929126Y831874D02*
X1937000Y824000D01*
X1925748Y831874D02*
X1929126D01*
X1967180Y836820D02*
X1987874Y816126D01*
X1954511Y836820D02*
X1967180D01*
X1953820Y837511D02*
X1954511Y836820D01*
X1953820Y837511D02*
Y859820D01*
X1954323Y860323D01*
X1937000Y855000D02*
Y860323D01*
X1954323Y868000D02*
Y874677D01*
X1954000Y875000D02*
X1954323Y874677D01*
X1972126Y808000D02*
Y816126D01*
Y797214D02*
Y808000D01*
X1977244D01*
X1999000Y770000D02*
Y770340D01*
X1972126Y797214D02*
X1999000Y770340D01*
X1910787Y770000D02*
Y804457D01*
X1907244Y808000D02*
X1910787Y804457D01*
X1902126Y813118D02*
X1907244Y808000D01*
X1902126Y813118D02*
Y816126D01*
X1934176Y943389D02*
X1936507D01*
X1937000Y943882D01*
Y941323D02*
X1937493Y941816D01*
X1939756Y952244D02*
X1941034Y950966D01*
X1926244Y949000D02*
X1937000D01*
X1920000Y942756D02*
X1926244Y949000D01*
X1929756Y952244D02*
X1939756D01*
X1971000Y944756D02*
X1978000D01*
X1969315Y946441D02*
X1971000Y944756D01*
X1954323Y946441D02*
X1969315D01*
X1912000Y942756D02*
X1920000D01*
X1995000Y957756D02*
Y970394D01*
X1895000Y957756D02*
Y970394D01*
X1957567Y952244D02*
X1959756D01*
X1954323Y949000D02*
X1957567Y952244D01*
X1979000Y957756D02*
Y969630D01*
X1965000Y957756D02*
Y970394D01*
X1925000Y957756D02*
Y970394D01*
X1910000Y957756D02*
Y970630D01*
X1854920Y899831D02*
X1861831D01*
X1850000Y910882D02*
Y913441D01*
Y916000D01*
Y910882D02*
X1853176D01*
X1854920Y909138D01*
Y899831D02*
Y909138D01*
X1853768Y898678D02*
X1854920Y899831D01*
X1841433Y908323D02*
X1850000D01*
X1836756Y913000D02*
X1841433Y908323D01*
X1836756Y906000D02*
X1849764D01*
X1851000Y863244D02*
X1855000Y867244D01*
X1851000Y862000D02*
Y863244D01*
X1871000Y867244D02*
X1873000Y865244D01*
Y862000D02*
Y865244D01*
X1830000Y820000D02*
X1840000Y810000D01*
X1830000Y820000D02*
Y841000D01*
X1861735Y830000D02*
X1870244D01*
X1861735D02*
X1864133Y827602D01*
X1855867Y835867D02*
X1861735Y830000D01*
X1860000Y811734D02*
X1864133Y815867D01*
Y827602D01*
X1855867Y835867D02*
Y841712D01*
X1860000Y845845D01*
Y850000D01*
X1860000Y850000D02*
X1870244D01*
X1964000Y820000D02*
Y831622D01*
X1964252Y831874D01*
X1987874Y813118D02*
Y816126D01*
X1982756Y808000D02*
X1987874Y813118D01*
X1917874Y813118D02*
Y816126D01*
X1912756Y808000D02*
X1917874Y813118D01*
X1995748Y831874D02*
X1999126D01*
X2007000Y824000D01*
X1894000Y820000D02*
Y831622D01*
X1651000Y1010000D02*
X1651323Y1010323D01*
X1658677D01*
X1656000Y1018000D02*
X1657000D01*
X1811000Y987535D02*
X1817465D01*
X1805535D02*
X1811000D01*
X1733536Y925536D02*
Y931000D01*
X1591811Y999811D02*
X1599000D01*
X1659536Y925536D02*
Y931000D01*
X1693811Y1134189D02*
Y1135000D01*
X1505488Y772244D02*
X1511000Y777756D01*
X1504000Y772244D02*
X1505488D01*
X1486520Y1085000D02*
Y1088063D01*
Y1085000D02*
X1490260Y1081260D01*
X1472740D02*
Y1088063D01*
X1379000Y1121433D02*
X1379678D01*
X1378322D02*
X1379000D01*
X1458961Y1088063D02*
X1460929D01*
X1456992D02*
X1458961D01*
X1443213D02*
X1445181D01*
X1441244D02*
X1443213D01*
X1471424Y1084520D02*
X1472345Y1085442D01*
X1462246Y1084520D02*
X1471424D01*
X1461324Y1085442D02*
X1462246Y1084520D01*
X1461324Y1085442D02*
Y1087668D01*
X1460929Y1088063D02*
X1461324Y1087668D01*
X1456597D02*
X1456992Y1088063D01*
X1456597Y1085212D02*
Y1087668D01*
X1455906Y1084520D02*
X1456597Y1085212D01*
X1446498Y1084520D02*
X1455906D01*
X1445576Y1085442D02*
X1446498Y1084520D01*
X1445576Y1085442D02*
Y1087668D01*
X1445181Y1088063D02*
X1445576Y1087668D01*
X1440849D02*
X1441244Y1088063D01*
X1440849Y1085442D02*
Y1087668D01*
X1439927Y1084520D02*
X1440849Y1085442D01*
X1430750Y1084520D02*
X1439927D01*
X1429828Y1085442D02*
X1430750Y1084520D01*
X1429828Y1085442D02*
Y1087668D01*
X1429433Y1088063D02*
X1429828Y1087668D01*
X1421948Y1085449D02*
Y1087674D01*
X1421559Y1088063D02*
X1421948Y1087674D01*
X1425108Y1085449D02*
Y1087674D01*
X1424179Y1084520D02*
X1425108Y1085449D01*
X1421948D02*
X1422876Y1084520D01*
X1424179D01*
X1423528Y1099284D02*
X1427000Y1102756D01*
X1423528Y1088063D02*
Y1099284D01*
X1427465Y1088063D02*
X1429433D01*
X1425496D02*
X1427465D01*
X1427000Y1097244D02*
X1427465Y1096779D01*
Y1088063D02*
Y1096779D01*
X1415000Y1088000D02*
X1417560D01*
X1417622Y1088063D01*
X1373000Y1143087D02*
X1379000D01*
X1592000Y1095465D02*
X1599000D01*
X1681189Y925811D02*
Y931000D01*
X1755189Y925811D02*
Y931000D01*
X1805331Y1069000D02*
X1811000D01*
X1693811Y1141000D02*
Y1146189D01*
X1715464Y1141000D02*
Y1146536D01*
X1591811Y988811D02*
Y999811D01*
X1648536Y925536D02*
X1659536D01*
X1691811Y925811D02*
X1692000Y926000D01*
X1681189Y925811D02*
X1691811D01*
X1715464Y1134536D02*
X1726464D01*
X1715464D02*
Y1141000D01*
X1593000Y1096465D02*
Y1105000D01*
X1592000Y1095465D02*
X1593000Y1096465D01*
Y1167000D02*
X1599000D01*
X1604000D01*
X1592811Y1142189D02*
Y1153811D01*
X1742314Y1120000D02*
Y1158686D01*
X1737000Y1164000D02*
X1742314Y1158686D01*
X1746094Y1120000D02*
Y1157689D01*
X1738204Y1165580D02*
X1746094Y1157689D01*
X1749874Y1120000D02*
Y1156693D01*
X1739408Y1167160D02*
X1749874Y1156693D01*
X1753654Y1120000D02*
Y1155697D01*
X1638000Y1164000D02*
X1737000D01*
X1630928Y1156929D02*
X1638000Y1164000D01*
X1636796Y1165580D02*
X1738204D01*
X1628248Y1157032D02*
X1636796Y1165580D01*
X1635592Y1167160D02*
X1739408D01*
X1626857Y1158424D02*
X1635592Y1167160D01*
X1740612Y1168740D02*
X1753654Y1155697D01*
X1634388Y1168740D02*
X1740612D01*
X1626753Y1161104D02*
X1634388Y1168740D01*
X1628248Y1155752D02*
Y1157032D01*
X1630921Y1153079D02*
X1630928Y1153086D01*
Y1156929D01*
X1625576Y1158424D02*
X1626857D01*
X1622903Y1161097D02*
X1622910Y1161104D01*
X1626753D01*
X1783000Y951000D02*
X1792000D01*
X1892756Y1187000D02*
X1903110D01*
X1887244Y1171126D02*
Y1187000D01*
X1875000Y1164000D02*
Y1185000D01*
X1637000Y1061296D02*
Y1084000D01*
X1635000Y1059857D02*
Y1084828D01*
X1662956Y1112785D01*
Y1114044D01*
X1635000Y1059857D02*
X1638857Y1056000D01*
X1651000D01*
X1637000Y1061296D02*
X1638296Y1060000D01*
X1651000D01*
X1637000Y1084000D02*
X1663000Y1110000D01*
X1664259D01*
X1666000D01*
X1396456Y1028320D02*
X1396466D01*
X1401221Y1023565D01*
X1393786Y1030990D02*
Y1031000D01*
Y1030990D02*
X1396456Y1028320D01*
X1405283Y1031000D02*
X1409095Y1027188D01*
Y930822D02*
X1410906Y929010D01*
Y929000D02*
Y929010D01*
X1409095Y930822D02*
Y1027188D01*
X1401503Y1030990D02*
X1404173Y1028320D01*
X1401503Y1030990D02*
Y1031000D01*
X1407126Y929000D02*
Y1025377D01*
X1404183Y1028320D02*
X1407126Y1025377D01*
X1404173Y1028320D02*
X1404183D01*
X1409220Y1030990D02*
X1411890Y1028320D01*
X1409220Y1030990D02*
Y1031000D01*
X1413031Y930812D02*
Y1027188D01*
Y930812D02*
X1414843Y929000D01*
X1411900Y1028320D02*
X1413031Y1027188D01*
X1411890Y1028320D02*
X1411900D01*
X1413000Y1031000D02*
X1415000Y1029000D01*
Y932633D02*
X1418623Y929010D01*
Y929000D02*
Y929010D01*
X1415000Y932633D02*
Y1029000D01*
X1401221Y1009221D02*
Y1023565D01*
X1399000Y1007000D02*
X1401221Y1009221D01*
X1397566Y1031000D02*
X1403189Y1025377D01*
Y929000D02*
Y1025377D01*
X1442000Y945000D02*
Y945244D01*
X1455000Y950756D02*
Y955495D01*
X1557370Y1071630D02*
Y1089063D01*
Y1071630D02*
X1559000Y1070000D01*
X1596000Y859000D02*
X1603000Y852000D01*
X1620000D01*
X1625870Y846130D01*
X1731130D01*
X1781000Y896000D01*
Y897000D01*
X1885000Y985000D02*
X1945000Y1045000D01*
X1860000Y985000D02*
X1885000D01*
X1780000Y925000D02*
X1795000D01*
X1804811Y1082189D02*
X1811000D01*
D28*
X1817000Y836000D02*
Y840276D01*
X1810000Y839000D02*
Y848000D01*
X1806000Y839000D02*
X1810000D01*
Y848000D02*
X1817000D01*
X1802000Y839000D02*
Y848000D01*
X1809000Y854000D02*
X1816000D01*
X1814000Y833000D02*
X1817000Y836000D01*
X1809000Y833000D02*
X1814000D01*
X1806000Y843500D02*
Y848000D01*
Y839000D02*
Y843500D01*
Y848000D02*
X1810000D01*
X1802000D02*
X1806000D01*
X1802000Y839000D02*
X1806000D01*
X1796000Y834000D02*
Y852000D01*
Y854000D02*
X1809000D01*
X1796000Y852000D02*
Y854000D01*
X1797000Y833000D02*
X1809000D01*
X1796000Y834000D02*
X1797000Y833000D01*
D29*
X1807906Y859906D02*
X1815000Y867000D01*
X1795441Y859906D02*
X1807906D01*
X1790000Y854465D02*
X1795441Y859906D01*
X1790000Y831882D02*
Y854465D01*
Y831882D02*
X1795441Y826441D01*
X1809559D01*
X1815000Y821000D01*
X1866752Y929230D02*
X1869230Y926752D01*
X1824230Y929230D02*
X1866752D01*
X1866106Y927670D02*
X1867670Y926106D01*
X1824876Y927670D02*
X1866106D01*
X1866955Y917457D02*
X1867670Y918172D01*
Y926106D01*
X1869866Y911279D02*
X1873028D01*
X1866955Y914190D02*
X1869866Y911279D01*
X1866955Y914190D02*
Y917457D01*
X1868515Y915189D02*
X1870263Y913441D01*
X1868515Y915189D02*
Y916811D01*
X1873028Y911279D02*
X1873425Y910882D01*
X1868515Y916811D02*
X1869230Y917526D01*
X1789206Y892000D02*
X1824876Y927670D01*
X1869230Y917526D02*
Y926752D01*
X1791000Y896000D02*
X1824230Y929230D01*
X1789000Y892000D02*
X1789206D01*
X1786000Y896000D02*
X1791000D01*
X1792612Y900011D02*
X1840000Y947399D01*
X1694000Y900011D02*
X1792612D01*
X1796155Y905760D02*
X1837330Y946935D01*
X1615240Y905760D02*
X1796155D01*
X1795508Y907320D02*
X1835770Y947582D01*
X1617456Y907320D02*
X1795508D01*
X1794862Y908880D02*
X1834210Y948228D01*
X1618102Y908880D02*
X1794862D01*
X1794216Y910440D02*
X1832650Y948874D01*
X1618748Y910440D02*
X1794216D01*
X1832650Y948874D02*
Y1086489D01*
X1834210Y948228D02*
Y1084112D01*
X1835770Y947582D02*
Y1081892D01*
X1837330Y946935D02*
Y1079515D01*
X1840000Y947399D02*
Y1078409D01*
X1738568Y843000D02*
X1788784Y893216D01*
X1640000Y1017000D02*
X1651000D01*
X1640000Y964000D02*
Y1017000D01*
X1497000Y768000D02*
X1502284Y762716D01*
X1497000Y768000D02*
Y772244D01*
X1487554Y1006670D02*
X1493894Y1000330D01*
X1440035Y1006670D02*
X1487554D01*
X1564000Y992000D02*
X1566000Y994000D01*
X1556000D02*
X1557000Y995000D01*
X1549670Y1000330D02*
X1556000Y994000D01*
X1493894Y1000330D02*
X1549670D01*
X1561330Y998330D02*
X1563000Y1000000D01*
X1561330Y993330D02*
Y998330D01*
X1528000Y960000D02*
X1561330Y993330D01*
X1500000Y960000D02*
X1528000D01*
X1440000Y926000D02*
X1443000Y923000D01*
X1630000Y1038000D02*
Y1052000D01*
X1627330Y1054670D02*
X1630000Y1052000D01*
X1627330Y1054670D02*
Y1111429D01*
X1635000Y1120000D02*
Y1125110D01*
X1630000Y1120000D02*
Y1125000D01*
X1640000Y945756D02*
Y956000D01*
X1409120Y1194880D02*
X1522120Y1081880D01*
X1723338Y1191338D02*
Y1193148D01*
X1728670Y1198480D01*
Y1201520D01*
X1730230Y1197834D02*
Y1259960D01*
X1727000Y1194604D02*
X1730230Y1197834D01*
X1727000Y1188000D02*
Y1194604D01*
X1725190Y1265000D02*
X1730230Y1259960D01*
X1726520Y1203670D02*
X1728670Y1201520D01*
X1721330Y1208480D02*
Y1258670D01*
Y1208480D02*
X1726140Y1203670D01*
X1726520D01*
X1724810Y1265000D02*
X1725190D01*
X1792000Y912000D02*
X1795000Y915000D01*
X1619394Y912000D02*
X1792000D01*
X1614000Y907000D02*
X1615240Y905760D01*
X1615106Y909670D02*
X1617456Y907320D01*
X1615752Y911230D02*
X1618102Y908880D01*
X1616398Y912790D02*
X1618748Y910440D01*
X1615955Y915440D02*
X1619394Y912000D01*
X1614601Y919000D02*
X1619601Y914000D01*
X1577440Y915440D02*
X1615955D01*
X1610621Y912790D02*
X1616398D01*
X1611267Y911230D02*
X1615752D01*
X1607023Y906986D02*
X1611267Y911230D01*
X1611913Y909670D02*
X1615106D01*
X1607669Y905426D02*
X1611913Y909670D01*
X1606377Y908546D02*
X1610621Y912790D01*
X1538436Y908546D02*
X1606377D01*
X1535752Y911230D02*
X1538436Y908546D01*
X1532248Y911230D02*
X1535752D01*
X1580000Y919000D02*
X1614601D01*
X1860000Y989975D02*
X1873000Y1002975D01*
X1539708Y1046880D02*
X1622780D01*
X1540354Y1048440D02*
X1625000D01*
X1541000Y1050000D02*
X1622780D01*
X1522120Y1068880D02*
X1541000Y1050000D01*
X1622780D02*
X1625000Y1052220D01*
X1520560Y1068234D02*
X1540354Y1048440D01*
X1519000Y1067588D02*
X1539708Y1046880D01*
X1798000Y1091776D02*
Y1127000D01*
X1794000Y1090206D02*
Y1131000D01*
X1776770Y1038024D02*
X1780897Y1033897D01*
X1781894Y1048106D02*
Y1061554D01*
Y1066894D02*
X1794258D01*
X1780330Y1065330D02*
X1781894Y1066894D01*
X1780330Y1063118D02*
Y1065330D01*
Y1063118D02*
X1781894Y1061554D01*
X1783000Y1064224D02*
X1789670Y1057554D01*
X1670307Y1109693D02*
X1703693D01*
X1495000Y1003000D02*
X1554000D01*
X1557000Y1000000D01*
X1482583Y1095827D02*
X1484000Y1097244D01*
X1476677Y1088063D02*
Y1096921D01*
X1482583Y1088063D02*
Y1095827D01*
X1447150Y1088063D02*
Y1110850D01*
X1449118Y1088063D02*
Y1112658D01*
X1431402Y1088063D02*
Y1110000D01*
X1840000Y1089902D02*
X1841902D01*
X1840000Y1082185D02*
X1841815D01*
X1513000Y752000D02*
X1545000Y784000D01*
Y820000D01*
X1556000Y831000D01*
X1503662Y752869D02*
X1505464Y754670D01*
X1439509Y752869D02*
X1503662D01*
X1505464Y754670D02*
X1510330D01*
X1437294Y751309D02*
X1507000D01*
X1510330Y754670D02*
X1513000Y752000D01*
X1428189Y764189D02*
X1439509Y752869D01*
X1425519Y763083D02*
X1437294Y751309D01*
X1425519Y763083D02*
Y765988D01*
X1416000Y775507D02*
X1425519Y765988D01*
X1416000Y775507D02*
Y776000D01*
X1454000Y907000D02*
X1455230Y905770D01*
X1528348Y907330D02*
X1532248Y911230D01*
X1455106Y909670D02*
X1457446Y907330D01*
X1528994Y905770D02*
X1532894Y909670D01*
X1535106D01*
X1436000Y816000D02*
X1465000Y845000D01*
Y865000D01*
X1949756Y1246244D02*
Y1251000D01*
X2019756Y1246244D02*
Y1251000D01*
X1691233Y897244D02*
X1694000Y900011D01*
X1370756Y898000D02*
X1415000D01*
X1520560Y1068234D02*
Y1081234D01*
X1537790Y906986D02*
X1607023D01*
X1535106Y909670D02*
X1537790Y906986D01*
X1419000Y777000D02*
Y782244D01*
X1419591Y1088063D02*
Y1096835D01*
X2017680Y1149354D02*
X2028326Y1160000D01*
X2017680Y1139742D02*
Y1149354D01*
X2016120Y1150000D02*
X2031000Y1164880D01*
X2016120Y1140388D02*
Y1150000D01*
X1999560Y1165000D02*
X2014560Y1150000D01*
Y1141034D02*
Y1150000D01*
X2002354Y1160000D02*
X2013000Y1149354D01*
Y1141680D02*
Y1149354D01*
X1990000Y1160000D02*
X2002354D01*
X1999000Y1165000D02*
X1999560D01*
X1809000Y1016244D02*
Y1024000D01*
X1811370Y1048630D02*
X1814000Y1046000D01*
X1816370Y1048630D02*
X1819000Y1046000D01*
X1887362Y1171008D02*
X1891843D01*
X1894874Y1174039D01*
X1275877Y1188292D02*
Y1194123D01*
X1270000Y1200000D02*
X1275877Y1194123D01*
X1290000Y1185000D02*
X1291660Y1183340D01*
X1310000D01*
X1275877Y1188292D02*
X1278292Y1185877D01*
X1284123D01*
X1290440Y1179560D01*
X1310000D01*
X1270000Y1180000D02*
X1275877Y1174123D01*
X1281708D01*
X1283831Y1172000D01*
X1310000D01*
X1433124Y1142670D02*
X1435004Y1140790D01*
X1429330Y1142670D02*
X1433124D01*
X1436106Y1151670D02*
X1470772Y1117004D01*
X1432330Y1151670D02*
X1436106D01*
X1432000Y1152000D02*
X1432330Y1151670D01*
X1832650Y1086489D02*
X1840000Y1093839D01*
X1834210Y1084112D02*
X1840000Y1089902D01*
X1835770Y1081892D02*
X1840000Y1086122D01*
X1837330Y1079515D02*
X1840000Y1082185D01*
X1622780Y1046880D02*
X1625000Y1044660D01*
X1475113Y1085446D02*
X1479150Y1081410D01*
X1478646Y1085614D02*
X1481289Y1082970D01*
X1478646Y1085614D02*
Y1088063D01*
X1481019Y1085446D02*
X1481935Y1084530D01*
X1481019Y1085446D02*
Y1087658D01*
X1435000Y1149000D02*
X1468803Y1115197D01*
X1438044Y1142350D02*
X1466835Y1113560D01*
X1435650Y1142350D02*
X1438044D01*
X1432000Y1146000D02*
X1435650Y1142350D01*
X1437398Y1140790D02*
X1464866Y1113322D01*
X1435004Y1140790D02*
X1437398D01*
X1436106Y1137670D02*
X1455024Y1118752D01*
X1433894Y1137670D02*
X1436106D01*
X1436752Y1139230D02*
X1462898Y1113085D01*
X1432770Y1139230D02*
X1436752D01*
X1433224Y1137000D02*
X1433894Y1137670D01*
X1429000Y1137000D02*
X1433224D01*
X1435000Y1135000D02*
X1453055Y1116945D01*
X1470772Y1088063D02*
Y1117004D01*
X1468803Y1088063D02*
Y1115197D01*
X1455024Y1088063D02*
Y1118752D01*
X1561307Y1089063D02*
Y1100133D01*
X2019756Y1251000D02*
X2027205D01*
X1949756D02*
X1957205D01*
X1444000Y907000D02*
X1446670Y909670D01*
X1455106D01*
X1450000Y897244D02*
X1450244Y897000D01*
X1456000D01*
X1447362Y894606D02*
X1450000Y897244D01*
X1447362Y879843D02*
Y894606D01*
X1367362D02*
X1370000Y897244D01*
X1367362Y879843D02*
Y894606D01*
X1840000Y1093839D02*
Y1093843D01*
X1535574Y905426D02*
X1607669D01*
X1534000Y907000D02*
X1535574Y905426D01*
X1530000Y897244D02*
X1530244Y897000D01*
X1536000D01*
X1527362Y894606D02*
X1530000Y897244D01*
X1527362Y879843D02*
Y894606D01*
X1840000Y1086122D02*
Y1086126D01*
X1607362Y894606D02*
X1610000Y897244D01*
X1610244Y897000D02*
X1615000D01*
X1607362Y879843D02*
Y894606D01*
X1687362D02*
X1690000Y897244D01*
X1687362Y879843D02*
Y894606D01*
X1650000Y815000D02*
X1698000D01*
X1648560Y816440D02*
X1650000Y815000D01*
X1648446Y816440D02*
X1648560D01*
X1644574Y820312D02*
X1648446Y816440D01*
X1650000Y809000D02*
X1686000D01*
X1650000Y806000D02*
X1667000D01*
X1650000Y803000D02*
X1663000D01*
X1650000Y800000D02*
X1659000D01*
X1649220Y800780D02*
X1650000Y800000D01*
X1643000Y800780D02*
X1649220D01*
X1648440Y804560D02*
X1650000Y803000D01*
X1643000Y804560D02*
X1648440D01*
X1647660Y808340D02*
X1650000Y806000D01*
X1646248Y812752D02*
X1650000Y809000D01*
X1646000Y834634D02*
X1650000Y830634D01*
X1646000Y834634D02*
Y837000D01*
X1645670Y831330D02*
X1650000Y827000D01*
X1645670Y831330D02*
Y832758D01*
X1643000Y835428D02*
X1645670Y832758D01*
X1650000Y830000D02*
Y830634D01*
X1643000Y840000D02*
X1646000Y837000D01*
X1650000Y830000D02*
X1678315D01*
X1645670Y828330D02*
X1650000Y824000D01*
X1645670Y828330D02*
Y828978D01*
X1643000Y831648D02*
X1645670Y828978D01*
X1650000Y827000D02*
X1682000D01*
X1643000Y827872D02*
X1649872Y821000D01*
X1650000Y824000D02*
X1674000D01*
X1643000Y824092D02*
X1649092Y818000D01*
X1649872Y821000D02*
X1670000D01*
X1643000Y820312D02*
X1644574D01*
X1649092Y818000D02*
X1690000D01*
X1645468Y816532D02*
X1650000Y812000D01*
X1643000Y816532D02*
X1645468D01*
X1643000Y797000D02*
X1655000D01*
X2028326Y1160000D02*
X2040000D01*
X1873000Y1014467D02*
X1879533Y1021000D01*
X1873000Y1002975D02*
Y1014467D01*
X1871440Y1015113D02*
X1878887Y1022560D01*
X1871440Y1005195D02*
Y1015113D01*
X1860000Y993755D02*
X1871440Y1005195D01*
X1869880Y1015759D02*
X1878241Y1024120D01*
X1869880Y1007415D02*
Y1015759D01*
X1860000Y997535D02*
X1869880Y1007415D01*
X1868320Y1016405D02*
X1877595Y1025680D01*
X1868320Y1009635D02*
Y1016405D01*
X1860000Y1001315D02*
X1868320Y1009635D01*
X1944000Y1088663D02*
X1946614Y1086050D01*
Y1083838D02*
Y1086050D01*
X1945504Y1082728D02*
X1946614Y1083838D01*
X1944000Y1088663D02*
Y1089000D01*
X1939714Y1092714D02*
X1944000Y1097000D01*
Y1092776D02*
Y1093000D01*
X1866760Y1017052D02*
X1876949Y1027240D01*
X1866760Y1012012D02*
Y1017052D01*
X1860000Y1005252D02*
X1866760Y1012012D01*
X1860000Y1024466D02*
X1871278Y1035744D01*
X1860000Y1020686D02*
X1873089Y1033775D01*
X1860000Y1016910D02*
X1875010Y1031920D01*
X1860000Y1016749D02*
Y1016910D01*
X1863640Y1016609D02*
Y1018344D01*
X1875656Y1030360D01*
X1860000Y1012969D02*
X1863640Y1016609D01*
X1865200Y1014232D02*
Y1017698D01*
X1876302Y1028800D01*
X1860000Y1009032D02*
X1865200Y1014232D01*
X1475113Y1085446D02*
Y1087658D01*
X1474709Y1088063D02*
X1475113Y1087658D01*
X1480614Y1088063D02*
X1481019Y1087658D01*
X1710000Y1279810D02*
X1724810Y1265000D01*
X1710000Y1270000D02*
X1721330Y1258670D01*
X1643000Y808340D02*
X1647660D01*
X1650000Y812000D02*
X1694000D01*
X1643000Y835428D02*
Y835432D01*
Y831648D02*
Y831652D01*
Y812752D02*
X1646248D01*
X1419000Y777000D02*
X1422283Y773717D01*
X1433000Y773256D02*
Y782244D01*
X1511000Y764000D02*
Y772244D01*
X1428504Y1117496D02*
X1431172Y1114828D01*
X1433154D01*
X1428850Y1113268D02*
X1432508D01*
X1432000Y1118188D02*
Y1120000D01*
X1428598Y1123402D02*
X1429330Y1122670D01*
X1433106D01*
X1432508Y1113268D02*
X1434072Y1111704D01*
X1433154Y1114828D02*
X1435632Y1112350D01*
X1432000Y1118188D02*
X1437192Y1112997D01*
X1433106Y1122670D02*
X1439276Y1116500D01*
X1432000Y1126000D02*
X1447150Y1110850D01*
X1428693Y1129307D02*
X1429330Y1128670D01*
X1433106D01*
X1449118Y1112658D01*
X1432000Y1132000D02*
X1451087Y1112913D01*
Y1088063D02*
Y1112913D01*
X1453055Y1088063D02*
Y1116945D01*
X1432000Y1140000D02*
X1432770Y1139230D01*
X1429000Y1143000D02*
X1429330Y1142670D01*
X1464866Y1088063D02*
Y1113322D01*
X1462898Y1088063D02*
Y1113085D01*
X1466835Y1088063D02*
Y1113560D01*
X1507000Y751309D02*
Y752000D01*
X1508000Y753000D01*
X1549496Y1070000D02*
Y1089063D01*
X1553433Y1070000D02*
Y1089063D01*
X1431402Y1110000D02*
Y1110598D01*
X1428559Y1113559D02*
X1428850Y1113268D01*
X1936594Y1097594D02*
X1944000Y1105000D01*
X2006939Y1129000D02*
X2017680Y1139742D01*
X1966000Y1129000D02*
X2006939D01*
X1963170Y1128730D02*
X1965000Y1130560D01*
X2006292D02*
X2016120Y1140388D01*
X2005646Y1132120D02*
X2014560Y1141034D01*
X2005000Y1133680D02*
X2013000Y1141680D01*
X1958805Y1133680D02*
X2005000D01*
X1959451Y1132120D02*
X2005646D01*
X1965000Y1130560D02*
X2006292D01*
X1964730Y1127730D02*
X1966000Y1129000D01*
X1941274Y1090050D02*
X1944000Y1092776D01*
X1920000Y1080000D02*
Y1095000D01*
X1970000Y1080000D02*
X1975756Y1085756D01*
X1984244D02*
Y1107244D01*
Y1085756D02*
X1990000Y1080000D01*
X2040000D02*
Y1095000D01*
X1938154Y1095154D02*
X1944000Y1101000D01*
X1975756Y1085756D02*
Y1107244D01*
X1964730Y1105884D02*
Y1127730D01*
X1963170Y1106530D02*
Y1128730D01*
X1947064Y1082082D02*
X1948174Y1083191D01*
X1948624Y1081435D02*
X1949734Y1082545D01*
X1950184Y1080789D02*
X1951294Y1081899D01*
X1951744Y1080143D02*
X1952854Y1081253D01*
Y1094007D01*
X1964730Y1105884D01*
X1951294Y1081899D02*
Y1094654D01*
X1963170Y1106530D01*
X1948174Y1083191D02*
Y1086696D01*
X1947064Y1121939D02*
X1958805Y1133680D01*
X1947064Y1087806D02*
X1948174Y1086696D01*
X1949734Y1082545D02*
Y1087342D01*
X1948624Y1121292D02*
X1959451Y1132120D01*
X1948624Y1088452D02*
X1949734Y1087342D01*
X1948624Y1088452D02*
Y1121292D01*
X1947064Y1087806D02*
Y1121939D01*
X1522120Y1068880D02*
Y1081880D01*
X1406000Y1193588D02*
X1519000Y1080588D01*
X1407560Y1194234D02*
X1520560Y1081234D01*
X1519000Y1067588D02*
Y1080588D01*
X1479150Y1081410D02*
X1481361D01*
X1556771Y1006000D02*
X1566000D01*
X1481289Y1082970D02*
X1482007D01*
X1555977Y1009000D02*
X1569000D01*
X1481935Y1084530D02*
X1482653D01*
X1555184Y1012000D02*
X1572000D01*
X1482653Y1084530D02*
X1555184Y1012000D01*
X1482007Y1082970D02*
X1555977Y1009000D01*
X1481361Y1081410D02*
X1556771Y1006000D01*
X1781000Y1071000D02*
X1795152D01*
X1816370Y1048630D02*
Y1049782D01*
X1795152Y1071000D02*
X1816370Y1049782D01*
X1783000Y962000D02*
X1792000D01*
X1800670Y1027330D02*
X1804000Y1024000D01*
X1787000Y1047000D02*
X1787670Y1046330D01*
X1811370Y1048630D02*
Y1049782D01*
X1794258Y1066894D02*
X1811370Y1049782D01*
X1775000Y960000D02*
X1780000Y965000D01*
Y1026000D02*
X1782000Y1028000D01*
X1780000Y965000D02*
Y1026000D01*
X1778330Y1040670D02*
Y1072106D01*
X1798000Y1091776D01*
X1776770Y1038024D02*
Y1072976D01*
X1794000Y1090206D01*
X1778330Y1040670D02*
X1785000Y1034000D01*
X1786770Y1028248D02*
X1789248Y1025770D01*
X1793474D02*
X1803244Y1016000D01*
X1789248Y1025770D02*
X1793474D01*
X1789894Y1027330D02*
X1800670D01*
X1788330Y1028894D02*
X1789894Y1027330D01*
X1788330Y1028894D02*
Y1031348D01*
X1789670Y1032688D01*
Y1057554D01*
X1786770Y1028248D02*
Y1031994D01*
X1787670Y1032894D01*
Y1046330D01*
X1631560Y1050440D02*
X1637000Y1045000D01*
X1651000D01*
X1707000Y960000D02*
X1775000D01*
X1409120Y1194880D02*
Y1270880D01*
X1400000Y1280000D02*
X1409120Y1270880D01*
X1407560Y1194234D02*
Y1252440D01*
X1380000Y1280000D02*
X1407560Y1252440D01*
X1360000Y1280000D02*
X1406000Y1234000D01*
Y1193588D02*
Y1234000D01*
X1676000Y1121000D02*
Y1127244D01*
X1755852Y1179560D02*
X1805292Y1130120D01*
X1462000Y1179560D02*
X1755852D01*
X1754279Y1183340D02*
X1805939Y1131680D01*
X1462000Y1183340D02*
X1754279D01*
X1757426Y1175780D02*
X1804646Y1128560D01*
X1462000Y1175780D02*
X1757426D01*
X1759000Y1172000D02*
X1804000Y1127000D01*
X1462000Y1172000D02*
X1759000D01*
X1857000Y1131867D02*
X1883137Y1158005D01*
X1898005D01*
X1920000Y1180000D01*
X1857000Y1030000D02*
Y1131867D01*
X1640975Y1051661D02*
X1651339D01*
X1633287Y1059350D02*
X1640975Y1051661D01*
X1633287Y1113610D02*
X1633339Y1113661D01*
X1630000Y1110000D02*
X1631560Y1108440D01*
Y1050440D02*
Y1108440D01*
X1633287Y1059350D02*
Y1113610D01*
X1670307Y1109693D02*
Y1110469D01*
X1664062Y1116714D02*
X1670307Y1110469D01*
X1627330Y1111429D02*
X1632615Y1116714D01*
X1664062D01*
X1634000Y960000D02*
X1707000D01*
X1624000Y970000D02*
X1634000Y960000D01*
X1624000Y970000D02*
Y1032000D01*
X1630000Y1038000D01*
X1439276Y1088063D02*
Y1116500D01*
X1437192Y1088178D02*
Y1112997D01*
X1435632Y1088356D02*
Y1112350D01*
X1433370Y1088063D02*
Y1107370D01*
X1434072Y1108072D01*
Y1111704D01*
X1437365Y1004000D02*
X1440035Y1006670D01*
X1418000Y1004000D02*
X1437365D01*
X1520000Y910000D02*
X1524815D01*
X1577000Y962185D01*
Y1006000D01*
X1573000Y960392D02*
Y1008000D01*
X1568670Y958268D02*
Y999330D01*
X1568000Y1000000D02*
X1568670Y999330D01*
X1564000Y955804D02*
Y992000D01*
X1455230Y905770D02*
X1528994D01*
X1457446Y907330D02*
X1528348D01*
X1440000Y921000D02*
X1492143D01*
X1443000Y923000D02*
X1492349D01*
X1526526Y918330D02*
X1564000Y955804D01*
X1492349Y923000D02*
X1497019Y918330D01*
X1527172Y916770D02*
X1568670Y958268D01*
X1492143Y921000D02*
X1496373Y916770D01*
X1527818Y915210D02*
X1573000Y960392D01*
X1465000Y910000D02*
X1470210Y915210D01*
X1527818D01*
X1496373Y916770D02*
X1527172D01*
X1497019Y918330D02*
X1526526D01*
X1498125Y921000D02*
X1513000Y935875D01*
Y946000D01*
X1501905Y921000D02*
X1515673Y934768D01*
Y943327D01*
X1505685Y921000D02*
X1518346Y933661D01*
Y940654D01*
X1509465Y921000D02*
X1510019Y921554D01*
X1509465Y921000D02*
Y922574D01*
X1519906Y933015D01*
Y936869D01*
X1521019Y937981D01*
X1512626Y921619D02*
X1513245Y921000D01*
Y924148D01*
X1523691Y934594D01*
Y935309D01*
X1517013Y921012D02*
X1517025Y921000D01*
X1517773Y921773D02*
Y923773D01*
X1526364Y932364D01*
Y932636D01*
X1520403Y921402D02*
X1520805Y921000D01*
X1528963Y929963D02*
X1529037D01*
X1524585Y921000D02*
X1524792Y920792D01*
X1531290Y927290D02*
X1531710D01*
X1517013Y921012D02*
X1517773Y921773D01*
X1520403Y921402D02*
X1528963Y929963D01*
X1524792Y920792D02*
X1531290Y927290D01*
X1377220Y1078000D02*
X1395000Y1060220D01*
X1420000D01*
X1455126Y1014220D02*
X1530000D01*
X1441673Y1027673D02*
X1455126Y1014220D01*
X1546126Y1026780D02*
X1560000D01*
X1545673Y1026327D02*
X1546126Y1026780D01*
X1373440Y1078000D02*
X1395000Y1056440D01*
X1420000D01*
X1453560Y1010440D02*
X1530000D01*
X1439000Y1025000D02*
X1453560Y1010440D01*
X1381000Y1078000D02*
X1395000Y1064000D01*
X1420000D01*
X1456691Y1018000D02*
X1530000D01*
X1444346Y1030346D02*
X1456691Y1018000D01*
X1543000Y1029000D02*
X1544000Y1030000D01*
X1562440D01*
X1563000Y1030560D01*
X1548346Y1023654D02*
X1563000D01*
X1621660Y836968D02*
X1623346Y838654D01*
X1483000Y841780D02*
X1487812Y836968D01*
X1625446Y835408D02*
X1626019Y835981D01*
X1483000Y838000D02*
X1486000Y835000D01*
X1590000D01*
X1590408Y835408D01*
X1625446D01*
X1487812Y836968D02*
X1621660D01*
X1614905Y840905D02*
X1618000Y844000D01*
X1483000Y849340D02*
X1491435Y840905D01*
X1618283Y838937D02*
X1620673Y841327D01*
X1483000Y845560D02*
X1489623Y838937D01*
X1618283D01*
X1491435Y840905D02*
X1614905D01*
X1596287Y849287D02*
X1596704Y848870D01*
X1596000Y854000D02*
X1599570Y850430D01*
X1619350D01*
X1596704Y848870D02*
X1618703D01*
X1619350Y850430D02*
X1625220Y844560D01*
X1618703Y848870D02*
X1624574Y843000D01*
X1738568D01*
X1625220Y844560D02*
X1734560D01*
X1786000Y896000D01*
X1619601Y914000D02*
X1788000D01*
X1792000Y918000D01*
X1950184Y1058278D02*
Y1080789D01*
X1951744Y1057632D02*
Y1080143D01*
X1879533Y1021000D02*
X1915112D01*
X1878887Y1022560D02*
X1914466D01*
X1948624Y1058924D02*
Y1081435D01*
X1878241Y1024120D02*
X1913820D01*
X1947064Y1059570D02*
Y1082082D01*
X1877595Y1025680D02*
X1913173D01*
X1945504Y1060216D02*
Y1082728D01*
X1876949Y1027240D02*
X1912527D01*
X1943944Y1060863D02*
Y1084944D01*
X1876302Y1028800D02*
X1911881D01*
X1941274Y1083838D02*
Y1090050D01*
Y1083838D02*
X1942384Y1082728D01*
Y1061509D02*
Y1082728D01*
X1875656Y1030360D02*
X1911235D01*
X1939714Y1083191D02*
Y1092714D01*
Y1083191D02*
X1940824Y1082082D01*
Y1062155D02*
Y1082082D01*
X1875010Y1031920D02*
X1910589D01*
X1938154Y1082545D02*
Y1095154D01*
Y1082545D02*
X1938968Y1081730D01*
Y1062506D02*
Y1081730D01*
X1873089Y1033775D02*
X1910238D01*
X1936594Y1080406D02*
Y1097594D01*
Y1080406D02*
X1937000Y1080000D01*
Y1062744D02*
Y1080000D01*
X1871278Y1035744D02*
X1910000D01*
X1915112Y1021000D02*
X1951744Y1057632D01*
X1910000Y1035744D02*
X1937000Y1062744D01*
X1910238Y1033775D02*
X1938968Y1062506D01*
X1910589Y1031920D02*
X1940824Y1062155D01*
X1911235Y1030360D02*
X1942384Y1061509D01*
X1911881Y1028800D02*
X1943944Y1060863D01*
X1912527Y1027240D02*
X1945504Y1060216D01*
X1913173Y1025680D02*
X1947064Y1059570D01*
X1913820Y1024120D02*
X1948624Y1058924D01*
X1914466Y1022560D02*
X1950184Y1058278D01*
X1765166Y1060398D02*
Y1062610D01*
X1764056Y1063720D02*
X1765166Y1062610D01*
X1762244Y1045756D02*
Y1057476D01*
X1765166Y1060398D01*
X1765616Y1064366D02*
X1766726Y1063256D01*
X1765616Y1064366D02*
Y1113616D01*
X1766726Y1046462D02*
Y1063256D01*
X1762087Y1035913D02*
Y1041823D01*
X1766726Y1046462D01*
X1765616Y1113616D02*
X1772000Y1120000D01*
X1764056Y1063720D02*
Y1117056D01*
X1767000Y1120000D01*
X1762496Y1061504D02*
Y1119504D01*
X1845000Y1030000D02*
Y1103000D01*
X1804000Y1127000D02*
X1821000D01*
X1847673Y1027327D02*
Y1102533D01*
X1804646Y1128560D02*
X1821646D01*
X1850346Y1024654D02*
Y1102067D01*
X1805292Y1130120D02*
X1822292D01*
X1853019Y1021981D02*
Y1101600D01*
X1805939Y1131680D02*
X1822939D01*
X1853019Y1101600D01*
X1822292Y1130120D02*
X1850346Y1102067D01*
X1821646Y1128560D02*
X1847673Y1102533D01*
X1821000Y1127000D02*
X1845000Y1103000D01*
D30*
X1660000Y1093591D02*
X1735000D01*
X1671000Y1084000D02*
X1710000D01*
X1680000Y1040000D02*
Y1061000D01*
X1690000Y1064000D02*
X1725000D01*
X1690000Y1040000D02*
Y1064000D01*
X1700000Y1054000D02*
X1715000D01*
X1700000Y1047000D02*
Y1054000D01*
X1715000Y1047000D02*
Y1054000D01*
X1725000Y1035000D02*
Y1064000D01*
X1670000Y1050000D02*
Y1083000D01*
X1710000Y1084000D02*
X1730000D01*
X1660000Y1085000D02*
Y1093591D01*
X1745000Y1079000D02*
Y1084000D01*
X1730000D02*
X1745000D01*
X1680000Y1074000D02*
X1734000D01*
X1680000Y1061000D02*
Y1074000D01*
X1736870Y1093591D02*
X1755000D01*
X1715000Y1024000D02*
Y1047000D01*
X1755000Y1034978D02*
Y1093591D01*
X1735000Y1013000D02*
Y1073000D01*
X1745000Y1066000D02*
Y1079000D01*
Y1030000D02*
Y1066000D01*
Y986000D02*
Y1030000D01*
X1755000Y976366D02*
Y1034978D01*
X1714000Y976366D02*
X1755000D01*
X1715000Y1016000D02*
Y1024000D01*
X1725000Y1006000D02*
Y1035000D01*
X1735000Y996000D02*
Y1013000D01*
X1730000Y986000D02*
X1745000D01*
X1699000Y1016000D02*
X1715000D01*
X1674000Y986000D02*
X1730000D01*
X1690000Y1006000D02*
X1725000D01*
X1690000D02*
Y1015000D01*
X1680000Y996000D02*
Y1015000D01*
X1694000Y976366D02*
X1713000D01*
X1680000D02*
X1691634D01*
X1670000Y986000D02*
X1674000D01*
X1670000D02*
Y1000000D01*
X1660000Y976366D02*
X1677000D01*
X1660000Y977000D02*
Y995683D01*
X1650366Y976366D02*
X1656000D01*
X1660000Y1009000D02*
Y1015000D01*
X1670000Y1009000D02*
Y1015000D01*
Y1000000D02*
Y1009000D01*
X1660000Y1003000D02*
Y1009000D01*
Y995683D02*
Y1003000D01*
Y1047000D02*
Y1058000D01*
Y1040000D02*
Y1047000D01*
X1700000Y1040000D02*
Y1047000D01*
X1660000Y1058000D02*
Y1067000D01*
X1670000Y1040000D02*
Y1050000D01*
X1660000Y1067000D02*
Y1076000D01*
Y1085000D01*
X1680000Y996000D02*
X1735000D01*
D31*
X1480000Y1102756D02*
X1484000D01*
X1477000D02*
X1480000D01*
X1542000Y1101196D02*
Y1109000D01*
X1545559Y1089063D02*
Y1099244D01*
X1541622Y1089063D02*
Y1100818D01*
X1545559Y1099244D02*
X1547378Y1101063D01*
X1423000Y1108000D02*
X1427000Y1104000D01*
D32*
X1620000Y744520D02*
D03*
D33*
X2055197Y835000D02*
D03*
D34*
X1502662Y1077433D02*
D03*
X1409354D02*
D03*
D35*
X1573709Y1078039D02*
D03*
X1529221D02*
D03*
D36*
X1780000Y745000D02*
D03*
D37*
X1910000Y843000D02*
D03*
X1980000D02*
D03*
D38*
X1900000Y795500D02*
D03*
X1990600Y795600D02*
D03*
D39*
X1270000Y790000D02*
D03*
Y830000D02*
D03*
D40*
X1310000Y780000D02*
D03*
D41*
X1320000Y790000D02*
D03*
X1310000Y810000D02*
D03*
X1320000Y830000D02*
D03*
X1310000Y840000D02*
D03*
D42*
X2038189Y1227811D02*
D03*
X1968189D02*
D03*
X1698189Y856811D02*
D03*
X1400000Y1280000D02*
D03*
Y1290000D02*
D03*
X1380000Y1280000D02*
D03*
Y1290000D02*
D03*
X1360000Y1280000D02*
D03*
Y1290000D02*
D03*
X1898189Y1147976D02*
D03*
X1618189Y856811D02*
D03*
X1538189D02*
D03*
X1458189D02*
D03*
X1378189D02*
D03*
X1860000Y790000D02*
D03*
Y800000D02*
D03*
Y810000D02*
D03*
Y820000D02*
D03*
Y830000D02*
D03*
Y840000D02*
D03*
Y850000D02*
D03*
X2070000Y811000D02*
D03*
Y821000D02*
D03*
Y831000D02*
D03*
Y841000D02*
D03*
Y851000D02*
D03*
Y861000D02*
D03*
Y871000D02*
D03*
X1710000Y1270000D02*
D03*
Y1260000D02*
D03*
Y1250000D02*
D03*
Y1240000D02*
D03*
Y1230000D02*
D03*
Y1220000D02*
D03*
Y1210000D02*
D03*
X1630000Y1270000D02*
D03*
Y1260000D02*
D03*
Y1250000D02*
D03*
Y1240000D02*
D03*
Y1230000D02*
D03*
Y1220000D02*
D03*
Y1210000D02*
D03*
X1825000Y1190000D02*
D03*
X1815000D02*
D03*
X1280000Y1160000D02*
D03*
Y1170000D02*
D03*
Y1180000D02*
D03*
Y1190000D02*
D03*
Y1200000D02*
D03*
X1270000Y1160000D02*
D03*
Y1170000D02*
D03*
Y1180000D02*
D03*
Y1190000D02*
D03*
X1840000Y850000D02*
D03*
Y840000D02*
D03*
Y830000D02*
D03*
Y820000D02*
D03*
Y810000D02*
D03*
Y800000D02*
D03*
Y790000D02*
D03*
D43*
X2061811Y1227811D02*
D03*
X1991811D02*
D03*
X1965236Y970630D02*
D03*
X1980000D02*
D03*
X1994764D02*
D03*
X1895236D02*
D03*
X1910000D02*
D03*
X1924764D02*
D03*
X1721811Y856811D02*
D03*
X1921811Y1147976D02*
D03*
X1641811Y856811D02*
D03*
X1561811D02*
D03*
X1481811D02*
D03*
X1401811D02*
D03*
D44*
X2001654Y1010000D02*
D03*
X1958346D02*
D03*
X1931654D02*
D03*
X1888346D02*
D03*
D45*
X1898189Y824000D02*
D03*
X1929685D02*
D03*
X1999685D02*
D03*
X1968189D02*
D03*
D46*
X1805000Y1290000D02*
D03*
X1785000D02*
D03*
X1765000D02*
D03*
X1745000D02*
D03*
X1725000D02*
D03*
X1825000D02*
D03*
X1845000D02*
D03*
X1865000D02*
D03*
X1885000D02*
D03*
X1905000D02*
D03*
X1600000D02*
D03*
X1580000D02*
D03*
X1560000D02*
D03*
X1540000D02*
D03*
X1520000D02*
D03*
X1420000D02*
D03*
X1440000D02*
D03*
X1460000D02*
D03*
X1480000D02*
D03*
X1500000D02*
D03*
D47*
X1805000Y1280000D02*
D03*
Y1270000D02*
D03*
Y1260000D02*
D03*
Y1250000D02*
D03*
Y1240000D02*
D03*
Y1230000D02*
D03*
Y1220000D02*
D03*
Y1210000D02*
D03*
Y1200000D02*
D03*
X1815000Y1290000D02*
D03*
Y1280000D02*
D03*
Y1270000D02*
D03*
Y1260000D02*
D03*
Y1250000D02*
D03*
Y1240000D02*
D03*
Y1230000D02*
D03*
Y1220000D02*
D03*
Y1210000D02*
D03*
Y1200000D02*
D03*
X1785000Y1280000D02*
D03*
Y1270000D02*
D03*
Y1260000D02*
D03*
Y1250000D02*
D03*
Y1240000D02*
D03*
Y1230000D02*
D03*
Y1220000D02*
D03*
Y1210000D02*
D03*
Y1200000D02*
D03*
X1795000Y1290000D02*
D03*
Y1280000D02*
D03*
Y1270000D02*
D03*
Y1260000D02*
D03*
Y1250000D02*
D03*
Y1240000D02*
D03*
Y1230000D02*
D03*
Y1220000D02*
D03*
Y1210000D02*
D03*
Y1200000D02*
D03*
X1765000Y1280000D02*
D03*
Y1270000D02*
D03*
Y1260000D02*
D03*
Y1250000D02*
D03*
Y1240000D02*
D03*
Y1230000D02*
D03*
Y1220000D02*
D03*
Y1210000D02*
D03*
Y1200000D02*
D03*
X1775000Y1290000D02*
D03*
Y1280000D02*
D03*
Y1270000D02*
D03*
Y1260000D02*
D03*
Y1250000D02*
D03*
Y1240000D02*
D03*
Y1230000D02*
D03*
Y1220000D02*
D03*
Y1210000D02*
D03*
Y1200000D02*
D03*
X1745000Y1280000D02*
D03*
Y1270000D02*
D03*
Y1260000D02*
D03*
Y1250000D02*
D03*
Y1240000D02*
D03*
Y1230000D02*
D03*
Y1220000D02*
D03*
Y1210000D02*
D03*
Y1200000D02*
D03*
X1755000Y1290000D02*
D03*
Y1280000D02*
D03*
Y1270000D02*
D03*
Y1260000D02*
D03*
Y1250000D02*
D03*
Y1240000D02*
D03*
Y1230000D02*
D03*
Y1220000D02*
D03*
Y1210000D02*
D03*
Y1200000D02*
D03*
X1735000D02*
D03*
Y1210000D02*
D03*
Y1220000D02*
D03*
Y1230000D02*
D03*
Y1240000D02*
D03*
Y1250000D02*
D03*
Y1260000D02*
D03*
Y1270000D02*
D03*
Y1280000D02*
D03*
Y1290000D02*
D03*
X1725000Y1200000D02*
D03*
Y1210000D02*
D03*
Y1220000D02*
D03*
Y1230000D02*
D03*
Y1240000D02*
D03*
Y1250000D02*
D03*
Y1260000D02*
D03*
Y1270000D02*
D03*
Y1280000D02*
D03*
X1825000D02*
D03*
Y1270000D02*
D03*
Y1260000D02*
D03*
Y1250000D02*
D03*
Y1240000D02*
D03*
Y1230000D02*
D03*
Y1220000D02*
D03*
Y1210000D02*
D03*
Y1200000D02*
D03*
X1835000Y1290000D02*
D03*
Y1280000D02*
D03*
Y1270000D02*
D03*
Y1260000D02*
D03*
Y1250000D02*
D03*
Y1240000D02*
D03*
Y1230000D02*
D03*
Y1220000D02*
D03*
Y1210000D02*
D03*
Y1200000D02*
D03*
X1855000D02*
D03*
Y1210000D02*
D03*
Y1220000D02*
D03*
Y1230000D02*
D03*
Y1240000D02*
D03*
Y1250000D02*
D03*
Y1260000D02*
D03*
Y1270000D02*
D03*
Y1280000D02*
D03*
Y1290000D02*
D03*
X1845000Y1200000D02*
D03*
Y1210000D02*
D03*
Y1220000D02*
D03*
Y1230000D02*
D03*
Y1240000D02*
D03*
Y1250000D02*
D03*
Y1260000D02*
D03*
Y1270000D02*
D03*
Y1280000D02*
D03*
X1875000Y1200000D02*
D03*
Y1210000D02*
D03*
Y1220000D02*
D03*
Y1230000D02*
D03*
Y1240000D02*
D03*
Y1250000D02*
D03*
Y1260000D02*
D03*
Y1270000D02*
D03*
Y1280000D02*
D03*
Y1290000D02*
D03*
X1865000Y1200000D02*
D03*
Y1210000D02*
D03*
Y1220000D02*
D03*
Y1230000D02*
D03*
Y1240000D02*
D03*
Y1250000D02*
D03*
Y1260000D02*
D03*
Y1270000D02*
D03*
Y1280000D02*
D03*
X1895000Y1200000D02*
D03*
Y1210000D02*
D03*
Y1220000D02*
D03*
Y1230000D02*
D03*
Y1240000D02*
D03*
Y1250000D02*
D03*
Y1260000D02*
D03*
Y1270000D02*
D03*
Y1280000D02*
D03*
Y1290000D02*
D03*
X1885000Y1200000D02*
D03*
Y1210000D02*
D03*
Y1220000D02*
D03*
Y1230000D02*
D03*
Y1240000D02*
D03*
Y1250000D02*
D03*
Y1260000D02*
D03*
Y1270000D02*
D03*
Y1280000D02*
D03*
X1915000Y1200000D02*
D03*
Y1210000D02*
D03*
Y1220000D02*
D03*
Y1230000D02*
D03*
Y1240000D02*
D03*
Y1250000D02*
D03*
Y1260000D02*
D03*
Y1270000D02*
D03*
Y1280000D02*
D03*
Y1290000D02*
D03*
X1905000Y1200000D02*
D03*
Y1210000D02*
D03*
Y1220000D02*
D03*
Y1230000D02*
D03*
Y1240000D02*
D03*
Y1250000D02*
D03*
Y1260000D02*
D03*
Y1270000D02*
D03*
Y1280000D02*
D03*
X1600000D02*
D03*
Y1270000D02*
D03*
Y1260000D02*
D03*
Y1250000D02*
D03*
Y1240000D02*
D03*
Y1230000D02*
D03*
Y1220000D02*
D03*
Y1210000D02*
D03*
Y1200000D02*
D03*
X1610000Y1290000D02*
D03*
Y1280000D02*
D03*
Y1270000D02*
D03*
Y1260000D02*
D03*
Y1250000D02*
D03*
Y1240000D02*
D03*
Y1230000D02*
D03*
Y1220000D02*
D03*
Y1210000D02*
D03*
Y1200000D02*
D03*
X1580000Y1280000D02*
D03*
Y1270000D02*
D03*
Y1260000D02*
D03*
Y1250000D02*
D03*
Y1240000D02*
D03*
Y1230000D02*
D03*
Y1220000D02*
D03*
Y1210000D02*
D03*
Y1200000D02*
D03*
X1590000Y1290000D02*
D03*
Y1280000D02*
D03*
Y1270000D02*
D03*
Y1260000D02*
D03*
Y1250000D02*
D03*
Y1240000D02*
D03*
Y1230000D02*
D03*
Y1220000D02*
D03*
Y1210000D02*
D03*
Y1200000D02*
D03*
X1560000Y1280000D02*
D03*
Y1270000D02*
D03*
Y1260000D02*
D03*
Y1250000D02*
D03*
Y1240000D02*
D03*
Y1230000D02*
D03*
Y1220000D02*
D03*
Y1210000D02*
D03*
Y1200000D02*
D03*
X1570000Y1290000D02*
D03*
Y1280000D02*
D03*
Y1270000D02*
D03*
Y1260000D02*
D03*
Y1250000D02*
D03*
Y1240000D02*
D03*
Y1230000D02*
D03*
Y1220000D02*
D03*
Y1210000D02*
D03*
Y1200000D02*
D03*
X1540000Y1280000D02*
D03*
Y1270000D02*
D03*
Y1260000D02*
D03*
Y1250000D02*
D03*
Y1240000D02*
D03*
Y1230000D02*
D03*
Y1220000D02*
D03*
Y1210000D02*
D03*
Y1200000D02*
D03*
X1550000Y1290000D02*
D03*
Y1280000D02*
D03*
Y1270000D02*
D03*
Y1260000D02*
D03*
Y1250000D02*
D03*
Y1240000D02*
D03*
Y1230000D02*
D03*
Y1220000D02*
D03*
Y1210000D02*
D03*
Y1200000D02*
D03*
X1530000D02*
D03*
Y1210000D02*
D03*
Y1220000D02*
D03*
Y1230000D02*
D03*
Y1240000D02*
D03*
Y1250000D02*
D03*
Y1260000D02*
D03*
Y1270000D02*
D03*
Y1280000D02*
D03*
Y1290000D02*
D03*
X1520000Y1200000D02*
D03*
Y1210000D02*
D03*
Y1220000D02*
D03*
Y1230000D02*
D03*
Y1240000D02*
D03*
Y1250000D02*
D03*
Y1260000D02*
D03*
Y1270000D02*
D03*
Y1280000D02*
D03*
X1420000D02*
D03*
Y1270000D02*
D03*
Y1260000D02*
D03*
Y1250000D02*
D03*
Y1240000D02*
D03*
Y1230000D02*
D03*
Y1220000D02*
D03*
Y1210000D02*
D03*
Y1200000D02*
D03*
X1430000Y1290000D02*
D03*
Y1280000D02*
D03*
Y1270000D02*
D03*
Y1260000D02*
D03*
Y1250000D02*
D03*
Y1240000D02*
D03*
Y1230000D02*
D03*
Y1220000D02*
D03*
Y1210000D02*
D03*
Y1200000D02*
D03*
X1450000D02*
D03*
Y1210000D02*
D03*
Y1220000D02*
D03*
Y1230000D02*
D03*
Y1240000D02*
D03*
Y1250000D02*
D03*
Y1260000D02*
D03*
Y1270000D02*
D03*
Y1280000D02*
D03*
Y1290000D02*
D03*
X1440000Y1200000D02*
D03*
Y1210000D02*
D03*
Y1220000D02*
D03*
Y1230000D02*
D03*
Y1240000D02*
D03*
Y1250000D02*
D03*
Y1260000D02*
D03*
Y1270000D02*
D03*
Y1280000D02*
D03*
X1470000Y1200000D02*
D03*
Y1210000D02*
D03*
Y1220000D02*
D03*
Y1230000D02*
D03*
Y1240000D02*
D03*
Y1250000D02*
D03*
Y1260000D02*
D03*
Y1270000D02*
D03*
Y1280000D02*
D03*
Y1290000D02*
D03*
X1460000Y1200000D02*
D03*
Y1210000D02*
D03*
Y1220000D02*
D03*
Y1230000D02*
D03*
Y1240000D02*
D03*
Y1250000D02*
D03*
Y1260000D02*
D03*
Y1270000D02*
D03*
Y1280000D02*
D03*
X1490000Y1200000D02*
D03*
Y1210000D02*
D03*
Y1220000D02*
D03*
Y1230000D02*
D03*
Y1240000D02*
D03*
Y1250000D02*
D03*
Y1260000D02*
D03*
Y1270000D02*
D03*
Y1280000D02*
D03*
Y1290000D02*
D03*
X1480000Y1200000D02*
D03*
Y1210000D02*
D03*
Y1220000D02*
D03*
Y1230000D02*
D03*
Y1240000D02*
D03*
Y1250000D02*
D03*
Y1260000D02*
D03*
Y1270000D02*
D03*
Y1280000D02*
D03*
X1510000Y1200000D02*
D03*
Y1210000D02*
D03*
Y1220000D02*
D03*
Y1230000D02*
D03*
Y1240000D02*
D03*
Y1250000D02*
D03*
Y1260000D02*
D03*
Y1270000D02*
D03*
Y1280000D02*
D03*
Y1290000D02*
D03*
X1500000Y1200000D02*
D03*
Y1210000D02*
D03*
Y1220000D02*
D03*
Y1230000D02*
D03*
Y1240000D02*
D03*
Y1250000D02*
D03*
Y1260000D02*
D03*
Y1270000D02*
D03*
Y1280000D02*
D03*
D48*
X1400000Y1270000D02*
D03*
X1380000D02*
D03*
X1360000D02*
D03*
X1860000Y780000D02*
D03*
X2070000Y801000D02*
D03*
X1710000Y1280000D02*
D03*
X1630000D02*
D03*
X1270000Y1200000D02*
D03*
X1840000Y780000D02*
D03*
D49*
X2064500Y1276000D02*
D03*
Y745000D02*
D03*
X1277500Y1276000D02*
D03*
Y745000D02*
D03*
D50*
X1900787Y770000D02*
D03*
X1910787D02*
D03*
X1989000D02*
D03*
X1999000D02*
D03*
D51*
X1880787Y750000D02*
D03*
X1920787D02*
D03*
X1969000D02*
D03*
X2009000D02*
D03*
D52*
X1340000Y920000D02*
D03*
Y980000D02*
D03*
Y1040000D02*
D03*
Y870000D02*
D03*
X1875000Y1185000D02*
D03*
D53*
X2040000Y1080000D02*
D03*
X2050000D02*
D03*
X2060000Y1139000D02*
D03*
X2040000D02*
D03*
X1970000Y1080000D02*
D03*
X1980000D02*
D03*
X1990000Y1139000D02*
D03*
X1970000D02*
D03*
X1900000Y1080000D02*
D03*
X1910000D02*
D03*
X1920000Y1139000D02*
D03*
X1900000D02*
D03*
X1970000Y1160000D02*
D03*
X1980000D02*
D03*
X1990000Y1219000D02*
D03*
X1970000D02*
D03*
X2040000Y1160000D02*
D03*
X2050000D02*
D03*
X2060000Y1219000D02*
D03*
X2040000D02*
D03*
D54*
X2074000Y1109500D02*
D03*
X2026000D02*
D03*
X2004000D02*
D03*
X1956000D02*
D03*
X1934000D02*
D03*
X1886000D02*
D03*
X2004000Y1189500D02*
D03*
X1956000D02*
D03*
X2074000D02*
D03*
X2026000D02*
D03*
D55*
X2060000Y1080000D02*
D03*
X1990000D02*
D03*
X1920000D02*
D03*
X1990000Y1160000D02*
D03*
X2060000D02*
D03*
D56*
X1262000Y1030000D02*
D03*
X1332000D02*
D03*
X1262000Y970000D02*
D03*
X1332000D02*
D03*
D57*
X1353000Y842842D02*
D03*
D58*
X1353000Y823158D02*
D03*
D59*
X1967000Y927000D02*
D03*
X1945000Y923000D02*
D03*
X1893000Y918000D02*
D03*
X1903000Y908000D02*
D03*
X1954000Y937000D02*
D03*
X1860000Y771000D02*
D03*
X1891847Y976847D02*
D03*
X1929457Y851000D02*
D03*
X1919000Y928000D02*
D03*
X1908000Y904000D02*
D03*
X1936000Y935000D02*
D03*
X1931000Y938000D02*
D03*
X1815000Y867000D02*
D03*
Y821000D02*
D03*
X1809000Y833000D02*
D03*
X1784000Y842000D02*
D03*
X1785000Y837000D02*
D03*
X1783756Y847244D02*
D03*
X1783756Y852756D02*
D03*
X1817000Y836000D02*
D03*
X1806000Y843500D02*
D03*
X1824000Y862000D02*
D03*
X1830000Y846000D02*
D03*
X1809000Y854000D02*
D03*
X1796000Y834000D02*
D03*
X1795779Y840221D02*
D03*
X1795874Y846126D02*
D03*
X1796000Y852000D02*
D03*
X1965000Y936000D02*
D03*
X1908000Y898000D02*
D03*
X1882000Y850000D02*
D03*
X1882000Y830000D02*
D03*
X1925000Y895000D02*
D03*
X1989000Y949000D02*
D03*
X1916756Y952244D02*
D03*
X1943000Y882000D02*
D03*
X1971000Y950000D02*
D03*
X1874000Y885000D02*
D03*
X1883000Y910000D02*
D03*
X1868000Y885000D02*
D03*
X1865000Y925000D02*
D03*
X1805000Y926000D02*
D03*
X1816000Y936000D02*
D03*
X1809000Y943000D02*
D03*
X1886000Y888000D02*
D03*
X1890000Y892000D02*
D03*
X1894000Y896000D02*
D03*
X1925000Y884808D02*
D03*
X1914244Y891244D02*
D03*
X1922000Y890000D02*
D03*
X1816000Y900000D02*
D03*
X1976756Y891756D02*
D03*
X1964000Y909000D02*
D03*
Y903000D02*
D03*
X1926000Y910000D02*
D03*
Y903000D02*
D03*
X1983000Y897000D02*
D03*
X1908000Y913000D02*
D03*
X1985000Y958000D02*
D03*
X1964000Y918000D02*
D03*
X1970000Y889000D02*
D03*
X1940000Y840000D02*
D03*
X1947000Y847000D02*
D03*
X1937000Y855000D02*
D03*
X1954000Y875000D02*
D03*
X1945000Y977000D02*
D03*
X1929756Y952244D02*
D03*
X1959756Y952244D02*
D03*
X1861831Y899831D02*
D03*
X1894000Y820000D02*
D03*
X1873000Y921000D02*
D03*
X1837000Y919000D02*
D03*
X1851000Y862000D02*
D03*
X1873000D02*
D03*
X1830000Y841000D02*
D03*
X1937000Y824000D02*
D03*
X2007000D02*
D03*
X1964000Y820000D02*
D03*
X1703000Y1091000D02*
D03*
X1698499Y1084501D02*
D03*
X1695819Y1091181D02*
D03*
X1700000Y1047000D02*
D03*
X1680000Y1061000D02*
D03*
X1686000Y1091000D02*
D03*
X1673000D02*
D03*
X1671000Y1083000D02*
D03*
X1667000Y1091000D02*
D03*
X1710000Y1084000D02*
D03*
X1743063Y1092063D02*
D03*
X1715000Y1092000D02*
D03*
X1710000Y1056000D02*
D03*
X1727000Y1092000D02*
D03*
X1730000Y1084000D02*
D03*
X1713000Y1051000D02*
D03*
X1753000Y1088000D02*
D03*
X1734000Y1073000D02*
D03*
X1745000Y1079000D02*
D03*
X1753000D02*
D03*
Y1070000D02*
D03*
X1745000Y1066000D02*
D03*
X1753000Y1061000D02*
D03*
X1715000Y1047000D02*
D03*
X1753000Y1049000D02*
D03*
X1762087Y1035913D02*
D03*
X1745000Y1030000D02*
D03*
X1753000Y1027000D02*
D03*
Y1020000D02*
D03*
X1745165Y1019000D02*
D03*
X1753000Y1007000D02*
D03*
X1762244Y1045756D02*
D03*
X1725000Y1035000D02*
D03*
X1715000Y1024000D02*
D03*
X1735000Y1013000D02*
D03*
X1753000Y999000D02*
D03*
Y991000D02*
D03*
X1749000Y979000D02*
D03*
X1746000Y986000D02*
D03*
X1740000Y979000D02*
D03*
X1730000Y986000D02*
D03*
X1729284Y976716D02*
D03*
X1712000Y1019000D02*
D03*
X1714000Y977000D02*
D03*
X1696680Y985680D02*
D03*
X1694000Y977000D02*
D03*
X1698000Y1017000D02*
D03*
X1684008Y976992D02*
D03*
X1677000Y977000D02*
D03*
X1674000Y986000D02*
D03*
X1657000Y977000D02*
D03*
X1666000Y1023000D02*
D03*
X1651000Y1010000D02*
D03*
Y1017000D02*
D03*
X1656000Y1018000D02*
D03*
X1670000Y1009000D02*
D03*
X1660000D02*
D03*
X1681000Y1023000D02*
D03*
X1660000Y1003000D02*
D03*
Y995683D02*
D03*
X1670000Y1000000D02*
D03*
X1685000Y1023000D02*
D03*
X1660000Y1047000D02*
D03*
Y1058000D02*
D03*
X1670000Y1050000D02*
D03*
X1660000Y1067000D02*
D03*
Y1085000D02*
D03*
Y1076000D02*
D03*
X1707000Y1053000D02*
D03*
X1600000Y902756D02*
D03*
X1605756Y924756D02*
D03*
X1475000Y787000D02*
D03*
Y799000D02*
D03*
Y865000D02*
D03*
Y875000D02*
D03*
Y965000D02*
D03*
X1392000Y996441D02*
D03*
X1488315Y988315D02*
D03*
X1472567Y1003567D02*
D03*
X1441070Y1003930D02*
D03*
X1566000Y994000D02*
D03*
X1563000Y1000000D02*
D03*
X1569000D02*
D03*
X1557000Y994000D02*
D03*
X1635000Y1120000D02*
D03*
X1633339Y1113661D02*
D03*
X1651000Y1051661D02*
D03*
X1630000Y1120000D02*
D03*
Y1110000D02*
D03*
X1640000Y956000D02*
D03*
Y964000D02*
D03*
X1504252Y827252D02*
D03*
X1506221Y765779D02*
D03*
X1504000Y793000D02*
D03*
X1426000D02*
D03*
X1428000Y773256D02*
D03*
X1308000Y1218000D02*
D03*
X1723338Y1191338D02*
D03*
X1792000Y918000D02*
D03*
X1580000Y919000D02*
D03*
X1920000Y1180000D02*
D03*
X1857000Y1030000D02*
D03*
X1860000Y989975D02*
D03*
Y993755D02*
D03*
Y997535D02*
D03*
Y1001315D02*
D03*
Y1005252D02*
D03*
Y1009032D02*
D03*
Y1012969D02*
D03*
Y1016749D02*
D03*
Y1020686D02*
D03*
Y1024466D02*
D03*
X1853019Y1021981D02*
D03*
X1850346Y1024654D02*
D03*
X1847673Y1027327D02*
D03*
X1845000Y1030000D02*
D03*
X1795000Y915000D02*
D03*
X1577440Y915440D02*
D03*
X1595000Y1031000D02*
D03*
Y1055000D02*
D03*
Y1043000D02*
D03*
X1762496Y1061504D02*
D03*
X1670307Y1109693D02*
D03*
X1703693D02*
D03*
X1542000Y1109000D02*
D03*
X1495000Y1003000D02*
D03*
X1557000Y1000000D02*
D03*
X1505130Y1114870D02*
D03*
X1490260Y1081260D02*
D03*
X1472740D02*
D03*
X1386000Y1111000D02*
D03*
X1480000Y1102756D02*
D03*
X1386000Y1154000D02*
D03*
X1410000Y1103000D02*
D03*
X1386000Y1005000D02*
D03*
Y949000D02*
D03*
X1380000Y1005000D02*
D03*
Y949000D02*
D03*
X1794000Y1131000D02*
D03*
X1798000Y1127000D02*
D03*
X1783000Y1064224D02*
D03*
X1781000Y1071000D02*
D03*
X1556000Y831000D02*
D03*
X1566000Y1006000D02*
D03*
X1513000Y752000D02*
D03*
X1428189Y764189D02*
D03*
X1520000Y910000D02*
D03*
X1577000Y1006000D02*
D03*
X1483000Y849340D02*
D03*
Y845560D02*
D03*
Y841780D02*
D03*
Y838000D02*
D03*
X1436000Y816000D02*
D03*
X1465000Y865000D02*
D03*
Y910000D02*
D03*
X1573000Y1008000D02*
D03*
X1500000Y960000D02*
D03*
X1949756Y1246244D02*
D03*
X2019756D02*
D03*
X1786000Y896000D02*
D03*
X1789000Y892000D02*
D03*
X1554000Y1070000D02*
D03*
X1549000D02*
D03*
X1960000D02*
D03*
X1930000D02*
D03*
X2015000Y1241000D02*
D03*
X2025000Y1150000D02*
D03*
X2005000D02*
D03*
X1923000Y1170165D02*
D03*
X1894874Y1174039D02*
D03*
X1262560Y1170000D02*
D03*
X1290000Y1185000D02*
D03*
X1310000Y1183340D02*
D03*
Y1179560D02*
D03*
Y1172000D02*
D03*
X1462000Y1183340D02*
D03*
Y1179560D02*
D03*
Y1175780D02*
D03*
Y1172000D02*
D03*
X1727000Y1188000D02*
D03*
X1432000Y1152000D02*
D03*
Y1146000D02*
D03*
X1435000Y1149000D02*
D03*
X1432000Y1140000D02*
D03*
X1625000Y1052220D02*
D03*
Y1044660D02*
D03*
Y1048440D02*
D03*
X1415000Y898000D02*
D03*
X1444000Y907000D02*
D03*
X1427000Y870000D02*
D03*
X1412638D02*
D03*
X1415000Y903000D02*
D03*
X1426244Y902756D02*
D03*
X1456000Y897000D02*
D03*
X1454000Y907000D02*
D03*
X1842000Y1090000D02*
D03*
X1840000Y1093843D02*
D03*
X1534000Y907000D02*
D03*
X1536000Y897000D02*
D03*
X1840000Y1086126D02*
D03*
X1614000Y907000D02*
D03*
X1615000Y897000D02*
D03*
X1842000Y1082000D02*
D03*
X1840000Y1078409D02*
D03*
X1690000Y818000D02*
D03*
X1694000Y812000D02*
D03*
X1659000Y800000D02*
D03*
X1663000Y803000D02*
D03*
X1667000Y806000D02*
D03*
X1643000Y800780D02*
D03*
Y804560D02*
D03*
Y808340D02*
D03*
Y812752D02*
D03*
Y816532D02*
D03*
Y820312D02*
D03*
Y824092D02*
D03*
Y827872D02*
D03*
Y831652D02*
D03*
Y835432D02*
D03*
Y840000D02*
D03*
Y797000D02*
D03*
X1698000Y815000D02*
D03*
X1655000Y797000D02*
D03*
X1999000Y1165000D02*
D03*
X2031000Y1164880D02*
D03*
X1943944Y1084944D02*
D03*
X1944000Y1097000D02*
D03*
Y1089000D02*
D03*
Y1093000D02*
D03*
X1440000Y921000D02*
D03*
Y926000D02*
D03*
X1569000Y1009000D02*
D03*
X1572000Y1012000D02*
D03*
X1682000Y827000D02*
D03*
X1674000Y824000D02*
D03*
X1670000Y821000D02*
D03*
X1416000Y776000D02*
D03*
X1508000Y752000D02*
D03*
X1686000Y809000D02*
D03*
X1626019Y835981D02*
D03*
X1623346Y838654D02*
D03*
X1620673Y841327D02*
D03*
X1618000Y844000D02*
D03*
X1678315Y830000D02*
D03*
X1422283Y773000D02*
D03*
X1510000Y763000D02*
D03*
X1433000Y773256D02*
D03*
X1502284Y762716D02*
D03*
X1428504Y1117496D02*
D03*
X1432000Y1126000D02*
D03*
Y1120000D02*
D03*
X1429000Y1143000D02*
D03*
X1432000Y1132000D02*
D03*
X1435000Y1135000D02*
D03*
X1595000Y895000D02*
D03*
X1599000Y1055000D02*
D03*
Y1061000D02*
D03*
X1780000Y931000D02*
D03*
X1811000Y951000D02*
D03*
X1819000Y1015000D02*
D03*
X1920000Y1095000D02*
D03*
X1944000Y1105000D02*
D03*
X2015000Y1190000D02*
D03*
X2078658Y1217658D02*
D03*
X1975756Y1107244D02*
D03*
X1984244D02*
D03*
X2040000Y1095000D02*
D03*
X1944000Y1101000D02*
D03*
X1599000Y1105000D02*
D03*
X1379000Y1188000D02*
D03*
Y1161000D02*
D03*
X1310000Y1070000D02*
D03*
X1320000Y1145000D02*
D03*
X1537000Y1039000D02*
D03*
X1534000Y1043000D02*
D03*
X1540000Y1035000D02*
D03*
X1373000Y1143087D02*
D03*
Y1121433D02*
D03*
X1386000D02*
D03*
X1379000Y1110000D02*
D03*
X1592000Y1095465D02*
D03*
X1605000D02*
D03*
X1592000Y1073811D02*
D03*
X1606000D02*
D03*
X1591536Y1021464D02*
D03*
X1605536D02*
D03*
X1591811Y999811D02*
D03*
X1605811D02*
D03*
X1386000Y1143087D02*
D03*
X1659536Y938464D02*
D03*
Y925536D02*
D03*
X1681189Y925811D02*
D03*
Y937811D02*
D03*
X1733536Y937464D02*
D03*
Y925536D02*
D03*
X1755189Y925811D02*
D03*
Y937811D02*
D03*
X1805535Y987535D02*
D03*
X1817465D02*
D03*
X1817189Y1009189D02*
D03*
X1804811D02*
D03*
X1805331Y1069000D02*
D03*
X1811000Y1062000D02*
D03*
X1818000Y1069000D02*
D03*
X1804811Y1082189D02*
D03*
X1817189D02*
D03*
X1715464Y1134536D02*
D03*
Y1146536D02*
D03*
X1693811Y1146189D02*
D03*
Y1134189D02*
D03*
X1599000Y988000D02*
D03*
X1648000Y931000D02*
D03*
X1722000D02*
D03*
X1811000Y976000D02*
D03*
Y1094000D02*
D03*
X1727000Y1141000D02*
D03*
X1591811Y988811D02*
D03*
X1648536Y925536D02*
D03*
X1692000Y926000D02*
D03*
X1792000Y962000D02*
D03*
X1783000D02*
D03*
X1418000Y1004000D02*
D03*
X1454000Y988000D02*
D03*
X1645000Y971000D02*
D03*
X1781894Y1048106D02*
D03*
X1787000Y1048000D02*
D03*
X1791000Y1030000D02*
D03*
X1785000Y1034000D02*
D03*
X1786000Y1025000D02*
D03*
X1782000Y1028000D02*
D03*
X1780897Y1033897D02*
D03*
X1755000Y1034978D02*
D03*
X1707000Y960000D02*
D03*
X1630000Y1038000D02*
D03*
X1651000Y1045000D02*
D03*
X1727000Y1134536D02*
D03*
X1676000Y1121000D02*
D03*
X1592000Y1105000D02*
D03*
X1680000Y1015000D02*
D03*
X1599000Y1136000D02*
D03*
X1593000Y1167000D02*
D03*
X1604000D02*
D03*
X1592811Y1153811D02*
D03*
X1604811D02*
D03*
X1592811Y1142189D02*
D03*
X1746094Y1120000D02*
D03*
X1742314D02*
D03*
X1749874D02*
D03*
X1753654D02*
D03*
X1628248Y1155752D02*
D03*
X1630921Y1153079D02*
D03*
X1625576Y1158424D02*
D03*
X1622903Y1161097D02*
D03*
X1753000Y983000D02*
D03*
X1783000Y951000D02*
D03*
X1792000D02*
D03*
X1794890Y943000D02*
D03*
X1912756Y1153000D02*
D03*
X1875000Y1164000D02*
D03*
X1666000Y1110000D02*
D03*
X1662956Y1114044D02*
D03*
X1651000Y1056000D02*
D03*
Y1060000D02*
D03*
X1627000Y1028000D02*
D03*
X1630000Y1033000D02*
D03*
X1621000Y1030000D02*
D03*
Y1035346D02*
D03*
X1625000Y1038000D02*
D03*
X1627000Y1023000D02*
D03*
X1523000Y1032000D02*
D03*
X1526000Y1028000D02*
D03*
X1529000Y1024000D02*
D03*
X1485000Y1166000D02*
D03*
X1532000Y1119000D02*
D03*
X1429000Y1137000D02*
D03*
X1428693Y1129307D02*
D03*
X1428598Y1123402D02*
D03*
X1423000Y1108000D02*
D03*
X1428000Y1113000D02*
D03*
X1399000Y1088000D02*
D03*
X1431402Y1110000D02*
D03*
X1393786Y1031000D02*
D03*
X1407126Y929000D02*
D03*
X1403189D02*
D03*
X1410906D02*
D03*
X1414843D02*
D03*
X1418623D02*
D03*
X1405283Y1031000D02*
D03*
X1401503D02*
D03*
X1397566D02*
D03*
X1409220D02*
D03*
X1413000D02*
D03*
X1399000Y1007000D02*
D03*
X1513000Y946000D02*
D03*
X1515673Y943327D02*
D03*
X1518346Y940654D02*
D03*
X1521019Y937981D02*
D03*
X1523691Y935309D02*
D03*
X1526364Y932636D02*
D03*
X1529037Y929963D02*
D03*
X1531710Y927290D02*
D03*
X1498125Y921000D02*
D03*
X1501905D02*
D03*
X1505685D02*
D03*
X1509465D02*
D03*
X1513245D02*
D03*
X1517025D02*
D03*
X1520805D02*
D03*
X1524585D02*
D03*
X1377220Y1078000D02*
D03*
X1441673Y1027673D02*
D03*
X1420000Y1060220D02*
D03*
X1530000Y1014220D02*
D03*
X1545673Y1026327D02*
D03*
X1560000Y1026780D02*
D03*
X1373440Y1078000D02*
D03*
X1439000Y1025000D02*
D03*
X1420000Y1056440D02*
D03*
X1530000Y1010440D02*
D03*
X1548346Y1023654D02*
D03*
X1563000Y1023433D02*
D03*
X1381000Y1078000D02*
D03*
X1444346Y1030346D02*
D03*
X1420000Y1064000D02*
D03*
X1530000Y1018000D02*
D03*
X1543000Y1029000D02*
D03*
X1563000Y1030000D02*
D03*
X1392000Y944000D02*
D03*
X1398000Y956000D02*
D03*
X1441457Y939543D02*
D03*
X1504000Y957008D02*
D03*
X1502000Y947000D02*
D03*
X1488701Y953701D02*
D03*
X1463000Y965000D02*
D03*
X1455000Y955495D02*
D03*
X1430000Y956000D02*
D03*
X1559000Y1070000D02*
D03*
X1596287Y849287D02*
D03*
X1596000Y854000D02*
D03*
Y859000D02*
D03*
X1781000Y896000D02*
D03*
X1945000Y1045000D02*
D03*
X1860000Y985000D02*
D03*
X1795000Y925000D02*
D03*
X1780000D02*
D03*
X1762000Y1120000D02*
D03*
X1767000D02*
D03*
X1772000D02*
D03*
X1821000Y1122000D02*
D03*
M02*
