M48
;Layer_Color=9474304
;FILE_FORMAT=2:5
INCH,LZ
;TYPE=PLATED
T1F00S00C0.01500
T2F00S00C0.02500
T3F00S00C0.02800
T4F00S00C0.03500
T5F00S00C0.03543
T6F00S00C0.03800
T7F00S00C0.04331
T8F00S00C0.05000
T9F00S00C0.05512
T10F00S00C0.06299
T11F00S00C0.08600
T12F00S00C0.12500
T13F00S00C0.15748
%
T01
X13955Y0765
X13936Y07688
X140059Y0760258
X14079Y0768
X14085Y07755
X1422315Y07744
X14323Y07765
X1435Y07738
X1440984Y0775321
X14364Y0750244
X14524Y07548
X1459556Y0750244
X1469556Y0740244
X14843Y07543
X14996Y07522
X1510158Y0753942
X15171Y07538
X15227Y07547
X152Y0763772
X15198Y07691
X1508189Y07677
X15114Y07638
X15065Y07782
X14903Y07697
X1521Y07371
X18761Y08249
X18929Y08137
X1908425Y0810625
Y0792825
X1922867Y0864
X1914Y08755
X18984Y08716
X19408Y08718
X19496Y08807
X19278Y08874
X1924Y08887
X1922Y0921
X19218Y09264
X1962244Y09222
X19793Y09185
X2
X1993Y09264
X1993323Y0908244
X19922Y0861
X19735Y08717
X1998425Y0810625
X18465Y08073
X18369Y07977
X18304Y08368
Y08408
X18272Y08464
X18099Y0853156
X17979Y0856
X18023Y0834
X18193Y08291
X17836Y08404
X17538Y0850155
X17617Y08659
X17438Y0872
X17387Y08771
X1743378Y09001
X1749284Y0909
X17495Y0923915
X17427Y09239
X17301Y0924
X1734244Y09328
X17309Y09364
X17254Y09346
X17572Y09278
X1819Y08913
X18434Y0856
X18519Y084373
X18566Y0847
X1862Y08403
X18647Y08544
X16695Y08636
X16567Y08897
X1660244Y0910256
X16695Y09109
X16733Y09246
X167773Y09363
X16857Y09298
X1699Y0927
Y093333
X16567Y09229
X16516Y09248
X16364Y09234
X16344Y08528
X1623053Y0831047
X16052Y08233
X16025Y08086
X15952Y08317
X15642Y08135
X15812Y08732
X16883Y08892
X15455Y08794
X15351Y08757
X1518Y08894
X1488Y09032
X14731Y09234
X14654Y09165
X14631Y093607
X14555Y0935
X1440582Y09364
X14348Y09372
X141Y0935
X14077Y08894
X14249Y08408
X14292Y084243
X14231Y08295
X14191Y08305
X14428Y0833
X14473Y08304
X1444972Y080913
X1441Y08103
X14362Y0809275
X14334Y08148
X14127Y081
X1492638Y0814644
X14962Y08379
X14876Y08411
X15128Y08378
X15095Y08294
X15213Y0829
X1530938Y08095
X15415Y08063
X15582Y08177
X1557Y09284
X14809Y0936
X14047Y09329
X13933Y0914
X13759Y09158
X13678Y09154
X13784Y0908
X13834Y09032
X13914Y08827
X13832Y0864672
X13816Y0845898
X1401Y08514
X13723Y08198
X13779Y0799
X13397Y08262
X13539Y0924268
X1350155Y0973055
X13207Y09857
X1400125Y09884
X14033Y10027
X14017Y1028
X13705Y10591
X13563Y10529
X13584Y10895
X12676Y10852
X14038Y09519
X14024Y0944
X14169Y09382
X1424392Y094236
X14285Y09411
X1439Y0942
X1438Y09537
X14321Y0955028
X14267Y0953967
X14146Y09576
X14445Y09552
X14461Y09516
X14532Y09514
X14515Y0955019
X1459968Y0952868
X1466267Y0953428
Y0943295
X14748Y09388
X14815Y0942
X1485315Y0943
X14852Y09516
X1485928Y0958975
X14902Y09875
X15037Y09925
X1516275Y0994075
X1485051Y10051
X14797Y10053
X1475716Y1004016
X14655Y1003882
X14527Y10054
X1441Y10007
X143803Y100337
X14289Y10018
X143313Y099093
X14433Y09918
X14628Y09922
X14662Y0983
X14628Y10296
X14655Y10376
X145541Y10448
X14527Y104917
X14494Y1053
X14461Y10479
X1441Y10372
X14449Y1030496
X14251Y10456
X14236Y10492
X1421928Y1066247
X14338Y10637
X14346Y1074477
X14324Y10777
X14263Y10835
X1421928Y10816
X14232Y10928
X1419
X1406789Y1086089
X14494Y10761
X14869Y10931
X14942Y10509
X15086Y10529
X15382Y10509
X1544235Y10512
X15587Y1056
X1530949Y1063
X1544Y10779
X15448Y10135
Y10097
X15524Y10185
X15582Y10212
X15454Y09769
X14516Y09406
X1417Y09914
X14096Y10062
X14072Y10278
X1578Y10344
X15999Y1033534
Y1021464
X160119Y1046
X1594149
X159327Y10501
X15906Y10636
X159528Y10765
X15933Y1085622
X16043Y10936
X16228Y1093496
X16196Y10877
X162887Y1081189
X1634Y10898
X1658299Y1083157
X1665Y10929
X16609Y10663
X1652524Y1067462
X165095Y107125
X165374Y1061504
X16499Y1055
X1654212Y10496
X16492Y104
X16563Y10341
X1672Y103783
X16747Y10432
Y10471
X167893Y104053
X16898Y10611
X1695145Y10873
X17183Y1093
X17095Y1030008
X170597Y098
X17019Y09792
X1696743Y09818
X1684071
X16852Y09623
X1684389Y09542
X1706Y09421
X17095Y09764
X16594Y09768
X16511Y0976858
X16506Y0987
Y09904
X16551Y1002686
X1648534Y1022134
X16333Y10325
X16262Y103313
X16333Y1041
X1634Y10576
X1620814Y104663
X16108Y10431
X16264Y10144
X162929Y10116
X16256Y0995244
X1619Y09825
X16329Y09818
X16349Y0973
X1647Y09611
X16458Y0940244
X16002Y09634
X15965Y09618
X15875Y09742
X15828Y0976
X15781Y09686
X158977Y0999811
X15711Y10639
X17312Y10805
X1738Y10841
X1744732Y10933
X17554Y1093
X17646
X17647Y10781
X17648Y10742
Y10625
X17506Y10654
X174707Y107167
X17802Y10737
X17811Y10811
X17912Y10746
X1804689Y10795
X18032Y10852
X18176Y10839
X1819906Y10869
X18164Y10779
Y1068
X18108Y1072346
X1811788Y106045
X18182Y10582
X18174Y10499
X18093Y10457
X18003Y10389
X17891Y10359
X1782019Y10413
X17876Y10475
X1787378Y1059178
X17813Y1058
X17793Y10659
Y10315
X1782Y1026071
X17646Y10199
X17648Y1033945
X17538Y1026071
X17552Y0994
X175803Y0989038
X17424Y09927
X1745032Y0977166
X17374Y097887
X17328Y0978
X17241Y09778
X1731252Y0962548
X1745825Y09617
X1750937Y0961
X17513Y09563
X17438Y0953447
X17441Y09382
X17485Y09402
X17387
X17337Y09398
X1759Y09387
X17685Y0940244
X17664Y09612
X17678Y09684
X17755Y09668
X17756Y09722
X1781919Y0960995
X17835Y09517
X17901Y09767
X18029Y0987535
X18088Y10033
X18174
X18336Y10002
X18476Y10037
X18482Y10196
X18397
X1842439Y102237
X18438Y10352
X185Y10324
X186Y1029867
X18608Y10412
X18581Y10439
X18427Y10483
X18402Y10541
Y10588
X18378Y1062
X18324Y10639
X18322Y10769
X18362Y10759
X18348Y10871
X18129Y10934
X18586Y1080273
X18604Y10671
X18733Y10663
Y10617
X18708Y10716
X18732Y10302
X18174Y10307
X18056Y10153
X17832Y10016
X18124Y0972
X18164Y09726
X181449Y095341
X18144Y09427
X1821Y09421
X18228Y09566
X18282Y09528
X18336Y09679
X18543Y09528
X18887Y09474
X19011Y09443
X19012Y09601
X19182Y09467
X19369Y09464
X1941502Y0946298
X19955Y09615
X20149Y09416
X20219Y10619
X1975Y10839
X19451Y10551
X192Y10405
X18794Y10379
X1879705Y0938205
X20427Y09533
X18477Y10939
X1838244Y1101345
X18264Y11117
X1816Y11211
X1811Y11191
X18061Y11032
X18194Y10978
X17913Y10993
X17877Y10975
X17892Y10939
X177536Y10955
X17701Y1103
X17748Y11124
X1759316Y11092
X17556Y11106
X17536Y11162
X1756367Y1118967
X17433Y11233
X17405Y1132
X17334Y11372
X17223Y1137
X17256Y11319
X17282Y11197
X17319Y1117249
X17405Y11528
X172277Y11664
X17201Y11699
X1866Y11756
X18662Y11829
X18683Y11622
X18726Y114
X18463Y111903
X17108Y11198
X171052Y11089
X17051Y11075
X1703651Y1113923
X1695Y11094
Y11194
X1684008Y1113592
X16734Y11146
X1669Y11079
X1644Y11059
X1641291Y11032
X1634Y11038
Y11127
X16258Y11235
X16606Y1127244
X16679Y11378
X1676Y11382
X16734Y11434
X168113Y114763
X1685937Y11448
X1694Y11489
X16968Y1163148
X16796Y11678
X16653Y11648
X1644462Y1149244
X16318Y11742
X16037Y11901
X15716Y12054
Y1158
X15743Y11382
X15665Y11159
X15908Y1113
X16076Y11016
X16382Y10972
X17147Y11318
X17183Y1134556
X17181Y11428
X1717433Y1164667
X16187Y12354
X15391Y1155
X1557633Y11355
X1541866Y11101
X1522072Y1096372
X1515707Y1102107
X1496378Y11054
X14806Y11044
X1442Y11085
X143379Y111991
X14269Y11196
X14253Y1137
X1412223Y11288
X14158Y11007
X1408308Y11567
X14324Y12053
X1457376Y1124524
X14037Y11293
X14004Y1123
X13876Y11243
X1387Y11118
X13749Y1102668
Y11218
X13732Y11283
Y11326
X13802Y11337
X13779Y113787
X13801Y1144
X13722Y11447
X13863Y1150961
X14003Y113795
X13557Y11362
X13529Y112537
X13584Y11185
X13036Y1121433
X14038Y12117
T02
X1915Y12
X1905
Y121
Y122
Y123
Y124
X1915
Y123
Y122
Y121
X1895
X1885
Y122
Y123
Y124
X1895
Y123
Y122
Y12
X1885
X1875
Y121
Y122
Y123
Y124
X1865
Y123
Y122
Y121
Y12
X1855
X1845
Y121
Y122
Y123
Y124
X1855
Y123
Y122
Y121
X1835
Y12
X1825
Y121
Y122
X1835
Y123
Y124
X1825
Y123
X1815
Y122
Y121
Y12
X1805
X1795
Y121
Y122
Y123
Y124
X1785
X1775
Y123
Y122
Y121
Y12
X1765
X1755
Y121
Y122
Y123
Y124
X1745
X1735
X1725
Y123
Y122
Y121
Y12
X1735
Y121
Y122
Y123
X1745
Y122
Y121
Y12
X1765Y121
Y122
Y123
Y124
X1785Y123
Y122
Y121
Y12
X1805Y121
Y122
Y123
Y124
X1815
X161
Y123
Y122
Y121
Y12
X16
X159
Y121
Y122
Y123
Y124
X158
X157
Y123
Y122
Y121
Y12
X158
Y121
Y122
Y123
X16
Y122
Y121
Y124
X156
X155
Y123
Y122
Y121
Y12
X154
X153
X152
X151
X15
Y121
Y122
Y123
Y124
X151
Y123
Y122
Y121
X152
Y122
Y123
Y124
X153
Y123
Y122
Y121
X154
Y122
Y123
Y124
X156Y123
Y122
Y121
Y12
X149
X148
Y121
Y122
Y123
Y124
X149
Y123
Y122
Y121
X147
X146
Y122
Y123
Y124
X147
Y123
Y122
Y12
X146
X145
X144
Y121
Y122
Y123
Y124
X145
Y123
Y122
Y121
X143
Y12
X142
Y121
Y122
X143
Y123
Y124
X142
Y123
Y125
X143
X144
Y126
Y127
Y128
Y129
X145
X146
Y128
Y127
Y126
Y125
X147
X148
Y126
Y127
Y128
Y129
X149
X15
Y128
Y127
Y126
Y125
X151
Y126
Y127
Y128
Y129
X152
Y128
Y127
Y126
Y125
X153
Y126
Y127
Y128
Y129
X154
X155
Y128
Y127
Y126
Y125
X154
Y126
Y127
Y128
X156
Y127
Y126
Y125
Y129
X149Y128
Y127
Y126
Y125
X147Y126
Y127
Y128
Y129
X145Y128
Y127
Y126
Y125
X143Y126
Y127
Y128
Y129
X142
Y128
Y127
Y126
X157
Y125
X158
X159
Y126
Y127
Y128
Y129
X158
X157
Y128
Y127
X158
Y126
Y128
X16
X161
Y127
Y126
Y125
X16
Y126
Y127
Y129
X161
X1725
Y128
Y127
Y126
Y125
X1735
Y126
Y127
Y128
Y129
X1745
X1755
Y128
Y127
Y126
Y125
X1745
Y126
Y127
Y128
X1765
X1775
Y127
Y126
Y125
X1765
Y126
Y127
Y129
X1775
X1785
X1795
Y128
Y127
Y126
Y125
X1785
Y126
Y127
Y128
X1805
X1815
X1825
X1835
X1845
Y129
X1855
X1865
Y128
Y127
Y126
Y125
X1855
X1845
Y126
Y127
X1855
Y128
Y126
X1835
Y125
X1825
Y126
Y127
X1835
Y129
X1825
X1815
X1805
Y127
X1815
Y126
Y125
X1805
Y126
X1875
X1885
Y127
Y128
Y129
X1895
X1905
Y128
Y127
Y126
Y125
X1915
Y126
Y127
Y128
Y129
X1895Y128
Y127
Y126
Y125
X1885
X1875
Y127
Y128
Y129
T03
X198Y107
X197Y108
X199
X192
X191Y107
X19Y108
X204
X206
X205Y107
Y115
X204Y116
X206
X199
X198Y115
X197Y116
T04
X1841Y1137
X1811
Y1167
X1841
T05
X207Y08
Y081
Y082
Y083
Y084
Y085
Y086
Y087
X1991811Y0844
X1960315
X1921811
X1890315
X1835Y119
X1825
X1815
X171Y121
Y122
Y123
Y124
X163
Y123
Y122
Y121
X128Y1195
Y1185
Y1175
Y1165
Y1155
X127
Y1165
Y1175
Y1185
Y1195
X136Y127
Y128
Y129
X138
Y128
Y127
X14
Y128
Y129
X163Y128
Y127
Y126
Y125
X171
Y126
Y127
Y128
T06
X2010787Y077
X2000787
X1910787
X1900787
T07
X1698189Y0856811
X1618189
X1538189
X1458189
X1378189
X2038189Y1226811
X1968189
X1898189Y1146811
T08
X131Y078
X132Y079
X131Y081
Y084
X132Y083
X127
Y079
X134Y087
Y092
Y098
Y104
T09
X1994764Y097063
X198
X1965236
X1924764
X191
X1895236
T10
X1721811Y0856811
X1641811
X1561811
X1481811
X1401811
X2061811Y1226811
X1991811
X1921811Y1146811
T11
X2020787Y075
X1980787
X1920787
X1880787
T12
X12775Y0745
X20645
X12775Y1276
X20645
T13
X2001654Y101
X1958346
X1931654
X1888346
M30
