%FSLAX25Y25*%
%MOIN*%
G70*
G01*
G75*
G04 Layer_Color=65535*
%ADD10R,0.03150X0.03543*%
%ADD11R,0.03543X0.03150*%
%ADD12O,0.02400X0.08000*%
%ADD13R,0.05709X0.01772*%
%ADD14O,0.05709X0.01772*%
%ADD15O,0.07480X0.01575*%
%ADD16R,0.08500X0.04200*%
%ADD17R,0.20000X0.32500*%
%ADD18R,0.07500X0.42500*%
%ADD19R,0.05906X0.05906*%
%ADD20O,0.01969X0.10630*%
%ADD21R,0.01969X0.10630*%
%ADD22R,0.00787X0.04724*%
%ADD23O,0.00787X0.04724*%
%ADD24R,0.07480X0.11024*%
%ADD25R,0.04724X0.05512*%
%ADD26C,0.03000*%
%ADD27C,0.00800*%
%ADD28C,0.05000*%
%ADD29C,0.00780*%
%ADD30C,0.08000*%
%ADD31C,0.02500*%
%ADD32R,0.50000X0.10000*%
%ADD33R,0.08268X0.11024*%
%ADD34R,0.09449X0.09449*%
%ADD35R,0.40000X0.40000*%
%ADD36R,0.10000X0.50000*%
%ADD37R,1.60000X0.40000*%
%ADD38R,0.14000X0.15000*%
%ADD39C,0.05315*%
%ADD40R,0.05315X0.05315*%
%ADD41C,0.10000*%
%ADD42C,0.05512*%
%ADD43C,0.06000*%
%ADD44C,0.12000*%
%ADD45R,0.06000X0.06000*%
%ADD46C,0.05906*%
%ADD47C,0.07000*%
%ADD48R,0.08000X0.08000*%
%ADD49C,0.08000*%
%ADD50C,0.07874*%
%ADD51C,0.17716*%
%ADD52C,0.05118*%
%ADD53R,0.05000X0.05000*%
%ADD54C,0.05000*%
%ADD55R,0.05906X0.05906*%
%ADD56C,0.14000*%
%ADD57C,0.05500*%
%ADD58C,0.11000*%
%ADD59C,0.03000*%
%ADD60O,0.10000X0.01181*%
%ADD61O,0.01181X0.10000*%
%ADD62O,0.07480X0.01181*%
%ADD63R,0.06299X0.01181*%
%ADD64O,0.06299X0.01181*%
%ADD65R,0.09449X0.24410*%
%ADD66R,0.00984X0.03150*%
%ADD67R,0.03150X0.00984*%
%ADD68O,0.03150X0.00984*%
%ADD69O,0.01181X0.07480*%
%ADD70O,0.01969X0.07874*%
%ADD71R,0.01181X0.03937*%
%ADD72O,0.01181X0.03937*%
%ADD73R,0.04724X0.05512*%
%ADD74R,0.03937X0.01969*%
%ADD75O,0.03937X0.01969*%
%ADD76R,2.00000X0.06000*%
%ADD77O,0.01969X0.03937*%
%ADD78R,0.01969X0.03937*%
%ADD79C,0.00787*%
%ADD80C,0.01000*%
%ADD81C,0.01500*%
%ADD82R,0.60000X0.45000*%
%ADD83R,3.70000X0.10000*%
%ADD84R,1.20000X0.10000*%
%ADD85R,1.90000X0.11000*%
D26*
X1254500Y719000D02*
Y740000D01*
X2087500Y719000D02*
Y740000D01*
X1254500Y1281000D02*
Y1302000D01*
Y719000D02*
X1275500D01*
X2066500D02*
X2087500D01*
X1254500Y1302000D02*
X1275500D01*
D27*
X1871787Y722000D02*
Y780000D01*
X1929787Y722000D02*
Y780000D01*
X1871787D02*
X1929787D01*
X1871787Y722000D02*
X1929787D01*
X1960000D02*
Y780000D01*
X2018000Y722000D02*
Y780000D01*
X1960000D02*
X2018000D01*
X1960000Y722000D02*
X2018000D01*
X1282998Y1206668D02*
X1282165Y1208334D01*
X1280499Y1210000D01*
X1278833D01*
X1278000Y1209167D01*
Y1207501D01*
X1278833Y1206668D01*
X1279666D01*
X1280499Y1207501D01*
Y1210000D01*
X1278000Y1154000D02*
Y1152334D01*
Y1153167D01*
X1282998D01*
X1282165Y1154000D01*
Y1149835D02*
X1282998Y1149002D01*
Y1147336D01*
X1282165Y1146502D01*
X1278833D01*
X1278000Y1147336D01*
Y1149002D01*
X1278833Y1149835D01*
X1282165D01*
X1272998Y1150668D02*
Y1154000D01*
X1270499D01*
X1271332Y1152334D01*
Y1151501D01*
X1270499Y1150668D01*
X1268833D01*
X1268000Y1151501D01*
Y1153167D01*
X1268833Y1154000D01*
X1268000Y1210000D02*
Y1208334D01*
Y1209167D01*
X1272998D01*
X1272165Y1210000D01*
D79*
X1333983Y988115D02*
G03*
X1334941Y1001915I-3274J7161D01*
G01*
X1326476D02*
G03*
X1327434Y988115I4232J-6640D01*
G01*
X1333983Y927878D02*
G03*
X1334941Y941679I-3274J7161D01*
G01*
X1326476D02*
G03*
X1327434Y927878I4232J-6640D01*
G01*
X1333983Y1047957D02*
G03*
X1334941Y1061758I-3274J7161D01*
G01*
X1326476D02*
G03*
X1327434Y1047957I4232J-6640D01*
G01*
X1945022Y950280D02*
G03*
X1946301Y950280I640J0D01*
G01*
X1945022Y869279D02*
G03*
X1946301Y869279I640J0D01*
G01*
X1348768Y839640D02*
G03*
X1349726Y825839I4232J-6640D01*
G01*
X1356274D02*
G03*
X1357232Y839640I-3274J7161D01*
G01*
X1943142Y950280D02*
X1945022D01*
X1946301D02*
X1948181D01*
Y940043D02*
Y950280D01*
X1943142Y940043D02*
X1948181D01*
X1943142D02*
Y950280D01*
Y869279D02*
X1945022D01*
X1946301D02*
X1948181D01*
Y859043D02*
Y869279D01*
X1943142Y859043D02*
X1948181D01*
X1943142D02*
Y869279D01*
X1913937Y1191528D02*
X1921417D01*
X1913937Y1182472D02*
X1921417D01*
Y1191528D01*
X1897402Y1184047D02*
Y1189953D01*
X1899370Y1191528D02*
X1906063D01*
X1897402Y1184047D02*
X1899370Y1182472D01*
X1897402Y1189953D02*
X1899370Y1191528D01*
X1899370Y1182472D02*
X1906063D01*
X1810000Y1195000D02*
X1840000D01*
X1810000Y1185000D02*
Y1195000D01*
Y1185000D02*
X1840000D01*
Y1195000D01*
X1405000Y1265000D02*
Y1295000D01*
X1395000D02*
X1405000D01*
X1395000Y1265000D02*
Y1295000D01*
Y1265000D02*
X1405000D01*
X1385000D02*
Y1295000D01*
X1375000D02*
X1385000D01*
X1375000Y1265000D02*
Y1295000D01*
Y1265000D02*
X1385000D01*
X1365000D02*
Y1295000D01*
X1355000D02*
X1365000D01*
X1355000Y1265000D02*
Y1295000D01*
Y1265000D02*
X1365000D01*
X1855000Y855000D02*
X1865000D01*
Y775000D02*
Y855000D01*
X1855000Y775000D02*
X1865000D01*
X1855000D02*
Y855000D01*
X2065000Y876000D02*
X2075000D01*
Y796000D02*
Y876000D01*
X2065000Y796000D02*
X2075000D01*
X2065000D02*
Y876000D01*
X1705000Y1205000D02*
X1715000D01*
X1705000D02*
Y1285000D01*
X1715000D01*
Y1205000D02*
Y1285000D01*
X1625000Y1205000D02*
X1635000D01*
X1625000D02*
Y1285000D01*
X1635000D01*
Y1205000D02*
Y1285000D01*
X1265000Y1205000D02*
X1285000D01*
X1265000Y1155000D02*
Y1205000D01*
Y1155000D02*
X1285000D01*
Y1205000D01*
X1835000Y775000D02*
Y855000D01*
Y775000D02*
X1845000D01*
Y855000D01*
X1835000D02*
X1845000D01*
D80*
X1801500Y1032500D02*
G03*
X1801500Y1037500I0J2500D01*
G01*
X1860678Y914032D02*
G03*
X1860678Y914032I-1623J0D01*
G01*
X1801500Y1029500D02*
Y1032500D01*
Y1037500D02*
Y1040500D01*
X1821500D01*
X1801500Y1029500D02*
X1821500D01*
Y1040500D01*
X1855512Y896315D02*
Y917575D01*
X1868110Y896315D02*
Y917575D01*
X1855512Y896315D02*
X1868110D01*
X1855512Y917575D02*
X1868110D01*
X1273500Y1080500D02*
X1306500D01*
X1273500Y1039500D02*
X1306500D01*
Y1080500D01*
X1273500Y1020500D02*
X1306500D01*
X1273500Y979500D02*
X1306500D01*
Y1020500D01*
X1273500Y960500D02*
X1306500D01*
X1273500Y919500D02*
X1306500D01*
Y960500D01*
X2005500Y1084000D02*
Y1135000D01*
X1954500Y1084000D02*
Y1135000D01*
Y1084000D02*
X2005500D01*
X1954500Y1135000D02*
X2005500D01*
X1935500Y1084000D02*
Y1135000D01*
X1884500Y1084000D02*
Y1135000D01*
Y1084000D02*
X1935500D01*
X1884500Y1135000D02*
X1935500D01*
X2075500Y1164000D02*
Y1215000D01*
X2024500Y1164000D02*
Y1215000D01*
Y1164000D02*
X2075500D01*
X2024500Y1215000D02*
X2075500D01*
X2005500Y1164000D02*
Y1215000D01*
X1954500Y1164000D02*
Y1215000D01*
Y1164000D02*
X2005500D01*
X1954500Y1215000D02*
X2005500D01*
X1980000Y1035591D02*
X2011496D01*
Y964724D02*
Y1035591D01*
X1948504Y964724D02*
X2011496D01*
X1948504D02*
Y1035591D01*
X1980000D01*
X1910000D02*
X1941496D01*
Y964724D02*
Y1035591D01*
X1878504Y964724D02*
X1941496D01*
X1878504D02*
Y1035591D01*
X1910000D01*
X1886378Y829906D02*
X1910000D01*
X1886378Y818095D02*
Y829906D01*
Y818095D02*
X1933622D01*
Y829906D01*
X1910000D02*
X1933622D01*
X1980000D02*
X2003622D01*
Y818095D02*
Y829906D01*
X1956378Y818095D02*
X2003622D01*
X1956378D02*
Y829906D01*
X1980000D01*
X2075500Y1084000D02*
Y1135000D01*
X2024500Y1084000D02*
Y1135000D01*
Y1084000D02*
X2075500D01*
X2024500Y1135000D02*
X2075500D01*
X1685086Y1051685D02*
X1684086Y1052685D01*
X1682087D01*
X1681087Y1051685D01*
Y1047686D01*
X1682087Y1046687D01*
X1684086D01*
X1685086Y1047686D01*
X1687086Y1051685D02*
X1688085Y1052685D01*
X1690084D01*
X1691084Y1051685D01*
Y1050685D01*
X1690084Y1049686D01*
X1689085D01*
X1690084D01*
X1691084Y1048686D01*
Y1047686D01*
X1690084Y1046687D01*
X1688085D01*
X1687086Y1047686D01*
X1693084Y1051685D02*
X1694083Y1052685D01*
X1696082D01*
X1697082Y1051685D01*
Y1050685D01*
X1696082Y1049686D01*
X1697082Y1048686D01*
Y1047686D01*
X1696082Y1046687D01*
X1694083D01*
X1693084Y1047686D01*
Y1048686D01*
X1694083Y1049686D01*
X1693084Y1050685D01*
Y1051685D01*
X1694083Y1049686D02*
X1696082D01*
X1694924Y1051653D02*
X1693924Y1052653D01*
X1691925D01*
X1690925Y1051653D01*
Y1047655D01*
X1691925Y1046655D01*
X1693924D01*
X1694924Y1047655D01*
X1700922Y1046655D02*
X1696923D01*
X1700922Y1050654D01*
Y1051653D01*
X1699922Y1052653D01*
X1697923D01*
X1696923Y1051653D01*
X1706920Y1052653D02*
X1702921D01*
Y1049654D01*
X1704921Y1050654D01*
X1705920D01*
X1706920Y1049654D01*
Y1047655D01*
X1705920Y1046655D01*
X1703921D01*
X1702921Y1047655D01*
X1327449Y955898D02*
X1326449Y956898D01*
X1324450D01*
X1323450Y955898D01*
Y951900D01*
X1324450Y950900D01*
X1326449D01*
X1327449Y951900D01*
X1333447Y950900D02*
X1329449D01*
X1333447Y954899D01*
Y955898D01*
X1332448Y956898D01*
X1330448D01*
X1329449Y955898D01*
X1338445Y950900D02*
Y956898D01*
X1335446Y953899D01*
X1339445D01*
X1327486Y1016186D02*
X1326486Y1017185D01*
X1324487D01*
X1323487Y1016186D01*
Y1012187D01*
X1324487Y1011187D01*
X1326486D01*
X1327486Y1012187D01*
X1329486Y1016186D02*
X1330485Y1017185D01*
X1332485D01*
X1333484Y1016186D01*
Y1015186D01*
X1332485Y1014186D01*
X1331485D01*
X1332485D01*
X1333484Y1013187D01*
Y1012187D01*
X1332485Y1011187D01*
X1330485D01*
X1329486Y1012187D01*
X1335483Y1017185D02*
X1339482D01*
Y1016186D01*
X1335483Y1012187D01*
Y1011187D01*
X1328999Y734998D02*
X1327999Y735998D01*
X1326000D01*
X1325000Y734998D01*
Y731000D01*
X1326000Y730000D01*
X1327999D01*
X1328999Y731000D01*
Y732999D01*
X1326999D01*
X1330998Y730000D02*
Y735998D01*
X1334997Y730000D01*
Y735998D01*
X1336996D02*
Y730000D01*
X1339995D01*
X1340995Y731000D01*
Y734998D01*
X1339995Y735998D01*
X1336996D01*
X1355000Y762999D02*
X1358999D01*
X1360998Y760000D02*
X1362997D01*
X1361998D01*
Y765998D01*
X1360998Y764998D01*
X1369995Y760000D02*
X1365996D01*
X1369995Y763999D01*
Y764998D01*
X1368995Y765998D01*
X1366996D01*
X1365996Y764998D01*
X1371994Y765998D02*
Y761999D01*
X1373994Y760000D01*
X1375993Y761999D01*
Y765998D01*
X1385000Y792999D02*
X1388999D01*
X1386999Y794998D02*
Y791000D01*
X1390998Y790000D02*
X1392997D01*
X1391998D01*
Y795998D01*
X1390998Y794998D01*
X1399995Y790000D02*
X1395996D01*
X1399995Y793999D01*
Y794998D01*
X1398995Y795998D01*
X1396996D01*
X1395996Y794998D01*
X1401995Y795998D02*
Y791999D01*
X1403994Y790000D01*
X1405993Y791999D01*
Y795998D01*
X1354649Y789448D02*
X1352649D01*
X1353649D01*
Y784450D01*
X1352649Y783450D01*
X1351650D01*
X1350650Y784450D01*
X1356648Y783450D02*
Y789448D01*
X1359647D01*
X1360647Y788448D01*
Y786449D01*
X1359647Y785449D01*
X1356648D01*
X1366645Y789448D02*
X1362646D01*
Y786449D01*
X1364645Y787449D01*
X1365645D01*
X1366645Y786449D01*
Y784450D01*
X1365645Y783450D01*
X1363646D01*
X1362646Y784450D01*
X1384649Y819448D02*
X1382649D01*
X1383649D01*
Y814450D01*
X1382649Y813450D01*
X1381650D01*
X1380650Y814450D01*
X1386648Y813450D02*
Y819448D01*
X1389647D01*
X1390647Y818448D01*
Y816449D01*
X1389647Y815449D01*
X1386648D01*
X1395645Y813450D02*
Y819448D01*
X1392646Y816449D01*
X1396645D01*
X1324649Y759448D02*
X1322649D01*
X1323649D01*
Y754450D01*
X1322649Y753450D01*
X1321650D01*
X1320650Y754450D01*
X1326648Y753450D02*
Y759448D01*
X1329647D01*
X1330647Y758448D01*
Y756449D01*
X1329647Y755449D01*
X1326648D01*
X1332646Y758448D02*
X1333646Y759448D01*
X1335645D01*
X1336645Y758448D01*
Y757449D01*
X1335645Y756449D01*
X1336645Y755449D01*
Y754450D01*
X1335645Y753450D01*
X1333646D01*
X1332646Y754450D01*
Y755449D01*
X1333646Y756449D01*
X1332646Y757449D01*
Y758448D01*
X1333646Y756449D02*
X1335645D01*
X1684999Y1058998D02*
X1683999Y1059998D01*
X1682000D01*
X1681000Y1058998D01*
Y1055000D01*
X1682000Y1054000D01*
X1683999D01*
X1684999Y1055000D01*
X1690997Y1054000D02*
X1686998D01*
X1690997Y1057999D01*
Y1058998D01*
X1689997Y1059998D01*
X1687998D01*
X1686998Y1058998D01*
X1696995Y1059998D02*
X1694995Y1058998D01*
X1692996Y1056999D01*
Y1055000D01*
X1693996Y1054000D01*
X1695995D01*
X1696995Y1055000D01*
Y1055999D01*
X1695995Y1056999D01*
X1692996D01*
X1693002Y1068999D02*
X1692002Y1067999D01*
Y1066000D01*
X1693002Y1065000D01*
X1697000D01*
X1698000Y1066000D01*
Y1067999D01*
X1697000Y1068999D01*
X1698000Y1074997D02*
Y1070998D01*
X1694001Y1074997D01*
X1693002D01*
X1692002Y1073997D01*
Y1071998D01*
X1693002Y1070998D01*
X1692002Y1076996D02*
Y1080995D01*
X1693002D01*
X1697000Y1076996D01*
X1698000D01*
X1703999Y1080998D02*
X1702999Y1081998D01*
X1701000D01*
X1700000Y1080998D01*
Y1077000D01*
X1701000Y1076000D01*
X1702999D01*
X1703999Y1077000D01*
X1705998Y1080998D02*
X1706998Y1081998D01*
X1708997D01*
X1709997Y1080998D01*
Y1079999D01*
X1708997Y1078999D01*
X1707997D01*
X1708997D01*
X1709997Y1077999D01*
Y1077000D01*
X1708997Y1076000D01*
X1706998D01*
X1705998Y1077000D01*
X1711996D02*
X1712996Y1076000D01*
X1714995D01*
X1715995Y1077000D01*
Y1080998D01*
X1714995Y1081998D01*
X1712996D01*
X1711996Y1080998D01*
Y1079999D01*
X1712996Y1078999D01*
X1715995D01*
X1723999Y1061998D02*
X1722999Y1062998D01*
X1721000D01*
X1720000Y1061998D01*
Y1058000D01*
X1721000Y1057000D01*
X1722999D01*
X1723999Y1058000D01*
X1729997Y1057000D02*
X1725998D01*
X1729997Y1060999D01*
Y1061998D01*
X1728997Y1062998D01*
X1726998D01*
X1725998Y1061998D01*
X1731996D02*
X1732996Y1062998D01*
X1734995D01*
X1735995Y1061998D01*
Y1060999D01*
X1734995Y1059999D01*
X1735995Y1058999D01*
Y1058000D01*
X1734995Y1057000D01*
X1732996D01*
X1731996Y1058000D01*
Y1058999D01*
X1732996Y1059999D01*
X1731996Y1060999D01*
Y1061998D01*
X1732996Y1059999D02*
X1734995D01*
X1729999Y1054998D02*
X1728999Y1055998D01*
X1727000D01*
X1726000Y1054998D01*
Y1051000D01*
X1727000Y1050000D01*
X1728999D01*
X1729999Y1051000D01*
X1735997Y1050000D02*
X1731998D01*
X1735997Y1053999D01*
Y1054998D01*
X1734997Y1055998D01*
X1732998D01*
X1731998Y1054998D01*
X1737996Y1051000D02*
X1738996Y1050000D01*
X1740995D01*
X1741995Y1051000D01*
Y1054998D01*
X1740995Y1055998D01*
X1738996D01*
X1737996Y1054998D01*
Y1053999D01*
X1738996Y1052999D01*
X1741995D01*
X1725999Y1047998D02*
X1724999Y1048998D01*
X1723000D01*
X1722000Y1047998D01*
Y1044000D01*
X1723000Y1043000D01*
X1724999D01*
X1725999Y1044000D01*
X1730997Y1043000D02*
Y1048998D01*
X1727998Y1045999D01*
X1731997D01*
X1733996Y1047998D02*
X1734996Y1048998D01*
X1736995D01*
X1737995Y1047998D01*
Y1044000D01*
X1736995Y1043000D01*
X1734996D01*
X1733996Y1044000D01*
Y1047998D01*
X1709999Y1036998D02*
X1708999Y1037998D01*
X1707000D01*
X1706000Y1036998D01*
Y1033000D01*
X1707000Y1032000D01*
X1708999D01*
X1709999Y1033000D01*
X1711998Y1036998D02*
X1712998Y1037998D01*
X1714997D01*
X1715997Y1036998D01*
Y1035999D01*
X1714997Y1034999D01*
X1713997D01*
X1714997D01*
X1715997Y1033999D01*
Y1033000D01*
X1714997Y1032000D01*
X1712998D01*
X1711998Y1033000D01*
X1717996Y1036998D02*
X1718996Y1037998D01*
X1720995D01*
X1721995Y1036998D01*
Y1033000D01*
X1720995Y1032000D01*
X1718996D01*
X1717996Y1033000D01*
Y1036998D01*
X1729999Y1031998D02*
X1728999Y1032998D01*
X1727000D01*
X1726000Y1031998D01*
Y1028000D01*
X1727000Y1027000D01*
X1728999D01*
X1729999Y1028000D01*
X1731998Y1031998D02*
X1732998Y1032998D01*
X1734997D01*
X1735997Y1031998D01*
Y1030999D01*
X1734997Y1029999D01*
X1733997D01*
X1734997D01*
X1735997Y1028999D01*
Y1028000D01*
X1734997Y1027000D01*
X1732998D01*
X1731998Y1028000D01*
X1737996Y1027000D02*
X1739996D01*
X1738996D01*
Y1032998D01*
X1737996Y1031998D01*
X1729999Y1020998D02*
X1728999Y1021998D01*
X1727000D01*
X1726000Y1020998D01*
Y1017000D01*
X1727000Y1016000D01*
X1728999D01*
X1729999Y1017000D01*
X1731998Y1020998D02*
X1732998Y1021998D01*
X1734997D01*
X1735997Y1020998D01*
Y1019999D01*
X1734997Y1018999D01*
X1733997D01*
X1734997D01*
X1735997Y1017999D01*
Y1017000D01*
X1734997Y1016000D01*
X1732998D01*
X1731998Y1017000D01*
X1741995Y1016000D02*
X1737996D01*
X1741995Y1019999D01*
Y1020998D01*
X1740995Y1021998D01*
X1738996D01*
X1737996Y1020998D01*
X1722999Y1012998D02*
X1721999Y1013998D01*
X1720000D01*
X1719000Y1012998D01*
Y1009000D01*
X1720000Y1008000D01*
X1721999D01*
X1722999Y1009000D01*
X1724998Y1012998D02*
X1725998Y1013998D01*
X1727997D01*
X1728997Y1012998D01*
Y1011999D01*
X1727997Y1010999D01*
X1726997D01*
X1727997D01*
X1728997Y1009999D01*
Y1009000D01*
X1727997Y1008000D01*
X1725998D01*
X1724998Y1009000D01*
X1730996Y1012998D02*
X1731996Y1013998D01*
X1733995D01*
X1734995Y1012998D01*
Y1011999D01*
X1733995Y1010999D01*
X1732995D01*
X1733995D01*
X1734995Y1009999D01*
Y1009000D01*
X1733995Y1008000D01*
X1731996D01*
X1730996Y1009000D01*
X1698999Y1025998D02*
X1697999Y1026998D01*
X1696000D01*
X1695000Y1025998D01*
Y1022000D01*
X1696000Y1021000D01*
X1697999D01*
X1698999Y1022000D01*
X1700998Y1025998D02*
X1701998Y1026998D01*
X1703997D01*
X1704997Y1025998D01*
Y1024999D01*
X1703997Y1023999D01*
X1702997D01*
X1703997D01*
X1704997Y1022999D01*
Y1022000D01*
X1703997Y1021000D01*
X1701998D01*
X1700998Y1022000D01*
X1710995Y1026998D02*
X1708995Y1025998D01*
X1706996Y1023999D01*
Y1022000D01*
X1707996Y1021000D01*
X1709995D01*
X1710995Y1022000D01*
Y1022999D01*
X1709995Y1023999D01*
X1706996D01*
X1700998Y1001001D02*
X1701998Y1002001D01*
Y1004000D01*
X1700998Y1005000D01*
X1697000D01*
X1696000Y1004000D01*
Y1002001D01*
X1697000Y1001001D01*
X1700998Y999002D02*
X1701998Y998002D01*
Y996003D01*
X1700998Y995003D01*
X1699999D01*
X1698999Y996003D01*
Y997003D01*
Y996003D01*
X1697999Y995003D01*
X1697000D01*
X1696000Y996003D01*
Y998002D01*
X1697000Y999002D01*
X1696000Y990005D02*
X1701998D01*
X1698999Y993004D01*
Y989005D01*
X1691998Y1010001D02*
X1692998Y1011001D01*
Y1013000D01*
X1691998Y1014000D01*
X1688000D01*
X1687000Y1013000D01*
Y1011001D01*
X1688000Y1010001D01*
X1691998Y1008002D02*
X1692998Y1007002D01*
Y1005003D01*
X1691998Y1004003D01*
X1690999D01*
X1689999Y1005003D01*
Y1006003D01*
Y1005003D01*
X1688999Y1004003D01*
X1688000D01*
X1687000Y1005003D01*
Y1007002D01*
X1688000Y1008002D01*
X1692998Y998005D02*
Y1002004D01*
X1689999D01*
X1690999Y1000004D01*
Y999005D01*
X1689999Y998005D01*
X1688000D01*
X1687000Y999005D01*
Y1001004D01*
X1688000Y1002004D01*
X1715999Y1002998D02*
X1714999Y1003998D01*
X1713000D01*
X1712000Y1002998D01*
Y999000D01*
X1713000Y998000D01*
X1714999D01*
X1715999Y999000D01*
X1720997Y998000D02*
Y1003998D01*
X1717998Y1000999D01*
X1721997D01*
X1723996Y998000D02*
X1725995D01*
X1724996D01*
Y1003998D01*
X1723996Y1002998D01*
X1636999Y1056998D02*
X1635999Y1057998D01*
X1634000D01*
X1633000Y1056998D01*
Y1053000D01*
X1634000Y1052000D01*
X1635999D01*
X1636999Y1053000D01*
X1638998Y1052000D02*
X1640997D01*
X1639998D01*
Y1057998D01*
X1638998Y1056998D01*
X1643996D02*
X1644996Y1057998D01*
X1646996D01*
X1647995Y1056998D01*
Y1055999D01*
X1646996Y1054999D01*
X1645996D01*
X1646996D01*
X1647995Y1053999D01*
Y1053000D01*
X1646996Y1052000D01*
X1644996D01*
X1643996Y1053000D01*
X1736998Y970001D02*
X1737998Y971001D01*
Y973000D01*
X1736998Y974000D01*
X1733000D01*
X1732000Y973000D01*
Y971001D01*
X1733000Y970001D01*
X1732000Y968002D02*
Y966003D01*
Y967002D01*
X1737998D01*
X1736998Y968002D01*
X1733000Y963004D02*
X1732000Y962004D01*
Y960005D01*
X1733000Y959005D01*
X1736998D01*
X1737998Y960005D01*
Y962004D01*
X1736998Y963004D01*
X1735999D01*
X1734999Y962004D01*
Y959005D01*
X1759999Y1016998D02*
X1758999Y1017998D01*
X1757000D01*
X1756000Y1016998D01*
Y1013000D01*
X1757000Y1012000D01*
X1758999D01*
X1759999Y1013000D01*
X1761998Y1012000D02*
X1763997D01*
X1762998D01*
Y1017998D01*
X1761998Y1016998D01*
X1766996D02*
X1767996Y1017998D01*
X1769995D01*
X1770995Y1016998D01*
Y1015999D01*
X1769995Y1014999D01*
X1770995Y1013999D01*
Y1013000D01*
X1769995Y1012000D01*
X1767996D01*
X1766996Y1013000D01*
Y1013999D01*
X1767996Y1014999D01*
X1766996Y1015999D01*
Y1016998D01*
X1767996Y1014999D02*
X1769995D01*
X1759999Y1055998D02*
X1758999Y1056998D01*
X1757000D01*
X1756000Y1055998D01*
Y1052000D01*
X1757000Y1051000D01*
X1758999D01*
X1759999Y1052000D01*
X1761998Y1051000D02*
X1763997D01*
X1762998D01*
Y1056998D01*
X1761998Y1055998D01*
X1766996Y1056998D02*
X1770995D01*
Y1055998D01*
X1766996Y1052000D01*
Y1051000D01*
X1733002Y1099999D02*
X1732002Y1098999D01*
Y1097000D01*
X1733002Y1096000D01*
X1737000D01*
X1738000Y1097000D01*
Y1098999D01*
X1737000Y1099999D01*
X1738000Y1101998D02*
Y1103997D01*
Y1102998D01*
X1732002D01*
X1733002Y1101998D01*
X1732002Y1110995D02*
Y1106996D01*
X1735001D01*
X1734001Y1108996D01*
Y1109995D01*
X1735001Y1110995D01*
X1737000D01*
X1738000Y1109995D01*
Y1107996D01*
X1737000Y1106996D01*
X1677041Y1099999D02*
X1676041Y1098999D01*
Y1097000D01*
X1677041Y1096000D01*
X1681040D01*
X1682039Y1097000D01*
Y1098999D01*
X1681040Y1099999D01*
X1682039Y1101998D02*
Y1103997D01*
Y1102998D01*
X1676041D01*
X1677041Y1101998D01*
X1682039Y1109995D02*
X1676041D01*
X1679040Y1106996D01*
Y1110995D01*
X1638999Y1017290D02*
X1637999Y1018289D01*
X1636000D01*
X1635000Y1017290D01*
Y1013291D01*
X1636000Y1012291D01*
X1637999D01*
X1638999Y1013291D01*
X1644997Y1012291D02*
X1640998D01*
X1644997Y1016290D01*
Y1017290D01*
X1643997Y1018289D01*
X1641998D01*
X1640998Y1017290D01*
X1646996Y1012291D02*
X1648996D01*
X1647996D01*
Y1018289D01*
X1646996Y1017290D01*
X1681998Y970001D02*
X1682998Y971001D01*
Y973000D01*
X1681998Y974000D01*
X1678000D01*
X1677000Y973000D01*
Y971001D01*
X1678000Y970001D01*
X1677000Y964003D02*
Y968002D01*
X1680999Y964003D01*
X1681998D01*
X1682998Y965003D01*
Y967002D01*
X1681998Y968002D01*
Y962004D02*
X1682998Y961004D01*
Y959005D01*
X1681998Y958005D01*
X1678000D01*
X1677000Y959005D01*
Y961004D01*
X1678000Y962004D01*
X1681998D01*
X1810999Y1077998D02*
X1809999Y1078998D01*
X1808000D01*
X1807000Y1077998D01*
Y1074000D01*
X1808000Y1073000D01*
X1809999D01*
X1810999Y1074000D01*
X1812998Y1077998D02*
X1813998Y1078998D01*
X1815997D01*
X1816997Y1077998D01*
Y1076999D01*
X1815997Y1075999D01*
X1814997D01*
X1815997D01*
X1816997Y1074999D01*
Y1074000D01*
X1815997Y1073000D01*
X1813998D01*
X1812998Y1074000D01*
X1808000Y1037998D02*
Y1033000D01*
X1809000Y1032000D01*
X1810999D01*
X1811999Y1033000D01*
Y1037998D01*
X1813998Y1032000D02*
X1815997D01*
X1814998D01*
Y1037998D01*
X1813998Y1036998D01*
X1795002Y1045999D02*
X1794002Y1044999D01*
Y1043000D01*
X1795002Y1042000D01*
X1799000D01*
X1800000Y1043000D01*
Y1044999D01*
X1799000Y1045999D01*
X1800000Y1047998D02*
Y1049997D01*
Y1048998D01*
X1794002D01*
X1795002Y1047998D01*
X1800000Y1056995D02*
Y1052996D01*
X1796001Y1056995D01*
X1795002D01*
X1794002Y1055995D01*
Y1053996D01*
X1795002Y1052996D01*
X1790000Y1013126D02*
Y1019124D01*
X1792999D01*
X1793999Y1018124D01*
Y1016125D01*
X1792999Y1015125D01*
X1790000D01*
X1791999D02*
X1793999Y1013126D01*
X1799997Y1019124D02*
X1797997Y1018124D01*
X1795998Y1016125D01*
Y1014126D01*
X1796998Y1013126D01*
X1798997D01*
X1799997Y1014126D01*
Y1015125D01*
X1798997Y1016125D01*
X1795998D01*
X1809999Y995998D02*
X1808999Y996998D01*
X1807000D01*
X1806000Y995998D01*
Y992000D01*
X1807000Y991000D01*
X1808999D01*
X1809999Y992000D01*
X1815997Y996998D02*
X1813997Y995998D01*
X1811998Y993999D01*
Y992000D01*
X1812998Y991000D01*
X1814997D01*
X1815997Y992000D01*
Y992999D01*
X1814997Y993999D01*
X1811998D01*
X1905000Y955000D02*
X1899002D01*
Y957999D01*
X1900002Y958999D01*
X1902001D01*
X1903001Y957999D01*
Y955000D01*
Y956999D02*
X1905000Y958999D01*
X1900002Y960998D02*
X1899002Y961998D01*
Y963997D01*
X1900002Y964997D01*
X1901001D01*
X1902001Y963997D01*
X1903001Y964997D01*
X1904000D01*
X1905000Y963997D01*
Y961998D01*
X1904000Y960998D01*
X1903001D01*
X1902001Y961998D01*
X1901001Y960998D01*
X1900002D01*
X1902001Y961998D02*
Y963997D01*
X1904000Y966996D02*
X1905000Y967996D01*
Y969995D01*
X1904000Y970995D01*
X1900002D01*
X1899002Y969995D01*
Y967996D01*
X1900002Y966996D01*
X1901001D01*
X1902001Y967996D01*
Y970995D01*
X1915002Y958999D02*
X1914002Y957999D01*
Y956000D01*
X1915002Y955000D01*
X1919000D01*
X1920000Y956000D01*
Y957999D01*
X1919000Y958999D01*
X1914002Y960998D02*
Y964997D01*
X1915002D01*
X1919000Y960998D01*
X1920000D01*
X1914002Y970995D02*
Y966996D01*
X1917001D01*
X1916001Y968995D01*
Y969995D01*
X1917001Y970995D01*
X1919000D01*
X1920000Y969995D01*
Y967996D01*
X1919000Y966996D01*
X1935000Y955000D02*
X1929002D01*
Y957999D01*
X1930002Y958999D01*
X1932001D01*
X1933001Y957999D01*
Y955000D01*
Y956999D02*
X1935000Y958999D01*
X1934000Y960998D02*
X1935000Y961998D01*
Y963997D01*
X1934000Y964997D01*
X1930002D01*
X1929002Y963997D01*
Y961998D01*
X1930002Y960998D01*
X1931001D01*
X1932001Y961998D01*
Y964997D01*
X1935000Y966996D02*
Y968995D01*
Y967996D01*
X1929002D01*
X1930002Y966996D01*
X1961000Y955000D02*
X1955002D01*
Y957999D01*
X1956002Y958999D01*
X1958001D01*
X1959001Y957999D01*
Y955000D01*
Y956999D02*
X1961000Y958999D01*
X1960000Y960998D02*
X1961000Y961998D01*
Y963997D01*
X1960000Y964997D01*
X1956002D01*
X1955002Y963997D01*
Y961998D01*
X1956002Y960998D01*
X1957001D01*
X1958001Y961998D01*
Y964997D01*
X1956002Y966996D02*
X1955002Y967996D01*
Y969995D01*
X1956002Y970995D01*
X1960000D01*
X1961000Y969995D01*
Y967996D01*
X1960000Y966996D01*
X1956002D01*
X1970002Y958999D02*
X1969002Y957999D01*
Y956000D01*
X1970002Y955000D01*
X1974000D01*
X1975000Y956000D01*
Y957999D01*
X1974000Y958999D01*
X1969002Y960998D02*
Y964997D01*
X1970002D01*
X1974000Y960998D01*
X1975000D01*
X1969002Y970995D02*
X1970002Y968995D01*
X1972001Y966996D01*
X1974000D01*
X1975000Y967996D01*
Y969995D01*
X1974000Y970995D01*
X1973001D01*
X1972001Y969995D01*
Y966996D01*
X1991000Y955000D02*
X1985002D01*
Y957999D01*
X1986002Y958999D01*
X1988001D01*
X1989001Y957999D01*
Y955000D01*
Y956999D02*
X1991000Y958999D01*
X1990000Y960998D02*
X1991000Y961998D01*
Y963997D01*
X1990000Y964997D01*
X1986002D01*
X1985002Y963997D01*
Y961998D01*
X1986002Y960998D01*
X1987001D01*
X1988001Y961998D01*
Y964997D01*
X1991000Y970995D02*
Y966996D01*
X1987001Y970995D01*
X1986002D01*
X1985002Y969995D01*
Y967996D01*
X1986002Y966996D01*
X1985999Y943998D02*
X1984999Y944998D01*
X1983000D01*
X1982000Y943998D01*
Y940000D01*
X1983000Y939000D01*
X1984999D01*
X1985999Y940000D01*
X1991997Y944998D02*
X1987998D01*
Y941999D01*
X1989997Y942999D01*
X1990997D01*
X1991997Y941999D01*
Y940000D01*
X1990997Y939000D01*
X1988998D01*
X1987998Y940000D01*
X1993996Y944998D02*
X1997995D01*
Y943998D01*
X1993996Y940000D01*
Y939000D01*
X1969673Y929673D02*
Y935671D01*
X1972672D01*
X1973672Y934671D01*
Y932672D01*
X1972672Y931672D01*
X1969673D01*
X1971672D02*
X1973672Y929673D01*
X1975671Y935671D02*
X1979670D01*
Y934671D01*
X1975671Y930672D01*
Y929673D01*
X1981669Y934671D02*
X1982669Y935671D01*
X1984668D01*
X1985668Y934671D01*
Y933672D01*
X1984668Y932672D01*
X1985668Y931672D01*
Y930672D01*
X1984668Y929673D01*
X1982669D01*
X1981669Y930672D01*
Y931672D01*
X1982669Y932672D01*
X1981669Y933672D01*
Y934671D01*
X1982669Y932672D02*
X1984668D01*
X1938000Y958242D02*
Y953244D01*
X1939000Y952244D01*
X1940999D01*
X1941999Y953244D01*
Y958242D01*
X1943998Y952244D02*
X1945997D01*
X1944998D01*
Y958242D01*
X1943998Y957242D01*
X1948996Y953244D02*
X1949996Y952244D01*
X1951995D01*
X1952995Y953244D01*
Y957242D01*
X1951995Y958242D01*
X1949996D01*
X1948996Y957242D01*
Y956243D01*
X1949996Y955243D01*
X1952995D01*
X1914000Y928000D02*
Y933998D01*
X1916999D01*
X1917999Y932998D01*
Y930999D01*
X1916999Y929999D01*
X1914000D01*
X1915999D02*
X1917999Y928000D01*
X1919998Y933998D02*
X1923997D01*
Y932998D01*
X1919998Y929000D01*
Y928000D01*
X1925996Y933998D02*
X1929995D01*
Y932998D01*
X1925996Y929000D01*
Y928000D01*
X1895999Y941998D02*
X1894999Y942998D01*
X1893000D01*
X1892000Y941998D01*
Y938000D01*
X1893000Y937000D01*
X1894999D01*
X1895999Y938000D01*
X1901997Y942998D02*
X1897998D01*
Y939999D01*
X1899997Y940999D01*
X1900997D01*
X1901997Y939999D01*
Y938000D01*
X1900997Y937000D01*
X1898998D01*
X1897998Y938000D01*
X1907995Y942998D02*
X1905996Y941998D01*
X1903996Y939999D01*
Y938000D01*
X1904996Y937000D01*
X1906995D01*
X1907995Y938000D01*
Y938999D01*
X1906995Y939999D01*
X1903996D01*
X1894999Y912318D02*
X1893999Y913318D01*
X1892000D01*
X1891000Y912318D01*
Y908320D01*
X1892000Y907320D01*
X1893999D01*
X1894999Y908320D01*
X1900997Y913318D02*
X1898997Y912318D01*
X1896998Y910319D01*
Y908320D01*
X1897998Y907320D01*
X1899997D01*
X1900997Y908320D01*
Y909319D01*
X1899997Y910319D01*
X1896998D01*
X1902996Y913318D02*
X1906995D01*
Y912318D01*
X1902996Y908320D01*
Y907320D01*
X1894999Y903998D02*
X1893999Y904998D01*
X1892000D01*
X1891000Y903998D01*
Y900000D01*
X1892000Y899000D01*
X1893999D01*
X1894999Y900000D01*
X1900997Y904998D02*
X1898997Y903998D01*
X1896998Y901999D01*
Y900000D01*
X1897998Y899000D01*
X1899997D01*
X1900997Y900000D01*
Y900999D01*
X1899997Y901999D01*
X1896998D01*
X1902996Y899000D02*
X1904996D01*
X1903996D01*
Y904998D01*
X1902996Y903998D01*
X1984621Y914277D02*
X1983621Y915277D01*
X1981622D01*
X1980622Y914277D01*
Y910279D01*
X1981622Y909279D01*
X1983621D01*
X1984621Y910279D01*
X1990619Y915277D02*
X1988620Y914277D01*
X1986620Y912278D01*
Y910279D01*
X1987620Y909279D01*
X1989619D01*
X1990619Y910279D01*
Y911279D01*
X1989619Y912278D01*
X1986620D01*
X1992619Y914277D02*
X1993618Y915277D01*
X1995617D01*
X1996617Y914277D01*
Y913278D01*
X1995617Y912278D01*
X1996617Y911279D01*
Y910279D01*
X1995617Y909279D01*
X1993618D01*
X1992619Y910279D01*
Y911279D01*
X1993618Y912278D01*
X1992619Y913278D01*
Y914277D01*
X1993618Y912278D02*
X1995617D01*
X1984999Y906998D02*
X1983999Y907998D01*
X1982000D01*
X1981000Y906998D01*
Y903000D01*
X1982000Y902000D01*
X1983999D01*
X1984999Y903000D01*
X1990997Y907998D02*
X1988997Y906998D01*
X1986998Y904999D01*
Y903000D01*
X1987998Y902000D01*
X1989997D01*
X1990997Y903000D01*
Y903999D01*
X1989997Y904999D01*
X1986998D01*
X1995995Y902000D02*
Y907998D01*
X1992996Y904999D01*
X1996995D01*
X1812000Y910000D02*
Y915998D01*
X1814999D01*
X1815999Y914998D01*
Y912999D01*
X1814999Y911999D01*
X1812000D01*
X1813999D02*
X1815999Y910000D01*
X1817998Y915998D02*
X1821997D01*
Y914998D01*
X1817998Y911000D01*
Y910000D01*
X1823996Y914998D02*
X1824996Y915998D01*
X1826995D01*
X1827995Y914998D01*
Y913999D01*
X1826995Y912999D01*
X1825995D01*
X1826995D01*
X1827995Y911999D01*
Y911000D01*
X1826995Y910000D01*
X1824996D01*
X1823996Y911000D01*
X1812000Y903000D02*
Y908998D01*
X1814999D01*
X1815999Y907998D01*
Y905999D01*
X1814999Y904999D01*
X1812000D01*
X1813999D02*
X1815999Y903000D01*
X1817998Y908998D02*
X1821997D01*
Y907998D01*
X1817998Y904000D01*
Y903000D01*
X1826995D02*
Y908998D01*
X1823996Y905999D01*
X1827995D01*
X1855000Y894998D02*
Y890000D01*
X1856000Y889000D01*
X1857999D01*
X1858999Y890000D01*
Y894998D01*
X1864997Y889000D02*
X1860998D01*
X1864997Y892999D01*
Y893998D01*
X1863997Y894998D01*
X1861998D01*
X1860998Y893998D01*
X1866996Y889000D02*
X1868995D01*
X1867996D01*
Y894998D01*
X1866996Y893998D01*
X1835000Y867000D02*
Y872998D01*
X1837999D01*
X1838999Y871998D01*
Y869999D01*
X1837999Y868999D01*
X1835000D01*
X1836999D02*
X1838999Y867000D01*
X1840998Y872998D02*
X1844997D01*
Y871998D01*
X1840998Y868000D01*
Y867000D01*
X1850995Y872998D02*
X1848996Y871998D01*
X1846996Y869999D01*
Y868000D01*
X1847996Y867000D01*
X1849995D01*
X1850995Y868000D01*
Y868999D01*
X1849995Y869999D01*
X1846996D01*
X1875000Y867000D02*
Y872998D01*
X1877999D01*
X1878999Y871998D01*
Y869999D01*
X1877999Y868999D01*
X1875000D01*
X1876999D02*
X1878999Y867000D01*
X1880998Y872998D02*
X1884997D01*
Y871998D01*
X1880998Y868000D01*
Y867000D01*
X1886996Y868000D02*
X1887996Y867000D01*
X1889995D01*
X1890995Y868000D01*
Y871998D01*
X1889995Y872998D01*
X1887996D01*
X1886996Y871998D01*
Y870999D01*
X1887996Y869999D01*
X1890995D01*
X1960000Y866998D02*
Y862000D01*
X1961000Y861000D01*
X1962999D01*
X1963999Y862000D01*
Y866998D01*
X1969997Y861000D02*
X1965998D01*
X1969997Y864999D01*
Y865998D01*
X1968997Y866998D01*
X1966998D01*
X1965998Y865998D01*
X1975995Y861000D02*
X1971996D01*
X1975995Y864999D01*
Y865998D01*
X1974995Y866998D01*
X1972996D01*
X1971996Y865998D01*
X1916000Y805000D02*
Y810998D01*
X1918999D01*
X1919999Y809998D01*
Y807999D01*
X1918999Y806999D01*
X1916000D01*
X1917999D02*
X1919999Y805000D01*
X1921998Y809998D02*
X1922998Y810998D01*
X1924997D01*
X1925997Y809998D01*
Y808999D01*
X1924997Y807999D01*
X1925997Y806999D01*
Y806000D01*
X1924997Y805000D01*
X1922998D01*
X1921998Y806000D01*
Y806999D01*
X1922998Y807999D01*
X1921998Y808999D01*
Y809998D01*
X1922998Y807999D02*
X1924997D01*
X1931995Y810998D02*
X1927996D01*
Y807999D01*
X1929996Y808999D01*
X1930995D01*
X1931995Y807999D01*
Y806000D01*
X1930995Y805000D01*
X1928996D01*
X1927996Y806000D01*
X1986000Y805000D02*
Y810998D01*
X1988999D01*
X1989999Y809998D01*
Y807999D01*
X1988999Y806999D01*
X1986000D01*
X1987999D02*
X1989999Y805000D01*
X1991998Y809998D02*
X1992998Y810998D01*
X1994997D01*
X1995997Y809998D01*
Y808999D01*
X1994997Y807999D01*
X1995997Y806999D01*
Y806000D01*
X1994997Y805000D01*
X1992998D01*
X1991998Y806000D01*
Y806999D01*
X1992998Y807999D01*
X1991998Y808999D01*
Y809998D01*
X1992998Y807999D02*
X1994997D01*
X1997996Y810998D02*
X2001995D01*
Y809998D01*
X1997996Y806000D01*
Y805000D01*
X1833000Y861000D02*
X1827002D01*
Y863999D01*
X1828002Y864999D01*
X1830001D01*
X1831001Y863999D01*
Y861000D01*
Y862999D02*
X1833000Y864999D01*
X1827002Y866998D02*
Y870997D01*
X1828002D01*
X1832000Y866998D01*
X1833000D01*
X1827002Y876995D02*
Y872996D01*
X1830001D01*
X1829001Y874996D01*
Y875995D01*
X1830001Y876995D01*
X1832000D01*
X1833000Y875995D01*
Y873996D01*
X1832000Y872996D01*
X1809999Y868998D02*
X1808999Y869998D01*
X1807000D01*
X1806000Y868998D01*
Y865000D01*
X1807000Y864000D01*
X1808999D01*
X1809999Y865000D01*
X1811998Y869998D02*
X1815997D01*
Y868998D01*
X1811998Y865000D01*
Y864000D01*
X1817996Y868998D02*
X1818996Y869998D01*
X1820995D01*
X1821995Y868998D01*
Y867999D01*
X1820995Y866999D01*
X1819995D01*
X1820995D01*
X1821995Y865999D01*
Y865000D01*
X1820995Y864000D01*
X1818996D01*
X1817996Y865000D01*
X1792999Y868998D02*
X1791999Y869998D01*
X1790000D01*
X1789000Y868998D01*
Y865000D01*
X1790000Y864000D01*
X1791999D01*
X1792999Y865000D01*
X1794998Y869998D02*
X1798997D01*
Y868998D01*
X1794998Y865000D01*
Y864000D01*
X1800996D02*
X1802995D01*
X1801996D01*
Y869998D01*
X1800996Y868998D01*
X1796999Y820895D02*
X1795999Y821894D01*
X1794000D01*
X1793000Y820895D01*
Y816896D01*
X1794000Y815896D01*
X1795999D01*
X1796999Y816896D01*
X1798998Y821894D02*
X1802997D01*
Y820895D01*
X1798998Y816896D01*
Y815896D01*
X1804996Y820895D02*
X1805996Y821894D01*
X1807995D01*
X1808995Y820895D01*
Y816896D01*
X1807995Y815896D01*
X1805996D01*
X1804996Y816896D01*
Y820895D01*
X1822002Y815999D02*
X1821002Y814999D01*
Y813000D01*
X1822002Y812000D01*
X1826000D01*
X1827000Y813000D01*
Y814999D01*
X1826000Y815999D01*
X1821002Y817998D02*
Y821997D01*
X1822002D01*
X1826000Y817998D01*
X1827000D01*
Y827995D02*
Y823996D01*
X1823001Y827995D01*
X1822002D01*
X1821002Y826995D01*
Y824996D01*
X1822002Y823996D01*
X1761999Y851761D02*
X1760999Y852761D01*
X1759000D01*
X1758000Y851761D01*
Y847763D01*
X1759000Y846763D01*
X1760999D01*
X1761999Y847763D01*
X1763998Y852761D02*
X1767997D01*
Y851761D01*
X1763998Y847763D01*
Y846763D01*
X1772995D02*
Y852761D01*
X1769996Y849762D01*
X1773995D01*
X1761999Y838998D02*
X1760999Y839998D01*
X1759000D01*
X1758000Y838998D01*
Y835000D01*
X1759000Y834000D01*
X1760999D01*
X1761999Y835000D01*
X1767997Y839998D02*
X1765997Y838998D01*
X1763998Y836999D01*
Y835000D01*
X1764998Y834000D01*
X1766997D01*
X1767997Y835000D01*
Y835999D01*
X1766997Y836999D01*
X1763998D01*
X1769996Y835000D02*
X1770996Y834000D01*
X1772995D01*
X1773995Y835000D01*
Y838998D01*
X1772995Y839998D01*
X1770996D01*
X1769996Y838998D01*
Y837999D01*
X1770996Y836999D01*
X1773995D01*
X1740999Y932998D02*
X1739999Y933998D01*
X1738000D01*
X1737000Y932998D01*
Y929000D01*
X1738000Y928000D01*
X1739999D01*
X1740999Y929000D01*
X1746997Y933998D02*
X1742998D01*
Y930999D01*
X1744997Y931999D01*
X1745997D01*
X1746997Y930999D01*
Y929000D01*
X1745997Y928000D01*
X1743998D01*
X1742998Y929000D01*
X1621000Y940244D02*
Y946242D01*
X1623999D01*
X1624999Y945242D01*
Y943243D01*
X1623999Y942243D01*
X1621000D01*
X1622999D02*
X1624999Y940244D01*
X1626998D02*
X1628997D01*
X1627998D01*
Y946242D01*
X1626998Y945242D01*
X1635995Y940244D02*
X1631996D01*
X1635995Y944243D01*
Y945242D01*
X1634995Y946242D01*
X1632996D01*
X1631996Y945242D01*
X1666999Y932998D02*
X1665999Y933998D01*
X1664000D01*
X1663000Y932998D01*
Y929000D01*
X1664000Y928000D01*
X1665999D01*
X1666999Y929000D01*
X1671997Y928000D02*
Y933998D01*
X1668998Y930999D01*
X1672997D01*
X1594999Y1007998D02*
X1593999Y1008998D01*
X1592000D01*
X1591000Y1007998D01*
Y1004000D01*
X1592000Y1003000D01*
X1593999D01*
X1594999Y1004000D01*
X1596998Y1003000D02*
X1598997D01*
X1597998D01*
Y1008998D01*
X1596998Y1007998D01*
X1605995Y1008998D02*
X1603996Y1007998D01*
X1601996Y1005999D01*
Y1004000D01*
X1602996Y1003000D01*
X1604996D01*
X1605995Y1004000D01*
Y1004999D01*
X1604996Y1005999D01*
X1601996D01*
X1597999Y1081998D02*
X1596999Y1082998D01*
X1595000D01*
X1594000Y1081998D01*
Y1078000D01*
X1595000Y1077000D01*
X1596999D01*
X1597999Y1078000D01*
X1599998D02*
X1600998Y1077000D01*
X1602997D01*
X1603997Y1078000D01*
Y1081998D01*
X1602997Y1082998D01*
X1600998D01*
X1599998Y1081998D01*
Y1080999D01*
X1600998Y1079999D01*
X1603997D01*
X1374999Y1129998D02*
X1373999Y1130998D01*
X1372000D01*
X1371000Y1129998D01*
Y1126000D01*
X1372000Y1125000D01*
X1373999D01*
X1374999Y1126000D01*
X1379997Y1125000D02*
Y1130998D01*
X1376998Y1127999D01*
X1380997D01*
X1385995Y1125000D02*
Y1130998D01*
X1382996Y1127999D01*
X1386995D01*
X1405999Y949998D02*
X1404999Y950998D01*
X1403000D01*
X1402000Y949998D01*
Y946000D01*
X1403000Y945000D01*
X1404999D01*
X1405999Y946000D01*
X1411997Y950998D02*
X1407998D01*
Y947999D01*
X1409997Y948999D01*
X1410997D01*
X1411997Y947999D01*
Y946000D01*
X1410997Y945000D01*
X1408998D01*
X1407998Y946000D01*
X1417995Y945000D02*
X1413996D01*
X1417995Y948999D01*
Y949998D01*
X1416995Y950998D01*
X1414996D01*
X1413996Y949998D01*
X1399999Y972998D02*
X1398999Y973998D01*
X1397000D01*
X1396000Y972998D01*
Y969000D01*
X1397000Y968000D01*
X1398999D01*
X1399999Y969000D01*
X1405997Y973998D02*
X1401998D01*
Y970999D01*
X1403997Y971999D01*
X1404997D01*
X1405997Y970999D01*
Y969000D01*
X1404997Y968000D01*
X1402998D01*
X1401998Y969000D01*
X1407996Y972998D02*
X1408996Y973998D01*
X1410995D01*
X1411995Y972998D01*
Y971999D01*
X1410995Y970999D01*
X1409995D01*
X1410995D01*
X1411995Y969999D01*
Y969000D01*
X1410995Y968000D01*
X1408996D01*
X1407996Y969000D01*
X1468999Y987998D02*
X1467999Y988998D01*
X1466000D01*
X1465000Y987998D01*
Y984000D01*
X1466000Y983000D01*
X1467999D01*
X1468999Y984000D01*
X1474997Y988998D02*
X1470998D01*
Y985999D01*
X1472997Y986999D01*
X1473997D01*
X1474997Y985999D01*
Y984000D01*
X1473997Y983000D01*
X1471998D01*
X1470998Y984000D01*
X1476996Y987998D02*
X1477996Y988998D01*
X1479995D01*
X1480995Y987998D01*
Y984000D01*
X1479995Y983000D01*
X1477996D01*
X1476996Y984000D01*
Y987998D01*
X1435999D02*
X1434999Y988998D01*
X1433000D01*
X1432000Y987998D01*
Y984000D01*
X1433000Y983000D01*
X1434999D01*
X1435999Y984000D01*
X1440997Y983000D02*
Y988998D01*
X1437998Y985999D01*
X1441997D01*
X1443996Y984000D02*
X1444996Y983000D01*
X1446995D01*
X1447995Y984000D01*
Y987998D01*
X1446995Y988998D01*
X1444996D01*
X1443996Y987998D01*
Y986999D01*
X1444996Y985999D01*
X1447995D01*
X1450999Y949998D02*
X1449999Y950998D01*
X1448000D01*
X1447000Y949998D01*
Y946000D01*
X1448000Y945000D01*
X1449999D01*
X1450999Y946000D01*
X1456997Y950998D02*
X1452998D01*
Y947999D01*
X1454997Y948999D01*
X1455997D01*
X1456997Y947999D01*
Y946000D01*
X1455997Y945000D01*
X1453998D01*
X1452998Y946000D01*
X1458996Y945000D02*
X1460995D01*
X1459996D01*
Y950998D01*
X1458996Y949998D01*
X1468999Y938998D02*
X1467999Y939998D01*
X1466000D01*
X1465000Y938998D01*
Y935000D01*
X1466000Y934000D01*
X1467999D01*
X1468999Y935000D01*
X1473997Y934000D02*
Y939998D01*
X1470998Y936999D01*
X1474997D01*
X1476996Y939998D02*
X1480995D01*
Y938998D01*
X1476996Y935000D01*
Y934000D01*
X1490999Y938998D02*
X1489999Y939998D01*
X1488000D01*
X1487000Y938998D01*
Y935000D01*
X1488000Y934000D01*
X1489999D01*
X1490999Y935000D01*
X1495997Y934000D02*
Y939998D01*
X1492998Y936999D01*
X1496997D01*
X1498996Y938998D02*
X1499996Y939998D01*
X1501995D01*
X1502995Y938998D01*
Y937999D01*
X1501995Y936999D01*
X1502995Y935999D01*
Y935000D01*
X1501995Y934000D01*
X1499996D01*
X1498996Y935000D01*
Y935999D01*
X1499996Y936999D01*
X1498996Y937999D01*
Y938998D01*
X1499996Y936999D02*
X1501995D01*
X1499999Y786998D02*
X1498999Y787998D01*
X1497000D01*
X1496000Y786998D01*
Y783000D01*
X1497000Y782000D01*
X1498999D01*
X1499999Y783000D01*
X1504997Y782000D02*
Y787998D01*
X1501998Y784999D01*
X1505997D01*
X1511995Y782000D02*
X1507996D01*
X1511995Y785999D01*
Y786998D01*
X1510995Y787998D01*
X1508996D01*
X1507996Y786998D01*
X1515000Y772000D02*
Y777998D01*
X1517999D01*
X1518999Y776998D01*
Y774999D01*
X1517999Y773999D01*
X1515000D01*
X1516999D02*
X1518999Y772000D01*
X1524997Y777998D02*
X1520998D01*
Y774999D01*
X1522997Y775999D01*
X1523997D01*
X1524997Y774999D01*
Y773000D01*
X1523997Y772000D01*
X1521998D01*
X1520998Y773000D01*
X1526996D02*
X1527996Y772000D01*
X1529995D01*
X1530995Y773000D01*
Y776998D01*
X1529995Y777998D01*
X1527996D01*
X1526996Y776998D01*
Y775999D01*
X1527996Y774999D01*
X1530995D01*
X1479000Y772000D02*
Y777998D01*
X1481999D01*
X1482999Y776998D01*
Y774999D01*
X1481999Y773999D01*
X1479000D01*
X1480999D02*
X1482999Y772000D01*
X1488997Y777998D02*
X1486997Y776998D01*
X1484998Y774999D01*
Y773000D01*
X1485998Y772000D01*
X1487997D01*
X1488997Y773000D01*
Y773999D01*
X1487997Y774999D01*
X1484998D01*
X1490996Y772000D02*
X1492995D01*
X1491996D01*
Y777998D01*
X1490996Y776998D01*
X1422999Y800653D02*
X1421999Y801652D01*
X1420000D01*
X1419000Y800653D01*
Y796654D01*
X1420000Y795654D01*
X1421999D01*
X1422999Y796654D01*
X1427997Y795654D02*
Y801652D01*
X1424998Y798653D01*
X1428997D01*
X1430996Y800653D02*
X1431996Y801652D01*
X1433995D01*
X1434995Y800653D01*
Y799653D01*
X1433995Y798653D01*
X1432996D01*
X1433995D01*
X1434995Y797654D01*
Y796654D01*
X1433995Y795654D01*
X1431996D01*
X1430996Y796654D01*
X1437000Y782000D02*
Y787998D01*
X1439999D01*
X1440999Y786998D01*
Y784999D01*
X1439999Y783999D01*
X1437000D01*
X1438999D02*
X1440999Y782000D01*
X1446997Y787998D02*
X1442998D01*
Y784999D01*
X1444997Y785999D01*
X1445997D01*
X1446997Y784999D01*
Y783000D01*
X1445997Y782000D01*
X1443998D01*
X1442998Y783000D01*
X1448996Y786998D02*
X1449996Y787998D01*
X1451995D01*
X1452995Y786998D01*
Y785999D01*
X1451995Y784999D01*
X1452995Y783999D01*
Y783000D01*
X1451995Y782000D01*
X1449996D01*
X1448996Y783000D01*
Y783999D01*
X1449996Y784999D01*
X1448996Y785999D01*
Y786998D01*
X1449996Y784999D02*
X1451995D01*
X1399000Y782000D02*
Y787998D01*
X1401999D01*
X1402999Y786998D01*
Y784999D01*
X1401999Y783999D01*
X1399000D01*
X1400999D02*
X1402999Y782000D01*
X1408997Y787998D02*
X1404998D01*
Y784999D01*
X1406997Y785999D01*
X1407997D01*
X1408997Y784999D01*
Y783000D01*
X1407997Y782000D01*
X1405998D01*
X1404998Y783000D01*
X1410996Y787998D02*
X1414995D01*
Y786998D01*
X1410996Y783000D01*
Y782000D01*
X1298002Y1055000D02*
X1303000D01*
X1304000Y1056000D01*
Y1057999D01*
X1303000Y1058999D01*
X1298002D01*
X1303000Y1060998D02*
X1304000Y1061998D01*
Y1063997D01*
X1303000Y1064997D01*
X1299002D01*
X1298002Y1063997D01*
Y1061998D01*
X1299002Y1060998D01*
X1300001D01*
X1301001Y1061998D01*
Y1064997D01*
X1298002Y992000D02*
X1303000D01*
X1304000Y993000D01*
Y994999D01*
X1303000Y995999D01*
X1298002D01*
X1304000Y997998D02*
Y999997D01*
Y998998D01*
X1298002D01*
X1299002Y997998D01*
X1304000Y1005995D02*
X1298002D01*
X1301001Y1002996D01*
Y1006995D01*
X1298002Y932000D02*
X1303000D01*
X1304000Y933000D01*
Y934999D01*
X1303000Y935999D01*
X1298002D01*
X1304000Y937998D02*
Y939997D01*
Y938998D01*
X1298002D01*
X1299002Y937998D01*
Y942996D02*
X1298002Y943996D01*
Y945996D01*
X1299002Y946995D01*
X1300001D01*
X1301001Y945996D01*
Y944996D01*
Y945996D01*
X1302001Y946995D01*
X1303000D01*
X1304000Y945996D01*
Y943996D01*
X1303000Y942996D01*
X1973999Y1116868D02*
X1972999Y1117868D01*
X1971000D01*
X1970000Y1116868D01*
Y1115869D01*
X1971000Y1114869D01*
X1972999D01*
X1973999Y1113869D01*
Y1112870D01*
X1972999Y1111870D01*
X1971000D01*
X1970000Y1112870D01*
X1975998Y1117868D02*
Y1111870D01*
X1977997Y1113869D01*
X1979997Y1111870D01*
Y1117868D01*
X1981996Y1111870D02*
X1983995D01*
X1982996D01*
Y1117868D01*
X1981996Y1116868D01*
X1990993Y1111870D02*
X1986995D01*
X1990993Y1115869D01*
Y1116868D01*
X1989993Y1117868D01*
X1987994D01*
X1986995Y1116868D01*
X1903999D02*
X1902999Y1117868D01*
X1901000D01*
X1900000Y1116868D01*
Y1115869D01*
X1901000Y1114869D01*
X1902999D01*
X1903999Y1113869D01*
Y1112870D01*
X1902999Y1111870D01*
X1901000D01*
X1900000Y1112870D01*
X1905998Y1117868D02*
Y1111870D01*
X1907997Y1113869D01*
X1909997Y1111870D01*
Y1117868D01*
X1911996Y1111870D02*
X1913996D01*
X1912996D01*
Y1117868D01*
X1911996Y1116868D01*
X1916994D02*
X1917994Y1117868D01*
X1919994D01*
X1920993Y1116868D01*
Y1115869D01*
X1919994Y1114869D01*
X1918994D01*
X1919994D01*
X1920993Y1113869D01*
Y1112870D01*
X1919994Y1111870D01*
X1917994D01*
X1916994Y1112870D01*
X1925000Y1189998D02*
Y1184000D01*
X1927999D01*
X1928999Y1185000D01*
Y1188998D01*
X1927999Y1189998D01*
X1925000D01*
X1930998Y1184000D02*
X1932997D01*
X1931998D01*
Y1189998D01*
X1930998Y1188998D01*
X1881000Y1178000D02*
Y1183998D01*
X1883999D01*
X1884999Y1182998D01*
Y1180999D01*
X1883999Y1179999D01*
X1881000D01*
X1882999D02*
X1884999Y1178000D01*
X1889997D02*
Y1183998D01*
X1886998Y1180999D01*
X1890997D01*
X1892996Y1179000D02*
X1893996Y1178000D01*
X1895995D01*
X1896995Y1179000D01*
Y1182998D01*
X1895995Y1183998D01*
X1893996D01*
X1892996Y1182998D01*
Y1181999D01*
X1893996Y1180999D01*
X1896995D01*
X1857999Y1177998D02*
X1855999D01*
X1856999D01*
Y1173000D01*
X1855999Y1172000D01*
X1855000D01*
X1854000Y1173000D01*
X1859998Y1172000D02*
Y1177998D01*
X1862997D01*
X1863997Y1176998D01*
Y1174999D01*
X1862997Y1173999D01*
X1859998D01*
X1865996Y1173000D02*
X1866996Y1172000D01*
X1868995D01*
X1869995Y1173000D01*
Y1176998D01*
X1868995Y1177998D01*
X1866996D01*
X1865996Y1176998D01*
Y1175999D01*
X1866996Y1174999D01*
X1869995D01*
X1845999Y1192998D02*
X1843999D01*
X1844999D01*
Y1188000D01*
X1843999Y1187000D01*
X1843000D01*
X1842000Y1188000D01*
X1847998Y1187000D02*
Y1192998D01*
X1850997D01*
X1851997Y1191998D01*
Y1189999D01*
X1850997Y1188999D01*
X1847998D01*
X1853996Y1192998D02*
X1857995D01*
Y1191998D01*
X1853996Y1188000D01*
Y1187000D01*
X1705999Y1142998D02*
X1704999Y1143998D01*
X1703000D01*
X1702000Y1142998D01*
Y1139000D01*
X1703000Y1138000D01*
X1704999D01*
X1705999Y1139000D01*
X1707998Y1142998D02*
X1708998Y1143998D01*
X1710997D01*
X1711997Y1142998D01*
Y1141999D01*
X1710997Y1140999D01*
X1711997Y1139999D01*
Y1139000D01*
X1710997Y1138000D01*
X1708998D01*
X1707998Y1139000D01*
Y1139999D01*
X1708998Y1140999D01*
X1707998Y1141999D01*
Y1142998D01*
X1708998Y1140999D02*
X1710997D01*
X1656000Y1127000D02*
Y1132998D01*
X1658999D01*
X1659999Y1131998D01*
Y1129999D01*
X1658999Y1128999D01*
X1656000D01*
X1657999D02*
X1659999Y1127000D01*
X1664997D02*
Y1132998D01*
X1661998Y1129999D01*
X1665997D01*
X1671995Y1127000D02*
X1667996D01*
X1671995Y1130999D01*
Y1131998D01*
X1670995Y1132998D01*
X1668996D01*
X1667996Y1131998D01*
X1640000Y1125000D02*
Y1130998D01*
X1642999D01*
X1643999Y1129998D01*
Y1127999D01*
X1642999Y1126999D01*
X1640000D01*
X1641999D02*
X1643999Y1125000D01*
X1645998D02*
X1647997D01*
X1646998D01*
Y1130998D01*
X1645998Y1129998D01*
X1654995Y1130998D02*
X1652996Y1129998D01*
X1650996Y1127999D01*
Y1126000D01*
X1651996Y1125000D01*
X1653996D01*
X1654995Y1126000D01*
Y1126999D01*
X1653996Y1127999D01*
X1650996D01*
X1611000Y1125000D02*
Y1130998D01*
X1613999D01*
X1614999Y1129998D01*
Y1127999D01*
X1613999Y1126999D01*
X1611000D01*
X1612999D02*
X1614999Y1125000D01*
X1616998D02*
X1618997D01*
X1617998D01*
Y1130998D01*
X1616998Y1129998D01*
X1621996Y1130998D02*
X1625995D01*
Y1129998D01*
X1621996Y1126000D01*
Y1125000D01*
X1598999Y1161998D02*
X1597999Y1162998D01*
X1596000D01*
X1595000Y1161998D01*
Y1158000D01*
X1596000Y1157000D01*
X1597999D01*
X1598999Y1158000D01*
X1600998Y1162998D02*
X1604997D01*
Y1161998D01*
X1600998Y1158000D01*
Y1157000D01*
X1550000Y1105307D02*
Y1111305D01*
X1552999D01*
X1553999Y1110305D01*
Y1108306D01*
X1552999Y1107306D01*
X1550000D01*
X1551999D02*
X1553999Y1105307D01*
X1555998Y1111305D02*
X1559997D01*
Y1110305D01*
X1555998Y1106307D01*
Y1105307D01*
X1565995D02*
X1561996D01*
X1565995Y1109306D01*
Y1110305D01*
X1564995Y1111305D01*
X1562996D01*
X1561996Y1110305D01*
X1525999Y1102998D02*
X1524999Y1103998D01*
X1523000D01*
X1522000Y1102998D01*
Y1099000D01*
X1523000Y1098000D01*
X1524999D01*
X1525999Y1099000D01*
X1530997Y1098000D02*
Y1103998D01*
X1527998Y1100999D01*
X1531997D01*
X1537995Y1103998D02*
X1533996D01*
Y1100999D01*
X1535995Y1101999D01*
X1536995D01*
X1537995Y1100999D01*
Y1099000D01*
X1536995Y1098000D01*
X1534996D01*
X1533996Y1099000D01*
X1549999Y1081645D02*
X1547999D01*
X1548999D01*
Y1076647D01*
X1547999Y1075647D01*
X1547000D01*
X1546000Y1076647D01*
X1554997Y1075647D02*
Y1081645D01*
X1551998Y1078646D01*
X1555997D01*
X1490000Y1097000D02*
Y1102998D01*
X1492999D01*
X1493999Y1101998D01*
Y1099999D01*
X1492999Y1098999D01*
X1490000D01*
X1491999D02*
X1493999Y1097000D01*
X1499997Y1102998D02*
X1497997Y1101998D01*
X1495998Y1099999D01*
Y1098000D01*
X1496998Y1097000D01*
X1498997D01*
X1499997Y1098000D01*
Y1098999D01*
X1498997Y1099999D01*
X1495998D01*
X1501996Y1101998D02*
X1502996Y1102998D01*
X1504995D01*
X1505995Y1101998D01*
Y1100999D01*
X1504995Y1099999D01*
X1505995Y1098999D01*
Y1098000D01*
X1504995Y1097000D01*
X1502996D01*
X1501996Y1098000D01*
Y1098999D01*
X1502996Y1099999D01*
X1501996Y1100999D01*
Y1101998D01*
X1502996Y1099999D02*
X1504995D01*
X1455000Y1097000D02*
Y1102998D01*
X1457999D01*
X1458999Y1101998D01*
Y1099999D01*
X1457999Y1098999D01*
X1455000D01*
X1456999D02*
X1458999Y1097000D01*
X1464997Y1102998D02*
X1462997Y1101998D01*
X1460998Y1099999D01*
Y1098000D01*
X1461998Y1097000D01*
X1463997D01*
X1464997Y1098000D01*
Y1098999D01*
X1463997Y1099999D01*
X1460998D01*
X1466996Y1102998D02*
X1470995D01*
Y1101998D01*
X1466996Y1098000D01*
Y1097000D01*
X1435400Y1101998D02*
X1434401Y1102998D01*
X1432401D01*
X1431402Y1101998D01*
Y1098000D01*
X1432401Y1097000D01*
X1434401D01*
X1435400Y1098000D01*
X1440399Y1097000D02*
Y1102998D01*
X1437400Y1099999D01*
X1441398D01*
X1447396Y1102998D02*
X1445397Y1101998D01*
X1443398Y1099999D01*
Y1098000D01*
X1444397Y1097000D01*
X1446397D01*
X1447396Y1098000D01*
Y1098999D01*
X1446397Y1099999D01*
X1443398D01*
X1452999Y1079998D02*
X1450999D01*
X1451999D01*
Y1075000D01*
X1450999Y1074000D01*
X1450000D01*
X1449000Y1075000D01*
X1454998Y1078998D02*
X1455998Y1079998D01*
X1457997D01*
X1458997Y1078998D01*
Y1077999D01*
X1457997Y1076999D01*
X1456997D01*
X1457997D01*
X1458997Y1075999D01*
Y1075000D01*
X1457997Y1074000D01*
X1455998D01*
X1454998Y1075000D01*
X1400000Y1097000D02*
Y1102998D01*
X1402999D01*
X1403999Y1101998D01*
Y1099999D01*
X1402999Y1098999D01*
X1400000D01*
X1401999D02*
X1403999Y1097000D01*
X1409997Y1102998D02*
X1407997Y1101998D01*
X1405998Y1099999D01*
Y1098000D01*
X1406998Y1097000D01*
X1408997D01*
X1409997Y1098000D01*
Y1098999D01*
X1408997Y1099999D01*
X1405998D01*
X1415995Y1097000D02*
X1411996D01*
X1415995Y1100999D01*
Y1101998D01*
X1414995Y1102998D01*
X1412996D01*
X1411996Y1101998D01*
X2042999Y1181998D02*
X2041999Y1182998D01*
X2040000D01*
X2039000Y1181998D01*
Y1180999D01*
X2040000Y1179999D01*
X2041999D01*
X2042999Y1178999D01*
Y1178000D01*
X2041999Y1177000D01*
X2040000D01*
X2039000Y1178000D01*
X2044998Y1182998D02*
Y1177000D01*
X2046997Y1178999D01*
X2048997Y1177000D01*
Y1182998D01*
X2050996Y1177000D02*
X2052995D01*
X2051996D01*
Y1182998D01*
X2050996Y1181998D01*
X2059993Y1182998D02*
X2055994D01*
Y1179999D01*
X2057994Y1180999D01*
X2058994D01*
X2059993Y1179999D01*
Y1178000D01*
X2058994Y1177000D01*
X2056994D01*
X2055994Y1178000D01*
X1973999Y1181998D02*
X1972999Y1182998D01*
X1971000D01*
X1970000Y1181998D01*
Y1180999D01*
X1971000Y1179999D01*
X1972999D01*
X1973999Y1178999D01*
Y1178000D01*
X1972999Y1177000D01*
X1971000D01*
X1970000Y1178000D01*
X1975998Y1182998D02*
Y1177000D01*
X1977997Y1178999D01*
X1979997Y1177000D01*
Y1182998D01*
X1981996Y1177000D02*
X1983995D01*
X1982996D01*
Y1182998D01*
X1981996Y1181998D01*
X1989993Y1177000D02*
Y1182998D01*
X1986995Y1179999D01*
X1990993D01*
X1963000Y1248000D02*
Y1253998D01*
X1965999D01*
X1966999Y1252998D01*
Y1250999D01*
X1965999Y1249999D01*
X1963000D01*
X1964999D02*
X1966999Y1248000D01*
X1968998Y1249000D02*
X1969998Y1248000D01*
X1971997D01*
X1972997Y1249000D01*
Y1252998D01*
X1971997Y1253998D01*
X1969998D01*
X1968998Y1252998D01*
Y1251999D01*
X1969998Y1250999D01*
X1972997D01*
X1977995Y1248000D02*
Y1253998D01*
X1974996Y1250999D01*
X1978995D01*
X2033000Y1248000D02*
Y1253998D01*
X2035999D01*
X2036999Y1252998D01*
Y1250999D01*
X2035999Y1249999D01*
X2033000D01*
X2034999D02*
X2036999Y1248000D01*
X2038998Y1249000D02*
X2039998Y1248000D01*
X2041997D01*
X2042997Y1249000D01*
Y1252998D01*
X2041997Y1253998D01*
X2039998D01*
X2038998Y1252998D01*
Y1251999D01*
X2039998Y1250999D01*
X2042997D01*
X2044996Y1252998D02*
X2045996Y1253998D01*
X2047995D01*
X2048995Y1252998D01*
Y1251999D01*
X2047995Y1250999D01*
X2046996D01*
X2047995D01*
X2048995Y1249999D01*
Y1249000D01*
X2047995Y1248000D01*
X2045996D01*
X2044996Y1249000D01*
X1348999Y814998D02*
X1347999Y815998D01*
X1346000D01*
X1345000Y814998D01*
Y811000D01*
X1346000Y810000D01*
X1347999D01*
X1348999Y811000D01*
X1354997Y810000D02*
X1350998D01*
X1354997Y813999D01*
Y814998D01*
X1353997Y815998D01*
X1351998D01*
X1350998Y814998D01*
X1360995Y810000D02*
X1356996D01*
X1360995Y813999D01*
Y814998D01*
X1359995Y815998D01*
X1357996D01*
X1356996Y814998D01*
X1348999Y804998D02*
X1347999Y805998D01*
X1346000D01*
X1345000Y804998D01*
Y801000D01*
X1346000Y800000D01*
X1347999D01*
X1348999Y801000D01*
X1354997Y800000D02*
X1350998D01*
X1354997Y803999D01*
Y804998D01*
X1353997Y805998D01*
X1351998D01*
X1350998Y804998D01*
X1356996D02*
X1357996Y805998D01*
X1359995D01*
X1360995Y804998D01*
Y803999D01*
X1359995Y802999D01*
X1358996D01*
X1359995D01*
X1360995Y801999D01*
Y801000D01*
X1359995Y800000D01*
X1357996D01*
X1356996Y801000D01*
X1366999Y833998D02*
X1365999Y834998D01*
X1364000D01*
X1363000Y833998D01*
Y830000D01*
X1364000Y829000D01*
X1365999D01*
X1366999Y830000D01*
X1368998Y829000D02*
X1370997D01*
X1369998D01*
Y834998D01*
X1368998Y833998D01*
X1340000Y1027999D02*
X1343999D01*
X1341999Y1029998D02*
Y1026000D01*
X1345998Y1029998D02*
X1346998Y1030998D01*
X1348997D01*
X1349997Y1029998D01*
Y1028999D01*
X1348997Y1027999D01*
X1347997D01*
X1348997D01*
X1349997Y1026999D01*
Y1026000D01*
X1348997Y1025000D01*
X1346998D01*
X1345998Y1026000D01*
X1351996Y1025000D02*
Y1026000D01*
X1352996D01*
Y1025000D01*
X1351996D01*
X1356995Y1029998D02*
X1357994Y1030998D01*
X1359993D01*
X1360993Y1029998D01*
Y1028999D01*
X1359993Y1027999D01*
X1358994D01*
X1359993D01*
X1360993Y1026999D01*
Y1026000D01*
X1359993Y1025000D01*
X1357994D01*
X1356995Y1026000D01*
X1362993Y1030998D02*
Y1026999D01*
X1364992Y1025000D01*
X1366991Y1026999D01*
Y1030998D01*
X1340000Y967999D02*
X1343999D01*
X1341999Y969998D02*
Y966000D01*
X1349997Y965000D02*
X1345998D01*
X1349997Y968999D01*
Y969998D01*
X1348997Y970998D01*
X1346998D01*
X1345998Y969998D01*
X1351996Y965000D02*
Y966000D01*
X1352996D01*
Y965000D01*
X1351996D01*
X1360993Y970998D02*
X1356995D01*
Y967999D01*
X1358994Y968999D01*
X1359993D01*
X1360993Y967999D01*
Y966000D01*
X1359993Y965000D01*
X1357994D01*
X1356995Y966000D01*
X1362993Y970998D02*
Y966999D01*
X1364992Y965000D01*
X1366991Y966999D01*
Y970998D01*
X1340000Y907999D02*
X1343999D01*
X1341999Y909998D02*
Y906000D01*
X1345998Y905000D02*
X1347997D01*
X1346998D01*
Y910998D01*
X1345998Y909998D01*
X1350996Y905000D02*
Y906000D01*
X1351996D01*
Y905000D01*
X1350996D01*
X1359993D02*
X1355995D01*
X1359993Y908999D01*
Y909998D01*
X1358994Y910998D01*
X1356995D01*
X1355995Y909998D01*
X1361993Y910998D02*
Y906999D01*
X1363992Y905000D01*
X1365992Y906999D01*
Y910998D01*
X1340000Y857999D02*
X1343999D01*
X1341999Y859998D02*
Y856000D01*
X1349997Y860998D02*
X1345998D01*
Y857999D01*
X1347997Y858999D01*
X1348997D01*
X1349997Y857999D01*
Y856000D01*
X1348997Y855000D01*
X1346998D01*
X1345998Y856000D01*
X1351996Y860998D02*
Y856999D01*
X1353996Y855000D01*
X1355995Y856999D01*
Y860998D01*
X1362000Y1250000D02*
Y1259997D01*
X1365332Y1256664D01*
X1368664Y1259997D01*
Y1250000D01*
X1378661Y1258331D02*
X1376995Y1259997D01*
X1373663D01*
X1371997Y1258331D01*
Y1256664D01*
X1373663Y1254998D01*
X1376995D01*
X1378661Y1253332D01*
Y1251666D01*
X1376995Y1250000D01*
X1373663D01*
X1371997Y1251666D01*
X1388658Y1259997D02*
X1381993D01*
Y1250000D01*
X1388658D01*
X1381993Y1254998D02*
X1385326D01*
X1391990Y1259997D02*
Y1250000D01*
X1398655D01*
X1295003Y1166665D02*
Y1163332D01*
Y1164998D01*
X1303334D01*
X1305000Y1163332D01*
Y1161666D01*
X1303334Y1160000D01*
X1295003Y1169997D02*
Y1176661D01*
Y1173329D01*
X1305000D01*
Y1179994D02*
X1298335D01*
X1295003Y1183326D01*
X1298335Y1186658D01*
X1305000D01*
X1300002D01*
Y1179994D01*
X1296669Y1196655D02*
X1295003Y1194989D01*
Y1191656D01*
X1296669Y1189990D01*
X1303334D01*
X1305000Y1191656D01*
Y1194989D01*
X1303334Y1196655D01*
X1300002D01*
Y1193323D01*
X1260000Y855000D02*
Y864997D01*
X1264998D01*
X1266665Y863331D01*
Y859998D01*
X1264998Y858332D01*
X1260000D01*
X1271663Y855000D02*
X1274995D01*
X1276661Y856666D01*
Y859998D01*
X1274995Y861664D01*
X1271663D01*
X1269997Y859998D01*
Y856666D01*
X1271663Y855000D01*
X1279994Y861664D02*
Y856666D01*
X1281660Y855000D01*
X1283326Y856666D01*
X1284992Y855000D01*
X1286658Y856666D01*
Y861664D01*
X1294989Y855000D02*
X1291656D01*
X1289990Y856666D01*
Y859998D01*
X1291656Y861664D01*
X1294989D01*
X1296655Y859998D01*
Y858332D01*
X1289990D01*
X1299987Y861664D02*
Y855000D01*
Y858332D01*
X1301653Y859998D01*
X1303319Y861664D01*
X1304986D01*
X1273999Y815998D02*
X1271999D01*
X1272999D01*
Y811000D01*
X1271999Y810000D01*
X1271000D01*
X1270000Y811000D01*
X1279997Y810000D02*
X1275998D01*
X1279997Y813999D01*
Y814998D01*
X1278997Y815998D01*
X1276998D01*
X1275998Y814998D01*
X2043999Y1242998D02*
X2042999Y1243998D01*
X2041000D01*
X2040000Y1242998D01*
Y1241999D01*
X2041000Y1240999D01*
X2042999D01*
X2043999Y1239999D01*
Y1239000D01*
X2042999Y1238000D01*
X2041000D01*
X2040000Y1239000D01*
X2045998Y1243998D02*
Y1238000D01*
X2047997Y1239999D01*
X2049997Y1238000D01*
Y1243998D01*
X2051996Y1238000D02*
X2053996D01*
X2052996D01*
Y1243998D01*
X2051996Y1242998D01*
X2056994D02*
X2057994Y1243998D01*
X2059994D01*
X2060993Y1242998D01*
Y1239000D01*
X2059994Y1238000D01*
X2057994D01*
X2056994Y1239000D01*
Y1242998D01*
X1975999D02*
X1974999Y1243998D01*
X1973000D01*
X1972000Y1242998D01*
Y1241999D01*
X1973000Y1240999D01*
X1974999D01*
X1975999Y1239999D01*
Y1239000D01*
X1974999Y1238000D01*
X1973000D01*
X1972000Y1239000D01*
X1977998Y1243998D02*
Y1238000D01*
X1979997Y1239999D01*
X1981997Y1238000D01*
Y1243998D01*
X1983996Y1239000D02*
X1984996Y1238000D01*
X1986995D01*
X1987995Y1239000D01*
Y1242998D01*
X1986995Y1243998D01*
X1984996D01*
X1983996Y1242998D01*
Y1241999D01*
X1984996Y1240999D01*
X1987995D01*
X1970000Y995000D02*
Y1000998D01*
X1972999D01*
X1973999Y999998D01*
Y997999D01*
X1972999Y996999D01*
X1970000D01*
X1978997Y1000998D02*
X1976998D01*
X1975998Y999998D01*
Y996000D01*
X1976998Y995000D01*
X1978997D01*
X1979997Y996000D01*
Y999998D01*
X1978997Y1000998D01*
X1981996D02*
X1985995D01*
X1983995D01*
Y995000D01*
X1991993D02*
X1987994D01*
X1991993Y998999D01*
Y999998D01*
X1990993Y1000998D01*
X1988994D01*
X1987994Y999998D01*
X1901000Y995000D02*
Y1000998D01*
X1903999D01*
X1904999Y999998D01*
Y997999D01*
X1903999Y996999D01*
X1901000D01*
X1909997Y1000998D02*
X1907998D01*
X1906998Y999998D01*
Y996000D01*
X1907998Y995000D01*
X1909997D01*
X1910997Y996000D01*
Y999998D01*
X1909997Y1000998D01*
X1912996D02*
X1916995D01*
X1914996D01*
Y995000D01*
X1918994D02*
X1920993D01*
X1919994D01*
Y1000998D01*
X1918994Y999998D01*
X1883999Y812998D02*
X1882999Y813998D01*
X1881000D01*
X1880000Y812998D01*
Y811999D01*
X1881000Y810999D01*
X1882999D01*
X1883999Y809999D01*
Y809000D01*
X1882999Y808000D01*
X1881000D01*
X1880000Y809000D01*
X1885998Y813998D02*
Y808000D01*
X1887997Y809999D01*
X1889997Y808000D01*
Y813998D01*
X1895995Y808000D02*
X1891996D01*
X1895995Y811999D01*
Y812998D01*
X1894995Y813998D01*
X1892996D01*
X1891996Y812998D01*
X1703999Y885998D02*
X1702999Y886998D01*
X1701000D01*
X1700000Y885998D01*
Y884999D01*
X1701000Y883999D01*
X1702999D01*
X1703999Y882999D01*
Y882000D01*
X1702999Y881000D01*
X1701000D01*
X1700000Y882000D01*
X1705998Y886998D02*
Y881000D01*
X1707997Y882999D01*
X1709997Y881000D01*
Y886998D01*
X1711996Y885998D02*
X1712996Y886998D01*
X1714995D01*
X1715995Y885998D01*
Y884999D01*
X1714995Y883999D01*
X1715995Y882999D01*
Y882000D01*
X1714995Y881000D01*
X1712996D01*
X1711996Y882000D01*
Y882999D01*
X1712996Y883999D01*
X1711996Y884999D01*
Y885998D01*
X1712996Y883999D02*
X1714995D01*
X1928999Y1292998D02*
X1926999D01*
X1927999D01*
Y1288000D01*
X1926999Y1287000D01*
X1926000D01*
X1925000Y1288000D01*
X1930998Y1292998D02*
X1934997D01*
Y1291998D01*
X1930998Y1288000D01*
Y1287000D01*
X1410999Y1298998D02*
X1408999D01*
X1409999D01*
Y1294000D01*
X1408999Y1293000D01*
X1408000D01*
X1407000Y1294000D01*
X1412998Y1297998D02*
X1413998Y1298998D01*
X1415997D01*
X1416997Y1297998D01*
Y1296999D01*
X1415997Y1295999D01*
X1416997Y1294999D01*
Y1294000D01*
X1415997Y1293000D01*
X1413998D01*
X1412998Y1294000D01*
Y1294999D01*
X1413998Y1295999D01*
X1412998Y1296999D01*
Y1297998D01*
X1413998Y1295999D02*
X1415997D01*
X1388002Y1275999D02*
Y1273999D01*
Y1274999D01*
X1393000D01*
X1394000Y1273999D01*
Y1273000D01*
X1393000Y1272000D01*
X1394000Y1277998D02*
X1388002D01*
Y1280997D01*
X1389002Y1281997D01*
X1391001D01*
X1392001Y1280997D01*
Y1277998D01*
X1389002Y1283996D02*
X1388002Y1284996D01*
Y1286995D01*
X1389002Y1287995D01*
X1390001D01*
X1391001Y1286995D01*
Y1285995D01*
Y1286995D01*
X1392001Y1287995D01*
X1393000D01*
X1394000Y1286995D01*
Y1284996D01*
X1393000Y1283996D01*
X1368002Y1275999D02*
Y1273999D01*
Y1274999D01*
X1373000D01*
X1374000Y1273999D01*
Y1273000D01*
X1373000Y1272000D01*
X1374000Y1277998D02*
X1368002D01*
Y1280997D01*
X1369002Y1281997D01*
X1371001D01*
X1372001Y1280997D01*
Y1277998D01*
X1374000Y1287995D02*
Y1283996D01*
X1370001Y1287995D01*
X1369002D01*
X1368002Y1286995D01*
Y1284996D01*
X1369002Y1283996D01*
X1348002Y1275999D02*
Y1273999D01*
Y1274999D01*
X1353000D01*
X1354000Y1273999D01*
Y1273000D01*
X1353000Y1272000D01*
X1354000Y1277998D02*
X1348002D01*
Y1280997D01*
X1349002Y1281997D01*
X1351001D01*
X1352001Y1280997D01*
Y1277998D01*
X1354000Y1283996D02*
Y1285995D01*
Y1284996D01*
X1348002D01*
X1349002Y1283996D01*
X1855650Y858350D02*
Y864348D01*
X1858649D01*
X1859649Y863348D01*
Y861349D01*
X1858649Y860349D01*
X1855650D01*
X1864647Y858350D02*
Y864348D01*
X1861648Y861349D01*
X1865647D01*
X2065650Y879350D02*
Y885348D01*
X2068649D01*
X2069649Y884348D01*
Y882349D01*
X2068649Y881349D01*
X2065650D01*
X2075647Y885348D02*
X2071648D01*
Y882349D01*
X2073647Y883349D01*
X2074647D01*
X2075647Y882349D01*
Y880350D01*
X2074647Y879350D01*
X2072648D01*
X2071648Y880350D01*
X1309050Y740148D02*
Y734150D01*
X1313049D01*
X1315048D02*
X1317047D01*
X1316048D01*
Y740148D01*
X1315048Y739148D01*
X1873099Y860398D02*
X1872099Y861398D01*
X1870100D01*
X1869100Y860398D01*
Y856400D01*
X1870100Y855400D01*
X1872099D01*
X1873099Y856400D01*
X1879097Y861398D02*
X1877097Y860398D01*
X1875098Y858399D01*
Y856400D01*
X1876098Y855400D01*
X1878097D01*
X1879097Y856400D01*
Y857399D01*
X1878097Y858399D01*
X1875098D01*
X1881096Y860398D02*
X1882096Y861398D01*
X1884095D01*
X1885095Y860398D01*
Y856400D01*
X1884095Y855400D01*
X1882096D01*
X1881096Y856400D01*
Y860398D01*
X1873099Y840398D02*
X1872099Y841398D01*
X1870100D01*
X1869100Y840398D01*
Y836400D01*
X1870100Y835400D01*
X1872099D01*
X1873099Y836400D01*
X1879097Y841398D02*
X1875098D01*
Y838399D01*
X1877097Y839399D01*
X1878097D01*
X1879097Y838399D01*
Y836400D01*
X1878097Y835400D01*
X1876098D01*
X1875098Y836400D01*
X1881096D02*
X1882096Y835400D01*
X1884095D01*
X1885095Y836400D01*
Y840398D01*
X1884095Y841398D01*
X1882096D01*
X1881096Y840398D01*
Y839399D01*
X1882096Y838399D01*
X1885095D01*
X1705600Y1288400D02*
Y1294398D01*
X1708599D01*
X1709599Y1293398D01*
Y1291399D01*
X1708599Y1290399D01*
X1705600D01*
X1711598Y1288400D02*
X1713597D01*
X1712598D01*
Y1294398D01*
X1711598Y1293398D01*
X1625600Y1288400D02*
Y1294398D01*
X1628599D01*
X1629599Y1293398D01*
Y1291399D01*
X1628599Y1290399D01*
X1625600D01*
X1635597Y1288400D02*
X1631598D01*
X1635597Y1292399D01*
Y1293398D01*
X1634597Y1294398D01*
X1632598D01*
X1631598Y1293398D01*
X1964599Y789398D02*
X1962599D01*
X1963599D01*
Y784400D01*
X1962599Y783400D01*
X1961600D01*
X1960600Y784400D01*
X1970597Y789398D02*
X1968597Y788398D01*
X1966598Y786399D01*
Y784400D01*
X1967598Y783400D01*
X1969597D01*
X1970597Y784400D01*
Y785399D01*
X1969597Y786399D01*
X1966598D01*
X1876386Y789398D02*
X1874387D01*
X1875386D01*
Y784400D01*
X1874387Y783400D01*
X1873387D01*
X1872387Y784400D01*
X1882384Y789398D02*
X1878386D01*
Y786399D01*
X1880385Y787399D01*
X1881384D01*
X1882384Y786399D01*
Y784400D01*
X1881384Y783400D01*
X1879385D01*
X1878386Y784400D01*
X1269599Y1219798D02*
X1267599D01*
X1268599D01*
Y1214800D01*
X1267599Y1213800D01*
X1266600D01*
X1265600Y1214800D01*
X1271598Y1213800D02*
X1273597D01*
X1272598D01*
Y1219798D01*
X1271598Y1218798D01*
X1327407Y1076017D02*
X1326408Y1077016D01*
X1324408D01*
X1323409Y1076017D01*
Y1072018D01*
X1324408Y1071018D01*
X1326408D01*
X1327407Y1072018D01*
X1333405Y1071018D02*
X1329407D01*
X1333405Y1075017D01*
Y1076017D01*
X1332406Y1077016D01*
X1330406D01*
X1329407Y1076017D01*
X1688600Y907900D02*
Y913898D01*
X1691599D01*
X1692599Y912898D01*
Y910899D01*
X1691599Y909899D01*
X1688600D01*
X1690599D02*
X1692599Y907900D01*
X1694598Y908900D02*
X1695598Y907900D01*
X1697597D01*
X1698597Y908900D01*
Y912898D01*
X1697597Y913898D01*
X1695598D01*
X1694598Y912898D01*
Y911899D01*
X1695598Y910899D01*
X1698597D01*
X1704595Y913898D02*
X1700596D01*
Y910899D01*
X1702596Y911899D01*
X1703595D01*
X1704595Y910899D01*
Y908900D01*
X1703595Y907900D01*
X1701596D01*
X1700596Y908900D01*
X2044999Y1116998D02*
X2043999Y1117998D01*
X2042000D01*
X2041000Y1116998D01*
Y1115999D01*
X2042000Y1114999D01*
X2043999D01*
X2044999Y1113999D01*
Y1113000D01*
X2043999Y1112000D01*
X2042000D01*
X2041000Y1113000D01*
X2046998Y1117998D02*
Y1112000D01*
X2048997Y1113999D01*
X2050997Y1112000D01*
Y1117998D01*
X2052996Y1112000D02*
X2054996D01*
X2053996D01*
Y1117998D01*
X2052996Y1116998D01*
X2057994Y1112000D02*
X2059994D01*
X2058994D01*
Y1117998D01*
X2057994Y1116998D01*
X1383999Y884998D02*
X1382999Y885998D01*
X1381000D01*
X1380000Y884998D01*
Y883999D01*
X1381000Y882999D01*
X1382999D01*
X1383999Y881999D01*
Y881000D01*
X1382999Y880000D01*
X1381000D01*
X1380000Y881000D01*
X1385998Y885998D02*
Y880000D01*
X1387997Y881999D01*
X1389997Y880000D01*
Y885998D01*
X1394995Y880000D02*
Y885998D01*
X1391996Y882999D01*
X1395995D01*
X1463999Y884998D02*
X1462999Y885998D01*
X1461000D01*
X1460000Y884998D01*
Y883999D01*
X1461000Y882999D01*
X1462999D01*
X1463999Y881999D01*
Y881000D01*
X1462999Y880000D01*
X1461000D01*
X1460000Y881000D01*
X1465998Y885998D02*
Y880000D01*
X1467997Y881999D01*
X1469997Y880000D01*
Y885998D01*
X1475995D02*
X1471996D01*
Y882999D01*
X1473995Y883999D01*
X1474995D01*
X1475995Y882999D01*
Y881000D01*
X1474995Y880000D01*
X1472996D01*
X1471996Y881000D01*
X1543999Y884998D02*
X1542999Y885998D01*
X1541000D01*
X1540000Y884998D01*
Y883999D01*
X1541000Y882999D01*
X1542999D01*
X1543999Y881999D01*
Y881000D01*
X1542999Y880000D01*
X1541000D01*
X1540000Y881000D01*
X1545998Y885998D02*
Y880000D01*
X1547997Y881999D01*
X1549997Y880000D01*
Y885998D01*
X1555995D02*
X1553996Y884998D01*
X1551996Y882999D01*
Y881000D01*
X1552996Y880000D01*
X1554995D01*
X1555995Y881000D01*
Y881999D01*
X1554995Y882999D01*
X1551996D01*
X1623999Y884998D02*
X1622999Y885998D01*
X1621000D01*
X1620000Y884998D01*
Y883999D01*
X1621000Y882999D01*
X1622999D01*
X1623999Y881999D01*
Y881000D01*
X1622999Y880000D01*
X1621000D01*
X1620000Y881000D01*
X1625998Y885998D02*
Y880000D01*
X1627997Y881999D01*
X1629997Y880000D01*
Y885998D01*
X1631996D02*
X1635995D01*
Y884998D01*
X1631996Y881000D01*
Y880000D01*
X1835600Y858400D02*
Y864398D01*
X1838599D01*
X1839599Y863398D01*
Y861399D01*
X1838599Y860399D01*
X1835600D01*
X1841598Y863398D02*
X1842598Y864398D01*
X1844597D01*
X1845597Y863398D01*
Y862399D01*
X1844597Y861399D01*
X1843597D01*
X1844597D01*
X1845597Y860399D01*
Y859400D01*
X1844597Y858400D01*
X1842598D01*
X1841598Y859400D01*
X1339599Y1054398D02*
X1337599D01*
X1338599D01*
Y1049400D01*
X1337599Y1048400D01*
X1336600D01*
X1335600Y1049400D01*
X1341598Y1048400D02*
Y1054398D01*
X1344597D01*
X1345597Y1053398D01*
Y1051399D01*
X1344597Y1050399D01*
X1341598D01*
X1351595Y1054398D02*
X1349596Y1053398D01*
X1347596Y1051399D01*
Y1049400D01*
X1348596Y1048400D01*
X1350595D01*
X1351595Y1049400D01*
Y1050399D01*
X1350595Y1051399D01*
X1347596D01*
X1339599Y934398D02*
X1337599D01*
X1338599D01*
Y929400D01*
X1337599Y928400D01*
X1336600D01*
X1335600Y929400D01*
X1341598Y928400D02*
Y934398D01*
X1344597D01*
X1345597Y933398D01*
Y931399D01*
X1344597Y930399D01*
X1341598D01*
X1347596Y928400D02*
X1349596D01*
X1348596D01*
Y934398D01*
X1347596Y933398D01*
X1352594D02*
X1353594Y934398D01*
X1355593D01*
X1356593Y933398D01*
Y929400D01*
X1355593Y928400D01*
X1353594D01*
X1352594Y929400D01*
Y933398D01*
X1339599Y994398D02*
X1337599D01*
X1338599D01*
Y989400D01*
X1337599Y988400D01*
X1336600D01*
X1335600Y989400D01*
X1341598Y988400D02*
Y994398D01*
X1344597D01*
X1345597Y993398D01*
Y991399D01*
X1344597Y990399D01*
X1341598D01*
X1347596Y988400D02*
X1349596D01*
X1348596D01*
Y994398D01*
X1347596Y993398D01*
X1352594Y988400D02*
X1354594D01*
X1353594D01*
Y994398D01*
X1352594Y993398D01*
X1339599Y884398D02*
X1337599D01*
X1338599D01*
Y879400D01*
X1337599Y878400D01*
X1336600D01*
X1335600Y879400D01*
X1341598Y878400D02*
Y884398D01*
X1344597D01*
X1345597Y883398D01*
Y881399D01*
X1344597Y880399D01*
X1341598D01*
X1347596Y878400D02*
X1349596D01*
X1348596D01*
Y884398D01*
X1347596Y883398D01*
X1356593Y878400D02*
X1352594D01*
X1356593Y882399D01*
Y883398D01*
X1355593Y884398D01*
X1353594D01*
X1352594Y883398D01*
X1608600Y907900D02*
Y913898D01*
X1611599D01*
X1612599Y912898D01*
Y910899D01*
X1611599Y909899D01*
X1608600D01*
X1610599D02*
X1612599Y907900D01*
X1614598Y908900D02*
X1615598Y907900D01*
X1617597D01*
X1618597Y908900D01*
Y912898D01*
X1617597Y913898D01*
X1615598D01*
X1614598Y912898D01*
Y911899D01*
X1615598Y910899D01*
X1618597D01*
X1624595Y913898D02*
X1622595Y912898D01*
X1620596Y910899D01*
Y908900D01*
X1621596Y907900D01*
X1623595D01*
X1624595Y908900D01*
Y909899D01*
X1623595Y910899D01*
X1620596D01*
X1528600Y907900D02*
Y913898D01*
X1531599D01*
X1532599Y912898D01*
Y910899D01*
X1531599Y909899D01*
X1528600D01*
X1530599D02*
X1532599Y907900D01*
X1534598Y908900D02*
X1535598Y907900D01*
X1537597D01*
X1538597Y908900D01*
Y912898D01*
X1537597Y913898D01*
X1535598D01*
X1534598Y912898D01*
Y911899D01*
X1535598Y910899D01*
X1538597D01*
X1540596Y913898D02*
X1544595D01*
Y912898D01*
X1540596Y908900D01*
Y907900D01*
X1448600D02*
Y913898D01*
X1451599D01*
X1452599Y912898D01*
Y910899D01*
X1451599Y909899D01*
X1448600D01*
X1450599D02*
X1452599Y907900D01*
X1454598Y908900D02*
X1455598Y907900D01*
X1457597D01*
X1458597Y908900D01*
Y912898D01*
X1457597Y913898D01*
X1455598D01*
X1454598Y912898D01*
Y911899D01*
X1455598Y910899D01*
X1458597D01*
X1460596Y912898D02*
X1461596Y913898D01*
X1463595D01*
X1464595Y912898D01*
Y911899D01*
X1463595Y910899D01*
X1464595Y909899D01*
Y908900D01*
X1463595Y907900D01*
X1461596D01*
X1460596Y908900D01*
Y909899D01*
X1461596Y910899D01*
X1460596Y911899D01*
Y912898D01*
X1461596Y910899D02*
X1463595D01*
X1368600Y907900D02*
Y913898D01*
X1371599D01*
X1372599Y912898D01*
Y910899D01*
X1371599Y909899D01*
X1368600D01*
X1370599D02*
X1372599Y907900D01*
X1374598Y908900D02*
X1375598Y907900D01*
X1377597D01*
X1378597Y908900D01*
Y912898D01*
X1377597Y913898D01*
X1375598D01*
X1374598Y912898D01*
Y911899D01*
X1375598Y910899D01*
X1378597D01*
X1380596Y908900D02*
X1381596Y907900D01*
X1383595D01*
X1384595Y908900D01*
Y912898D01*
X1383595Y913898D01*
X1381596D01*
X1380596Y912898D01*
Y911899D01*
X1381596Y910899D01*
X1384595D01*
X1906999Y1161998D02*
X1905999Y1162998D01*
X1904000D01*
X1903000Y1161998D01*
Y1160999D01*
X1904000Y1159999D01*
X1905999D01*
X1906999Y1158999D01*
Y1158000D01*
X1905999Y1157000D01*
X1904000D01*
X1903000Y1158000D01*
X1908998Y1162998D02*
Y1157000D01*
X1910997Y1158999D01*
X1912997Y1157000D01*
Y1162998D01*
X1914996Y1157000D02*
X1916995D01*
X1915996D01*
Y1162998D01*
X1914996Y1161998D01*
X1953999Y812998D02*
X1952999Y813998D01*
X1951000D01*
X1950000Y812998D01*
Y811999D01*
X1951000Y810999D01*
X1952999D01*
X1953999Y809999D01*
Y809000D01*
X1952999Y808000D01*
X1951000D01*
X1950000Y809000D01*
X1955998Y813998D02*
Y808000D01*
X1957997Y809999D01*
X1959997Y808000D01*
Y813998D01*
X1961996Y812998D02*
X1962996Y813998D01*
X1964995D01*
X1965995Y812998D01*
Y811999D01*
X1964995Y810999D01*
X1963996D01*
X1964995D01*
X1965995Y809999D01*
Y809000D01*
X1964995Y808000D01*
X1962996D01*
X1961996Y809000D01*
D81*
X1260000Y850000D02*
X1330000D01*
X1260000Y770000D02*
X1330000D01*
X1260000D02*
Y850000D01*
X1330000Y770000D02*
Y850000D01*
D82*
X1670000Y1227500D02*
D03*
D83*
X1550000Y845000D02*
D03*
D84*
X2015000Y1265000D02*
D03*
Y1150000D02*
D03*
X1945000Y1045000D02*
D03*
D85*
X1980000Y1069500D02*
D03*
M02*
