%FSLAX25Y25*%
%MOIN*%
G70*
G01*
G75*
G04 Layer_Physical_Order=2*
G04 Layer_Color=16711680*
%ADD10R,0.03150X0.03543*%
%ADD11R,0.01969X0.03937*%
%ADD12O,0.01969X0.03937*%
%ADD13R,0.03543X0.03150*%
%ADD14R,0.04724X0.05512*%
%ADD15R,0.07480X0.06299*%
%ADD16O,0.01575X0.06299*%
%ADD17R,0.01575X0.06299*%
%ADD18R,0.01969X0.10630*%
%ADD19O,0.01969X0.10630*%
%ADD20R,0.08500X0.04200*%
%ADD21R,0.07500X0.42500*%
%ADD22R,0.20000X0.32500*%
%ADD23R,0.00787X0.04724*%
%ADD24O,0.00787X0.04724*%
%ADD25R,0.03937X0.01969*%
%ADD26O,0.03937X0.01969*%
%ADD27R,0.07480X0.11024*%
%ADD28C,0.00780*%
%ADD29C,0.02500*%
%ADD30C,0.01575*%
%ADD31C,0.01969*%
%ADD32C,0.00787*%
%ADD33C,0.01200*%
%ADD34C,0.03937*%
%ADD35C,0.06200*%
%ADD36C,0.07874*%
%ADD37C,0.17716*%
%ADD38R,0.05000X0.05000*%
%ADD39C,0.05000*%
%ADD40C,0.10000*%
%ADD41R,0.05906X0.05906*%
%ADD42C,0.05906*%
%ADD43C,0.11000*%
%ADD44C,0.05500*%
%ADD45R,0.05906X0.05906*%
%ADD46C,0.14000*%
%ADD47R,0.05000X0.05000*%
%ADD48C,0.08000*%
%ADD49C,0.07000*%
%ADD50R,0.08000X0.08000*%
%ADD51C,0.04331*%
%ADD52C,0.06299*%
%ADD53C,0.03000*%
%ADD54O,0.01181X0.03937*%
%ADD55R,0.01181X0.03937*%
%ADD56O,0.03150X0.00984*%
%ADD57R,0.03150X0.00984*%
%ADD58R,0.00984X0.03150*%
%ADD59O,0.07480X0.01181*%
%ADD60R,2.00000X0.06000*%
%ADD61O,0.10000X0.01181*%
%ADD62O,0.01181X0.10000*%
%ADD63O,0.01181X0.07480*%
%ADD64O,0.01772X0.05709*%
%ADD65R,0.01772X0.05709*%
%ADD66O,0.01575X0.03937*%
%ADD67R,0.01575X0.03937*%
%ADD68O,0.08000X0.02400*%
%ADD69C,0.02400*%
%ADD70C,0.01181*%
%ADD71C,0.01772*%
%ADD72C,0.00984*%
D10*
X1594244Y1113000D02*
D03*
X1599756D02*
D03*
X1852756Y830000D02*
D03*
X1847244D02*
D03*
X1852756Y856000D02*
D03*
X1847244D02*
D03*
X1589756Y1039000D02*
D03*
X1584244D02*
D03*
X1607244D02*
D03*
X1612756D02*
D03*
X1589756Y982000D02*
D03*
X1584244D02*
D03*
X1607244D02*
D03*
X1612756D02*
D03*
X1496378Y1097193D02*
D03*
X1490866D02*
D03*
X1478866D02*
D03*
X1484378D02*
D03*
X1433378Y1097063D02*
D03*
X1427866D02*
D03*
X1415866D02*
D03*
X1421378D02*
D03*
X1802756Y969000D02*
D03*
X1797244D02*
D03*
X1820244Y1027000D02*
D03*
X1825756D02*
D03*
X1820244Y969000D02*
D03*
X1825756D02*
D03*
X1606244Y1113000D02*
D03*
X1611756D02*
D03*
X1607244Y1057000D02*
D03*
X1612756D02*
D03*
X1834756Y1130000D02*
D03*
X1829244D02*
D03*
X1847244Y836000D02*
D03*
X1852756D02*
D03*
Y850000D02*
D03*
X1847244D02*
D03*
X1784756Y1103000D02*
D03*
X1779244D02*
D03*
X1833756Y1173000D02*
D03*
X1828244D02*
D03*
X1386984Y1164898D02*
D03*
X1381472D02*
D03*
X1381472Y1102898D02*
D03*
X1386984D02*
D03*
X1366984Y1164898D02*
D03*
X1361472D02*
D03*
X1791244Y1103000D02*
D03*
X1796756D02*
D03*
X1838244Y1094000D02*
D03*
X1843756D02*
D03*
X1838244Y1080000D02*
D03*
X1843756D02*
D03*
X1838244Y1087000D02*
D03*
X1843756D02*
D03*
X1802756Y1043000D02*
D03*
X1797244D02*
D03*
X1831756D02*
D03*
X1826244D02*
D03*
X1819756D02*
D03*
X1814244D02*
D03*
X1877244Y1091000D02*
D03*
X1882756D02*
D03*
X1877244Y1058000D02*
D03*
X1882756D02*
D03*
X1877244Y1066000D02*
D03*
X1882756D02*
D03*
Y1074000D02*
D03*
X1877244D02*
D03*
Y1083000D02*
D03*
X1882756D02*
D03*
X1802756Y1027000D02*
D03*
X1797244D02*
D03*
X1802756Y962000D02*
D03*
X1797244D02*
D03*
X1802756Y955000D02*
D03*
X1797244D02*
D03*
X1876756Y1158000D02*
D03*
X1871244D02*
D03*
X1871244Y1148000D02*
D03*
X1876756D02*
D03*
X1882756Y1050000D02*
D03*
X1877244D02*
D03*
X1877244Y1042000D02*
D03*
X1882756D02*
D03*
X1589756Y1046000D02*
D03*
X1584244D02*
D03*
D13*
X1423000Y750244D02*
D03*
Y755756D02*
D03*
X1446000Y821756D02*
D03*
Y816244D02*
D03*
X1526000Y828244D02*
D03*
Y833756D02*
D03*
X1504000Y740244D02*
D03*
Y745756D02*
D03*
X1497000Y745756D02*
D03*
Y740244D02*
D03*
X1511000Y745756D02*
D03*
Y740244D02*
D03*
X1430000Y755756D02*
D03*
Y750244D02*
D03*
X1416000Y755756D02*
D03*
Y750244D02*
D03*
X1640000Y940244D02*
D03*
Y945756D02*
D03*
X1676000Y1149244D02*
D03*
Y1154756D02*
D03*
X1733000Y1148244D02*
D03*
Y1153756D02*
D03*
X1676000Y1127244D02*
D03*
Y1132756D02*
D03*
X1699000Y922756D02*
D03*
Y917244D02*
D03*
X1400000Y1252756D02*
D03*
Y1247244D02*
D03*
X1380000Y1252756D02*
D03*
Y1247244D02*
D03*
X1699000Y940244D02*
D03*
Y945756D02*
D03*
X1773000Y922756D02*
D03*
Y917244D02*
D03*
Y940244D02*
D03*
Y945756D02*
D03*
X1292000Y1179244D02*
D03*
Y1184756D02*
D03*
Y1170756D02*
D03*
Y1165244D02*
D03*
X1360000Y1247244D02*
D03*
Y1252756D02*
D03*
X1714000Y922756D02*
D03*
Y917244D02*
D03*
X1640000Y922756D02*
D03*
Y917244D02*
D03*
X1937000Y882244D02*
D03*
Y887756D02*
D03*
X2007000Y882244D02*
D03*
Y887756D02*
D03*
X1714000Y940244D02*
D03*
Y945756D02*
D03*
X1414000Y1019756D02*
D03*
Y1014244D02*
D03*
X1425000Y1019756D02*
D03*
Y1014244D02*
D03*
X1494614Y1020378D02*
D03*
Y1014866D02*
D03*
X1385000Y970244D02*
D03*
Y975756D02*
D03*
X1488000Y930756D02*
D03*
Y925244D02*
D03*
X1458000Y930756D02*
D03*
Y925244D02*
D03*
X1425000Y930756D02*
D03*
Y925244D02*
D03*
X1457000Y1019756D02*
D03*
Y1014244D02*
D03*
X1397000Y1014244D02*
D03*
Y1019756D02*
D03*
X1486000Y1014244D02*
D03*
Y1019756D02*
D03*
X1352228Y1115654D02*
D03*
Y1110142D02*
D03*
X1821000Y1101244D02*
D03*
Y1106756D02*
D03*
X1814000Y1101244D02*
D03*
Y1106756D02*
D03*
X1828000Y1106756D02*
D03*
Y1101244D02*
D03*
X1409000Y1116244D02*
D03*
Y1121756D02*
D03*
X1837000Y987244D02*
D03*
Y992756D02*
D03*
D25*
X1868819Y1165000D02*
D03*
D26*
X1879055Y1172874D02*
D03*
X1868819D02*
D03*
X1879055Y1165000D02*
D03*
X1868819Y1168937D02*
D03*
D28*
X1514095Y758000D02*
Y766174D01*
X1516063Y758000D02*
Y765363D01*
X1403189Y930230D02*
X1415806D01*
X1419277Y933701D01*
X1408000Y937000D02*
X1410000Y935000D01*
X1407700Y937000D02*
X1408000D01*
X1396976Y936443D02*
X1403189Y930230D01*
X1396976Y936443D02*
Y947622D01*
X1404700Y932900D02*
Y936100D01*
X1399700Y941100D02*
X1404700Y936100D01*
X1399700Y941100D02*
Y945975D01*
X1400125Y946400D01*
Y947622D01*
X1437148Y940148D02*
X1439000Y942000D01*
X1443252Y935294D02*
Y941524D01*
X1441658Y933701D02*
X1443252Y935294D01*
X1419277Y933701D02*
X1441658D01*
X1441070Y943706D02*
X1443252Y941524D01*
X1441070Y943706D02*
Y947622D01*
X1480600Y1097193D02*
Y1104400D01*
X1361400Y1154898D02*
Y1164898D01*
X1466058Y989082D02*
X1468316D01*
X1403189Y930230D02*
X1405419Y928000D01*
X1292000Y1182821D02*
X1293563D01*
X1839451Y1075498D02*
Y1080000D01*
X1829300Y1084157D02*
X1829400D01*
X1840211Y1084000D02*
X1841000D01*
X1829457D02*
X1829557D01*
X1814000Y1103000D02*
X1817100D01*
X1834800Y1087100D02*
X1838244D01*
X1833520Y1087000D02*
X1838244D01*
X1821000Y1099400D02*
Y1101244D01*
Y1091200D02*
Y1099400D01*
X1826000Y1092031D02*
X1838244D01*
X1584162Y1033275D02*
Y1036162D01*
X1796230Y1094000D02*
Y1099770D01*
X1767000Y916938D02*
X1773000D01*
X1868300Y1162200D02*
Y1165000D01*
X1616700Y1083400D02*
Y1083654D01*
X1792887Y1005252D02*
X1796866D01*
X1788281D02*
X1792887D01*
X1794196Y1056413D02*
Y1056598D01*
X1800271Y952329D02*
X1806930Y945670D01*
X1928441Y879200D02*
Y879341D01*
Y876000D02*
Y879200D01*
X1787255Y962945D02*
X1794400Y955800D01*
X1434771Y942210D02*
X1440582Y936400D01*
X1510158Y831200D02*
Y833591D01*
Y830058D02*
Y831200D01*
X1501610Y822652D02*
X1510158Y831200D01*
X1438870Y804330D02*
X1446514Y811974D01*
X1438870Y804330D02*
X1440172D01*
X1435130D02*
X1438870D01*
X1432150Y830000D02*
X1447300D01*
X1458400D01*
X1441430Y831630D02*
X1443174D01*
X1429099D02*
X1441430D01*
X1443174D02*
X1444614Y833070D01*
X1441430Y831630D02*
X1442800Y833000D01*
X1441400Y831600D02*
X1441430Y831630D01*
X1422283Y824683D02*
Y824814D01*
X1497615Y841100D02*
X1500315Y838400D01*
X1495182Y843533D02*
X1497615Y841100D01*
X1709500Y1030008D02*
X1772000D01*
X1654274D02*
X1709500D01*
X1815629Y840303D02*
X1816700Y841374D01*
X1815126Y839800D02*
X1815629Y840303D01*
X1776329Y827626D02*
X1795441D01*
X1767743Y860200D02*
X1795441D01*
X1508189Y767011D02*
Y767700D01*
X1498347Y753453D02*
Y758000D01*
Y750343D02*
Y753453D01*
X1516063Y765363D02*
Y768000D01*
X1393777Y768623D02*
X1403324Y778170D01*
X1392828Y767674D02*
X1393777Y768623D01*
X1395779Y764721D02*
X1403745Y772687D01*
X1394600Y763542D02*
X1395779Y764721D01*
X1490142Y756600D02*
X1490473D01*
X1486600D02*
X1490142D01*
X1490473Y758000D01*
X1489600Y754300D02*
X1490142Y756600D01*
X1407900Y769500D02*
X1410472D01*
X1388700Y864672D02*
Y884400D01*
Y859524D02*
Y864672D01*
X1410472Y837400D02*
Y837752D01*
Y821937D02*
Y837400D01*
X1374800Y822400D02*
X1379962Y817238D01*
X1330550Y866650D02*
X1374800Y822400D01*
X1409574Y1006174D02*
X1409600Y1006200D01*
X1409574Y1006174D02*
Y1006200D01*
Y996441D02*
Y1006174D01*
X1440000Y822754D02*
X1443069D01*
X1431462Y755756D02*
Y760594D01*
X1828000Y1094000D02*
Y1101244D01*
X1496378Y1097193D02*
Y1105400D01*
X1386300Y1150961D02*
X1394228D01*
X1434669Y1147231D02*
X1457376Y1124524D01*
X1403619Y1147231D02*
X1434669D01*
X1394228Y1147024D02*
X1403619Y1147231D01*
X1416629Y1145671D02*
X1425300Y1137000D01*
X1405588Y1145671D02*
X1416629D01*
X1404972Y1145055D02*
X1405588Y1145671D01*
X1394228Y1145055D02*
X1404972D01*
X1442000Y1108500D02*
Y1116953D01*
X1428813Y1130139D02*
X1442000Y1116953D01*
X1418224Y1130139D02*
X1428813D01*
X1407245Y1141118D02*
X1418224Y1130139D01*
X1394228Y1141118D02*
X1407245D01*
X1425900Y1127800D02*
X1433790Y1119910D01*
X1417152Y1127800D02*
X1425900D01*
X1409739Y1135213D02*
X1417152Y1127800D01*
X1394228Y1135213D02*
X1409739D01*
X1407493Y1133530D02*
X1412223Y1128800D01*
X1399470Y1133530D02*
X1407493D01*
X1394228Y1133244D02*
X1399470Y1133530D01*
X1421970Y1124530D02*
X1426900Y1119600D01*
X1411200Y1124530D02*
X1421970D01*
X1407936Y1127794D02*
X1411200Y1124530D01*
X1407936Y1127794D02*
Y1130412D01*
X1406377Y1131970D02*
X1407936Y1130412D01*
X1401724Y1131970D02*
X1406377D01*
X1401030Y1131276D02*
X1401724Y1131970D01*
X1394228Y1131276D02*
X1401030D01*
X1388670Y1125370D02*
X1394228D01*
X1387600Y1124300D02*
X1388670Y1125370D01*
X1384754Y1117496D02*
X1394228D01*
X1384239Y1116981D02*
X1384754Y1117496D01*
X1384239Y1099200D02*
Y1116981D01*
Y1099200D02*
X1407711Y1075728D01*
X1429432D01*
X1430682Y1074477D01*
X1434600D01*
X1387000Y1111800D02*
X1388759Y1113559D01*
X1394228D01*
X1825505Y848095D02*
X1827200Y846400D01*
X1823000Y848095D02*
X1825505D01*
X1425000Y1008880D02*
Y1014244D01*
X1422173Y1006053D02*
X1425000Y1008880D01*
X1422173Y996441D02*
Y1006053D01*
X1579337Y991937D02*
X1584000D01*
X1578100Y990700D02*
X1579337Y991937D01*
X1578100Y968600D02*
Y990700D01*
X1886026Y1172874D02*
X1975000Y1083900D01*
X1879055Y1172874D02*
X1886026D01*
X1415874Y944726D02*
Y947622D01*
Y944726D02*
X1418240Y942360D01*
X1424392D01*
X1490200Y987500D02*
X1493112D01*
X1507392Y1001779D01*
X1584000D01*
X1679600Y1167800D02*
X1688560D01*
X1691842Y1164518D01*
Y1155000D02*
Y1164518D01*
X1697748Y1155000D02*
Y1162200D01*
X1696800Y1163148D02*
X1697748Y1162200D01*
X1705622Y1155000D02*
Y1205622D01*
X1710000Y1210000D01*
X1717433Y1155000D02*
Y1164667D01*
X1719401Y1155000D02*
Y1159401D01*
X1722770Y1162770D01*
Y1166400D01*
X1720100Y1169900D02*
X1724800D01*
X1726700Y1168000D01*
Y1163162D02*
Y1168000D01*
X1723338Y1159800D02*
X1726700Y1163162D01*
X1723338Y1155000D02*
Y1159800D01*
X1672000Y1037830D02*
X1698930D01*
X1700950Y1039850D01*
X1772000D01*
X1674700Y1043200D02*
X1750711D01*
X1752092Y1041819D01*
X1772000D01*
X1781500D01*
X1782019Y1041300D01*
X1873300Y1061700D02*
X1874900D01*
X1877244Y1064044D01*
Y1066000D01*
X1840200Y1058800D02*
Y1059028D01*
X1840560Y1059388D01*
Y1074389D01*
X1839451Y1075498D02*
X1840560Y1074389D01*
X1838244Y1080000D02*
X1839451D01*
X1838244Y1087000D02*
Y1087100D01*
X1847700Y1089200D02*
Y1093900D01*
Y1089200D02*
X1848900Y1088000D01*
Y1053100D02*
Y1088000D01*
Y1053100D02*
X1858100Y1043900D01*
X1620890Y828885D02*
X1623053Y831047D01*
X1581915Y828885D02*
X1620890D01*
X1535100Y875700D02*
X1581915Y828885D01*
X1571600Y1158000D02*
X1603700Y1190100D01*
X1819400Y1097800D02*
X1821000Y1099400D01*
X1377900Y799000D02*
X1380690Y796210D01*
X1610562D01*
X1613271Y798919D01*
X1832789D01*
X1843860Y809991D01*
X1896891D01*
X1906900Y820000D01*
X2061600D01*
X2065800Y815800D01*
X2074000D01*
X2077400Y819200D01*
Y882700D01*
X2065900Y894200D02*
X2077400Y882700D01*
X2065900Y894200D02*
Y1176200D01*
X2059200Y1182900D02*
X2065900Y1176200D01*
X1866200Y1182900D02*
X2059200D01*
X1838244Y1094000D02*
Y1101345D01*
X1826000Y995409D02*
X1833967D01*
X1834058Y995501D01*
X2012501D01*
X2064300Y1047300D01*
Y1147360D01*
X2051660Y1160000D02*
X2064300Y1147360D01*
X2040000Y1160000D02*
X2051660D01*
X1832746Y999346D02*
X1833600Y1000200D01*
X1826000Y999346D02*
X1832746D01*
X1826000Y1001315D02*
X1830900D01*
X1832485Y1002900D01*
X1834900D01*
X1838400Y999400D01*
X1860813D01*
X1887213Y1025800D01*
X2021971D01*
X2055860Y1059689D01*
Y1073040D01*
X1985900Y1143000D02*
X2055860Y1073040D01*
X1980800Y1143000D02*
X1985900D01*
X1975700Y1148100D02*
X1980800Y1143000D01*
X1975700Y1148100D02*
Y1152900D01*
X1982800Y1160000D01*
X1990000D01*
X1826000Y1005252D02*
X1846048D01*
X1847600Y1003700D01*
X1826000Y1011157D02*
X1862574D01*
X1883526Y1032110D01*
X1898010D01*
X1921000Y1055100D01*
X1945100D01*
X1858037Y1027904D02*
X1860000Y1029867D01*
X1839064Y1027904D02*
X1858037D01*
X1830191Y1019031D02*
X1839064Y1027904D01*
X1826000Y1019031D02*
X1830191D01*
X1522031Y995874D02*
X1584000D01*
X1504927Y978770D02*
X1522031Y995874D01*
X1444143Y978770D02*
X1504927D01*
X1422173Y956800D02*
X1444143Y978770D01*
X1422173Y947622D02*
Y956800D01*
X1419023Y947622D02*
Y953177D01*
X1414600Y957600D02*
X1419023Y953177D01*
X1511400Y763800D02*
X1512126Y763074D01*
Y758000D02*
Y763074D01*
X1728519Y1153756D02*
X1733000D01*
X1727275Y1155000D02*
X1728519Y1153756D01*
X1865600Y1050000D02*
X1871100D01*
X1860400Y1055200D02*
X1865600Y1050000D01*
X1860400Y1055200D02*
Y1067100D01*
X1868300Y1165000D02*
X1868819D01*
X1871100Y1050000D02*
X1877244D01*
X1867500Y1046400D02*
X1871100Y1050000D01*
X1867500Y1038970D02*
Y1046400D01*
X1863900Y1035370D02*
X1867500Y1038970D01*
X1843970Y1035370D02*
X1863900D01*
X1843800Y1035200D02*
X1843970Y1035370D01*
X1839700Y1019600D02*
X1848200D01*
X1830400Y964700D02*
X1833600Y967900D01*
X1818100Y964700D02*
X1830400D01*
X1816400Y966400D02*
X1818100Y964700D01*
X1816400Y966400D02*
Y972600D01*
X1808800Y1003300D02*
X1817400D01*
X1788700Y1036300D02*
X1789100Y1035900D01*
X1788700Y1036300D02*
Y1040000D01*
X1782944Y1045756D02*
X1788700Y1040000D01*
X1772000Y1045756D02*
X1782944D01*
X1826000Y1068409D02*
X1832321D01*
X1835130Y1065600D01*
Y1059370D02*
Y1065600D01*
Y1059370D02*
X1840200Y1054300D01*
Y1054100D02*
Y1054300D01*
X1828200Y952800D02*
X1854300D01*
X1866970Y1023970D02*
X1873200Y1030200D01*
X1844039Y1023970D02*
X1866970D01*
X1842439Y1022370D02*
X1844039Y1023970D01*
X1831828Y1064472D02*
X1832400Y1063900D01*
X1826000Y1064472D02*
X1831828D01*
X2027900Y882100D02*
X2070000Y840000D01*
X2027900Y882100D02*
Y913700D01*
X2011900Y929700D02*
X2027900Y913700D01*
X1827400Y929700D02*
X2011900D01*
X1814400Y942700D02*
X1827400Y929700D01*
X1811788Y1060450D02*
X1813768Y1062430D01*
X1818226D01*
X1826000Y1062504D01*
X2070000Y820000D02*
X2074200Y824200D01*
Y882200D01*
X2023300Y933100D02*
X2074200Y882200D01*
X1830000Y933100D02*
X2023300D01*
X1821000Y942100D02*
X1830000Y933100D01*
X1818200Y1058200D02*
X1819802Y1056598D01*
X1826000D01*
X1822093Y1050693D02*
X1826000D01*
X1817000Y1045600D02*
X1822093Y1050693D01*
X1817000Y1039190D02*
Y1045600D01*
Y1039190D02*
X1819510Y1036680D01*
X1838180D01*
X1842700Y1041200D01*
X1860800D01*
X1727275Y1125866D02*
Y1130225D01*
X1725600Y1131900D02*
X1727275Y1130225D01*
X1738000Y1084100D02*
X1750480D01*
X1760780Y1094400D01*
Y1100283D01*
X1758811Y1094711D02*
Y1100283D01*
X1757100Y1093000D02*
X1758811Y1094711D01*
X1755400Y1093000D02*
X1757100D01*
X1774800Y1112400D02*
X1802890D01*
X1809498Y1105792D01*
Y1096802D02*
Y1105792D01*
Y1096802D02*
X1812900Y1093400D01*
X1796866Y1072346D02*
X1810800D01*
X1737158Y1100283D02*
Y1110345D01*
X1743300Y1116488D01*
Y1123300D01*
X1671800Y1141800D02*
X1673400Y1143400D01*
X1671800Y1131800D02*
Y1141800D01*
Y1131800D02*
X1673600Y1130000D01*
X1682000D01*
Y1125866D02*
Y1130000D01*
X1731252Y1100283D02*
Y1109587D01*
X1723338Y1117501D02*
X1731252Y1109587D01*
X1723338Y1117501D02*
Y1125866D01*
X1719441Y1094141D02*
Y1100283D01*
X1718300Y1093000D02*
X1719441Y1094141D01*
X1712985Y1134556D02*
X1718300D01*
X1711527Y1133098D02*
X1712985Y1134556D01*
X1711527Y1125866D02*
Y1133098D01*
X1707590Y1118143D02*
Y1125866D01*
Y1118143D02*
X1708800Y1116934D01*
X1710395D01*
X1714750Y1112578D01*
Y1110023D02*
Y1112578D01*
Y1110023D02*
X1717473Y1107300D01*
Y1100283D02*
Y1107300D01*
X1705622Y1116800D02*
Y1125866D01*
Y1116800D02*
X1710592Y1111830D01*
X1712000D01*
X1713190Y1110640D01*
Y1109232D02*
Y1110640D01*
Y1109232D02*
X1713536Y1108886D01*
Y1100283D02*
Y1108886D01*
X1695779Y1125866D02*
Y1130579D01*
X1704745Y1139545D01*
X1719755D01*
X1722300Y1137000D01*
X1687945Y1094500D02*
X1695145Y1087300D01*
X1687945Y1094500D02*
Y1100283D01*
X1685937Y1120506D02*
Y1125866D01*
X1683961Y1118530D02*
X1685937Y1120506D01*
X1682489Y1118530D02*
X1683961D01*
X1679254Y1115295D02*
X1682489Y1118530D01*
X1679254Y1109107D02*
Y1115295D01*
X1678102Y1107955D02*
X1679254Y1109107D01*
X1678102Y1100283D02*
Y1107955D01*
X1676134Y1100283D02*
Y1109107D01*
X1677694Y1110667D01*
Y1116800D01*
X1681794Y1120900D01*
X1683968D01*
Y1125866D01*
X1584000Y1107276D02*
X1593600D01*
X1597000Y1110676D01*
Y1118300D01*
X1608180Y1129480D01*
X1652547D01*
X1657727Y1124300D01*
X1669065D01*
X1676134Y1117231D01*
Y1113250D02*
Y1117231D01*
X1674165Y1111281D02*
X1676134Y1113250D01*
X1674165Y1100283D02*
Y1111281D01*
X1584000Y1062000D02*
X1589000D01*
X1590600Y1063600D01*
X1625800Y1123500D02*
X1649800D01*
X1664323Y1108977D01*
Y1100283D02*
Y1108977D01*
X1613134Y1105307D02*
X1618100D01*
X1622212Y1109419D01*
Y1114092D01*
X1626781Y1118661D01*
X1651093D01*
X1662354Y1107400D01*
Y1100283D02*
Y1107400D01*
X1613134Y1103339D02*
X1618669D01*
X1628970Y1113640D01*
Y1116000D01*
X1629920Y1116950D01*
X1649650D01*
X1660386Y1106214D01*
Y1100283D02*
Y1106214D01*
X1613134Y1087591D02*
X1619491D01*
X1619600Y1087700D01*
X1650950Y1071250D02*
X1661600Y1081900D01*
Y1083837D01*
X1650543Y1094894D02*
X1661600Y1083837D01*
X1650543Y1094894D02*
Y1100283D01*
X1613134Y1083654D02*
X1616700D01*
Y1083400D02*
X1621920D01*
X1624435Y1085914D01*
X1628449D01*
X1629629Y1087094D01*
X1641291D01*
X1631327Y1071346D02*
X1641291D01*
X1630830Y1071843D02*
X1631327Y1071346D01*
X1613134Y1071843D02*
X1630830D01*
X1627872Y1065441D02*
X1641291D01*
X1626400Y1063969D02*
X1627872Y1065441D01*
X1613134Y1063969D02*
X1626400D01*
X1626389Y990638D02*
X1641291D01*
X1621153Y995874D02*
X1626389Y990638D01*
X1613134Y995874D02*
X1621153D01*
X1660386Y964000D02*
Y969575D01*
X1649693Y953307D02*
X1660386Y964000D01*
X1649693Y946134D02*
Y953307D01*
X1651662Y946134D02*
Y951707D01*
X1662354Y962400D01*
Y969575D01*
X1668260Y960496D02*
Y969575D01*
X1661504Y953740D02*
X1668260Y960496D01*
X1661504Y946134D02*
Y953740D01*
X1663473Y946134D02*
Y952181D01*
X1670228Y958936D01*
Y969575D01*
X1725662Y946134D02*
Y951174D01*
X1723621Y953215D02*
X1725662Y951174D01*
X1719786Y953215D02*
X1723621D01*
X1713536Y959465D02*
X1719786Y953215D01*
X1713536Y959465D02*
Y969575D01*
X1743378Y938922D02*
Y946134D01*
Y938922D02*
X1744100Y938200D01*
X1725400Y928700D02*
X1730100Y924000D01*
X1725400Y928700D02*
Y934600D01*
X1731252Y962548D02*
Y969575D01*
X1753221Y946134D02*
Y954379D01*
X1751300Y956300D02*
X1753221Y954379D01*
X1745032Y969575D02*
Y977166D01*
X1748969Y963300D02*
Y969575D01*
X1747369Y961700D02*
X1748969Y963300D01*
X1745825Y961700D02*
X1747369D01*
X1795900Y1038900D02*
X1800300D01*
X1791830Y1042970D02*
X1795900Y1038900D01*
X1791830Y1042970D02*
Y1049830D01*
X1792693Y1050693D01*
X1796866D01*
X1765032Y946134D02*
Y957737D01*
X1760780Y961989D02*
X1765032Y957737D01*
X1760780Y961989D02*
Y969575D01*
X1926882Y871800D02*
X1940800D01*
X1941502Y872502D01*
Y872602D01*
X1949600Y880700D02*
X1995100D01*
X1995882Y876000D01*
X1799200Y962000D02*
X1800000Y961200D01*
Y952600D02*
Y961200D01*
X1806930Y945670D02*
X1883087D01*
X1885587Y943170D01*
X1894525D01*
X1909555Y958200D01*
X1929600D01*
X1941502Y946298D01*
X1925882Y872800D02*
X1926882Y871800D01*
X1925882Y872800D02*
Y876000D01*
X1759600Y992606D02*
X1772000D01*
X1758206Y994000D02*
X1759600Y992606D01*
X1755200Y994000D02*
X1758206D01*
X1614700Y1174200D02*
X1631800D01*
X1576000Y1135500D02*
X1614700Y1174200D01*
X1557633Y1135500D02*
X1576000D01*
X1772000Y992606D02*
X1778200D01*
X1785695Y985111D01*
Y954305D02*
Y985111D01*
Y954305D02*
X1787942Y952058D01*
X1800000D01*
X1800271Y952329D01*
X1800000Y952600D02*
X1800271Y952329D01*
X1797244Y962000D02*
X1799200D01*
X1998441Y876000D02*
Y881390D01*
X1994831Y885000D02*
X1998441Y881390D01*
X1934000Y885000D02*
X1994831D01*
X1934000Y882900D02*
Y885000D01*
X1931200Y880100D02*
X1934000Y882900D01*
X1929200Y880100D02*
X1931200D01*
X1928441Y879341D02*
X1929200Y880100D01*
X1566500Y1115900D02*
X1584000Y1133400D01*
X1663500D01*
X1667900Y1137800D01*
X1742400Y992700D02*
X1746500Y996800D01*
X1761700D01*
X1763925Y994575D01*
X1772000D01*
X1778438D01*
X1787255Y985757D01*
Y962945D02*
Y985757D01*
X1795200Y955000D02*
X1797244D01*
X1436063Y815237D02*
Y821937D01*
Y815237D02*
X1441000Y810300D01*
X1600200Y963400D02*
Y1008961D01*
X1584000Y1009653D02*
X1600200Y1008961D01*
X1579664Y1087591D02*
X1584000D01*
X1577287Y1085214D02*
X1579664Y1087591D01*
X1528514Y1085214D02*
X1577287D01*
X1494200Y1050900D02*
X1528514Y1085214D01*
X1475716Y996441D02*
Y1004016D01*
X1459968Y993600D02*
Y996441D01*
X1458168Y991800D02*
X1459968Y993600D01*
X1443300Y991800D02*
X1458168D01*
X1444900Y1030496D02*
X1506376Y1091972D01*
X1526302D01*
X1527827Y1093496D01*
X1584000D01*
X1525102Y1099402D02*
X1584000D01*
X1522072Y1096372D02*
X1525102Y1099402D01*
X1438030Y1003370D02*
X1442450D01*
X1444220Y1001600D01*
Y996441D02*
Y1001600D01*
X1434771Y992571D02*
Y996441D01*
X1433130Y990930D02*
X1434771Y992571D01*
X1449400Y1076100D02*
X1480972D01*
X1504309Y1099437D01*
X1518037D01*
X1521939Y1103339D01*
X1584000D01*
X1514095Y825542D02*
Y833591D01*
X1508085Y819532D02*
X1514095Y825542D01*
X1475340Y819532D02*
X1508085D01*
X1472845Y822026D02*
X1475340Y819532D01*
X1451118Y822026D02*
X1472845D01*
X1448535Y824610D02*
X1451118Y822026D01*
X1442340Y824610D02*
X1448535D01*
X1441631Y825319D02*
X1442340Y824610D01*
X1435119Y825319D02*
X1441631D01*
X1434094Y824294D02*
X1435119Y825319D01*
X1434094Y821937D02*
Y824294D01*
X1577485Y1081685D02*
X1584000D01*
X1547000Y1051200D02*
X1577485Y1081685D01*
X1544235Y1051200D02*
X1547000D01*
X1434771Y942210D02*
Y947622D01*
X1434786Y809275D02*
X1436200D01*
X1430723Y813338D02*
X1434786Y809275D01*
X1430723Y813338D02*
Y817401D01*
X1432126Y818804D01*
Y821937D01*
Y824532D01*
X1434473Y826879D01*
X1442371D01*
X1443080Y826170D01*
X1449408D01*
X1450378Y825200D01*
X1472021D01*
X1476129Y821092D01*
X1502318D01*
X1507460Y826234D01*
X1510400D01*
X1512170Y828004D01*
Y832026D01*
X1512126Y832070D02*
X1512170Y832026D01*
X1512126Y832070D02*
Y833591D01*
X1588252Y1077748D02*
X1589500Y1076500D01*
X1509500Y829400D02*
X1510158Y830058D01*
X1584000Y1077748D02*
X1588252D01*
X1589500Y1076500D02*
X1595280D01*
X1447620Y940600D02*
X1451600D01*
X1444220Y944000D02*
X1447620Y940600D01*
X1444220Y944000D02*
Y947622D01*
X1430157Y821937D02*
Y825547D01*
X1433050Y828439D01*
X1443931D01*
X1444640Y827730D01*
X1450968D01*
X1451938Y826760D01*
X1473581D01*
X1477689Y822652D01*
X1501610D01*
X1450519Y947622D02*
Y954038D01*
X1451500Y955019D01*
X1538200Y1050900D02*
X1540600Y1048500D01*
X1546595D01*
X1573874Y1075780D01*
X1584000D01*
X1459968Y947622D02*
Y952868D01*
X1558700Y1056000D02*
X1574543Y1071843D01*
X1584000D01*
X1506221Y831200D02*
Y833591D01*
X1499233Y824212D02*
X1506221Y831200D01*
X1479249Y824212D02*
X1499233D01*
X1475141Y828320D02*
X1479249Y824212D01*
X1460080Y828320D02*
X1475141D01*
X1458400Y830000D02*
X1460080Y828320D01*
X1426220Y821937D02*
Y824071D01*
X1432150Y830000D01*
X1447300D02*
Y830400D01*
X1463100Y936070D02*
Y941368D01*
X1459968Y944500D02*
X1463100Y941368D01*
X1459968Y944500D02*
Y947622D01*
X1466267D02*
Y953428D01*
X1571100Y1063900D02*
X1577074Y1069874D01*
X1584000D01*
X1475716Y947622D02*
Y967716D01*
X1484900Y976900D01*
X1545400D01*
X1593270Y1050100D02*
Y1065000D01*
X1592000Y1066270D02*
X1593270Y1065000D01*
X1588263Y1066270D02*
X1592000D01*
X1587930Y1065937D02*
X1588263Y1066270D01*
X1584000Y1065937D02*
X1587930D01*
X1475716Y943600D02*
Y947622D01*
Y943600D02*
X1480900Y938416D01*
Y936000D02*
Y938416D01*
X1487600Y841100D02*
X1497615D01*
X1500315Y833591D02*
Y838400D01*
X1430303Y843533D02*
X1495182D01*
X1429200Y842430D02*
X1430303Y843533D01*
X1420315Y826715D02*
X1423100Y829500D01*
X1420315Y821937D02*
Y826715D01*
X1486897Y837130D02*
X1496200Y837900D01*
X1484527Y839500D02*
X1486897Y837130D01*
X1459124Y839500D02*
X1484527D01*
X1457754Y840870D02*
X1459124Y839500D01*
X1452783Y840870D02*
X1457754D01*
X1451680Y841973D02*
X1452783Y840870D01*
X1434473Y841973D02*
X1451680D01*
X1432000Y839500D02*
X1434473Y841973D01*
X1426200Y839500D02*
X1432000D01*
X1424900Y840800D02*
X1426200Y839500D01*
X1418346Y829746D02*
X1419100Y830500D01*
X1418346Y821937D02*
Y829746D01*
X1579300Y1063969D02*
X1584000D01*
X1579090Y1063758D02*
X1579300Y1063969D01*
X1579090Y1060200D02*
Y1063758D01*
Y1060200D02*
X1587000Y1052290D01*
Y1043200D02*
Y1052290D01*
X1585800Y1042000D02*
X1587000Y1043200D01*
X1581300Y1042000D02*
X1585800D01*
X1581300Y1037700D02*
Y1042000D01*
X1578000Y1034400D02*
X1581300Y1037700D01*
X1498347Y833591D02*
Y835753D01*
X1496200Y837900D02*
X1498347Y835753D01*
X1484615Y943000D02*
X1485315D01*
X1482015Y945600D02*
X1484615Y943000D01*
X1482015Y945600D02*
Y947622D01*
X1772000Y1047724D02*
X1787376D01*
X1787600Y1047500D01*
X1870800Y1071600D02*
X1877244D01*
Y1074000D01*
X1641291Y1061504D02*
X1653740D01*
X1641291Y1037882D02*
X1647034Y1037248D01*
X1654274Y1030008D01*
X1660600Y1127244D02*
X1676000D01*
X1668660Y1040530D02*
X1678930D01*
X1665460Y1037330D02*
X1668660Y1040530D01*
X1647116Y1037330D02*
X1665460D01*
X1646564Y1037882D02*
X1647116Y1037330D01*
X1641291Y1037882D02*
X1646564D01*
X1815126Y855177D02*
Y859906D01*
Y855177D02*
X1815629Y854675D01*
Y840303D02*
Y854675D01*
X1584000Y989968D02*
X1588133D01*
X1592501Y985600D01*
Y979201D02*
Y985600D01*
X1587500Y974200D02*
X1592501Y979201D01*
X1860100Y859000D02*
X1864700Y854400D01*
X1821300Y859000D02*
X1860100D01*
X1816700Y854400D02*
X1821300Y859000D01*
X1816700Y841374D02*
Y854400D01*
X1815126Y826441D02*
Y839800D01*
X1723693Y862007D02*
Y917000D01*
Y862007D02*
X1768340Y817360D01*
X1808070D01*
X1808097Y817387D01*
Y822577D01*
X1809220Y823700D01*
Y826441D01*
X1725662Y863369D02*
Y917000D01*
Y863369D02*
X1770110Y818920D01*
X1805600D01*
X1806537Y819857D01*
Y823243D01*
X1807252Y823958D01*
Y826441D01*
X1729599Y862241D02*
Y917000D01*
Y862241D02*
X1771360Y820480D01*
X1804466D01*
X1804875Y822289D01*
X1805000Y825117D01*
X1805283Y826441D01*
X1731567Y867700D02*
Y917000D01*
Y867700D02*
X1747970Y851297D01*
Y847290D02*
Y851297D01*
Y847290D02*
X1773220Y822040D01*
X1802900D01*
X1803315Y826441D01*
X1735504Y870400D02*
Y917000D01*
Y870400D02*
X1749530Y856374D01*
Y848192D02*
Y856374D01*
Y848192D02*
X1774122Y823600D01*
X1801346D01*
Y826441D01*
X1737473Y878327D02*
Y917000D01*
Y878327D02*
X1738700Y877100D01*
X1743800Y872000D02*
X1775400Y840400D01*
X1783600D01*
X1799378Y831078D02*
X1802300Y834000D01*
X1799378Y826441D02*
Y831078D01*
X1795441Y826441D02*
Y827626D01*
X1753800Y850155D02*
X1776329Y827626D01*
X1743378Y900100D02*
Y917000D01*
X1757158Y892302D02*
Y917000D01*
Y892302D02*
X1782600Y866860D01*
X1800746D01*
X1803315Y864291D01*
Y859906D02*
Y864291D01*
X1753221Y885779D02*
Y917000D01*
Y885779D02*
X1773700Y865300D01*
X1798964D01*
X1801346Y862917D01*
Y859906D02*
Y862917D01*
X1799378Y857478D02*
Y859906D01*
X1797900Y856000D02*
X1799378Y857478D01*
X1751252Y921852D02*
X1757200Y927800D01*
X1751252Y917000D02*
Y921852D01*
X1747315Y917000D02*
Y921730D01*
X1749500Y923915D01*
X1761700Y865900D02*
X1764593D01*
X1767793Y862700D01*
X1797100D01*
X1797409Y859906D01*
X1795441D02*
Y860200D01*
X1766233Y861710D02*
X1767743Y860200D01*
X1759990Y861710D02*
X1766233D01*
X1751300Y870400D02*
X1759990Y861710D01*
X1751300Y870400D02*
Y902400D01*
X1745347Y908353D02*
X1751300Y902400D01*
X1745347Y908353D02*
Y917000D01*
X1685126Y885449D02*
Y917000D01*
X1617377Y817700D02*
X1685126Y885449D01*
X1558200Y817700D02*
X1617377D01*
X1434094Y772894D02*
X1435000Y773800D01*
X1434094Y768000D02*
Y772894D01*
X1509899Y770370D02*
X1514095Y766174D01*
X1505270Y770370D02*
X1509899D01*
X1499159Y764259D02*
X1505270Y770370D01*
X1485592Y764259D02*
X1499159D01*
X1483075Y761741D02*
X1485592Y764259D01*
X1435097Y761741D02*
X1483075D01*
X1434094Y762744D02*
X1435097Y761741D01*
X1434094Y762744D02*
Y768000D01*
X1683158Y887241D02*
Y917000D01*
X1619217Y823300D02*
X1683158Y887241D01*
X1605200Y823300D02*
X1619217D01*
X1498347Y753453D02*
X1499600Y752200D01*
X1520000Y758000D02*
Y763772D01*
X1522470Y766400D01*
Y771770D01*
X1519140Y775100D02*
X1522470Y771770D01*
X1444600Y775100D02*
X1519140D01*
X1440000Y770500D02*
X1444600Y775100D01*
X1440000Y768000D02*
Y770500D01*
X1518032Y830968D02*
Y833591D01*
Y826943D02*
Y830968D01*
X1509061Y817972D02*
X1518032Y826943D01*
X1473009Y817972D02*
X1509061D01*
X1472099Y818882D02*
X1473009Y817972D01*
X1469145Y818882D02*
X1472099D01*
X1469026Y819000D02*
X1469145Y818882D01*
X1442800Y819000D02*
X1469026D01*
X1442500Y818700D02*
X1442800Y819000D01*
X1439200Y818700D02*
X1442500D01*
X1438031Y819869D02*
X1439200Y818700D01*
X1438031Y819869D02*
Y821937D01*
X1677252Y908372D02*
Y917000D01*
X1673600Y904720D02*
X1677252Y908372D01*
X1570820Y904720D02*
X1673600D01*
X1545500Y879400D02*
X1570820Y904720D01*
X1520000Y829000D02*
X1521300D01*
X1518032Y830968D02*
X1520000Y829000D01*
X1518032Y754732D02*
X1522700Y754700D01*
X1595200Y831700D02*
X1616300Y852800D01*
X1634400D01*
X1673300Y924600D02*
X1673315Y924585D01*
Y917000D02*
Y924585D01*
X1671347Y912747D02*
Y917000D01*
X1669500Y910900D02*
X1671347Y912747D01*
X1621900Y816000D02*
X1669500Y863600D01*
X1566700Y816000D02*
X1621900D01*
X1564200Y813500D02*
X1566700Y816000D01*
X1516063Y765363D02*
X1519800Y769100D01*
X1412724Y938006D02*
Y947622D01*
Y938006D02*
X1415200Y935530D01*
X1433130D01*
X1434800Y937200D01*
X1436063Y770400D02*
X1440984Y775321D01*
X1436063Y768000D02*
Y770400D01*
X1669378Y917000D02*
Y925522D01*
X1663000Y931900D02*
X1669378Y925522D01*
X1549100Y931900D02*
X1663000D01*
X1534500Y917300D02*
X1549100Y931900D01*
X1472300Y917300D02*
X1534500D01*
X1468800Y913800D02*
X1472300Y917300D01*
X1393500Y913800D02*
X1468800D01*
X1393300Y914000D02*
X1393500Y913800D01*
X1409574Y947622D02*
Y950400D01*
X1416378Y768000D02*
Y773746D01*
X1411954Y778170D02*
X1416378Y773746D01*
X1393600Y768800D02*
X1393777Y768623D01*
X1403800Y951900D02*
X1408074D01*
X1409574Y950400D01*
X1496378Y751495D02*
Y758000D01*
X1495970Y751086D02*
X1496378Y751495D01*
X1489545Y751086D02*
X1495970D01*
X1485859Y747400D02*
X1489545Y751086D01*
X1400440Y747400D02*
X1485859D01*
X1392828Y755012D02*
X1400440Y747400D01*
X1392828Y755012D02*
Y767674D01*
X1403324Y778170D02*
X1411954D01*
X1414409Y768000D02*
Y771191D01*
X1410100Y775500D02*
X1414409Y771191D01*
X1408500Y775500D02*
X1410100D01*
X1406425Y938275D02*
X1407700Y937000D01*
X1406425Y938275D02*
Y947622D01*
X1407700Y889400D02*
X1518000D01*
X1557000Y928400D02*
X1557450Y928850D01*
X1662560D01*
X1667410Y924000D01*
Y917000D02*
Y924000D01*
X1452400Y754800D02*
X1478322D01*
X1481560Y751561D01*
X1486900D01*
X1487985Y752646D01*
X1491200D01*
X1494410Y755856D01*
Y758000D01*
X1403275Y944875D02*
Y947622D01*
X1391400Y882700D02*
X1524600D01*
X1548600Y906700D01*
X1662500D01*
X1663800Y908000D01*
Y910500D01*
X1663473Y910827D02*
X1663800Y910500D01*
X1663473Y910827D02*
Y917000D01*
X1409754Y772687D02*
X1412441Y770000D01*
X1403745Y772687D02*
X1409754D01*
X1395500Y765000D02*
X1395779Y764721D01*
X1402400Y944000D02*
X1403275Y944875D01*
X1661504Y917000D02*
Y920800D01*
X1659404Y922900D02*
X1661504Y920800D01*
X1656700Y922900D02*
X1659404D01*
X1635400Y868400D02*
X1656700Y889700D01*
X1551900Y868400D02*
X1635400D01*
X1540300Y880000D02*
X1551900Y868400D01*
X1488800Y880000D02*
X1540300D01*
X1460200Y851400D02*
X1488800Y880000D01*
X1401000Y851400D02*
X1460200D01*
X1410472Y768000D02*
Y769500D01*
X1407900Y768000D02*
Y769500D01*
X1484300Y754300D02*
X1489600D01*
X1400125Y988400D02*
Y996441D01*
X1383200Y864672D02*
X1388700D01*
Y859524D02*
X1410472Y837752D01*
X1655599Y912400D02*
Y917000D01*
X1653728Y910530D02*
X1655599Y912400D01*
X1474130Y910530D02*
X1653728D01*
X1471600Y908000D02*
X1474130Y910530D01*
X1378400Y908000D02*
X1471600D01*
X1403275Y996441D02*
Y1002675D01*
X1403300Y1002700D01*
X1381600Y845898D02*
X1408700Y818798D01*
X1412441D01*
Y821937D01*
Y835476D01*
X1413314Y836349D01*
X1434476D01*
X1436980Y838853D01*
X1447457D01*
X1448560Y837750D01*
X1454634D01*
X1456035Y836349D01*
X1474291D01*
X1474631Y836010D01*
X1479702D01*
X1485260Y830452D01*
X1492441D01*
Y833591D01*
X1649693Y917000D02*
Y921107D01*
X1648800Y922000D02*
X1649693Y921107D01*
X1645000Y922000D02*
X1648800D01*
X1643000Y920000D02*
X1645000Y922000D01*
X1541800Y920000D02*
X1643000D01*
X1536845Y915045D02*
X1541800Y920000D01*
X1472405Y915045D02*
X1536845D01*
X1468668Y911308D02*
X1472405Y915045D01*
X1390628Y911308D02*
X1468668D01*
X1388136Y913800D02*
X1390628Y911308D01*
X1377900Y913800D02*
X1388136D01*
X1375900Y915800D02*
X1377900Y913800D01*
X1416378Y816556D02*
Y821937D01*
X1415500Y815678D02*
X1416378Y816556D01*
X1376422Y815678D02*
X1415500D01*
X1372300Y819800D02*
X1376422Y815678D01*
X1544800Y1013500D02*
X1545546Y1012754D01*
X1576740D01*
X1577577Y1013590D01*
X1584000D01*
X1360409Y1111591D02*
X1365094D01*
X1359100Y1112900D02*
X1360409Y1111591D01*
X1349300Y1112900D02*
X1359100D01*
X1333800Y1097400D02*
X1349300Y1112900D01*
X1333800Y1035200D02*
Y1097400D01*
Y1035200D02*
X1337600Y1031400D01*
X1361600D01*
X1369400Y1039200D01*
X1423194D01*
X1427800Y1043806D01*
Y1047200D01*
X1426700Y1048300D02*
X1427800Y1047200D01*
X1424500Y1048300D02*
X1426700D01*
X1423600Y1049200D02*
X1424500Y1048300D01*
X1416900Y938200D02*
X1429800D01*
X1431622Y940022D01*
Y947622D01*
X1437921D02*
Y953621D01*
X1438000Y953700D01*
X1444972Y1047900D02*
X1446100D01*
X1426158Y1066715D02*
X1444972Y1047900D01*
X1426158Y1066715D02*
Y1069650D01*
X1424760Y1071048D02*
X1426158Y1069650D01*
X1393892Y1071048D02*
X1424760D01*
X1370380Y1094560D02*
X1393892Y1071048D01*
X1370380Y1094560D02*
Y1112780D01*
X1369600Y1113559D02*
X1370380Y1112780D01*
X1365094Y1113559D02*
X1369600D01*
X1365094Y1117496D02*
X1370015D01*
X1372230Y1115282D01*
Y1096800D02*
Y1115282D01*
Y1096800D02*
X1373200Y1095830D01*
X1378447D01*
X1401670Y1072608D01*
X1426671D01*
X1427718Y1071561D01*
Y1069782D02*
Y1071561D01*
Y1069782D02*
X1433800Y1063700D01*
X1446100Y951600D02*
X1447370Y950330D01*
Y947622D02*
Y950330D01*
X1453669Y947622D02*
Y950931D01*
X1453200Y951400D02*
X1453669Y950931D01*
X1443300Y1044800D02*
X1455410D01*
X1424598Y1063502D02*
X1443300Y1044800D01*
X1424598Y1063502D02*
Y1068917D01*
X1378412Y1069488D02*
X1424598Y1068917D01*
X1358400Y1089500D02*
X1378412Y1069488D01*
X1358400Y1118500D02*
X1359365Y1119465D01*
X1365094D01*
Y1123402D02*
X1373298D01*
X1374900Y1121800D01*
Y1102668D02*
X1403400Y1074168D01*
X1428232D01*
X1449400Y1053000D01*
X1444500Y955200D02*
X1446989Y957689D01*
X1459200D01*
X1463118Y953772D01*
Y947622D02*
Y953772D01*
X1352900Y1125370D02*
X1365094D01*
X1353900Y924268D02*
X1381642D01*
X1383410Y922499D01*
X1472199D01*
X1473100Y923400D01*
X1469417Y944183D02*
X1474800Y938800D01*
X1469417Y944183D02*
Y947622D01*
X1478866Y944634D02*
Y947622D01*
Y944634D02*
X1481500Y942000D01*
X1465190Y916710D02*
X1465400Y916500D01*
X1380760Y916710D02*
X1465190D01*
X1379000Y918470D02*
X1380760Y916710D01*
X1372200Y918470D02*
X1379000D01*
X1369130Y915400D02*
X1372200Y918470D01*
X1367800Y915400D02*
X1369130D01*
X1372193Y1129307D02*
X1373200Y1128300D01*
X1365094Y1129307D02*
X1372193D01*
X1365094Y1131276D02*
X1371876D01*
X1373200Y1132600D01*
X1383400Y903200D02*
X1488000D01*
X1485165Y951565D02*
X1485200Y951600D01*
X1485165Y947622D02*
Y951565D01*
X1431622Y994222D02*
Y996441D01*
X1428800Y991400D02*
X1431622Y994222D01*
X1417000Y991400D02*
X1428800D01*
X1374070Y1137870D02*
X1377900D01*
X1369444Y1133244D02*
X1374070Y1137870D01*
X1365094Y1133244D02*
X1369444D01*
X1356687Y1135213D02*
X1365094D01*
X1355700Y1136200D02*
X1356687Y1135213D01*
X1356300Y1052900D02*
X1425300D01*
X1441000Y1037200D01*
Y1000679D02*
Y1000700D01*
X1437921Y997600D02*
X1441000Y1000679D01*
X1437921Y996441D02*
Y997600D01*
X1365094Y1145055D02*
X1371845D01*
X1372200Y1144700D01*
X1370500Y1059100D02*
X1426400D01*
X1444800Y1040700D01*
Y1036470D02*
Y1040700D01*
X1442230Y1033900D02*
X1444800Y1036470D01*
X1442230Y1028796D02*
Y1033900D01*
Y1028796D02*
X1443200Y1027826D01*
X1455726D01*
X1465500Y1037600D01*
X1463118Y1001500D02*
X1465500Y1003882D01*
X1463118Y996441D02*
Y1001500D01*
X1365094Y1147024D02*
X1370660D01*
X1373333Y1149697D01*
Y1161833D01*
X1379600Y1168100D01*
X1434500D01*
X1472900Y1129700D01*
Y1097600D02*
Y1129700D01*
Y1097600D02*
X1477400Y1093100D01*
X1486900D01*
X1482123Y1008028D02*
X1485051Y1005100D01*
X1475845Y1008028D02*
X1482123D01*
X1469417Y1001600D02*
X1475845Y1008028D01*
X1469417Y996441D02*
Y1001600D01*
X1365094Y1150961D02*
X1370100D01*
X1370539Y1151400D01*
X1371700D01*
Y1166500D01*
X1375700Y1170500D01*
X1523600D01*
X1539100Y1155000D01*
X1533800Y1067700D02*
X1544000Y1077900D01*
X1523400Y1067700D02*
X1533800D01*
X1508600Y1052900D02*
X1523400Y1067700D01*
X1478866Y1004466D02*
X1479700Y1005300D01*
X1478866Y996441D02*
Y1004466D01*
X1365094Y1152929D02*
X1370100D01*
Y1168000D01*
X1375400Y1173300D01*
X1539200D01*
X1574300Y1138200D01*
X1524500Y1021200D02*
X1558200D01*
X1496600Y993300D02*
X1524500Y1021200D01*
X1486265Y993300D02*
X1496600D01*
X1485165Y996441D02*
X1486265Y993300D01*
X1579800Y1011622D02*
X1584000D01*
X1577878Y1009700D02*
X1579800Y1011622D01*
X1544800Y1009700D02*
X1577878D01*
X1932900Y946400D02*
X1936900D01*
X1929900Y949400D02*
X1932900Y946400D01*
X1906200Y949400D02*
X1929900D01*
X1901100Y944300D02*
X1906200Y949400D01*
X1879705Y938205D02*
X1909705D01*
X1918200Y946700D01*
X1836001Y836000D02*
X1847244D01*
X1834131Y834130D02*
X1836001Y836000D01*
X1828800Y834130D02*
X1834131D01*
X1826646Y836284D02*
X1828800Y834130D01*
X1823000Y836284D02*
X1826646D01*
X1754700Y1167000D02*
X1811000D01*
X1740500Y1152800D02*
X1754700Y1167000D01*
X1728200Y1119700D02*
X1740500Y1132000D01*
X1764800Y1033945D02*
X1772000D01*
X1432126Y768000D02*
Y776326D01*
X1432300Y776500D01*
X1541500Y806300D02*
X1562996D01*
X1569196Y812500D01*
X1621051D01*
X1655090Y846540D01*
X1659173D01*
X1696800Y884167D01*
Y904130D01*
X1689063Y911867D02*
X1696800Y904130D01*
X1689063Y911867D02*
Y917000D01*
X1741410Y912100D02*
Y917000D01*
X1740700Y911390D02*
X1741410Y912100D01*
X1740700Y880471D02*
Y911390D01*
Y880471D02*
X1741370Y879801D01*
Y875131D02*
Y879801D01*
X1740700Y874461D02*
X1741370Y875131D01*
X1740700Y870400D02*
Y874461D01*
Y870400D02*
X1781400Y829700D01*
X1796000D01*
X1797409Y828291D01*
Y826441D02*
Y828291D01*
X1528644Y1097433D02*
X1584000D01*
X1524742Y1093532D02*
X1528644Y1097433D01*
X1500615Y1093532D02*
X1524742D01*
X1456253Y1049170D02*
X1500615Y1093532D01*
X1452700Y1049170D02*
X1456253D01*
X1450519Y1003219D02*
X1452700Y1005400D01*
X1450519Y996441D02*
Y1003219D01*
X1671347Y946134D02*
Y952363D01*
X1676134Y957151D01*
Y969575D01*
X1672197Y957787D02*
Y969575D01*
X1667410Y953000D02*
X1672197Y957787D01*
X1667410Y946134D02*
Y953000D01*
X1664323Y961349D02*
Y969575D01*
X1655599Y952625D02*
X1664323Y961349D01*
X1655599Y946134D02*
Y952625D01*
X1631290Y1079220D02*
X1641291D01*
X1629817Y1077748D02*
X1631290Y1079220D01*
X1613134Y1077748D02*
X1629817D01*
X1613134Y1093496D02*
X1622800D01*
X1652524Y1067462D02*
X1664129Y1079067D01*
Y1085552D01*
X1654480Y1095200D02*
X1664129Y1085552D01*
X1654480Y1095200D02*
Y1100283D01*
X1360000Y1252756D02*
Y1261600D01*
X1355800Y1265800D02*
X1360000Y1261600D01*
X1355800Y1265800D02*
Y1279200D01*
X1356600Y1280000D01*
X1360000D01*
X1635876Y1047724D02*
X1641291D01*
X1634000Y1049600D02*
X1635876Y1047724D01*
X1634000Y1049600D02*
Y1057600D01*
X1571600Y1205400D02*
X1614800D01*
X1621400Y1212000D01*
Y1275000D01*
X1620100Y1276300D02*
X1621400Y1275000D01*
X1416300Y1276300D02*
X1620100D01*
X1407600Y1285000D02*
X1416300Y1276300D01*
X1385000Y1285000D02*
X1407600D01*
X1380000Y1280000D02*
X1385000Y1285000D01*
X1611756Y1108653D02*
Y1113000D01*
Y1108653D02*
X1613134Y1107276D01*
X1292000Y1182821D02*
Y1184756D01*
X1293563Y1182821D02*
X1295584Y1180800D01*
Y1168800D02*
Y1180800D01*
X1294772Y1167989D02*
X1295584Y1168800D01*
X1289058Y1167989D02*
X1294772D01*
X1289058Y1162400D02*
Y1167989D01*
Y1162400D02*
X1289858Y1161600D01*
X1299860D01*
X1303060Y1164800D01*
Y1185201D01*
X1299200Y1189061D02*
X1303060Y1185201D01*
X1285939Y1189061D02*
X1299200D01*
X1280000Y1195000D02*
X1285939Y1189061D01*
X1725307Y1150300D02*
Y1155000D01*
Y1150300D02*
X1725517Y1150090D01*
X1729600D01*
X1730510Y1151000D01*
X1736000D01*
Y1178800D01*
X1718830Y1195970D02*
X1736000Y1178800D01*
X1718830Y1195970D02*
Y1271170D01*
X1710000Y1280000D02*
X1718830Y1271170D01*
X1394228Y1119465D02*
X1399599D01*
X1406212Y1112851D01*
Y1090858D02*
Y1112851D01*
Y1090858D02*
X1411200Y1085870D01*
X1423930D01*
X1426300Y1083500D01*
X1403693Y1129307D02*
X1403700Y1129300D01*
X1394228Y1129307D02*
X1403693D01*
X1772000Y1071346D02*
X1777846D01*
X1780200Y1073700D01*
X1816000Y1121100D02*
X1817000Y1122100D01*
X1841722D01*
X1852022Y1132400D01*
X1867200D01*
X1868170Y1131430D01*
Y1125970D02*
Y1131430D01*
X1867200Y1125000D02*
X1868170Y1125970D01*
X1863000Y1125000D02*
X1867200D01*
X1754874Y1100283D02*
Y1109874D01*
X1755600Y1110600D01*
X1786530Y1096330D02*
X1787700Y1097500D01*
X1786530Y1091230D02*
Y1096330D01*
Y1091230D02*
X1788780Y1088980D01*
Y1083826D02*
Y1088980D01*
Y1083826D02*
X1790200Y1082406D01*
Y1078774D02*
Y1082406D01*
Y1078774D02*
X1790722Y1078252D01*
X1796866D01*
X1756843Y1100283D02*
Y1106727D01*
X1759316Y1109200D01*
X1791200Y1074600D02*
X1791485Y1074315D01*
X1796866D01*
X1705662Y969575D02*
Y975200D01*
X1706862Y976400D01*
X1709500D01*
X1705100Y1107500D02*
X1705662Y1106938D01*
Y1100283D02*
Y1106938D01*
X1710000Y1240000D02*
X1717270Y1232730D01*
Y1168410D02*
Y1232730D01*
X1713496Y1164636D02*
X1717270Y1168410D01*
X1713496Y1155000D02*
Y1164636D01*
X1641291Y1049693D02*
X1647500D01*
X1651193Y1046000D01*
X1656900D01*
X1672000Y1061100D01*
X1689800D01*
X1418100Y1235400D02*
X1618700D01*
X1411200Y1242300D02*
X1418100Y1235400D01*
X1411200Y1242300D02*
Y1249556D01*
X1408000Y1252756D02*
X1411200Y1249556D01*
X1400000Y1252756D02*
X1408000D01*
X1772000Y1077252D02*
X1781714D01*
X1782900Y1076066D01*
Y1069873D02*
Y1076066D01*
Y1069873D02*
X1790269Y1062504D01*
X1796866D01*
X1772000Y1031976D02*
X1778824D01*
X1779300Y1031500D01*
X1872600Y1140000D02*
X1885000D01*
X1777791Y1067409D02*
X1779300Y1065900D01*
X1772000Y1067409D02*
X1777791D01*
X1772000Y1049693D02*
X1778176D01*
X1779413Y1050930D01*
X1788940D01*
X1790270Y1049600D01*
Y1039430D02*
Y1049600D01*
Y1039430D02*
X1794580Y1035120D01*
X1839003D01*
X1841753Y1037870D01*
X1861570D01*
X1863700Y1040000D01*
Y1049000D01*
X1851320Y1061380D02*
X1863700Y1049000D01*
X1851320Y1061380D02*
Y1129420D01*
X1851900Y1130000D01*
X1863000D01*
X1630000Y1270000D02*
X1638600Y1261400D01*
Y1245543D02*
Y1261400D01*
Y1245543D02*
X1701685Y1182458D01*
Y1155000D02*
Y1182458D01*
X1747000Y1100283D02*
Y1122400D01*
X1748900Y1124300D01*
X1793340D01*
X1811058Y1106582D01*
Y1099042D02*
Y1106582D01*
Y1099042D02*
X1815700Y1094400D01*
Y1091900D02*
Y1094400D01*
X1814400Y1090600D02*
X1815700Y1091900D01*
X1807137Y1090600D02*
X1814400D01*
X1806600Y1090063D02*
X1807137Y1090600D01*
X1796866Y1090063D02*
X1806600D01*
X1711527Y1155000D02*
Y1165287D01*
X1715710Y1169470D01*
Y1224290D01*
X1710000Y1230000D02*
X1715710Y1224290D01*
X1707590Y1155000D02*
Y1163641D01*
X1714150Y1170201D01*
Y1215850D01*
X1710000Y1220000D02*
X1714150Y1215850D01*
X1713496Y1117744D02*
Y1125866D01*
Y1117744D02*
X1716310Y1114930D01*
Y1111362D02*
Y1114930D01*
Y1111362D02*
X1721410Y1106262D01*
Y1100283D02*
Y1106262D01*
X1717433Y1116888D02*
Y1125866D01*
Y1116888D02*
X1717870Y1116451D01*
Y1114805D02*
Y1116451D01*
Y1114805D02*
X1723378Y1109297D01*
Y1100283D02*
Y1109297D01*
X1719401Y1117839D02*
Y1125866D01*
Y1117839D02*
X1719430Y1117810D01*
Y1115795D02*
Y1117810D01*
Y1115795D02*
X1727315Y1107910D01*
Y1100283D02*
Y1107910D01*
X1703653Y1118093D02*
Y1125866D01*
X1699756Y1114196D02*
X1703653Y1118093D01*
X1699756Y1100283D02*
Y1114196D01*
X1701685Y1118906D02*
Y1125866D01*
X1696949Y1114171D02*
X1701685Y1118906D01*
X1695171Y1114171D02*
X1696949D01*
X1691882Y1110882D02*
X1695171Y1114171D01*
X1691882Y1100283D02*
Y1110882D01*
X1826000Y1017063D02*
X1831343D01*
X1840624Y1026344D01*
X1862998D01*
X1871884Y1035230D01*
X1881772D01*
X1908442Y1061900D01*
X2021900D01*
X1869730Y1037900D02*
X1879400D01*
X1865640Y1033810D02*
X1869730Y1037900D01*
X1856121Y1033810D02*
X1865640D01*
X1852041Y1029730D02*
X1856121Y1033810D01*
X1844130Y1029730D02*
X1852041D01*
X1843160Y1030700D02*
X1844130Y1029730D01*
X1817400Y1030700D02*
X1843160D01*
X1817400Y1049900D02*
X1820161Y1052661D01*
X1826000D01*
X1927541Y880100D02*
X1928441Y879200D01*
X1922000Y880100D02*
X1927541D01*
X1920300Y878400D02*
X1922000Y880100D01*
X1920300Y865500D02*
Y878400D01*
X1917100Y862300D02*
X1920300Y865500D01*
X1848000Y862300D02*
X1917100D01*
X1819000Y891300D02*
X1848000Y862300D01*
X1800000Y972000D02*
X1812400D01*
X1800000Y966000D02*
Y972000D01*
X1795200Y966000D02*
X1800000D01*
X1794400Y965200D02*
X1795200Y966000D01*
X1794400Y955800D02*
Y965200D01*
Y955800D02*
X1795200Y955000D01*
X1953600Y941600D02*
X2014900D01*
X1935300Y959900D02*
X1953600Y941600D01*
X1907500Y959900D02*
X1935300D01*
X1892330Y944730D02*
X1907500Y959900D01*
X1886900Y944730D02*
X1892330D01*
X1884330Y947300D02*
X1886900Y944730D01*
X1820600Y947300D02*
X1884330D01*
X1814490Y953410D02*
X1820600Y947300D01*
X1809300Y1045700D02*
Y1053918D01*
X1816252Y1060870D01*
X1820000D01*
X1820870Y1060000D01*
Y1058567D02*
Y1060000D01*
Y1058567D02*
X1826000D01*
X1872000Y1058000D02*
X1877244D01*
X1870000Y1060000D02*
X1872000Y1058000D01*
X1870000Y1060000D02*
Y1063000D01*
X1873300Y1066300D01*
X1842205Y1032400D02*
X1850000D01*
X1841105Y1033500D02*
X1842205Y1032400D01*
X1791997Y1033500D02*
X1841105D01*
X1791694Y1033198D02*
X1791997Y1033500D01*
X1786354Y1033198D02*
X1791694D01*
X1783639Y1035913D02*
X1786354Y1033198D01*
X1772000Y1035913D02*
X1783639D01*
X1861327Y1083000D02*
X1877244D01*
X1858600Y1080273D02*
X1861327Y1083000D01*
X1784156Y1062400D02*
X1787378Y1059178D01*
X1777996Y1062400D02*
X1784156D01*
X1777100Y1061504D02*
X1777996Y1062400D01*
X1772000Y1061504D02*
X1777100D01*
X1814000Y1101244D02*
Y1103000D01*
X1817100D02*
X1818100Y1104000D01*
X1830759D01*
X1835574Y1108815D01*
X1840099D01*
X1841000Y1107914D01*
Y1084000D02*
Y1107914D01*
X1829300Y1084157D02*
X1829457Y1084000D01*
X1826000Y1084157D02*
X1829300D01*
X1826000Y1074315D02*
X1830285D01*
X1831000Y1073600D01*
X1833900D01*
X1836200Y1075900D01*
X1836900Y797700D02*
X1846500Y807300D01*
X1842700Y1048300D02*
X1842900Y1048500D01*
Y1074311D01*
X1841011Y1076200D02*
X1842900Y1074311D01*
X1841011Y1076200D02*
Y1083200D01*
X1840211Y1084000D02*
X1841011Y1083200D01*
X1829557Y1084000D02*
X1840211D01*
X1829400Y1084157D02*
X1829557Y1084000D01*
X1832646Y1086126D02*
X1833520Y1087000D01*
X1826000Y1086126D02*
X1832646D01*
X1584000Y1003748D02*
X1592107D01*
X1594061Y1001794D01*
Y975120D02*
Y1001794D01*
X1577839Y958897D02*
X1594061Y975120D01*
X1496761Y958897D02*
X1577839D01*
X1491464Y953600D02*
X1496761Y958897D01*
X1491464Y947622D02*
Y953600D01*
X1679221Y905312D02*
Y917000D01*
X1676702Y902793D02*
X1679221Y905312D01*
X1610793Y902793D02*
X1676702D01*
X1581200Y873200D02*
X1610793Y902793D01*
X1508189Y833591D02*
Y836000D01*
X1510130Y837941D01*
Y839400D01*
X1511200Y840470D01*
X1524330D01*
X1529000Y835800D01*
Y819200D02*
Y835800D01*
X1521774Y811974D02*
X1529000Y819200D01*
X1446514Y811974D02*
X1521774D01*
X1428189Y811271D02*
X1435130Y804330D01*
X1428189Y811271D02*
Y821937D01*
X1440172Y804330D02*
X1444972Y809130D01*
X1455500Y935000D02*
Y940619D01*
X1450519Y945600D02*
X1455500Y940619D01*
X1450519Y945600D02*
Y947622D01*
X1428472D02*
Y951400D01*
X1432100Y955028D01*
X1530949Y1063000D02*
X1555100D01*
X1575754Y1083654D01*
X1584000D01*
Y1085622D02*
X1593300D01*
X1505400Y983200D02*
X1516275Y994075D01*
X1487615Y983200D02*
X1505400D01*
X1482015Y988800D02*
X1487615Y983200D01*
X1482015Y988800D02*
Y996441D01*
X1641291Y1022134D02*
X1648534D01*
X1772000Y996543D02*
X1780357D01*
X1781491Y995409D01*
X1796866D01*
X1743063Y959570D02*
Y969575D01*
Y959570D02*
X1744036Y958596D01*
X1747633D01*
X1748630Y957600D01*
Y953532D02*
Y957600D01*
Y953532D02*
X1751252Y950910D01*
Y946134D02*
Y950910D01*
X1735189Y969575D02*
Y976659D01*
X1737400Y978870D01*
X1743800Y953447D02*
X1745347Y951900D01*
Y946134D02*
Y951900D01*
X1689063Y946134D02*
Y950363D01*
X1699756Y961056D01*
Y969575D01*
X1666291Y961090D02*
Y969575D01*
X1657567Y952366D02*
X1666291Y961090D01*
X1657567Y946134D02*
Y952366D01*
X2016900Y979100D02*
X2042700Y953300D01*
X1874700Y979100D02*
X2016900D01*
X1852200Y956600D02*
X1874700Y979100D01*
X1822800Y956600D02*
X1852200D01*
X1837800Y1062000D02*
Y1066178D01*
X1833600Y1070378D02*
X1837800Y1066178D01*
X1826000Y1070378D02*
X1833600D01*
X1494614Y931614D02*
Y947622D01*
X1491000Y928000D02*
X1494614Y931614D01*
X1479050Y928000D02*
X1491000D01*
X1477700Y929350D02*
X1479050Y928000D01*
X1467150Y929350D02*
X1477700D01*
X1465800Y928000D02*
X1467150Y929350D01*
X1405419Y928000D02*
X1465800D01*
X1691032Y912258D02*
Y917000D01*
Y912258D02*
X1701600Y901690D01*
Y867700D02*
Y901690D01*
X1677900Y844000D02*
X1701600Y867700D01*
X1655846Y844000D02*
X1677900D01*
X1620446Y808600D02*
X1655846Y844000D01*
X1602500Y808600D02*
X1620446D01*
X1508189Y758000D02*
Y767011D01*
X1796866Y1092031D02*
X1802057D01*
X1806100Y1096074D01*
Y1103200D01*
X1744732Y1093300D02*
X1745032Y1093600D01*
Y1100283D01*
X1750937D02*
Y1105340D01*
X1750833Y1105444D02*
X1750937Y1105340D01*
X1750833Y1105444D02*
Y1117800D01*
X1752000Y1118967D01*
X1756367D01*
X1802157Y1084157D02*
X1803200Y1085200D01*
X1796866Y1084157D02*
X1802157D01*
X1752906Y1100283D02*
Y1115506D01*
X1753600Y1116200D01*
X1789200Y1093900D02*
X1790340Y1092760D01*
Y1084600D02*
Y1092760D01*
Y1084600D02*
X1791900Y1083040D01*
Y1081120D02*
Y1083040D01*
Y1081120D02*
X1792800Y1080220D01*
X1796866D01*
X1792800Y1086126D02*
X1796866D01*
X1791900Y1087026D02*
X1792800Y1086126D01*
X1791900Y1087026D02*
Y1096100D01*
X1794000Y1098200D01*
Y1107600D01*
X1792000Y1109600D02*
X1794000Y1107600D01*
X1771100Y1109600D02*
X1792000D01*
X1759000Y1121700D02*
X1771100Y1109600D01*
X1750669Y1121700D02*
X1759000D01*
X1748969Y1120000D02*
X1750669Y1121700D01*
X1748969Y1100283D02*
Y1120000D01*
X1888700Y947400D02*
Y975500D01*
X1890100Y976900D01*
X1928500D01*
X1943900Y961500D01*
X1995500D01*
X1492441Y758000D02*
Y760200D01*
X1491502Y761139D02*
X1492441Y760200D01*
X1489600Y761139D02*
X1491502D01*
X1486661Y758200D02*
X1489600Y761139D01*
X1440000Y758200D02*
X1486661D01*
X1434800Y753000D02*
X1440000Y758200D01*
X1398100Y753000D02*
X1434800D01*
X1394600Y756500D02*
X1398100Y753000D01*
X1394600Y756500D02*
Y763542D01*
X1412441Y768000D02*
Y770000D01*
X1399344Y755756D02*
X1416000D01*
X1396610Y758490D02*
X1399344Y755756D01*
X1396610Y758490D02*
Y760792D01*
X1399548Y763730D01*
X1420413D01*
X1422283Y765600D01*
Y768000D01*
X1388700Y884400D02*
X1390400Y886100D01*
X1525400D01*
X1548000Y908700D01*
X1656542D01*
X1657567Y909725D01*
Y917000D01*
X1697787Y969575D02*
Y975087D01*
X1701900Y979200D01*
X1677730Y936300D02*
X1681782D01*
X1685126Y939644D01*
Y946134D01*
X1490473Y756600D02*
Y758000D01*
X1484300Y754300D02*
X1486600Y756600D01*
X1414409Y818048D02*
Y821937D01*
X1374800Y822400D02*
Y910197D01*
X1376843Y912240D01*
X1386576D01*
X1389068Y909748D01*
X1470228D01*
X1472720Y912240D01*
X1645850D01*
X1646000Y912090D01*
X1650551D01*
X1651662Y913200D01*
Y917000D01*
X1516063Y833591D02*
Y835866D01*
X1514129Y837800D02*
X1516063Y835866D01*
X1512800Y837800D02*
X1514129D01*
X1596500Y961800D02*
Y1004485D01*
X1593300Y1007685D02*
X1596500Y1004485D01*
X1584000Y1007685D02*
X1593300D01*
X1438031Y764861D02*
Y768000D01*
Y764861D02*
X1441861D01*
X1446700Y769700D01*
X1490300D01*
X1517100Y753800D02*
X1518032Y754732D01*
Y758000D01*
X1497000Y745756D02*
X1498794D01*
X1502284Y749246D01*
Y758000D01*
X1428189Y768000D02*
Y777239D01*
X1431200Y780250D01*
X1504450D01*
X1506500Y778200D01*
X1420315Y768000D02*
Y772400D01*
X1422315Y774400D01*
X1823000Y834315D02*
X1825085D01*
X1826900Y832500D01*
X1835000D01*
X1835500Y833000D01*
X1850000D01*
Y838400D01*
X1851900Y840300D01*
X1862000D01*
X1428472Y941128D02*
Y947622D01*
Y941128D02*
X1428500Y941100D01*
X1433400Y814800D02*
X1434094Y815494D01*
Y821937D01*
X1613134Y1031307D02*
X1623530D01*
X1624377Y1030460D01*
X1628870D01*
X1629717Y1031307D01*
X1632107D01*
X1633300Y1032500D01*
X1649200Y1040000D02*
X1663195D01*
X1674857Y1051661D01*
X1772000D01*
X1761713Y1043787D02*
X1772000D01*
X1758400Y1047100D02*
X1761713Y1043787D01*
X1674700Y1047100D02*
X1758400D01*
X1709282Y1037882D02*
X1772000D01*
X1705030Y1033630D02*
X1709282Y1037882D01*
X1656770Y1033630D02*
X1705030D01*
X1656300Y1034100D02*
X1656770Y1033630D01*
X1270400Y1211700D02*
X1403800D01*
X1265800Y1207100D02*
X1270400Y1211700D01*
X1265800Y1182400D02*
Y1207100D01*
Y1182400D02*
X1268200Y1180000D01*
X1275000D01*
X1280000Y1175000D01*
X1680071Y1100283D02*
Y1106804D01*
X1680814Y1107547D01*
Y1114343D01*
X1683441Y1116970D01*
X1684970D01*
X1689874Y1121874D01*
Y1125866D01*
X1685937Y1144800D02*
Y1155000D01*
X1681130Y1147630D02*
X1683968Y1150468D01*
Y1155000D01*
X1709500Y976400D02*
X1709599Y976301D01*
Y969575D02*
Y976301D01*
X1826000Y1078252D02*
X1830848D01*
X1832200Y1076900D01*
X1826000Y1013126D02*
X1854126D01*
X1863410Y1022410D01*
X1870319D01*
X1881579Y1033670D01*
X1893370D01*
X1918900Y1059200D01*
X2046300D01*
X2054300Y1067200D01*
Y1072000D01*
X2052000Y1074300D02*
X2054300Y1072000D01*
X1995700Y1074300D02*
X2052000D01*
X1990000Y1080000D02*
X1995700Y1074300D01*
X1910000Y1030500D02*
X1920000Y1040500D01*
X1885495Y1030500D02*
X1910000D01*
X1862215Y1007220D02*
X1885495Y1030500D01*
X1826000Y1007220D02*
X1862215D01*
X1821000Y1091200D02*
X1822137Y1090063D01*
X1826000D01*
X1901200Y961830D02*
X1910000Y970630D01*
X1901200Y960100D02*
Y961830D01*
X1979300Y918500D02*
X2000000D01*
X1784934Y1019031D02*
X1796866D01*
X1784126Y1019840D02*
X1784934Y1019031D01*
X1777695Y1019840D02*
X1784126D01*
X1777369Y1020165D02*
X1777695Y1019840D01*
X1772000Y1020165D02*
X1777369D01*
X1825384Y843730D02*
X1851900D01*
X1824314Y844800D02*
X1825384Y843730D01*
X1824314Y844800D02*
Y845912D01*
X1824100Y846126D02*
X1824314Y845912D01*
X1823000Y846126D02*
X1824100D01*
X1626600Y1043787D02*
X1641291D01*
X1625913Y1043100D02*
X1626600Y1043787D01*
X1610800Y1043100D02*
X1625913D01*
X1419030Y1205300D02*
X1432400D01*
X1416330Y1208000D02*
X1419030Y1205300D01*
X1416330Y1208000D02*
Y1221900D01*
X1404800Y1233430D02*
X1416330Y1221900D01*
X1404800Y1233430D02*
Y1248400D01*
X1403200Y1250000D02*
X1404800Y1248400D01*
X1372700Y1250000D02*
X1403200D01*
X1369944Y1252756D02*
X1372700Y1250000D01*
X1360000Y1252756D02*
X1369944D01*
X1613134Y1081685D02*
X1623506D01*
X1625995Y1084174D01*
X1635374D01*
X1636326Y1085126D01*
X1641291D01*
X1613134Y1029338D02*
X1621970D01*
X1622408Y1028900D01*
X1630430D01*
X1631130Y1029600D01*
X1635592D01*
X1636000Y1030008D01*
X1641291D01*
X1613134Y1025401D02*
X1629509D01*
X1632147Y1028039D01*
X1641291D01*
X1613134Y1023433D02*
X1631203D01*
X1633841Y1026071D01*
X1641291D01*
X1636320Y1039850D02*
X1641291D01*
X1629600Y1033130D02*
X1636320Y1039850D01*
X1626200Y1033130D02*
X1629600D01*
X1613134Y1065937D02*
X1618137D01*
X1619609Y1067409D01*
X1641291D01*
X1652151Y1051661D02*
X1654212Y1049600D01*
X1641291Y1051661D02*
X1652151D01*
X1697748Y1117479D02*
Y1125866D01*
X1696000Y1115731D02*
X1697748Y1117479D01*
X1694227Y1115731D02*
X1696000D01*
X1689913Y1111417D02*
X1694227Y1115731D01*
X1689913Y1100283D02*
Y1111417D01*
X1826000Y997378D02*
X2003778D01*
X2057420Y1051020D01*
Y1075081D01*
X2055700Y1076801D02*
X2057420Y1075081D01*
X2055700Y1076801D02*
Y1150900D01*
X2052330Y1154270D02*
X2055700Y1150900D01*
X2038230Y1154270D02*
X2052330D01*
X2035700Y1156800D02*
X2038230Y1154270D01*
X2035700Y1156800D02*
Y1163200D01*
X2037300Y1164800D01*
X2055200D01*
X2060000Y1160000D01*
X1973500Y871700D02*
X1987400Y857800D01*
X2009600D01*
X2013400Y861600D01*
Y904200D01*
X2009600Y908000D02*
X2013400Y904200D01*
X2000000Y908000D02*
X2009600D01*
X1995882Y903882D02*
X2000000Y908000D01*
X1995882Y893323D02*
Y903882D01*
X1552400Y1018500D02*
X1553373Y1017527D01*
X1584000D01*
X1415874Y994070D02*
Y996441D01*
X1414330Y992526D02*
X1415874Y994070D01*
X1414330Y989831D02*
Y992526D01*
Y989831D02*
X1421161Y983000D01*
X1466200D01*
X1503700Y992500D02*
X1509042Y997842D01*
X1584000D01*
X1466267Y943295D02*
Y947622D01*
X1429200Y831600D02*
X1441400D01*
X1422283Y824683D02*
X1429200Y831600D01*
X1422283Y821937D02*
Y824683D01*
X1494614Y996441D02*
Y999908D01*
X1521776Y1027070D01*
X1567656D01*
X1575230Y1019496D01*
X1584000D01*
X1796756Y1100296D02*
Y1103000D01*
X1796230Y1099770D02*
X1796756Y1100296D01*
X1796230Y1094000D02*
X1796866D01*
X1772000Y1087094D02*
X1786206D01*
X1787220Y1086080D01*
Y1082402D02*
Y1086080D01*
Y1082402D02*
X1788176Y1081446D01*
Y1073440D02*
Y1081446D01*
Y1073440D02*
X1791238Y1070378D01*
X1796866D01*
X1772000Y1085126D02*
X1777200D01*
X1777474Y1085400D01*
X1784100D01*
X1785660Y1083840D01*
Y1080730D02*
Y1083840D01*
Y1080730D02*
X1786504Y1079886D01*
Y1072495D02*
Y1079886D01*
Y1072495D02*
X1790589Y1068409D01*
X1796866D01*
X1791702Y1064472D02*
X1796866D01*
X1784673Y1071501D02*
X1791702Y1064472D01*
X1784673Y1071501D02*
Y1077753D01*
X1784100Y1078326D02*
X1784673Y1077753D01*
X1784100Y1078326D02*
Y1082070D01*
X1782400Y1083770D02*
X1784100Y1082070D01*
X1779043Y1083770D02*
X1782400D01*
X1778430Y1083157D02*
X1779043Y1083770D01*
X1772000Y1083157D02*
X1778430D01*
X1447370Y996441D02*
Y1005973D01*
X1443200Y1010142D02*
X1447370Y1005973D01*
X1437405Y1010142D02*
X1443200D01*
X1435233Y1012314D02*
X1437405Y1010142D01*
X1435233Y1012314D02*
Y1022436D01*
X1429870Y1027800D02*
X1435233Y1022436D01*
X1407200Y1027800D02*
X1429870D01*
X1380200Y1133700D02*
X1380570Y1134070D01*
Y1139200D01*
X1379200Y1140570D02*
X1380570Y1139200D01*
X1375230Y1140570D02*
X1379200D01*
X1374090Y1139430D02*
X1375230Y1140570D01*
X1370570Y1139430D02*
X1374090D01*
X1370290Y1139150D02*
X1370570Y1139430D01*
X1365094Y1139150D02*
X1370290D01*
X1365094Y1141118D02*
X1373200D01*
X1376082Y1144000D01*
X1380100D01*
X1401700Y1028000D02*
X1404500Y1030800D01*
X1432100D01*
X1436900Y1026000D01*
Y1013000D02*
Y1026000D01*
Y1013000D02*
X1438100Y1011800D01*
X1454100D01*
X1455400Y1010500D01*
Y1003400D02*
Y1010500D01*
X1453669Y1001669D02*
X1455400Y1003400D01*
X1453669Y996441D02*
Y1001669D01*
X1747315Y946134D02*
Y951972D01*
X1747070Y952218D02*
X1747315Y951972D01*
X1747070Y952218D02*
Y955261D01*
X1745598Y956733D02*
X1747070Y955261D01*
X1741163Y956733D02*
X1745598D01*
X1741095Y956802D02*
X1741163Y956733D01*
X1741095Y956802D02*
Y969575D01*
X1750937Y961000D02*
Y969575D01*
X1757158Y940542D02*
X1759000Y938700D01*
X1757158Y940542D02*
Y946134D01*
X1381472Y1161929D02*
Y1164898D01*
Y1161929D02*
X1388503Y1154898D01*
X1394228D01*
X1432170Y1077470D02*
X1432400Y1077700D01*
X1422037Y1077470D02*
X1432170D01*
X1417058Y1082450D02*
X1422037Y1077470D01*
X1405992Y1082450D02*
X1417058D01*
X1399741Y1088701D02*
X1405992Y1082450D01*
X1399741Y1088701D02*
Y1110250D01*
X1398400Y1111591D02*
X1399741Y1110250D01*
X1394228Y1111591D02*
X1398400D01*
X1759126Y946134D02*
Y954417D01*
X1756843Y956700D02*
X1759126Y954417D01*
X1756843Y956700D02*
Y969575D01*
X1763063Y946134D02*
Y955883D01*
X1758811Y960135D02*
X1763063Y955883D01*
X1758811Y960135D02*
Y969575D01*
X1785221Y1011157D02*
X1796866D01*
X1784387Y1010323D02*
X1785221Y1011157D01*
X1772000Y1010323D02*
X1784387D01*
X1779334Y1017063D02*
X1796866D01*
X1778200Y1018197D02*
X1779334Y1017063D01*
X1772000Y1018197D02*
X1778200D01*
X1772000Y1014260D02*
X1777066D01*
X1778200Y1013126D01*
X1796866D01*
X1658417Y1100283D02*
Y1105900D01*
X1648927Y1115390D02*
X1658417Y1105900D01*
X1630720Y1115390D02*
X1648927D01*
X1630530Y1115200D02*
X1630720Y1115390D01*
X1630530Y1104000D02*
Y1115200D01*
X1625932Y1099402D02*
X1630530Y1104000D01*
X1613134Y1099402D02*
X1625932D01*
X1528978Y1091528D02*
X1584000D01*
X1527862Y1090412D02*
X1528978Y1091528D01*
X1523612Y1090412D02*
X1527862D01*
X1462800Y1029600D02*
X1523612Y1090412D01*
X1462800Y992200D02*
X1464867D01*
X1466267Y993600D01*
Y996441D01*
X1428472D02*
Y1001372D01*
X1428900Y1001800D01*
X1515707Y1102107D02*
X1518907Y1105307D01*
X1584000D01*
X1494614Y1007150D02*
Y1014866D01*
X1491464Y1004000D02*
X1494614Y1007150D01*
X1491464Y996441D02*
Y1004000D01*
X1478866Y1097193D02*
X1480600D01*
X1413600Y817238D02*
X1414409Y818048D01*
X1379962Y817238D02*
X1413600D01*
X1330550Y866650D02*
Y926283D01*
X1334484Y930218D01*
X1359850D01*
X1406425Y976792D01*
Y996441D01*
X1441070Y947622D02*
Y956040D01*
X1444279Y959249D01*
X1467351D01*
X1472567Y954033D01*
Y947622D02*
Y954033D01*
X1396976Y947622D02*
Y949600D01*
X1427706Y980330D01*
X1468000D01*
X1468870Y981200D01*
Y986270D01*
X1466058Y989082D02*
X1468870Y986270D01*
X1441070Y989082D02*
X1466058D01*
X1440630Y989523D02*
X1441070Y989082D01*
X1440630Y989523D02*
Y994030D01*
X1441070Y994470D02*
Y996441D01*
X1472567Y993333D02*
Y996441D01*
X1468316Y989082D02*
X1472567Y993333D01*
X1440630Y994030D02*
X1441070Y994470D01*
X1414000Y1005976D02*
Y1014244D01*
X1412724Y1004700D02*
X1414000Y1005976D01*
X1412724Y996441D02*
Y1004700D01*
X1410472Y837400D02*
X1410982Y837909D01*
X1432916D01*
X1435420Y840413D01*
X1449017D01*
X1450120Y839310D01*
X1456084D01*
X1457485Y837909D01*
X1475851D01*
X1476191Y837570D01*
X1481262D01*
X1483337Y835496D01*
X1490211D01*
X1490473Y835234D01*
Y833591D02*
Y835234D01*
X1497530Y749526D02*
X1498347Y750343D01*
X1492326Y749526D02*
X1497530D01*
X1487600Y744800D02*
X1492326Y749526D01*
X1397860Y744800D02*
X1487600D01*
X1390922Y751738D02*
X1397860Y744800D01*
X1390922Y751738D02*
Y771297D01*
X1399355Y779730D01*
X1413370D01*
X1418346Y774754D01*
Y768000D02*
Y774754D01*
X1584244Y1036244D02*
Y1039000D01*
X1584162Y1036162D02*
X1584244Y1036244D01*
X1584000Y1033275D02*
X1584162D01*
X1494410Y829302D02*
Y833591D01*
X1494000Y828892D02*
X1494410Y829302D01*
X1483637Y828892D02*
X1494000D01*
X1479529Y833000D02*
X1483637Y828892D01*
X1467880Y833000D02*
X1479529D01*
X1466091Y834789D02*
X1467880Y833000D01*
X1454475Y834789D02*
X1466091D01*
X1453074Y836190D02*
X1454475Y834789D01*
X1447000Y836190D02*
X1453074D01*
X1445897Y837293D02*
X1447000Y836190D01*
X1438540Y837293D02*
X1445897D01*
X1436036Y834789D02*
X1438540Y837293D01*
X1414835Y834789D02*
X1436036D01*
X1414409Y834364D02*
X1414835Y834789D01*
X1414409Y821937D02*
Y834364D01*
X1496378Y827700D02*
Y833591D01*
X1496010Y827332D02*
X1496378Y827700D01*
X1482077Y827332D02*
X1496010D01*
X1477969Y831440D02*
X1482077Y827332D01*
X1462800Y831440D02*
X1477969D01*
X1461050Y833190D02*
X1462800Y831440D01*
X1452954Y833190D02*
X1461050D01*
X1451514Y834630D02*
X1452954Y833190D01*
X1445440Y834630D02*
X1451514D01*
X1444337Y835733D02*
X1445440Y834630D01*
X1440100Y835733D02*
X1444337D01*
X1437557Y833190D02*
X1440100Y835733D01*
X1417233Y833190D02*
X1437557D01*
X1416378Y832335D02*
X1417233Y833190D01*
X1416378Y821937D02*
Y832335D01*
X1422283Y824814D02*
X1429099Y831630D01*
X1444614Y833070D02*
X1448514D01*
X1449954Y831630D01*
X1459984D01*
X1461734Y829880D01*
X1475917D01*
X1480025Y825772D01*
X1496856D01*
X1502284Y831200D01*
Y833591D01*
X1685976Y1100283D02*
Y1108436D01*
X1687570Y1110030D01*
Y1114630D01*
X1691842Y1118903D01*
Y1125866D01*
X1792000Y1058567D02*
X1796866D01*
X1781189Y1069378D02*
X1792000Y1058567D01*
X1772000Y1069378D02*
X1781189D01*
X1794196Y1056598D02*
X1796866D01*
X1785617Y1056413D02*
X1794196D01*
X1784630Y1057400D02*
X1785617Y1056413D01*
X1784630Y1057400D02*
Y1058470D01*
X1782430Y1060670D02*
X1784630Y1058470D01*
X1779765Y1060670D02*
X1782430D01*
X1778630Y1059535D02*
X1779765Y1060670D01*
X1772000Y1059535D02*
X1778630D01*
X1703653Y1155000D02*
Y1190447D01*
X1640400Y1253700D02*
X1703653Y1190447D01*
X1640400Y1253700D02*
Y1269600D01*
X1630000Y1280000D02*
X1640400Y1269600D01*
X1695779Y1150679D02*
Y1155000D01*
X1694000Y1148900D02*
X1695779Y1150679D01*
X1727315Y969575D02*
Y974585D01*
X1724100Y977800D02*
X1727315Y974585D01*
X1730900Y936400D02*
X1740366D01*
X1741410Y937444D01*
Y946134D01*
X1436063Y763896D02*
Y768000D01*
Y763896D02*
X1436657Y763301D01*
X1442508D01*
X1445606Y766400D01*
X1496400D01*
X1501930Y771930D01*
X1512133D01*
X1516063Y768000D01*
X1511000Y743500D02*
Y745756D01*
X1508800Y743500D02*
X1511000D01*
X1508000Y742700D02*
X1508800Y743500D01*
X1508000Y737900D02*
Y742700D01*
Y737900D02*
X1508800Y737100D01*
X1521000D01*
X1510158Y753942D02*
Y758000D01*
X1399100Y1139150D02*
X1400300Y1137950D01*
X1394228Y1139150D02*
X1399100D01*
X1394228Y1123402D02*
X1399998D01*
X1400400Y1123000D01*
X1772000Y1053630D02*
X1777101D01*
X1778070Y1052661D01*
X1796866D01*
X1270000Y1185000D02*
X1275000Y1190000D01*
X1281901D01*
X1284400Y1187501D01*
X1295299D01*
X1297200Y1185600D01*
Y1166400D02*
Y1185600D01*
X1296044Y1165244D02*
X1297200Y1166400D01*
X1292000Y1165244D02*
X1296044D01*
X1648575Y1100283D02*
Y1105900D01*
X1644000D02*
X1648575D01*
X1633470Y1092470D02*
X1638200Y1097200D01*
X1632600Y1092470D02*
X1633470D01*
X1627705Y1087575D02*
X1632600Y1092470D01*
X1623369Y1087575D02*
X1627705D01*
X1620800Y1085006D02*
X1623369Y1087575D01*
X1617700Y1085006D02*
X1620800D01*
X1617084Y1085622D02*
X1617700Y1085006D01*
X1613134Y1085622D02*
X1617084D01*
X1823000Y852032D02*
X1834148D01*
X1834600Y851580D01*
X1840880D01*
X1842300Y853000D01*
X1850000D01*
Y847000D02*
Y853000D01*
Y847000D02*
X1856600D01*
X1823000Y840221D02*
X1829821D01*
X1830400Y840800D01*
X1828948Y838252D02*
X1830400Y836800D01*
X1823000Y838252D02*
X1828948D01*
X1832063Y850000D02*
X1847244D01*
X1832000Y850063D02*
X1832063Y850000D01*
X1823000Y850063D02*
X1832000D01*
X1882756Y1074000D02*
Y1076100D01*
X1885501Y1078845D01*
Y1086000D01*
X1881600D02*
X1885501D01*
X1880000Y1087600D02*
X1881600Y1086000D01*
X1880000Y1087600D02*
Y1093800D01*
X1879800Y1094000D02*
X1880000Y1093800D01*
X1879800Y1094000D02*
Y1126500D01*
X1880800Y1127500D01*
X1889600D01*
X1891300Y1129200D01*
Y1133300D01*
X1889600Y1135000D02*
X1891300Y1133300D01*
X1885000Y1135000D02*
X1889600D01*
X1500315Y758000D02*
Y760000D01*
X1497616Y762699D02*
X1500315Y760000D01*
X1487458Y762699D02*
X1497616D01*
X1484854Y760095D02*
X1487458Y762699D01*
X1434400Y760095D02*
X1484854D01*
X1432126Y762369D02*
X1434400Y760095D01*
X1432126Y762369D02*
Y768000D01*
X1805283Y859906D02*
Y867737D01*
X1804601Y868420D02*
X1805283Y867737D01*
X1785180Y868420D02*
X1804601D01*
X1759126Y894474D02*
X1785180Y868420D01*
X1759126Y894474D02*
Y917000D01*
X1809220Y859906D02*
Y877380D01*
X1804800Y881800D02*
X1809220Y877380D01*
X1781232Y881800D02*
X1804800D01*
X1765032Y898000D02*
X1781232Y881800D01*
X1765032Y898000D02*
Y917000D01*
X1763063Y896437D02*
Y917000D01*
Y896437D02*
X1779300Y880200D01*
X1796578D01*
X1807252Y869526D01*
Y859906D02*
Y869526D01*
X1767000Y916938D02*
Y917000D01*
X1773000Y916938D02*
Y917244D01*
X1634504Y1008354D02*
X1641291D01*
X1633520Y1007370D02*
X1634504Y1008354D01*
X1625166Y1007370D02*
X1633520D01*
X1620914Y1011622D02*
X1625166Y1007370D01*
X1613134Y1011622D02*
X1620914D01*
X1613134Y1017527D02*
X1620380D01*
X1621513Y1018660D01*
X1627440D01*
X1627903Y1018197D01*
X1641291D01*
X1635462Y1012291D02*
X1641291D01*
X1632101Y1008930D02*
X1635462Y1012291D01*
X1626515Y1008930D02*
X1632101D01*
X1621854Y1013590D02*
X1626515Y1008930D01*
X1613134Y1013590D02*
X1621854D01*
X1784934Y997378D02*
X1796866D01*
X1783800Y998512D02*
X1784934Y997378D01*
X1772000Y998512D02*
X1783800D01*
X1790594Y999346D02*
X1796866D01*
X1784970Y1004970D02*
X1790594Y999346D01*
X1778630Y1004970D02*
X1784970D01*
X1778077Y1004417D02*
X1778630Y1004970D01*
X1772000Y1004417D02*
X1778077D01*
X1787003Y1006530D02*
X1788281Y1005252D01*
X1777214Y1006530D02*
X1787003D01*
X1777070Y1006386D02*
X1777214Y1006530D01*
X1772000Y1006386D02*
X1777070D01*
X1652512Y1100283D02*
Y1106500D01*
X1649334Y1109678D02*
X1652512Y1106500D01*
X1643478Y1109678D02*
X1649334D01*
X1638400Y1104600D02*
X1643478Y1109678D01*
X1638400Y1101133D02*
Y1104600D01*
X1636800Y1099533D02*
X1638400Y1101133D01*
X1634635Y1099533D02*
X1636800D01*
X1625472Y1090370D02*
X1634635Y1099533D01*
X1619030Y1090370D02*
X1625472D01*
X1617872Y1091528D02*
X1619030Y1090370D01*
X1613134Y1091528D02*
X1617872D01*
X1613134Y1097433D02*
X1629234D01*
X1632894Y1101093D01*
X1635441D01*
X1636748Y1102400D01*
Y1109600D01*
X1638400Y1111252D01*
X1650797D01*
X1656449Y1105600D01*
Y1100283D02*
Y1105600D01*
X1725307Y1118539D02*
Y1125866D01*
Y1118539D02*
X1733221Y1110626D01*
Y1100284D02*
Y1110626D01*
X1689874Y1155000D02*
Y1163200D01*
X1688274Y1164800D02*
X1689874Y1163200D01*
X1665300Y1164800D02*
X1688274D01*
X1388800Y1109622D02*
X1394228D01*
X1386984Y1107806D02*
X1388800Y1109622D01*
X1386984Y1102898D02*
Y1107806D01*
X1421378Y1095178D02*
Y1097063D01*
X1419000Y1092800D02*
X1421378Y1095178D01*
X1725347Y964458D02*
Y969575D01*
Y964458D02*
X1726400Y963405D01*
X1726601D01*
X1737473Y952534D01*
Y946134D02*
Y952534D01*
X1633618Y1002449D02*
X1641291D01*
X1632700Y1003366D02*
X1633618Y1002449D01*
X1622419Y1003366D02*
X1632700D01*
X1618100Y1007685D02*
X1622419Y1003366D01*
X1613134Y1007685D02*
X1618100D01*
X1632466Y1000480D02*
X1641291D01*
X1631857Y1001090D02*
X1632466Y1000480D01*
X1621096Y1001090D02*
X1631857D01*
X1618438Y1003748D02*
X1621096Y1001090D01*
X1613134Y1003748D02*
X1618438D01*
X1631315Y998512D02*
X1641291D01*
X1630297Y999530D02*
X1631315Y998512D01*
X1619536Y999530D02*
X1630297D01*
X1617287Y1001779D02*
X1619536Y999530D01*
X1613134Y1001779D02*
X1617287D01*
X1630163Y996543D02*
X1641291D01*
X1628737Y997970D02*
X1630163Y996543D01*
X1620148Y997970D02*
X1628737D01*
X1620020Y997842D02*
X1620148Y997970D01*
X1613134Y997842D02*
X1620020D01*
X1613134Y1009653D02*
X1619757D01*
X1623600Y1005810D01*
X1632868D01*
X1634260Y1004417D01*
X1641291D01*
X1613134Y1019496D02*
X1618996D01*
X1620100Y1020600D01*
X1628465D01*
X1628900Y1020165D01*
X1641291D01*
X1993323Y893323D02*
Y908244D01*
X1701724Y960768D02*
Y969575D01*
X1691032Y950076D02*
X1701724Y960768D01*
X1691032Y946134D02*
Y950076D01*
X1677252Y946134D02*
Y953856D01*
X1682796Y959400D01*
X1686545D01*
X1687945Y960800D01*
Y969575D01*
X1838244Y1092031D02*
Y1094000D01*
X1898400Y871600D02*
Y880900D01*
X1915400Y897900D01*
X1924800D01*
X1925882Y896818D01*
Y893323D02*
Y896818D01*
X1923323Y889377D02*
Y893323D01*
Y889377D02*
X1924000Y888700D01*
X1790835Y1003200D02*
X1792887Y1005252D01*
X1790835Y1003200D02*
X1792720Y1001315D01*
X1796866D01*
X1772000Y1008354D02*
X1789701D01*
X1790835Y1007220D01*
X1796866D01*
X1711567Y952277D02*
Y969575D01*
Y952277D02*
X1712189Y951655D01*
X1722213D01*
X1723693Y950175D01*
Y946134D02*
Y950175D01*
X1723378Y962076D02*
Y969575D01*
Y962076D02*
X1723609Y961845D01*
X1725955D01*
X1735504Y952296D01*
Y946134D02*
Y952296D01*
X1731567Y946134D02*
Y953243D01*
X1725803Y959006D02*
X1731567Y953243D01*
X1723990Y959006D02*
X1725803D01*
X1721410Y961586D02*
X1723990Y959006D01*
X1721410Y961586D02*
Y969575D01*
X1719441Y962886D02*
Y969575D01*
Y962886D02*
X1719588Y962739D01*
Y960800D02*
Y962739D01*
Y960800D02*
X1722942Y957446D01*
X1724881D01*
X1729599Y952729D01*
Y946134D02*
Y952729D01*
X1691882Y957771D02*
Y969575D01*
X1685211Y951100D02*
X1691882Y957771D01*
X1684000Y951100D02*
X1685211D01*
X1683158Y950258D02*
X1684000Y951100D01*
X1683158Y946134D02*
Y950258D01*
X1682039Y960850D02*
Y969575D01*
X1673315Y952125D02*
X1682039Y960850D01*
X1673315Y946134D02*
Y952125D01*
X1674165Y957550D02*
Y969575D01*
X1669378Y952762D02*
X1674165Y957550D01*
X1669378Y946134D02*
Y952762D01*
X1689913Y958813D02*
Y969575D01*
X1688000Y956900D02*
X1689913Y958813D01*
X1682502Y956900D02*
X1688000D01*
X1679221Y953619D02*
X1682502Y956900D01*
X1679221Y946134D02*
Y953619D01*
X1624175Y988669D02*
X1641291D01*
X1620908Y991937D02*
X1624175Y988669D01*
X1613134Y991937D02*
X1620908D01*
X1613134Y989968D02*
X1618532D01*
X1621799Y986701D01*
X1641291D01*
X1613134Y1075780D02*
X1622810D01*
X1623226Y1075364D01*
X1636601D01*
X1636681Y1075283D01*
X1641291D01*
X1361400Y1154898D02*
X1365094D01*
X1361400Y1164898D02*
X1361472D01*
X1868726Y1172874D02*
X1868819D01*
X1866000Y1175600D02*
X1868726Y1172874D01*
X1826000Y1094000D02*
X1828000D01*
X1836800Y1137000D02*
X1841000D01*
X1834756Y1134956D02*
X1836800Y1137000D01*
X1834756Y1130000D02*
Y1134956D01*
X1444067Y821756D02*
X1446000D01*
X1443069Y822754D02*
X1444067Y821756D01*
X1440000Y821937D02*
Y822754D01*
X1430157Y761898D02*
Y768000D01*
Y761898D02*
X1431462Y760594D01*
X1430000Y755756D02*
X1431462D01*
X1400000Y1252756D02*
Y1255500D01*
X1405683Y1261183D01*
Y1274800D01*
X1404800Y1275683D02*
X1405683Y1274800D01*
X1404317Y1275683D02*
X1404800D01*
X1400000Y1280000D02*
X1404317Y1275683D01*
X1380000Y1252756D02*
Y1260800D01*
X1385077Y1265877D01*
X1404123D01*
Y1274123D01*
X1385877D02*
X1404123D01*
X1380000Y1280000D02*
X1385877Y1274123D01*
X1523065Y833756D02*
X1526000D01*
X1522900Y833591D02*
X1523065Y833756D01*
X1520000Y833591D02*
X1522900D01*
X1832220Y1080000D02*
X1838244D01*
X1832000Y1080220D02*
X1832220Y1080000D01*
X1826000Y1080220D02*
X1832000D01*
X1419023Y947622D02*
X1422173D01*
X1679044Y1155000D02*
X1682000D01*
X1678800Y1154756D02*
X1679044Y1155000D01*
X1676000Y1154756D02*
X1678800D01*
X1796866Y972478D02*
Y975724D01*
Y972478D02*
X1797244Y972100D01*
Y969000D02*
Y972100D01*
X1826000Y972444D02*
Y975724D01*
X1825756Y972200D02*
X1826000Y972444D01*
X1825756Y969000D02*
Y972200D01*
X1797244Y1024178D02*
Y1027000D01*
X1796866Y1023800D02*
X1797244Y1024178D01*
X1796866Y1021000D02*
Y1023800D01*
X1825756Y1024044D02*
Y1027000D01*
Y1024044D02*
X1826000Y1023800D01*
Y1021000D02*
Y1023800D01*
X1584000Y985044D02*
Y988000D01*
Y985044D02*
X1584244Y984800D01*
Y982000D02*
Y984800D01*
X1613134Y985178D02*
Y988000D01*
X1612756Y984800D02*
X1613134Y985178D01*
X1612756Y982000D02*
Y984800D01*
Y1036278D02*
Y1039000D01*
Y1036278D02*
X1613134Y1035900D01*
Y1033275D02*
Y1035900D01*
X1796866Y1045978D02*
Y1048724D01*
Y1045978D02*
X1797244Y1045600D01*
Y1043000D02*
Y1045600D01*
X1826000Y1045944D02*
Y1048724D01*
Y1045944D02*
X1826244Y1045700D01*
Y1043000D02*
Y1045700D01*
X1613134Y1059678D02*
Y1062000D01*
X1612756Y1059300D02*
X1613134Y1059678D01*
X1612756Y1057000D02*
Y1059300D01*
X1696044Y917244D02*
X1699000D01*
X1695800Y917000D02*
X1696044Y917244D01*
X1693000Y917000D02*
X1695800D01*
X1696178Y945756D02*
X1699000D01*
X1695800Y946134D02*
X1696178Y945756D01*
X1693000Y946134D02*
X1695800D01*
X1877244Y1086900D02*
Y1091000D01*
Y1086900D02*
X1877244Y1086900D01*
Y1083000D02*
Y1086900D01*
X1877244Y1045900D02*
Y1050000D01*
Y1045900D02*
X1877244Y1045900D01*
Y1042000D02*
Y1045900D01*
X1627396Y1069378D02*
X1641291D01*
X1626900Y1069874D02*
X1627396Y1069378D01*
X1613134Y1069874D02*
X1626900D01*
X1641291Y1022134D02*
Y1024102D01*
X1703693Y969575D02*
X1705662D01*
X1707630D02*
X1709599D01*
X1705662D02*
X1707630D01*
X1772000Y1028039D02*
Y1030008D01*
X1703693Y1100283D02*
X1705662D01*
X1707630D02*
X1709599D01*
X1705662D02*
X1707630D01*
X1641291Y1035913D02*
Y1037882D01*
Y1033945D02*
Y1035913D01*
Y1031976D02*
Y1033945D01*
X1717944Y917000D02*
X1721725D01*
X1717700Y917244D02*
X1717944Y917000D01*
X1714000Y917244D02*
X1717700D01*
X1643978Y946134D02*
X1647725D01*
X1643600Y945756D02*
X1643978Y946134D01*
X1640000Y945756D02*
X1643600D01*
X1643944Y917000D02*
X1647725D01*
X1643700Y917244D02*
X1643944Y917000D01*
X1640000Y917244D02*
X1643700D01*
X1717978Y946134D02*
X1721725D01*
X1717600Y945756D02*
X1717978Y946134D01*
X1714000Y945756D02*
X1717600D01*
X1770178D02*
X1773000D01*
X1769800Y946134D02*
X1770178Y945756D01*
X1767000Y946134D02*
X1769800D01*
X1358920Y1109622D02*
X1365094D01*
X1358400Y1110142D02*
X1358920Y1109622D01*
X1352228Y1110142D02*
X1358400D01*
X1852756Y830000D02*
Y836000D01*
Y850000D02*
Y856000D01*
X1823000Y842189D02*
Y844158D01*
Y846126D01*
D29*
X1894870Y870138D02*
X1896938Y868070D01*
X1906570D01*
X1914000Y875500D01*
X1894870Y870138D02*
Y893870D01*
X1922000Y921000D01*
X1921800Y926400D02*
X1993000D01*
X1875000Y1290000D02*
X1885000D01*
X1865000D02*
X1875000D01*
X1849600D02*
X1855000D01*
X1845300D02*
X1849600D01*
X1855000D02*
X1865000D01*
X1835000D02*
X1845000D01*
X1825400D02*
X1835000D01*
X1866293Y1079100D02*
X1881400D01*
X1863360D02*
X1866293D01*
X1844057Y1080000D02*
Y1087000D01*
X1843756D02*
Y1094000D01*
Y1080000D02*
Y1087000D01*
X1844057Y1080000D02*
X1844378D01*
X1825000Y1290000D02*
X1825400D01*
X1787030Y1137200D02*
X1806870Y1117360D01*
X1814000Y1110230D02*
X1817474Y1106756D01*
X1806870Y1117360D02*
X1814000Y1110230D01*
X1779600Y1290000D02*
X1780300D01*
X1765000D02*
X1775000D01*
X1789700D02*
X1790400D01*
X1794700D02*
X1795000D01*
X1790400D02*
X1794700D01*
X1789700D02*
X1794700D01*
X1780300D02*
X1785000D01*
X1775000D02*
X1779600D01*
X1785000D02*
X1789700D01*
X1745000D02*
X1755000D01*
X1765000D01*
X1735000D02*
X1745000D01*
X1725000D02*
X1735000D01*
X1817500Y1106756D02*
X1821000D01*
X1817474D02*
X1817500D01*
X1814000D02*
X1817474D01*
X1835630Y1040000D02*
Y1048570D01*
X1783500Y917317D02*
X1815400Y885417D01*
X1802756Y955000D02*
Y956800D01*
X1747189Y932800D02*
X1751918D01*
X1734244D02*
X1747189D01*
X1600000Y1290000D02*
X1610000D01*
X1580000D02*
X1590000D01*
X1600000D01*
X1570000D02*
X1580000D01*
X1564700D02*
X1570000D01*
X1559700D02*
X1560000D01*
X1540000D02*
X1549600D01*
X1550000D01*
X1539700D02*
X1540000D01*
X1560000D02*
X1564700D01*
X1550000D02*
X1559700D01*
X1606300Y1140000D02*
X1663700Y1197400D01*
X1603800Y1137500D02*
X1606300Y1140000D01*
X1494400Y1110100D02*
X1541866D01*
X1530000Y1290000D02*
X1539700D01*
X1483600D02*
X1489700D01*
X1480000D02*
X1483600D01*
X1470000D02*
X1475400D01*
X1480000D02*
X1489700D01*
X1475400D02*
X1480000D01*
X1461000Y1117462D02*
Y1120500D01*
X1420000Y1290000D02*
X1430000D01*
X1460000D02*
X1465400D01*
X1450000D02*
X1460000D01*
X1430000D02*
X1440000D01*
X1465400D02*
X1470000D01*
X1440000D02*
X1450000D01*
X1281913Y1143087D02*
X1303567Y1121433D01*
X1270000Y1155000D02*
X1281913Y1143087D01*
X1490866Y1097193D02*
Y1106566D01*
Y1110400D01*
X1488000Y1097193D02*
X1490430Y1094763D01*
X1437000Y1100803D02*
X1448233Y1089570D01*
X1436903Y1100900D02*
X1437000Y1100803D01*
X1427866Y1099200D02*
Y1109779D01*
X1436045Y1101600D01*
X1381472Y1118572D02*
X1384000Y1121100D01*
X1380229Y1117329D02*
X1381472Y1118572D01*
X1699000Y927000D02*
Y933330D01*
Y922756D02*
Y927000D01*
X1589756Y1046000D02*
X1594149D01*
X1589756Y1043678D02*
X1592095Y1041339D01*
X1599900Y1033534D01*
X1594149Y1046000D02*
X1601190D01*
X1345600Y1045600D02*
X1352321Y1052321D01*
X1513600Y740244D02*
X1517344D01*
X1511000D02*
X1513600D01*
X1506001Y745756D02*
Y747200D01*
X1423000Y758400D02*
Y761600D01*
Y755756D02*
Y758400D01*
X1682039Y1083770D02*
X1715344D01*
X1875000Y1200000D02*
X1885000D01*
X1865000D02*
X1875000D01*
X1845300D02*
X1855000D01*
X1845000D02*
X1845300D01*
X1865600Y1158000D02*
X1871244D01*
X1831844D02*
X1865600D01*
X1884800Y1066000D02*
X1906000D01*
X1882756D02*
X1884800D01*
X1809800Y1083625D02*
Y1086400D01*
X1806800Y1040570D02*
X1814244D01*
X1775000Y1200000D02*
X1779700D01*
X1785000D02*
X1789700D01*
X1765000D02*
X1775000D01*
X1779700D02*
X1785000D01*
X1789600Y1103000D02*
Y1104794D01*
X1755000Y1200000D02*
X1765000D01*
X1735000D02*
X1745000D01*
X1755000D01*
X1725000D02*
X1735000D01*
X1993500Y861000D02*
X2001300Y868800D01*
X1839900Y856000D02*
X1843400D01*
X1847200Y827200D02*
Y830000D01*
X1891823Y824900D02*
X1914200D01*
X1876100D02*
X1891823D01*
X1849544D02*
X1876100D01*
X1849500D02*
X1849544D01*
X1699000Y940244D02*
X1704144D01*
X1673256Y1149244D02*
X1676000D01*
X1644462D02*
X1673256D01*
X1676000Y1138200D02*
Y1138270D01*
Y1132756D02*
Y1138200D01*
X1550000Y1200000D02*
X1559700D01*
X1540000D02*
X1550000D01*
X1535300D02*
X1540000D01*
X1590000D02*
X1600000D01*
X1560000D02*
X1570000D01*
X1559700D02*
X1560000D01*
X1530000D02*
X1535300D01*
X1591600Y1101370D02*
X1603230Y1113000D01*
X1612701Y1046630D02*
X1620814D01*
X1609074D02*
X1612701D01*
X1607244Y1044800D02*
Y1052087D01*
X1612701Y1046630D02*
X1613332Y1046000D01*
X1607731Y1051600D02*
X1612701Y1046630D01*
X1607244Y1052087D02*
X1607731Y1051600D01*
X1493000Y1046000D02*
X1581700D01*
X1490000Y1200000D02*
X1490300D01*
X1480000D02*
X1480400D01*
X1474600D02*
X1480000D01*
X1470000D02*
X1470300D01*
X1480400D02*
X1490000D01*
X1470300D02*
X1474600D01*
X1460000D02*
X1470000D01*
X1430000D02*
X1440000D01*
X1450000D02*
X1460000D01*
X1470000D02*
X1474600D01*
X1440000D02*
X1450000D01*
X1420000D02*
X1430000D01*
X1366984Y1167316D02*
Y1196800D01*
X1406247Y1118151D02*
X1409000D01*
X1420990Y1088290D02*
X1427268D01*
X1416383D02*
X1420990D01*
X1414879D02*
X1416383D01*
X1409000Y1095673D02*
Y1116244D01*
Y1094169D02*
Y1095673D01*
X1607244Y1039000D02*
Y1044800D01*
X1616400Y982132D02*
X1619000Y984732D01*
X1525900Y809500D02*
X1531500Y815100D01*
X1480170Y815552D02*
X1515152D01*
X1471700Y1024700D02*
X1492800D01*
X1466700D02*
X1490600Y1048600D01*
X1485753Y1010953D02*
X1486000Y1011200D01*
X1485600Y1010800D02*
X1485753Y1010953D01*
X1459030Y930756D02*
Y941506D01*
Y930756D02*
X1463716D01*
X1458000D02*
X1459030D01*
X1425000Y930800D02*
X1458000D01*
X1436400Y750244D02*
X1459556D01*
X1423000Y750022D02*
X1430000D01*
X1310000Y810000D02*
X1412700D01*
X1415540D02*
X1425910D01*
X1412700D02*
X1415540D01*
X1381100Y1015256D02*
X1385600Y1019756D01*
X1350155Y984311D02*
X1381100Y1015256D01*
X1320000Y790000D02*
X1905600D01*
X1908425Y792825D01*
Y810625D02*
X1998425D01*
X1415800Y1100700D02*
X1415866Y1100634D01*
Y1097063D02*
Y1100634D01*
X1320000Y825500D02*
Y830000D01*
X1314300Y819800D02*
X1320000Y825500D01*
X1307700Y819800D02*
X1314300D01*
X1303900Y816000D02*
X1307700Y819800D01*
X1303900Y806400D02*
Y816000D01*
Y806400D02*
X1307200Y803100D01*
X1425930D01*
X1430400Y798630D01*
X1449420D01*
X1453523Y802733D01*
X1618462D01*
X1629429Y813700D01*
X1892900D01*
X1610000Y1290000D02*
X1639800D01*
X1643400Y1286400D01*
Y1254400D02*
Y1286400D01*
Y1254400D02*
X1645500Y1252300D01*
X1698000D01*
X1700100Y1254400D01*
Y1280000D01*
X1710100Y1290000D01*
X1725000D01*
X1428402Y1164898D02*
X1461000Y1132300D01*
Y1120500D02*
Y1132300D01*
X1445400Y1120500D02*
X1461000D01*
X1432900Y1133000D02*
X1445400Y1120500D01*
X1421075Y1133000D02*
X1432900D01*
X1410988Y1143087D02*
X1421075Y1133000D01*
X1409000Y1121756D02*
X1415889D01*
X1436045Y1101600D02*
X1445138D01*
X1461000Y1117462D01*
X1386984Y1164898D02*
X1428402D01*
X1415889Y1121756D02*
X1427866Y1109779D01*
X1589756Y1043678D02*
Y1046000D01*
Y1043678D02*
X1589756Y1039000D01*
X1590800Y1113000D02*
X1594244D01*
X1587900Y1110100D02*
X1590800Y1113000D01*
X1541866Y1110100D02*
X1587900D01*
X1490866Y1110400D02*
X1494166Y1113700D01*
X1606300Y1140000D02*
X1624800D01*
X1656200Y1171400D01*
X1690511D01*
X1693811Y1168100D01*
X1490866Y1106566D02*
X1494400Y1110100D01*
X1594149Y1046000D02*
X1600200Y1050514D01*
Y1071211D01*
X1602800Y1073811D01*
X1707575Y1142800D02*
X1718100D01*
X1733400Y1137200D02*
X1787030D01*
X1814000Y1106756D02*
Y1110230D01*
X1610000Y1290000D02*
X1624600Y1275400D01*
Y1257600D02*
Y1275400D01*
Y1257600D02*
X1627200Y1255000D01*
X1633600D01*
X1635300Y1253300D01*
Y1241200D02*
Y1253300D01*
Y1241200D02*
X1663700Y1212800D01*
Y1197400D02*
Y1212800D01*
X1582400Y1137500D02*
X1603800D01*
X1558600Y1113700D02*
X1582400Y1137500D01*
X1494166Y1113700D02*
X1558600D01*
X1882756Y1080456D02*
Y1083000D01*
X1881400Y1079100D02*
X1882756Y1080456D01*
X1866293Y1057917D02*
Y1079100D01*
Y1057917D02*
X1870240Y1053970D01*
X1881630D01*
X1882756Y1050000D01*
X1813000Y1130000D02*
X1829244D01*
X1806870Y1123870D02*
X1813000Y1130000D01*
X1806870Y1117360D02*
Y1123870D01*
X1651400Y1006386D02*
X1671085Y1026071D01*
X1750600Y1065400D02*
X1750641Y1065441D01*
X1821000Y1106756D02*
Y1113933D01*
X1822297Y1115230D01*
X1839339D01*
X1843756Y1110813D01*
Y1094000D02*
Y1110813D01*
X1426220Y781503D02*
X1427910Y783193D01*
X1518907D01*
X1526730Y775370D01*
Y749630D02*
Y775370D01*
X1517344Y740244D02*
X1526730Y749630D01*
X1421142Y760258D02*
X1423000Y758400D01*
X1400590Y760258D02*
X1421142D01*
X1345600Y1045600D02*
X1425100D01*
X1340000Y1040000D02*
X1345600Y1045600D01*
X1636400Y923400D02*
X1637044Y922756D01*
X1662241Y935959D02*
X1668030D01*
X1340000Y920000D02*
X1369410D01*
X1370300Y920890D01*
X1380100D01*
X1380960Y920030D01*
X1467810D01*
X1468060Y919780D01*
X1532380D01*
X1567900Y955300D01*
X1626000D01*
X1705970Y980000D02*
X1713473D01*
X1657370Y1059970D02*
Y1068100D01*
X1655000Y1057600D02*
X1657370Y1059970D01*
X1725347Y1086353D02*
X1731200Y1080500D01*
X1470668Y816244D02*
X1471360Y815552D01*
X1480170D01*
X1492638Y814644D01*
X1525900Y809500D02*
X1530938D01*
X1523110Y806710D02*
X1525900Y809500D01*
X1434000Y801910D02*
X1446140D01*
X1510329Y842929D02*
X1526571D01*
X1531500Y838000D01*
Y815100D02*
Y838000D01*
X1450940Y806710D02*
X1523110D01*
X1446140Y801910D02*
X1450940Y806710D01*
X1425910Y810000D02*
X1434000Y801910D01*
X1485753Y1010953D02*
X1488315Y1008392D01*
X1485753Y1010953D02*
X1486000Y1014244D01*
X1320700Y985700D02*
X1339800Y966600D01*
X1388000D01*
X1388900Y967500D01*
Y974056D01*
X1387200Y975756D02*
X1388900Y974056D01*
X1385000Y975756D02*
X1387200D01*
X1425322Y952590D02*
X1426700Y953967D01*
X1485928Y958975D02*
X1488315Y956588D01*
X1891823Y824900D02*
X1923323Y856400D01*
X1847200Y827200D02*
X1849500Y824900D01*
X1796300Y852470D02*
X1806059D01*
X1791170Y857600D02*
X1796300Y852470D01*
X1787500Y857600D02*
X1791170D01*
X1785900Y856000D02*
X1787500Y857600D01*
X1785900Y851200D02*
Y856000D01*
X1906000Y1066000D02*
X1910000Y1070000D01*
X1672197Y1113397D02*
X1673400Y1114600D01*
X1660990Y1121710D02*
X1670750Y1111950D01*
X1655939Y1121710D02*
X1660990D01*
X1650589Y1127060D02*
X1655939Y1121710D01*
X1615760Y1127060D02*
X1650589D01*
X1606244Y1117544D02*
X1615760Y1127060D01*
X1606244Y1113000D02*
Y1117544D01*
X1733000Y1148244D02*
X1799756D01*
X1811000Y1137000D01*
X1703651Y1111052D02*
Y1113923D01*
X1847244Y827200D02*
Y830000D01*
Y827200D02*
X1849544Y824900D01*
X1490600Y1052800D02*
X1525792Y1087992D01*
X1490600Y1048600D02*
Y1052800D01*
X1607731Y1051600D02*
X1623400D01*
X1607244Y1057000D02*
X1607731Y1051600D01*
X1607244Y1052087D02*
Y1057000D01*
X1812180Y1076283D02*
X1813529Y1074934D01*
X1761000Y1017600D02*
Y1021500D01*
X1804689Y1068130D02*
X1812047D01*
X1809800Y1083625D02*
X1814269Y1088094D01*
X1813714Y981630D02*
X1820244Y975100D01*
X1813870Y1051932D02*
X1816568Y1054630D01*
X1813870Y1047144D02*
Y1051932D01*
Y1047144D02*
X1814244Y1043000D01*
X1685700Y929800D02*
X1696144Y940244D01*
X1659846Y1043325D02*
X1672120Y1055598D01*
X1804400Y995841D02*
Y1001600D01*
X1714000Y935630D02*
Y940244D01*
X1653230Y926430D02*
X1660100D01*
X1651600Y924800D02*
X1653230Y926430D01*
X1688300Y889200D02*
Y908963D01*
X1656449Y979725D02*
X1660371Y983648D01*
X1669952D01*
X1457000Y1019756D02*
X1461756D01*
X1466700Y1024700D01*
X1471700D01*
X1493000Y1046000D01*
X1729284Y988293D02*
X1741471Y1000480D01*
X1458000Y925244D02*
X1467884D01*
X1469570Y926930D01*
X1475088D01*
X1476774Y925244D01*
X1488000D01*
X1350155Y973055D02*
Y984311D01*
X1770100Y1103000D02*
X1779244D01*
X1759947Y1068694D02*
Y1079847D01*
X1761290Y1081189D01*
X1660900Y1066300D02*
X1738460D01*
X1758030Y989038D02*
Y990638D01*
X1805000Y1200000D02*
X1809300Y1204300D01*
X1810700D01*
X1815000Y1200000D01*
X1830700Y1195700D02*
X1835000Y1200000D01*
X1829300Y1195700D02*
X1830700D01*
X1825000Y1200000D02*
X1829300Y1195700D01*
X1795000Y1200000D02*
X1798200Y1196800D01*
X1801800D01*
X1805000Y1200000D01*
X1790700Y1204300D02*
X1795000Y1200000D01*
X1789300Y1204300D02*
X1790700D01*
X1785000Y1200000D02*
X1789300Y1204300D01*
X1835000Y1200000D02*
X1845000D01*
X1855000D02*
X1865000D01*
X1895000D02*
X1905000D01*
X1915000D01*
X1885000D02*
X1895000D01*
X2007000Y874500D02*
Y882244D01*
X1992200Y861000D02*
X1993500D01*
X1996800Y868800D02*
X2001300D01*
X2007000Y874500D01*
X2005987Y774800D02*
X2010787Y770000D01*
X1915587Y774800D02*
X2005987D01*
X1910787Y770000D02*
X1915587Y774800D01*
X1486000Y1011200D02*
Y1014244D01*
X1466306Y1010800D02*
X1485600D01*
X1456818Y1001313D02*
X1466306Y1010800D01*
X1500000Y1200000D02*
X1504300Y1204300D01*
X1505700D01*
X1510000Y1200000D01*
X1525700Y1195700D02*
X1530000Y1200000D01*
X1524300Y1195700D02*
X1525700D01*
X1520000Y1200000D02*
X1524300Y1195700D01*
X1490000Y1200000D02*
X1493200Y1196800D01*
X1496800D01*
X1500000Y1200000D01*
X1570000D02*
X1580000D01*
X1590000D01*
X1600000D02*
X1610000D01*
X1490000Y1290000D02*
X1493600Y1286400D01*
X1496400D01*
X1500000Y1290000D01*
X1503100Y1286900D01*
X1506900D01*
X1510000Y1290000D01*
X1480000D02*
X1483600Y1286400D01*
X1486400D01*
X1490000Y1290000D01*
X1525700Y1285700D02*
X1530000Y1290000D01*
X1524300Y1285700D02*
X1525700D01*
X1520000Y1290000D02*
X1524300Y1285700D01*
X1850700D02*
X1855000Y1290000D01*
X1849300Y1285700D02*
X1850700D01*
X1845000Y1290000D02*
X1849300Y1285700D01*
X1805000Y1290000D02*
X1809300Y1294300D01*
X1810700D01*
X1815000Y1290000D01*
X1795000D02*
X1799300Y1285700D01*
X1800700D01*
X1805000Y1290000D01*
X1895000D02*
X1905000D01*
X1885000D02*
X1895000D01*
X1905000D02*
X1915000D01*
X1828000Y1106756D02*
Y1110100D01*
X1826400Y1111700D02*
X1828000Y1110100D01*
X1808000Y1076283D02*
X1809800Y1078083D01*
X1808106Y1088094D02*
X1809800Y1086400D01*
X1853920Y1104922D02*
X1870540Y1121542D01*
X1853920Y1077880D02*
Y1104922D01*
Y1077880D02*
X1855530Y1076270D01*
X1860530D01*
X1863360Y1079100D01*
X1840740Y1124540D02*
X1851200Y1135000D01*
X1831104Y1124540D02*
X1840740D01*
X1829244Y1126400D02*
X1831104Y1124540D01*
X1829244Y1126400D02*
Y1130000D01*
X1811000Y1119100D02*
X1813630Y1116470D01*
X1818430D01*
X1820990Y1119030D01*
X1846300D01*
X1802756Y1027000D02*
X1820244D01*
X1714132Y1091195D02*
X1715580Y1089747D01*
X1802756Y956800D02*
X1806086Y960130D01*
X1835298D01*
X1837130Y961962D01*
Y971427D01*
X1837000Y971557D02*
X1837130Y971427D01*
X1837000Y971557D02*
Y987244D01*
X1807115Y1064850D02*
X1814400D01*
X1816400Y1066850D01*
Y1068000D01*
X1637044Y922756D02*
X1640000D01*
X1582800Y976000D02*
X1584767Y977967D01*
X1587845D01*
X1589756Y979878D01*
Y982000D01*
X1835630Y1048570D02*
Y1055448D01*
Y1048570D02*
X1840000Y1044200D01*
X1844100D01*
X1846300Y1046400D01*
Y1078078D01*
X1844378Y1080000D02*
X1846300Y1078078D01*
X1385830Y925244D02*
X1425000D01*
X1383277Y927798D02*
X1385830Y925244D01*
X1337856Y927798D02*
X1383277D01*
X1332970Y922912D02*
X1337856Y927798D01*
X1332970Y877030D02*
Y922912D01*
Y877030D02*
X1340000Y870000D01*
X1638400Y950800D02*
X1643249D01*
X1635200Y947600D02*
X1638400Y950800D01*
X1635200Y941844D02*
Y947600D01*
Y941844D02*
X1636800Y940244D01*
X1640000D01*
X1802756Y1024800D02*
X1812462Y1015094D01*
X1779244Y1103000D02*
Y1104972D01*
X1781273Y1107001D01*
X1787393D01*
X1789600Y1104794D01*
Y1103000D02*
X1791244D01*
X1400000Y1222932D02*
Y1247244D01*
Y1222932D02*
X1413910Y1209022D01*
Y1206090D02*
Y1209022D01*
Y1206090D02*
X1420000Y1200000D01*
X1755189Y936071D02*
X1760100Y931160D01*
X1606300Y974900D02*
X1626000D01*
X1632900Y981800D01*
X1651400Y1006386D02*
X1655100Y1002686D01*
X1843756Y1087000D02*
X1844057D01*
X1843756Y1080000D02*
X1844057D01*
X1731900Y1117249D02*
X1735189Y1113960D01*
X1374691Y1117329D02*
X1380229D01*
X1684200Y932700D02*
X1691744Y940244D01*
X1675541Y932700D02*
X1684200D01*
X1674641Y933600D02*
X1675541Y932700D01*
X1463716Y930756D02*
X1464730Y931770D01*
X1483825D01*
X1484839Y930756D01*
X1488000D01*
X1668800Y907370D02*
X1670654D01*
X1676000Y1146260D02*
Y1149244D01*
Y1146260D02*
X1676930Y1145330D01*
Y1139200D02*
Y1145330D01*
X1676000Y1138270D02*
X1676930Y1139200D01*
X1819756Y1040744D02*
Y1043000D01*
Y1040744D02*
X1821400Y1039100D01*
X1834730D01*
X1835630Y1040000D01*
X1783500Y917317D02*
Y951700D01*
X1931500Y886456D02*
X1932800Y887756D01*
X1931500Y884300D02*
Y886456D01*
X1931000Y883800D02*
X1931500Y884300D01*
X1919800Y883800D02*
X1931000D01*
X1917600Y881600D02*
X1919800Y883800D01*
X1917600Y873600D02*
Y881600D01*
X1908720Y864720D02*
X1917600Y873600D01*
X1893080Y864720D02*
X1908720D01*
X1861100Y896700D02*
X1893080Y864720D01*
X1819300Y896700D02*
X1861100D01*
X1815400Y892800D02*
X1819300Y896700D01*
X1815400Y885417D02*
Y892800D01*
Y885417D02*
X1817094Y883722D01*
X1802756Y1043000D02*
X1804370D01*
X1806800Y1040570D01*
X1814244D02*
Y1043000D01*
X1952841Y922200D02*
X1962244D01*
X1802756Y1027000D02*
Y1028800D01*
X1800656Y1030900D02*
X1802756Y1028800D01*
X1794390Y1030900D02*
X1800656D01*
X1793090Y1029600D02*
X1794390Y1030900D01*
X1793090Y1027010D02*
Y1029600D01*
X1787680Y1021600D02*
X1793090Y1027010D01*
X1607244Y1044800D02*
X1609074Y1046630D01*
X1541270Y1008000D02*
X1543554Y1005716D01*
X1541270Y1008000D02*
Y1016000D01*
X1542870Y1017600D01*
X1546610D01*
X1548651Y1015559D01*
X1574400Y1032970D02*
Y1038700D01*
X1581700Y1046000D01*
X1584244D01*
X1267600Y1052400D02*
X1340000Y980000D01*
X1267600Y1052400D02*
Y1085200D01*
X1783229Y1093092D02*
Y1098844D01*
X1784756Y1100371D01*
Y1103000D01*
X1450772Y1014244D02*
X1457000D01*
X1439810Y1025207D02*
X1450772Y1014244D01*
X1439810Y1025207D02*
Y1030390D01*
X1436640Y1033560D02*
X1439810Y1030390D01*
X1401600Y1033560D02*
X1436640D01*
X1397000Y1028960D02*
X1401600Y1033560D01*
X1397000Y1019756D02*
Y1028960D01*
X1378561Y1125429D02*
X1380470Y1127339D01*
X1381472Y1102898D02*
Y1118572D01*
X1801185Y838252D02*
X1813157Y850224D01*
X1425322Y1003522D02*
X1431400Y1009600D01*
Y1014700D01*
X1426344Y1019756D02*
X1431400Y1014700D01*
X1425000Y1019756D02*
X1426344D01*
X1469556Y740244D02*
X1497000D01*
X1641700Y966400D02*
X1647000Y961100D01*
X1751918Y932800D02*
X1755189Y936071D01*
X1834109Y987535D02*
X1834400Y987244D01*
X1837000D01*
X1484378Y1097193D02*
X1488000D01*
X1490866D01*
X1490430Y1091200D02*
Y1094763D01*
X1488800Y1089570D02*
X1490430Y1091200D01*
X1448233Y1089570D02*
X1488800D01*
X1370184Y1200000D02*
X1420000D01*
X1366984Y1196800D02*
X1370184Y1200000D01*
X1366984Y1164898D02*
Y1167316D01*
X1365600Y1168700D02*
X1366984Y1167316D01*
X1357800Y1168700D02*
X1365600D01*
X1352321Y1052321D02*
Y1054400D01*
X1364168Y1066247D01*
X1421928D01*
X1352100Y1135600D02*
Y1137600D01*
X1354500Y1140000D01*
X1357189D01*
X1402161Y1090718D02*
Y1111636D01*
Y1090718D02*
X1406789Y1086089D01*
X1295646Y1115654D02*
X1352228D01*
X1265000Y1146300D02*
X1295646Y1115654D01*
X1265000Y1146300D02*
Y1158400D01*
X1266600Y1160000D01*
X1275000D01*
X1280000Y1165000D01*
X1526000Y826400D02*
Y828244D01*
X1515152Y815552D02*
X1526000Y826400D01*
X1446000Y816244D02*
X1470668D01*
X1488000Y936524D02*
X1488578Y937102D01*
X1488000Y930756D02*
Y936524D01*
X1577329Y1050371D02*
X1581700Y1046000D01*
X1425000Y930756D02*
Y930800D01*
X1458000Y930756D02*
Y930800D01*
X1592216Y1073811D02*
X1593499Y1072527D01*
X1597957D01*
X1599241Y1073811D01*
X1594841Y1089559D02*
X1596900Y1087500D01*
Y1083017D02*
Y1087500D01*
X1593600Y1079717D02*
X1596900Y1083017D01*
X1783275Y962351D02*
Y979044D01*
X1781919Y960995D02*
X1783275Y962351D01*
X1773000Y940244D02*
X1776000D01*
X1778126Y942370D01*
Y964152D01*
X1779605Y965631D01*
X1922867Y864000D02*
X1923323Y864456D01*
X1863914Y1159686D02*
X1865600Y1158000D01*
X1863914Y1159686D02*
Y1167251D01*
X1882756Y1042000D02*
X1884800D01*
X1886400Y1043600D01*
Y1056400D01*
X1884800Y1058000D02*
X1886400Y1056400D01*
X1882756Y1058000D02*
X1884800D01*
X1693800Y1144800D02*
X1695641D01*
X1942300Y882244D02*
X1948544Y876000D01*
X1937000Y882244D02*
X1942300D01*
X1914200Y824900D02*
X1964900Y875600D01*
X1513600Y740244D02*
X1514900Y741544D01*
Y748100D01*
X1513600Y749400D02*
X1514900Y748100D01*
X1508201Y749400D02*
X1513600D01*
X1506001Y747200D02*
X1508201Y749400D01*
X1504000Y745756D02*
X1506001D01*
X1405198Y1119200D02*
Y1121741D01*
Y1119200D02*
X1406247Y1118151D01*
X1409000Y1116244D02*
Y1118151D01*
X1430000Y750244D02*
X1436400D01*
X1504000Y747100D02*
X1506221Y749321D01*
X1504000Y745756D02*
Y747100D01*
X1809900Y853156D02*
X1810500Y853756D01*
X1837900Y854000D02*
X1839900Y856000D01*
X1603600Y977600D02*
Y995200D01*
Y977600D02*
X1606300Y974900D01*
X1882756Y1091000D02*
X1884800D01*
X1887921Y1087879D01*
Y1069121D02*
Y1087879D01*
X1884800Y1066000D02*
X1887921Y1069121D01*
X1416000Y750244D02*
X1423000D01*
X1625241Y1015559D02*
X1626400Y1014400D01*
X1937000Y875750D02*
Y882244D01*
X1936774Y875524D02*
X1937000Y875750D01*
X1634000Y1103800D02*
Y1112700D01*
X1672100Y1158400D02*
X1675139Y1161439D01*
X1672100Y1150400D02*
Y1158400D01*
Y1150400D02*
X1673256Y1149244D01*
X1733000Y1143600D02*
Y1148244D01*
X1791244Y1099356D02*
Y1103000D01*
Y1099356D02*
X1791300Y1099300D01*
X1427866Y1097063D02*
Y1099200D01*
X1429566Y1100900D01*
X1436903D01*
X1437000Y1088042D02*
Y1100803D01*
X1428849Y1079890D02*
X1437000Y1088042D01*
X1423637Y1079890D02*
X1428849D01*
X1421928Y1081600D02*
X1423637Y1079890D01*
X1409000Y1094169D02*
X1414879Y1088290D01*
X1427268D02*
X1433378Y1094400D01*
Y1097063D01*
X1423200Y1090500D02*
Y1092800D01*
X1420990Y1088290D02*
X1423200Y1090500D01*
X1409000Y1095673D02*
X1416383Y1088290D01*
X1623759Y1015559D02*
X1624428Y1016228D01*
X1423000Y750022D02*
Y750244D01*
X1430000Y750022D02*
Y750244D01*
X1720486Y988500D02*
X1729284Y979703D01*
X1681905Y988500D02*
X1720486D01*
X1678102Y984698D02*
X1681905Y988500D01*
X1619000Y983732D02*
X1620000Y984732D01*
X1619000Y982500D02*
Y983732D01*
X2006400Y897900D02*
X2010900Y893400D01*
Y883200D02*
Y893400D01*
X2009944Y882244D02*
X2010900Y883200D01*
X2007000Y882244D02*
X2009944D01*
X1693850Y984301D02*
X1696000Y986450D01*
X1722533D01*
X1729284Y979700D01*
X1704144Y940244D02*
X1706000Y942100D01*
X1607244Y980000D02*
Y982000D01*
Y980000D02*
X1609046Y978198D01*
X1615398D01*
X1616400Y979200D01*
Y982132D01*
X1625600Y995244D02*
X1626269Y994575D01*
X1280000Y1165000D02*
X1296008Y1148992D01*
X1873900Y1167900D02*
Y1174000D01*
X1868712Y1179188D02*
X1873900Y1174000D01*
X1853188Y1179188D02*
X1868712D01*
X1841000Y1167000D02*
X1853188Y1179188D01*
X1811189Y820800D02*
X1812789Y819200D01*
X1819800D01*
X1824154Y823554D01*
X1603200Y1027370D02*
X1607244Y1031414D01*
X1843400Y856000D02*
X1847244D01*
X1828244Y1161600D02*
X1831844Y1158000D01*
X1828244Y1161600D02*
Y1173000D01*
X1385600Y1019756D02*
X1397000D01*
X1381100Y971200D02*
Y1015256D01*
Y971200D02*
X1382056Y970244D01*
X1385000D01*
Y975756D02*
Y982324D01*
X1793800Y840000D02*
Y847395D01*
X1793100Y848095D02*
X1793800Y847395D01*
X1492800Y1024700D02*
X1494614Y1022886D01*
Y1020378D02*
Y1022886D01*
X1320000Y830000D02*
X1335900D01*
X1339700Y826200D01*
X1603230Y1113000D02*
X1606244D01*
X1599756D02*
X1603230D01*
X1397000Y1014244D02*
X1402988D01*
X1408500Y1019756D01*
X1414000D01*
X1352228Y1115500D02*
Y1115654D01*
X1492800Y1020378D02*
X1494614D01*
X1490800Y1018378D02*
X1492800Y1020378D01*
X1490800Y1016000D02*
Y1018378D01*
X1489044Y1014244D02*
X1490800Y1016000D01*
X1486000Y1014244D02*
X1489044D01*
X1871244Y1145600D02*
Y1148000D01*
Y1145600D02*
X1873144Y1143700D01*
X1879300D01*
X1880400Y1144800D01*
Y1156000D01*
X1878400Y1158000D02*
X1880400Y1156000D01*
X1876756Y1158000D02*
X1878400D01*
X1785900Y847200D02*
Y848800D01*
X1841000Y1167000D02*
Y1171200D01*
X1839200Y1173000D02*
X1841000Y1171200D01*
X1833756Y1173000D02*
X1839200D01*
X1828244Y1183244D02*
X1835000Y1190000D01*
X1828244Y1173000D02*
Y1183244D01*
X1397000Y1005324D02*
Y1014244D01*
X1396976Y1005300D02*
X1397000Y1005324D01*
X1285000Y1170756D02*
X1292000D01*
X1284244Y1170000D02*
X1285000Y1170756D01*
X1275000Y1170000D02*
X1284244D01*
X1270000Y1175000D02*
X1275000Y1170000D01*
X1356800Y1247244D02*
X1360000D01*
X1353300Y1250744D02*
X1356800Y1247244D01*
X1353300Y1250744D02*
Y1283300D01*
X1360000Y1290000D01*
X1819300Y833600D02*
Y852800D01*
X1815000Y1290000D02*
X1820000D01*
X1825000D01*
X1510000D02*
X1515000D01*
X1520000D01*
X1863000Y1135000D02*
Y1140000D01*
X1879055Y1162599D02*
Y1165000D01*
X1876756Y1160300D02*
X1879055Y1162599D01*
X1876756Y1158000D02*
Y1160300D01*
X1802756Y962000D02*
Y969000D01*
Y956800D02*
Y962000D01*
X1380000Y1270000D02*
X1400000D01*
X1360000D02*
X1380000D01*
X1292000Y1170756D02*
Y1179244D01*
X1369900Y1247244D02*
X1380000D01*
X1369900Y1247244D02*
X1369900Y1247244D01*
X1360000Y1247244D02*
X1369900D01*
X1380000Y1247244D02*
X1400000D01*
X1360000Y1290000D02*
X1380000D01*
X1400000D01*
X1515000Y1200000D02*
X1520000D01*
X1510000D02*
X1515000D01*
X1497000Y740244D02*
X1504000D01*
X1414000Y1019756D02*
X1425000D01*
X1980000Y1070000D02*
X2050000D01*
X1980000Y1150000D02*
X2050000D01*
X1910000Y1070000D02*
X1980000D01*
X1882756Y1058000D02*
Y1066000D01*
X1885000Y1109044D02*
Y1125000D01*
X1882756Y1106800D02*
X1885000Y1109044D01*
X1882756Y1091000D02*
Y1106800D01*
X1871244Y1155712D02*
Y1158000D01*
Y1155712D02*
X1876756Y1150200D01*
Y1148000D02*
Y1150200D01*
X1820000Y1200000D02*
X1825000D01*
X1815000D02*
X1820000D01*
X1773000Y922756D02*
Y940244D01*
X1714000Y922756D02*
Y935630D01*
X1704144Y940244D02*
X1714000D01*
X1425000Y925244D02*
X1458000D01*
X1474212Y1019756D02*
X1486000D01*
X1468700Y1014244D02*
X1474212Y1019756D01*
X1457000Y1014244D02*
X1468700D01*
D30*
X1488315Y956588D02*
Y961362D01*
Y946615D02*
X1488578D01*
X1488315Y996441D02*
Y1008392D01*
X1425322Y947622D02*
Y952590D01*
X1488315Y947622D02*
Y956588D01*
X1490153Y963200D02*
X1545934D01*
X1488315Y961362D02*
X1490153Y963200D01*
X1456818Y996441D02*
Y1001313D01*
Y943718D02*
Y947622D01*
Y943718D02*
X1459030Y941506D01*
X1425322Y996441D02*
Y1003522D01*
X1488315Y946615D02*
Y947622D01*
X1488578Y937102D02*
Y946615D01*
X1385000Y982324D02*
X1396976Y994300D01*
Y996441D01*
Y1005300D01*
D31*
X1863914Y1167251D02*
X1865600Y1168937D01*
X1868819D01*
X1876800Y1165000D02*
X1879055D01*
X1873900Y1167900D02*
X1876800Y1165000D01*
D33*
X2161000Y750497D02*
Y740500D01*
X2165998D01*
X2167665Y742166D01*
Y743832D01*
X2165998Y745498D01*
X2161000D01*
X2165998D01*
X2167665Y747164D01*
Y748831D01*
X2165998Y750497D01*
X2161000D01*
X2172663Y740500D02*
X2175995D01*
X2177661Y742166D01*
Y745498D01*
X2175995Y747164D01*
X2172663D01*
X2170997Y745498D01*
Y742166D01*
X2172663Y740500D01*
X2182660Y748831D02*
Y747164D01*
X2180993D01*
X2184326D01*
X2182660D01*
Y742166D01*
X2184326Y740500D01*
X2190990Y748831D02*
Y747164D01*
X2189324D01*
X2192656D01*
X2190990D01*
Y742166D01*
X2192656Y740500D01*
X2199321D02*
X2202653D01*
X2204319Y742166D01*
Y745498D01*
X2202653Y747164D01*
X2199321D01*
X2197655Y745498D01*
Y742166D01*
X2199321Y740500D01*
X2207652D02*
Y747164D01*
X2209318D01*
X2210984Y745498D01*
Y740500D01*
Y745498D01*
X2212650Y747164D01*
X2214316Y745498D01*
Y740500D01*
X2227645Y750497D02*
Y740500D01*
X2234310D01*
X2239308Y747164D02*
X2242640D01*
X2244306Y745498D01*
Y740500D01*
X2239308D01*
X2237642Y742166D01*
X2239308Y743832D01*
X2244306D01*
X2247639Y747164D02*
Y742166D01*
X2249305Y740500D01*
X2254303D01*
Y738834D01*
X2252637Y737168D01*
X2250971D01*
X2254303Y740500D02*
Y747164D01*
X2262634Y740500D02*
X2259302D01*
X2257635Y742166D01*
Y745498D01*
X2259302Y747164D01*
X2262634D01*
X2264300Y745498D01*
Y743832D01*
X2257635D01*
X2267632Y747164D02*
Y740500D01*
Y743832D01*
X2269298Y745498D01*
X2270964Y747164D01*
X2272631D01*
D34*
X1991811Y844000D02*
D03*
X1960315D02*
D03*
X1890315D02*
D03*
X1921811D02*
D03*
D35*
X2060000Y1080000D02*
D03*
X2040000D02*
D03*
X2050000Y1070000D02*
D03*
Y1150000D02*
D03*
X2040000Y1160000D02*
D03*
X2060000D02*
D03*
X1980000Y1150000D02*
D03*
X1970000Y1160000D02*
D03*
X1990000D02*
D03*
X1910000Y1070000D02*
D03*
X1900000Y1080000D02*
D03*
X1920000D02*
D03*
X1980000Y1070000D02*
D03*
X1970000Y1080000D02*
D03*
X1990000D02*
D03*
D36*
X1924764Y970630D02*
D03*
X1910000D02*
D03*
X1895236D02*
D03*
X1994764D02*
D03*
X1980000D02*
D03*
X1965236D02*
D03*
D37*
X1888346Y1010000D02*
D03*
X1931654D02*
D03*
X1958346D02*
D03*
X2001654D02*
D03*
D38*
X1905000Y1290000D02*
D03*
X1885000D02*
D03*
X1865000D02*
D03*
X1845000D02*
D03*
X1825000D02*
D03*
X1725000D02*
D03*
X1745000D02*
D03*
X1765000D02*
D03*
X1785000D02*
D03*
X1805000D02*
D03*
X1500000D02*
D03*
X1480000D02*
D03*
X1460000D02*
D03*
X1440000D02*
D03*
X1420000D02*
D03*
X1520000D02*
D03*
X1540000D02*
D03*
X1560000D02*
D03*
X1580000D02*
D03*
X1600000D02*
D03*
D39*
X1905000Y1280000D02*
D03*
Y1270000D02*
D03*
Y1260000D02*
D03*
Y1250000D02*
D03*
Y1240000D02*
D03*
Y1230000D02*
D03*
Y1220000D02*
D03*
Y1210000D02*
D03*
Y1200000D02*
D03*
X1915000Y1290000D02*
D03*
Y1280000D02*
D03*
Y1270000D02*
D03*
Y1260000D02*
D03*
Y1250000D02*
D03*
Y1240000D02*
D03*
Y1230000D02*
D03*
Y1220000D02*
D03*
Y1210000D02*
D03*
Y1200000D02*
D03*
X1885000Y1280000D02*
D03*
Y1270000D02*
D03*
Y1260000D02*
D03*
Y1250000D02*
D03*
Y1240000D02*
D03*
Y1230000D02*
D03*
Y1220000D02*
D03*
Y1210000D02*
D03*
Y1200000D02*
D03*
X1895000Y1290000D02*
D03*
Y1280000D02*
D03*
Y1270000D02*
D03*
Y1260000D02*
D03*
Y1250000D02*
D03*
Y1240000D02*
D03*
Y1230000D02*
D03*
Y1220000D02*
D03*
Y1210000D02*
D03*
Y1200000D02*
D03*
X1865000Y1280000D02*
D03*
Y1270000D02*
D03*
Y1260000D02*
D03*
Y1250000D02*
D03*
Y1240000D02*
D03*
Y1230000D02*
D03*
Y1220000D02*
D03*
Y1210000D02*
D03*
Y1200000D02*
D03*
X1875000Y1290000D02*
D03*
Y1280000D02*
D03*
Y1270000D02*
D03*
Y1260000D02*
D03*
Y1250000D02*
D03*
Y1240000D02*
D03*
Y1230000D02*
D03*
Y1220000D02*
D03*
Y1210000D02*
D03*
Y1200000D02*
D03*
X1845000Y1280000D02*
D03*
Y1270000D02*
D03*
Y1260000D02*
D03*
Y1250000D02*
D03*
Y1240000D02*
D03*
Y1230000D02*
D03*
Y1220000D02*
D03*
Y1210000D02*
D03*
Y1200000D02*
D03*
X1855000Y1290000D02*
D03*
Y1280000D02*
D03*
Y1270000D02*
D03*
Y1260000D02*
D03*
Y1250000D02*
D03*
Y1240000D02*
D03*
Y1230000D02*
D03*
Y1220000D02*
D03*
Y1210000D02*
D03*
Y1200000D02*
D03*
X1835000D02*
D03*
Y1210000D02*
D03*
Y1220000D02*
D03*
Y1230000D02*
D03*
Y1240000D02*
D03*
Y1250000D02*
D03*
Y1260000D02*
D03*
Y1270000D02*
D03*
Y1280000D02*
D03*
Y1290000D02*
D03*
X1825000Y1200000D02*
D03*
Y1210000D02*
D03*
Y1220000D02*
D03*
Y1230000D02*
D03*
Y1240000D02*
D03*
Y1250000D02*
D03*
Y1260000D02*
D03*
Y1270000D02*
D03*
Y1280000D02*
D03*
X1725000D02*
D03*
Y1270000D02*
D03*
Y1260000D02*
D03*
Y1250000D02*
D03*
Y1240000D02*
D03*
Y1230000D02*
D03*
Y1220000D02*
D03*
Y1210000D02*
D03*
Y1200000D02*
D03*
X1735000Y1290000D02*
D03*
Y1280000D02*
D03*
Y1270000D02*
D03*
Y1260000D02*
D03*
Y1250000D02*
D03*
Y1240000D02*
D03*
Y1230000D02*
D03*
Y1220000D02*
D03*
Y1210000D02*
D03*
Y1200000D02*
D03*
X1755000D02*
D03*
Y1210000D02*
D03*
Y1220000D02*
D03*
Y1230000D02*
D03*
Y1240000D02*
D03*
Y1250000D02*
D03*
Y1260000D02*
D03*
Y1270000D02*
D03*
Y1280000D02*
D03*
Y1290000D02*
D03*
X1745000Y1200000D02*
D03*
Y1210000D02*
D03*
Y1220000D02*
D03*
Y1230000D02*
D03*
Y1240000D02*
D03*
Y1250000D02*
D03*
Y1260000D02*
D03*
Y1270000D02*
D03*
Y1280000D02*
D03*
X1775000Y1200000D02*
D03*
Y1210000D02*
D03*
Y1220000D02*
D03*
Y1230000D02*
D03*
Y1240000D02*
D03*
Y1250000D02*
D03*
Y1260000D02*
D03*
Y1270000D02*
D03*
Y1280000D02*
D03*
Y1290000D02*
D03*
X1765000Y1200000D02*
D03*
Y1210000D02*
D03*
Y1220000D02*
D03*
Y1230000D02*
D03*
Y1240000D02*
D03*
Y1250000D02*
D03*
Y1260000D02*
D03*
Y1270000D02*
D03*
Y1280000D02*
D03*
X1795000Y1200000D02*
D03*
Y1210000D02*
D03*
Y1220000D02*
D03*
Y1230000D02*
D03*
Y1240000D02*
D03*
Y1250000D02*
D03*
Y1260000D02*
D03*
Y1270000D02*
D03*
Y1280000D02*
D03*
Y1290000D02*
D03*
X1785000Y1200000D02*
D03*
Y1210000D02*
D03*
Y1220000D02*
D03*
Y1230000D02*
D03*
Y1240000D02*
D03*
Y1250000D02*
D03*
Y1260000D02*
D03*
Y1270000D02*
D03*
Y1280000D02*
D03*
X1815000Y1200000D02*
D03*
Y1210000D02*
D03*
Y1220000D02*
D03*
Y1230000D02*
D03*
Y1240000D02*
D03*
Y1250000D02*
D03*
Y1260000D02*
D03*
Y1270000D02*
D03*
Y1280000D02*
D03*
Y1290000D02*
D03*
X1805000Y1200000D02*
D03*
Y1210000D02*
D03*
Y1220000D02*
D03*
Y1230000D02*
D03*
Y1240000D02*
D03*
Y1250000D02*
D03*
Y1260000D02*
D03*
Y1270000D02*
D03*
Y1280000D02*
D03*
X1811000Y1137000D02*
D03*
Y1167000D02*
D03*
X1841000D02*
D03*
X1500000Y1280000D02*
D03*
Y1270000D02*
D03*
Y1260000D02*
D03*
Y1250000D02*
D03*
Y1240000D02*
D03*
Y1230000D02*
D03*
Y1220000D02*
D03*
Y1210000D02*
D03*
Y1200000D02*
D03*
X1510000Y1290000D02*
D03*
Y1280000D02*
D03*
Y1270000D02*
D03*
Y1260000D02*
D03*
Y1250000D02*
D03*
Y1240000D02*
D03*
Y1230000D02*
D03*
Y1220000D02*
D03*
Y1210000D02*
D03*
Y1200000D02*
D03*
X1480000Y1280000D02*
D03*
Y1270000D02*
D03*
Y1260000D02*
D03*
Y1250000D02*
D03*
Y1240000D02*
D03*
Y1230000D02*
D03*
Y1220000D02*
D03*
Y1210000D02*
D03*
Y1200000D02*
D03*
X1490000Y1290000D02*
D03*
Y1280000D02*
D03*
Y1270000D02*
D03*
Y1260000D02*
D03*
Y1250000D02*
D03*
Y1240000D02*
D03*
Y1230000D02*
D03*
Y1220000D02*
D03*
Y1210000D02*
D03*
Y1200000D02*
D03*
X1460000Y1280000D02*
D03*
Y1270000D02*
D03*
Y1260000D02*
D03*
Y1250000D02*
D03*
Y1240000D02*
D03*
Y1230000D02*
D03*
Y1220000D02*
D03*
Y1210000D02*
D03*
Y1200000D02*
D03*
X1470000Y1290000D02*
D03*
Y1280000D02*
D03*
Y1270000D02*
D03*
Y1260000D02*
D03*
Y1250000D02*
D03*
Y1240000D02*
D03*
Y1230000D02*
D03*
Y1220000D02*
D03*
Y1210000D02*
D03*
Y1200000D02*
D03*
X1440000Y1280000D02*
D03*
Y1270000D02*
D03*
Y1260000D02*
D03*
Y1250000D02*
D03*
Y1240000D02*
D03*
Y1230000D02*
D03*
Y1220000D02*
D03*
Y1210000D02*
D03*
Y1200000D02*
D03*
X1450000Y1290000D02*
D03*
Y1280000D02*
D03*
Y1270000D02*
D03*
Y1260000D02*
D03*
Y1250000D02*
D03*
Y1240000D02*
D03*
Y1230000D02*
D03*
Y1220000D02*
D03*
Y1210000D02*
D03*
Y1200000D02*
D03*
X1430000D02*
D03*
Y1210000D02*
D03*
Y1220000D02*
D03*
Y1230000D02*
D03*
Y1240000D02*
D03*
Y1250000D02*
D03*
Y1260000D02*
D03*
Y1270000D02*
D03*
Y1280000D02*
D03*
Y1290000D02*
D03*
X1420000Y1200000D02*
D03*
Y1210000D02*
D03*
Y1220000D02*
D03*
Y1230000D02*
D03*
Y1240000D02*
D03*
Y1250000D02*
D03*
Y1260000D02*
D03*
Y1270000D02*
D03*
Y1280000D02*
D03*
X1520000D02*
D03*
Y1270000D02*
D03*
Y1260000D02*
D03*
Y1250000D02*
D03*
Y1240000D02*
D03*
Y1230000D02*
D03*
Y1220000D02*
D03*
Y1210000D02*
D03*
Y1200000D02*
D03*
X1530000Y1290000D02*
D03*
Y1280000D02*
D03*
Y1270000D02*
D03*
Y1260000D02*
D03*
Y1250000D02*
D03*
Y1240000D02*
D03*
Y1230000D02*
D03*
Y1220000D02*
D03*
Y1210000D02*
D03*
Y1200000D02*
D03*
X1550000D02*
D03*
Y1210000D02*
D03*
Y1220000D02*
D03*
Y1230000D02*
D03*
Y1240000D02*
D03*
Y1250000D02*
D03*
Y1260000D02*
D03*
Y1270000D02*
D03*
Y1280000D02*
D03*
Y1290000D02*
D03*
X1540000Y1200000D02*
D03*
Y1210000D02*
D03*
Y1220000D02*
D03*
Y1230000D02*
D03*
Y1240000D02*
D03*
Y1250000D02*
D03*
Y1260000D02*
D03*
Y1270000D02*
D03*
Y1280000D02*
D03*
X1570000Y1200000D02*
D03*
Y1210000D02*
D03*
Y1220000D02*
D03*
Y1230000D02*
D03*
Y1240000D02*
D03*
Y1250000D02*
D03*
Y1260000D02*
D03*
Y1270000D02*
D03*
Y1280000D02*
D03*
Y1290000D02*
D03*
X1560000Y1200000D02*
D03*
Y1210000D02*
D03*
Y1220000D02*
D03*
Y1230000D02*
D03*
Y1240000D02*
D03*
Y1250000D02*
D03*
Y1260000D02*
D03*
Y1270000D02*
D03*
Y1280000D02*
D03*
X1590000Y1200000D02*
D03*
Y1210000D02*
D03*
Y1220000D02*
D03*
Y1230000D02*
D03*
Y1240000D02*
D03*
Y1250000D02*
D03*
Y1260000D02*
D03*
Y1270000D02*
D03*
Y1280000D02*
D03*
Y1290000D02*
D03*
X1580000Y1200000D02*
D03*
Y1210000D02*
D03*
Y1220000D02*
D03*
Y1230000D02*
D03*
Y1240000D02*
D03*
Y1250000D02*
D03*
Y1260000D02*
D03*
Y1270000D02*
D03*
Y1280000D02*
D03*
X1610000Y1200000D02*
D03*
Y1210000D02*
D03*
Y1220000D02*
D03*
Y1230000D02*
D03*
Y1240000D02*
D03*
Y1250000D02*
D03*
Y1260000D02*
D03*
Y1270000D02*
D03*
Y1280000D02*
D03*
Y1290000D02*
D03*
X1600000Y1200000D02*
D03*
Y1210000D02*
D03*
Y1220000D02*
D03*
Y1230000D02*
D03*
Y1240000D02*
D03*
Y1250000D02*
D03*
Y1260000D02*
D03*
Y1270000D02*
D03*
Y1280000D02*
D03*
D40*
X1340000Y870000D02*
D03*
Y1040000D02*
D03*
Y980000D02*
D03*
Y920000D02*
D03*
D41*
X2070000Y800000D02*
D03*
X1280000Y1155000D02*
D03*
X1630000Y1280000D02*
D03*
X1360000Y1270000D02*
D03*
X1380000D02*
D03*
X1400000D02*
D03*
X1710000Y1280000D02*
D03*
D42*
X2070000Y810000D02*
D03*
Y820000D02*
D03*
Y830000D02*
D03*
Y840000D02*
D03*
Y850000D02*
D03*
Y860000D02*
D03*
Y870000D02*
D03*
X1280000Y1165000D02*
D03*
Y1175000D02*
D03*
Y1185000D02*
D03*
Y1195000D02*
D03*
X1270000Y1155000D02*
D03*
Y1165000D02*
D03*
Y1175000D02*
D03*
Y1185000D02*
D03*
Y1195000D02*
D03*
X1815000Y1190000D02*
D03*
X1825000D02*
D03*
X1630000Y1210000D02*
D03*
Y1220000D02*
D03*
Y1230000D02*
D03*
Y1240000D02*
D03*
Y1250000D02*
D03*
Y1260000D02*
D03*
Y1270000D02*
D03*
X1360000Y1290000D02*
D03*
Y1280000D02*
D03*
X1380000Y1290000D02*
D03*
Y1280000D02*
D03*
X1400000Y1290000D02*
D03*
Y1280000D02*
D03*
X1710000Y1210000D02*
D03*
Y1220000D02*
D03*
Y1230000D02*
D03*
Y1240000D02*
D03*
Y1250000D02*
D03*
Y1260000D02*
D03*
Y1270000D02*
D03*
D43*
X2020787Y750000D02*
D03*
X1980787D02*
D03*
X1920787D02*
D03*
X1880787D02*
D03*
D44*
X2010787Y770000D02*
D03*
X2000787D02*
D03*
X1910787D02*
D03*
X1900787D02*
D03*
D45*
X1835000Y1190000D02*
D03*
D46*
X1277500Y745000D02*
D03*
Y1276000D02*
D03*
X2064500Y745000D02*
D03*
Y1276000D02*
D03*
D47*
X1841000Y1137000D02*
D03*
D48*
X1310000Y840000D02*
D03*
X1320000Y830000D02*
D03*
X1310000Y810000D02*
D03*
X1320000Y790000D02*
D03*
D49*
X1270000Y830000D02*
D03*
Y790000D02*
D03*
D50*
X1310000Y780000D02*
D03*
D51*
X1898189Y1146811D02*
D03*
X1378189Y856811D02*
D03*
X1458189D02*
D03*
X1538189D02*
D03*
X1618189D02*
D03*
X2038189Y1226811D02*
D03*
X1968189D02*
D03*
X1698189Y856811D02*
D03*
D52*
X1921811Y1146811D02*
D03*
X1401811Y856811D02*
D03*
X1481811D02*
D03*
X1561811D02*
D03*
X1641811D02*
D03*
X2061811Y1226811D02*
D03*
X1991811D02*
D03*
X1721811Y856811D02*
D03*
D53*
X1511400Y763800D02*
D03*
X1404700Y932900D02*
D03*
X1410000Y935000D02*
D03*
X1439000Y942000D02*
D03*
X1922000Y921000D02*
D03*
X1908425Y792825D02*
D03*
X1998425Y810625D02*
D03*
X1908425D02*
D03*
X1914000Y875500D02*
D03*
X1415800Y1100700D02*
D03*
X1892900Y813700D02*
D03*
X1496378Y1105400D02*
D03*
X1386300Y1150961D02*
D03*
X1457376Y1124524D02*
D03*
X1425300Y1137000D02*
D03*
X1442000Y1108500D02*
D03*
X1433790Y1119910D02*
D03*
X1412223Y1128800D02*
D03*
X1426900Y1119600D02*
D03*
X1387600Y1124300D02*
D03*
X1434600Y1074477D02*
D03*
X1387000Y1111800D02*
D03*
X1827200Y846400D02*
D03*
X1578100Y968600D02*
D03*
X1975000Y1083900D02*
D03*
X1424392Y942360D02*
D03*
X1490200Y987500D02*
D03*
X1733700Y939800D02*
D03*
X1303600Y1121433D02*
D03*
X1732800Y978000D02*
D03*
X1699000Y927000D02*
D03*
X1599900Y1021464D02*
D03*
Y1033534D02*
D03*
X1541866Y1110100D02*
D03*
X1601190Y1046000D02*
D03*
X1604300Y1093600D02*
D03*
X1590800Y1113000D02*
D03*
X1714700Y1131800D02*
D03*
X1710520Y1108900D02*
D03*
X1718100Y1142800D02*
D03*
X1733400Y1137200D02*
D03*
X1750600Y1065400D02*
D03*
X1753800Y1026071D02*
D03*
X1781100Y1081100D02*
D03*
X1802900Y987535D02*
D03*
X1696743Y981800D02*
D03*
X1400590Y760258D02*
D03*
X1425100Y1045600D02*
D03*
X1660244Y910256D02*
D03*
X1684071Y981800D02*
D03*
X1805600Y1015300D02*
D03*
X1783200Y1001600D02*
D03*
X1782000Y1026071D02*
D03*
X1669000Y1107900D02*
D03*
X1804689Y1079500D02*
D03*
X1819300Y829100D02*
D03*
X1705970Y980000D02*
D03*
X1767800Y968400D02*
D03*
X1731200Y1080500D02*
D03*
X1679600Y1167800D02*
D03*
X1696800Y1163148D02*
D03*
X1717433Y1164667D02*
D03*
X1722770Y1166400D02*
D03*
X1720100Y1169900D02*
D03*
X1672000Y1037830D02*
D03*
X1674700Y1043200D02*
D03*
X1782019Y1041300D02*
D03*
X1873300Y1061700D02*
D03*
X1840200Y1058800D02*
D03*
X1834800Y1087100D02*
D03*
X1847700Y1093900D02*
D03*
X1858100Y1043900D02*
D03*
X1623053Y831047D02*
D03*
X1535100Y875700D02*
D03*
X1571600Y1158000D02*
D03*
X1603700Y1190100D02*
D03*
X1819400Y1097800D02*
D03*
X1377900Y799000D02*
D03*
X1866200Y1182900D02*
D03*
X1838244Y1101345D02*
D03*
X1833600Y1000200D02*
D03*
X1847600Y1003700D02*
D03*
X1945100Y1055100D02*
D03*
X1860000Y1029867D02*
D03*
X1414600Y957600D02*
D03*
X1860400Y1067100D02*
D03*
X1868300Y1162200D02*
D03*
X1843800Y1035200D02*
D03*
X1839700Y1019600D02*
D03*
X1848200D02*
D03*
X1833600Y967900D02*
D03*
X1816400Y972600D02*
D03*
X1817400Y1003300D02*
D03*
X1808800D02*
D03*
X1789100Y1035900D02*
D03*
X1840200Y1054100D02*
D03*
X1828200Y952800D02*
D03*
X1854300D02*
D03*
X1873200Y1030200D02*
D03*
X1842439Y1022370D02*
D03*
X1832400Y1063900D02*
D03*
X1814400Y942700D02*
D03*
X1811788Y1060450D02*
D03*
X1821000Y942100D02*
D03*
X1818200Y1058200D02*
D03*
X1860800Y1041200D02*
D03*
X1725600Y1131900D02*
D03*
X1738000Y1084100D02*
D03*
X1755400Y1093000D02*
D03*
X1774800Y1112400D02*
D03*
X1812900Y1093400D02*
D03*
X1810800Y1072346D02*
D03*
X1743300Y1123300D02*
D03*
X1673400Y1143400D02*
D03*
X1718300Y1093000D02*
D03*
Y1134556D02*
D03*
X1722300Y1137000D02*
D03*
X1695145Y1087300D02*
D03*
X1590600Y1063600D02*
D03*
X1625800Y1123500D02*
D03*
X1619600Y1087700D02*
D03*
X1650950Y1071250D02*
D03*
X1744100Y938200D02*
D03*
X1730100Y924000D02*
D03*
X1725400Y934600D02*
D03*
X1731252Y962548D02*
D03*
X1751300Y956300D02*
D03*
X1745032Y977166D02*
D03*
X1745825Y961700D02*
D03*
X1800300Y1038900D02*
D03*
X1949600Y880700D02*
D03*
X1941502Y946298D02*
D03*
X1940800Y871800D02*
D03*
X1755200Y994000D02*
D03*
X1631800Y1174200D02*
D03*
X1557633Y1135500D02*
D03*
X1566500Y1115900D02*
D03*
X1667900Y1137800D02*
D03*
X1742400Y992700D02*
D03*
X1492638Y814644D02*
D03*
X1530938Y809500D02*
D03*
X1320700Y985700D02*
D03*
X1426700Y953967D02*
D03*
X1607600Y1101600D02*
D03*
X1485928Y958975D02*
D03*
X1673400Y1114600D02*
D03*
X1703651Y1113923D02*
D03*
X1876100Y824900D02*
D03*
X1684008Y1113592D02*
D03*
X1770100Y1103000D02*
D03*
X1764800Y1062500D02*
D03*
X1685700Y929800D02*
D03*
X1749284Y909000D02*
D03*
X1790100Y976700D02*
D03*
X1645800Y940244D02*
D03*
X1651600Y924800D02*
D03*
X1688300Y889200D02*
D03*
X1441000Y810300D02*
D03*
X1600200Y963400D02*
D03*
X1494200Y1050900D02*
D03*
X1475716Y1004016D02*
D03*
X1443300Y991800D02*
D03*
X1444900Y1030496D02*
D03*
X1522072Y1096372D02*
D03*
X1438030Y1003370D02*
D03*
X1433130Y990930D02*
D03*
X1449400Y1076100D02*
D03*
X1544235Y1051200D02*
D03*
X1440582Y936400D02*
D03*
X1436200Y809275D02*
D03*
X1509500Y829400D02*
D03*
X1595280Y1076500D02*
D03*
X1451600Y940600D02*
D03*
X1451500Y955019D02*
D03*
X1538200Y1050900D02*
D03*
X1459968Y952868D02*
D03*
X1558700Y1056000D02*
D03*
X1447300Y830400D02*
D03*
X1463100Y936070D02*
D03*
X1466267Y953428D02*
D03*
X1571100Y1063900D02*
D03*
X1545400Y976900D02*
D03*
X1593270Y1050100D02*
D03*
X1480900Y936000D02*
D03*
X1487600Y841100D02*
D03*
X1429200Y842430D02*
D03*
X1423100Y829500D02*
D03*
X1424900Y840800D02*
D03*
X1419100Y830500D02*
D03*
X1578000Y1034400D02*
D03*
X1496200Y837900D02*
D03*
X1485315Y943000D02*
D03*
X1787600Y1047500D02*
D03*
X1870800Y1071600D02*
D03*
X1653740Y1061504D02*
D03*
X1660600Y1127244D02*
D03*
X1678930Y1040530D02*
D03*
X1587500Y974200D02*
D03*
X1864700Y854400D02*
D03*
X1738700Y877100D02*
D03*
X1743800Y872000D02*
D03*
X1783600Y840400D02*
D03*
X1802300Y834000D02*
D03*
X1753800Y850155D02*
D03*
X1743378Y900100D02*
D03*
X1797900Y856000D02*
D03*
X1757200Y927800D02*
D03*
X1749500Y923915D02*
D03*
X1761700Y865900D02*
D03*
X1558200Y817700D02*
D03*
X1435000Y773800D02*
D03*
X1605200Y823300D02*
D03*
X1499600Y752200D02*
D03*
X1545500Y879400D02*
D03*
X1521300Y829000D02*
D03*
X1522700Y754700D02*
D03*
X1595200Y831700D02*
D03*
X1634400Y852800D02*
D03*
X1673300Y924600D02*
D03*
X1669500Y910900D02*
D03*
Y863600D02*
D03*
X1564200Y813500D02*
D03*
X1519800Y769100D02*
D03*
X1434800Y937200D02*
D03*
X1440984Y775321D02*
D03*
X1393300Y914000D02*
D03*
X1393600Y768800D02*
D03*
X1403800Y951900D02*
D03*
X1407700Y889400D02*
D03*
X1518000D02*
D03*
X1557000Y928400D02*
D03*
X1408500Y775500D02*
D03*
X1452400Y754800D02*
D03*
X1391400Y882700D02*
D03*
X1395500Y765000D02*
D03*
X1402400Y944000D02*
D03*
X1656700Y922900D02*
D03*
Y889700D02*
D03*
X1401000Y851400D02*
D03*
X1407900Y768000D02*
D03*
X1400125Y988400D02*
D03*
X1383200Y864672D02*
D03*
X1378400Y908000D02*
D03*
X1403300Y1002700D02*
D03*
X1381600Y845898D02*
D03*
X1375900Y915800D02*
D03*
X1372300Y819800D02*
D03*
X1409600Y1006200D02*
D03*
X1544800Y1013500D02*
D03*
X1423600Y1049200D02*
D03*
X1416900Y938200D02*
D03*
X1438000Y953700D02*
D03*
X1446100Y1047900D02*
D03*
X1433800Y1063700D02*
D03*
X1446100Y951600D02*
D03*
X1453200Y951400D02*
D03*
X1455410Y1044800D02*
D03*
X1358400Y1089500D02*
D03*
Y1118500D02*
D03*
X1374900Y1121800D02*
D03*
Y1102668D02*
D03*
X1449400Y1053000D02*
D03*
X1444500Y955200D02*
D03*
X1352900Y1125370D02*
D03*
X1353900Y924268D02*
D03*
X1473100Y923400D02*
D03*
X1474800Y938800D02*
D03*
X1481500Y942000D02*
D03*
X1465400Y916500D02*
D03*
X1367800Y915400D02*
D03*
X1373200Y1128300D02*
D03*
Y1132600D02*
D03*
X1383400Y903200D02*
D03*
X1488000D02*
D03*
X1485200Y951600D02*
D03*
X1417000Y991400D02*
D03*
X1377900Y1137870D02*
D03*
X1355700Y1136200D02*
D03*
X1356300Y1052900D02*
D03*
X1441000Y1037200D02*
D03*
Y1000700D02*
D03*
X1372200Y1144700D02*
D03*
X1370500Y1059100D02*
D03*
X1465500Y1037600D02*
D03*
Y1003882D02*
D03*
X1486900Y1093100D02*
D03*
X1485051Y1005100D02*
D03*
X1539100Y1155000D02*
D03*
X1544000Y1077900D02*
D03*
X1508600Y1052900D02*
D03*
X1479700Y1005300D02*
D03*
X1574300Y1138200D02*
D03*
X1558200Y1021200D02*
D03*
X1544800Y1009700D02*
D03*
X1350155Y973055D02*
D03*
X1936900Y946400D02*
D03*
X1901100Y944300D02*
D03*
X1879705Y938205D02*
D03*
X1918200Y946700D02*
D03*
X1764800Y1074200D02*
D03*
X1764700Y1078100D02*
D03*
X1740500Y1152800D02*
D03*
Y1132000D02*
D03*
X1728200Y1119700D02*
D03*
X1764800Y1033945D02*
D03*
X1634000Y1089800D02*
D03*
X1660900Y1066300D02*
D03*
X1747070Y1071670D02*
D03*
X1758030Y989038D02*
D03*
X1764600Y1093000D02*
D03*
Y1019900D02*
D03*
X1432300Y776500D02*
D03*
X1541500Y806300D02*
D03*
X1452700Y1049170D02*
D03*
Y1005400D02*
D03*
X1738700Y940200D02*
D03*
X1992200Y861000D02*
D03*
X1622800Y1093496D02*
D03*
X1652524Y1067462D02*
D03*
X1634000Y1057600D02*
D03*
X1571600Y1205400D02*
D03*
X1650600Y987000D02*
D03*
X1775500Y966800D02*
D03*
X1629290Y1011600D02*
D03*
X1426300Y1083500D02*
D03*
X1403700Y1129300D02*
D03*
X1780200Y1073700D02*
D03*
X1816000Y1121100D02*
D03*
X1755600Y1110600D02*
D03*
X1787700Y1097500D02*
D03*
X1759316Y1109200D02*
D03*
X1791200Y1074600D02*
D03*
X1709500Y976400D02*
D03*
X1705100Y1107500D02*
D03*
X1826400Y1111700D02*
D03*
X1644462Y1149244D02*
D03*
X1775600Y972200D02*
D03*
X1775360Y1095500D02*
D03*
X1781300Y1058000D02*
D03*
X1689800Y1061100D02*
D03*
X1618700Y1235400D02*
D03*
X1779300Y1031500D02*
D03*
X1872600Y1140000D02*
D03*
X1779300Y1065900D02*
D03*
X1817600Y1083900D02*
D03*
X1811000Y1119100D02*
D03*
X1846300Y1119030D02*
D03*
X1819906Y1086900D02*
D03*
X1695000Y1109400D02*
D03*
Y1119400D02*
D03*
X2021900Y1061900D02*
D03*
X1879400Y1037900D02*
D03*
X1817400Y1030700D02*
D03*
Y1049900D02*
D03*
X1819000Y891300D02*
D03*
X1812400Y972000D02*
D03*
X2014900Y941600D02*
D03*
X1814490Y953410D02*
D03*
X1809300Y1045700D02*
D03*
X1873300Y1066300D02*
D03*
X1850000Y1032400D02*
D03*
X1858600Y1080273D02*
D03*
X1787378Y1059178D02*
D03*
X1836200Y1075900D02*
D03*
X1816400Y1068000D02*
D03*
Y1077900D02*
D03*
X1836900Y797700D02*
D03*
X1846500Y807300D02*
D03*
X1842700Y1048300D02*
D03*
X1636400Y923400D02*
D03*
X1582800Y976000D02*
D03*
X1581200Y873200D02*
D03*
X1520000Y763772D02*
D03*
X1444972Y809130D02*
D03*
X1455500Y935000D02*
D03*
X1432100Y955028D02*
D03*
X1530949Y1063000D02*
D03*
X1593300Y1085622D02*
D03*
X1516275Y994075D02*
D03*
X1648534Y1022134D02*
D03*
X1737400Y978870D02*
D03*
X1743800Y953447D02*
D03*
X2042700Y953300D02*
D03*
X1822800Y956600D02*
D03*
X1837800Y1062000D02*
D03*
X1665000Y1092900D02*
D03*
X1685200Y962300D02*
D03*
X1632900Y981800D02*
D03*
X1655100Y1002686D02*
D03*
X1684389Y954200D02*
D03*
X1699000Y933330D02*
D03*
X1594149Y1046000D02*
D03*
X1589770Y999811D02*
D03*
X1731900Y1117249D02*
D03*
X1602500Y808600D02*
D03*
X1806100Y1103200D02*
D03*
X1744732Y1093300D02*
D03*
X1756367Y1118967D02*
D03*
X1803200Y1085200D02*
D03*
X1753600Y1116200D02*
D03*
X1789200Y1093900D02*
D03*
X1888700Y947400D02*
D03*
X1995500Y961500D02*
D03*
X1701900Y979200D02*
D03*
X1677730Y936300D02*
D03*
X1484300Y754300D02*
D03*
X1512800Y837800D02*
D03*
X1596500Y961800D02*
D03*
X1490300Y769700D02*
D03*
X1517100Y753800D02*
D03*
X1506500Y778200D02*
D03*
X1422315Y774400D02*
D03*
X1508189Y767700D02*
D03*
X1862000Y840300D02*
D03*
X1428500Y941100D02*
D03*
X1433400Y814800D02*
D03*
X1633300Y1032500D02*
D03*
X1649200Y1040000D02*
D03*
X1674700Y1047100D02*
D03*
X1656300Y1034100D02*
D03*
X1403800Y1211700D02*
D03*
X1676000Y1138200D02*
D03*
X1685937Y1144800D02*
D03*
X1681130Y1147630D02*
D03*
X1709500Y1030008D02*
D03*
X1832200Y1076900D02*
D03*
X1920000Y1040500D02*
D03*
X1783500Y951700D02*
D03*
X1901200Y960100D02*
D03*
X1962244Y922200D02*
D03*
X1979300Y918500D02*
D03*
X2000000D02*
D03*
X1921800Y926400D02*
D03*
X1993000D02*
D03*
X1851900Y843730D02*
D03*
X1658299Y1083157D02*
D03*
X1610800Y1043100D02*
D03*
X1432400Y1205300D02*
D03*
X1620814Y1046630D02*
D03*
X1633300Y1041000D02*
D03*
X1626200Y1033130D02*
D03*
X1649900Y1055000D02*
D03*
X1628870Y1081189D02*
D03*
X1654212Y1049600D02*
D03*
X1973500Y871700D02*
D03*
X1552400Y1018500D02*
D03*
X1466200Y983000D02*
D03*
X1503700Y992500D02*
D03*
X1466267Y943295D02*
D03*
X1442800Y833000D02*
D03*
X1267600Y1085200D02*
D03*
X1407200Y1027800D02*
D03*
X1380200Y1133700D02*
D03*
X1380100Y1144000D02*
D03*
X1401700Y1028000D02*
D03*
X1766400Y961200D02*
D03*
X1750937Y961000D02*
D03*
X1759000Y938700D02*
D03*
X1432400Y1077700D02*
D03*
X1459556Y750244D02*
D03*
X1469556Y740244D02*
D03*
X1647000Y961100D02*
D03*
X1734244Y932800D02*
D03*
X1462800Y1029600D02*
D03*
Y992200D02*
D03*
X1428900Y1001800D02*
D03*
X1515707Y1102107D02*
D03*
X1408308Y1156700D02*
D03*
X1480600Y1104400D02*
D03*
X1421928Y1066247D02*
D03*
X1406789Y1086089D02*
D03*
X1659400Y976800D02*
D03*
X1651100Y976858D02*
D03*
X1742700Y923900D02*
D03*
X1412700Y810000D02*
D03*
X1781919Y960995D02*
D03*
X1922867Y864000D02*
D03*
X1694000Y1148900D02*
D03*
X1724100Y977800D02*
D03*
X1730900Y936400D02*
D03*
X1521000Y737100D02*
D03*
X1510158Y753942D02*
D03*
X1927800Y887400D02*
D03*
X1400300Y1137950D02*
D03*
X1400400Y1123000D02*
D03*
X1436400Y750244D02*
D03*
X1644000Y1105900D02*
D03*
X1638200Y1097200D02*
D03*
X1809900Y853156D02*
D03*
X1856600Y847000D02*
D03*
X1830400Y840800D02*
D03*
Y836800D02*
D03*
X1748500Y940200D02*
D03*
X1768500Y940244D02*
D03*
X1626400Y1014400D02*
D03*
X1634000Y1112700D02*
D03*
Y1103800D02*
D03*
X1641291Y1103200D02*
D03*
X1791300Y1099300D02*
D03*
X1665300Y1164800D02*
D03*
X1421928Y1081600D02*
D03*
X1423200Y1092800D02*
D03*
X1419000D02*
D03*
X1650600Y990400D02*
D03*
X1993323Y908244D02*
D03*
X1619000Y982500D02*
D03*
X1898400Y871600D02*
D03*
X1924000Y888700D02*
D03*
X1706000Y942100D02*
D03*
X1625600Y995244D02*
D03*
X1710800Y1119800D02*
D03*
X1866000Y1175600D02*
D03*
X1843400Y856000D02*
D03*
X1634900Y973000D02*
D03*
X1339700Y826200D02*
D03*
D54*
X1490473Y833591D02*
D03*
X1492441D02*
D03*
X1494410D02*
D03*
X1496378D02*
D03*
X1498347D02*
D03*
X1500315D02*
D03*
X1502284D02*
D03*
X1504252D02*
D03*
X1506221D02*
D03*
X1508189D02*
D03*
X1510158D02*
D03*
X1512126D02*
D03*
X1514095D02*
D03*
X1516063D02*
D03*
X1518032D02*
D03*
X1520000D02*
D03*
X1490473Y758000D02*
D03*
X1492441D02*
D03*
X1494410D02*
D03*
X1496378D02*
D03*
X1498347D02*
D03*
X1500315D02*
D03*
X1502284D02*
D03*
X1504252D02*
D03*
X1506221D02*
D03*
X1508189D02*
D03*
X1510158D02*
D03*
X1512126D02*
D03*
X1514095D02*
D03*
X1516063D02*
D03*
X1518032D02*
D03*
X1410472Y821937D02*
D03*
X1412441D02*
D03*
X1414409D02*
D03*
X1416378D02*
D03*
X1418346D02*
D03*
X1420315D02*
D03*
X1422283D02*
D03*
X1424252D02*
D03*
X1426220D02*
D03*
X1428189D02*
D03*
X1430157D02*
D03*
X1432126D02*
D03*
X1434094D02*
D03*
X1436063D02*
D03*
X1438031D02*
D03*
X1440000D02*
D03*
X1410472Y768000D02*
D03*
X1412441D02*
D03*
X1414409D02*
D03*
X1416378D02*
D03*
X1418346D02*
D03*
X1420315D02*
D03*
X1422283D02*
D03*
X1424252D02*
D03*
X1426220D02*
D03*
X1428189D02*
D03*
X1430157D02*
D03*
X1432126D02*
D03*
X1434094D02*
D03*
X1436063D02*
D03*
X1438031D02*
D03*
D55*
X1520000Y758000D02*
D03*
X1440000Y768000D02*
D03*
D56*
X1823000Y854000D02*
D03*
D57*
Y852032D02*
D03*
Y850063D02*
D03*
Y848095D02*
D03*
Y846126D02*
D03*
Y844158D02*
D03*
Y842189D02*
D03*
Y840221D02*
D03*
Y838252D02*
D03*
Y836284D02*
D03*
Y834315D02*
D03*
Y832347D02*
D03*
X1789535D02*
D03*
Y834315D02*
D03*
Y836284D02*
D03*
Y838252D02*
D03*
Y840221D02*
D03*
Y842189D02*
D03*
Y844158D02*
D03*
Y846126D02*
D03*
Y848095D02*
D03*
Y850063D02*
D03*
Y852032D02*
D03*
Y854000D02*
D03*
D58*
X1817094Y826441D02*
D03*
X1815126D02*
D03*
X1813157D02*
D03*
X1811189D02*
D03*
X1809220D02*
D03*
X1807252D02*
D03*
X1805283D02*
D03*
X1803315D02*
D03*
X1801346D02*
D03*
X1799378D02*
D03*
X1797409D02*
D03*
X1795441D02*
D03*
Y859906D02*
D03*
X1797409D02*
D03*
X1799378D02*
D03*
X1801346D02*
D03*
X1803315D02*
D03*
X1805283D02*
D03*
X1807252D02*
D03*
X1809220D02*
D03*
X1811189D02*
D03*
X1813157D02*
D03*
X1815126D02*
D03*
X1817094D02*
D03*
D59*
X1613134Y988000D02*
D03*
Y989968D02*
D03*
Y991937D02*
D03*
Y993905D02*
D03*
Y995874D02*
D03*
Y997842D02*
D03*
Y999811D02*
D03*
Y1001779D02*
D03*
Y1003748D02*
D03*
Y1005716D02*
D03*
Y1007685D02*
D03*
Y1009653D02*
D03*
Y1011622D02*
D03*
Y1013590D02*
D03*
Y1015559D02*
D03*
Y1017527D02*
D03*
Y1019496D02*
D03*
Y1021464D02*
D03*
Y1023433D02*
D03*
Y1025401D02*
D03*
Y1027370D02*
D03*
Y1029338D02*
D03*
Y1031307D02*
D03*
Y1033275D02*
D03*
X1584000D02*
D03*
Y989968D02*
D03*
Y988000D02*
D03*
Y1031307D02*
D03*
Y1029338D02*
D03*
Y1027370D02*
D03*
Y1025401D02*
D03*
Y1023433D02*
D03*
Y1021464D02*
D03*
Y1019496D02*
D03*
Y1017527D02*
D03*
Y1015559D02*
D03*
Y1013590D02*
D03*
Y1011622D02*
D03*
Y1009653D02*
D03*
Y1007685D02*
D03*
Y1005716D02*
D03*
Y1003748D02*
D03*
Y1001779D02*
D03*
Y999811D02*
D03*
Y997842D02*
D03*
Y995874D02*
D03*
Y993905D02*
D03*
Y991937D02*
D03*
X1796866Y1021000D02*
D03*
Y1019031D02*
D03*
Y1017063D02*
D03*
Y1015094D02*
D03*
Y1013126D02*
D03*
Y1011157D02*
D03*
Y1009189D02*
D03*
Y1007220D02*
D03*
Y1005252D02*
D03*
Y1003283D02*
D03*
Y1001315D02*
D03*
Y999346D02*
D03*
Y997378D02*
D03*
Y995409D02*
D03*
Y993441D02*
D03*
Y991472D02*
D03*
Y989504D02*
D03*
Y987535D02*
D03*
Y985567D02*
D03*
Y983598D02*
D03*
Y981630D02*
D03*
Y979661D02*
D03*
Y977693D02*
D03*
Y975724D02*
D03*
X1826000D02*
D03*
Y1019031D02*
D03*
Y1021000D02*
D03*
Y977693D02*
D03*
Y979661D02*
D03*
Y981630D02*
D03*
Y983598D02*
D03*
Y985567D02*
D03*
Y987535D02*
D03*
Y989504D02*
D03*
Y991472D02*
D03*
Y993441D02*
D03*
Y995409D02*
D03*
Y997378D02*
D03*
Y999346D02*
D03*
Y1001315D02*
D03*
Y1003283D02*
D03*
Y1005252D02*
D03*
Y1007220D02*
D03*
Y1009189D02*
D03*
Y1011157D02*
D03*
Y1013126D02*
D03*
Y1015094D02*
D03*
Y1017063D02*
D03*
X1613134Y1062000D02*
D03*
Y1063969D02*
D03*
Y1065937D02*
D03*
Y1067906D02*
D03*
Y1069874D02*
D03*
Y1071843D02*
D03*
Y1073811D02*
D03*
Y1075780D02*
D03*
Y1077748D02*
D03*
Y1079717D02*
D03*
Y1081685D02*
D03*
Y1083654D02*
D03*
Y1085622D02*
D03*
Y1087591D02*
D03*
Y1089559D02*
D03*
Y1091528D02*
D03*
Y1093496D02*
D03*
Y1095465D02*
D03*
Y1097433D02*
D03*
Y1099402D02*
D03*
Y1101370D02*
D03*
Y1103339D02*
D03*
Y1105307D02*
D03*
Y1107276D02*
D03*
X1584000D02*
D03*
Y1063969D02*
D03*
Y1062000D02*
D03*
Y1105307D02*
D03*
Y1103339D02*
D03*
Y1101370D02*
D03*
Y1099402D02*
D03*
Y1097433D02*
D03*
Y1095465D02*
D03*
Y1093496D02*
D03*
Y1091528D02*
D03*
Y1089559D02*
D03*
Y1087591D02*
D03*
Y1085622D02*
D03*
Y1083654D02*
D03*
Y1081685D02*
D03*
Y1079717D02*
D03*
Y1077748D02*
D03*
Y1075780D02*
D03*
Y1073811D02*
D03*
Y1071843D02*
D03*
Y1069874D02*
D03*
Y1067906D02*
D03*
Y1065937D02*
D03*
X1394228Y1150961D02*
D03*
Y1148992D02*
D03*
Y1147024D02*
D03*
Y1145055D02*
D03*
Y1143087D02*
D03*
Y1141118D02*
D03*
Y1139150D02*
D03*
Y1137181D02*
D03*
Y1135213D02*
D03*
Y1133244D02*
D03*
Y1131276D02*
D03*
Y1129307D02*
D03*
Y1127339D02*
D03*
Y1125370D02*
D03*
Y1123402D02*
D03*
Y1121433D02*
D03*
Y1119465D02*
D03*
Y1117496D02*
D03*
Y1115528D02*
D03*
Y1113559D02*
D03*
Y1111591D02*
D03*
Y1154898D02*
D03*
Y1152929D02*
D03*
Y1109622D02*
D03*
X1365094D02*
D03*
Y1111591D02*
D03*
Y1113559D02*
D03*
Y1115528D02*
D03*
Y1117496D02*
D03*
Y1119465D02*
D03*
Y1121433D02*
D03*
Y1123402D02*
D03*
Y1125370D02*
D03*
Y1127339D02*
D03*
Y1129307D02*
D03*
Y1131276D02*
D03*
Y1133244D02*
D03*
Y1135213D02*
D03*
Y1137181D02*
D03*
Y1139150D02*
D03*
Y1141118D02*
D03*
Y1143087D02*
D03*
Y1145055D02*
D03*
Y1147024D02*
D03*
Y1148992D02*
D03*
Y1150961D02*
D03*
Y1152929D02*
D03*
Y1154898D02*
D03*
X1796866Y1094000D02*
D03*
Y1092031D02*
D03*
Y1090063D02*
D03*
Y1088094D02*
D03*
Y1086126D02*
D03*
Y1084157D02*
D03*
Y1082189D02*
D03*
Y1080220D02*
D03*
Y1078252D02*
D03*
Y1076283D02*
D03*
Y1074315D02*
D03*
Y1072346D02*
D03*
Y1070378D02*
D03*
Y1068409D02*
D03*
Y1066441D02*
D03*
Y1064472D02*
D03*
Y1062504D02*
D03*
Y1060535D02*
D03*
Y1058567D02*
D03*
Y1056598D02*
D03*
Y1054630D02*
D03*
Y1052661D02*
D03*
Y1050693D02*
D03*
Y1048724D02*
D03*
X1826000D02*
D03*
Y1092031D02*
D03*
Y1094000D02*
D03*
Y1050693D02*
D03*
Y1052661D02*
D03*
Y1054630D02*
D03*
Y1056598D02*
D03*
Y1058567D02*
D03*
Y1060535D02*
D03*
Y1062504D02*
D03*
Y1064472D02*
D03*
Y1066441D02*
D03*
Y1068409D02*
D03*
Y1070378D02*
D03*
Y1072346D02*
D03*
Y1074315D02*
D03*
Y1076283D02*
D03*
Y1078252D02*
D03*
Y1080220D02*
D03*
Y1082189D02*
D03*
Y1084157D02*
D03*
Y1086126D02*
D03*
Y1088094D02*
D03*
Y1090063D02*
D03*
D60*
X1820000Y1200000D02*
D03*
Y1290000D02*
D03*
X1515000D02*
D03*
Y1200000D02*
D03*
D61*
X1772000Y1093000D02*
D03*
X1641291D02*
D03*
Y1091031D02*
D03*
Y1089063D02*
D03*
Y1087094D02*
D03*
Y1085126D02*
D03*
Y1083157D02*
D03*
Y1081189D02*
D03*
Y1079220D02*
D03*
Y1077252D02*
D03*
Y1075283D02*
D03*
Y1073315D02*
D03*
Y1071346D02*
D03*
Y1069378D02*
D03*
Y1067409D02*
D03*
Y1065441D02*
D03*
Y1063472D02*
D03*
Y1061504D02*
D03*
Y1059535D02*
D03*
Y1057567D02*
D03*
Y1055598D02*
D03*
Y1053630D02*
D03*
Y1051661D02*
D03*
Y1049693D02*
D03*
Y1047724D02*
D03*
Y1045756D02*
D03*
Y1043787D02*
D03*
Y1041819D02*
D03*
Y1039850D02*
D03*
Y1037882D02*
D03*
Y1035913D02*
D03*
Y1033945D02*
D03*
Y1031976D02*
D03*
Y1030008D02*
D03*
Y1028039D02*
D03*
Y1026071D02*
D03*
Y1024102D02*
D03*
Y1022134D02*
D03*
Y1020165D02*
D03*
Y1018197D02*
D03*
Y1016228D02*
D03*
Y1014260D02*
D03*
Y1012291D02*
D03*
Y1010323D02*
D03*
Y1008354D02*
D03*
Y1006386D02*
D03*
Y1004417D02*
D03*
Y1002449D02*
D03*
Y1000480D02*
D03*
Y998512D02*
D03*
Y996543D02*
D03*
Y994575D02*
D03*
Y992606D02*
D03*
Y990638D02*
D03*
Y988669D02*
D03*
Y986701D02*
D03*
Y984732D02*
D03*
Y982764D02*
D03*
Y980795D02*
D03*
Y978827D02*
D03*
Y976858D02*
D03*
X1772000D02*
D03*
Y978827D02*
D03*
Y980795D02*
D03*
Y982764D02*
D03*
Y984732D02*
D03*
Y986701D02*
D03*
Y988669D02*
D03*
Y990638D02*
D03*
Y992606D02*
D03*
Y994575D02*
D03*
Y996543D02*
D03*
Y998512D02*
D03*
Y1000480D02*
D03*
Y1002449D02*
D03*
Y1004417D02*
D03*
Y1006386D02*
D03*
Y1008354D02*
D03*
Y1010323D02*
D03*
Y1012291D02*
D03*
Y1014260D02*
D03*
Y1016228D02*
D03*
Y1018197D02*
D03*
Y1020165D02*
D03*
Y1022134D02*
D03*
Y1024102D02*
D03*
Y1026071D02*
D03*
Y1028039D02*
D03*
Y1030008D02*
D03*
Y1031976D02*
D03*
Y1033945D02*
D03*
Y1035913D02*
D03*
Y1037882D02*
D03*
Y1039850D02*
D03*
Y1041819D02*
D03*
Y1043787D02*
D03*
Y1045756D02*
D03*
Y1047724D02*
D03*
Y1049693D02*
D03*
Y1051661D02*
D03*
Y1053630D02*
D03*
Y1055598D02*
D03*
Y1057567D02*
D03*
Y1059535D02*
D03*
Y1061504D02*
D03*
Y1063472D02*
D03*
Y1065441D02*
D03*
Y1067409D02*
D03*
Y1069378D02*
D03*
Y1071346D02*
D03*
Y1073315D02*
D03*
Y1075283D02*
D03*
Y1077252D02*
D03*
Y1079220D02*
D03*
Y1081189D02*
D03*
Y1083157D02*
D03*
Y1085126D02*
D03*
Y1087094D02*
D03*
Y1089063D02*
D03*
Y1091032D02*
D03*
D62*
X1648575Y1100283D02*
D03*
X1650543D02*
D03*
X1652512D02*
D03*
X1654480D02*
D03*
X1656449D02*
D03*
X1658417D02*
D03*
X1660386D02*
D03*
X1662354D02*
D03*
X1664323D02*
D03*
X1666291D02*
D03*
X1668260D02*
D03*
X1670228D02*
D03*
X1672197D02*
D03*
X1674165D02*
D03*
X1676134D02*
D03*
X1678102D02*
D03*
X1680071D02*
D03*
X1682039D02*
D03*
X1684008D02*
D03*
X1685976D02*
D03*
X1687945D02*
D03*
X1689913D02*
D03*
X1691882D02*
D03*
X1693850D02*
D03*
X1695819D02*
D03*
X1697787D02*
D03*
X1699756D02*
D03*
X1701725D02*
D03*
X1703693D02*
D03*
X1705662D02*
D03*
X1707630D02*
D03*
X1709599D02*
D03*
X1711567D02*
D03*
X1713536D02*
D03*
X1715504D02*
D03*
X1717473D02*
D03*
X1719441D02*
D03*
X1721410D02*
D03*
X1723378D02*
D03*
X1725347D02*
D03*
X1727315D02*
D03*
X1729284D02*
D03*
X1731252D02*
D03*
X1733221Y1100284D02*
D03*
X1735189Y1100283D02*
D03*
X1737158D02*
D03*
X1739126D02*
D03*
X1741095D02*
D03*
X1743063D02*
D03*
X1745032D02*
D03*
X1747000D02*
D03*
X1748969D02*
D03*
X1750937D02*
D03*
X1752906D02*
D03*
X1754874D02*
D03*
X1756843D02*
D03*
X1758811D02*
D03*
X1760780D02*
D03*
X1762748D02*
D03*
X1764717D02*
D03*
X1648575Y969575D02*
D03*
X1650543D02*
D03*
X1652512D02*
D03*
X1654480D02*
D03*
X1656449D02*
D03*
X1658417D02*
D03*
X1660386D02*
D03*
X1662354D02*
D03*
X1664323D02*
D03*
X1666291D02*
D03*
X1668260D02*
D03*
X1670228D02*
D03*
X1672197D02*
D03*
X1674165D02*
D03*
X1676134D02*
D03*
X1678102D02*
D03*
X1680071D02*
D03*
X1682039D02*
D03*
X1684008D02*
D03*
X1685976D02*
D03*
X1687945D02*
D03*
X1689913D02*
D03*
X1691882D02*
D03*
X1693850D02*
D03*
X1695819D02*
D03*
X1697787D02*
D03*
X1699756D02*
D03*
X1701724D02*
D03*
X1703693D02*
D03*
X1705662D02*
D03*
X1707630D02*
D03*
X1709599D02*
D03*
X1711567D02*
D03*
X1713536D02*
D03*
X1715504D02*
D03*
X1717473D02*
D03*
X1719441D02*
D03*
X1721410D02*
D03*
X1723378D02*
D03*
X1725347D02*
D03*
X1727315D02*
D03*
X1729284D02*
D03*
X1731252D02*
D03*
X1733221D02*
D03*
X1735189D02*
D03*
X1737158D02*
D03*
X1739126D02*
D03*
X1741095D02*
D03*
X1743063D02*
D03*
X1745032D02*
D03*
X1747000D02*
D03*
X1748969D02*
D03*
X1750937D02*
D03*
X1752906D02*
D03*
X1754874D02*
D03*
X1756843D02*
D03*
X1758811D02*
D03*
X1760780D02*
D03*
X1762748D02*
D03*
X1764717D02*
D03*
D63*
X1682000Y1125866D02*
D03*
X1683968D02*
D03*
X1685937D02*
D03*
X1687905D02*
D03*
X1689874D02*
D03*
X1691842D02*
D03*
X1693811D02*
D03*
X1695779D02*
D03*
X1697748D02*
D03*
X1699716D02*
D03*
X1701685D02*
D03*
X1703653D02*
D03*
X1705622D02*
D03*
X1707590D02*
D03*
X1709559D02*
D03*
X1711527D02*
D03*
X1713496D02*
D03*
X1715464D02*
D03*
X1717433D02*
D03*
X1719401D02*
D03*
X1721370D02*
D03*
X1723338D02*
D03*
X1725307D02*
D03*
X1727275D02*
D03*
Y1155000D02*
D03*
X1683968D02*
D03*
X1682000D02*
D03*
X1725307D02*
D03*
X1723338D02*
D03*
X1721370D02*
D03*
X1719401D02*
D03*
X1717433D02*
D03*
X1715464D02*
D03*
X1713496D02*
D03*
X1711527D02*
D03*
X1709559D02*
D03*
X1707590D02*
D03*
X1705622D02*
D03*
X1703653D02*
D03*
X1701685D02*
D03*
X1699716D02*
D03*
X1697748D02*
D03*
X1695779D02*
D03*
X1693811D02*
D03*
X1691842D02*
D03*
X1689874D02*
D03*
X1687905D02*
D03*
X1685937D02*
D03*
X1693000Y946134D02*
D03*
X1691032D02*
D03*
X1689063D02*
D03*
X1687095D02*
D03*
X1685126D02*
D03*
X1683158D02*
D03*
X1681189D02*
D03*
X1679221D02*
D03*
X1677252D02*
D03*
X1675284D02*
D03*
X1673315D02*
D03*
X1671347D02*
D03*
X1669378D02*
D03*
X1667410D02*
D03*
X1665441D02*
D03*
X1663473D02*
D03*
X1661504D02*
D03*
X1659536D02*
D03*
X1657567D02*
D03*
X1655599D02*
D03*
X1653630D02*
D03*
X1651662D02*
D03*
X1649693D02*
D03*
X1647725D02*
D03*
Y917000D02*
D03*
X1691032D02*
D03*
X1693000D02*
D03*
X1649693D02*
D03*
X1651662D02*
D03*
X1653630D02*
D03*
X1655599D02*
D03*
X1657567D02*
D03*
X1659536D02*
D03*
X1661504D02*
D03*
X1663473D02*
D03*
X1665441D02*
D03*
X1667410D02*
D03*
X1669378D02*
D03*
X1671347D02*
D03*
X1673315D02*
D03*
X1675284D02*
D03*
X1677252D02*
D03*
X1679221D02*
D03*
X1681189D02*
D03*
X1683158D02*
D03*
X1685126D02*
D03*
X1687095D02*
D03*
X1689063D02*
D03*
X1767000Y946134D02*
D03*
X1765032D02*
D03*
X1763063D02*
D03*
X1761095D02*
D03*
X1759126D02*
D03*
X1757158D02*
D03*
X1755189D02*
D03*
X1753221D02*
D03*
X1751252D02*
D03*
X1749284D02*
D03*
X1747315D02*
D03*
X1745347D02*
D03*
X1743378D02*
D03*
X1741410D02*
D03*
X1739441D02*
D03*
X1737473D02*
D03*
X1735504D02*
D03*
X1733536D02*
D03*
X1731567D02*
D03*
X1729599D02*
D03*
X1727630D02*
D03*
X1725662D02*
D03*
X1723693D02*
D03*
X1721725D02*
D03*
Y917000D02*
D03*
X1765032D02*
D03*
X1767000D02*
D03*
X1723693D02*
D03*
X1725662D02*
D03*
X1727630D02*
D03*
X1729599D02*
D03*
X1731567D02*
D03*
X1733536D02*
D03*
X1735504D02*
D03*
X1737473D02*
D03*
X1739441D02*
D03*
X1741410D02*
D03*
X1743378D02*
D03*
X1745347D02*
D03*
X1747315D02*
D03*
X1749284D02*
D03*
X1751252D02*
D03*
X1753221D02*
D03*
X1755189D02*
D03*
X1757158D02*
D03*
X1759126D02*
D03*
X1761095D02*
D03*
X1763063D02*
D03*
D64*
X1923323Y893323D02*
D03*
X1925882D02*
D03*
X1928441D02*
D03*
X1931000D02*
D03*
X1923323Y876000D02*
D03*
X1925882D02*
D03*
X1928441D02*
D03*
X1993323Y893323D02*
D03*
X1995882D02*
D03*
X1998441D02*
D03*
X2001000D02*
D03*
X1993323Y876000D02*
D03*
X1995882D02*
D03*
X1998441D02*
D03*
D65*
X1931000D02*
D03*
X2001000D02*
D03*
D66*
X1396976Y996441D02*
D03*
X1400125D02*
D03*
X1403275D02*
D03*
X1406425D02*
D03*
X1409574D02*
D03*
X1412724D02*
D03*
X1415874D02*
D03*
X1419023D02*
D03*
X1422173D02*
D03*
X1425322D02*
D03*
X1428472D02*
D03*
X1431622D02*
D03*
X1434771D02*
D03*
X1437921D02*
D03*
X1441070D02*
D03*
X1444220D02*
D03*
X1447370D02*
D03*
X1450519D02*
D03*
X1453669D02*
D03*
X1456818D02*
D03*
X1459968D02*
D03*
X1463118D02*
D03*
X1466267D02*
D03*
X1469417D02*
D03*
X1472567D02*
D03*
X1475716D02*
D03*
X1478866D02*
D03*
X1482015D02*
D03*
X1485165D02*
D03*
X1488315D02*
D03*
X1491464D02*
D03*
X1494614D02*
D03*
X1396976Y947622D02*
D03*
X1400125D02*
D03*
X1403275D02*
D03*
X1406425D02*
D03*
X1409574D02*
D03*
X1412724D02*
D03*
X1415874D02*
D03*
X1419023D02*
D03*
X1422173D02*
D03*
X1425322D02*
D03*
X1428472D02*
D03*
X1431622D02*
D03*
X1434771D02*
D03*
X1437921D02*
D03*
X1441070D02*
D03*
X1444220D02*
D03*
X1447370D02*
D03*
X1450519D02*
D03*
X1453669D02*
D03*
X1456818D02*
D03*
X1459968D02*
D03*
X1463118D02*
D03*
X1466267D02*
D03*
X1469417D02*
D03*
X1472567D02*
D03*
X1475716D02*
D03*
X1478866D02*
D03*
X1482015D02*
D03*
X1485165D02*
D03*
X1488315D02*
D03*
X1491464D02*
D03*
D67*
X1494614D02*
D03*
D68*
X1885000Y1125000D02*
D03*
X1863000Y1140000D02*
D03*
Y1135000D02*
D03*
Y1130000D02*
D03*
Y1125000D02*
D03*
X1885000Y1130000D02*
D03*
Y1135000D02*
D03*
Y1140000D02*
D03*
D69*
X1868800Y1135000D02*
X1874000D01*
X1863000D02*
X1868800D01*
X1870540Y1133260D01*
Y1121542D02*
Y1133260D01*
X1851200Y1135000D02*
X1863000D01*
X1879000Y1130000D02*
X1885000D01*
X1874000Y1135000D02*
X1879000Y1130000D01*
X1863000Y1140000D02*
Y1143900D01*
X1867100Y1148000D01*
X1871244D01*
D70*
X1820689Y1082189D02*
X1826000D01*
X1819311D02*
X1820689D01*
X1763200Y1065441D02*
X1772000D01*
X1750641D02*
X1763200D01*
X1755189Y936071D02*
Y940800D01*
X1747189Y932800D02*
X1755189Y940800D01*
X1738225Y923836D02*
X1747189Y932800D01*
X1606165Y1095465D02*
X1613134D01*
X1584000D02*
X1606165D01*
X1602800Y1073811D02*
X1613134D01*
X1599241D02*
X1602800D01*
X1304917Y1122783D02*
X1306267Y1121433D01*
X1303567D02*
X1304917Y1122783D01*
X1306267Y1121433D02*
X1365094D01*
X1303600D02*
X1306267D01*
X1599900Y1021464D02*
X1613134D01*
X1584000D02*
X1599900D01*
X1775360Y1093000D02*
Y1095500D01*
X1725347Y1093772D02*
Y1100283D01*
Y1089747D02*
Y1093772D01*
Y1086353D02*
Y1089747D01*
X1721321D02*
X1725347Y1093772D01*
X1715344Y1083770D02*
X1721321Y1089747D01*
X1765500Y1074200D02*
Y1075276D01*
X1725347Y1089747D02*
X1738042D01*
X1721321D02*
X1725347D01*
X1715580D02*
X1721321D01*
X1775600Y972200D02*
Y976858D01*
X1764717Y966800D02*
X1775500D01*
X1767800Y969500D02*
X1772900D01*
X1764913D02*
X1767800D01*
X1764717D02*
X1764913D01*
X1758030Y990638D02*
X1772000D01*
X1753785D02*
X1758030D01*
X1764913Y969500D02*
X1767800Y968400D01*
X1764717Y969575D02*
X1764913Y969500D01*
X1764717Y966800D02*
Y969500D01*
Y962883D02*
Y966800D01*
X1666291Y1094191D02*
Y1100283D01*
Y1092900D02*
Y1094191D01*
Y1091200D02*
Y1092900D01*
X1673381Y1084111D02*
X1673721Y1083770D01*
X1666291Y1091200D02*
X1673381Y1084111D01*
X1649900Y1058900D02*
X1651200Y1057600D01*
X1648058Y976858D02*
X1651100D01*
X1641700D02*
X1648058D01*
X1641291D02*
X1641700D01*
Y966400D02*
Y976858D01*
X1639100Y968400D02*
Y976858D01*
X1764463Y1089063D02*
X1772000D01*
X1761223D02*
X1764463D01*
X1820620Y1076283D02*
X1821600D01*
X1820200D02*
X1820620D01*
X1821600D02*
X1826000D01*
X1821100Y1088094D02*
X1826000D01*
X1814269D02*
X1821100D01*
X1818851Y1074934D02*
X1819271D01*
X1813529D02*
X1818851D01*
X1820200Y1076283D01*
X1812047Y1068130D02*
X1818851Y1074934D01*
X1809800Y1078083D02*
Y1083625D01*
Y1076283D02*
Y1078083D01*
Y1076283D02*
X1812180D01*
X1808000D02*
X1809800D01*
X1796866D02*
X1808000D01*
X1802000Y993441D02*
X1821818D01*
X1802756Y1024800D02*
Y1027000D01*
Y1016723D02*
Y1024800D01*
X1699716Y1149800D02*
Y1155000D01*
Y1148875D02*
Y1149800D01*
X1791700Y982730D02*
X1792400Y982030D01*
X1701725Y1094825D02*
Y1100283D01*
Y1093900D02*
Y1094825D01*
X1764800Y978827D02*
X1765600D01*
X1766400Y1000480D02*
X1772000D01*
X1741471D02*
X1766400D01*
X1764800Y1057198D02*
X1765600Y1056398D01*
Y1063300D01*
X1820244Y975100D02*
Y980800D01*
Y969000D02*
Y975100D01*
X1761948Y976000D02*
X1761961Y975988D01*
X1729284Y979700D02*
Y979703D01*
Y988293D01*
Y969575D02*
Y979700D01*
X1693850Y975950D02*
Y984301D01*
Y969575D02*
Y975950D01*
X1768500Y940244D02*
X1773000D01*
X1762400D02*
X1768500D01*
X1607685Y1101685D02*
X1608000Y1101370D01*
X1606244Y1103126D02*
X1607685Y1101685D01*
X1647800Y1083157D02*
X1658299D01*
X1647700D02*
X1647800D01*
X1672120Y1055598D02*
X1766400D01*
X1620805Y1045909D02*
X1633385Y1045756D01*
X1613332Y1046000D02*
X1620805Y1045909D01*
X1608800Y1089559D02*
X1613134D01*
X1594841D02*
X1608800D01*
X1360000Y1148992D02*
X1365094D01*
X1296008D02*
X1360000D01*
X1380470Y1127339D02*
X1389100D01*
X1352228Y1115500D02*
X1359900D01*
X1624428Y1016228D02*
X1641291D01*
X1678102Y975498D02*
Y984698D01*
X1659025Y994575D02*
X1669952Y983648D01*
X1623759Y1015559D02*
X1625241D01*
X1584000D02*
X1608800D01*
X1607244Y1031414D02*
Y1039000D01*
Y1028800D02*
Y1031414D01*
X1620000Y984732D02*
X1641291D01*
X1619000D02*
X1620000D01*
X1696144Y940244D02*
X1699000D01*
X1691744D02*
X1696144D01*
X1687156D02*
X1691744D01*
X1675284Y941884D02*
Y946134D01*
Y941384D02*
Y941884D01*
X1645800Y940244D02*
X1652844D01*
X1640000D02*
X1645800D01*
X1733536Y939964D02*
Y946134D01*
X1394228Y1143087D02*
X1410988D01*
X1281913D02*
X1365094D01*
X1732800Y978000D02*
X1733221Y977579D01*
Y969575D02*
Y977579D01*
X1693811Y1155000D02*
Y1168100D01*
X1604300Y1093600D02*
X1606165Y1095465D01*
X1635188Y1073315D02*
X1641291D01*
X1634900Y1073603D02*
X1635188Y1073315D01*
X1618108Y1073603D02*
X1634900D01*
X1617900Y1073811D02*
X1618108Y1073603D01*
X1613134Y1073811D02*
X1617900D01*
X1714700Y1131800D02*
X1715464Y1131036D01*
Y1125866D02*
Y1131036D01*
X1710520Y1108900D02*
X1711567Y1107853D01*
Y1100283D02*
Y1107853D01*
X1700000Y1142800D02*
X1707575D01*
X1693811Y1136611D02*
X1700000Y1142800D01*
X1693811Y1125866D02*
Y1136611D01*
X1707575Y1142800D02*
X1715464Y1149889D01*
Y1155000D01*
X1753800Y1026071D02*
X1772000D01*
X1671085D02*
X1753800D01*
X1772000Y1081189D02*
X1781011D01*
X1781100Y1081100D01*
X1426220Y768000D02*
Y781503D01*
X1696743Y978279D02*
Y981800D01*
X1695819Y977355D02*
X1696743Y978279D01*
X1695819Y969575D02*
Y977355D01*
X1733536Y939964D02*
X1733700Y939800D01*
X1659536Y910964D02*
Y917000D01*
Y910964D02*
X1660244Y910256D01*
X1681189Y917000D02*
Y921600D01*
X1668030Y935959D02*
X1681189Y921600D01*
X1659536Y938664D02*
X1662241Y935959D01*
X1659536Y938664D02*
Y946134D01*
X1680071Y969575D02*
Y977800D01*
X1684071Y981800D01*
X1796866Y1009189D02*
X1802000D01*
Y1011700D01*
X1805600Y1015300D01*
X1772000Y1002449D02*
X1782351D01*
X1783200Y1001600D01*
X1772000Y1026071D02*
X1782000D01*
X1670228Y1100283D02*
Y1106672D01*
X1802000Y1082189D02*
X1804689Y1079500D01*
X1796866Y1082189D02*
X1802000D01*
X1626000Y955300D02*
X1639100Y968400D01*
Y976858D02*
X1641291D01*
X1713473Y980000D02*
X1717473Y976000D01*
Y969575D02*
Y976000D01*
X1739126Y975979D02*
X1753785Y990638D01*
X1739126Y969575D02*
Y975979D01*
X1673721Y1083770D02*
X1682039D01*
X1657370Y1068100D02*
X1673381Y1084111D01*
X1651200Y1057600D02*
X1655000D01*
X1682039Y1083770D02*
Y1100283D01*
X1764600Y1093000D02*
X1772000D01*
X1424252Y818712D02*
Y821937D01*
X1415540Y810000D02*
X1424252Y818712D01*
X1504252Y833591D02*
Y836852D01*
X1510329Y842929D01*
X1607600Y1101600D02*
X1607685Y1101685D01*
X1608000Y1101370D02*
X1613134D01*
X1670750Y1111950D02*
X1672197Y1113397D01*
Y1100283D02*
Y1110503D01*
X1670750Y1111950D02*
X1672197Y1110503D01*
X1701725Y1100283D02*
Y1109125D01*
X1703651Y1111052D01*
X1672197Y1094353D02*
Y1100283D01*
X1671444Y1093600D02*
X1672197Y1094353D01*
X1669356Y1093600D02*
X1671444D01*
X1668260Y1094696D02*
X1669356Y1093600D01*
X1668260Y1094696D02*
Y1100283D01*
X1578851Y1089559D02*
X1584000D01*
X1577284Y1087992D02*
X1578851Y1089559D01*
X1525792Y1087992D02*
X1577284D01*
X1576639Y993905D02*
X1584000D01*
X1545934Y963200D02*
X1576639Y993905D01*
X1641291Y1091031D02*
X1650425D01*
X1658299Y1083157D01*
X1635272Y1063472D02*
X1641291D01*
X1623400Y1051600D02*
X1635272Y1063472D01*
X1633385Y1045756D02*
X1641291D01*
X1684008Y1100283D02*
Y1113592D01*
X1819271Y1074934D02*
X1820620Y1076283D01*
X1766400Y1012291D02*
X1772000D01*
X1761000Y1017600D02*
X1766400Y1012291D01*
X1761000Y1021500D02*
X1763602Y1024102D01*
X1772000D01*
X1764800Y1057198D02*
Y1062500D01*
X1766400Y1055598D02*
X1772000D01*
X1796866Y1066441D02*
X1803000D01*
X1804689Y1068130D01*
X1796866Y981630D02*
X1813714D01*
X1816568Y1054630D02*
X1826000D01*
X1749284Y909000D02*
Y917000D01*
X1796866Y1015094D02*
X1801127D01*
X1802756Y1016723D01*
X1641291Y1045756D02*
X1646803D01*
X1649234Y1043325D01*
X1659846D01*
X1796866Y1003283D02*
X1802717D01*
X1804400Y1001600D01*
X1802000Y993441D02*
X1804400Y995841D01*
X1796866Y993441D02*
X1802000D01*
X1727630Y917000D02*
Y922000D01*
X1714000Y935630D02*
X1727630Y922000D01*
X1790100Y976700D02*
Y979730D01*
X1792400Y982030D01*
X1792800Y981630D01*
X1665441Y917000D02*
Y921089D01*
X1660100Y926430D02*
X1665441Y921089D01*
X1653630Y917000D02*
Y922770D01*
X1651600Y924800D02*
X1653630Y922770D01*
X1687095Y910169D02*
Y917000D01*
Y910169D02*
X1688300Y908963D01*
X1656449Y969575D02*
Y979725D01*
X1669952Y983648D02*
X1678102Y975498D01*
X1766400Y988669D02*
X1772000D01*
X1765600Y987869D02*
X1766400Y988669D01*
X1765600Y978827D02*
Y987869D01*
Y978827D02*
X1772000D01*
X1762748Y969575D02*
Y975200D01*
X1761961Y975988D02*
X1762748Y975200D01*
X1761961Y975988D02*
X1764800Y978827D01*
X1771993Y1075276D02*
X1772000Y1075283D01*
X1765500Y1075276D02*
X1771993D01*
X1764800Y1074200D02*
X1765500D01*
X1765820Y1079220D02*
X1772000D01*
X1764700Y1078100D02*
X1765820Y1079220D01*
X1759947Y1068694D02*
X1763200Y1065441D01*
X1761290Y1081189D02*
X1772000D01*
X1634737Y1089063D02*
X1641291D01*
X1738460Y1066300D02*
X1761223Y1089063D01*
X1747070Y1071670D02*
X1764463Y1089063D01*
X1765600Y1016228D02*
X1772000D01*
X1764600Y1017228D02*
X1765600Y1016228D01*
X1764600Y1017228D02*
Y1019900D01*
X1739441Y940941D02*
Y946134D01*
X1738700Y940200D02*
X1739441Y940941D01*
X1727630Y941474D02*
Y946134D01*
X1726400Y940244D02*
X1727630Y941474D01*
X1714000Y940244D02*
X1726400D01*
X1607244Y1028800D02*
X1608674Y1027370D01*
X1613134D01*
X1641291Y1016228D02*
X1647372D01*
X1649200Y1014400D01*
Y1012800D02*
Y1014400D01*
X1646723Y1010323D02*
X1649200Y1012800D01*
X1641291Y1010323D02*
X1646723D01*
X1648058Y976858D02*
X1650600Y979400D01*
Y987000D01*
X1631950Y1014260D02*
X1641291D01*
X1629290Y1011600D02*
X1631950Y1014260D01*
X1764717Y969500D02*
Y969575D01*
X1772000Y1093000D02*
X1775360D01*
X1772000Y1057567D02*
X1780867D01*
X1781300Y1058000D01*
X1772000Y976858D02*
X1775600D01*
X1796866Y1088094D02*
X1808106D01*
X1817600Y1083900D02*
X1819311Y1082189D01*
X1819906Y1086900D02*
X1821100Y1088094D01*
X1741095Y1092800D02*
Y1100283D01*
X1738042Y1089747D02*
X1741095Y1092800D01*
X1693850Y1092300D02*
Y1100283D01*
X1694956Y1091195D02*
X1714132D01*
X1693850Y1092300D02*
X1694956Y1091195D01*
X1697787Y1100283D02*
Y1106613D01*
X1695000Y1109400D02*
X1697787Y1106613D01*
X1693811Y1120589D02*
X1695000Y1119400D01*
X1693811Y1120589D02*
Y1125866D01*
X1796866Y1060535D02*
X1802800D01*
X1807115Y1064850D01*
X1816400Y1077900D02*
X1820689Y1082189D01*
X1826000Y1060535D02*
X1830542D01*
X1835630Y1055448D01*
X1752906Y969575D02*
Y975200D01*
X1753706Y976000D01*
X1761948D01*
X1656449Y964000D02*
Y969575D01*
X1643249Y950800D02*
X1656449Y964000D01*
X1812462Y1015094D02*
X1826000D01*
X1665000Y1092900D02*
X1666291Y1094191D01*
X1685976Y963076D02*
Y969575D01*
X1685200Y962300D02*
X1685976Y963076D01*
X1755189Y917000D02*
Y921989D01*
X1756800Y923600D01*
X1758400D01*
X1760100Y925300D01*
Y931160D01*
X1608211Y999811D02*
X1613134D01*
X1603600Y995200D02*
X1608211Y999811D01*
X1641291Y1006386D02*
X1651400D01*
X1681189Y946134D02*
Y951000D01*
X1684389Y954200D01*
X1584000Y999811D02*
X1589770D01*
X1735189Y1100283D02*
Y1113960D01*
X1370587Y1121433D02*
X1374691Y1117329D01*
X1365094Y1121433D02*
X1370587D01*
X1796866Y987535D02*
X1802900D01*
X1826000D01*
X1802000Y1009189D02*
X1826000D01*
X1674641Y933600D02*
Y940741D01*
X1675284Y941384D01*
Y912000D02*
Y917000D01*
X1670654Y907370D02*
X1675284Y912000D01*
X1666095Y910075D02*
X1668800Y907370D01*
X1666095Y910075D02*
Y911346D01*
X1665441Y912000D02*
X1666095Y911346D01*
X1665441Y912000D02*
Y917000D01*
X1772900Y969500D02*
X1775600Y972200D01*
X1826000Y1054630D02*
X1830726D01*
X1831756Y1053600D01*
Y1043000D02*
Y1053600D01*
X1765600Y1056398D02*
X1766400Y1055598D01*
X1765600Y1063300D02*
X1765772Y1063472D01*
X1772000D01*
X1779929Y1021600D02*
X1787680D01*
X1777427Y1024102D02*
X1779929Y1021600D01*
X1772000Y1024102D02*
X1777427D01*
X1634119Y1041819D02*
X1641291D01*
X1633300Y1041000D02*
X1634119Y1041819D01*
X1641291Y1059535D02*
X1649265D01*
X1649900Y1058900D01*
Y1055000D02*
Y1058900D01*
X1628870Y1081189D02*
X1641291D01*
X1826000Y993441D02*
X1831009D01*
X1831694Y992756D01*
X1837000D01*
X1543554Y1005716D02*
X1584000D01*
X1548651Y1015559D02*
X1584000D01*
X1580000Y1027370D02*
X1584000D01*
X1574400Y1032970D02*
X1580000Y1027370D01*
X1772000Y1089063D02*
X1779200D01*
X1783229Y1093092D01*
X1371271Y1125429D02*
X1378561D01*
X1369361Y1127339D02*
X1371271Y1125429D01*
X1365094Y1127339D02*
X1369361D01*
X1764717Y962883D02*
X1766400Y961200D01*
X1754874Y963204D02*
Y969575D01*
Y963204D02*
X1755000Y963078D01*
Y950500D02*
Y963078D01*
Y950500D02*
X1755189Y950311D01*
Y946134D02*
Y950311D01*
X1384000Y1121100D02*
X1389500D01*
X1389833Y1121433D01*
X1394228D01*
X1826000Y987535D02*
X1834109D01*
X1357800Y1151192D02*
Y1168700D01*
Y1151192D02*
X1360000Y1148992D01*
X1400600D02*
X1408308Y1156700D01*
X1394228Y1148992D02*
X1400600D01*
X1360361Y1127339D02*
X1365094D01*
X1352100Y1135600D02*
X1360361Y1127339D01*
X1357189Y1140000D02*
X1360007Y1137181D01*
X1365094D01*
X1394228Y1115528D02*
X1398269D01*
X1402161Y1111636D01*
X1658417Y969575D02*
Y975817D01*
X1659400Y976800D01*
X1733536Y917000D02*
Y921600D01*
X1735771Y923836D01*
X1738225D01*
X1755189Y940800D02*
Y946134D01*
X1739441Y917000D02*
Y922200D01*
X1741000D01*
X1742700Y923900D01*
X1820871Y1075554D02*
X1821600Y1076283D01*
X1820871Y1067170D02*
Y1075554D01*
Y1067170D02*
X1821600Y1066441D01*
X1826000D01*
X1579200Y1067906D02*
X1584000D01*
X1577329Y1066035D02*
X1579200Y1067906D01*
X1577329Y1050371D02*
Y1066035D01*
X1584000Y1073811D02*
X1592216D01*
X1584000Y1089559D02*
X1594841D01*
X1584000Y1079717D02*
X1593600D01*
X1772000Y1055598D02*
X1777928D01*
X1778897Y1054630D01*
X1796866D01*
X1772000Y980795D02*
X1781524D01*
X1783275Y979044D01*
X1779605Y965631D02*
Y976822D01*
X1777600Y978827D02*
X1779605Y976822D01*
X1772000Y978827D02*
X1777600D01*
X1687905Y1150695D02*
Y1155000D01*
Y1150695D02*
X1693800Y1144800D01*
X1695641D02*
X1699716Y1148875D01*
X1729284Y1100283D02*
Y1108855D01*
X1721370Y1116769D02*
X1729284Y1108855D01*
X1721370Y1116769D02*
Y1125866D01*
X1779244Y1092944D02*
Y1103000D01*
X1777332Y1091032D02*
X1779244Y1092944D01*
X1772000Y1091032D02*
X1777332D01*
X1394228Y1127339D02*
X1399600D01*
X1400962Y1125977D01*
X1403256D01*
Y1123683D02*
Y1125977D01*
Y1123683D02*
X1405198Y1121741D01*
X1608800Y1079717D02*
X1613134D01*
X1608000Y1080517D02*
X1608800Y1079717D01*
X1608000Y1080517D02*
Y1088759D01*
X1608800Y1089559D01*
X1584000Y1101370D02*
X1591600D01*
X1723200Y1148244D02*
X1733000D01*
X1721370Y1150074D02*
X1723200Y1148244D01*
X1721370Y1150074D02*
Y1155000D01*
X1506221Y749321D02*
Y758000D01*
X1749284Y940984D02*
Y946134D01*
X1748500Y940200D02*
X1749284Y940984D01*
X1761095Y917000D02*
Y921600D01*
X1762250Y922756D01*
X1773000D01*
X1634000Y1089800D02*
X1634737Y1089063D01*
X1641291Y1093000D02*
Y1103200D01*
X1687905Y1155000D02*
Y1160000D01*
X1686466Y1161439D02*
X1687905Y1160000D01*
X1675139Y1161439D02*
X1686466D01*
X1721370Y1125866D02*
Y1131970D01*
X1733000Y1143600D01*
X1669000Y1107900D02*
X1670228Y1106672D01*
X1737158Y955483D02*
Y969575D01*
Y955483D02*
X1739441Y953200D01*
Y946134D02*
Y953200D01*
X1613134Y1015559D02*
X1623759D01*
X1426220Y764820D02*
Y768000D01*
X1423000Y761600D02*
X1426220Y764820D01*
X1641291Y992606D02*
X1648394D01*
X1650600Y990400D01*
X1693800Y976000D02*
X1693850Y975950D01*
X1684808Y976000D02*
X1693800D01*
X1684008Y975200D02*
X1684808Y976000D01*
X1684008Y969575D02*
Y975200D01*
X1678102Y969575D02*
Y975498D01*
X1641291Y994575D02*
X1659025D01*
X1653630Y941030D02*
Y946134D01*
X1652844Y940244D02*
X1653630Y941030D01*
X1687095Y940305D02*
Y946134D01*
Y940305D02*
X1687156Y940244D01*
X1743063Y1100283D02*
Y1105600D01*
X1741963Y1106700D02*
X1743063Y1105600D01*
X1740000Y1106700D02*
X1741963D01*
X1739126Y1105826D02*
X1740000Y1106700D01*
X1739126Y1100283D02*
Y1105826D01*
X1765520Y1011411D02*
X1766400Y1012291D01*
X1765520Y1001361D02*
Y1011411D01*
Y1001361D02*
X1766400Y1000480D01*
X1727630Y946134D02*
Y952208D01*
X1724862Y954976D02*
X1727630Y952208D01*
X1723242Y954976D02*
X1724862D01*
X1723242D02*
Y955686D01*
X1720466D02*
X1723242D01*
X1720466D02*
Y956768D01*
X1719405D02*
X1720466D01*
X1719405D02*
Y957613D01*
X1718437D02*
X1719405D01*
X1718437D02*
Y957904D01*
X1717728D02*
X1718437D01*
X1717728D02*
Y962110D01*
X1715504Y964334D02*
X1717728Y962110D01*
X1715504Y964334D02*
Y969575D01*
X1626269Y994575D02*
X1641291D01*
X1608800Y1015559D02*
X1613134D01*
X1608000Y1014759D02*
X1608800Y1015559D01*
X1608000Y1006516D02*
Y1014759D01*
Y1006516D02*
X1608800Y1005716D01*
X1613134D01*
X1709559Y1121041D02*
Y1125866D01*
Y1121041D02*
X1710800Y1119800D01*
X1709559Y1125866D02*
Y1131000D01*
X1700800D02*
X1709559D01*
X1699716Y1129916D02*
X1700800Y1131000D01*
X1699716Y1125866D02*
Y1129916D01*
X1729284Y1095016D02*
Y1100283D01*
Y1095016D02*
X1730400Y1093900D01*
X1739126D01*
Y1100283D01*
X1633864Y982764D02*
X1641291D01*
X1632900Y981800D02*
X1633864Y982764D01*
X1641291Y984732D02*
X1647700D01*
Y980000D02*
Y984732D01*
X1646527Y978827D02*
X1647700Y980000D01*
X1641291Y978827D02*
X1646527D01*
X1584000Y1027370D02*
X1603200D01*
X1695819Y1094881D02*
Y1100283D01*
Y1094881D02*
X1696800Y1093900D01*
X1700800D01*
X1701725Y1094825D01*
X1636000Y980795D02*
X1641291D01*
X1634900Y979695D02*
X1636000Y980795D01*
X1634900Y973000D02*
Y979695D01*
X1641291Y1063472D02*
X1647800D01*
Y1083157D01*
X1766400Y976858D02*
X1772000D01*
X1764717Y975175D02*
X1766400Y976858D01*
X1764717Y969575D02*
Y975175D01*
X1687905Y1125866D02*
Y1131251D01*
X1686400Y1132756D02*
X1687905Y1131251D01*
X1676000Y1132756D02*
X1686400D01*
X1681189Y921600D02*
X1682345Y922756D01*
X1699000D01*
X1796866Y1054630D02*
X1802000D01*
X1802756Y1053874D01*
Y1043000D02*
Y1053874D01*
X1821074Y981630D02*
X1826000D01*
X1820244Y980800D02*
X1821074Y981630D01*
X1359928Y1115528D02*
X1365094D01*
X1359900Y1115500D02*
X1359928Y1115528D01*
X1709559Y1150400D02*
Y1155000D01*
X1707577Y1148418D02*
X1709559Y1150400D01*
X1701098Y1148418D02*
X1707577D01*
X1699716Y1149800D02*
X1701098Y1148418D01*
X1674400Y941000D02*
X1675284Y941884D01*
X1666400Y941000D02*
X1674400D01*
X1665441Y941959D02*
X1666400Y941000D01*
X1665441Y941959D02*
Y946134D01*
X1641291Y1083157D02*
X1647700D01*
Y1078400D02*
Y1083157D01*
X1646552Y1077252D02*
X1647700Y1078400D01*
X1641291Y1077252D02*
X1646552D01*
X1606244Y1103126D02*
Y1113000D01*
X1607244Y1057000D02*
Y1066400D01*
X1608750Y1067906D01*
X1613134D01*
X1607244Y982000D02*
Y992000D01*
X1609149Y993905D01*
X1613134D01*
X1761095Y941550D02*
X1762400Y940244D01*
X1761095Y941550D02*
Y946134D01*
X1715504Y1095004D02*
Y1100283D01*
X1714400Y1093900D02*
X1715504Y1095004D01*
X1701725Y1093900D02*
X1714400D01*
X1390092Y1148992D02*
X1394228D01*
X1389100Y1148000D02*
X1390092Y1148992D01*
X1389100Y1137181D02*
Y1148000D01*
X1792800Y981630D02*
X1796866D01*
X1791700Y982730D02*
Y992341D01*
X1792800Y993441D01*
X1796866D01*
X1389100Y1137181D02*
X1394228D01*
X1389100Y1127339D02*
Y1137181D01*
Y1127339D02*
X1394228D01*
X1821742Y1003283D02*
X1826000D01*
X1820059Y1001600D02*
X1821742Y1003283D01*
X1820059Y995200D02*
Y1001600D01*
Y995200D02*
X1821818Y993441D01*
X1826000D01*
D71*
X2001000Y876000D02*
Y889600D01*
X1993323Y875600D02*
Y876000D01*
Y872277D02*
Y875600D01*
X1964900D02*
X1993323D01*
X1931000Y875524D02*
X1936774D01*
X1923323Y864456D02*
Y876000D01*
Y856400D02*
Y864456D01*
X1993323Y872277D02*
X1996800Y868800D01*
X1928441Y893323D02*
Y897800D01*
X1952841Y922200D01*
X1928441Y888041D02*
Y893323D01*
X1927800Y887400D02*
X1928441Y888041D01*
X1999156Y887756D02*
X2001000Y889600D01*
X1937000Y887756D02*
X1999156D01*
X1948544Y876000D02*
X1993323D01*
X1931000Y889556D02*
Y893323D01*
Y889556D02*
X1932800Y887756D01*
X1937000D01*
X1931000Y875524D02*
Y876000D01*
X1998441Y893323D02*
Y896800D01*
X1999541Y897900D01*
X2006400D01*
X2001000Y889600D02*
Y893323D01*
Y889600D02*
X2002844Y887756D01*
X2007000D01*
D72*
X1817094Y862800D02*
Y883722D01*
Y859906D02*
Y862800D01*
X1801185Y838252D02*
X1803600D01*
X1792052D02*
X1801185D01*
X1789535D02*
X1792052D01*
X1791505Y848095D02*
X1793100D01*
X1789500Y842189D02*
Y844158D01*
X1847200Y830000D02*
X1847244D01*
X1825347D02*
X1847200D01*
X1824154Y831192D02*
X1825347Y830000D01*
X1823000Y832347D02*
X1824154Y831192D01*
X1806059Y852470D02*
X1810500Y856911D01*
X1787037Y850063D02*
X1787163D01*
X1786600Y840221D02*
X1787621D01*
X1786787Y846313D02*
X1786974Y846126D01*
X1785900Y847200D02*
X1786787Y846313D01*
X1817094Y826441D02*
Y829100D01*
X1819300D01*
X1786974Y846126D02*
X1789535D01*
X1786600D02*
X1786787Y846313D01*
X1786600Y840221D02*
Y846126D01*
X1811189Y857600D02*
Y859906D01*
X1785900Y851200D02*
X1787037Y850063D01*
X1813157Y826441D02*
Y828695D01*
X1803600Y838252D02*
X1813157Y828695D01*
Y850224D02*
Y859906D01*
Y862800D02*
X1817094D01*
X1813157Y859906D02*
Y862800D01*
X1787621Y840221D02*
X1789535D01*
X1786612Y839212D02*
X1787621Y840221D01*
X1786612Y836284D02*
Y839212D01*
Y836284D02*
X1789535D01*
X1810500Y853756D02*
Y856911D01*
X1811189Y857600D01*
X1823000Y854000D02*
X1837900D01*
X1811189Y820800D02*
Y826441D01*
X1824154Y823554D02*
Y831192D01*
X1792052Y838252D02*
X1793800Y840000D01*
X1787163Y850063D02*
X1789535D01*
X1785900Y848800D02*
X1787163Y850063D01*
X1789535Y844158D02*
X1792400D01*
Y847200D01*
X1791505Y848095D02*
X1792400Y847200D01*
X1789535Y848095D02*
X1791505D01*
X1817094Y824394D02*
Y826441D01*
X1816000Y823300D02*
X1817094Y824394D01*
X1813600Y823300D02*
X1816000D01*
X1813157Y823743D02*
X1813600Y823300D01*
X1813157Y823743D02*
Y826441D01*
X1820500Y854000D02*
X1823000D01*
X1819300Y852800D02*
X1820500Y854000D01*
X1819300Y833600D02*
X1820553Y832347D01*
X1823000D01*
X1789500Y844158D02*
X1789535D01*
X1789500Y842189D02*
X1789535D01*
M02*
