%FSLAX25Y25*%
%MOIN*%
G70*
G01*
G75*
G04 Layer_Color=32896*
%ADD10R,0.07480X0.11024*%
%ADD11R,0.04724X0.05512*%
%ADD12R,0.00787X0.04724*%
%ADD13O,0.00787X0.04724*%
%ADD14O,0.01969X0.10630*%
%ADD15R,0.01969X0.10630*%
%ADD16R,0.03150X0.03543*%
%ADD17R,0.03543X0.03150*%
%ADD18O,0.07480X0.01575*%
%ADD19R,0.05709X0.01772*%
%ADD20O,0.05709X0.01772*%
%ADD21O,0.02400X0.08000*%
%ADD22R,0.08500X0.04200*%
%ADD23R,0.20000X0.32500*%
%ADD24R,0.07500X0.42500*%
%ADD25R,0.05906X0.05906*%
%ADD26C,0.03000*%
%ADD27C,0.00800*%
%ADD28C,0.05000*%
%ADD29C,0.00780*%
%ADD30C,0.08000*%
%ADD31C,0.02500*%
%ADD32R,0.40000X0.40000*%
%ADD33R,0.10000X0.50000*%
%ADD34R,0.09449X0.09449*%
%ADD35R,0.08268X0.11024*%
%ADD36R,1.60000X0.40000*%
%ADD37R,0.50000X0.10000*%
%ADD38R,0.14000X0.15000*%
%ADD39C,0.07000*%
%ADD40R,0.08000X0.08000*%
%ADD41C,0.08000*%
%ADD42C,0.05906*%
%ADD43C,0.07874*%
%ADD44C,0.17716*%
%ADD45C,0.05118*%
%ADD46R,0.05000X0.05000*%
%ADD47C,0.05000*%
%ADD48R,0.05906X0.05906*%
%ADD49C,0.14000*%
%ADD50C,0.05500*%
%ADD51C,0.11000*%
%ADD52C,0.10000*%
%ADD53C,0.06000*%
%ADD54C,0.12000*%
%ADD55R,0.06000X0.06000*%
%ADD56C,0.05512*%
%ADD57R,0.05315X0.05315*%
%ADD58C,0.05315*%
%ADD59C,0.03000*%
%ADD60R,2.00000X0.06000*%
%ADD61O,0.01969X0.03937*%
%ADD62R,0.01969X0.03937*%
%ADD63R,0.06299X0.01181*%
%ADD64O,0.06299X0.01181*%
%ADD65R,0.09449X0.24410*%
%ADD66R,0.03937X0.01969*%
%ADD67O,0.03937X0.01969*%
%ADD68O,0.07480X0.01181*%
%ADD69O,0.01181X0.07480*%
%ADD70O,0.10000X0.01181*%
%ADD71O,0.01181X0.10000*%
%ADD72R,0.00984X0.03150*%
%ADD73R,0.03150X0.00984*%
%ADD74O,0.03150X0.00984*%
%ADD75R,0.01181X0.03937*%
%ADD76O,0.01181X0.03937*%
%ADD77O,0.01969X0.07874*%
%ADD78R,0.04724X0.05512*%
%ADD79C,0.01000*%
%ADD80C,0.00787*%
%ADD81C,0.01500*%
%ADD82R,0.60000X0.45000*%
%ADD83R,0.70000X0.10000*%
%ADD84R,0.10165X0.49724*%
%ADD85R,3.70000X0.10000*%
%ADD86R,1.20000X0.10000*%
%ADD87R,1.90000X0.11000*%
%ADD88R,1.30000X0.10000*%
%ADD89C,0.00500*%
%ADD90R,0.08280X0.11824*%
%ADD91R,0.05524X0.06312*%
%ADD92R,0.01587X0.05524*%
%ADD93O,0.01587X0.05524*%
%ADD94O,0.02769X0.11430*%
%ADD95R,0.02769X0.11430*%
%ADD96R,0.03950X0.04343*%
%ADD97R,0.04343X0.03950*%
%ADD98O,0.08280X0.02375*%
%ADD99R,0.06509X0.02572*%
%ADD100O,0.06509X0.02572*%
%ADD101O,0.03200X0.08800*%
%ADD102R,0.09300X0.05000*%
%ADD103R,0.20800X0.33300*%
%ADD104R,0.08300X0.43300*%
%ADD105R,0.06706X0.06706*%
%ADD106R,0.10249X0.10249*%
%ADD107R,0.09068X0.11824*%
%ADD108C,0.07800*%
%ADD109R,0.08800X0.08800*%
%ADD110C,0.08800*%
%ADD111C,0.06706*%
%ADD112C,0.08674*%
%ADD113C,0.18517*%
%ADD114C,0.05918*%
%ADD115R,0.05800X0.05800*%
%ADD116C,0.05800*%
%ADD117R,0.06706X0.06706*%
%ADD118C,0.14800*%
%ADD119C,0.06300*%
%ADD120C,0.11800*%
%ADD121C,0.10800*%
%ADD122C,0.06800*%
%ADD123C,0.12800*%
%ADD124R,0.06800X0.06800*%
%ADD125C,0.06312*%
%ADD126R,0.06115X0.06115*%
%ADD127C,0.06115*%
%ADD128C,0.03800*%
%ADD129R,2.00800X0.06800*%
%ADD130O,0.02769X0.04737*%
%ADD131R,0.02769X0.04737*%
%ADD132R,0.07099X0.01981*%
%ADD133O,0.07099X0.01981*%
%ADD134R,0.10249X0.25210*%
%ADD135R,0.04737X0.02769*%
%ADD136O,0.04737X0.02769*%
%ADD137O,0.08280X0.01981*%
%ADD138O,0.01981X0.08280*%
%ADD139O,0.10800X0.01981*%
%ADD140O,0.01981X0.10800*%
%ADD141R,0.01784X0.03950*%
%ADD142R,0.03950X0.01784*%
%ADD143O,0.03950X0.01784*%
%ADD144R,0.01981X0.04737*%
%ADD145O,0.01981X0.04737*%
%ADD146O,0.02769X0.08674*%
%ADD147R,0.05524X0.06312*%
D27*
X1497362Y973228D02*
G03*
X1497362Y970228I0J-1500D01*
G01*
X1395000Y952118D02*
X1497362D01*
X1395000Y991488D02*
X1497362D01*
Y973228D02*
Y991488D01*
Y952118D02*
Y970228D01*
X1395000Y952118D02*
Y991488D01*
D79*
X1818568Y1092031D02*
G03*
X1818568Y1092031I-1623J0D01*
G01*
X1386796Y1152929D02*
G03*
X1386796Y1152929I-1623J0D01*
G01*
X1594678Y1063968D02*
G03*
X1594678Y1063968I-1623J0D01*
G01*
X1766655Y926055D02*
G03*
X1766655Y926055I-1623J0D01*
G01*
X1818568Y1019032D02*
G03*
X1818568Y1019032I-1623J0D01*
G01*
X1692655Y926055D02*
G03*
X1692655Y926055I-1623J0D01*
G01*
X1685592Y1145945D02*
G03*
X1685592Y1145945I-1623J0D01*
G01*
X1762682Y1088682D02*
G03*
X1762682Y1088682I-2296J0D01*
G01*
X1594678Y989968D02*
G03*
X1594678Y989968I-1623J0D01*
G01*
Y1143968D02*
G03*
X1594678Y1143968I-1623J0D01*
G01*
X1820787Y1153701D02*
G03*
X1819213Y1153701I-787J0D01*
G01*
X1863606Y868047D02*
Y874150D01*
X1863705Y874051D01*
X1863606Y874150D02*
X1875417D01*
Y867949D02*
Y874150D01*
X1863705Y867949D02*
X1875417D01*
X1863705D02*
Y870065D01*
X1848606Y868047D02*
Y874150D01*
X1848705Y874051D01*
X1848606Y874150D02*
X1860417D01*
Y867949D02*
Y874150D01*
X1848705Y867949D02*
X1860417D01*
X1848705D02*
Y870065D01*
X1974606Y819047D02*
Y825150D01*
X1974705Y825051D01*
X1974606Y825150D02*
X1986417D01*
Y818949D02*
Y825150D01*
X1974705Y818949D02*
X1986417D01*
X1974705D02*
Y821065D01*
X1903705Y818949D02*
Y821065D01*
Y818949D02*
X1915417D01*
Y825150D01*
X1903606D02*
X1915417D01*
X1903606D02*
X1903705Y825051D01*
X1903606Y819047D02*
Y825150D01*
X1910872Y1164295D02*
X1912988D01*
Y1176008D01*
X1906787D02*
X1912988D01*
X1906787Y1164197D02*
Y1176008D01*
Y1164197D02*
X1906886Y1164295D01*
X1906787Y1164197D02*
X1912890D01*
X1801984Y1095575D02*
X1820488D01*
Y1047150D02*
Y1095575D01*
X1801984Y1047150D02*
Y1095575D01*
Y1047150D02*
X1820488D01*
X1370212Y1108048D02*
Y1156473D01*
X1388716Y1108048D02*
Y1156473D01*
X1370212Y1108048D02*
X1388716D01*
X1370212Y1156473D02*
X1388716D01*
X1589512Y1060425D02*
X1608016D01*
X1589512D02*
Y1108850D01*
X1608016Y1060425D02*
Y1108850D01*
X1589512D02*
X1608016D01*
X1768575Y922512D02*
Y941016D01*
X1720150Y922512D02*
X1768575D01*
X1720150Y941016D02*
X1768575D01*
X1720150Y922512D02*
Y941016D01*
X1801984Y1022575D02*
X1820488D01*
Y974150D02*
Y1022575D01*
X1801984Y974150D02*
Y1022575D01*
Y974150D02*
X1820488D01*
X1694575Y922512D02*
Y941016D01*
X1646150Y922512D02*
X1694575D01*
X1646150Y941016D02*
X1694575D01*
X1646150Y922512D02*
Y941016D01*
X1680425Y1130984D02*
Y1149488D01*
X1728850D01*
X1680425Y1130984D02*
X1728850D01*
Y1149488D01*
X1647984Y1093591D02*
X1765307D01*
X1647984Y976366D02*
Y1093591D01*
X1765307Y976366D02*
Y1093591D01*
X1647984Y976366D02*
X1765307D01*
X1589512Y986425D02*
X1608016D01*
X1589512D02*
Y1034850D01*
X1608016Y986425D02*
Y1034850D01*
X1589512D02*
X1608016D01*
X1589512Y1140425D02*
X1608016D01*
X1589512Y1188850D02*
X1608016D01*
X1589512Y1140425D02*
Y1188850D01*
X1608016Y1140425D02*
Y1188850D01*
X1820394Y1153701D02*
X1824921D01*
Y1166299D01*
X1815079D02*
X1824921D01*
X1815079Y1153701D02*
Y1166299D01*
Y1153701D02*
X1820394D01*
X1861901Y927398D02*
X1862901Y928398D01*
X1864900D01*
X1865900Y927398D01*
Y923400D01*
X1864900Y922400D01*
X1862901D01*
X1861901Y923400D01*
X1855903Y928398D02*
X1859902D01*
Y925399D01*
X1857903Y926399D01*
X1856903D01*
X1855903Y925399D01*
Y923400D01*
X1856903Y922400D01*
X1858902D01*
X1859902Y923400D01*
X1849905Y928398D02*
X1853904D01*
Y925399D01*
X1851904Y926399D01*
X1850905D01*
X1849905Y925399D01*
Y923400D01*
X1850905Y922400D01*
X1852904D01*
X1853904Y923400D01*
X1977900Y917400D02*
Y923398D01*
X1974901D01*
X1973901Y922398D01*
Y920399D01*
X1974901Y919399D01*
X1977900D01*
X1975901D02*
X1973901Y917400D01*
X1971902Y922398D02*
X1970902Y923398D01*
X1968903D01*
X1967903Y922398D01*
Y921399D01*
X1968903Y920399D01*
X1967903Y919399D01*
Y918400D01*
X1968903Y917400D01*
X1970902D01*
X1971902Y918400D01*
Y919399D01*
X1970902Y920399D01*
X1971902Y921399D01*
Y922398D01*
X1970902Y920399D02*
X1968903D01*
X1965904Y922398D02*
X1964904Y923398D01*
X1962905D01*
X1961905Y922398D01*
Y918400D01*
X1962905Y917400D01*
X1964904D01*
X1965904Y918400D01*
Y922398D01*
X1920900Y918400D02*
Y924398D01*
X1917901D01*
X1916901Y923398D01*
Y921399D01*
X1917901Y920399D01*
X1920900D01*
X1918901D02*
X1916901Y918400D01*
X1914902Y923398D02*
X1913902Y924398D01*
X1911903D01*
X1910903Y923398D01*
Y922399D01*
X1911903Y921399D01*
X1910903Y920399D01*
Y919400D01*
X1911903Y918400D01*
X1913902D01*
X1914902Y919400D01*
Y920399D01*
X1913902Y921399D01*
X1914902Y922399D01*
Y923398D01*
X1913902Y921399D02*
X1911903D01*
X1908904Y918400D02*
X1906904D01*
X1907904D01*
Y924398D01*
X1908904Y923398D01*
X1977900Y902400D02*
Y908398D01*
X1974901D01*
X1973901Y907398D01*
Y905399D01*
X1974901Y904399D01*
X1977900D01*
X1975901D02*
X1973901Y902400D01*
X1971902Y907398D02*
X1970902Y908398D01*
X1968903D01*
X1967903Y907398D01*
Y906399D01*
X1968903Y905399D01*
X1967903Y904399D01*
Y903400D01*
X1968903Y902400D01*
X1970902D01*
X1971902Y903400D01*
Y904399D01*
X1970902Y905399D01*
X1971902Y906399D01*
Y907398D01*
X1970902Y905399D02*
X1968903D01*
X1961905Y902400D02*
X1965904D01*
X1961905Y906399D01*
Y907398D01*
X1962905Y908398D01*
X1964904D01*
X1965904Y907398D01*
X1920900Y903400D02*
Y909398D01*
X1917901D01*
X1916901Y908398D01*
Y906399D01*
X1917901Y905399D01*
X1920900D01*
X1918901D02*
X1916901Y903400D01*
X1914902Y908398D02*
X1913902Y909398D01*
X1911903D01*
X1910903Y908398D01*
Y907399D01*
X1911903Y906399D01*
X1910903Y905399D01*
Y904400D01*
X1911903Y903400D01*
X1913902D01*
X1914902Y904400D01*
Y905399D01*
X1913902Y906399D01*
X1914902Y907399D01*
Y908398D01*
X1913902Y906399D02*
X1911903D01*
X1908904Y908398D02*
X1907904Y909398D01*
X1905905D01*
X1904905Y908398D01*
Y907399D01*
X1905905Y906399D01*
X1904905Y905399D01*
Y904400D01*
X1905905Y903400D01*
X1907904D01*
X1908904Y904400D01*
Y905399D01*
X1907904Y906399D01*
X1908904Y907399D01*
Y908398D01*
X1907904Y906399D02*
X1905905D01*
X1909901Y798398D02*
X1910901Y799398D01*
X1912900D01*
X1913900Y798398D01*
Y794400D01*
X1912900Y793400D01*
X1910901D01*
X1909901Y794400D01*
X1903903Y799398D02*
X1905903Y798398D01*
X1907902Y796399D01*
Y794400D01*
X1906902Y793400D01*
X1904903D01*
X1903903Y794400D01*
Y795399D01*
X1904903Y796399D01*
X1907902D01*
X1901904Y798398D02*
X1900904Y799398D01*
X1898905D01*
X1897905Y798398D01*
Y797399D01*
X1898905Y796399D01*
X1899904D01*
X1898905D01*
X1897905Y795399D01*
Y794400D01*
X1898905Y793400D01*
X1900904D01*
X1901904Y794400D01*
X1999901Y798398D02*
X2000901Y799398D01*
X2002900D01*
X2003900Y798398D01*
Y794400D01*
X2002900Y793400D01*
X2000901D01*
X1999901Y794400D01*
X1993903Y799398D02*
X1995903Y798398D01*
X1997902Y796399D01*
Y794400D01*
X1996902Y793400D01*
X1994903D01*
X1993903Y794400D01*
Y795399D01*
X1994903Y796399D01*
X1997902D01*
X1987905Y799398D02*
X1989905Y798398D01*
X1991904Y796399D01*
Y794400D01*
X1990904Y793400D01*
X1988905D01*
X1987905Y794400D01*
Y795399D01*
X1988905Y796399D01*
X1991904D01*
X1944901Y945398D02*
X1945901Y946398D01*
X1947900D01*
X1948900Y945398D01*
Y941400D01*
X1947900Y940400D01*
X1945901D01*
X1944901Y941400D01*
X1938903Y946398D02*
X1940903Y945398D01*
X1942902Y943399D01*
Y941400D01*
X1941902Y940400D01*
X1939903D01*
X1938903Y941400D01*
Y942399D01*
X1939903Y943399D01*
X1942902D01*
X1932905Y946398D02*
X1936904D01*
Y943399D01*
X1934904Y944399D01*
X1933905D01*
X1932905Y943399D01*
Y941400D01*
X1933905Y940400D01*
X1935904D01*
X1936904Y941400D01*
X1944901Y865398D02*
X1945901Y866398D01*
X1947900D01*
X1948900Y865398D01*
Y861400D01*
X1947900Y860400D01*
X1945901D01*
X1944901Y861400D01*
X1938903Y866398D02*
X1942902D01*
Y863399D01*
X1940903Y864399D01*
X1939903D01*
X1938903Y863399D01*
Y861400D01*
X1939903Y860400D01*
X1941902D01*
X1942902Y861400D01*
X1936904Y865398D02*
X1935904Y866398D01*
X1933905D01*
X1932905Y865398D01*
Y864399D01*
X1933905Y863399D01*
X1932905Y862399D01*
Y861400D01*
X1933905Y860400D01*
X1935904D01*
X1936904Y861400D01*
Y862399D01*
X1935904Y863399D01*
X1936904Y864399D01*
Y865398D01*
X1935904Y863399D02*
X1933905D01*
X1944901Y965398D02*
X1945901Y966398D01*
X1947900D01*
X1948900Y965398D01*
Y961400D01*
X1947900Y960400D01*
X1945901D01*
X1944901Y961400D01*
X1938903Y966398D02*
X1940903Y965398D01*
X1942902Y963399D01*
Y961400D01*
X1941902Y960400D01*
X1939903D01*
X1938903Y961400D01*
Y962399D01*
X1939903Y963399D01*
X1942902D01*
X1932905Y960400D02*
X1936904D01*
X1932905Y964399D01*
Y965398D01*
X1933905Y966398D01*
X1935904D01*
X1936904Y965398D01*
X1944901Y885398D02*
X1945901Y886398D01*
X1947900D01*
X1948900Y885398D01*
Y881400D01*
X1947900Y880400D01*
X1945901D01*
X1944901Y881400D01*
X1938903Y886398D02*
X1942902D01*
Y883399D01*
X1940903Y884399D01*
X1939903D01*
X1938903Y883399D01*
Y881400D01*
X1939903Y880400D01*
X1941902D01*
X1942902Y881400D01*
X1933905Y880400D02*
Y886398D01*
X1936904Y883399D01*
X1932905D01*
X1874900Y887498D02*
Y881500D01*
X1871901D01*
X1870901Y882500D01*
Y886498D01*
X1871901Y887498D01*
X1874900D01*
X1868902Y886498D02*
X1867902Y887498D01*
X1865903D01*
X1864903Y886498D01*
Y885499D01*
X1865903Y884499D01*
X1866903D01*
X1865903D01*
X1864903Y883499D01*
Y882500D01*
X1865903Y881500D01*
X1867902D01*
X1868902Y882500D01*
X1859900Y887498D02*
Y881500D01*
X1856901D01*
X1855901Y882500D01*
Y886498D01*
X1856901Y887498D01*
X1859900D01*
X1849903Y881500D02*
X1853902D01*
X1849903Y885499D01*
Y886498D01*
X1850903Y887498D01*
X1852902D01*
X1853902Y886498D01*
X1985900Y838498D02*
Y832500D01*
X1982901D01*
X1981901Y833500D01*
Y837498D01*
X1982901Y838498D01*
X1985900D01*
X1975903D02*
X1979902D01*
Y835499D01*
X1977903Y836499D01*
X1976903D01*
X1975903Y835499D01*
Y833500D01*
X1976903Y832500D01*
X1978902D01*
X1979902Y833500D01*
X1914900Y838498D02*
Y832500D01*
X1911901D01*
X1910901Y833500D01*
Y837498D01*
X1911901Y838498D01*
X1914900D01*
X1905903Y832500D02*
Y838498D01*
X1908902Y835499D01*
X1904903D01*
X1901400Y792900D02*
Y798898D01*
X1898401D01*
X1897401Y797898D01*
Y795899D01*
X1898401Y794899D01*
X1901400D01*
X1899401D02*
X1897401Y792900D01*
X1895402Y797898D02*
X1894402Y798898D01*
X1892403D01*
X1891403Y797898D01*
Y796899D01*
X1892403Y795899D01*
X1891403Y794899D01*
Y793900D01*
X1892403Y792900D01*
X1894402D01*
X1895402Y793900D01*
Y794899D01*
X1894402Y795899D01*
X1895402Y796899D01*
Y797898D01*
X1894402Y795899D02*
X1892403D01*
X1886405Y792900D02*
Y798898D01*
X1889404Y795899D01*
X1885405D01*
X1989400Y792900D02*
Y798898D01*
X1986401D01*
X1985401Y797898D01*
Y795899D01*
X1986401Y794899D01*
X1989400D01*
X1987401D02*
X1985401Y792900D01*
X1983402Y797898D02*
X1982402Y798898D01*
X1980403D01*
X1979403Y797898D01*
Y796899D01*
X1980403Y795899D01*
X1979403Y794899D01*
Y793900D01*
X1980403Y792900D01*
X1982402D01*
X1983402Y793900D01*
Y794899D01*
X1982402Y795899D01*
X1983402Y796899D01*
Y797898D01*
X1982402Y795899D02*
X1980403D01*
X1973405Y798898D02*
X1975405Y797898D01*
X1977404Y795899D01*
Y793900D01*
X1976404Y792900D01*
X1974405D01*
X1973405Y793900D01*
Y794899D01*
X1974405Y795899D01*
X1977404D01*
X1418400Y1019900D02*
Y1025898D01*
X1415401D01*
X1414401Y1024898D01*
Y1022899D01*
X1415401Y1021899D01*
X1418400D01*
X1416401D02*
X1414401Y1019900D01*
X1412402Y1025898D02*
X1408403D01*
Y1024898D01*
X1412402Y1020900D01*
Y1019900D01*
X1406404D02*
X1404405D01*
X1405404D01*
Y1025898D01*
X1406404Y1024898D01*
X1425400Y1019900D02*
Y1025898D01*
X1422401D01*
X1421401Y1024898D01*
Y1022899D01*
X1422401Y1021899D01*
X1425400D01*
X1423401D02*
X1421401Y1019900D01*
X1419402Y1025898D02*
X1415403D01*
Y1024898D01*
X1419402Y1020900D01*
Y1019900D01*
X1413404Y1024898D02*
X1412404Y1025898D01*
X1410405D01*
X1409405Y1024898D01*
Y1020900D01*
X1410405Y1019900D01*
X1412404D01*
X1413404Y1020900D01*
Y1024898D01*
X1503400Y1000900D02*
Y1006898D01*
X1500401D01*
X1499401Y1005898D01*
Y1003899D01*
X1500401Y1002899D01*
X1503400D01*
X1501401D02*
X1499401Y1000900D01*
X1493403Y1006898D02*
X1495403Y1005898D01*
X1497402Y1003899D01*
Y1001900D01*
X1496402Y1000900D01*
X1494403D01*
X1493403Y1001900D01*
Y1002899D01*
X1494403Y1003899D01*
X1497402D01*
X1491404Y1001900D02*
X1490404Y1000900D01*
X1488405D01*
X1487405Y1001900D01*
Y1005898D01*
X1488405Y1006898D01*
X1490404D01*
X1491404Y1005898D01*
Y1004899D01*
X1490404Y1003899D01*
X1487405D01*
X1527400Y838900D02*
Y844898D01*
X1524401D01*
X1523401Y843898D01*
Y841899D01*
X1524401Y840899D01*
X1527400D01*
X1525401D02*
X1523401Y838900D01*
X1517403Y844898D02*
X1519403Y843898D01*
X1521402Y841899D01*
Y839900D01*
X1520402Y838900D01*
X1518403D01*
X1517403Y839900D01*
Y840899D01*
X1518403Y841899D01*
X1521402D01*
X1515404Y843898D02*
X1514404Y844898D01*
X1512405D01*
X1511405Y843898D01*
Y839900D01*
X1512405Y838900D01*
X1514404D01*
X1515404Y839900D01*
Y843898D01*
X1715400Y927900D02*
Y933898D01*
X1712401D01*
X1711401Y932898D01*
Y930899D01*
X1712401Y929899D01*
X1715400D01*
X1713401D02*
X1711401Y927900D01*
X1705403D02*
X1709402D01*
X1705403Y931899D01*
Y932898D01*
X1706403Y933898D01*
X1708402D01*
X1709402Y932898D01*
X1699405Y933898D02*
X1701405Y932898D01*
X1703404Y930899D01*
Y928900D01*
X1702404Y927900D01*
X1700405D01*
X1699405Y928900D01*
Y929899D01*
X1700405Y930899D01*
X1703404D01*
X1715400Y950900D02*
Y956898D01*
X1712401D01*
X1711401Y955898D01*
Y953899D01*
X1712401Y952899D01*
X1715400D01*
X1713401D02*
X1711401Y950900D01*
X1705403D02*
X1709402D01*
X1705403Y954899D01*
Y955898D01*
X1706403Y956898D01*
X1708402D01*
X1709402Y955898D01*
X1699405Y956898D02*
X1703404D01*
Y953899D01*
X1701405Y954899D01*
X1700405D01*
X1699405Y953899D01*
Y951900D01*
X1700405Y950900D01*
X1702404D01*
X1703404Y951900D01*
X1641400Y927900D02*
Y933898D01*
X1638401D01*
X1637401Y932898D01*
Y930899D01*
X1638401Y929899D01*
X1641400D01*
X1639401D02*
X1637401Y927900D01*
X1635402Y928900D02*
X1634402Y927900D01*
X1632403D01*
X1631403Y928900D01*
Y932898D01*
X1632403Y933898D01*
X1634402D01*
X1635402Y932898D01*
Y931899D01*
X1634402Y930899D01*
X1631403D01*
X1641400Y950900D02*
Y956898D01*
X1638401D01*
X1637401Y955898D01*
Y953899D01*
X1638401Y952899D01*
X1641400D01*
X1639401D02*
X1637401Y950900D01*
X1635402Y955898D02*
X1634402Y956898D01*
X1632403D01*
X1631403Y955898D01*
Y954899D01*
X1632403Y953899D01*
X1631403Y952899D01*
Y951900D01*
X1632403Y950900D01*
X1634402D01*
X1635402Y951900D01*
Y952899D01*
X1634402Y953899D01*
X1635402Y954899D01*
Y955898D01*
X1634402Y953899D02*
X1632403D01*
X1293400Y1207900D02*
Y1213898D01*
X1290401D01*
X1289401Y1212898D01*
Y1210899D01*
X1290401Y1209899D01*
X1293400D01*
X1291401D02*
X1289401Y1207900D01*
X1287402Y1213898D02*
X1283403D01*
Y1212898D01*
X1287402Y1208900D01*
Y1207900D01*
X1397400Y1165998D02*
Y1161000D01*
X1396400Y1160000D01*
X1394401D01*
X1393401Y1161000D01*
Y1165998D01*
X1391402Y1160000D02*
X1389403D01*
X1390402D01*
Y1165998D01*
X1391402Y1164998D01*
X1386404Y1165998D02*
X1382405D01*
Y1164998D01*
X1386404Y1161000D01*
Y1160000D01*
X1440400Y833298D02*
Y828300D01*
X1439400Y827300D01*
X1437401D01*
X1436401Y828300D01*
Y833298D01*
X1434402Y827300D02*
X1432403D01*
X1433402D01*
Y833298D01*
X1434402Y832298D01*
X1425405Y833298D02*
X1429404D01*
Y830299D01*
X1427404Y831299D01*
X1426404D01*
X1425405Y830299D01*
Y828300D01*
X1426404Y827300D01*
X1428404D01*
X1429404Y828300D01*
X1825300Y1176498D02*
X1821301Y1170500D01*
Y1176498D02*
X1825300Y1170500D01*
X1819302D02*
X1817303D01*
X1818302D01*
Y1176498D01*
X1819302Y1175498D01*
X1916400Y1185498D02*
Y1180500D01*
X1915400Y1179500D01*
X1913401D01*
X1912401Y1180500D01*
Y1185498D01*
X1910402Y1179500D02*
X1908403D01*
X1909402D01*
Y1185498D01*
X1910402Y1184498D01*
X1901405Y1179500D02*
X1905404D01*
X1901405Y1183499D01*
Y1184498D01*
X1902405Y1185498D01*
X1904404D01*
X1905404Y1184498D01*
X1728400Y1168098D02*
Y1163100D01*
X1727400Y1162100D01*
X1725401D01*
X1724401Y1163100D01*
Y1168098D01*
X1722402Y1162100D02*
X1720403D01*
X1721402D01*
Y1168098D01*
X1722402Y1167098D01*
X1717404D02*
X1716404Y1168098D01*
X1714404D01*
X1713405Y1167098D01*
Y1163100D01*
X1714404Y1162100D01*
X1716404D01*
X1717404Y1163100D01*
Y1167098D01*
X1829100Y1032098D02*
Y1027100D01*
X1828100Y1026100D01*
X1826101D01*
X1825101Y1027100D01*
Y1032098D01*
X1823102Y1031098D02*
X1822102Y1032098D01*
X1820103D01*
X1819103Y1031098D01*
Y1030099D01*
X1820103Y1029099D01*
X1819103Y1028099D01*
Y1027100D01*
X1820103Y1026100D01*
X1822102D01*
X1823102Y1027100D01*
Y1028099D01*
X1822102Y1029099D01*
X1823102Y1030099D01*
Y1031098D01*
X1822102Y1029099D02*
X1820103D01*
X1616300Y1044398D02*
Y1039400D01*
X1615300Y1038400D01*
X1613301D01*
X1612301Y1039400D01*
Y1044398D01*
X1610302D02*
X1606303D01*
Y1043398D01*
X1610302Y1039400D01*
Y1038400D01*
X1829100Y1105098D02*
Y1100100D01*
X1828100Y1099100D01*
X1826101D01*
X1825101Y1100100D01*
Y1105098D01*
X1819103D02*
X1821103Y1104098D01*
X1823102Y1102099D01*
Y1100100D01*
X1822102Y1099100D01*
X1820103D01*
X1819103Y1100100D01*
Y1101099D01*
X1820103Y1102099D01*
X1823102D01*
X1768100Y959298D02*
Y954300D01*
X1767100Y953300D01*
X1765101D01*
X1764101Y954300D01*
Y959298D01*
X1758103D02*
X1762102D01*
Y956299D01*
X1760103Y957299D01*
X1759103D01*
X1758103Y956299D01*
Y954300D01*
X1759103Y953300D01*
X1761102D01*
X1762102Y954300D01*
X1776400Y1114698D02*
Y1109700D01*
X1775400Y1108700D01*
X1773401D01*
X1772401Y1109700D01*
Y1114698D01*
X1767403Y1108700D02*
Y1114698D01*
X1770402Y1111699D01*
X1766403D01*
X1616230Y1118343D02*
Y1113345D01*
X1615230Y1112345D01*
X1613231D01*
X1612231Y1113345D01*
Y1118343D01*
X1610232Y1117343D02*
X1609232Y1118343D01*
X1607233D01*
X1606233Y1117343D01*
Y1116344D01*
X1607233Y1115344D01*
X1608232D01*
X1607233D01*
X1606233Y1114344D01*
Y1113345D01*
X1607233Y1112345D01*
X1609232D01*
X1610232Y1113345D01*
X1694100Y959298D02*
Y954300D01*
X1693100Y953300D01*
X1691101D01*
X1690101Y954300D01*
Y959298D01*
X1684103Y953300D02*
X1688102D01*
X1684103Y957299D01*
Y958298D01*
X1685103Y959298D01*
X1687102D01*
X1688102Y958298D01*
X1334200Y1041400D02*
Y1047398D01*
X1331201D01*
X1330201Y1046398D01*
Y1044399D01*
X1331201Y1043399D01*
X1334200D01*
X1332201D02*
X1330201Y1041400D01*
X1324203Y1047398D02*
X1328202D01*
Y1044399D01*
X1326203Y1045399D01*
X1325203D01*
X1324203Y1044399D01*
Y1042400D01*
X1325203Y1041400D01*
X1327202D01*
X1328202Y1042400D01*
X1318205Y1041400D02*
X1322204D01*
X1318205Y1045399D01*
Y1046398D01*
X1319205Y1047398D01*
X1321204D01*
X1322204Y1046398D01*
X1334200Y981400D02*
Y987398D01*
X1331201D01*
X1330201Y986398D01*
Y984399D01*
X1331201Y983399D01*
X1334200D01*
X1332201D02*
X1330201Y981400D01*
X1324203Y987398D02*
X1328202D01*
Y984399D01*
X1326203Y985399D01*
X1325203D01*
X1324203Y984399D01*
Y982400D01*
X1325203Y981400D01*
X1327202D01*
X1328202Y982400D01*
X1322204Y981400D02*
X1320205D01*
X1321204D01*
Y987398D01*
X1322204Y986398D01*
X1823900Y1153400D02*
Y1159398D01*
X1820901D01*
X1819901Y1158398D01*
Y1156399D01*
X1820901Y1155399D01*
X1823900D01*
X1821901D02*
X1819901Y1153400D01*
X1814903D02*
Y1159398D01*
X1817902Y1156399D01*
X1813903D01*
X1807905Y1159398D02*
X1809904Y1158398D01*
X1811904Y1156399D01*
Y1154400D01*
X1810904Y1153400D01*
X1808905D01*
X1807905Y1154400D01*
Y1155399D01*
X1808905Y1156399D01*
X1811904D01*
X1803900Y974400D02*
Y980398D01*
X1800901D01*
X1799901Y979398D01*
Y977399D01*
X1800901Y976399D01*
X1803900D01*
X1801901D02*
X1799901Y974400D01*
X1794903D02*
Y980398D01*
X1797902Y977399D01*
X1793903D01*
X1791904Y974400D02*
X1789905D01*
X1790904D01*
Y980398D01*
X1791904Y979398D01*
X1826900Y974400D02*
Y980398D01*
X1823901D01*
X1822901Y979398D01*
Y977399D01*
X1823901Y976399D01*
X1826900D01*
X1824901D02*
X1822901Y974400D01*
X1817903D02*
Y980398D01*
X1820902Y977399D01*
X1816903D01*
X1814904Y979398D02*
X1813904Y980398D01*
X1811905D01*
X1810905Y979398D01*
Y975400D01*
X1811905Y974400D01*
X1813904D01*
X1814904Y975400D01*
Y979398D01*
X1803900Y1032400D02*
Y1038398D01*
X1800901D01*
X1799901Y1037398D01*
Y1035399D01*
X1800901Y1034399D01*
X1803900D01*
X1801901D02*
X1799901Y1032400D01*
X1797902Y1037398D02*
X1796902Y1038398D01*
X1794903D01*
X1793903Y1037398D01*
Y1036399D01*
X1794903Y1035399D01*
X1795903D01*
X1794903D01*
X1793903Y1034399D01*
Y1033400D01*
X1794903Y1032400D01*
X1796902D01*
X1797902Y1033400D01*
X1791904D02*
X1790904Y1032400D01*
X1788905D01*
X1787905Y1033400D01*
Y1037398D01*
X1788905Y1038398D01*
X1790904D01*
X1791904Y1037398D01*
Y1036399D01*
X1790904Y1035399D01*
X1787905D01*
X1826900Y1032400D02*
Y1038398D01*
X1823901D01*
X1822901Y1037398D01*
Y1035399D01*
X1823901Y1034399D01*
X1826900D01*
X1824901D02*
X1822901Y1032400D01*
X1820902Y1037398D02*
X1819902Y1038398D01*
X1817903D01*
X1816903Y1037398D01*
Y1036399D01*
X1817903Y1035399D01*
X1818903D01*
X1817903D01*
X1816903Y1034399D01*
Y1033400D01*
X1817903Y1032400D01*
X1819902D01*
X1820902Y1033400D01*
X1814904Y1037398D02*
X1813904Y1038398D01*
X1811905D01*
X1810905Y1037398D01*
Y1036399D01*
X1811905Y1035399D01*
X1810905Y1034399D01*
Y1033400D01*
X1811905Y1032400D01*
X1813904D01*
X1814904Y1033400D01*
Y1034399D01*
X1813904Y1035399D01*
X1814904Y1036399D01*
Y1037398D01*
X1813904Y1035399D02*
X1811905D01*
X1677400Y1159900D02*
Y1165898D01*
X1674401D01*
X1673401Y1164898D01*
Y1162899D01*
X1674401Y1161899D01*
X1677400D01*
X1675401D02*
X1673401Y1159900D01*
X1668403D02*
Y1165898D01*
X1671402Y1162899D01*
X1667403D01*
X1661405Y1165898D02*
X1665404D01*
Y1162899D01*
X1663404Y1163899D01*
X1662405D01*
X1661405Y1162899D01*
Y1160900D01*
X1662405Y1159900D01*
X1664404D01*
X1665404Y1160900D01*
X1734400Y1158900D02*
Y1164898D01*
X1731401D01*
X1730401Y1163898D01*
Y1161899D01*
X1731401Y1160899D01*
X1734400D01*
X1732401D02*
X1730401Y1158900D01*
X1725403D02*
Y1164898D01*
X1728402Y1161899D01*
X1724403D01*
X1719405Y1158900D02*
Y1164898D01*
X1722404Y1161899D01*
X1718405D01*
X1590900Y987400D02*
Y993398D01*
X1587901D01*
X1586901Y992398D01*
Y990399D01*
X1587901Y989399D01*
X1590900D01*
X1588901D02*
X1586901Y987400D01*
X1584902Y992398D02*
X1583902Y993398D01*
X1581903D01*
X1580903Y992398D01*
Y991399D01*
X1581903Y990399D01*
X1582903D01*
X1581903D01*
X1580903Y989399D01*
Y988400D01*
X1581903Y987400D01*
X1583902D01*
X1584902Y988400D01*
X1578904Y993398D02*
X1574905D01*
Y992398D01*
X1578904Y988400D01*
Y987400D01*
X1612756Y982000D02*
Y987998D01*
X1609757D01*
X1608757Y986998D01*
Y984999D01*
X1609757Y983999D01*
X1612756D01*
X1610757D02*
X1608757Y982000D01*
X1606758Y986998D02*
X1605758Y987998D01*
X1603759D01*
X1602759Y986998D01*
Y985999D01*
X1603759Y984999D01*
X1604759D01*
X1603759D01*
X1602759Y983999D01*
Y983000D01*
X1603759Y982000D01*
X1605758D01*
X1606758Y983000D01*
X1596761Y987998D02*
X1598761Y986998D01*
X1600760Y984999D01*
Y983000D01*
X1599760Y982000D01*
X1597761D01*
X1596761Y983000D01*
Y983999D01*
X1597761Y984999D01*
X1600760D01*
X1590900Y1044400D02*
Y1050398D01*
X1587901D01*
X1586901Y1049398D01*
Y1047399D01*
X1587901Y1046399D01*
X1590900D01*
X1588901D02*
X1586901Y1044400D01*
X1584902Y1049398D02*
X1583902Y1050398D01*
X1581903D01*
X1580903Y1049398D01*
Y1048399D01*
X1581903Y1047399D01*
X1582903D01*
X1581903D01*
X1580903Y1046399D01*
Y1045400D01*
X1581903Y1044400D01*
X1583902D01*
X1584902Y1045400D01*
X1574905Y1050398D02*
X1578904D01*
Y1047399D01*
X1576904Y1048399D01*
X1575905D01*
X1574905Y1047399D01*
Y1045400D01*
X1575905Y1044400D01*
X1577904D01*
X1578904Y1045400D01*
X1677400Y1137900D02*
Y1143898D01*
X1674401D01*
X1673401Y1142898D01*
Y1140899D01*
X1674401Y1139899D01*
X1677400D01*
X1675401D02*
X1673401Y1137900D01*
X1671402Y1142898D02*
X1670402Y1143898D01*
X1668403D01*
X1667403Y1142898D01*
Y1141899D01*
X1668403Y1140899D01*
X1669403D01*
X1668403D01*
X1667403Y1139899D01*
Y1138900D01*
X1668403Y1137900D01*
X1670402D01*
X1671402Y1138900D01*
X1662405Y1137900D02*
Y1143898D01*
X1665404Y1140899D01*
X1661405D01*
X1613900Y1044400D02*
Y1050398D01*
X1610901D01*
X1609901Y1049398D01*
Y1047399D01*
X1610901Y1046399D01*
X1613900D01*
X1611901D02*
X1609901Y1044400D01*
X1607902Y1049398D02*
X1606902Y1050398D01*
X1604903D01*
X1603903Y1049398D01*
Y1048399D01*
X1604903Y1047399D01*
X1605903D01*
X1604903D01*
X1603903Y1046399D01*
Y1045400D01*
X1604903Y1044400D01*
X1606902D01*
X1607902Y1045400D01*
X1601904Y1049398D02*
X1600904Y1050398D01*
X1598905D01*
X1597905Y1049398D01*
Y1048399D01*
X1598905Y1047399D01*
X1599905D01*
X1598905D01*
X1597905Y1046399D01*
Y1045400D01*
X1598905Y1044400D01*
X1600904D01*
X1601904Y1045400D01*
X1803900Y1048400D02*
Y1054398D01*
X1800901D01*
X1799901Y1053398D01*
Y1051399D01*
X1800901Y1050399D01*
X1803900D01*
X1801901D02*
X1799901Y1048400D01*
X1797902Y1053398D02*
X1796902Y1054398D01*
X1794903D01*
X1793903Y1053398D01*
Y1052399D01*
X1794903Y1051399D01*
X1795903D01*
X1794903D01*
X1793903Y1050399D01*
Y1049400D01*
X1794903Y1048400D01*
X1796902D01*
X1797902Y1049400D01*
X1787905Y1048400D02*
X1791904D01*
X1787905Y1052399D01*
Y1053398D01*
X1788905Y1054398D01*
X1790904D01*
X1791904Y1053398D01*
X1826900Y1048400D02*
Y1054398D01*
X1823901D01*
X1822901Y1053398D01*
Y1051399D01*
X1823901Y1050399D01*
X1826900D01*
X1824901D02*
X1822901Y1048400D01*
X1820902Y1053398D02*
X1819902Y1054398D01*
X1817903D01*
X1816903Y1053398D01*
Y1052399D01*
X1817903Y1051399D01*
X1818903D01*
X1817903D01*
X1816903Y1050399D01*
Y1049400D01*
X1817903Y1048400D01*
X1819902D01*
X1820902Y1049400D01*
X1814904Y1048400D02*
X1812905D01*
X1813904D01*
Y1054398D01*
X1814904Y1053398D01*
X1803900Y1104400D02*
Y1110398D01*
X1800901D01*
X1799901Y1109398D01*
Y1107399D01*
X1800901Y1106399D01*
X1803900D01*
X1801901D02*
X1799901Y1104400D01*
X1797902Y1109398D02*
X1796902Y1110398D01*
X1794903D01*
X1793903Y1109398D01*
Y1108399D01*
X1794903Y1107399D01*
X1795903D01*
X1794903D01*
X1793903Y1106399D01*
Y1105400D01*
X1794903Y1104400D01*
X1796902D01*
X1797902Y1105400D01*
X1791904Y1109398D02*
X1790904Y1110398D01*
X1788905D01*
X1787905Y1109398D01*
Y1105400D01*
X1788905Y1104400D01*
X1790904D01*
X1791904Y1105400D01*
Y1109398D01*
X1826900Y1104400D02*
Y1110398D01*
X1823901D01*
X1822901Y1109398D01*
Y1107399D01*
X1823901Y1106399D01*
X1826900D01*
X1824901D02*
X1822901Y1104400D01*
X1816903D02*
X1820902D01*
X1816903Y1108399D01*
Y1109398D01*
X1817903Y1110398D01*
X1819902D01*
X1820902Y1109398D01*
X1814904Y1105400D02*
X1813904Y1104400D01*
X1811905D01*
X1810905Y1105400D01*
Y1109398D01*
X1811905Y1110398D01*
X1813904D01*
X1814904Y1109398D01*
Y1108399D01*
X1813904Y1107399D01*
X1810905D01*
X1774400Y927900D02*
Y933898D01*
X1771401D01*
X1770401Y932898D01*
Y930899D01*
X1771401Y929899D01*
X1774400D01*
X1772401D02*
X1770401Y927900D01*
X1764403D02*
X1768402D01*
X1764403Y931899D01*
Y932898D01*
X1765403Y933898D01*
X1767402D01*
X1768402Y932898D01*
X1762404D02*
X1761404Y933898D01*
X1759405D01*
X1758405Y932898D01*
Y931899D01*
X1759405Y930899D01*
X1758405Y929899D01*
Y928900D01*
X1759405Y927900D01*
X1761404D01*
X1762404Y928900D01*
Y929899D01*
X1761404Y930899D01*
X1762404Y931899D01*
Y932898D01*
X1761404Y930899D02*
X1759405D01*
X1774400Y950900D02*
Y956898D01*
X1771401D01*
X1770401Y955898D01*
Y953899D01*
X1771401Y952899D01*
X1774400D01*
X1772401D02*
X1770401Y950900D01*
X1764403D02*
X1768402D01*
X1764403Y954899D01*
Y955898D01*
X1765403Y956898D01*
X1767402D01*
X1768402Y955898D01*
X1762404Y956898D02*
X1758405D01*
Y955898D01*
X1762404Y951900D01*
Y950900D01*
X1772400Y1136900D02*
Y1142898D01*
X1769401D01*
X1768401Y1141898D01*
Y1139899D01*
X1769401Y1138899D01*
X1772400D01*
X1770401D02*
X1768401Y1136900D01*
X1762403D02*
X1766402D01*
X1762403Y1140899D01*
Y1141898D01*
X1763403Y1142898D01*
X1765402D01*
X1766402Y1141898D01*
X1760404Y1136900D02*
X1758405D01*
X1759404D01*
Y1142898D01*
X1760404Y1141898D01*
X1741400Y1136900D02*
Y1142898D01*
X1738401D01*
X1737401Y1141898D01*
Y1139899D01*
X1738401Y1138899D01*
X1741400D01*
X1739401D02*
X1737401Y1136900D01*
X1735402D02*
X1733403D01*
X1734402D01*
Y1142898D01*
X1735402Y1141898D01*
X1730404Y1137900D02*
X1729404Y1136900D01*
X1727405D01*
X1726405Y1137900D01*
Y1141898D01*
X1727405Y1142898D01*
X1729404D01*
X1730404Y1141898D01*
Y1140899D01*
X1729404Y1139899D01*
X1726405D01*
X1631900Y1065400D02*
Y1071398D01*
X1628901D01*
X1627901Y1070398D01*
Y1068399D01*
X1628901Y1067399D01*
X1631900D01*
X1629901D02*
X1627901Y1065400D01*
X1621903D02*
X1625902D01*
X1621903Y1069399D01*
Y1070398D01*
X1622903Y1071398D01*
X1624902D01*
X1625902Y1070398D01*
X1616905Y1065400D02*
Y1071398D01*
X1619904Y1068399D01*
X1615905D01*
X1612900Y1118400D02*
Y1124398D01*
X1609901D01*
X1608901Y1123398D01*
Y1121399D01*
X1609901Y1120399D01*
X1612900D01*
X1610901D02*
X1608901Y1118400D01*
X1602903D02*
X1606902D01*
X1602903Y1122399D01*
Y1123398D01*
X1603903Y1124398D01*
X1605902D01*
X1606902Y1123398D01*
X1600904D02*
X1599904Y1124398D01*
X1597905D01*
X1596905Y1123398D01*
Y1122399D01*
X1597905Y1121399D01*
X1598905D01*
X1597905D01*
X1596905Y1120399D01*
Y1119400D01*
X1597905Y1118400D01*
X1599904D01*
X1600904Y1119400D01*
X1748400Y1136900D02*
Y1142898D01*
X1745401D01*
X1744401Y1141898D01*
Y1139899D01*
X1745401Y1138899D01*
X1748400D01*
X1746401D02*
X1744401Y1136900D01*
X1742402D02*
X1740403D01*
X1741402D01*
Y1142898D01*
X1742402Y1141898D01*
X1737404D02*
X1736404Y1142898D01*
X1734405D01*
X1733405Y1141898D01*
Y1140899D01*
X1734405Y1139899D01*
X1733405Y1138899D01*
Y1137900D01*
X1734405Y1136900D01*
X1736404D01*
X1737404Y1137900D01*
Y1138899D01*
X1736404Y1139899D01*
X1737404Y1140899D01*
Y1141898D01*
X1736404Y1139899D02*
X1734405D01*
X1613900Y1062400D02*
Y1068398D01*
X1610901D01*
X1609901Y1067398D01*
Y1065399D01*
X1610901Y1064399D01*
X1613900D01*
X1611901D02*
X1609901Y1062400D01*
X1603903D02*
X1607902D01*
X1603903Y1066399D01*
Y1067398D01*
X1604903Y1068398D01*
X1606902D01*
X1607902Y1067398D01*
X1597905Y1062400D02*
X1601904D01*
X1597905Y1066399D01*
Y1067398D01*
X1598905Y1068398D01*
X1600904D01*
X1601904Y1067398D01*
X1783900Y1125400D02*
Y1131398D01*
X1780901D01*
X1779901Y1130398D01*
Y1128399D01*
X1780901Y1127399D01*
X1783900D01*
X1781901D02*
X1779901Y1125400D01*
X1777902D02*
X1775903D01*
X1776902D01*
Y1131398D01*
X1777902Y1130398D01*
X1772904D02*
X1771904Y1131398D01*
X1769905D01*
X1768905Y1130398D01*
Y1129399D01*
X1769905Y1128399D01*
X1770904D01*
X1769905D01*
X1768905Y1127399D01*
Y1126400D01*
X1769905Y1125400D01*
X1771904D01*
X1772904Y1126400D01*
X1700400Y927900D02*
Y933898D01*
X1697401D01*
X1696401Y932898D01*
Y930899D01*
X1697401Y929899D01*
X1700400D01*
X1698401D02*
X1696401Y927900D01*
X1694402D02*
X1692403D01*
X1693402D01*
Y933898D01*
X1694402Y932898D01*
X1689404Y927900D02*
X1687404D01*
X1688404D01*
Y933898D01*
X1689404Y932898D01*
X1700400Y950900D02*
Y956898D01*
X1697401D01*
X1696401Y955898D01*
Y953899D01*
X1697401Y952899D01*
X1700400D01*
X1698401D02*
X1696401Y950900D01*
X1694402D02*
X1692403D01*
X1693402D01*
Y956898D01*
X1694402Y955898D01*
X1689404D02*
X1688404Y956898D01*
X1686404D01*
X1685405Y955898D01*
Y951900D01*
X1686404Y950900D01*
X1688404D01*
X1689404Y951900D01*
Y955898D01*
X1803900Y960400D02*
Y966398D01*
X1800901D01*
X1799901Y965398D01*
Y963399D01*
X1800901Y962399D01*
X1803900D01*
X1801901D02*
X1799901Y960400D01*
X1793903Y966398D02*
X1797902D01*
Y963399D01*
X1795903Y964399D01*
X1794903D01*
X1793903Y963399D01*
Y961400D01*
X1794903Y960400D01*
X1796902D01*
X1797902Y961400D01*
X1803900Y967400D02*
Y973398D01*
X1800901D01*
X1799901Y972398D01*
Y970399D01*
X1800901Y969399D01*
X1803900D01*
X1801901D02*
X1799901Y967400D01*
X1794903D02*
Y973398D01*
X1797902Y970399D01*
X1793903D01*
X1293400Y1167900D02*
Y1173898D01*
X1290401D01*
X1289401Y1172898D01*
Y1170899D01*
X1290401Y1169899D01*
X1293400D01*
X1291401D02*
X1289401Y1167900D01*
X1283403D02*
X1287402D01*
X1283403Y1171899D01*
Y1172898D01*
X1284403Y1173898D01*
X1286402D01*
X1287402Y1172898D01*
X1293400Y1178900D02*
Y1184898D01*
X1290401D01*
X1289401Y1183898D01*
Y1181899D01*
X1290401Y1180899D01*
X1293400D01*
X1291401D02*
X1289401Y1178900D01*
X1287402D02*
X1285403D01*
X1286402D01*
Y1184898D01*
X1287402Y1183898D01*
X1909901Y1169564D02*
X1910901Y1170564D01*
X1912900D01*
X1913900Y1169564D01*
Y1165565D01*
X1912900Y1164565D01*
X1910901D01*
X1909901Y1165565D01*
X1907902Y1164565D02*
X1905903D01*
X1906902D01*
Y1170564D01*
X1907902Y1169564D01*
X1902904Y1164565D02*
X1900904D01*
X1901904D01*
Y1170564D01*
X1902904Y1169564D01*
X1819901Y1182398D02*
X1820901Y1183398D01*
X1822900D01*
X1823900Y1182398D01*
Y1178400D01*
X1822900Y1177400D01*
X1820901D01*
X1819901Y1178400D01*
X1817902Y1177400D02*
X1815903D01*
X1816902D01*
Y1183398D01*
X1817902Y1182398D01*
X1812904D02*
X1811904Y1183398D01*
X1809904D01*
X1808905Y1182398D01*
Y1178400D01*
X1809904Y1177400D01*
X1811904D01*
X1812904Y1178400D01*
Y1182398D01*
X1447400Y826900D02*
Y832898D01*
X1444401D01*
X1443401Y831898D01*
Y829899D01*
X1444401Y828899D01*
X1447400D01*
X1445401D02*
X1443401Y826900D01*
X1437403Y832898D02*
X1441402D01*
Y829899D01*
X1439403Y830899D01*
X1438403D01*
X1437403Y829899D01*
Y827900D01*
X1438403Y826900D01*
X1440402D01*
X1441402Y827900D01*
X1431405Y832898D02*
X1433405Y831898D01*
X1435404Y829899D01*
Y827900D01*
X1434404Y826900D01*
X1432405D01*
X1431405Y827900D01*
Y828899D01*
X1432405Y829899D01*
X1435404D01*
X1920900Y909270D02*
Y915268D01*
X1917901D01*
X1916901Y914268D01*
Y912269D01*
X1917901Y911269D01*
X1920900D01*
X1918901D02*
X1916901Y909270D01*
X1914902Y914268D02*
X1913902Y915268D01*
X1911903D01*
X1910903Y914268D01*
Y913269D01*
X1911903Y912269D01*
X1910903Y911269D01*
Y910270D01*
X1911903Y909270D01*
X1913902D01*
X1914902Y910270D01*
Y911269D01*
X1913902Y912269D01*
X1914902Y913269D01*
Y914268D01*
X1913902Y912269D02*
X1911903D01*
X1908904Y914268D02*
X1907904Y915268D01*
X1905905D01*
X1904905Y914268D01*
Y913269D01*
X1905905Y912269D01*
X1906904D01*
X1905905D01*
X1904905Y911269D01*
Y910270D01*
X1905905Y909270D01*
X1907904D01*
X1908904Y910270D01*
X1520400Y844998D02*
Y840000D01*
X1519400Y839000D01*
X1517401D01*
X1516401Y840000D01*
Y844998D01*
X1514402Y839000D02*
X1512403D01*
X1513402D01*
Y844998D01*
X1514402Y843998D01*
X1505405Y844998D02*
X1507404Y843998D01*
X1509404Y841999D01*
Y840000D01*
X1508404Y839000D01*
X1506404D01*
X1505405Y840000D01*
Y840999D01*
X1506404Y841999D01*
X1509404D01*
X1371900Y1108400D02*
Y1114398D01*
X1368901D01*
X1367901Y1113398D01*
Y1111399D01*
X1368901Y1110399D01*
X1371900D01*
X1369901D02*
X1367901Y1108400D01*
X1361903Y1114398D02*
X1363903Y1113398D01*
X1365902Y1111399D01*
Y1109400D01*
X1364902Y1108400D01*
X1362903D01*
X1361903Y1109400D01*
Y1110399D01*
X1362903Y1111399D01*
X1365902D01*
X1359904Y1113398D02*
X1358904Y1114398D01*
X1356905D01*
X1355905Y1113398D01*
Y1112399D01*
X1356905Y1111399D01*
X1357905D01*
X1356905D01*
X1355905Y1110399D01*
Y1109400D01*
X1356905Y1108400D01*
X1358904D01*
X1359904Y1109400D01*
X1394900Y1108400D02*
Y1114398D01*
X1391901D01*
X1390901Y1113398D01*
Y1111399D01*
X1391901Y1110399D01*
X1394900D01*
X1392901D02*
X1390901Y1108400D01*
X1384903Y1114398D02*
X1386903Y1113398D01*
X1388902Y1111399D01*
Y1109400D01*
X1387902Y1108400D01*
X1385903D01*
X1384903Y1109400D01*
Y1110399D01*
X1385903Y1111399D01*
X1388902D01*
X1379905Y1108400D02*
Y1114398D01*
X1382904Y1111399D01*
X1378905D01*
X1371900Y1166400D02*
Y1172398D01*
X1368901D01*
X1367901Y1171398D01*
Y1169399D01*
X1368901Y1168399D01*
X1371900D01*
X1369901D02*
X1367901Y1166400D01*
X1361903Y1172398D02*
X1363903Y1171398D01*
X1365902Y1169399D01*
Y1167400D01*
X1364902Y1166400D01*
X1362903D01*
X1361903Y1167400D01*
Y1168399D01*
X1362903Y1169399D01*
X1365902D01*
X1355905Y1172398D02*
X1359904D01*
Y1169399D01*
X1357905Y1170399D01*
X1356905D01*
X1355905Y1169399D01*
Y1167400D01*
X1356905Y1166400D01*
X1358904D01*
X1359904Y1167400D01*
X1765400Y1136900D02*
Y1142898D01*
X1762401D01*
X1761401Y1141898D01*
Y1139899D01*
X1762401Y1138899D01*
X1765400D01*
X1763401D02*
X1761401Y1136900D01*
X1755403D02*
X1759402D01*
X1755403Y1140899D01*
Y1141898D01*
X1756403Y1142898D01*
X1758402D01*
X1759402Y1141898D01*
X1753404D02*
X1752404Y1142898D01*
X1750405D01*
X1749405Y1141898D01*
Y1137900D01*
X1750405Y1136900D01*
X1752404D01*
X1753404Y1137900D01*
Y1141898D01*
X1394900Y1166400D02*
Y1172398D01*
X1391901D01*
X1390901Y1171398D01*
Y1169399D01*
X1391901Y1168399D01*
X1394900D01*
X1392901D02*
X1390901Y1166400D01*
X1384903Y1172398D02*
X1386903Y1171398D01*
X1388902Y1169399D01*
Y1167400D01*
X1387902Y1166400D01*
X1385903D01*
X1384903Y1167400D01*
Y1168399D01*
X1385903Y1169399D01*
X1388902D01*
X1378905Y1172398D02*
X1380904Y1171398D01*
X1382904Y1169399D01*
Y1167400D01*
X1381904Y1166400D01*
X1379905D01*
X1378905Y1167400D01*
Y1168399D01*
X1379905Y1169399D01*
X1382904D01*
X2041400Y1197900D02*
Y1203898D01*
X2038401D01*
X2037401Y1202898D01*
Y1200899D01*
X2038401Y1199899D01*
X2041400D01*
X2039401D02*
X2037401Y1197900D01*
X2035402D02*
X2033403D01*
X2034402D01*
Y1203898D01*
X2035402Y1202898D01*
X2030404D02*
X2029404Y1203898D01*
X2027405D01*
X2026405Y1202898D01*
Y1198900D01*
X2027405Y1197900D01*
X2029404D01*
X2030404Y1198900D01*
Y1202898D01*
X2024405D02*
X2023406Y1203898D01*
X2021407D01*
X2020407Y1202898D01*
Y1198900D01*
X2021407Y1197900D01*
X2023406D01*
X2024405Y1198900D01*
Y1202898D01*
X2061400Y1197900D02*
Y1203898D01*
X2058401D01*
X2057401Y1202898D01*
Y1200899D01*
X2058401Y1199899D01*
X2061400D01*
X2059401D02*
X2057401Y1197900D01*
X2055402D02*
X2053403D01*
X2054402D01*
Y1203898D01*
X2055402Y1202898D01*
X2050404D02*
X2049404Y1203898D01*
X2047404D01*
X2046405Y1202898D01*
Y1198900D01*
X2047404Y1197900D01*
X2049404D01*
X2050404Y1198900D01*
Y1202898D01*
X2044406Y1197900D02*
X2042406D01*
X2043406D01*
Y1203898D01*
X2044406Y1202898D01*
X1971400Y1197900D02*
Y1203898D01*
X1968401D01*
X1967401Y1202898D01*
Y1200899D01*
X1968401Y1199899D01*
X1971400D01*
X1969401D02*
X1967401Y1197900D01*
X1965402D02*
X1963403D01*
X1964402D01*
Y1203898D01*
X1965402Y1202898D01*
X1960404D02*
X1959404Y1203898D01*
X1957405D01*
X1956405Y1202898D01*
Y1198900D01*
X1957405Y1197900D01*
X1959404D01*
X1960404Y1198900D01*
Y1202898D01*
X1950407Y1197900D02*
X1954406D01*
X1950407Y1201899D01*
Y1202898D01*
X1951406Y1203898D01*
X1953406D01*
X1954406Y1202898D01*
X1991400Y1197900D02*
Y1203898D01*
X1988401D01*
X1987401Y1202898D01*
Y1200899D01*
X1988401Y1199899D01*
X1991400D01*
X1989401D02*
X1987401Y1197900D01*
X1985402D02*
X1983403D01*
X1984402D01*
Y1203898D01*
X1985402Y1202898D01*
X1980404D02*
X1979404Y1203898D01*
X1977405D01*
X1976405Y1202898D01*
Y1198900D01*
X1977405Y1197900D01*
X1979404D01*
X1980404Y1198900D01*
Y1202898D01*
X1974405D02*
X1973406Y1203898D01*
X1971407D01*
X1970407Y1202898D01*
Y1201899D01*
X1971407Y1200899D01*
X1972406D01*
X1971407D01*
X1970407Y1199899D01*
Y1198900D01*
X1971407Y1197900D01*
X1973406D01*
X1974405Y1198900D01*
X1901400Y1117900D02*
Y1123898D01*
X1898401D01*
X1897401Y1122898D01*
Y1120899D01*
X1898401Y1119899D01*
X1901400D01*
X1899401D02*
X1897401Y1117900D01*
X1895402D02*
X1893403D01*
X1894402D01*
Y1123898D01*
X1895402Y1122898D01*
X1890404D02*
X1889404Y1123898D01*
X1887404D01*
X1886405Y1122898D01*
Y1118900D01*
X1887404Y1117900D01*
X1889404D01*
X1890404Y1118900D01*
Y1122898D01*
X1881407Y1117900D02*
Y1123898D01*
X1884406Y1120899D01*
X1880407D01*
X1921400Y1117900D02*
Y1123898D01*
X1918401D01*
X1917401Y1122898D01*
Y1120899D01*
X1918401Y1119899D01*
X1921400D01*
X1919401D02*
X1917401Y1117900D01*
X1915402D02*
X1913403D01*
X1914402D01*
Y1123898D01*
X1915402Y1122898D01*
X1910404D02*
X1909404Y1123898D01*
X1907405D01*
X1906405Y1122898D01*
Y1118900D01*
X1907405Y1117900D01*
X1909404D01*
X1910404Y1118900D01*
Y1122898D01*
X1900407Y1123898D02*
X1904406D01*
Y1120899D01*
X1902406Y1121899D01*
X1901406D01*
X1900407Y1120899D01*
Y1118900D01*
X1901406Y1117900D01*
X1903406D01*
X1904406Y1118900D01*
X1971400Y1117900D02*
Y1123898D01*
X1968401D01*
X1967401Y1122898D01*
Y1120899D01*
X1968401Y1119899D01*
X1971400D01*
X1969401D02*
X1967401Y1117900D01*
X1965402D02*
X1963403D01*
X1964402D01*
Y1123898D01*
X1965402Y1122898D01*
X1960404D02*
X1959404Y1123898D01*
X1957405D01*
X1956405Y1122898D01*
Y1118900D01*
X1957405Y1117900D01*
X1959404D01*
X1960404Y1118900D01*
Y1122898D01*
X1950407Y1123898D02*
X1952406Y1122898D01*
X1954406Y1120899D01*
Y1118900D01*
X1953406Y1117900D01*
X1951406D01*
X1950407Y1118900D01*
Y1119899D01*
X1951406Y1120899D01*
X1954406D01*
X1991400Y1117900D02*
Y1123898D01*
X1988401D01*
X1987401Y1122898D01*
Y1120899D01*
X1988401Y1119899D01*
X1991400D01*
X1989401D02*
X1987401Y1117900D01*
X1985402D02*
X1983403D01*
X1984402D01*
Y1123898D01*
X1985402Y1122898D01*
X1980404D02*
X1979404Y1123898D01*
X1977405D01*
X1976405Y1122898D01*
Y1118900D01*
X1977405Y1117900D01*
X1979404D01*
X1980404Y1118900D01*
Y1122898D01*
X1974405Y1123898D02*
X1970407D01*
Y1122898D01*
X1974405Y1118900D01*
Y1117900D01*
X2041400D02*
Y1123898D01*
X2038401D01*
X2037401Y1122898D01*
Y1120899D01*
X2038401Y1119899D01*
X2041400D01*
X2039401D02*
X2037401Y1117900D01*
X2035402D02*
X2033403D01*
X2034402D01*
Y1123898D01*
X2035402Y1122898D01*
X2030404D02*
X2029404Y1123898D01*
X2027405D01*
X2026405Y1122898D01*
Y1118900D01*
X2027405Y1117900D01*
X2029404D01*
X2030404Y1118900D01*
Y1122898D01*
X2024405D02*
X2023406Y1123898D01*
X2021407D01*
X2020407Y1122898D01*
Y1121899D01*
X2021407Y1120899D01*
X2020407Y1119899D01*
Y1118900D01*
X2021407Y1117900D01*
X2023406D01*
X2024405Y1118900D01*
Y1119899D01*
X2023406Y1120899D01*
X2024405Y1121899D01*
Y1122898D01*
X2023406Y1120899D02*
X2021407D01*
X2061400Y1117900D02*
Y1123898D01*
X2058401D01*
X2057401Y1122898D01*
Y1120899D01*
X2058401Y1119899D01*
X2061400D01*
X2059401D02*
X2057401Y1117900D01*
X2055402D02*
X2053403D01*
X2054402D01*
Y1123898D01*
X2055402Y1122898D01*
X2050404D02*
X2049404Y1123898D01*
X2047404D01*
X2046405Y1122898D01*
Y1118900D01*
X2047404Y1117900D01*
X2049404D01*
X2050404Y1118900D01*
Y1122898D01*
X2044406Y1118900D02*
X2043406Y1117900D01*
X2041406D01*
X2040407Y1118900D01*
Y1122898D01*
X2041406Y1123898D01*
X2043406D01*
X2044406Y1122898D01*
Y1121899D01*
X2043406Y1120899D01*
X2040407D01*
X1824000Y870898D02*
Y865900D01*
X1823000Y864900D01*
X1821001D01*
X1820001Y865900D01*
Y870898D01*
X1814003Y864900D02*
X1818002D01*
X1814003Y868899D01*
Y869898D01*
X1815003Y870898D01*
X1817002D01*
X1818002Y869898D01*
X1812004D02*
X1811004Y870898D01*
X1809005D01*
X1808005Y869898D01*
Y865900D01*
X1809005Y864900D01*
X1811004D01*
X1812004Y865900D01*
Y869898D01*
X1958500Y933698D02*
Y928700D01*
X1957500Y927700D01*
X1955501D01*
X1954501Y928700D01*
Y933698D01*
X1948503Y927700D02*
X1952502D01*
X1948503Y931699D01*
Y932698D01*
X1949503Y933698D01*
X1951502D01*
X1952502Y932698D01*
X1946504D02*
X1945504Y933698D01*
X1943505D01*
X1942505Y932698D01*
Y931699D01*
X1943505Y930699D01*
X1944505D01*
X1943505D01*
X1942505Y929699D01*
Y928700D01*
X1943505Y927700D01*
X1945504D01*
X1946504Y928700D01*
X1496800Y1009898D02*
Y1004900D01*
X1495800Y1003900D01*
X1493801D01*
X1492801Y1004900D01*
Y1009898D01*
X1490802Y1003900D02*
X1488803D01*
X1489802D01*
Y1009898D01*
X1490802Y1008898D01*
X1485804D02*
X1484804Y1009898D01*
X1482804D01*
X1481805Y1008898D01*
Y1007899D01*
X1482804Y1006899D01*
X1481805Y1005899D01*
Y1004900D01*
X1482804Y1003900D01*
X1484804D01*
X1485804Y1004900D01*
Y1005899D01*
X1484804Y1006899D01*
X1485804Y1007899D01*
Y1008898D01*
X1484804Y1006899D02*
X1482804D01*
X1803800Y953400D02*
Y959398D01*
X1800801D01*
X1799801Y958398D01*
Y956399D01*
X1800801Y955399D01*
X1803800D01*
X1801801D02*
X1799801Y953400D01*
X1797802Y958398D02*
X1796802Y959398D01*
X1794803D01*
X1793803Y958398D01*
Y957399D01*
X1794803Y956399D01*
X1795803D01*
X1794803D01*
X1793803Y955399D01*
Y954400D01*
X1794803Y953400D01*
X1796802D01*
X1797802Y954400D01*
X1590900Y1118400D02*
Y1124398D01*
X1587901D01*
X1586901Y1123398D01*
Y1121399D01*
X1587901Y1120399D01*
X1590900D01*
X1588901D02*
X1586901Y1118400D01*
X1584902D02*
X1582903D01*
X1583902D01*
Y1124398D01*
X1584902Y1123398D01*
X1576904Y1118400D02*
Y1124398D01*
X1579904Y1121399D01*
X1575905D01*
X1588900Y1062400D02*
Y1068398D01*
X1585901D01*
X1584901Y1067398D01*
Y1065399D01*
X1585901Y1064399D01*
X1588900D01*
X1586901D02*
X1584901Y1062400D01*
X1582902D02*
X1580903D01*
X1581902D01*
Y1068398D01*
X1582902Y1067398D01*
X1573905Y1068398D02*
X1577904D01*
Y1065399D01*
X1575904Y1066399D01*
X1574905D01*
X1573905Y1065399D01*
Y1063400D01*
X1574905Y1062400D01*
X1576904D01*
X1577904Y1063400D01*
X1734400Y1136900D02*
Y1142898D01*
X1731401D01*
X1730401Y1141898D01*
Y1139899D01*
X1731401Y1138899D01*
X1734400D01*
X1732401D02*
X1730401Y1136900D01*
X1725403D02*
Y1142898D01*
X1728402Y1139899D01*
X1724403D01*
X1722404Y1141898D02*
X1721404Y1142898D01*
X1719405D01*
X1718405Y1141898D01*
Y1140899D01*
X1719405Y1139899D01*
X1720404D01*
X1719405D01*
X1718405Y1138899D01*
Y1137900D01*
X1719405Y1136900D01*
X1721404D01*
X1722404Y1137900D01*
X1876400Y1162900D02*
Y1168898D01*
X1873401D01*
X1872401Y1167898D01*
Y1165899D01*
X1873401Y1164899D01*
X1876400D01*
X1874401D02*
X1872401Y1162900D01*
X1866403Y1168898D02*
X1870402D01*
Y1165899D01*
X1868403Y1166899D01*
X1867403D01*
X1866403Y1165899D01*
Y1163900D01*
X1867403Y1162900D01*
X1869402D01*
X1870402Y1163900D01*
X1864404Y1167898D02*
X1863404Y1168898D01*
X1861405D01*
X1860405Y1167898D01*
Y1163900D01*
X1861405Y1162900D01*
X1863404D01*
X1864404Y1163900D01*
Y1167898D01*
X1876400Y1147900D02*
Y1153898D01*
X1873401D01*
X1872401Y1152898D01*
Y1150899D01*
X1873401Y1149899D01*
X1876400D01*
X1874401D02*
X1872401Y1147900D01*
X1866403Y1153898D02*
X1870402D01*
Y1150899D01*
X1868403Y1151899D01*
X1867403D01*
X1866403Y1150899D01*
Y1148900D01*
X1867403Y1147900D01*
X1869402D01*
X1870402Y1148900D01*
X1860405Y1153898D02*
X1864404D01*
Y1150899D01*
X1862404Y1151899D01*
X1861405D01*
X1860405Y1150899D01*
Y1148900D01*
X1861405Y1147900D01*
X1863404D01*
X1864404Y1148900D01*
X1590900Y1141400D02*
Y1147398D01*
X1587901D01*
X1586901Y1146398D01*
Y1144399D01*
X1587901Y1143399D01*
X1590900D01*
X1588901D02*
X1586901Y1141400D01*
X1581903D02*
Y1147398D01*
X1584902Y1144399D01*
X1580903D01*
X1578904Y1147398D02*
X1574905D01*
Y1146398D01*
X1578904Y1142400D01*
Y1141400D01*
X1613900D02*
Y1147398D01*
X1610901D01*
X1609901Y1146398D01*
Y1144399D01*
X1610901Y1143399D01*
X1613900D01*
X1611901D02*
X1609901Y1141400D01*
X1604903D02*
Y1147398D01*
X1607902Y1144399D01*
X1603903D01*
X1601904Y1146398D02*
X1600904Y1147398D01*
X1598905D01*
X1597905Y1146398D01*
Y1145399D01*
X1598905Y1144399D01*
X1597905Y1143399D01*
Y1142400D01*
X1598905Y1141400D01*
X1600904D01*
X1601904Y1142400D01*
Y1143399D01*
X1600904Y1144399D01*
X1601904Y1145399D01*
Y1146398D01*
X1600904Y1144399D02*
X1598905D01*
X1573400Y1191240D02*
Y1197238D01*
X1570401D01*
X1569401Y1196238D01*
Y1194239D01*
X1570401Y1193239D01*
X1573400D01*
X1571401D02*
X1569401Y1191240D01*
X1563403Y1197238D02*
X1567402D01*
Y1194239D01*
X1565403Y1195239D01*
X1564403D01*
X1563403Y1194239D01*
Y1192240D01*
X1564403Y1191240D01*
X1566402D01*
X1567402Y1192240D01*
X1561404Y1196238D02*
X1560404Y1197238D01*
X1558405D01*
X1557405Y1196238D01*
Y1195239D01*
X1558405Y1194239D01*
X1559404D01*
X1558405D01*
X1557405Y1193239D01*
Y1192240D01*
X1558405Y1191240D01*
X1560404D01*
X1561404Y1192240D01*
X1625400Y1191240D02*
Y1197238D01*
X1622401D01*
X1621401Y1196238D01*
Y1194239D01*
X1622401Y1193239D01*
X1625400D01*
X1623401D02*
X1621401Y1191240D01*
X1615403Y1197238D02*
X1619402D01*
Y1194239D01*
X1617403Y1195239D01*
X1616403D01*
X1615403Y1194239D01*
Y1192240D01*
X1616403Y1191240D01*
X1618402D01*
X1619402Y1192240D01*
X1610405Y1191240D02*
Y1197238D01*
X1613404Y1194239D01*
X1609405D01*
X1616300Y1198398D02*
Y1193400D01*
X1615300Y1192400D01*
X1613301D01*
X1612301Y1193400D01*
Y1198398D01*
X1610302Y1192400D02*
X1608303D01*
X1609302D01*
Y1198398D01*
X1610302Y1197398D01*
X1605304Y1192400D02*
X1603304D01*
X1604304D01*
Y1198398D01*
X1605304Y1197398D01*
D80*
X1863705Y870065D02*
G03*
X1863705Y871935I0J935D01*
G01*
X1848705Y870065D02*
G03*
X1848705Y871935I0J935D01*
G01*
X1974705Y821065D02*
G03*
X1974705Y822935I0J935D01*
G01*
X1903705Y821065D02*
G03*
X1903705Y822935I0J935D01*
G01*
X1944337Y924279D02*
G03*
X1945616Y924279I640J0D01*
G01*
X1910872Y1164295D02*
G03*
X1909002Y1164295I-935J0D01*
G01*
X1440984Y795461D02*
G03*
X1440984Y794476I0J-492D01*
G01*
X1520984Y796287D02*
G03*
X1520984Y795303I0J-492D01*
G01*
X1863705Y870065D02*
Y871925D01*
Y870075D02*
Y871935D01*
X1848705Y870065D02*
Y871925D01*
Y870075D02*
Y871935D01*
X1974705Y821065D02*
Y822925D01*
Y821075D02*
Y822935D01*
X1903705Y821075D02*
Y822935D01*
Y821065D02*
Y822925D01*
X1945616Y924279D02*
X1949563D01*
X1940390D02*
X1944337D01*
X1940390Y888453D02*
Y924279D01*
Y888453D02*
X1949563D01*
Y924279D01*
X1909002Y1164295D02*
X1910862D01*
X1909012D02*
X1910872D01*
X1815638Y856224D02*
X1819319Y852543D01*
X1793217Y856224D02*
X1815638D01*
X1793217Y830122D02*
Y856224D01*
Y830122D02*
X1819319D01*
Y852543D01*
X1440984Y773256D02*
Y794476D01*
Y795461D02*
Y816681D01*
X1409488D02*
X1440984D01*
X1409488Y773256D02*
Y816681D01*
Y773256D02*
X1440984D01*
X1520984Y763256D02*
Y795303D01*
Y796287D02*
Y828335D01*
X1489488D02*
X1520984D01*
X1489488Y763256D02*
Y828335D01*
Y763256D02*
X1520984D01*
X1274000Y1038000D02*
X1320000D01*
X1274000Y1022000D02*
Y1038000D01*
Y1022000D02*
X1320000D01*
Y1038000D01*
Y1030000D02*
X1327000D01*
X1267000D02*
X1274000D01*
Y978000D02*
X1320000D01*
X1274000Y962000D02*
Y978000D01*
Y962000D02*
X1320000D01*
Y978000D01*
Y970000D02*
X1327000D01*
X1267000D02*
X1274000D01*
M02*
