%FSLAX25Y25*%
%MOIN*%
G70*
G01*
G75*
G04 Layer_Color=32896*
%ADD10R,0.03150X0.03543*%
%ADD11R,0.01969X0.03937*%
%ADD12O,0.01969X0.03937*%
%ADD13R,0.03543X0.03150*%
%ADD14R,0.04724X0.05512*%
%ADD15R,0.07480X0.06299*%
%ADD16O,0.01575X0.06299*%
%ADD17R,0.01575X0.06299*%
%ADD18R,0.01969X0.10630*%
%ADD19O,0.01969X0.10630*%
%ADD20R,0.08500X0.04200*%
%ADD21R,0.07500X0.42500*%
%ADD22R,0.20000X0.32500*%
%ADD23R,0.00787X0.04724*%
%ADD24O,0.00787X0.04724*%
%ADD25R,0.03937X0.01969*%
%ADD26O,0.03937X0.01969*%
%ADD27R,0.07480X0.11024*%
%ADD28C,0.00780*%
%ADD29C,0.02500*%
%ADD30C,0.01575*%
%ADD31C,0.01969*%
%ADD32C,0.00787*%
%ADD33C,0.01200*%
%ADD34C,0.03937*%
%ADD35C,0.06200*%
%ADD36C,0.07874*%
%ADD37C,0.17716*%
%ADD38R,0.05000X0.05000*%
%ADD39C,0.05000*%
%ADD40C,0.10000*%
%ADD41R,0.05906X0.05906*%
%ADD42C,0.05906*%
%ADD43C,0.11000*%
%ADD44C,0.05500*%
%ADD45R,0.05906X0.05906*%
%ADD46C,0.14000*%
%ADD47R,0.05000X0.05000*%
%ADD48C,0.08000*%
%ADD49C,0.07000*%
%ADD50R,0.08000X0.08000*%
%ADD51C,0.04331*%
%ADD52C,0.06299*%
%ADD53C,0.03000*%
%ADD54O,0.01181X0.03937*%
%ADD55R,0.01181X0.03937*%
%ADD56O,0.03150X0.00984*%
%ADD57R,0.03150X0.00984*%
%ADD58R,0.00984X0.03150*%
%ADD59O,0.07480X0.01181*%
%ADD60R,2.00000X0.06000*%
%ADD61O,0.10000X0.01181*%
%ADD62O,0.01181X0.10000*%
%ADD63O,0.01181X0.07480*%
%ADD64O,0.01772X0.05709*%
%ADD65R,0.01772X0.05709*%
%ADD66O,0.01575X0.03937*%
%ADD67R,0.01575X0.03937*%
%ADD68O,0.08000X0.02400*%
%ADD69C,0.02400*%
%ADD70C,0.01181*%
%ADD71C,0.01772*%
%ADD72C,0.00984*%
%ADD73C,0.01000*%
%ADD74C,0.00800*%
%ADD75C,0.01500*%
%ADD76R,0.08268X0.11024*%
%ADD77R,0.09449X0.09449*%
%ADD78R,0.09449X0.09449*%
%ADD79R,0.03950X0.04343*%
%ADD80R,0.02769X0.04737*%
%ADD81O,0.02769X0.04737*%
%ADD82R,0.04343X0.03950*%
%ADD83R,0.05524X0.06312*%
%ADD84R,0.08280X0.07099*%
%ADD85O,0.02375X0.07099*%
%ADD86R,0.02375X0.07099*%
%ADD87R,0.02769X0.11430*%
%ADD88O,0.02769X0.11430*%
%ADD89R,0.09300X0.05000*%
%ADD90R,0.08300X0.43300*%
%ADD91R,0.20800X0.33300*%
%ADD92R,0.01587X0.05524*%
%ADD93O,0.01587X0.05524*%
%ADD94R,0.04737X0.02769*%
%ADD95O,0.04737X0.02769*%
%ADD96R,0.08280X0.11824*%
%ADD97C,0.04737*%
%ADD98C,0.08674*%
%ADD99C,0.18517*%
%ADD100R,0.05800X0.05800*%
%ADD101C,0.05800*%
%ADD102C,0.10800*%
%ADD103R,0.06706X0.06706*%
%ADD104C,0.06706*%
%ADD105C,0.11800*%
%ADD106C,0.06300*%
%ADD107R,0.06706X0.06706*%
%ADD108C,0.14800*%
%ADD109R,0.05800X0.05800*%
%ADD110C,0.08800*%
%ADD111C,0.07800*%
%ADD112R,0.08800X0.08800*%
%ADD113C,0.05131*%
%ADD114C,0.07099*%
%ADD115C,0.03800*%
%ADD116O,0.01981X0.04737*%
%ADD117R,0.01981X0.04737*%
%ADD118O,0.03950X0.01784*%
%ADD119R,0.03950X0.01784*%
%ADD120R,0.01784X0.03950*%
%ADD121O,0.08280X0.01981*%
%ADD122R,2.00800X0.06800*%
%ADD123O,0.10800X0.01981*%
%ADD124O,0.01981X0.10800*%
%ADD125O,0.01981X0.08280*%
%ADD126O,0.02572X0.06509*%
%ADD127R,0.02572X0.06509*%
%ADD128O,0.02375X0.04737*%
%ADD129R,0.02375X0.04737*%
%ADD130O,0.08800X0.03200*%
D32*
X1520984Y796287D02*
G03*
X1520984Y795303I0J-492D01*
G01*
X1440984Y795461D02*
G03*
X1440984Y794476I0J-492D01*
G01*
X1932280Y885301D02*
G03*
X1932280Y884022I0J-640D01*
G01*
X2002279Y885301D02*
G03*
X2002279Y884022I0J-640D01*
G01*
X1496189Y972819D02*
G03*
X1496189Y971244I0J-787D01*
G01*
X1874872Y1163130D02*
G03*
X1873002Y1163130I-935J0D01*
G01*
X1489488Y763256D02*
X1520984D01*
X1489488D02*
Y828335D01*
X1520984D01*
Y796287D02*
Y828335D01*
Y763256D02*
Y795303D01*
X1409488Y773256D02*
X1440984D01*
X1409488D02*
Y816681D01*
X1440984D01*
Y795461D02*
Y816681D01*
Y773256D02*
Y794476D01*
X1819319Y830122D02*
Y852543D01*
X1793217Y830122D02*
X1819319D01*
X1793217D02*
Y856224D01*
X1815638D01*
X1819319Y852543D01*
X1922043Y882142D02*
X1932280D01*
X1922043D02*
Y887181D01*
X1932280D01*
Y885301D02*
Y887181D01*
Y882142D02*
Y884022D01*
X1992043Y882142D02*
X2002280D01*
X1992043D02*
Y887181D01*
X2002280D01*
Y885301D02*
Y887181D01*
Y882142D02*
Y884022D01*
X1395401Y952878D02*
X1496189D01*
X1395401D02*
Y991185D01*
X1496189D01*
Y972819D02*
Y991185D01*
Y952878D02*
Y971244D01*
X1873012Y1163130D02*
X1874872D01*
X1873002D02*
X1874862D01*
D33*
X2161000Y750497D02*
Y740500D01*
X2165998D01*
X2167665Y742166D01*
Y743832D01*
X2165998Y745498D01*
X2161000D01*
X2165998D01*
X2167665Y747164D01*
Y748831D01*
X2165998Y750497D01*
X2161000D01*
X2172663Y740500D02*
X2175995D01*
X2177661Y742166D01*
Y745498D01*
X2175995Y747164D01*
X2172663D01*
X2170997Y745498D01*
Y742166D01*
X2172663Y740500D01*
X2182660Y748831D02*
Y747164D01*
X2180993D01*
X2184326D01*
X2182660D01*
Y742166D01*
X2184326Y740500D01*
X2190990Y748831D02*
Y747164D01*
X2189324D01*
X2192656D01*
X2190990D01*
Y742166D01*
X2192656Y740500D01*
X2199321D02*
X2202653D01*
X2204319Y742166D01*
Y745498D01*
X2202653Y747164D01*
X2199321D01*
X2197655Y745498D01*
Y742166D01*
X2199321Y740500D01*
X2207652D02*
Y747164D01*
X2209318D01*
X2210984Y745498D01*
Y740500D01*
Y745498D01*
X2212650Y747164D01*
X2214316Y745498D01*
Y740500D01*
X2232644Y750497D02*
X2229311D01*
X2227645Y748831D01*
Y742166D01*
X2229311Y740500D01*
X2232644D01*
X2234310Y742166D01*
Y748831D01*
X2232644Y750497D01*
X2237642Y747164D02*
X2240974Y740500D01*
X2244306Y747164D01*
X2252637Y740500D02*
X2249305D01*
X2247639Y742166D01*
Y745498D01*
X2249305Y747164D01*
X2252637D01*
X2254303Y745498D01*
Y743832D01*
X2247639D01*
X2257635Y747164D02*
Y740500D01*
Y743832D01*
X2259302Y745498D01*
X2260968Y747164D01*
X2262634D01*
X2267632Y740500D02*
X2270964D01*
X2269298D01*
Y750497D01*
X2267632D01*
X2277629Y747164D02*
X2280961D01*
X2282627Y745498D01*
Y740500D01*
X2277629D01*
X2275963Y742166D01*
X2277629Y743832D01*
X2282627D01*
X2285960Y747164D02*
Y742166D01*
X2287626Y740500D01*
X2292624D01*
Y738834D01*
X2290958Y737168D01*
X2289292D01*
X2292624Y740500D02*
Y747164D01*
D73*
X1594678Y989968D02*
G03*
X1594678Y989968I-1623J0D01*
G01*
X1762682Y1088682D02*
G03*
X1762682Y1088682I-2296J0D01*
G01*
X1685592Y1145945D02*
G03*
X1685592Y1145945I-1623J0D01*
G01*
X1692655Y926055D02*
G03*
X1692655Y926055I-1623J0D01*
G01*
X1818568Y1019032D02*
G03*
X1818568Y1019032I-1623J0D01*
G01*
X1766655Y926055D02*
G03*
X1766655Y926055I-1623J0D01*
G01*
X1594678Y1063968D02*
G03*
X1594678Y1063968I-1623J0D01*
G01*
X1846000Y1154500D02*
G03*
X1846000Y1149500I0J-2500D01*
G01*
X1386796Y1152929D02*
G03*
X1386796Y1152929I-1623J0D01*
G01*
X1818568Y1092031D02*
G03*
X1818568Y1092031I-1623J0D01*
G01*
X1871500Y1142500D02*
G03*
X1876500Y1142500I2500J0D01*
G01*
X1589512Y1034850D02*
X1608016D01*
Y986425D02*
Y1034850D01*
X1589512Y986425D02*
Y1034850D01*
Y986425D02*
X1608016D01*
X1647984Y976366D02*
X1765307D01*
Y1093591D01*
X1647984Y976366D02*
Y1093591D01*
X1765307D01*
X1728850Y1130984D02*
Y1149488D01*
X1680425Y1130984D02*
X1728850D01*
X1680425Y1149488D02*
X1728850D01*
X1680425Y1130984D02*
Y1149488D01*
X1646150Y922512D02*
Y941016D01*
X1694575D01*
X1646150Y922512D02*
X1694575D01*
Y941016D01*
X1801984Y974150D02*
X1820488D01*
X1801984D02*
Y1022575D01*
X1820488Y974150D02*
Y1022575D01*
X1801984D02*
X1820488D01*
X1720150Y922512D02*
Y941016D01*
X1768575D01*
X1720150Y922512D02*
X1768575D01*
Y941016D01*
X1589512Y1108850D02*
X1608016D01*
Y1060425D02*
Y1108850D01*
X1589512Y1060425D02*
Y1108850D01*
Y1060425D02*
X1608016D01*
X1846000Y1142000D02*
Y1149500D01*
Y1154500D02*
Y1162000D01*
X1806000D02*
X1846000D01*
X1806000Y1142000D02*
Y1162000D01*
Y1142000D02*
X1846000D01*
X1370212Y1156473D02*
X1388716D01*
X1370212Y1108048D02*
X1388716D01*
Y1156473D01*
X1370212Y1108048D02*
Y1156473D01*
X1801984Y1047150D02*
X1820488D01*
X1801984D02*
Y1095575D01*
X1820488Y1047150D02*
Y1095575D01*
X1801984D02*
X1820488D01*
X1868500Y1122500D02*
X1879500D01*
Y1142500D01*
X1868500Y1122500D02*
Y1142500D01*
X1871500D01*
X1876500D02*
X1879500D01*
X1870787Y1163031D02*
X1876890D01*
X1870787D02*
X1870886Y1163130D01*
X1870787Y1163031D02*
Y1174843D01*
X1876988D01*
Y1163130D02*
Y1174843D01*
X1874872Y1163130D02*
X1876988D01*
X1596901Y1123398D02*
X1597901Y1124398D01*
X1599900D01*
X1600900Y1123398D01*
Y1119400D01*
X1599900Y1118400D01*
X1597901D01*
X1596901Y1119400D01*
X1594902D02*
X1593902Y1118400D01*
X1591903D01*
X1590903Y1119400D01*
Y1123398D01*
X1591903Y1124398D01*
X1593902D01*
X1594902Y1123398D01*
Y1122399D01*
X1593902Y1121399D01*
X1590903D01*
X1420401Y765898D02*
X1421401Y766898D01*
X1423400D01*
X1424400Y765898D01*
Y761900D01*
X1423400Y760900D01*
X1421401D01*
X1420401Y761900D01*
X1415403Y760900D02*
Y766898D01*
X1418402Y763899D01*
X1414403D01*
X1412404Y765898D02*
X1411404Y766898D01*
X1409405D01*
X1408405Y765898D01*
Y764899D01*
X1409405Y763899D01*
X1410404D01*
X1409405D01*
X1408405Y762899D01*
Y761900D01*
X1409405Y760900D01*
X1411404D01*
X1412404Y761900D01*
X1447400Y826900D02*
Y832898D01*
X1444401D01*
X1443401Y831898D01*
Y829899D01*
X1444401Y828899D01*
X1447400D01*
X1445401D02*
X1443401Y826900D01*
X1438403D02*
Y832898D01*
X1441402Y829899D01*
X1437403D01*
X1435404Y832898D02*
X1431405D01*
Y831898D01*
X1435404Y827900D01*
Y826900D01*
X1527400Y838900D02*
Y844898D01*
X1524401D01*
X1523401Y843898D01*
Y841899D01*
X1524401Y840899D01*
X1527400D01*
X1525401D02*
X1523401Y838900D01*
X1517403Y844898D02*
X1521402D01*
Y841899D01*
X1519403Y842899D01*
X1518403D01*
X1517403Y841899D01*
Y839900D01*
X1518403Y838900D01*
X1520402D01*
X1521402Y839900D01*
X1515404Y838900D02*
X1513404D01*
X1514404D01*
Y844898D01*
X1515404Y843898D01*
X1501401Y755898D02*
X1502401Y756898D01*
X1504400D01*
X1505400Y755898D01*
Y751900D01*
X1504400Y750900D01*
X1502401D01*
X1501401Y751900D01*
X1496403Y750900D02*
Y756898D01*
X1499402Y753899D01*
X1495403D01*
X1489405Y750900D02*
X1493404D01*
X1489405Y754899D01*
Y755898D01*
X1490405Y756898D01*
X1492404D01*
X1493404Y755898D01*
X1498400Y750900D02*
Y756898D01*
X1495401D01*
X1494401Y755898D01*
Y753899D01*
X1495401Y752899D01*
X1498400D01*
X1496401D02*
X1494401Y750900D01*
X1488403Y756898D02*
X1492402D01*
Y753899D01*
X1490403Y754899D01*
X1489403D01*
X1488403Y753899D01*
Y751900D01*
X1489403Y750900D01*
X1491402D01*
X1492402Y751900D01*
X1482405Y750900D02*
X1486404D01*
X1482405Y754899D01*
Y755898D01*
X1483405Y756898D01*
X1485404D01*
X1486404Y755898D01*
X1512400Y750900D02*
Y756898D01*
X1509401D01*
X1508401Y755898D01*
Y753899D01*
X1509401Y752899D01*
X1512400D01*
X1510401D02*
X1508401Y750900D01*
X1502403Y756898D02*
X1506402D01*
Y753899D01*
X1504403Y754899D01*
X1503403D01*
X1502403Y753899D01*
Y751900D01*
X1503403Y750900D01*
X1505402D01*
X1506402Y751900D01*
X1500404Y755898D02*
X1499404Y756898D01*
X1497405D01*
X1496405Y755898D01*
Y751900D01*
X1497405Y750900D01*
X1499404D01*
X1500404Y751900D01*
Y755898D01*
X2001700Y905598D02*
Y900600D01*
X2000700Y899600D01*
X1998701D01*
X1997701Y900600D01*
Y905598D01*
X1991703Y899600D02*
X1995702D01*
X1991703Y903599D01*
Y904598D01*
X1992703Y905598D01*
X1994702D01*
X1995702Y904598D01*
X1986705Y899600D02*
Y905598D01*
X1989704Y902599D01*
X1985705D01*
X1931700Y905598D02*
Y900600D01*
X1930700Y899600D01*
X1928701D01*
X1927701Y900600D01*
Y905598D01*
X1921703Y899600D02*
X1925702D01*
X1921703Y903599D01*
Y904598D01*
X1922703Y905598D01*
X1924702D01*
X1925702Y904598D01*
X1919704Y899600D02*
X1917705D01*
X1918704D01*
Y905598D01*
X1919704Y904598D01*
X1824000Y870898D02*
Y865900D01*
X1823000Y864900D01*
X1821001D01*
X1820001Y865900D01*
Y870898D01*
X1814003Y864900D02*
X1818002D01*
X1814003Y868899D01*
Y869898D01*
X1815003Y870898D01*
X1817002D01*
X1818002Y869898D01*
X1812004D02*
X1811004Y870898D01*
X1809005D01*
X1808005Y869898D01*
Y865900D01*
X1809005Y864900D01*
X1811004D01*
X1812004Y865900D01*
Y869898D01*
X1844900Y1099400D02*
Y1105398D01*
X1841901D01*
X1840901Y1104398D01*
Y1102399D01*
X1841901Y1101399D01*
X1844900D01*
X1842901D02*
X1840901Y1099400D01*
X1838902Y1100400D02*
X1837902Y1099400D01*
X1835903D01*
X1834903Y1100400D01*
Y1104398D01*
X1835903Y1105398D01*
X1837902D01*
X1838902Y1104398D01*
Y1103399D01*
X1837902Y1102399D01*
X1834903D01*
X1828905Y1105398D02*
X1832904D01*
Y1102399D01*
X1830905Y1103399D01*
X1829905D01*
X1828905Y1102399D01*
Y1100400D01*
X1829905Y1099400D01*
X1831904D01*
X1832904Y1100400D01*
X1822400Y1111900D02*
Y1117898D01*
X1819401D01*
X1818401Y1116898D01*
Y1114899D01*
X1819401Y1113899D01*
X1822400D01*
X1820401D02*
X1818401Y1111900D01*
X1816402Y1112900D02*
X1815402Y1111900D01*
X1813403D01*
X1812403Y1112900D01*
Y1116898D01*
X1813403Y1117898D01*
X1815402D01*
X1816402Y1116898D01*
Y1115899D01*
X1815402Y1114899D01*
X1812403D01*
X1807405Y1111900D02*
Y1117898D01*
X1810404Y1114899D01*
X1806405D01*
X1844900Y1092400D02*
Y1098398D01*
X1841901D01*
X1840901Y1097398D01*
Y1095399D01*
X1841901Y1094399D01*
X1844900D01*
X1842901D02*
X1840901Y1092400D01*
X1838902Y1093400D02*
X1837902Y1092400D01*
X1835903D01*
X1834903Y1093400D01*
Y1097398D01*
X1835903Y1098398D01*
X1837902D01*
X1838902Y1097398D01*
Y1096399D01*
X1837902Y1095399D01*
X1834903D01*
X1832904Y1097398D02*
X1831904Y1098398D01*
X1829905D01*
X1828905Y1097398D01*
Y1096399D01*
X1829905Y1095399D01*
X1830905D01*
X1829905D01*
X1828905Y1094399D01*
Y1093400D01*
X1829905Y1092400D01*
X1831904D01*
X1832904Y1093400D01*
X1815400Y1111900D02*
Y1117898D01*
X1812401D01*
X1811401Y1116898D01*
Y1114899D01*
X1812401Y1113899D01*
X1815400D01*
X1813401D02*
X1811401Y1111900D01*
X1809402Y1112900D02*
X1808402Y1111900D01*
X1806403D01*
X1805403Y1112900D01*
Y1116898D01*
X1806403Y1117898D01*
X1808402D01*
X1809402Y1116898D01*
Y1115899D01*
X1808402Y1114899D01*
X1805403D01*
X1799405Y1111900D02*
X1803404D01*
X1799405Y1115899D01*
Y1116898D01*
X1800405Y1117898D01*
X1802404D01*
X1803404Y1116898D01*
X1934401Y897898D02*
X1935401Y898898D01*
X1937400D01*
X1938400Y897898D01*
Y893900D01*
X1937400Y892900D01*
X1935401D01*
X1934401Y893900D01*
X1932402Y898898D02*
X1928403D01*
Y897898D01*
X1932402Y893900D01*
Y892900D01*
X1926404Y898898D02*
X1922405D01*
Y897898D01*
X1926404Y893900D01*
Y892900D01*
X2004401Y897898D02*
X2005401Y898898D01*
X2007400D01*
X2008400Y897898D01*
Y893900D01*
X2007400Y892900D01*
X2005401D01*
X2004401Y893900D01*
X2002402Y898898D02*
X1998403D01*
Y897898D01*
X2002402Y893900D01*
Y892900D01*
X1992405Y898898D02*
X1994404Y897898D01*
X1996404Y895899D01*
Y893900D01*
X1995404Y892900D01*
X1993405D01*
X1992405Y893900D01*
Y894899D01*
X1993405Y895899D01*
X1996404D01*
X1495600Y1007798D02*
Y1002800D01*
X1494600Y1001800D01*
X1492601D01*
X1491601Y1002800D01*
Y1007798D01*
X1489602Y1001800D02*
X1487603D01*
X1488602D01*
Y1007798D01*
X1489602Y1006798D01*
X1484604Y1007798D02*
X1480605D01*
Y1006798D01*
X1484604Y1002800D01*
Y1001800D01*
X1497522Y1102563D02*
Y1108561D01*
X1494523D01*
X1493524Y1107561D01*
Y1105562D01*
X1494523Y1104562D01*
X1497522D01*
X1495523D02*
X1493524Y1102563D01*
X1487525Y1108561D02*
X1491524D01*
Y1105562D01*
X1489525Y1106561D01*
X1488525D01*
X1487525Y1105562D01*
Y1103562D01*
X1488525Y1102563D01*
X1490524D01*
X1491524Y1103562D01*
X1485526D02*
X1484526Y1102563D01*
X1482527D01*
X1481527Y1103562D01*
Y1107561D01*
X1482527Y1108561D01*
X1484526D01*
X1485526Y1107561D01*
Y1106561D01*
X1484526Y1105562D01*
X1481527D01*
X1485522Y1102563D02*
Y1108561D01*
X1482523D01*
X1481524Y1107561D01*
Y1105562D01*
X1482523Y1104562D01*
X1485522D01*
X1483523D02*
X1481524Y1102563D01*
X1475525Y1108561D02*
X1479524D01*
Y1105562D01*
X1477525Y1106561D01*
X1476525D01*
X1475525Y1105562D01*
Y1103562D01*
X1476525Y1102563D01*
X1478524D01*
X1479524Y1103562D01*
X1473526Y1107561D02*
X1472526Y1108561D01*
X1470527D01*
X1469527Y1107561D01*
Y1106561D01*
X1470527Y1105562D01*
X1469527Y1104562D01*
Y1103562D01*
X1470527Y1102563D01*
X1472526D01*
X1473526Y1103562D01*
Y1104562D01*
X1472526Y1105562D01*
X1473526Y1106561D01*
Y1107561D01*
X1472526Y1105562D02*
X1470527D01*
X1388100Y1170300D02*
Y1176298D01*
X1385101D01*
X1384101Y1175298D01*
Y1173299D01*
X1385101Y1172299D01*
X1388100D01*
X1386101D02*
X1384101Y1170300D01*
X1378103Y1176298D02*
X1382102D01*
Y1173299D01*
X1380103Y1174299D01*
X1379103D01*
X1378103Y1173299D01*
Y1171300D01*
X1379103Y1170300D01*
X1381102D01*
X1382102Y1171300D01*
X1376104Y1176298D02*
X1372105D01*
Y1175298D01*
X1376104Y1171300D01*
Y1170300D01*
X1883900Y1055400D02*
Y1061398D01*
X1880901D01*
X1879901Y1060398D01*
Y1058399D01*
X1880901Y1057399D01*
X1883900D01*
X1881901D02*
X1879901Y1055400D01*
X1873903D02*
X1877902D01*
X1873903Y1059399D01*
Y1060398D01*
X1874903Y1061398D01*
X1876902D01*
X1877902Y1060398D01*
X1871904D02*
X1870904Y1061398D01*
X1868905D01*
X1867905Y1060398D01*
Y1056400D01*
X1868905Y1055400D01*
X1870904D01*
X1871904Y1056400D01*
Y1060398D01*
X1361400Y1257900D02*
Y1263898D01*
X1358401D01*
X1357401Y1262898D01*
Y1260899D01*
X1358401Y1259899D01*
X1361400D01*
X1359401D02*
X1357401Y1257900D01*
X1351403Y1263898D02*
X1353403Y1262898D01*
X1355402Y1260899D01*
Y1258900D01*
X1354402Y1257900D01*
X1352403D01*
X1351403Y1258900D01*
Y1259899D01*
X1352403Y1260899D01*
X1355402D01*
X1454401Y1029898D02*
X1455401Y1030898D01*
X1457400D01*
X1458400Y1029898D01*
Y1025900D01*
X1457400Y1024900D01*
X1455401D01*
X1454401Y1025900D01*
X1448403Y1030898D02*
X1452402D01*
Y1027899D01*
X1450403Y1028899D01*
X1449403D01*
X1448403Y1027899D01*
Y1025900D01*
X1449403Y1024900D01*
X1451402D01*
X1452402Y1025900D01*
X1446404Y1029898D02*
X1445404Y1030898D01*
X1443405D01*
X1442405Y1029898D01*
Y1025900D01*
X1443405Y1024900D01*
X1445404D01*
X1446404Y1025900D01*
Y1029898D01*
X1394401D02*
X1395401Y1030898D01*
X1397400D01*
X1398400Y1029898D01*
Y1025900D01*
X1397400Y1024900D01*
X1395401D01*
X1394401Y1025900D01*
X1388403Y1030898D02*
X1392402D01*
Y1027899D01*
X1390403Y1028899D01*
X1389403D01*
X1388403Y1027899D01*
Y1025900D01*
X1389403Y1024900D01*
X1391402D01*
X1392402Y1025900D01*
X1382405Y1024900D02*
X1386404D01*
X1382405Y1028899D01*
Y1029898D01*
X1383405Y1030898D01*
X1385404D01*
X1386404Y1029898D01*
X1430523Y1107461D02*
X1431523Y1108461D01*
X1433523D01*
X1434522Y1107461D01*
Y1103462D01*
X1433523Y1102463D01*
X1431523D01*
X1430523Y1103462D01*
X1425525Y1102463D02*
Y1108461D01*
X1428524Y1105462D01*
X1424525D01*
X1418527Y1108461D02*
X1420527Y1107461D01*
X1422526Y1105462D01*
Y1103462D01*
X1421526Y1102463D01*
X1419527D01*
X1418527Y1103462D01*
Y1104462D01*
X1419527Y1105462D01*
X1422526D01*
X1406401Y1131898D02*
X1407401Y1132898D01*
X1409400D01*
X1410400Y1131898D01*
Y1127900D01*
X1409400Y1126900D01*
X1407401D01*
X1406401Y1127900D01*
X1401403Y1126900D02*
Y1132898D01*
X1404402Y1129899D01*
X1400403D01*
X1395405Y1126900D02*
Y1132898D01*
X1398404Y1129899D01*
X1394405D01*
X1483401Y1029898D02*
X1484401Y1030898D01*
X1486400D01*
X1487400Y1029898D01*
Y1025900D01*
X1486400Y1024900D01*
X1484401D01*
X1483401Y1025900D01*
X1478403Y1024900D02*
Y1030898D01*
X1481402Y1027899D01*
X1477403D01*
X1475404Y1025900D02*
X1474404Y1024900D01*
X1472405D01*
X1471405Y1025900D01*
Y1029898D01*
X1472405Y1030898D01*
X1474404D01*
X1475404Y1029898D01*
Y1028899D01*
X1474404Y1027899D01*
X1471405D01*
X1422401Y940898D02*
X1423401Y941898D01*
X1425400D01*
X1426400Y940898D01*
Y936900D01*
X1425400Y935900D01*
X1423401D01*
X1422401Y936900D01*
X1416403Y941898D02*
X1420402D01*
Y938899D01*
X1418403Y939899D01*
X1417403D01*
X1416403Y938899D01*
Y936900D01*
X1417403Y935900D01*
X1419402D01*
X1420402Y936900D01*
X1414404Y935900D02*
X1412405D01*
X1413404D01*
Y941898D01*
X1414404Y940898D01*
X1485401D02*
X1486401Y941898D01*
X1488400D01*
X1489400Y940898D01*
Y936900D01*
X1488400Y935900D01*
X1486401D01*
X1485401Y936900D01*
X1480403Y935900D02*
Y941898D01*
X1483402Y938899D01*
X1479403D01*
X1477404Y940898D02*
X1476404Y941898D01*
X1474405D01*
X1473405Y940898D01*
Y939899D01*
X1474405Y938899D01*
X1473405Y937899D01*
Y936900D01*
X1474405Y935900D01*
X1476404D01*
X1477404Y936900D01*
Y937899D01*
X1476404Y938899D01*
X1477404Y939899D01*
Y940898D01*
X1476404Y938899D02*
X1474405D01*
X1455401Y940898D02*
X1456401Y941898D01*
X1458400D01*
X1459400Y940898D01*
Y936900D01*
X1458400Y935900D01*
X1456401D01*
X1455401Y936900D01*
X1450403Y935900D02*
Y941898D01*
X1453402Y938899D01*
X1449403D01*
X1447404Y941898D02*
X1443405D01*
Y940898D01*
X1447404Y936900D01*
Y935900D01*
X1368100Y1170300D02*
Y1176298D01*
X1365101D01*
X1364101Y1175298D01*
Y1173299D01*
X1365101Y1172299D01*
X1368100D01*
X1366101D02*
X1364101Y1170300D01*
X1358103Y1176298D02*
X1362102D01*
Y1173299D01*
X1360103Y1174299D01*
X1359103D01*
X1358103Y1173299D01*
Y1171300D01*
X1359103Y1170300D01*
X1361102D01*
X1362102Y1171300D01*
X1352105Y1176298D02*
X1354105Y1175298D01*
X1356104Y1173299D01*
Y1171300D01*
X1355104Y1170300D01*
X1353105D01*
X1352105Y1171300D01*
Y1172299D01*
X1353105Y1173299D01*
X1356104D01*
X1388100Y1108300D02*
Y1114298D01*
X1385101D01*
X1384101Y1113298D01*
Y1111299D01*
X1385101Y1110299D01*
X1388100D01*
X1386101D02*
X1384101Y1108300D01*
X1378103Y1114298D02*
X1382102D01*
Y1111299D01*
X1380103Y1112299D01*
X1379103D01*
X1378103Y1111299D01*
Y1109300D01*
X1379103Y1108300D01*
X1381102D01*
X1382102Y1109300D01*
X1372105Y1114298D02*
X1376104D01*
Y1111299D01*
X1374104Y1112299D01*
X1373105D01*
X1372105Y1111299D01*
Y1109300D01*
X1373105Y1108300D01*
X1375104D01*
X1376104Y1109300D01*
X1353600Y1120800D02*
Y1126798D01*
X1350601D01*
X1349601Y1125798D01*
Y1123799D01*
X1350601Y1122799D01*
X1353600D01*
X1351601D02*
X1349601Y1120800D01*
X1343603Y1126798D02*
X1347602D01*
Y1123799D01*
X1345603Y1124799D01*
X1344603D01*
X1343603Y1123799D01*
Y1121800D01*
X1344603Y1120800D01*
X1346602D01*
X1347602Y1121800D01*
X1338605Y1120800D02*
Y1126798D01*
X1341604Y1123799D01*
X1337605D01*
X1520400Y844998D02*
Y840000D01*
X1519400Y839000D01*
X1517401D01*
X1516401Y840000D01*
Y844998D01*
X1514402Y839000D02*
X1512403D01*
X1513402D01*
Y844998D01*
X1514402Y843998D01*
X1505405Y844998D02*
X1509404D01*
Y841999D01*
X1507404Y842999D01*
X1506404D01*
X1505405Y841999D01*
Y840000D01*
X1506404Y839000D01*
X1508404D01*
X1509404Y840000D01*
X1844900Y1085400D02*
Y1091398D01*
X1841901D01*
X1840901Y1090398D01*
Y1088399D01*
X1841901Y1087399D01*
X1844900D01*
X1842901D02*
X1840901Y1085400D01*
X1838902Y1086400D02*
X1837902Y1085400D01*
X1835903D01*
X1834903Y1086400D01*
Y1090398D01*
X1835903Y1091398D01*
X1837902D01*
X1838902Y1090398D01*
Y1089399D01*
X1837902Y1088399D01*
X1834903D01*
X1832904Y1085400D02*
X1830905D01*
X1831904D01*
Y1091398D01*
X1832904Y1090398D01*
X1422522Y1102463D02*
Y1108461D01*
X1419523D01*
X1418524Y1107461D01*
Y1105462D01*
X1419523Y1104462D01*
X1422522D01*
X1420523D02*
X1418524Y1102463D01*
X1412525Y1108461D02*
X1416524D01*
Y1105462D01*
X1414525Y1106461D01*
X1413525D01*
X1412525Y1105462D01*
Y1103462D01*
X1413525Y1102463D01*
X1415524D01*
X1416524Y1103462D01*
X1410526Y1107461D02*
X1409526Y1108461D01*
X1407527D01*
X1406527Y1107461D01*
Y1106461D01*
X1407527Y1105462D01*
X1408527D01*
X1407527D01*
X1406527Y1104462D01*
Y1103462D01*
X1407527Y1102463D01*
X1409526D01*
X1410526Y1103462D01*
X1853900Y841400D02*
Y847398D01*
X1850901D01*
X1849901Y846398D01*
Y844399D01*
X1850901Y843399D01*
X1853900D01*
X1851901D02*
X1849901Y841400D01*
X1847902Y847398D02*
X1843903D01*
Y846398D01*
X1847902Y842400D01*
Y841400D01*
X1838905D02*
Y847398D01*
X1841904Y844399D01*
X1837905D01*
X1431400Y760900D02*
Y766898D01*
X1428401D01*
X1427401Y765898D01*
Y763899D01*
X1428401Y762899D01*
X1431400D01*
X1429401D02*
X1427401Y760900D01*
X1422403D02*
Y766898D01*
X1425402Y763899D01*
X1421403D01*
X1419404Y761900D02*
X1418404Y760900D01*
X1416405D01*
X1415405Y761900D01*
Y765898D01*
X1416405Y766898D01*
X1418404D01*
X1419404Y765898D01*
Y764899D01*
X1418404Y763899D01*
X1415405D01*
X1417400Y760900D02*
Y766898D01*
X1414401D01*
X1413401Y765898D01*
Y763899D01*
X1414401Y762899D01*
X1417400D01*
X1415401D02*
X1413401Y760900D01*
X1408403D02*
Y766898D01*
X1411402Y763899D01*
X1407403D01*
X1405404Y765898D02*
X1404404Y766898D01*
X1402405D01*
X1401405Y765898D01*
Y764899D01*
X1402405Y763899D01*
X1401405Y762899D01*
Y761900D01*
X1402405Y760900D01*
X1404404D01*
X1405404Y761900D01*
Y762899D01*
X1404404Y763899D01*
X1405404Y764899D01*
Y765898D01*
X1404404Y763899D02*
X1402405D01*
X1816901Y1053398D02*
X1817901Y1054398D01*
X1819900D01*
X1820900Y1053398D01*
Y1049400D01*
X1819900Y1048400D01*
X1817901D01*
X1816901Y1049400D01*
X1814902Y1053398D02*
X1813902Y1054398D01*
X1811903D01*
X1810903Y1053398D01*
Y1052399D01*
X1811903Y1051399D01*
X1812903D01*
X1811903D01*
X1810903Y1050399D01*
Y1049400D01*
X1811903Y1048400D01*
X1813902D01*
X1814902Y1049400D01*
X1834401Y1002898D02*
X1835401Y1003898D01*
X1837400D01*
X1838400Y1002898D01*
Y998900D01*
X1837400Y997900D01*
X1835401D01*
X1834401Y998900D01*
X1828403Y1003898D02*
X1830403Y1002898D01*
X1832402Y1000899D01*
Y998900D01*
X1831402Y997900D01*
X1829403D01*
X1828403Y998900D01*
Y999899D01*
X1829403Y1000899D01*
X1832402D01*
X1586901Y1056398D02*
X1587901Y1057398D01*
X1589900D01*
X1590900Y1056398D01*
Y1052400D01*
X1589900Y1051400D01*
X1587901D01*
X1586901Y1052400D01*
X1584902Y1057398D02*
X1580903D01*
Y1056398D01*
X1584902Y1052400D01*
Y1051400D01*
X1830901Y1183398D02*
X1831901Y1184398D01*
X1833900D01*
X1834900Y1183398D01*
Y1179400D01*
X1833900Y1178400D01*
X1831901D01*
X1830901Y1179400D01*
X1828902Y1178400D02*
X1826903D01*
X1827902D01*
Y1184398D01*
X1828902Y1183398D01*
X1823904D02*
X1822904Y1184398D01*
X1820905D01*
X1819905Y1183398D01*
Y1179400D01*
X1820905Y1178400D01*
X1822904D01*
X1823904Y1179400D01*
Y1183398D01*
X1873901Y1168398D02*
X1874901Y1169398D01*
X1876900D01*
X1877900Y1168398D01*
Y1164400D01*
X1876900Y1163400D01*
X1874901D01*
X1873901Y1164400D01*
X1871902Y1163400D02*
X1869903D01*
X1870902D01*
Y1169398D01*
X1871902Y1168398D01*
X1866904Y1163400D02*
X1864904D01*
X1865904D01*
Y1169398D01*
X1866904Y1168398D01*
X1873901Y1158398D02*
X1874901Y1159398D01*
X1876900D01*
X1877900Y1158398D01*
Y1154400D01*
X1876900Y1153400D01*
X1874901D01*
X1873901Y1154400D01*
X1871902Y1153400D02*
X1869903D01*
X1870902D01*
Y1159398D01*
X1871902Y1158398D01*
X1862905Y1153400D02*
X1866904D01*
X1862905Y1157399D01*
Y1158398D01*
X1863905Y1159398D01*
X1865904D01*
X1866904Y1158398D01*
X1781901Y1113398D02*
X1782901Y1114398D01*
X1784900D01*
X1785900Y1113398D01*
Y1109400D01*
X1784900Y1108400D01*
X1782901D01*
X1781901Y1109400D01*
X1779902Y1113398D02*
X1778902Y1114398D01*
X1776903D01*
X1775903Y1113398D01*
Y1112399D01*
X1776903Y1111399D01*
X1777903D01*
X1776903D01*
X1775903Y1110399D01*
Y1109400D01*
X1776903Y1108400D01*
X1778902D01*
X1779902Y1109400D01*
X1773904D02*
X1772904Y1108400D01*
X1770905D01*
X1769905Y1109400D01*
Y1113398D01*
X1770905Y1114398D01*
X1772904D01*
X1773904Y1113398D01*
Y1112399D01*
X1772904Y1111399D01*
X1769905D01*
X1293400Y1175900D02*
Y1181898D01*
X1290401D01*
X1289401Y1180898D01*
Y1178899D01*
X1290401Y1177899D01*
X1293400D01*
X1291401D02*
X1289401Y1175900D01*
X1287402D02*
X1285403D01*
X1286402D01*
Y1181898D01*
X1287402Y1180898D01*
X1293400Y1189900D02*
Y1195898D01*
X1290401D01*
X1289401Y1194898D01*
Y1192899D01*
X1290401Y1191899D01*
X1293400D01*
X1291401D02*
X1289401Y1189900D01*
X1283403D02*
X1287402D01*
X1283403Y1193899D01*
Y1194898D01*
X1284403Y1195898D01*
X1286402D01*
X1287402Y1194898D01*
X1803900Y967400D02*
Y973398D01*
X1800901D01*
X1799901Y972398D01*
Y970399D01*
X1800901Y969399D01*
X1803900D01*
X1801901D02*
X1799901Y967400D01*
X1797902Y972398D02*
X1796902Y973398D01*
X1794903D01*
X1793903Y972398D01*
Y971399D01*
X1794903Y970399D01*
X1795903D01*
X1794903D01*
X1793903Y969399D01*
Y968400D01*
X1794903Y967400D01*
X1796902D01*
X1797902Y968400D01*
X1803900Y960400D02*
Y966398D01*
X1800901D01*
X1799901Y965398D01*
Y963399D01*
X1800901Y962399D01*
X1803900D01*
X1801901D02*
X1799901Y960400D01*
X1794903D02*
Y966398D01*
X1797902Y963399D01*
X1793903D01*
X1381400Y1257900D02*
Y1263898D01*
X1378401D01*
X1377401Y1262898D01*
Y1260899D01*
X1378401Y1259899D01*
X1381400D01*
X1379401D02*
X1377401Y1257900D01*
X1375402Y1263898D02*
X1371403D01*
Y1262898D01*
X1375402Y1258900D01*
Y1257900D01*
X1401400D02*
Y1263898D01*
X1398401D01*
X1397401Y1262898D01*
Y1260899D01*
X1398401Y1259899D01*
X1401400D01*
X1399401D02*
X1397401Y1257900D01*
X1395402Y1262898D02*
X1394402Y1263898D01*
X1392403D01*
X1391403Y1262898D01*
Y1261899D01*
X1392403Y1260899D01*
X1391403Y1259899D01*
Y1258900D01*
X1392403Y1257900D01*
X1394402D01*
X1395402Y1258900D01*
Y1259899D01*
X1394402Y1260899D01*
X1395402Y1261899D01*
Y1262898D01*
X1394402Y1260899D02*
X1392403D01*
X1700400Y950900D02*
Y956898D01*
X1697401D01*
X1696401Y955898D01*
Y953899D01*
X1697401Y952899D01*
X1700400D01*
X1698401D02*
X1696401Y950900D01*
X1694402D02*
X1692403D01*
X1693402D01*
Y956898D01*
X1694402Y955898D01*
X1685405Y950900D02*
X1689404D01*
X1685405Y954899D01*
Y955898D01*
X1686404Y956898D01*
X1688404D01*
X1689404Y955898D01*
X1700400Y927900D02*
Y933898D01*
X1697401D01*
X1696401Y932898D01*
Y930899D01*
X1697401Y929899D01*
X1700400D01*
X1698401D02*
X1696401Y927900D01*
X1694402D02*
X1692403D01*
X1693402D01*
Y933898D01*
X1694402Y932898D01*
X1689404D02*
X1688404Y933898D01*
X1686404D01*
X1685405Y932898D01*
Y931899D01*
X1686404Y930899D01*
X1687404D01*
X1686404D01*
X1685405Y929899D01*
Y928900D01*
X1686404Y927900D01*
X1688404D01*
X1689404Y928900D01*
X1883945Y1063400D02*
Y1069398D01*
X1880946D01*
X1879946Y1068398D01*
Y1066399D01*
X1880946Y1065399D01*
X1883945D01*
X1881945D02*
X1879946Y1063400D01*
X1877947D02*
X1875948D01*
X1876947D01*
Y1069398D01*
X1877947Y1068398D01*
X1868950Y1069398D02*
X1872948D01*
Y1066399D01*
X1870949Y1067399D01*
X1869949D01*
X1868950Y1066399D01*
Y1064400D01*
X1869949Y1063400D01*
X1871949D01*
X1872948Y1064400D01*
X1613930Y1062345D02*
Y1068343D01*
X1610931D01*
X1609931Y1067343D01*
Y1065344D01*
X1610931Y1064344D01*
X1613930D01*
X1611931D02*
X1609931Y1062345D01*
X1603933D02*
X1607932D01*
X1603933Y1066344D01*
Y1067343D01*
X1604933Y1068343D01*
X1606932D01*
X1607932Y1067343D01*
X1597935Y1062345D02*
X1601934D01*
X1597935Y1066344D01*
Y1067343D01*
X1598935Y1068343D01*
X1600934D01*
X1601934Y1067343D01*
X1883900Y1096400D02*
Y1102398D01*
X1880901D01*
X1879901Y1101398D01*
Y1099399D01*
X1880901Y1098399D01*
X1883900D01*
X1881901D02*
X1879901Y1096400D01*
X1877902D02*
X1875903D01*
X1876902D01*
Y1102398D01*
X1877902Y1101398D01*
X1872904D02*
X1871904Y1102398D01*
X1869905D01*
X1868905Y1101398D01*
Y1100399D01*
X1869905Y1099399D01*
X1868905Y1098399D01*
Y1097400D01*
X1869905Y1096400D01*
X1871904D01*
X1872904Y1097400D01*
Y1098399D01*
X1871904Y1099399D01*
X1872904Y1100399D01*
Y1101398D01*
X1871904Y1099399D02*
X1869905D01*
X1612930Y1118345D02*
Y1124343D01*
X1609931D01*
X1608931Y1123343D01*
Y1121344D01*
X1609931Y1120344D01*
X1612930D01*
X1610931D02*
X1608931Y1118345D01*
X1602933D02*
X1606932D01*
X1602933Y1122344D01*
Y1123343D01*
X1603933Y1124343D01*
X1605932D01*
X1606932Y1123343D01*
X1600934D02*
X1599934Y1124343D01*
X1597935D01*
X1596935Y1123343D01*
Y1122344D01*
X1597935Y1121344D01*
X1598934D01*
X1597935D01*
X1596935Y1120344D01*
Y1119345D01*
X1597935Y1118345D01*
X1599934D01*
X1600934Y1119345D01*
X1883945Y1088400D02*
Y1094398D01*
X1880946D01*
X1879946Y1093398D01*
Y1091399D01*
X1880946Y1090399D01*
X1883945D01*
X1881945D02*
X1879946Y1088400D01*
X1877947D02*
X1875948D01*
X1876947D01*
Y1094398D01*
X1877947Y1093398D01*
X1872948Y1089400D02*
X1871949Y1088400D01*
X1869949D01*
X1868950Y1089400D01*
Y1093398D01*
X1869949Y1094398D01*
X1871949D01*
X1872948Y1093398D01*
Y1092399D01*
X1871949Y1091399D01*
X1868950D01*
X1883900Y1047400D02*
Y1053398D01*
X1880901D01*
X1879901Y1052398D01*
Y1050399D01*
X1880901Y1049399D01*
X1883900D01*
X1881901D02*
X1879901Y1047400D01*
X1873903D02*
X1877902D01*
X1873903Y1051399D01*
Y1052398D01*
X1874903Y1053398D01*
X1876902D01*
X1877902Y1052398D01*
X1871904Y1047400D02*
X1869905D01*
X1870904D01*
Y1053398D01*
X1871904Y1052398D01*
X1774400Y950900D02*
Y956898D01*
X1771401D01*
X1770401Y955898D01*
Y953899D01*
X1771401Y952899D01*
X1774400D01*
X1772401D02*
X1770401Y950900D01*
X1764403D02*
X1768402D01*
X1764403Y954899D01*
Y955898D01*
X1765403Y956898D01*
X1767402D01*
X1768402Y955898D01*
X1762404Y956898D02*
X1758405D01*
Y955898D01*
X1762404Y951900D01*
Y950900D01*
X1774400Y927900D02*
Y933898D01*
X1771401D01*
X1770401Y932898D01*
Y930899D01*
X1771401Y929899D01*
X1774400D01*
X1772401D02*
X1770401Y927900D01*
X1764403D02*
X1768402D01*
X1764403Y931899D01*
Y932898D01*
X1765403Y933898D01*
X1767402D01*
X1768402Y932898D01*
X1762404D02*
X1761404Y933898D01*
X1759405D01*
X1758405Y932898D01*
Y931899D01*
X1759405Y930899D01*
X1758405Y929899D01*
Y928900D01*
X1759405Y927900D01*
X1761404D01*
X1762404Y928900D01*
Y929899D01*
X1761404Y930899D01*
X1762404Y931899D01*
Y932898D01*
X1761404Y930899D02*
X1759405D01*
X1829400Y1111900D02*
Y1117898D01*
X1826401D01*
X1825401Y1116898D01*
Y1114899D01*
X1826401Y1113899D01*
X1829400D01*
X1827401D02*
X1825401Y1111900D01*
X1819403D02*
X1823402D01*
X1819403Y1115899D01*
Y1116898D01*
X1820403Y1117898D01*
X1822402D01*
X1823402Y1116898D01*
X1817404Y1112900D02*
X1816404Y1111900D01*
X1814405D01*
X1813405Y1112900D01*
Y1116898D01*
X1814405Y1117898D01*
X1816404D01*
X1817404Y1116898D01*
Y1115899D01*
X1816404Y1114899D01*
X1813405D01*
X1797900Y1108400D02*
Y1114398D01*
X1794901D01*
X1793901Y1113398D01*
Y1111399D01*
X1794901Y1110399D01*
X1797900D01*
X1795901D02*
X1793901Y1108400D01*
X1791902Y1113398D02*
X1790902Y1114398D01*
X1788903D01*
X1787903Y1113398D01*
Y1112399D01*
X1788903Y1111399D01*
X1789903D01*
X1788903D01*
X1787903Y1110399D01*
Y1109400D01*
X1788903Y1108400D01*
X1790902D01*
X1791902Y1109400D01*
X1785904Y1113398D02*
X1784904Y1114398D01*
X1782905D01*
X1781905Y1113398D01*
Y1109400D01*
X1782905Y1108400D01*
X1784904D01*
X1785904Y1109400D01*
Y1113398D01*
X1832900Y1048400D02*
Y1054398D01*
X1829901D01*
X1828901Y1053398D01*
Y1051399D01*
X1829901Y1050399D01*
X1832900D01*
X1830901D02*
X1828901Y1048400D01*
X1826902Y1053398D02*
X1825902Y1054398D01*
X1823903D01*
X1822903Y1053398D01*
Y1052399D01*
X1823903Y1051399D01*
X1824903D01*
X1823903D01*
X1822903Y1050399D01*
Y1049400D01*
X1823903Y1048400D01*
X1825902D01*
X1826902Y1049400D01*
X1820904Y1048400D02*
X1818904D01*
X1819904D01*
Y1054398D01*
X1820904Y1053398D01*
X1803900Y1048400D02*
Y1054398D01*
X1800901D01*
X1799901Y1053398D01*
Y1051399D01*
X1800901Y1050399D01*
X1803900D01*
X1801901D02*
X1799901Y1048400D01*
X1797902Y1053398D02*
X1796902Y1054398D01*
X1794903D01*
X1793903Y1053398D01*
Y1052399D01*
X1794903Y1051399D01*
X1795903D01*
X1794903D01*
X1793903Y1050399D01*
Y1049400D01*
X1794903Y1048400D01*
X1796902D01*
X1797902Y1049400D01*
X1787905Y1048400D02*
X1791904D01*
X1787905Y1052399D01*
Y1053398D01*
X1788905Y1054398D01*
X1790904D01*
X1791904Y1053398D01*
X1613900Y1044400D02*
Y1050398D01*
X1610901D01*
X1609901Y1049398D01*
Y1047399D01*
X1610901Y1046399D01*
X1613900D01*
X1611901D02*
X1609901Y1044400D01*
X1607902Y1049398D02*
X1606902Y1050398D01*
X1604903D01*
X1603903Y1049398D01*
Y1048399D01*
X1604903Y1047399D01*
X1605903D01*
X1604903D01*
X1603903Y1046399D01*
Y1045400D01*
X1604903Y1044400D01*
X1606902D01*
X1607902Y1045400D01*
X1601904Y1049398D02*
X1600904Y1050398D01*
X1598905D01*
X1597905Y1049398D01*
Y1048399D01*
X1598905Y1047399D01*
X1599905D01*
X1598905D01*
X1597905Y1046399D01*
Y1045400D01*
X1598905Y1044400D01*
X1600904D01*
X1601904Y1045400D01*
X1677400Y1137900D02*
Y1143898D01*
X1674401D01*
X1673401Y1142898D01*
Y1140899D01*
X1674401Y1139899D01*
X1677400D01*
X1675401D02*
X1673401Y1137900D01*
X1671402Y1142898D02*
X1670402Y1143898D01*
X1668403D01*
X1667403Y1142898D01*
Y1141899D01*
X1668403Y1140899D01*
X1669403D01*
X1668403D01*
X1667403Y1139899D01*
Y1138900D01*
X1668403Y1137900D01*
X1670402D01*
X1671402Y1138900D01*
X1662405Y1137900D02*
Y1143898D01*
X1665404Y1140899D01*
X1661405D01*
X1590900Y1044400D02*
Y1050398D01*
X1587901D01*
X1586901Y1049398D01*
Y1047399D01*
X1587901Y1046399D01*
X1590900D01*
X1588901D02*
X1586901Y1044400D01*
X1584902Y1049398D02*
X1583902Y1050398D01*
X1581903D01*
X1580903Y1049398D01*
Y1048399D01*
X1581903Y1047399D01*
X1582903D01*
X1581903D01*
X1580903Y1046399D01*
Y1045400D01*
X1581903Y1044400D01*
X1583902D01*
X1584902Y1045400D01*
X1574905Y1050398D02*
X1578904D01*
Y1047399D01*
X1576904Y1048399D01*
X1575905D01*
X1574905Y1047399D01*
Y1045400D01*
X1575905Y1044400D01*
X1577904D01*
X1578904Y1045400D01*
X1612756Y982000D02*
Y987998D01*
X1609757D01*
X1608757Y986998D01*
Y984999D01*
X1609757Y983999D01*
X1612756D01*
X1610757D02*
X1608757Y982000D01*
X1606758Y986998D02*
X1605758Y987998D01*
X1603759D01*
X1602759Y986998D01*
Y985999D01*
X1603759Y984999D01*
X1604759D01*
X1603759D01*
X1602759Y983999D01*
Y983000D01*
X1603759Y982000D01*
X1605758D01*
X1606758Y983000D01*
X1596761Y987998D02*
X1598761Y986998D01*
X1600760Y984999D01*
Y983000D01*
X1599760Y982000D01*
X1597761D01*
X1596761Y983000D01*
Y983999D01*
X1597761Y984999D01*
X1600760D01*
X1590900Y987400D02*
Y993398D01*
X1587901D01*
X1586901Y992398D01*
Y990399D01*
X1587901Y989399D01*
X1590900D01*
X1588901D02*
X1586901Y987400D01*
X1584902Y992398D02*
X1583902Y993398D01*
X1581903D01*
X1580903Y992398D01*
Y991399D01*
X1581903Y990399D01*
X1582903D01*
X1581903D01*
X1580903Y989399D01*
Y988400D01*
X1581903Y987400D01*
X1583902D01*
X1584902Y988400D01*
X1578904Y993398D02*
X1574905D01*
Y992398D01*
X1578904Y988400D01*
Y987400D01*
X1734400Y1158900D02*
Y1164898D01*
X1731401D01*
X1730401Y1163898D01*
Y1161899D01*
X1731401Y1160899D01*
X1734400D01*
X1732401D02*
X1730401Y1158900D01*
X1725403D02*
Y1164898D01*
X1728402Y1161899D01*
X1724403D01*
X1718405Y1158900D02*
X1722404D01*
X1718405Y1162899D01*
Y1163898D01*
X1719405Y1164898D01*
X1721404D01*
X1722404Y1163898D01*
X1677400Y1159900D02*
Y1165898D01*
X1674401D01*
X1673401Y1164898D01*
Y1162899D01*
X1674401Y1161899D01*
X1677400D01*
X1675401D02*
X1673401Y1159900D01*
X1668403D02*
Y1165898D01*
X1671402Y1162899D01*
X1667403D01*
X1665404Y1164898D02*
X1664404Y1165898D01*
X1662405D01*
X1661405Y1164898D01*
Y1163899D01*
X1662405Y1162899D01*
X1663404D01*
X1662405D01*
X1661405Y1161899D01*
Y1160900D01*
X1662405Y1159900D01*
X1664404D01*
X1665404Y1160900D01*
X1826900Y1032400D02*
Y1038398D01*
X1823901D01*
X1822901Y1037398D01*
Y1035399D01*
X1823901Y1034399D01*
X1826900D01*
X1824901D02*
X1822901Y1032400D01*
X1820902Y1037398D02*
X1819902Y1038398D01*
X1817903D01*
X1816903Y1037398D01*
Y1036399D01*
X1817903Y1035399D01*
X1818903D01*
X1817903D01*
X1816903Y1034399D01*
Y1033400D01*
X1817903Y1032400D01*
X1819902D01*
X1820902Y1033400D01*
X1814904Y1037398D02*
X1813904Y1038398D01*
X1811905D01*
X1810905Y1037398D01*
Y1036399D01*
X1811905Y1035399D01*
X1810905Y1034399D01*
Y1033400D01*
X1811905Y1032400D01*
X1813904D01*
X1814904Y1033400D01*
Y1034399D01*
X1813904Y1035399D01*
X1814904Y1036399D01*
Y1037398D01*
X1813904Y1035399D02*
X1811905D01*
X1803900Y1032400D02*
Y1038398D01*
X1800901D01*
X1799901Y1037398D01*
Y1035399D01*
X1800901Y1034399D01*
X1803900D01*
X1801901D02*
X1799901Y1032400D01*
X1797902Y1037398D02*
X1796902Y1038398D01*
X1794903D01*
X1793903Y1037398D01*
Y1036399D01*
X1794903Y1035399D01*
X1795903D01*
X1794903D01*
X1793903Y1034399D01*
Y1033400D01*
X1794903Y1032400D01*
X1796902D01*
X1797902Y1033400D01*
X1791904D02*
X1790904Y1032400D01*
X1788905D01*
X1787905Y1033400D01*
Y1037398D01*
X1788905Y1038398D01*
X1790904D01*
X1791904Y1037398D01*
Y1036399D01*
X1790904Y1035399D01*
X1787905D01*
X1826900Y974400D02*
Y980398D01*
X1823901D01*
X1822901Y979398D01*
Y977399D01*
X1823901Y976399D01*
X1826900D01*
X1824901D02*
X1822901Y974400D01*
X1817903D02*
Y980398D01*
X1820902Y977399D01*
X1816903D01*
X1814904Y979398D02*
X1813904Y980398D01*
X1811905D01*
X1810905Y979398D01*
Y975400D01*
X1811905Y974400D01*
X1813904D01*
X1814904Y975400D01*
Y979398D01*
X1803900Y974400D02*
Y980398D01*
X1800901D01*
X1799901Y979398D01*
Y977399D01*
X1800901Y976399D01*
X1803900D01*
X1801901D02*
X1799901Y974400D01*
X1794903D02*
Y980398D01*
X1797902Y977399D01*
X1793903D01*
X1791904Y974400D02*
X1789905D01*
X1790904D01*
Y980398D01*
X1791904Y979398D01*
X1835900Y1135400D02*
Y1141398D01*
X1832901D01*
X1831901Y1140398D01*
Y1138399D01*
X1832901Y1137399D01*
X1835900D01*
X1833901D02*
X1831901Y1135400D01*
X1826903D02*
Y1141398D01*
X1829902Y1138399D01*
X1825903D01*
X1820905Y1135400D02*
Y1141398D01*
X1823904Y1138399D01*
X1819905D01*
X1888400Y1151998D02*
Y1147000D01*
X1887400Y1146000D01*
X1885401D01*
X1884401Y1147000D01*
Y1151998D01*
X1882402Y1146000D02*
X1880403D01*
X1881402D01*
Y1151998D01*
X1882402Y1150998D01*
X1694100Y959298D02*
Y954300D01*
X1693100Y953300D01*
X1691101D01*
X1690101Y954300D01*
Y959298D01*
X1684103Y953300D02*
X1688102D01*
X1684103Y957299D01*
Y958298D01*
X1685103Y959298D01*
X1687102D01*
X1688102Y958298D01*
X1616230Y1118343D02*
Y1113345D01*
X1615230Y1112345D01*
X1613231D01*
X1612231Y1113345D01*
Y1118343D01*
X1610232Y1117343D02*
X1609232Y1118343D01*
X1607233D01*
X1606233Y1117343D01*
Y1116344D01*
X1607233Y1115344D01*
X1608232D01*
X1607233D01*
X1606233Y1114344D01*
Y1113345D01*
X1607233Y1112345D01*
X1609232D01*
X1610232Y1113345D01*
X1776400Y1114698D02*
Y1109700D01*
X1775400Y1108700D01*
X1773401D01*
X1772401Y1109700D01*
Y1114698D01*
X1767403Y1108700D02*
Y1114698D01*
X1770402Y1111699D01*
X1766403D01*
X1768100Y959298D02*
Y954300D01*
X1767100Y953300D01*
X1765101D01*
X1764101Y954300D01*
Y959298D01*
X1758103D02*
X1762102D01*
Y956299D01*
X1760103Y957299D01*
X1759103D01*
X1758103Y956299D01*
Y954300D01*
X1759103Y953300D01*
X1761102D01*
X1762102Y954300D01*
X1829100Y1105098D02*
Y1100100D01*
X1828100Y1099100D01*
X1826101D01*
X1825101Y1100100D01*
Y1105098D01*
X1819103D02*
X1821103Y1104098D01*
X1823102Y1102099D01*
Y1100100D01*
X1822102Y1099100D01*
X1820103D01*
X1819103Y1100100D01*
Y1101099D01*
X1820103Y1102099D01*
X1823102D01*
X1616300Y1044398D02*
Y1039400D01*
X1615300Y1038400D01*
X1613301D01*
X1612301Y1039400D01*
Y1044398D01*
X1610302D02*
X1606303D01*
Y1043398D01*
X1610302Y1039400D01*
Y1038400D01*
X1829100Y1032098D02*
Y1027100D01*
X1828100Y1026100D01*
X1826101D01*
X1825101Y1027100D01*
Y1032098D01*
X1823102Y1031098D02*
X1822102Y1032098D01*
X1820103D01*
X1819103Y1031098D01*
Y1030099D01*
X1820103Y1029099D01*
X1819103Y1028099D01*
Y1027100D01*
X1820103Y1026100D01*
X1822102D01*
X1823102Y1027100D01*
Y1028099D01*
X1822102Y1029099D01*
X1823102Y1030099D01*
Y1031098D01*
X1822102Y1029099D02*
X1820103D01*
X1728400Y1168098D02*
Y1163100D01*
X1727400Y1162100D01*
X1725401D01*
X1724401Y1163100D01*
Y1168098D01*
X1722402Y1162100D02*
X1720403D01*
X1721402D01*
Y1168098D01*
X1722402Y1167098D01*
X1717404D02*
X1716404Y1168098D01*
X1714404D01*
X1713405Y1167098D01*
Y1163100D01*
X1714404Y1162100D01*
X1716404D01*
X1717404Y1163100D01*
Y1167098D01*
X1880400Y1184298D02*
Y1179300D01*
X1879400Y1178300D01*
X1877401D01*
X1876401Y1179300D01*
Y1184298D01*
X1874402Y1178300D02*
X1872403D01*
X1873402D01*
Y1184298D01*
X1874402Y1183298D01*
X1869404Y1178300D02*
X1867404D01*
X1868404D01*
Y1184298D01*
X1869404Y1183298D01*
X1845500Y1178898D02*
X1841501Y1172900D01*
Y1178898D02*
X1845500Y1172900D01*
X1839502D02*
X1837503D01*
X1838502D01*
Y1178898D01*
X1839502Y1177898D01*
X1440400Y833298D02*
Y828300D01*
X1439400Y827300D01*
X1437401D01*
X1436401Y828300D01*
Y833298D01*
X1434402Y827300D02*
X1432403D01*
X1433402D01*
Y833298D01*
X1434402Y832298D01*
X1426404Y827300D02*
Y833298D01*
X1429404Y830299D01*
X1425405D01*
X1382401Y985898D02*
X1383401Y986898D01*
X1385400D01*
X1386400Y985898D01*
Y981900D01*
X1385400Y980900D01*
X1383401D01*
X1382401Y981900D01*
X1376403Y986898D02*
X1380402D01*
Y983899D01*
X1378403Y984899D01*
X1377403D01*
X1376403Y983899D01*
Y981900D01*
X1377403Y980900D01*
X1379402D01*
X1380402Y981900D01*
X1374404Y985898D02*
X1373404Y986898D01*
X1371405D01*
X1370405Y985898D01*
Y984899D01*
X1371405Y983899D01*
X1372404D01*
X1371405D01*
X1370405Y982899D01*
Y981900D01*
X1371405Y980900D01*
X1373404D01*
X1374404Y981900D01*
X1397400Y1165998D02*
Y1161000D01*
X1396400Y1160000D01*
X1394401D01*
X1393401Y1161000D01*
Y1165998D01*
X1391402Y1160000D02*
X1389403D01*
X1390402D01*
Y1165998D01*
X1391402Y1164998D01*
X1382405Y1165998D02*
X1384404Y1164998D01*
X1386404Y1162999D01*
Y1161000D01*
X1385404Y1160000D01*
X1383405D01*
X1382405Y1161000D01*
Y1161999D01*
X1383405Y1162999D01*
X1386404D01*
X1883945Y1079400D02*
Y1085398D01*
X1880946D01*
X1879946Y1084398D01*
Y1082399D01*
X1880946Y1081399D01*
X1883945D01*
X1881945D02*
X1879946Y1079400D01*
X1873948Y1085398D02*
X1877947D01*
Y1082399D01*
X1875948Y1083399D01*
X1874948D01*
X1873948Y1082399D01*
Y1080400D01*
X1874948Y1079400D01*
X1876947D01*
X1877947Y1080400D01*
X1883900Y1071400D02*
Y1077398D01*
X1880901D01*
X1879901Y1076398D01*
Y1074399D01*
X1880901Y1073399D01*
X1883900D01*
X1881901D02*
X1879901Y1071400D01*
X1877902Y1072400D02*
X1876902Y1071400D01*
X1874903D01*
X1873903Y1072400D01*
Y1076398D01*
X1874903Y1077398D01*
X1876902D01*
X1877902Y1076398D01*
Y1075399D01*
X1876902Y1074399D01*
X1873903D01*
X1641400Y950900D02*
Y956898D01*
X1638401D01*
X1637401Y955898D01*
Y953899D01*
X1638401Y952899D01*
X1641400D01*
X1639401D02*
X1637401Y950900D01*
X1635402D02*
X1633403D01*
X1634402D01*
Y956898D01*
X1635402Y955898D01*
X1630404D02*
X1629404Y956898D01*
X1627405D01*
X1626405Y955898D01*
Y951900D01*
X1627405Y950900D01*
X1629404D01*
X1630404Y951900D01*
Y955898D01*
X1641400Y927900D02*
Y933898D01*
X1638401D01*
X1637401Y932898D01*
Y930899D01*
X1638401Y929899D01*
X1641400D01*
X1639401D02*
X1637401Y927900D01*
X1635402D02*
X1633403D01*
X1634402D01*
Y933898D01*
X1635402Y932898D01*
X1630404Y927900D02*
X1628404D01*
X1629404D01*
Y933898D01*
X1630404Y932898D01*
X1715400Y950900D02*
Y956898D01*
X1712401D01*
X1711401Y955898D01*
Y953899D01*
X1712401Y952899D01*
X1715400D01*
X1713401D02*
X1711401Y950900D01*
X1705403D02*
X1709402D01*
X1705403Y954899D01*
Y955898D01*
X1706403Y956898D01*
X1708402D01*
X1709402Y955898D01*
X1699405Y956898D02*
X1703404D01*
Y953899D01*
X1701405Y954899D01*
X1700405D01*
X1699405Y953899D01*
Y951900D01*
X1700405Y950900D01*
X1702404D01*
X1703404Y951900D01*
X1715400Y927900D02*
Y933898D01*
X1712401D01*
X1711401Y932898D01*
Y930899D01*
X1712401Y929899D01*
X1715400D01*
X1713401D02*
X1711401Y927900D01*
X1705403D02*
X1709402D01*
X1705403Y931899D01*
Y932898D01*
X1706403Y933898D01*
X1708402D01*
X1709402Y932898D01*
X1699405Y933898D02*
X1701405Y932898D01*
X1703404Y930899D01*
Y928900D01*
X1702404Y927900D01*
X1700405D01*
X1699405Y928900D01*
Y929899D01*
X1700405Y930899D01*
X1703404D01*
X1496000Y1025500D02*
Y1031498D01*
X1493001D01*
X1492001Y1030498D01*
Y1028499D01*
X1493001Y1027499D01*
X1496000D01*
X1494001D02*
X1492001Y1025500D01*
X1486003Y1031498D02*
X1488003Y1030498D01*
X1490002Y1028499D01*
Y1026500D01*
X1489002Y1025500D01*
X1487003D01*
X1486003Y1026500D01*
Y1027499D01*
X1487003Y1028499D01*
X1490002D01*
X1484004Y1030498D02*
X1483004Y1031498D01*
X1481005D01*
X1480005Y1030498D01*
Y1026500D01*
X1481005Y1025500D01*
X1483004D01*
X1484004Y1026500D01*
Y1030498D01*
X1426400Y1024900D02*
Y1030898D01*
X1423401D01*
X1422401Y1029898D01*
Y1027899D01*
X1423401Y1026899D01*
X1426400D01*
X1424401D02*
X1422401Y1024900D01*
X1416403Y1030898D02*
X1418403Y1029898D01*
X1420402Y1027899D01*
Y1025900D01*
X1419402Y1024900D01*
X1417403D01*
X1416403Y1025900D01*
Y1026899D01*
X1417403Y1027899D01*
X1420402D01*
X1414404Y1024900D02*
X1412405D01*
X1413404D01*
Y1030898D01*
X1414404Y1029898D01*
X1415400Y1024900D02*
Y1030898D01*
X1412401D01*
X1411401Y1029898D01*
Y1027899D01*
X1412401Y1026899D01*
X1415400D01*
X1413401D02*
X1411401Y1024900D01*
X1405403Y1030898D02*
X1407403Y1029898D01*
X1409402Y1027899D01*
Y1025900D01*
X1408402Y1024900D01*
X1406403D01*
X1405403Y1025900D01*
Y1026899D01*
X1406403Y1027899D01*
X1409402D01*
X1399405Y1024900D02*
X1403404D01*
X1399405Y1028899D01*
Y1029898D01*
X1400405Y1030898D01*
X1402404D01*
X1403404Y1029898D01*
X1853900Y855400D02*
Y861398D01*
X1850901D01*
X1849901Y860398D01*
Y858399D01*
X1850901Y857399D01*
X1853900D01*
X1851901D02*
X1849901Y855400D01*
X1847902Y861398D02*
X1843903D01*
Y860398D01*
X1847902Y856400D01*
Y855400D01*
X1837905Y861398D02*
X1841904D01*
Y858399D01*
X1839905Y859399D01*
X1838905D01*
X1837905Y858399D01*
Y856400D01*
X1838905Y855400D01*
X1840904D01*
X1841904Y856400D01*
X1849901Y840398D02*
X1850901Y841398D01*
X1852900D01*
X1853900Y840398D01*
Y836400D01*
X1852900Y835400D01*
X1850901D01*
X1849901Y836400D01*
X1843903Y841398D02*
X1845903Y840398D01*
X1847902Y838399D01*
Y836400D01*
X1846902Y835400D01*
X1844903D01*
X1843903Y836400D01*
Y837399D01*
X1844903Y838399D01*
X1847902D01*
X1841904Y840398D02*
X1840904Y841398D01*
X1838905D01*
X1837905Y840398D01*
Y836400D01*
X1838905Y835400D01*
X1840904D01*
X1841904Y836400D01*
Y840398D01*
X1849901Y866398D02*
X1850901Y867398D01*
X1852900D01*
X1853900Y866398D01*
Y862400D01*
X1852900Y861400D01*
X1850901D01*
X1849901Y862400D01*
X1843903Y867398D02*
X1845903Y866398D01*
X1847902Y864399D01*
Y862400D01*
X1846902Y861400D01*
X1844903D01*
X1843903Y862400D01*
Y863399D01*
X1844903Y864399D01*
X1847902D01*
X1841904Y861400D02*
X1839905D01*
X1840904D01*
Y867398D01*
X1841904Y866398D01*
M02*
